<?xml version="1.0" standalone="no"?><!DOCTYPE svg PUBLIC "-//W3C//DTD SVG 1.1//EN" "http://www.w3.org/Graphics/SVG/1.1/DTD/svg11.dtd"><svg width="100%" height="100%" viewBox="0 0 142 60" version="1.1" xmlns="http://www.w3.org/2000/svg" xmlns:xlink="http://www.w3.org/1999/xlink" xml:space="preserve" style="fill-rule:evenodd;clip-rule:evenodd;stroke-linejoin:round;stroke-miterlimit:1.41421;"><g><g><path d="M3.721,16.674l-3.473,16.157l4.412,0l1.389,-6.516l6.332,0l0.634,-3.043l-6.435,0l0.838,-3.534l6.659,0l0.612,-3.064l-10.968,0Z" style="fill:#004a99;fill-rule:nonzero;"/><path d="M31.153,16.674l-4.351,0l-1.614,7.313c-0.572,2.594 -1.001,5.923 -3.819,5.923c-1.553,0 -2.329,-1.021 -2.329,-2.328c0,-0.368 0.143,-1.001 0.306,-1.757l1.982,-9.13l-4.453,0l-1.859,8.272c-0.163,0.736 -0.347,1.777 -0.347,3.064c0,3.799 2.88,5.086 6.577,5.086c5.964,0 7.231,-3.758 8.313,-8.906" style="fill:#004a99;fill-rule:nonzero;"/><path d="M30.458,32.831l4.126,0l2.288,-11.173l0.041,0l3.431,11.173l5.454,0l3.472,-16.157l-4.126,0l-2.308,11.194l-0.041,0l-3.37,-11.194l-5.474,0" style="fill:#004a99;fill-rule:nonzero;"/><path d="M48.78,32.831l4.412,0l1.573,-7.353l0.061,0l4.044,7.353l5.045,0l-4.84,-8.313l7.802,-7.844l-5.658,0l-5.923,6.598l-0.061,0l1.409,-6.598l-4.412,0" style="fill:#004a99;fill-rule:nonzero;"/><path d="M65.284,32.831l11.867,0l0.634,-3.064l-7.497,0l0.797,-3.656l6.802,0l0.694,-3.064l-6.842,0l0.755,-3.309l7.211,0l0.633,-3.064l-11.541,0" style="fill:#004a99;fill-rule:nonzero;"/><path d="M109.894,16.491l-16.218,0l0,-2.349l-7.149,5.555l7.149,5.577l0,-2.37l11.683,0l4.085,10.193l6.782,0" style="fill:#dc0814;fill-rule:nonzero;"/><path d="M111.242,16.491l0.163,0.428l6.108,15.973l0.081,0.205l16.218,0l0,2.369l0.511,-0.429l6.291,-4.902l0.327,-0.245l-0.327,-0.245l-6.291,-4.923l-0.511,-0.408l0,2.369l-11.704,0l-4.003,-9.988l-0.082,-0.204l-6.781,0Z" style="fill:#004a99;fill-rule:nonzero;"/><path d="M124.008,34.363l-3.146,0l-0.04,0l-0.021,0.02c-2.063,1.471 -4.534,2.247 -7.108,2.247c-6.659,0 -12.092,-5.27 -12.092,-11.765c0,-0.204 0,-0.388 0.02,-0.592l0,-0.102l-0.102,0l-2.104,0l-0.081,0l0,0.694c0,7.701 6.434,13.971 14.339,13.971c3.962,0 7.639,-1.532 10.376,-4.33l0.143,-0.163" style="fill:#004a99;fill-rule:nonzero;"/><path d="M128.032,25.335c0,-0.164 0,-0.307 0,-0.47c0,-7.7 -6.434,-13.971 -14.339,-13.971c-3.901,0 -7.558,1.491 -10.274,4.228l-0.143,0.163l3.431,0l0.021,-0.02c2.042,-1.409 4.453,-2.145 6.965,-2.145c6.659,0 12.092,5.27 12.092,11.765l-0.02,0.266l-0.021,0.184l0,0.082l0.102,0l2.104,0.02l0.082,0" style="fill:#004a99;fill-rule:nonzero;"/></g></g></svg>