<?xml version="1.0" encoding="UTF-8" standalone="no"?>
<!-- Created with Inkscape (http://www.inkscape.org/) by Marsupilami -->
<svg
   xmlns:svg="http://www.w3.org/2000/svg"
   xmlns="http://www.w3.org/2000/svg"
   version="1.0"
   width="1024"
   height="186"
   viewBox="0 0 197.99094 35.875496"
   id="svg2671">
  <defs
     id="defs2673" />
  <g
     transform="translate(71.138325,-19.062251)"
     id="layer1">
    <path
       d="M 20.75,0 C 18.659205,-0.053411531 16.298281,0.087316 13.90625,0.625 C 6.9527501,2.129225 0,7.652012 0,15.40625 C 0,20.710262 3.033375,25.000388 7.53125,27.53125 C 9.4089998,28.587787 11.5455,29.31435 13.8125,29.71875 C 22.000375,31.179462 31.40625,28.8125 31.40625,28.8125 L 31.40625,19.1875 C 31.40625,19.1875 29.595,18.965012 28.5,18.84375 C 27.405124,18.722487 25.0625,18.3125 25.0625,18.3125 L 25.0625,25.4375 C 25.062499,25.437499 20.710375,27.112013 14.90625,25.4375 C 14.054875,25.191849 13.307125,24.844762 12.59375,24.5 C 8.2046248,22.378861 6.34375,18.573675 6.34375,14.9375 C 6.3437502,8.8043875 11.4515,4.03125 19.1875,4.03125 C 22.037,4.0312501 24.136,4.728825 25.53125,5.375 C 26.806999,5.9658129 27.5,6.5 27.5,6.5 L 27.5,0.8125 L 27.46875,0.84375 C 27.468749,0.84375001 25.56725,0.344625 22.75,0.125 C 22.128938,0.0765845 21.446932,0.017803844 20.75,0 z M 39,0.6875 C 39,0.6875 39.208,1.564587 39.28125,2.25 C 39.345125,2.847712 39.375,3.9999998 39.375,4 L 39.375,12.5 L 42.53125,12.5625 L 45.75,12.65625 L 45.78125,4.8125 L 52.375,4.8125 C 52.375,4.8125 53.571251,4.8400369 54.59375,4.875 C 55.473625,4.905087 56.565251,4.9960751 56.84375,5.0625 C 57.184875,5.143912 57.437499,5.2812501 57.4375,5.28125 L 57.4375,0.6875 L 39,0.6875 z M 74.90625,0.6875 C 74.90625,0.6875 74.922274,1.479593 74.65625,2.25 C 74.477068,2.768976 73.843748,4.1562498 73.84375,4.15625 L 70.53125,11.65625 C 70.53125,11.65625 72.861632,11.313801 73.96875,11.09375 C 74.882679,10.912108 76.687503,10.4375 76.6875,10.4375 L 79.03125,5.09375 L 79.15625,4.71875 L 79.3125,5.09375 L 84.375,16.84375 L 88.75,27.09375 C 88.75,27.09375 89.076788,27.725003 89.15625,28.3125 C 89.228003,28.842679 89.031247,29.40625 89.03125,29.40625 L 97.59375,29.375 C 97.59375,29.375 97.309027,29.156239 96.875,28.625 C 96.548514,28.225368 96.128685,27.614435 95.875,27.1875 C 95.531001,26.608513 94.437498,23.968749 94.4375,23.96875 L 84.4375,0.6875 L 74.90625,0.6875 z M 121.3125,7.375 C 114.71563,7.3750002 109.875,11.809872 109.875,18.46875 C 109.875,25.344404 114.43653,29.75 121.28125,29.75 C 124.6571,29.749999 126.69807,29.183903 127.875,28.78125 C 127.875,28.78125 127.875,17.53125 127.875,17.53125 L 120.21875,17.53125 L 120.21875,20.09375 L 124.78125,20.09375 C 124.78125,20.09375 124.78125,26.65625 124.78125,26.65625 C 124.00699,26.811098 123.44957,27.03125 121.3125,27.03125 C 116.82166,27.031251 113.15625,23.641849 113.15625,18.5625 C 113.15625,13.730957 116.48232,10.09375 121.46875,10.09375 C 124.25618,10.09375 125.88865,10.602677 127.40625,11.59375 C 127.40625,11.59375 127.65625,8.46875 127.65625,8.46875 C 125.85991,7.8493022 124.47161,7.375 121.3125,7.375 z M 54.71875,8.03125 C 54.71875,8.03125 54.720582,8.0547538 54.71875,8.0625 C 55.491852,8.119265 60.730629,8.5863662 62.46875,8.75 C 64.342019,8.926356 69.750002,9.4687501 69.75,9.46875 L 70.15625,8.5625 C 70.15625,8.5625 69.36664,8.4689004 67.78125,8.375 C 66.517894,8.300179 64.742115,8.218989 62.4375,8.15625 C 61.325718,8.12599 59.52224,8.0849883 57.9375,8.0625 C 56.198617,8.037826 54.71875,8.0312498 54.71875,8.03125 z M 35.09375,8.3125 C 34.31849,8.3375319 33.404507,8.386622 32.4375,8.4375 C 27.618331,8.6910394 23.235026,9.391199 20.65625,10.15625 C 18.368018,10.835104 16.4375,11.770989 16.4375,12.90625 C 16.4375,14.00713 18.173345,14.920096 20.8125,15.6875 C 23.139885,16.364244 26.179217,16.950067 29.34375,17.34375 C 38.522374,18.48562 46.50835,18.428823 49.25,18.4375 C 51.043708,18.44318 63.605466,18.420339 72.5625,16.8125 C 78.358811,15.772018 81.9375,14.470038 81.9375,12.875 C 81.937498,12.122483 81.235339,11.584332 80.46875,11.15625 C 79.565565,10.651895 78.59375,10.375 78.59375,10.375 C 78.593752,10.375 79.110128,10.98554 78.0625,11.5625 C 77.64979,11.7898 77.007545,12.022086 76.15625,12.25 C 75.416512,12.448048 74.501977,12.656007 73.46875,12.84375 C 71.822169,13.142917 69.863376,13.389381 67.59375,13.59375 C 66.1037,13.727916 62.529575,13.96399 58.125,14.125 C 53.544823,14.292419 48.96875,14.28125 48.96875,14.28125 C 48.968751,14.28125 44.801016,14.273539 39.6875,14.09375 C 37.269961,14.008747 34.646111,13.865741 32.15625,13.6875 C 28.962035,13.458854 25.914069,13.098987 23.84375,12.65625 C 22.172437,12.298849 21.15625,11.865184 21.15625,11.5 C 21.15625,9.7727834 37.3125,8.3125 37.3125,8.3125 C 37.312498,8.3124996 36.405545,8.270136 35.09375,8.3125 z M 139.96875,13.21875 C 138.29631,13.21875 136.64926,14.389775 135.875,16.03125 C 135.875,16.03125 135.8125,16.03125 135.8125,16.03125 L 135.8125,13.5625 L 133.0625,13.5625 L 133.0625,29.375 L 136,29.375 C 136,29.375 136,22.1875 136,22.1875 C 136,18.223136 137.67966,15.75 140.28125,15.75 C 140.77678,15.75 141.37972,15.814437 141.90625,16.03125 C 141.90625,16.03125 141.90625,13.40625 141.90625,13.40625 C 141.2868,13.282339 140.83597,13.21875 139.96875,13.21875 z M 152.125,13.21875 C 147.29344,13.21875 144.0625,16.668179 144.0625,21.46875 C 144.0625,25.990597 147.35539,29.75 152.125,29.75 C 156.86364,29.749999 160.15625,25.990597 160.15625,21.46875 C 160.15626,16.668179 156.92559,13.21875 152.125,13.21875 z M 191.1875,13.21875 C 188.40006,13.21875 186.5868,14.635606 185.8125,15.8125 C 185.8125,15.8125 185.75,15.8125 185.75,15.8125 L 185.75,13.5625 L 182.96875,13.5625 L 182.96875,35.875 L 185.875,35.875 L 185.875,27.21875 C 185.875,27.218749 185.9375,27.21875 185.9375,27.21875 C 186.83567,28.674385 188.43131,29.75 191.21875,29.75 C 195.98834,29.749999 198,25.523508 198,21.1875 C 198,16.944396 195.77128,13.21875 191.1875,13.21875 z M 164.03125,13.5625 C 164.03126,13.5625 164.03125,22.96875 164.03125,22.96875 C 164.03126,27.211856 165.88051,29.75 169.96875,29.75 C 172.16773,29.749999 174.25782,28.67136 175.125,26.875 C 175.12501,26.875 175.1875,26.875 175.1875,26.875 L 175.1875,29.375 L 178,29.375 L 178,13.5625 L 175.09375,13.5625 C 175.09375,13.5625 175.09375,20.875 175.09375,20.875 C 175.09375,24.715452 173.62646,27.375 170.3125,27.375 C 167.77285,27.220134 166.96875,25.435623 166.96875,21.75 C 166.96875,21.749999 166.96875,13.5625 166.96875,13.5625 L 164.03125,13.5625 z M 152.125,15.5625 C 155.22217,15.5625 157.0625,18.46454 157.0625,21.46875 C 157.0625,24.287156 155.53188,27.375 152.125,27.375 C 148.68716,27.375001 147.15625,24.287156 147.15625,21.46875 C 147.15625,18.46454 148.99688,15.5625 152.125,15.5625 z M 190.5625,15.5625 C 193.72159,15.5625 194.96816,18.556834 194.90625,21.40625 C 194.96816,23.883951 193.65933,27.375 190.53125,27.375 C 187.24828,27.375001 185.875,24.132603 185.875,21.5 C 185.875,18.5577 187.40341,15.5625 190.5625,15.5625 z M 73.375,18.28125 C 73.375,18.28125 71.180503,18.6624 69.75,18.84375 C 68.961625,18.943725 67.156246,19.15625 67.15625,19.15625 C 67.15625,19.15625 65.882628,21.928187 64.84375,24.03125 C 64.301125,25.130025 63.639,26.551325 62.96875,27.59375 C 62.4295,28.432425 61.593751,29.375 61.59375,29.375 L 69.78125,29.375 C 69.78125,29.375 69.585373,29.142126 69.53125,28.71875 C 69.496375,28.4469 69.522749,28.072099 69.59375,27.71875 C 69.756625,26.908687 70.468751,25.281251 70.46875,25.28125 L 73.375,18.28125 z M 39.375,19.78125 L 39.375,26.125 C 39.375,26.125 39.313626,27.494101 39.21875,28.09375 C 39.110125,28.780588 38.96875,29.4375 38.96875,29.4375 L 57.96875,29.4375 L 59.875,24.90625 C 59.875,24.90625 59.820626,24.959789 59.375,25.09375 C 59.084875,25.180988 58.5525,25.2514 57.9375,25.3125 C 57.408125,25.365088 56.79975,25.375001 56.40625,25.375 C 56.113625,25.375 45.75,25.375001 45.75,25.375 L 45.75,20 C 45.75,20 43.674876,19.945162 42.4375,19.90625 C 41.238,19.868512 39.375001,19.781249 39.375,19.78125 z "
       transform="translate(-71.138325,19.062251)"
       style="fill:#a1a1a1;fill-opacity:1;fill-rule:nonzero;stroke:none"
       id="path2486" />
  </g>
</svg>
