<?xml version="1.0" encoding="UTF-8" standalone="no"?>
<svg
   width="235.85417"
   zoomAndPan="magnify"
   viewBox="0 0 176.79628 176.89063"
   height="235.85417"
   preserveAspectRatio="xMidYMid"
   version="1.0"
   id="svg161"
   sodipodi:docname="Project-Reference-Kelvion-OR-PHE-DE.svg"
   inkscape:version="1.4.2 (ebf0e940, 2025-05-08)"
   xmlns:inkscape="http://www.inkscape.org/namespaces/inkscape"
   xmlns:sodipodi="http://sodipodi.sourceforge.net/DTD/sodipodi-0.dtd"
   xmlns="http://www.w3.org/2000/svg"
   xmlns:svg="http://www.w3.org/2000/svg">
  <sodipodi:namedview
     id="namedview161"
     pagecolor="#ffffff"
     bordercolor="#000000"
     borderopacity="0.25"
     inkscape:showpageshadow="2"
     inkscape:pageopacity="0.0"
     inkscape:pagecheckerboard="0"
     inkscape:deskcolor="#d1d1d1"
     showgrid="false"
     inkscape:zoom="2.3366667"
     inkscape:cx="115.54922"
     inkscape:cy="124.3224"
     inkscape:window-width="1512"
     inkscape:window-height="920"
     inkscape:window-x="0"
     inkscape:window-y="34"
     inkscape:window-maximized="1"
     inkscape:current-layer="svg161" />
  <defs
     id="defs3">
    <g
       id="g1" />
    <clipPath
       id="a263ab5f77">
      <path
         d="M 0,0.0585938 H 224.76172 V 224.9375 H 0 Z m 0,0"
         clip-rule="nonzero"
         id="path1" />
    </clipPath>
    <clipPath
       id="0774237ade">
      <path
         d="M 25.496094,19.320312 H 202.39844 V 196.22266 H 25.496094 Z m 0,0"
         clip-rule="nonzero"
         id="path2" />
    </clipPath>
    <clipPath
       id="3a4a737e88">
      <path
         d="M 64.707031,57.714844 H 165 V 158 H 64.707031 Z m 0,0"
         clip-rule="nonzero"
         id="path3" />
    </clipPath>
  </defs>
  <g
     clip-path="url(#0774237ade)"
     id="g4"
     transform="translate(-25.556099,-19.320312)">
    <path
       fill="#38b6ff"
       d="m 202.38672,107.76563 c 0,1.44921 -0.0352,2.89453 -0.10547,4.33984 -0.0703,1.44531 -0.17578,2.89062 -0.32031,4.32812 -0.14063,1.44141 -0.31641,2.87891 -0.53125,4.3086 -0.21094,1.43359 -0.45703,2.85937 -0.74219,4.27734 -0.28125,1.42188 -0.59766,2.83203 -0.94922,4.23828 -0.35156,1.40235 -0.73828,2.79688 -1.16016,4.1836 -0.41796,1.38281 -0.87109,2.75781 -1.35937,4.12109 -0.48828,1.36328 -1.00781,2.71484 -1.5625,4.05078 -0.55469,1.33594 -1.14063,2.66016 -1.76172,3.96875 -0.61719,1.30859 -1.26953,2.60156 -1.94922,3.87891 -0.68359,1.27343 -1.39453,2.53515 -2.14062,3.77734 -0.7461,1.23828 -1.51953,2.46094 -2.32422,3.66797 -0.80078,1.20312 -1.63672,2.38281 -2.4961,3.54687 -0.86328,1.16407 -1.7539,2.30469 -2.67187,3.42188 -0.91797,1.12109 -1.86328,2.21484 -2.83594,3.28906 -0.97265,1.07031 -1.96875,2.1211 -2.99219,3.14453 -1.02343,1.02344 -2.07421,2.01953 -3.14453,2.99219 -1.07422,0.97266 -2.16797,1.91797 -3.28906,2.83594 -1.11719,0.91797 -2.25781,1.80859 -3.42187,2.67187 -1.16407,0.85938 -2.34375,1.69532 -3.55079,2.5 -1.20312,0.80078 -2.42578,1.57813 -3.66796,2.32032 -1.23829,0.74609 -2.5,1.45703 -3.77344,2.14062 -1.27735,0.68359 -2.57031,1.33203 -3.87891,1.95313 -1.30859,0.61718 -2.63281,1.20312 -3.96875,1.75781 -1.33984,0.55469 -2.6875,1.07422 -4.05078,1.5625 -1.36328,0.48828 -2.73828,0.9414 -4.12109,1.36328 -1.38672,0.41797 -2.78125,0.80469 -4.1836,1.15625 -1.40625,0.35156 -2.8164,0.66797 -4.23828,0.94922 -1.41797,0.28515 -2.84375,0.53125 -4.27734,0.74219 -1.42969,0.21484 -2.86719,0.39062 -4.30859,0.53125 -1.4375,0.14453 -2.88282,0.25 -4.32813,0.32031 -1.44531,0.0703 -2.89062,0.10547 -4.33984,0.10547 -1.44922,0 -2.89453,-0.0352 -4.33985,-0.10547 -1.44531,-0.0703 -2.89062,-0.17578 -4.32812,-0.32031 -1.44141,-0.14063 -2.87891,-0.31641 -4.3086,-0.53125 -1.43359,-0.21094 -2.859371,-0.45704 -4.27734,-0.74219 -1.421875,-0.28125 -2.832031,-0.59766 -4.238281,-0.94922 -1.402344,-0.35156 -2.796875,-0.73828 -4.183594,-1.15625 -1.382813,-0.42188 -2.757813,-0.875 -4.121094,-1.36328 -1.363281,-0.48828 -2.714843,-1.00781 -4.050781,-1.5625 -1.335938,-0.55469 -2.660156,-1.14063 -3.96875,-1.75781 -1.308594,-0.6211 -2.601562,-1.26954 -3.878906,-1.95313 -1.273438,-0.68359 -2.535156,-1.39453 -3.777344,-2.14062 -1.238281,-0.74219 -2.460938,-1.51954 -3.664062,-2.32032 -1.207032,-0.80468 -2.386719,-1.64062 -3.550782,-2.5 -1.164062,-0.86328 -2.304687,-1.7539 -3.421875,-2.67187 -1.121093,-0.91797 -2.214843,-1.86328 -3.289062,-2.83594 -1.070313,-0.97266 -2.121094,-1.96875 -3.144531,-2.99219 -1.023438,-1.02343 -2.019532,-2.07422 -2.992188,-3.14453 -0.972656,-1.07422 -1.917969,-2.16797 -2.835938,-3.28906 -0.917968,-1.11719 -1.808593,-2.25781 -2.671874,-3.42188 -0.859376,-1.16406 -1.695313,-2.34375 -2.5,-3.54687 -0.800782,-1.20703 -1.578126,-2.42969 -2.320313,-3.66797 -0.746094,-1.24219 -1.457031,-2.50391 -2.140625,-3.77734 -0.683594,-1.27735 -1.332031,-2.57032 -1.953125,-3.87891 -0.617187,-1.30859 -1.203125,-2.63281 -1.757813,-3.96875 -0.554687,-1.33594 -1.074218,-2.6875 -1.5625,-4.05078 -0.488281,-1.36328 -0.941406,-2.73828 -1.359374,-4.12109 -0.421876,-1.38672 -0.808594,-2.78125 -1.160157,-4.1836 -0.351562,-1.40625 -0.667969,-2.8164 -0.949219,-4.23828 -0.285156,-1.41797 -0.53125,-2.84375 -0.742187,-4.27734 -0.214844,-1.42969 -0.390625,-2.86719 -0.53125,-4.3086 -0.144531,-1.4375 -0.25,-2.88281 -0.320313,-4.32812 -0.07031,-1.44531 -0.105468,-2.89063 -0.105468,-4.33984 0,-1.44532 0.03516,-2.89454 0.105468,-4.33985 0.07031,-1.44531 0.175782,-2.89062 0.320313,-4.328124 0.140625,-1.441406 0.316406,-2.878906 0.53125,-4.308594 0.210937,-1.433593 0.457031,-2.859374 0.742187,-4.277343 0.28125,-1.421875 0.597657,-2.832031 0.949219,-4.238281 0.351563,-1.402344 0.738281,-2.796876 1.160157,-4.183594 0.417968,-1.382813 0.871093,-2.757813 1.359374,-4.121094 0.488282,-1.363281 1.007813,-2.710938 1.5625,-4.050781 0.554688,-1.335938 1.140626,-2.660157 1.757813,-3.96875 0.621094,-1.308594 1.269531,-2.601563 1.953125,-3.875 0.683594,-1.277344 1.394531,-2.539063 2.140625,-3.777344 0.742187,-1.242187 1.519531,-2.464844 2.320313,-3.667969 0.804687,-1.203125 1.640624,-2.386718 2.5,-3.550781 0.863281,-1.164063 1.753906,-2.304687 2.671874,-3.421875 0.917969,-1.121094 1.863282,-2.214844 2.835938,-3.289062 0.972656,-1.070313 1.96875,-2.121094 2.992188,-3.144532 1.023437,-1.023437 2.074218,-2.019531 3.144531,-2.992187 1.074219,-0.972657 2.167969,-1.917969 3.289062,-2.835938 1.117188,-0.917969 2.257813,-1.808593 3.421875,-2.667969 1.164063,-0.863281 2.34375,-1.699218 3.550782,-2.5 1.203124,-0.804687 2.425781,-1.578124 3.664062,-2.324218 1.242188,-0.742188 2.503906,-1.457032 3.777344,-2.140625 1.277344,-0.679688 2.570312,-1.332031 3.878906,-1.949219 1.308594,-0.621094 2.632812,-1.207031 3.96875,-1.761719 1.335938,-0.554687 2.6875,-1.074219 4.050781,-1.5625 1.363281,-0.488281 2.738281,-0.941406 4.121094,-1.359375 1.386719,-0.421875 2.78125,-0.808594 4.183594,-1.160156 1.40625,-0.351562 2.816406,-0.667969 4.238281,-0.949219 1.417969,-0.285156 2.84375,-0.53125 4.27734,-0.742187 1.42969,-0.214844 2.86719,-0.390625 4.3086,-0.53125 1.4375,-0.144532 2.88281,-0.25 4.32812,-0.320313 1.44532,-0.07031 2.89063,-0.105469 4.33985,-0.105469 1.44922,0 2.89453,0.03516 4.33984,0.105469 1.44531,0.07031 2.89063,0.175781 4.32813,0.320313 1.4414,0.140625 2.8789,0.316406 4.30859,0.53125 1.43359,0.210937 2.85937,0.457031 4.27734,0.742187 1.42188,0.28125 2.83203,0.597657 4.23828,0.949219 1.40235,0.351562 2.79688,0.738281 4.1836,1.160156 C 141,23.546875 142.375,24 143.73828,24.488281 c 1.36328,0.488281 2.71094,1.007813 4.05078,1.5625 1.33594,0.554688 2.66016,1.140625 3.96875,1.761719 1.3086,0.617188 2.60156,1.269531 3.87891,1.949219 1.27344,0.683593 2.53515,1.398437 3.77344,2.140625 1.24218,0.746094 2.46484,1.519531 3.66796,2.324218 1.20704,0.800782 2.38672,1.636719 3.55079,2.5 1.16406,0.859376 2.30468,1.75 3.42187,2.667969 1.12109,0.917969 2.21484,1.863281 3.28906,2.835938 1.07032,0.972656 2.1211,1.96875 3.14453,2.992187 1.02344,1.023438 2.01954,2.074219 2.99219,3.144532 0.97266,1.074218 1.91797,2.167968 2.83594,3.289062 0.91797,1.117188 1.80859,2.257812 2.67187,3.421875 0.85938,1.164063 1.69532,2.347656 2.4961,3.550781 0.80469,1.203125 1.57812,2.425782 2.32422,3.667969 0.74609,1.238281 1.45703,2.5 2.14062,3.777344 0.67969,1.273437 1.33203,2.566406 1.94922,3.875 0.62109,1.308593 1.20703,2.632812 1.76172,3.96875 0.55469,1.339843 1.07422,2.6875 1.5625,4.050781 0.48828,1.363281 0.94141,2.738281 1.35937,4.121094 0.42188,1.386718 0.8086,2.78125 1.16016,4.183594 0.35156,1.40625 0.66797,2.816406 0.94922,4.238281 0.28516,1.417969 0.53125,2.84375 0.74219,4.277343 0.21484,1.429688 0.39062,2.867188 0.53125,4.308594 0.14453,1.437504 0.25,2.882814 0.32031,4.328124 0.0703,1.44531 0.10547,2.89453 0.10547,4.33985 z m 0,0"
       fill-opacity="1"
       fill-rule="nonzero"
       id="path4" />
  </g>
  <g
     clip-path="url(#3a4a737e88)"
     id="g5"
     transform="translate(-25.556099,-19.320312)">
    <path
       fill="#000000"
       d="m 164.81641,107.76563 c 0,1.64062 -0.082,3.27734 -0.24219,4.90625 -0.16016,1.63281 -0.40235,3.2539 -0.72266,4.85937 -0.32031,1.60938 -0.71484,3.19531 -1.1914,4.76563 -0.47657,1.57031 -1.02735,3.10937 -1.65625,4.625 -0.625,1.51562 -1.32813,2.99609 -2.09766,4.4414 -0.77344,1.44531 -1.61719,2.84766 -2.52734,4.21094 -0.91016,1.36328 -1.88672,2.67969 -2.92579,3.94531 -1.03906,1.26953 -2.14062,2.48047 -3.29687,3.64063 -1.16016,1.16015 -2.375,2.25781 -3.64063,3.29687 -1.26953,1.04297 -2.58203,2.01563 -3.94531,2.92578 -1.36328,0.91406 -2.76953,1.75391 -4.21484,2.52735 -1.44531,0.77343 -2.92578,1.47265 -4.44141,2.10156 -1.51172,0.625 -3.05469,1.17578 -4.625,1.65234 -1.5664,0.47656 -3.15625,0.875 -4.76172,1.19531 -1.60937,0.32032 -3.23046,0.5586 -4.85937,0.71875 -1.63281,0.16016 -3.26563,0.24219 -4.90625,0.24219 -1.64063,0 -3.27344,-0.082 -4.90625,-0.24219 -1.63281,-0.16015 -3.25,-0.39843 -4.85938,-0.71875 -1.60937,-0.32031 -3.19531,-0.71875 -4.76562,-1.19531 -1.566408,-0.47656 -3.109376,-1.02734 -4.625001,-1.65234 -1.511719,-0.62891 -2.992188,-1.32813 -4.4375,-2.10156 -1.449219,-0.77344 -2.851563,-1.61329 -4.214844,-2.52735 -1.363281,-0.91015 -2.679687,-1.88281 -3.945313,-2.92578 -1.265624,-1.03906 -2.480468,-2.13672 -3.640624,-3.29687 -1.15625,-1.16016 -2.257813,-2.3711 -3.296876,-3.64063 -1.039062,-1.26562 -2.015624,-2.58203 -2.925781,-3.94531 -0.910156,-1.36328 -1.753906,-2.76563 -2.527343,-4.21094 -0.773438,-1.44531 -1.472657,-2.92578 -2.097657,-4.4414 -0.628906,-1.51563 -1.179687,-3.05469 -1.65625,-4.625 -0.476562,-1.57032 -0.875,-3.15625 -1.195312,-4.76563 -0.316407,-1.60547 -0.558594,-3.22656 -0.71875,-4.85937 -0.160157,-1.62891 -0.242188,-3.26563 -0.242188,-4.90625 0,-1.63672 0.08203,-3.27344 0.242188,-4.90625 0.160156,-1.62891 0.402343,-3.250005 0.71875,-4.855474 0.320312,-1.609375 0.71875,-3.199218 1.195312,-4.765625 0.476563,-1.570312 1.027344,-3.113281 1.65625,-4.625 0.625,-1.515625 1.324219,-2.996093 2.097657,-4.441406 0.773437,-1.445313 1.617187,-2.851563 2.527343,-4.214844 0.910157,-1.359375 1.886719,-2.675781 2.925781,-3.945312 1.039063,-1.265625 2.140626,-2.480469 3.296876,-3.636719 1.160156,-1.160156 2.375,-2.261719 3.640624,-3.300781 1.265626,-1.039063 2.582032,-2.015625 3.945313,-2.925781 1.363281,-0.910157 2.765625,-1.75 4.214844,-2.523438 1.445312,-0.773438 2.925781,-1.472656 4.4375,-2.101562 1.515625,-0.628907 3.058593,-1.179688 4.625001,-1.65625 1.57031,-0.472657 3.15625,-0.871094 4.76562,-1.191407 1.60938,-0.320312 3.22657,-0.558593 4.85938,-0.722656 1.63281,-0.160156 3.26562,-0.238281 4.90625,-0.238281 1.64062,0 3.27344,0.07813 4.90625,0.238281 1.62891,0.164063 3.25,0.402344 4.85937,0.722656 1.60547,0.320313 3.19532,0.71875 4.76172,1.191407 1.57031,0.476562 3.11328,1.027343 4.625,1.65625 1.51563,0.628906 2.9961,1.328124 4.44141,2.101562 1.44531,0.773438 2.85156,1.613281 4.21484,2.523438 1.36328,0.910156 2.67578,1.886718 3.94531,2.925781 1.26563,1.039062 2.48047,2.140625 3.64063,3.300781 1.15625,1.15625 2.25781,2.371094 3.29687,3.636719 1.03907,1.269531 2.01563,2.585937 2.92579,3.945312 0.91015,1.363281 1.7539,2.769531 2.52734,4.214844 0.76953,1.445313 1.47266,2.925781 2.09766,4.441406 0.6289,1.511719 1.17968,3.054688 1.65625,4.625 0.47656,1.566407 0.87109,3.15625 1.1914,4.765625 0.32031,1.605469 0.5625,3.226564 0.72266,4.855474 0.16015,1.63281 0.24219,3.26953 0.24219,4.90625 z m 0,0"
       fill-opacity="1"
       fill-rule="nonzero"
       id="path5" />
  </g>
  <g
     fill="#ffffff"
     fill-opacity="1"
     id="g8"
     transform="translate(-25.556099,-19.320312)">
    <g
       transform="translate(84.775368,86.543468)"
       id="g7">
      <g
         id="g6">
        <path
           d="m 5.316406,0 v -4.453125 c 0,-1.539063 -0.652344,-2.324219 -2.21875,-2.324219 h -1.96875 v 1.0625 h 1.863282 c 0.886718,0 1.195312,0.476563 1.195312,1.261719 V -3.8125 H 2.832031 c -1.449219,0 -2.234375,0.554688 -2.234375,1.953125 C 0.597656,-0.625 1.316406,0 2.589844,0 Z M 4.1875,-0.996094 H 2.722656 c -0.664062,0 -0.996094,-0.28125 -0.996094,-0.863281 0,-0.707031 0.320313,-1 1.132813,-1 H 4.1875 Z m 0,0"
           id="path6" />
      </g>
    </g>
  </g>
  <g
     fill="#ffffff"
     fill-opacity="1"
     id="g11"
     transform="translate(-25.556099,-19.320312)">
    <g
       transform="translate(91.017913,86.543468)"
       id="g10">
      <g
         id="g9">
        <path
           d="M 5.648438,0 V -6.777344 H 4.519531 v 5.78125 H 3.191406 c -0.8125,0 -1.132812,-0.558594 -1.132812,-1.261718 V -6.777344 H 0.929688 v 4.519532 C 0.929688,-0.863281 1.609375,0 3.058594,0 Z m 0,0"
           id="path8" />
      </g>
    </g>
  </g>
  <g
     fill="#ffffff"
     fill-opacity="1"
     id="g14"
     transform="translate(-25.556099,-19.320312)">
    <g
       transform="translate(97.592502,86.543468)"
       id="g13">
      <g
         id="g12">
        <path
           d="m 5.117188,-2.058594 c 0,-1.332031 -0.917969,-1.675781 -1.78125,-1.875 L 2.765625,-4.066406 C 2.21875,-4.1875 1.792969,-4.386719 1.792969,-4.890625 c 0,-0.519531 0.308593,-0.824219 1.199219,-0.824219 h 1.992187 v -1.0625 H 2.964844 c -1.515625,0 -2.300782,0.652344 -2.300782,1.980469 0,1.273437 0.851563,1.605469 1.703126,1.804687 l 0.664062,0.160157 c 0.53125,0.132812 0.957031,0.359375 0.957031,0.878906 0,0.664063 -0.507812,0.890625 -1.265625,0.890625 H 0.664062 V 0 h 2.167969 c 1.515625,0 2.285157,-0.570312 2.285157,-2.058594 z m 0,0"
           id="path11" />
      </g>
    </g>
  </g>
  <g
     fill="#ffffff"
     fill-opacity="1"
     id="g17"
     transform="translate(-25.556099,-19.320312)">
    <g
       transform="translate(103.37017,86.543468)"
       id="g16">
      <g
         id="g15">
        <path
           d="M 5.515625,0.199219 V -6.777344 H 2.925781 c -1.449219,0 -2.128906,0.863282 -2.128906,2.257813 v 2.128906 c 0,1.394531 0.679687,2.257813 2.128906,2.257813 h 1.460938 v 0.332031 c 0,0.785156 -0.304688,1.261719 -1.195313,1.261719 H 1.328125 v 1.0625 h 1.96875 c 1.582031,0 2.21875,-0.714844 2.21875,-2.324219 z M 4.386719,-1.128906 H 3.058594 c -0.8125,0 -1.132813,-0.558594 -1.132813,-1.261719 v -2.128906 c 0,-0.703125 0.320313,-1.261719 1.132813,-1.261719 h 1.328125 z m 0,0"
           id="path14" />
      </g>
    </g>
  </g>
  <g
     fill="#ffffff"
     fill-opacity="1"
     id="g20"
     transform="translate(-25.556099,-19.320312)">
    <g
       transform="translate(109.81194,86.543468)"
       id="g19">
      <g
         id="g18">
        <path
           d="m 5.515625,-2.992188 v -1.261718 c 0,-1.5 -0.71875,-2.523438 -2.21875,-2.523438 h -0.28125 c -1.449219,0 -2.21875,0.996094 -2.21875,2.523438 v 1.730468 C 0.796875,-0.824219 1.660156,0 3.191406,0 H 5.183594 V -0.996094 H 3.324219 c -0.917969,0 -1.398438,-0.625 -1.398438,-1.527344 v -0.46875 z M 4.386719,-3.878906 H 1.925781 v -0.507813 c 0,-0.703125 0.28125,-1.394531 1.089844,-1.394531 h 0.28125 c 0.808594,0 1.089844,0.691406 1.089844,1.394531 z m 0,0"
           id="path17" />
      </g>
    </g>
  </g>
  <g
     fill="#ffffff"
     fill-opacity="1"
     id="g23"
     transform="translate(-25.556099,-19.320312)">
    <g
       transform="translate(116.1209,86.543468)"
       id="g22">
      <g
         id="g21">
        <path
           d="m 5.117188,-2.058594 c 0,-1.332031 -0.917969,-1.675781 -1.78125,-1.875 L 2.765625,-4.066406 C 2.21875,-4.1875 1.792969,-4.386719 1.792969,-4.890625 c 0,-0.519531 0.308593,-0.824219 1.199219,-0.824219 h 1.992187 v -1.0625 H 2.964844 c -1.515625,0 -2.300782,0.652344 -2.300782,1.980469 0,1.273437 0.851563,1.605469 1.703126,1.804687 l 0.664062,0.160157 c 0.53125,0.132812 0.957031,0.359375 0.957031,0.878906 0,0.664063 -0.507812,0.890625 -1.265625,0.890625 H 0.664062 V 0 h 2.167969 c 1.515625,0 2.285157,-0.570312 2.285157,-2.058594 z m 0,0"
           id="path20" />
      </g>
    </g>
  </g>
  <g
     fill="#ffffff"
     fill-opacity="1"
     id="g26"
     transform="translate(-25.556099,-19.320312)">
    <g
       transform="translate(121.89857,86.543468)"
       id="g25">
      <g
         id="g24">
        <path
           d="M 4.1875,0 V -1.0625 H 3.164062 c -0.441406,0 -0.707031,-0.28125 -0.707031,-0.773438 V -5.714844 H 4.1875 v -1.0625 H 2.457031 V -8.640625 H 1.328125 v 1.863281 h -1.0625 v 1.0625 h 1.0625 v 3.921875 C 1.328125,-0.453125 2.035156,0 2.925781,0 Z m 0,0"
           id="path23" />
      </g>
    </g>
  </g>
  <g
     fill="#ffffff"
     fill-opacity="1"
     id="g29"
     transform="translate(-25.556099,-19.320312)">
    <g
       transform="translate(126.34804,86.543468)"
       id="g28">
      <g
         id="g27">
        <path
           d="m 5.515625,-2.992188 v -1.261718 c 0,-1.5 -0.71875,-2.523438 -2.21875,-2.523438 h -0.28125 c -1.449219,0 -2.21875,0.996094 -2.21875,2.523438 v 1.730468 C 0.796875,-0.824219 1.660156,0 3.191406,0 H 5.183594 V -0.996094 H 3.324219 c -0.917969,0 -1.398438,-0.625 -1.398438,-1.527344 v -0.46875 z M 4.386719,-3.878906 H 1.925781 v -0.507813 c 0,-0.703125 0.28125,-1.394531 1.089844,-1.394531 h 0.28125 c 0.808594,0 1.089844,0.691406 1.089844,1.394531 z m 0,0"
           id="path26" />
      </g>
    </g>
  </g>
  <g
     fill="#ffffff"
     fill-opacity="1"
     id="g32"
     transform="translate(-25.556099,-19.320312)">
    <g
       transform="translate(132.65699,86.543468)"
       id="g31">
      <g
         id="g30">
        <path
           d="M 2.058594,0 V -9.4375 H 0.929688 V 0 Z m 0,0"
           id="path29" />
      </g>
    </g>
  </g>
  <g
     fill="#ffffff"
     fill-opacity="1"
     id="g35"
     transform="translate(-25.556099,-19.320312)">
    <g
       transform="translate(135.64544,86.543468)"
       id="g34">
      <g
         id="g33">
        <path
           d="M 2.058594,0 V -9.4375 H 0.929688 V 0 Z m 0,0"
           id="path32" />
      </g>
    </g>
  </g>
  <g
     fill="#ffffff"
     fill-opacity="1"
     id="g38"
     transform="translate(-25.556099,-19.320312)">
    <g
       transform="translate(138.63389,86.543468)"
       id="g37">
      <g
         id="g36">
        <path
           d="M 4.1875,0 V -1.0625 H 3.164062 c -0.441406,0 -0.707031,-0.28125 -0.707031,-0.773438 V -5.714844 H 4.1875 v -1.0625 H 2.457031 V -8.640625 H 1.328125 v 1.863281 h -1.0625 v 1.0625 h 1.0625 v 3.921875 C 1.328125,-0.453125 2.035156,0 2.925781,0 Z m 0,0"
           id="path35" />
      </g>
    </g>
  </g>
  <g
     fill="#ffffff"
     fill-opacity="1"
     id="g41"
     transform="translate(-25.556099,-19.320312)">
    <g
       transform="translate(106.68945,104.53387)"
       id="g40">
      <g
         id="g39">
        <path
           d="M 3.65625,-8.371094 V -9.4375 H 2.722656 c -0.980468,0 -1.527344,0.519531 -1.527344,1.664062 v 0.996094 H 0.265625 V -5.78125 H 1.195312 V 0 H 2.324219 V -5.78125 H 3.523438 V -6.777344 H 2.324219 v -0.957031 c 0,-0.492187 0.226562,-0.636719 0.535156,-0.636719 z m 0,0"
           id="path38" />
      </g>
    </g>
  </g>
  <g
     fill="#ffffff"
     fill-opacity="1"
     id="g44"
     transform="translate(-25.556099,-19.320312)">
    <g
       transform="translate(110.47482,104.53387)"
       id="g43">
      <g
         id="g42">
        <path
           d="M 4.984375,-8.304688 V -9.4375 H 3.855469 v 1.132812 z m -2.261719,0 V -9.4375 H 1.59375 v 1.132812 z M 5.648438,0 V -6.777344 H 4.519531 v 5.78125 H 3.191406 c -0.8125,0 -1.132812,-0.558594 -1.132812,-1.261718 V -6.777344 H 0.929688 v 4.519532 C 0.929688,-0.863281 1.609375,0 3.058594,0 Z m 0,0"
           id="path41" />
      </g>
    </g>
  </g>
  <g
     fill="#ffffff"
     fill-opacity="1"
     id="g47"
     transform="translate(-25.556099,-19.320312)">
    <g
       transform="translate(117.04941,104.53387)"
       id="g46">
      <g
         id="g45">
        <path
           d="M 3.855469,-5.726562 V -6.777344 H 2.992188 c -1.449219,0 -2.128907,0.863282 -2.128907,2.257813 V 0 h 1.128907 v -4.519531 c 0,-0.703125 0.320312,-1.207031 1.132812,-1.207031 z m 0,0"
           id="path44" />
      </g>
    </g>
  </g>
  <g
     fill="#ffffff"
     fill-opacity="1"
     id="g50"
     transform="translate(-25.556099,-19.320312)">
    <g
       transform="translate(92.716442,122.52427)"
       id="g49">
      <g
         id="g48">
        <path
           d="M 7.375,0 4.386719,-9.4375 H 3.257812 L 0.265625,0 H 1.460938 L 2.035156,-1.859375 H 5.609375 L 6.179688,0 Z M 5.277344,-2.925781 H 2.367188 l 1.460937,-4.691407 z m 0,0"
           id="path47" />
      </g>
    </g>
  </g>
  <g
     fill="#ffffff"
     fill-opacity="1"
     id="g53"
     transform="translate(-25.556099,-19.320312)">
    <g
       transform="translate(100.3536,122.52427)"
       id="g52">
      <g
         id="g51">
        <path
           d="M 5.515625,0 V -9.4375 H 4.386719 v 2.660156 H 2.925781 c -1.449219,0 -2.128906,0.863282 -2.128906,2.257813 v 2.261719 C 0.796875,-0.863281 1.476562,0 2.925781,0 Z M 4.386719,-0.996094 H 3.058594 c -0.8125,0 -1.132813,-0.558594 -1.132813,-1.261718 v -2.261719 c 0,-0.703125 0.320313,-1.261719 1.132813,-1.261719 h 1.328125 z m 0,0"
           id="path50" />
      </g>
    </g>
  </g>
  <g
     fill="#ffffff"
     fill-opacity="1"
     id="g56"
     transform="translate(-25.556099,-19.320312)">
    <g
       transform="translate(106.79537,122.52427)"
       id="g55">
      <g
         id="g54">
        <path
           d="m 5.316406,0 v -4.453125 c 0,-1.539063 -0.652344,-2.324219 -2.21875,-2.324219 h -1.96875 v 1.0625 h 1.863282 c 0.886718,0 1.195312,0.476563 1.195312,1.261719 V -3.8125 H 2.832031 c -1.449219,0 -2.234375,0.554688 -2.234375,1.953125 C 0.597656,-0.625 1.316406,0 2.589844,0 Z M 4.1875,-0.996094 H 2.722656 c -0.664062,0 -0.996094,-0.28125 -0.996094,-0.863281 0,-0.707031 0.320313,-1 1.132813,-1 H 4.1875 Z m 0,0"
           id="path53" />
      </g>
    </g>
  </g>
  <g
     fill="#ffffff"
     fill-opacity="1"
     id="g59"
     transform="translate(-25.556099,-19.320312)">
    <g
       transform="translate(113.03791,122.52427)"
       id="g58">
      <g
         id="g57">
        <path
           d="M 5.648438,0 3.402344,-3.722656 5.515625,-6.777344 H 4.253906 L 2.140625,-3.722656 4.386719,0 Z M 2.058594,0 V -9.4375 H 0.929688 V 0 Z m 0,0"
           id="path56" />
      </g>
    </g>
  </g>
  <g
     fill="#ffffff"
     fill-opacity="1"
     id="g62"
     transform="translate(-25.556099,-19.320312)">
    <g
       transform="translate(118.81559,122.52427)"
       id="g61">
      <g
         id="g60">
        <path
           d="m 5.515625,-2.257812 v -2.261719 c 0,-1.394531 -0.796875,-2.257813 -2.191406,-2.257813 H 2.992188 c -1.398438,0 -2.195313,0.863282 -2.195313,2.257813 v 2.261719 C 0.796875,-0.863281 1.59375,0 2.992188,0 H 3.324219 C 4.71875,0 5.515625,-0.863281 5.515625,-2.257812 Z m -1.128906,0 c 0,0.703124 -0.414063,1.261718 -1.0625,1.261718 H 2.992188 c -0.652344,0 -1.066407,-0.558594 -1.066407,-1.261718 v -2.261719 c 0,-0.703125 0.414063,-1.261719 1.066407,-1.261719 h 0.332031 c 0.648437,0 1.0625,0.558594 1.0625,1.261719 z m 0,0"
           id="path59" />
      </g>
    </g>
  </g>
  <g
     fill="#ffffff"
     fill-opacity="1"
     id="g65"
     transform="translate(-25.556099,-19.320312)">
    <g
       transform="translate(125.12454,122.52427)"
       id="g64">
      <g
         id="g63">
        <path
           d="m 9.171875,0 v -4.386719 c 0,-1.460937 -0.691406,-2.390625 -2.222656,-2.390625 H 6.671875 c -0.746094,0 -1.289063,0.210938 -1.648437,0.609375 C 4.664062,-6.566406 4.105469,-6.777344 3.363281,-6.777344 h -0.28125 c -1.527343,0 -2.21875,0.929688 -2.21875,2.390625 V 0 h 1.128907 v -4.386719 c 0,-0.703125 0.320312,-1.328125 1.132812,-1.328125 h 0.199219 c 0.808593,0 1.128906,0.625 1.128906,1.328125 V 0 h 1.128906 v -4.386719 c 0,-0.703125 0.320313,-1.328125 1.128907,-1.328125 h 0.199218 c 0.8125,0 1.128906,0.625 1.128906,1.328125 V 0 Z m 0,0"
           id="path62" />
      </g>
    </g>
  </g>
  <g
     fill="#ffffff"
     fill-opacity="1"
     id="g68"
     transform="translate(-25.556099,-19.320312)">
    <g
       transform="translate(98.057342,140.51466)"
       id="g67">
      <g
         id="g66">
        <path
           d="M 6.644531,0 V -5.183594 H 3.523438 v 1.0625 H 5.515625 V -1.0625 H 3.722656 c -1.316406,0 -1.796875,-0.972656 -1.796875,-1.996094 v -3.054687 c 0,-1.277344 0.585938,-2.257813 2.0625,-2.257813 H 6.378906 V -9.4375 H 3.988281 c -2.179687,0 -3.191406,1.304688 -3.191406,3.324219 v 3.054687 C 0.796875,-1.289062 1.6875,0 3.722656,0 Z m 0,0"
           id="path65" />
      </g>
    </g>
  </g>
  <g
     fill="#ffffff"
     fill-opacity="1"
     id="g71"
     transform="translate(-25.556099,-19.320312)">
    <g
       transform="translate(105.62809,140.51466)"
       id="g70">
      <g
         id="g69">
        <path
           d="m 9.171875,0 v -4.386719 c 0,-1.460937 -0.691406,-2.390625 -2.222656,-2.390625 H 6.671875 c -0.746094,0 -1.289063,0.210938 -1.648437,0.609375 C 4.664062,-6.566406 4.105469,-6.777344 3.363281,-6.777344 h -0.28125 c -1.527343,0 -2.21875,0.929688 -2.21875,2.390625 V 0 h 1.128907 v -4.386719 c 0,-0.703125 0.320312,-1.328125 1.132812,-1.328125 h 0.199219 c 0.808593,0 1.128906,0.625 1.128906,1.328125 V 0 h 1.128906 v -4.386719 c 0,-0.703125 0.320313,-1.328125 1.128907,-1.328125 h 0.199218 c 0.8125,0 1.128906,0.625 1.128906,1.328125 V 0 Z m 0,0"
           id="path68" />
      </g>
    </g>
  </g>
  <g
     fill="#ffffff"
     fill-opacity="1"
     id="g74"
     transform="translate(-25.556099,-19.320312)">
    <g
       transform="translate(115.656,140.51466)"
       id="g73">
      <g
         id="g72">
        <path
           d="m 5.648438,-2.257812 v -2.261719 c 0,-1.394531 -0.679688,-2.257813 -2.125,-2.257813 H 2.058594 V -9.4375 H 0.929688 V 0 h 2.59375 c 1.445312,0 2.125,-0.863281 2.125,-2.257812 z m -1.128907,0 c 0,0.703124 -0.320312,1.261718 -1.128906,1.261718 H 2.058594 V -5.78125 h 1.332031 c 0.808594,0 1.128906,0.558594 1.128906,1.261719 z m 0,0"
           id="path71" />
      </g>
    </g>
  </g>
  <g
     fill="#ffffff"
     fill-opacity="1"
     id="g77"
     transform="translate(-25.556099,-19.320312)">
    <g
       transform="translate(122.09777,140.51466)"
       id="g76">
      <g
         id="g75">
        <path
           d="M 6.777344,0 V -9.4375 H 5.648438 v 4.121094 H 2.058594 V -9.4375 H 0.929688 V 0 H 2.058594 V -4.253906 H 5.648438 V 0 Z m 0,0"
           id="path74" />
      </g>
    </g>
  </g>
  <g
     fill="#ffffff"
     fill-opacity="1"
     id="g80"
     transform="translate(-25.556099,-19.320312)">
    <g
       transform="translate(74.835988,53.177035)"
       id="g79">
      <g
         id="g78">
        <path
           d="m 7.390625,-4.40625 -6.59375,3.9375 c -0.34375,-0.582031 -0.5625,-1.132812 -0.65625,-1.65625 -0.09375,-0.53125 -0.09375,-1.050781 0,-1.5625 C 0.234375,-4.207031 0.394531,-4.722656 0.625,-5.234375 0.863281,-5.753906 1.132812,-6.300781 1.4375,-6.875 1.570312,-7.132812 1.707031,-7.40625 1.84375,-7.6875 1.988281,-7.976562 2.097656,-8.285156 2.171875,-8.609375 2.253906,-8.941406 2.28125,-9.28125 2.25,-9.625 2.21875,-9.976562 2.09375,-10.34375 1.875,-10.71875 1.507812,-11.332031 1.050781,-11.6875 0.5,-11.78125 c -0.5507812,-0.09375 -1.117188,0.03906 -1.703125,0.390625 -0.625,0.367187 -1.007813,0.835937 -1.15625,1.40625 -0.15625,0.5625 -0.054687,1.140625 0.296875,1.734375 L -1.859375,-7.890625 -3.15625,-7.125 -3.328125,-7.421875 c -0.132813,-0.21875 -0.269531,-0.519531 -0.40625,-0.90625 C -3.867188,-8.722656 -3.914062,-9.15625 -3.875,-9.625 c 0.03125,-0.476562 0.199219,-0.96875 0.5,-1.46875 0.292969,-0.5 0.808594,-0.972656 1.546875,-1.421875 0.5,-0.289063 0.996094,-0.492187 1.484375,-0.609375 0.476562,-0.113281 0.929688,-0.128906 1.359375,-0.04687 0.4375,0.08594 0.835937,0.265625 1.203125,0.546875 0.375,0.28125 0.703125,0.65625 0.984375,1.125 0.269531,0.449219 0.441406,0.871094 0.515625,1.265625 0.082031,0.386719 0.078125,0.792969 -0.015625,1.21875 -0.085937,0.417969 -0.242187,0.886719 -0.46875,1.40625 -0.230469,0.523437 -0.515625,1.125 -0.859375,1.8125 -0.417969,0.8125 -0.683594,1.476563 -0.796875,1.984375 -0.117187,0.511719 -0.117187,0.96875 0,1.375 L 6.734375,-5.5 Z m 0,0"
           id="path77" />
      </g>
    </g>
  </g>
  <g
     fill="#ffffff"
     fill-opacity="1"
     id="g83"
     transform="translate(-25.556099,-19.320312)">
    <g
       transform="translate(82.374414,48.633456)"
       id="g82">
      <g
         id="g81">
        <path
           d="M 3.71875,-5.84375 1.5625,-10.859375 0.15625,-4.3125 Z m -4.40625,3.296875 -0.5,-1.1875 1.96875,-8.953125 1.421875,-0.609375 2.9375,6.84375 1.625,-0.703125 0.5,1.1875 -1.625,0.703125 1.03125,2.40625 L 5.25,-2.25 4.21875,-4.65625 Z m 0,0"
           id="path80" />
      </g>
    </g>
  </g>
  <g
     fill="#ffffff"
     fill-opacity="1"
     id="g86"
     transform="translate(-25.556099,-19.320312)">
    <g
       transform="translate(90.617539,45.19799)"
       id="g85">
      <g
         id="g84">
        <path
           d="m 1.109375,-2.203125 1.53125,-0.46875 0.53125,1.6875 -1.53125,0.46875 z m 0,0"
           id="path83" />
      </g>
    </g>
  </g>
  <g
     fill="#ffffff"
     fill-opacity="1"
     id="g89"
     transform="translate(-25.556099,-19.320312)">
    <g
       transform="translate(94.951253,43.705559)"
       id="g88">
      <g
         id="g87">
        <path
           d="m 4.421875,-1.859375 c 0.445313,-0.082031 0.796875,-0.28125 1.046875,-0.59375 0.257812,-0.3125 0.441406,-0.695313 0.546875,-1.15625 C 6.117188,-4.066406 6.15625,-4.582031 6.125,-5.15625 6.101562,-5.738281 6.03125,-6.347656 5.90625,-6.984375 c -0.136719,-0.644531 -0.304688,-1.238281 -0.5,-1.78125 -0.199219,-0.539063 -0.4375,-1 -0.71875,-1.375 -0.273438,-0.382813 -0.585938,-0.664063 -0.9375,-0.84375 -0.355469,-0.1875 -0.757812,-0.238281 -1.203125,-0.15625 -0.449219,0.09375 -0.804687,0.296875 -1.0625,0.609375 -0.261719,0.304688 -0.445313,0.683594 -0.546875,1.140625 -0.09375,0.460937 -0.132812,0.980469 -0.109375,1.5625 C 0.847656,-7.253906 0.925781,-6.644531 1.0625,-6 c 0.125,0.636719 0.285156,1.226562 0.484375,1.765625 0.207031,0.542969 0.445313,1.007813 0.71875,1.390625 0.269531,0.375 0.582031,0.65625 0.9375,0.84375 0.363281,0.1875 0.769531,0.234375 1.21875,0.140625 z m 0.25,1.265625 C 4.535156,-0.5625 4.34375,-0.535156 4.09375,-0.515625 c -0.25,0.023437 -0.53125,0 -0.84375,-0.0625 -0.3125,-0.0625 -0.640625,-0.1875 -0.984375,-0.375 -0.34375,-0.1875 -0.6875,-0.46875 -1.03125,-0.84375 -0.335937,-0.382813 -0.648437,-0.894531 -0.9375,-1.53125 -0.28125,-0.632813 -0.515625,-1.425781 -0.703125,-2.375 -0.195312,-0.957031 -0.285156,-1.78125 -0.265625,-2.46875 0.023437,-0.6875 0.117187,-1.273437 0.28125,-1.765625 0.15625,-0.5 0.3554688,-0.894531 0.59375,-1.1875 0.238281,-0.300781 0.488281,-0.539062 0.75,-0.71875 0.269531,-0.1875 0.523437,-0.316406 0.765625,-0.390625 0.238281,-0.07031 0.425781,-0.125 0.5625,-0.15625 0.144531,-0.03125 0.335938,-0.05469 0.578125,-0.07813 0.25,-0.01953 0.53125,0 0.84375,0.0625 0.320313,0.0625 0.65625,0.183594 1,0.359375 0.351563,0.179687 0.695313,0.464844 1.03125,0.859375 0.332031,0.398438 0.640625,0.90625 0.921875,1.53125 0.28125,0.625 0.519531,1.417969 0.71875,2.375 0.1875,0.949219 0.269531,1.773438 0.25,2.46875 -0.011719,0.699219 -0.09375,1.289062 -0.25,1.765625 -0.15625,0.480469 -0.359375,0.875 -0.609375,1.1875 C 6.523438,-1.554688 6.269531,-1.3125 6,-1.125 5.726562,-0.945312 5.472656,-0.820312 5.234375,-0.75 c -0.230469,0.074219 -0.417969,0.125 -0.5625,0.15625 z m 0,0"
           id="path86" />
      </g>
    </g>
  </g>
  <g
     fill="#ffffff"
     fill-opacity="1"
     id="g92"
     transform="translate(-25.556099,-19.320312)">
    <g
       transform="translate(103.56974,41.918472)"
       id="g91">
      <g
         id="g90">
        <path
           d="m 2.0625,-3.78125 c 0.03125,0.355469 0.109375,0.695312 0.234375,1.015625 0.125,0.324219 0.296875,0.605469 0.515625,0.84375 0.226562,0.242187 0.503906,0.429687 0.828125,0.5625 0.320313,0.136719 0.695313,0.1875 1.125,0.15625 0.425781,-0.019531 0.78125,-0.117187 1.0625,-0.296875 0.289063,-0.175781 0.519531,-0.40625 0.6875,-0.6875 0.175781,-0.28125 0.300781,-0.585938 0.375,-0.921875 0.070313,-0.34375 0.09375,-0.691406 0.0625,-1.046875 C 6.929688,-4.5 6.859375,-4.820312 6.734375,-5.125 c -0.117187,-0.300781 -0.28125,-0.5625 -0.5,-0.78125 -0.210937,-0.226562 -0.46875,-0.398438 -0.78125,-0.515625 -0.3125,-0.125 -0.671875,-0.175781 -1.078125,-0.15625 -0.804688,0.0625 -1.402344,0.355469 -1.796875,0.875 C 2.191406,-5.191406 2.019531,-4.550781 2.0625,-3.78125 Z M 6.546875,-9.3125 c -0.125,-0.394531 -0.292969,-0.695312 -0.5,-0.90625 C 5.835938,-10.425781 5.625,-10.570312 5.40625,-10.65625 5.1875,-10.75 4.96875,-10.796875 4.75,-10.796875 c -0.21875,-0.0078 -0.382812,-0.0078 -0.484375,0 -0.59375,0.04297 -1.0625,0.210937 -1.40625,0.5 -0.335937,0.292969 -0.585937,0.65625 -0.75,1.09375 -0.167969,0.429687 -0.273437,0.890625 -0.3125,1.390625 -0.03125,0.5 -0.03125,0.96875 0,1.40625 l 0.03125,-0.015625 c 0.300781,-0.457031 0.691406,-0.789063 1.171875,-1 0.488281,-0.21875 0.992188,-0.34375 1.515625,-0.375 0.519531,-0.039063 1.003906,0.015625 1.453125,0.171875 0.457031,0.148438 0.863281,0.371094 1.21875,0.671875 0.351562,0.292969 0.632812,0.667969 0.84375,1.125 0.207031,0.460937 0.332031,0.992187 0.375,1.59375 0.039062,0.574219 -0.011719,1.117187 -0.15625,1.625 -0.136719,0.5 -0.359375,0.945313 -0.671875,1.328125 C 7.273438,-0.90625 6.882812,-0.601562 6.40625,-0.375 5.9375,-0.144531 5.394531,-0.0078125 4.78125,0.03125 4.15625,0.0703125 3.585938,0.0195312 3.078125,-0.125 2.566406,-0.28125 2.117188,-0.570312 1.734375,-1 1.359375,-1.425781 1.050781,-2.007812 0.8125,-2.75 0.582031,-3.488281 0.425781,-4.425781 0.34375,-5.5625 c -0.0625,-1 -0.039062,-1.851562 0.078125,-2.5625 0.125,-0.71875 0.300781,-1.316406 0.53125,-1.796875 0.226563,-0.476563 0.492187,-0.847656 0.796875,-1.109375 0.3125,-0.269531 0.613281,-0.472656 0.90625,-0.609375 0.300781,-0.144531 0.585938,-0.234375 0.859375,-0.265625 0.28125,-0.03906 0.507813,-0.06641 0.6875,-0.07813 0.15625,-0.0078 0.40625,-0.0078 0.75,0 0.351563,0.01172 0.71875,0.101563 1.09375,0.265625 0.375,0.15625 0.738281,0.414062 1.09375,0.765625 0.351563,0.34375 0.609375,0.859375 0.765625,1.546875 z m 0,0"
           id="path89" />
      </g>
    </g>
  </g>
  <g
     fill="#ffffff"
     fill-opacity="1"
     id="g95"
     transform="translate(-25.556099,-19.320312)">
    <g
       transform="translate(112.48554,41.411116)"
       id="g94">
      <g
         id="g93">
        <path
           d="m 1.78125,-1.703125 1.609375,0.0625 L 3.328125,0.125 1.71875,0.0625 Z m 0,0"
           id="path92" />
      </g>
    </g>
  </g>
  <g
     fill="#ffffff"
     fill-opacity="1"
     id="g98"
     transform="translate(-25.556099,-19.320312)">
    <g
       transform="translate(117.06906,41.439352)"
       id="g97">
      <g
         id="g96">
        <path
           d="M 8.53125,1.1875 0.90625,0.125 C 1,-0.539062 1.171875,-1.109375 1.421875,-1.578125 c 0.257813,-0.46875 0.585937,-0.875 0.984375,-1.21875 0.394531,-0.34375 0.847656,-0.640625 1.359375,-0.890625 0.519531,-0.25 1.078125,-0.507812 1.671875,-0.78125 0.257812,-0.125 0.53125,-0.25 0.8125,-0.375 0.289062,-0.132812 0.566406,-0.304688 0.828125,-0.515625 0.269531,-0.207031 0.503906,-0.457031 0.703125,-0.75 C 7.976562,-6.398438 8.109375,-6.757812 8.171875,-7.1875 8.265625,-7.894531 8.125,-8.457031 7.75,-8.875 7.382812,-9.300781 6.863281,-9.5625 6.1875,-9.65625 5.476562,-9.75 4.882812,-9.617188 4.40625,-9.265625 c -0.46875,0.34375 -0.75,0.855469 -0.84375,1.53125 L 3.5,-7.3125 2,-7.53125 2.046875,-7.875 C 2.085938,-8.132812 2.175781,-8.457031 2.3125,-8.84375 2.445312,-9.226562 2.675781,-9.59375 3,-9.9375 c 0.332031,-0.34375 0.769531,-0.617188 1.3125,-0.828125 0.539062,-0.21875 1.238281,-0.265625 2.09375,-0.140625 0.582031,0.07422 1.09375,0.226562 1.53125,0.453125 0.445312,0.21875 0.8125,0.496094 1.09375,0.828125 0.28125,0.324219 0.476562,0.714844 0.59375,1.171875 0.125,0.449219 0.148438,0.9375 0.078125,1.46875 C 9.628906,-6.453125 9.5,-6.007812 9.3125,-5.65625 9.132812,-5.300781 8.878906,-4.984375 8.546875,-4.703125 8.210938,-4.429688 7.789062,-4.164062 7.28125,-3.90625 c -0.5,0.261719 -1.105469,0.546875 -1.8125,0.859375 -0.824219,0.386719 -1.445312,0.742187 -1.859375,1.0625 C 3.203125,-1.660156 2.914062,-1.300781 2.75,-0.90625 l 5.953125,0.828125 z m 0,0"
           id="path95" />
      </g>
    </g>
  </g>
  <g
     fill="#ffffff"
     fill-opacity="1"
     id="g101"
     transform="translate(-25.556099,-19.320312)">
    <g
       transform="translate(125.79256,42.610933)"
       id="g100">
      <g
         id="g99">
        <path
           d="m 4.78125,0.359375 c 0.4375,0.113281 0.835938,0.09375 1.203125,-0.0625 C 6.359375,0.140625 6.695312,-0.117188 7,-0.484375 7.300781,-0.847656 7.570312,-1.289062 7.8125,-1.8125 c 0.238281,-0.53125 0.441406,-1.109375 0.609375,-1.734375 0.175781,-0.625 0.300781,-1.222656 0.375,-1.796875 0.070313,-0.582031 0.070313,-1.101562 0,-1.5625 C 8.722656,-7.363281 8.566406,-7.757812 8.328125,-8.09375 8.085938,-8.425781 7.75,-8.648438 7.3125,-8.765625 c -0.4375,-0.125 -0.839844,-0.101563 -1.203125,0.0625 -0.367187,0.15625 -0.699219,0.417969 -1,0.78125 C 4.804688,-7.566406 4.535156,-7.125 4.296875,-6.59375 4.054688,-6.070312 3.847656,-5.5 3.671875,-4.875 3.503906,-4.25 3.382812,-3.644531 3.3125,-3.0625 c -0.074219,0.574219 -0.074219,1.09375 0,1.5625 0.070312,0.460938 0.222656,0.855469 0.453125,1.1875 C 4.003906,0.0078125 4.34375,0.234375 4.78125,0.359375 Z M 4.4375,1.59375 C 4.300781,1.550781 4.113281,1.484375 3.875,1.390625 3.644531,1.296875 3.40625,1.148438 3.15625,0.953125 2.90625,0.753906 2.664062,0.492188 2.4375,0.171875 2.21875,-0.140625 2.046875,-0.539062 1.921875,-1.03125 1.804688,-1.53125 1.757812,-2.125 1.78125,-2.8125 c 0.03125,-0.695312 0.175781,-1.515625 0.4375,-2.453125 0.257812,-0.9375 0.554688,-1.707031 0.890625,-2.3125 0.332031,-0.613281 0.675781,-1.097656 1.03125,-1.453125 0.363281,-0.363281 0.722656,-0.625 1.078125,-0.78125 0.363281,-0.164062 0.703125,-0.269531 1.015625,-0.3125 0.320313,-0.03906 0.601563,-0.03906 0.84375,0 0.25,0.04297 0.441406,0.08594 0.578125,0.125 0.132812,0.03125 0.316406,0.09375 0.546875,0.1875 0.238281,0.09375 0.484375,0.242188 0.734375,0.4375 0.257812,0.199219 0.5,0.460938 0.71875,0.78125 0.226562,0.324219 0.398438,0.734375 0.515625,1.234375 0.125,0.492187 0.171875,1.085937 0.140625,1.78125 -0.03125,0.6875 -0.179688,1.5 -0.4375,2.4375 C 9.613281,-2.203125 9.316406,-1.425781 8.984375,-0.8125 8.660156,-0.207031 8.316406,0.269531 7.953125,0.625 7.597656,0.988281 7.238281,1.25 6.875,1.40625 6.519531,1.5625 6.179688,1.660156 5.859375,1.703125 5.535156,1.742188 5.25,1.742188 5,1.703125 4.757812,1.660156 4.570312,1.625 4.4375,1.59375 Z m 0,0"
           id="path98" />
      </g>
    </g>
  </g>
  <g
     fill="#ffffff"
     fill-opacity="1"
     id="g104"
     transform="translate(-25.556099,-19.320312)">
    <g
       transform="translate(134.28306,44.931131)"
       id="g103">
      <g
         id="g102">
        <path
           d="M 7.921875,3.390625 0.84375,0.359375 c 0.269531,-0.625 0.585938,-1.128906 0.953125,-1.515625 0.363281,-0.382812 0.785156,-0.6875 1.265625,-0.90625 0.476562,-0.21875 0.992188,-0.382812 1.546875,-0.5 C 5.171875,-2.675781 5.769531,-2.78125 6.40625,-2.875 6.695312,-2.925781 7,-2.972656 7.3125,-3.015625 7.625,-3.066406 7.9375,-3.160156 8.25,-3.296875 8.5625,-3.429688 8.847656,-3.613281 9.109375,-3.84375 9.367188,-4.070312 9.582031,-4.378906 9.75,-4.765625 c 0.289062,-0.664063 0.3125,-1.25 0.0625,-1.75 -0.242188,-0.5 -0.679688,-0.882813 -1.3125,-1.15625 -0.65625,-0.28125 -1.261719,-0.316406 -1.8125,-0.109375 -0.554688,0.199219 -0.964844,0.617188 -1.234375,1.25 l -0.15625,0.390625 -1.375,-0.59375 0.140625,-0.3125 c 0.09375,-0.238281 0.257812,-0.53125 0.5,-0.875 0.238281,-0.34375 0.554688,-0.632813 0.953125,-0.875 0.40625,-0.25 0.894531,-0.40625 1.46875,-0.46875 0.582031,-0.0625 1.269531,0.078125 2.0625,0.421875 0.53125,0.230469 0.984375,0.511719 1.359375,0.84375 0.375,0.324219 0.65625,0.683594 0.84375,1.078125 0.1875,0.398437 0.273438,0.828125 0.265625,1.296875 -0.01172,0.46875 -0.121094,0.953125 -0.328125,1.453125 -0.210938,0.492187 -0.449219,0.882813 -0.71875,1.171875 -0.273438,0.292969 -0.605469,0.53125 -1,0.71875 C 9.082031,-2.101562 8.613281,-1.957031 8.0625,-1.84375 7.507812,-1.726562 6.847656,-1.613281 6.078125,-1.5 5.171875,-1.34375 4.476562,-1.160156 4,-0.953125 3.53125,-0.742188 3.164062,-0.472656 2.90625,-0.140625 L 8.421875,2.21875 Z m 0,0"
           id="path101" />
      </g>
    </g>
  </g>
  <g
     fill="#ffffff"
     fill-opacity="1"
     id="g107"
     transform="translate(-25.556099,-19.320312)">
    <g
       transform="translate(142.39004,48.358816)"
       id="g106">
      <g
         id="g105">
        <path
           d="M 7.390625,4.40625 0.796875,0.46875 C 1.140625,-0.113281 1.519531,-0.566406 1.9375,-0.890625 2.351562,-1.222656 2.8125,-1.46875 3.3125,-1.625 3.8125,-1.789062 4.34375,-1.890625 4.90625,-1.921875 5.476562,-1.960938 6.09375,-1.988281 6.75,-2 7.03125,-2.007812 7.328125,-2.015625 7.640625,-2.015625 7.960938,-2.023438 8.285156,-2.070312 8.609375,-2.15625 8.941406,-2.25 9.253906,-2.390625 9.546875,-2.578125 9.835938,-2.773438 10.09375,-3.0625 10.3125,-3.4375 10.675781,-4.050781 10.769531,-4.625 10.59375,-5.15625 10.414062,-5.6875 10.035156,-6.128906 9.453125,-6.484375 8.828125,-6.847656 8.226562,-6.960938 7.65625,-6.828125 7.09375,-6.703125 6.632812,-6.34375 6.28125,-5.75 L 6.078125,-5.390625 4.78125,-6.15625 4.953125,-6.453125 c 0.132813,-0.21875 0.34375,-0.476563 0.625,-0.78125 0.28125,-0.3125 0.632813,-0.5625 1.0625,-0.75 0.4375,-0.195313 0.941406,-0.285156 1.515625,-0.265625 0.582031,0.023438 1.242188,0.257812 1.984375,0.703125 0.5,0.292969 0.910156,0.625 1.234375,1 0.332031,0.375 0.5625,0.773437 0.6875,1.1875 0.132812,0.417969 0.164062,0.855469 0.09375,1.3125 -0.0625,0.460937 -0.234375,0.921875 -0.515625,1.390625 -0.273437,0.449219 -0.5625,0.804688 -0.875,1.0625 -0.304687,0.25 -0.664063,0.445312 -1.078125,0.578125 -0.40625,0.125 -0.890625,0.210937 -1.453125,0.25 C 7.671875,-0.722656 7,-0.691406 6.21875,-0.671875 c -0.917969,0.023437 -1.625,0.105469 -2.125,0.25 -0.5,0.148437 -0.902344,0.3710938 -1.203125,0.671875 l 5.15625,3.0625 z m 0,0"
           id="path104" />
      </g>
    </g>
  </g>
  <g
     fill="#ffffff"
     fill-opacity="1"
     id="g110"
     transform="translate(-25.556099,-19.320312)">
    <g
       transform="translate(52.852521,148.36787)"
       id="g109">
      <g
         id="g108">
        <path
           d="M 13.546875,0.34375 14.6875,1.953125 8.4375,0.84375 6.03125,8.484375 4.90625,6.90625 7.03125,0.53125 4.640625,0.109375 1.609375,2.265625 0.765625,1.0625 9.59375,-5.21875 10.4375,-4.015625 6.0625,-0.90625 Z m 0,0"
           id="path107" />
      </g>
    </g>
  </g>
  <g
     fill="#ffffff"
     fill-opacity="1"
     id="g113"
     transform="translate(-25.556099,-19.320312)">
    <g
       transform="translate(59.301695,157.26068)"
       id="g112">
      <g
         id="g111">
        <path
           d="M 7.96875,1.734375 C 8.132812,1.546875 8.3125,1.320312 8.5,1.0625 8.6875,0.8125 8.820312,0.535156 8.90625,0.234375 8.988281,-0.0664062 8.992188,-0.375 8.921875,-0.6875 8.859375,-1.007812 8.675781,-1.332031 8.375,-1.65625 8.03125,-2.007812 7.679688,-2.242188 7.328125,-2.359375 6.984375,-2.472656 6.648438,-2.5 6.328125,-2.4375 6.003906,-2.382812 5.707031,-2.273438 5.4375,-2.109375 5.175781,-1.953125 4.960938,-1.789062 4.796875,-1.625 Z M 7.21875,4.3125 C 6.976562,4.46875 6.695312,4.597656 6.375,4.703125 6.0625,4.804688 5.722656,4.847656 5.359375,4.828125 4.992188,4.816406 4.609375,4.71875 4.203125,4.53125 3.796875,4.351562 3.382812,4.039062 2.96875,3.59375 2.507812,3.125 2.191406,2.660156 2.015625,2.203125 1.835938,1.753906 1.742188,1.332031 1.734375,0.9375 c 0,-0.398438 0.0625,-0.765625 0.1875,-1.109375 0.132813,-0.351563 0.285156,-0.664063 0.453125,-0.9375 0.175781,-0.269531 0.351562,-0.5 0.53125,-0.6875 0.175781,-0.1875 0.3125,-0.320313 0.40625,-0.40625 0.125,-0.113281 0.289062,-0.257813 0.5,-0.4375 C 4.03125,-2.828125 4.285156,-3 4.578125,-3.15625 4.867188,-3.3125 5.1875,-3.4375 5.53125,-3.53125 5.875,-3.632812 6.234375,-3.671875 6.609375,-3.640625 c 0.382813,0.023437 0.78125,0.132813 1.1875,0.328125 0.414063,0.199219 0.835937,0.523438 1.265625,0.96875 0.53125,0.5625 0.851562,1.109375 0.96875,1.640625 0.125,0.53125 0.125,1.03125 0,1.5 C 9.914062,1.265625 9.707031,1.695312 9.40625,2.09375 9.101562,2.5 8.8125,2.851562 8.53125,3.15625 8.476562,3.207031 8.425781,3.253906 8.375,3.296875 8.332031,3.347656 8.289062,3.398438 8.25,3.453125 l -4.15625,-4.40625 c -0.25,0.230469 -0.476562,0.5 -0.671875,0.8125 C 3.234375,0.160156 3.101562,0.476562 3.03125,0.8125 2.957031,1.15625 2.960938,1.503906 3.046875,1.859375 c 0.082031,0.351563 0.285156,0.695313 0.609375,1.03125 0.207031,0.226563 0.429688,0.40625 0.671875,0.53125 0.25,0.125 0.488281,0.203125 0.71875,0.234375 C 5.273438,3.695312 5.5,3.6875 5.71875,3.625 5.9375,3.570312 6.132812,3.484375 6.3125,3.359375 Z m 0,0"
           id="path110" />
      </g>
    </g>
  </g>
  <g
     fill="#ffffff"
     fill-opacity="1"
     id="g116"
     transform="translate(-25.556099,-19.320312)">
    <g
       transform="translate(65.753743,163.88226)"
       id="g115">
      <g
         id="g114">
        <path
           d="M 9.03125,-6.484375 1.859375,1.640625 0.828125,0.734375 8,-7.390625 Z m 0,0"
           id="path113" />
      </g>
    </g>
  </g>
  <g
     fill="#ffffff"
     fill-opacity="1"
     id="g119"
     transform="translate(-25.556099,-19.320312)">
    <g
       transform="translate(68.687004,166.54925)"
       id="g118">
      <g
         id="g117">
        <path
           d="m 9.4375,-2.765625 1.171875,0.875 -7.0625,4.5625 L 2.28125,1.71875 4.6875,-6.328125 5.859375,-5.453125 3.71875,1.09375 Z m 0,0"
           id="path116" />
      </g>
    </g>
  </g>
  <g
     fill="#ffffff"
     fill-opacity="1"
     id="g122"
     transform="translate(-25.556099,-19.320312)">
    <g
       transform="translate(74.850349,171.06942)"
       id="g121">
      <g
         id="g120">
        <path
           d="M 6.71875,-8.578125 7.890625,-7.84375 7.125,-6.640625 5.953125,-7.375 Z m -0.421875,3.25 L 2.078125,1.3125 0.90625,0.578125 5.125,-6.0625 Z m 0,0"
           id="path119" />
      </g>
    </g>
  </g>
  <g
     fill="#ffffff"
     fill-opacity="1"
     id="g125"
     transform="translate(-25.556099,-19.320312)">
    <g
       transform="translate(78.139594,173.28476)"
       id="g124">
      <g
         id="g123">
        <path
           d="m 3.6875,-2.546875 c -0.367188,0.699219 -0.5625,1.292969 -0.59375,1.78125 -0.023438,0.480469 0.035156,0.875 0.171875,1.1875 0.132813,0.3125 0.3125,0.550781 0.53125,0.71875 C 4.023438,1.304688 4.207031,1.425781 4.34375,1.5 4.476562,1.570312 4.675781,1.644531 4.9375,1.71875 c 0.257812,0.082031 0.554688,0.085938 0.890625,0.015625 0.34375,-0.0625 0.703125,-0.25 1.078125,-0.5625 0.375,-0.304687 0.742188,-0.804687 1.109375,-1.5 C 8.367188,-1.023438 8.5625,-1.613281 8.59375,-2.09375 8.625,-2.582031 8.566406,-2.984375 8.421875,-3.296875 8.285156,-3.617188 8.109375,-3.859375 7.890625,-4.015625 7.671875,-4.179688 7.492188,-4.300781 7.359375,-4.375 7.222656,-4.445312 7.019531,-4.523438 6.75,-4.609375 6.488281,-4.691406 6.191406,-4.695312 5.859375,-4.625 5.523438,-4.550781 5.164062,-4.359375 4.78125,-4.046875 c -0.375,0.304687 -0.742188,0.804687 -1.09375,1.5 z M 2.390625,-3.1875 c 0.238281,-0.476562 0.53125,-0.910156 0.875,-1.296875 0.351563,-0.394531 0.753906,-0.695313 1.203125,-0.90625 0.457031,-0.207031 0.960938,-0.3125 1.515625,-0.3125 0.550781,0 1.148437,0.167969 1.796875,0.5 0.625,0.324219 1.097656,0.710937 1.421875,1.15625 0.332031,0.449219 0.546875,0.917969 0.640625,1.40625 0.09375,0.492187 0.082031,0.992187 -0.03125,1.5 C 9.695312,-0.628906 9.519531,-0.132812 9.28125,0.34375 9.039062,0.8125 8.742188,1.238281 8.390625,1.625 8.046875,2.007812 7.644531,2.304688 7.1875,2.515625 6.738281,2.734375 6.234375,2.84375 5.671875,2.84375 5.117188,2.84375 4.53125,2.679688 3.90625,2.359375 3.257812,2.023438 2.773438,1.632812 2.453125,1.1875 2.128906,0.738281 1.921875,0.269531 1.828125,-0.21875 c -0.09375,-0.5 -0.085937,-1 0.03125,-1.5 0.113281,-0.507812 0.289063,-1 0.53125,-1.46875 z m 0,0"
           id="path122" />
      </g>
    </g>
  </g>
  <g
     fill="#ffffff"
     fill-opacity="1"
     id="g128"
     transform="translate(-25.556099,-19.320312)">
    <g
       transform="translate(86.781056,177.6691)"
       id="g127">
      <g
         id="g126">
        <path
           d="m 5,-6.5625 -0.375,1.015625 c 0.382812,-0.269531 0.835938,-0.457031 1.359375,-0.5625 0.519531,-0.101563 1.070313,-0.050781 1.65625,0.15625 C 8.128906,-5.773438 8.5,-5.554688 8.75,-5.296875 c 0.257812,0.261719 0.4375,0.554687 0.53125,0.875 0.09375,0.324219 0.113281,0.667969 0.0625,1.03125 -0.042969,0.355469 -0.132812,0.71875 -0.265625,1.09375 L 7.3125,2.625 6.03125,2.15625 7.65625,-2.390625 C 7.726562,-2.578125 7.800781,-2.804688 7.875,-3.078125 7.957031,-3.347656 7.992188,-3.613281 7.984375,-3.875 7.972656,-4.144531 7.890625,-4.394531 7.734375,-4.625 7.578125,-4.863281 7.300781,-5.050781 6.90625,-5.1875 6.726562,-5.257812 6.503906,-5.304688 6.234375,-5.328125 5.972656,-5.359375 5.695312,-5.320312 5.40625,-5.21875 c -0.292969,0.105469 -0.578125,0.320312 -0.859375,0.640625 -0.28125,0.3125 -0.53125,0.773437 -0.75,1.375 L 2.34375,0.84375 1.046875,0.375 3.703125,-7.03125 Z m 0,0"
           id="path125" />
      </g>
    </g>
  </g>
  <g
     fill="#ffffff"
     fill-opacity="1"
     id="g131"
     transform="translate(-25.556099,-19.320312)">
    <g
       transform="translate(95.575778,180.67445)"
       id="g130">
      <g
         id="g129" />
    </g>
  </g>
  <g
     fill="#ffffff"
     fill-opacity="1"
     id="g134"
     transform="translate(-25.556099,-19.320312)">
    <g
       transform="translate(99.487085,181.82406)"
       id="g133">
      <g
         id="g132">
        <path
           d="m 3.609375,-5.046875 2.625,0.40625 C 7.097656,-4.503906 7.75,-4.582031 8.1875,-4.875 c 0.445312,-0.300781 0.722656,-0.800781 0.828125,-1.5 0.101563,-0.664062 -0.023437,-1.179688 -0.375,-1.546875 -0.355469,-0.375 -0.949219,-0.625 -1.78125,-0.75 l -2.625,-0.40625 z m 3.75,-4.78125 c 0.550781,0.085937 1.035156,0.21875 1.453125,0.40625 0.425781,0.179687 0.773438,0.417969 1.046875,0.71875 0.28125,0.292969 0.476563,0.648437 0.59375,1.0625 0.113281,0.417969 0.128906,0.902344 0.04687,1.453125 -0.08594,0.5 -0.226562,0.949219 -0.421875,1.34375 -0.199219,0.386719 -0.46875,0.703125 -0.8125,0.953125 C 8.929688,-3.640625 8.507812,-3.46875 8,-3.375 7.5,-3.289062 6.898438,-3.304688 6.203125,-3.421875 L 3.421875,-3.84375 2.75,0.4375 1.296875,0.203125 l 1.6875,-10.71875 z m 0,0"
           id="path131" />
      </g>
    </g>
  </g>
  <g
     fill="#ffffff"
     fill-opacity="1"
     id="g137"
     transform="translate(-25.556099,-19.320312)">
    <g
       transform="translate(109.98046,183.45753)"
       id="g136">
      <g
         id="g135">
        <path
           d="M 2.78125,0.015625 1.3125,0 1.359375,-10.84375 2.828125,-10.828125 2.8125,-6.3125 8.265625,-6.296875 8.28125,-10.8125 9.734375,-10.796875 9.6875,0.046875 8.234375,0.03125 8.25,-5.0625 2.796875,-5.078125 Z m 0,0"
           id="path134" />
      </g>
    </g>
  </g>
  <g
     fill="#ffffff"
     fill-opacity="1"
     id="g140"
     transform="translate(-25.556099,-19.320312)">
    <g
       transform="translate(121.67793,183.39652)"
       id="g139">
      <g
         id="g138">
        <path
           d="m 7.484375,-7.375 0.171875,1.21875 -5.625,0.8125 0.546875,3.734375 6.375,-0.921875 0.171875,1.203125 -7.828125,1.140625 -1.5625,-10.734375 7.65625,-1.109375 0.171875,1.203125 -6.203125,0.890625 0.5,3.375 z m 0,0"
           id="path137" />
      </g>
    </g>
  </g>
  <g
     fill="#ffffff"
     fill-opacity="1"
     id="g143"
     transform="translate(-25.556099,-19.320312)">
    <g
       transform="translate(131.46837,181.81065)"
       id="g142">
      <g
         id="g141" />
    </g>
  </g>
  <g
     fill="#ffffff"
     fill-opacity="1"
     id="g146"
     transform="translate(-25.556099,-19.320312)">
    <g
       transform="translate(135.52773,181.0112)"
       id="g145">
      <g
         id="g144">
        <path
           d="m 8,-8.921875 1.9375,5.3125 L 8.875,-3.21875 8.28125,-4.859375 H 8.25 C 8.175781,-4.140625 7.910156,-3.5 7.453125,-2.9375 6.992188,-2.382812 6.363281,-1.960938 5.5625,-1.671875 4.945312,-1.453125 4.316406,-1.332031 3.671875,-1.3125 3.023438,-1.289062 2.398438,-1.414062 1.796875,-1.6875 1.203125,-1.957031 0.640625,-2.394531 0.109375,-3 c -0.519531,-0.601562 -0.96875,-1.414062 -1.34375,-2.4375 -0.3125,-0.851562 -0.472656,-1.648438 -0.484375,-2.390625 -0.00781,-0.75 0.125,-1.429687 0.40625,-2.046875 0.273438,-0.613281 0.679688,-1.144531 1.21875,-1.59375 0.53125,-0.445312 1.171875,-0.804688 1.921875,-1.078125 0.675781,-0.25 1.300781,-0.367187 1.875,-0.359375 0.570313,0 1.078125,0.101562 1.515625,0.296875 0.445312,0.1875 0.832031,0.449219 1.15625,0.78125 0.332031,0.324219 0.601562,0.683594 0.8125,1.078125 l -1.390625,0.5 C 5.703125,-10.46875 5.5625,-10.6875 5.375,-10.90625 5.1875,-11.132812 4.941406,-11.3125 4.640625,-11.4375 4.347656,-11.570312 4,-11.644531 3.59375,-11.65625 c -0.40625,-0.01953 -0.871094,0.0625 -1.390625,0.25 -0.542969,0.199219 -0.976563,0.449219 -1.296875,0.75 -0.324219,0.292969 -0.570312,0.609375 -0.734375,0.953125 C 0.00390625,-9.359375 -0.09375,-9 -0.125,-8.625 c -0.039062,0.375 -0.046875,0.730469 -0.015625,1.0625 0.03125,0.335938 0.0859375,0.648438 0.15625,0.9375 0.0820312,0.28125 0.15625,0.515625 0.21875,0.703125 0.039063,0.125 0.117187,0.3125 0.234375,0.5625 0.125,0.25 0.28125,0.523437 0.46875,0.8125 0.195312,0.292969 0.425781,0.585937 0.6875,0.875 0.269531,0.28125 0.585938,0.515625 0.953125,0.703125 0.363281,0.1875 0.765625,0.296875 1.203125,0.328125 0.445312,0.03125 0.945312,-0.050781 1.5,-0.25 0.625,-0.226563 1.09375,-0.523437 1.40625,-0.890625 0.320312,-0.375 0.535156,-0.769531 0.640625,-1.1875 0.101563,-0.425781 0.128906,-0.847656 0.078125,-1.265625 -0.054688,-0.414063 -0.136719,-0.78125 -0.25,-1.09375 L 4.25,-6.265625 3.828125,-7.40625 Z m 0,0"
           id="path143" />
      </g>
    </g>
  </g>
  <g
     fill="#ffffff"
     fill-opacity="1"
     id="g149"
     transform="translate(-25.556099,-19.320312)">
    <g
       transform="translate(147.12808,176.80841)"
       id="g148">
      <g
         id="g147">
        <path
           d="m -1.84375,-8.046875 0.546875,0.9375 0.03125,0.0625 c -0.019531,-0.238281 -0.00391,-0.476563 0.046875,-0.71875 0.054688,-0.25 0.148438,-0.484375 0.28125,-0.703125 0.125,-0.226562 0.277344,-0.429688 0.453125,-0.609375 0.167969,-0.1875 0.355469,-0.335937 0.5625,-0.453125 0.300781,-0.175781 0.585937,-0.285156 0.859375,-0.328125 0.28125,-0.050781 0.535156,-0.050781 0.765625,0 0.238281,0.042969 0.457031,0.125 0.65625,0.25 0.195313,0.125 0.367187,0.257813 0.515625,0.390625 -0.023438,-0.175781 -0.015625,-0.378906 0.015625,-0.609375 0.039063,-0.238281 0.109375,-0.488281 0.203125,-0.75 0.101562,-0.257813 0.253906,-0.515625 0.453125,-0.765625 0.195313,-0.257812 0.472656,-0.492188 0.828125,-0.703125 0.519531,-0.300781 0.988281,-0.4375 1.40625,-0.40625 0.414062,0.03125 0.78125,0.152344 1.09375,0.359375 0.3125,0.199219 0.570312,0.445312 0.78125,0.734375 0.207031,0.28125 0.367188,0.523437 0.484375,0.71875 l 2.5625,4.375 -1.1875,0.6875 L 7,-9.875 C 6.894531,-10.0625 6.765625,-10.257812 6.609375,-10.46875 6.453125,-10.675781 6.269531,-10.851562 6.0625,-11 c -0.199219,-0.15625 -0.421875,-0.242188 -0.671875,-0.265625 -0.242187,-0.03125 -0.515625,0.04297 -0.828125,0.21875 -0.1875,0.117187 -0.371094,0.265625 -0.546875,0.453125 -0.179687,0.1875 -0.308594,0.417969 -0.390625,0.6875 -0.085938,0.261719 -0.101562,0.570312 -0.046875,0.921875 0.0625,0.34375 0.21875,0.730469 0.46875,1.15625 l 2.375,4.0625 L 5.25,-3.078125 2.734375,-7.359375 C 2.585938,-7.617188 2.425781,-7.851562 2.25,-8.0625 2.082031,-8.269531 1.894531,-8.429688 1.6875,-8.546875 1.488281,-8.660156 1.269531,-8.722656 1.03125,-8.734375 c -0.230469,-0.019531 -0.476562,0.042969 -0.734375,0.1875 -0.2421875,0.148437 -0.441406,0.339844 -0.609375,0.578125 -0.164062,0.230469 -0.273438,0.484375 -0.328125,0.765625 -0.050781,0.28125 -0.039063,0.589844 0.03125,0.921875 0.0625,0.324219 0.1875,0.648438 0.375,0.96875 l 2.375,4.0625 -1.1875,0.6875 -3.984375,-6.796875 z m 0,0"
           id="path146" />
      </g>
    </g>
  </g>
  <g
     fill="#ffffff"
     fill-opacity="1"
     id="g152"
     transform="translate(-25.556099,-19.320312)">
    <g
       transform="translate(159.33077,169.38554)"
       id="g151">
      <g
         id="g150">
        <path
           d="m -0.71875,-4.59375 c 0.398438,0.480469 0.78125,0.839844 1.15625,1.078125 0.375,0.230469 0.734375,0.382813 1.078125,0.453125 0.34375,0.0625 0.65625,0.046875 0.9375,-0.046875 0.28125,-0.09375 0.535156,-0.238281 0.765625,-0.4375 0.238281,-0.195313 0.441406,-0.429687 0.609375,-0.703125 0.164063,-0.28125 0.25,-0.59375 0.25,-0.9375 C 4.085938,-5.539062 4.007812,-5.921875 3.84375,-6.328125 3.675781,-6.734375 3.394531,-7.171875 3,-7.640625 2.613281,-8.097656 2.238281,-8.441406 1.875,-8.671875 1.519531,-8.910156 1.175781,-9.0625 0.84375,-9.125 0.507812,-9.1875 0.191406,-9.171875 -0.109375,-9.078125 c -0.300781,0.09375 -0.570313,0.242187 -0.8125,0.4375 -0.25,0.21875 -0.445313,0.476563 -0.59375,0.765625 -0.15625,0.28125 -0.234375,0.589844 -0.234375,0.921875 0,0.335937 0.078125,0.703125 0.234375,1.109375 0.15625,0.398438 0.421875,0.8125 0.796875,1.25 z m -4.328125,-5.328125 2.5625,3.078125 c -0.125,-0.5 -0.078125,-0.976562 0.140625,-1.4375 0.21875,-0.46875 0.546875,-0.882812 0.984375,-1.25 0.4375,-0.363281 0.867187,-0.609375 1.28125,-0.734375 0.40625,-0.125 0.796875,-0.171875 1.171875,-0.140625 0.375,0.03125 0.722656,0.121094 1.046875,0.265625 C 2.460938,-10.003906 2.75,-9.835938 3,-9.640625 3.257812,-9.441406 3.484375,-9.25 3.671875,-9.0625 c 0.1875,0.1875 0.332031,0.351562 0.4375,0.484375 0.539063,0.65625 0.898437,1.277344 1.078125,1.859375 0.175781,0.585938 0.222656,1.109375 0.140625,1.578125 -0.085937,0.46875 -0.246094,0.886719 -0.484375,1.25 -0.242188,0.367187 -0.5,0.667969 -0.78125,0.90625 -0.25,0.210937 -0.507812,0.371094 -0.765625,0.484375 -0.25,0.105469 -0.5,0.179688 -0.75,0.21875 -0.242187,0.042969 -0.476563,0.046875 -0.703125,0.015625 -0.230469,-0.03125 -0.449219,-0.070313 -0.65625,-0.125 l -0.046875,0.03125 0.6875,0.828125 -0.96875,0.828125 -6.953125,-8.328125 z m 0,0"
           id="path149" />
      </g>
    </g>
  </g>
  <g
     fill="#ffffff"
     fill-opacity="1"
     id="g155"
     transform="translate(-25.556099,-19.320312)">
    <g
       transform="translate(167.02379,162.97792)"
       id="g154">
      <g
         id="g153">
        <path
           d="m 1.84375,-2.078125 -0.96875,1.09375 -8.09375,-7.21875 0.96875,-1.09375 3.375,3 3.640625,-4.0625 -3.375,-3 0.96875,-1.09375 8.09375,7.21875 -0.96875,1.09375 -3.796875,-3.390625 -3.640625,4.0625 z m 0,0"
           id="path152" />
      </g>
    </g>
  </g>
  <g
     fill="#ffffff"
     fill-opacity="1"
     id="g158"
     transform="translate(-25.556099,-19.320312)">
    <g
       transform="translate(174.50161,154.26102)"
       id="g157">
      <g
         id="g156" />
    </g>
  </g>
  <g
     fill="#ffffff"
     fill-opacity="1"
     id="g161"
     transform="translate(-25.556099,-19.320312)">
    <g
       transform="translate(176.74163,151.12717)"
       id="g160">
      <g
         id="g159" />
    </g>
  </g>
</svg>
