<?xml version="1.0" encoding="UTF-8" standalone="no"?>
<svg
   width="235.85417"
   zoomAndPan="magnify"
   viewBox="0 0 176.79628 176.89063"
   height="235.85417"
   preserveAspectRatio="xMidYMid"
   version="1.0"
   id="svg164"
   sodipodi:docname="Project-Reference-Kelvion-Flow-Scheme-Configurator-DE.svg"
   inkscape:version="1.4.2 (ebf0e940, 2025-05-08)"
   xmlns:inkscape="http://www.inkscape.org/namespaces/inkscape"
   xmlns:sodipodi="http://sodipodi.sourceforge.net/DTD/sodipodi-0.dtd"
   xmlns="http://www.w3.org/2000/svg"
   xmlns:svg="http://www.w3.org/2000/svg">
  <sodipodi:namedview
     id="namedview164"
     pagecolor="#ffffff"
     bordercolor="#000000"
     borderopacity="0.25"
     inkscape:showpageshadow="2"
     inkscape:pageopacity="0.0"
     inkscape:pagecheckerboard="0"
     inkscape:deskcolor="#d1d1d1"
     showgrid="false"
     inkscape:zoom="2.3366667"
     inkscape:cx="115.54921"
     inkscape:cy="124.32239"
     inkscape:window-width="1512"
     inkscape:window-height="920"
     inkscape:window-x="0"
     inkscape:window-y="34"
     inkscape:window-maximized="1"
     inkscape:current-layer="svg164" />
  <defs
     id="defs3">
    <g
       id="g1" />
    <clipPath
       id="8ca44b9d43">
      <path
         d="M 0,0.0585938 H 224.76172 V 224.9375 H 0 Z m 0,0"
         clip-rule="nonzero"
         id="path1" />
    </clipPath>
    <clipPath
       id="a96e7e0a56">
      <path
         d="M 25.496094,19.320312 H 202.39844 V 196.22266 H 25.496094 Z m 0,0"
         clip-rule="nonzero"
         id="path2" />
    </clipPath>
    <clipPath
       id="0832282356">
      <path
         d="M 64.707031,57.714844 H 165 V 158 H 64.707031 Z m 0,0"
         clip-rule="nonzero"
         id="path3" />
    </clipPath>
  </defs>
  <g
     clip-path="url(#a96e7e0a56)"
     id="g4"
     transform="translate(-25.543269,-19.320312)">
    <path
       fill="#38b6ff"
       d="m 202.38672,107.76563 c 0,1.44921 -0.0352,2.89453 -0.10547,4.33984 -0.0703,1.44531 -0.17578,2.89062 -0.32031,4.32812 -0.14063,1.44141 -0.31641,2.87891 -0.53125,4.3086 -0.21094,1.43359 -0.45703,2.85937 -0.74219,4.27734 -0.28125,1.42188 -0.59766,2.83203 -0.94922,4.23828 -0.35156,1.40235 -0.73828,2.79688 -1.16016,4.1836 -0.41796,1.38281 -0.87109,2.75781 -1.35937,4.12109 -0.48828,1.36328 -1.00781,2.71484 -1.5625,4.05078 -0.55469,1.33594 -1.14063,2.66016 -1.76172,3.96875 -0.61719,1.30859 -1.26953,2.60156 -1.94922,3.87891 -0.68359,1.27343 -1.39453,2.53515 -2.14062,3.77734 -0.7461,1.23828 -1.51953,2.46094 -2.32422,3.66797 -0.80078,1.20312 -1.63672,2.38281 -2.4961,3.54687 -0.86328,1.16407 -1.7539,2.30469 -2.67187,3.42188 -0.91797,1.12109 -1.86328,2.21484 -2.83594,3.28906 -0.97265,1.07031 -1.96875,2.1211 -2.99219,3.14453 -1.02343,1.02344 -2.07421,2.01953 -3.14453,2.99219 -1.07422,0.97266 -2.16797,1.91797 -3.28906,2.83594 -1.11719,0.91797 -2.25781,1.80859 -3.42187,2.67187 -1.16407,0.85938 -2.34375,1.69532 -3.55079,2.5 -1.20312,0.80078 -2.42578,1.57813 -3.66796,2.32032 -1.23829,0.74609 -2.5,1.45703 -3.77344,2.14062 -1.27735,0.68359 -2.57031,1.33203 -3.87891,1.95313 -1.30859,0.61718 -2.63281,1.20312 -3.96875,1.75781 -1.33984,0.55469 -2.6875,1.07422 -4.05078,1.5625 -1.36328,0.48828 -2.73828,0.9414 -4.12109,1.36328 -1.38672,0.41797 -2.78125,0.80469 -4.1836,1.15625 -1.40625,0.35156 -2.8164,0.66797 -4.23828,0.94922 -1.41797,0.28515 -2.84375,0.53125 -4.27734,0.74219 -1.42969,0.21484 -2.86719,0.39062 -4.30859,0.53125 -1.4375,0.14453 -2.88282,0.25 -4.32813,0.32031 -1.44531,0.0703 -2.89062,0.10547 -4.33984,0.10547 -1.44922,0 -2.89453,-0.0352 -4.33985,-0.10547 -1.44531,-0.0703 -2.89062,-0.17578 -4.32812,-0.32031 -1.44141,-0.14063 -2.87891,-0.31641 -4.3086,-0.53125 -1.43359,-0.21094 -2.859371,-0.45704 -4.27734,-0.74219 -1.421875,-0.28125 -2.832031,-0.59766 -4.238281,-0.94922 -1.402344,-0.35156 -2.796875,-0.73828 -4.183594,-1.15625 -1.382813,-0.42188 -2.757813,-0.875 -4.121094,-1.36328 -1.363281,-0.48828 -2.714843,-1.00781 -4.050781,-1.5625 -1.335938,-0.55469 -2.660156,-1.14063 -3.96875,-1.75781 -1.308594,-0.6211 -2.601562,-1.26954 -3.878906,-1.95313 -1.273438,-0.68359 -2.535156,-1.39453 -3.777344,-2.14062 -1.238281,-0.74219 -2.460938,-1.51954 -3.664062,-2.32032 -1.207032,-0.80468 -2.386719,-1.64062 -3.550782,-2.5 -1.164062,-0.86328 -2.304687,-1.7539 -3.421875,-2.67187 -1.121093,-0.91797 -2.214843,-1.86328 -3.289062,-2.83594 -1.070313,-0.97266 -2.121094,-1.96875 -3.144531,-2.99219 -1.023438,-1.02343 -2.019532,-2.07422 -2.992188,-3.14453 -0.972656,-1.07422 -1.917969,-2.16797 -2.835938,-3.28906 -0.917968,-1.11719 -1.808593,-2.25781 -2.671874,-3.42188 -0.859376,-1.16406 -1.695313,-2.34375 -2.5,-3.54687 -0.800782,-1.20703 -1.578126,-2.42969 -2.320313,-3.66797 -0.746094,-1.24219 -1.457031,-2.50391 -2.140625,-3.77734 -0.683594,-1.27735 -1.332031,-2.57032 -1.953125,-3.87891 -0.617187,-1.30859 -1.203125,-2.63281 -1.757813,-3.96875 -0.554687,-1.33594 -1.074218,-2.6875 -1.5625,-4.05078 -0.488281,-1.36328 -0.941406,-2.73828 -1.359374,-4.12109 -0.421876,-1.38672 -0.808594,-2.78125 -1.160157,-4.1836 -0.351562,-1.40625 -0.667969,-2.8164 -0.949219,-4.23828 -0.285156,-1.41797 -0.53125,-2.84375 -0.742187,-4.27734 -0.214844,-1.42969 -0.390625,-2.86719 -0.53125,-4.3086 -0.144531,-1.4375 -0.25,-2.88281 -0.320313,-4.32812 -0.07031,-1.44531 -0.105468,-2.89063 -0.105468,-4.33984 0,-1.44532 0.03516,-2.89454 0.105468,-4.33985 0.07031,-1.44531 0.175782,-2.89062 0.320313,-4.328124 0.140625,-1.441406 0.316406,-2.878906 0.53125,-4.308594 0.210937,-1.433593 0.457031,-2.859374 0.742187,-4.277343 0.28125,-1.421875 0.597657,-2.832031 0.949219,-4.238281 0.351563,-1.402344 0.738281,-2.796876 1.160157,-4.183594 0.417968,-1.382813 0.871093,-2.757813 1.359374,-4.121094 0.488282,-1.363281 1.007813,-2.710938 1.5625,-4.050781 0.554688,-1.335938 1.140626,-2.660157 1.757813,-3.96875 0.621094,-1.308594 1.269531,-2.601563 1.953125,-3.875 0.683594,-1.277344 1.394531,-2.539063 2.140625,-3.777344 0.742187,-1.242187 1.519531,-2.464844 2.320313,-3.667969 0.804687,-1.203125 1.640624,-2.386718 2.5,-3.550781 0.863281,-1.164063 1.753906,-2.304687 2.671874,-3.421875 0.917969,-1.121094 1.863282,-2.214844 2.835938,-3.289062 0.972656,-1.070313 1.96875,-2.121094 2.992188,-3.144532 1.023437,-1.023437 2.074218,-2.019531 3.144531,-2.992187 1.074219,-0.972657 2.167969,-1.917969 3.289062,-2.835938 1.117188,-0.917969 2.257813,-1.808593 3.421875,-2.667969 1.164063,-0.863281 2.34375,-1.699218 3.550782,-2.5 1.203124,-0.804687 2.425781,-1.578124 3.664062,-2.324218 1.242188,-0.742188 2.503906,-1.457032 3.777344,-2.140625 1.277344,-0.679688 2.570312,-1.332031 3.878906,-1.949219 1.308594,-0.621094 2.632812,-1.207031 3.96875,-1.761719 1.335938,-0.554687 2.6875,-1.074219 4.050781,-1.5625 1.363281,-0.488281 2.738281,-0.941406 4.121094,-1.359375 1.386719,-0.421875 2.78125,-0.808594 4.183594,-1.160156 1.40625,-0.351562 2.816406,-0.667969 4.238281,-0.949219 1.417969,-0.285156 2.84375,-0.53125 4.27734,-0.742187 1.42969,-0.214844 2.86719,-0.390625 4.3086,-0.53125 1.4375,-0.144532 2.88281,-0.25 4.32812,-0.320313 1.44532,-0.07031 2.89063,-0.105469 4.33985,-0.105469 1.44922,0 2.89453,0.03516 4.33984,0.105469 1.44531,0.07031 2.89063,0.175781 4.32813,0.320313 1.4414,0.140625 2.8789,0.316406 4.30859,0.53125 1.43359,0.210937 2.85937,0.457031 4.27734,0.742187 1.42188,0.28125 2.83203,0.597657 4.23828,0.949219 1.40235,0.351562 2.79688,0.738281 4.1836,1.160156 C 141,23.546875 142.375,24 143.73828,24.488281 c 1.36328,0.488281 2.71094,1.007813 4.05078,1.5625 1.33594,0.554688 2.66016,1.140625 3.96875,1.761719 1.3086,0.617188 2.60156,1.269531 3.87891,1.949219 1.27344,0.683593 2.53515,1.398437 3.77344,2.140625 1.24218,0.746094 2.46484,1.519531 3.66796,2.324218 1.20704,0.800782 2.38672,1.636719 3.55079,2.5 1.16406,0.859376 2.30468,1.75 3.42187,2.667969 1.12109,0.917969 2.21484,1.863281 3.28906,2.835938 1.07032,0.972656 2.1211,1.96875 3.14453,2.992187 1.02344,1.023438 2.01954,2.074219 2.99219,3.144532 0.97266,1.074218 1.91797,2.167968 2.83594,3.289062 0.91797,1.117188 1.80859,2.257812 2.67187,3.421875 0.85938,1.164063 1.69532,2.347656 2.4961,3.550781 0.80469,1.203125 1.57812,2.425782 2.32422,3.667969 0.74609,1.238281 1.45703,2.5 2.14062,3.777344 0.67969,1.273437 1.33203,2.566406 1.94922,3.875 0.62109,1.308593 1.20703,2.632812 1.76172,3.96875 0.55469,1.339843 1.07422,2.6875 1.5625,4.050781 0.48828,1.363281 0.94141,2.738281 1.35937,4.121094 0.42188,1.386718 0.8086,2.78125 1.16016,4.183594 0.35156,1.40625 0.66797,2.816406 0.94922,4.238281 0.28516,1.417969 0.53125,2.84375 0.74219,4.277343 0.21484,1.429688 0.39062,2.867188 0.53125,4.308594 0.14453,1.437504 0.25,2.882814 0.32031,4.328124 0.0703,1.44531 0.10547,2.89453 0.10547,4.33985 z m 0,0"
       fill-opacity="1"
       fill-rule="nonzero"
       id="path4" />
  </g>
  <g
     clip-path="url(#0832282356)"
     id="g5"
     transform="translate(-25.543269,-19.320312)">
    <path
       fill="#000000"
       d="m 164.81641,107.76563 c 0,1.64062 -0.082,3.27734 -0.24219,4.90625 -0.16016,1.63281 -0.40235,3.2539 -0.72266,4.85937 -0.32031,1.60938 -0.71484,3.19531 -1.1914,4.76563 -0.47657,1.57031 -1.02735,3.10937 -1.65625,4.625 -0.625,1.51562 -1.32813,2.99609 -2.09766,4.4414 -0.77344,1.44531 -1.61719,2.84766 -2.52734,4.21094 -0.91016,1.36328 -1.88672,2.67969 -2.92579,3.94531 -1.03906,1.26953 -2.14062,2.48047 -3.29687,3.64063 -1.16016,1.16015 -2.375,2.25781 -3.64063,3.29687 -1.26953,1.04297 -2.58203,2.01563 -3.94531,2.92578 -1.36328,0.91406 -2.76953,1.75391 -4.21484,2.52735 -1.44531,0.77343 -2.92578,1.47265 -4.44141,2.10156 -1.51172,0.625 -3.05469,1.17578 -4.625,1.65234 -1.5664,0.47656 -3.15625,0.875 -4.76172,1.19531 -1.60937,0.32032 -3.23046,0.5586 -4.85937,0.71875 -1.63281,0.16016 -3.26563,0.24219 -4.90625,0.24219 -1.64063,0 -3.27344,-0.082 -4.90625,-0.24219 -1.63281,-0.16015 -3.25,-0.39843 -4.85938,-0.71875 -1.60937,-0.32031 -3.19531,-0.71875 -4.76562,-1.19531 -1.566408,-0.47656 -3.109376,-1.02734 -4.625001,-1.65234 -1.511719,-0.62891 -2.992188,-1.32813 -4.4375,-2.10156 -1.449219,-0.77344 -2.851563,-1.61329 -4.214844,-2.52735 -1.363281,-0.91015 -2.679687,-1.88281 -3.945313,-2.92578 -1.265624,-1.03906 -2.480468,-2.13672 -3.640624,-3.29687 -1.15625,-1.16016 -2.257813,-2.3711 -3.296876,-3.64063 -1.039062,-1.26562 -2.015624,-2.58203 -2.925781,-3.94531 -0.910156,-1.36328 -1.753906,-2.76563 -2.527343,-4.21094 -0.773438,-1.44531 -1.472657,-2.92578 -2.097657,-4.4414 -0.628906,-1.51563 -1.179687,-3.05469 -1.65625,-4.625 -0.476562,-1.57032 -0.875,-3.15625 -1.195312,-4.76563 -0.316407,-1.60547 -0.558594,-3.22656 -0.71875,-4.85937 -0.160157,-1.62891 -0.242188,-3.26563 -0.242188,-4.90625 0,-1.63672 0.08203,-3.27344 0.242188,-4.90625 0.160156,-1.62891 0.402343,-3.250005 0.71875,-4.855474 0.320312,-1.609375 0.71875,-3.199218 1.195312,-4.765625 0.476563,-1.570312 1.027344,-3.113281 1.65625,-4.625 0.625,-1.515625 1.324219,-2.996093 2.097657,-4.441406 0.773437,-1.445313 1.617187,-2.851563 2.527343,-4.214844 0.910157,-1.359375 1.886719,-2.675781 2.925781,-3.945312 1.039063,-1.265625 2.140626,-2.480469 3.296876,-3.636719 1.160156,-1.160156 2.375,-2.261719 3.640624,-3.300781 1.265626,-1.039063 2.582032,-2.015625 3.945313,-2.925781 1.363281,-0.910157 2.765625,-1.75 4.214844,-2.523438 1.445312,-0.773438 2.925781,-1.472656 4.4375,-2.101562 1.515625,-0.628907 3.058593,-1.179688 4.625001,-1.65625 1.57031,-0.472657 3.15625,-0.871094 4.76562,-1.191407 1.60938,-0.320312 3.22657,-0.558593 4.85938,-0.722656 1.63281,-0.160156 3.26562,-0.238281 4.90625,-0.238281 1.64062,0 3.27344,0.07813 4.90625,0.238281 1.62891,0.164063 3.25,0.402344 4.85937,0.722656 1.60547,0.320313 3.19532,0.71875 4.76172,1.191407 1.57031,0.476562 3.11328,1.027343 4.625,1.65625 1.51563,0.628906 2.9961,1.328124 4.44141,2.101562 1.44531,0.773438 2.85156,1.613281 4.21484,2.523438 1.36328,0.910156 2.67578,1.886718 3.94531,2.925781 1.26563,1.039062 2.48047,2.140625 3.64063,3.300781 1.15625,1.15625 2.25781,2.371094 3.29687,3.636719 1.03907,1.269531 2.01563,2.585937 2.92579,3.945312 0.91015,1.363281 1.7539,2.769531 2.52734,4.214844 0.76953,1.445313 1.47266,2.925781 2.09766,4.441406 0.6289,1.511719 1.17968,3.054688 1.65625,4.625 0.47656,1.566407 0.87109,3.15625 1.1914,4.765625 0.32031,1.605469 0.5625,3.226564 0.72266,4.855474 0.16015,1.63281 0.24219,3.26953 0.24219,4.90625 z m 0,0"
       fill-opacity="1"
       fill-rule="nonzero"
       id="path5" />
  </g>
  <g
     fill="#ffffff"
     fill-opacity="1"
     id="g8"
     transform="translate(-25.543269,-19.320312)">
    <g
       transform="translate(84.775368,86.543468)"
       id="g7">
      <g
         id="g6">
        <path
           d="m 5.316406,0 v -4.453125 c 0,-1.539063 -0.652344,-2.324219 -2.21875,-2.324219 h -1.96875 v 1.0625 h 1.863282 c 0.886718,0 1.195312,0.476563 1.195312,1.261719 V -3.8125 H 2.832031 c -1.449219,0 -2.234375,0.554688 -2.234375,1.953125 C 0.597656,-0.625 1.316406,0 2.589844,0 Z M 4.1875,-0.996094 H 2.722656 c -0.664062,0 -0.996094,-0.28125 -0.996094,-0.863281 0,-0.707031 0.320313,-1 1.132813,-1 H 4.1875 Z m 0,0"
           id="path6" />
      </g>
    </g>
  </g>
  <g
     fill="#ffffff"
     fill-opacity="1"
     id="g11"
     transform="translate(-25.543269,-19.320312)">
    <g
       transform="translate(91.017913,86.543468)"
       id="g10">
      <g
         id="g9">
        <path
           d="M 5.648438,0 V -6.777344 H 4.519531 v 5.78125 H 3.191406 c -0.8125,0 -1.132812,-0.558594 -1.132812,-1.261718 V -6.777344 H 0.929688 v 4.519532 C 0.929688,-0.863281 1.609375,0 3.058594,0 Z m 0,0"
           id="path8" />
      </g>
    </g>
  </g>
  <g
     fill="#ffffff"
     fill-opacity="1"
     id="g14"
     transform="translate(-25.543269,-19.320312)">
    <g
       transform="translate(97.592502,86.543468)"
       id="g13">
      <g
         id="g12">
        <path
           d="m 5.117188,-2.058594 c 0,-1.332031 -0.917969,-1.675781 -1.78125,-1.875 L 2.765625,-4.066406 C 2.21875,-4.1875 1.792969,-4.386719 1.792969,-4.890625 c 0,-0.519531 0.308593,-0.824219 1.199219,-0.824219 h 1.992187 v -1.0625 H 2.964844 c -1.515625,0 -2.300782,0.652344 -2.300782,1.980469 0,1.273437 0.851563,1.605469 1.703126,1.804687 l 0.664062,0.160157 c 0.53125,0.132812 0.957031,0.359375 0.957031,0.878906 0,0.664063 -0.507812,0.890625 -1.265625,0.890625 H 0.664062 V 0 h 2.167969 c 1.515625,0 2.285157,-0.570312 2.285157,-2.058594 z m 0,0"
           id="path11" />
      </g>
    </g>
  </g>
  <g
     fill="#ffffff"
     fill-opacity="1"
     id="g17"
     transform="translate(-25.543269,-19.320312)">
    <g
       transform="translate(103.37017,86.543468)"
       id="g16">
      <g
         id="g15">
        <path
           d="M 5.515625,0.199219 V -6.777344 H 2.925781 c -1.449219,0 -2.128906,0.863282 -2.128906,2.257813 v 2.128906 c 0,1.394531 0.679687,2.257813 2.128906,2.257813 h 1.460938 v 0.332031 c 0,0.785156 -0.304688,1.261719 -1.195313,1.261719 H 1.328125 v 1.0625 h 1.96875 c 1.582031,0 2.21875,-0.714844 2.21875,-2.324219 z M 4.386719,-1.128906 H 3.058594 c -0.8125,0 -1.132813,-0.558594 -1.132813,-1.261719 v -2.128906 c 0,-0.703125 0.320313,-1.261719 1.132813,-1.261719 h 1.328125 z m 0,0"
           id="path14" />
      </g>
    </g>
  </g>
  <g
     fill="#ffffff"
     fill-opacity="1"
     id="g20"
     transform="translate(-25.543269,-19.320312)">
    <g
       transform="translate(109.81194,86.543468)"
       id="g19">
      <g
         id="g18">
        <path
           d="m 5.515625,-2.992188 v -1.261718 c 0,-1.5 -0.71875,-2.523438 -2.21875,-2.523438 h -0.28125 c -1.449219,0 -2.21875,0.996094 -2.21875,2.523438 v 1.730468 C 0.796875,-0.824219 1.660156,0 3.191406,0 H 5.183594 V -0.996094 H 3.324219 c -0.917969,0 -1.398438,-0.625 -1.398438,-1.527344 v -0.46875 z M 4.386719,-3.878906 H 1.925781 v -0.507813 c 0,-0.703125 0.28125,-1.394531 1.089844,-1.394531 h 0.28125 c 0.808594,0 1.089844,0.691406 1.089844,1.394531 z m 0,0"
           id="path17" />
      </g>
    </g>
  </g>
  <g
     fill="#ffffff"
     fill-opacity="1"
     id="g23"
     transform="translate(-25.543269,-19.320312)">
    <g
       transform="translate(116.1209,86.543468)"
       id="g22">
      <g
         id="g21">
        <path
           d="m 5.117188,-2.058594 c 0,-1.332031 -0.917969,-1.675781 -1.78125,-1.875 L 2.765625,-4.066406 C 2.21875,-4.1875 1.792969,-4.386719 1.792969,-4.890625 c 0,-0.519531 0.308593,-0.824219 1.199219,-0.824219 h 1.992187 v -1.0625 H 2.964844 c -1.515625,0 -2.300782,0.652344 -2.300782,1.980469 0,1.273437 0.851563,1.605469 1.703126,1.804687 l 0.664062,0.160157 c 0.53125,0.132812 0.957031,0.359375 0.957031,0.878906 0,0.664063 -0.507812,0.890625 -1.265625,0.890625 H 0.664062 V 0 h 2.167969 c 1.515625,0 2.285157,-0.570312 2.285157,-2.058594 z m 0,0"
           id="path20" />
      </g>
    </g>
  </g>
  <g
     fill="#ffffff"
     fill-opacity="1"
     id="g26"
     transform="translate(-25.543269,-19.320312)">
    <g
       transform="translate(121.89857,86.543468)"
       id="g25">
      <g
         id="g24">
        <path
           d="M 4.1875,0 V -1.0625 H 3.164062 c -0.441406,0 -0.707031,-0.28125 -0.707031,-0.773438 V -5.714844 H 4.1875 v -1.0625 H 2.457031 V -8.640625 H 1.328125 v 1.863281 h -1.0625 v 1.0625 h 1.0625 v 3.921875 C 1.328125,-0.453125 2.035156,0 2.925781,0 Z m 0,0"
           id="path23" />
      </g>
    </g>
  </g>
  <g
     fill="#ffffff"
     fill-opacity="1"
     id="g29"
     transform="translate(-25.543269,-19.320312)">
    <g
       transform="translate(126.34804,86.543468)"
       id="g28">
      <g
         id="g27">
        <path
           d="m 5.515625,-2.992188 v -1.261718 c 0,-1.5 -0.71875,-2.523438 -2.21875,-2.523438 h -0.28125 c -1.449219,0 -2.21875,0.996094 -2.21875,2.523438 v 1.730468 C 0.796875,-0.824219 1.660156,0 3.191406,0 H 5.183594 V -0.996094 H 3.324219 c -0.917969,0 -1.398438,-0.625 -1.398438,-1.527344 v -0.46875 z M 4.386719,-3.878906 H 1.925781 v -0.507813 c 0,-0.703125 0.28125,-1.394531 1.089844,-1.394531 h 0.28125 c 0.808594,0 1.089844,0.691406 1.089844,1.394531 z m 0,0"
           id="path26" />
      </g>
    </g>
  </g>
  <g
     fill="#ffffff"
     fill-opacity="1"
     id="g32"
     transform="translate(-25.543269,-19.320312)">
    <g
       transform="translate(132.65699,86.543468)"
       id="g31">
      <g
         id="g30">
        <path
           d="M 2.058594,0 V -9.4375 H 0.929688 V 0 Z m 0,0"
           id="path29" />
      </g>
    </g>
  </g>
  <g
     fill="#ffffff"
     fill-opacity="1"
     id="g35"
     transform="translate(-25.543269,-19.320312)">
    <g
       transform="translate(135.64544,86.543468)"
       id="g34">
      <g
         id="g33">
        <path
           d="M 2.058594,0 V -9.4375 H 0.929688 V 0 Z m 0,0"
           id="path32" />
      </g>
    </g>
  </g>
  <g
     fill="#ffffff"
     fill-opacity="1"
     id="g38"
     transform="translate(-25.543269,-19.320312)">
    <g
       transform="translate(138.63389,86.543468)"
       id="g37">
      <g
         id="g36">
        <path
           d="M 4.1875,0 V -1.0625 H 3.164062 c -0.441406,0 -0.707031,-0.28125 -0.707031,-0.773438 V -5.714844 H 4.1875 v -1.0625 H 2.457031 V -8.640625 H 1.328125 v 1.863281 h -1.0625 v 1.0625 h 1.0625 v 3.921875 C 1.328125,-0.453125 2.035156,0 2.925781,0 Z m 0,0"
           id="path35" />
      </g>
    </g>
  </g>
  <g
     fill="#ffffff"
     fill-opacity="1"
     id="g41"
     transform="translate(-25.543269,-19.320312)">
    <g
       transform="translate(106.68945,104.53387)"
       id="g40">
      <g
         id="g39">
        <path
           d="M 3.65625,-8.371094 V -9.4375 H 2.722656 c -0.980468,0 -1.527344,0.519531 -1.527344,1.664062 v 0.996094 H 0.265625 V -5.78125 H 1.195312 V 0 H 2.324219 V -5.78125 H 3.523438 V -6.777344 H 2.324219 v -0.957031 c 0,-0.492187 0.226562,-0.636719 0.535156,-0.636719 z m 0,0"
           id="path38" />
      </g>
    </g>
  </g>
  <g
     fill="#ffffff"
     fill-opacity="1"
     id="g44"
     transform="translate(-25.543269,-19.320312)">
    <g
       transform="translate(110.47482,104.53387)"
       id="g43">
      <g
         id="g42">
        <path
           d="M 4.984375,-8.304688 V -9.4375 H 3.855469 v 1.132812 z m -2.261719,0 V -9.4375 H 1.59375 v 1.132812 z M 5.648438,0 V -6.777344 H 4.519531 v 5.78125 H 3.191406 c -0.8125,0 -1.132812,-0.558594 -1.132812,-1.261718 V -6.777344 H 0.929688 v 4.519532 C 0.929688,-0.863281 1.609375,0 3.058594,0 Z m 0,0"
           id="path41" />
      </g>
    </g>
  </g>
  <g
     fill="#ffffff"
     fill-opacity="1"
     id="g47"
     transform="translate(-25.543269,-19.320312)">
    <g
       transform="translate(117.04941,104.53387)"
       id="g46">
      <g
         id="g45">
        <path
           d="M 3.855469,-5.726562 V -6.777344 H 2.992188 c -1.449219,0 -2.128907,0.863282 -2.128907,2.257813 V 0 h 1.128907 v -4.519531 c 0,-0.703125 0.320312,-1.207031 1.132812,-1.207031 z m 0,0"
           id="path44" />
      </g>
    </g>
  </g>
  <g
     fill="#ffffff"
     fill-opacity="1"
     id="g50"
     transform="translate(-25.543269,-19.320312)">
    <g
       transform="translate(92.716442,122.52427)"
       id="g49">
      <g
         id="g48">
        <path
           d="M 7.375,0 4.386719,-9.4375 H 3.257812 L 0.265625,0 H 1.460938 L 2.035156,-1.859375 H 5.609375 L 6.179688,0 Z M 5.277344,-2.925781 H 2.367188 l 1.460937,-4.691407 z m 0,0"
           id="path47" />
      </g>
    </g>
  </g>
  <g
     fill="#ffffff"
     fill-opacity="1"
     id="g53"
     transform="translate(-25.543269,-19.320312)">
    <g
       transform="translate(100.3536,122.52427)"
       id="g52">
      <g
         id="g51">
        <path
           d="M 5.515625,0 V -9.4375 H 4.386719 v 2.660156 H 2.925781 c -1.449219,0 -2.128906,0.863282 -2.128906,2.257813 v 2.261719 C 0.796875,-0.863281 1.476562,0 2.925781,0 Z M 4.386719,-0.996094 H 3.058594 c -0.8125,0 -1.132813,-0.558594 -1.132813,-1.261718 v -2.261719 c 0,-0.703125 0.320313,-1.261719 1.132813,-1.261719 h 1.328125 z m 0,0"
           id="path50" />
      </g>
    </g>
  </g>
  <g
     fill="#ffffff"
     fill-opacity="1"
     id="g56"
     transform="translate(-25.543269,-19.320312)">
    <g
       transform="translate(106.79537,122.52427)"
       id="g55">
      <g
         id="g54">
        <path
           d="m 5.316406,0 v -4.453125 c 0,-1.539063 -0.652344,-2.324219 -2.21875,-2.324219 h -1.96875 v 1.0625 h 1.863282 c 0.886718,0 1.195312,0.476563 1.195312,1.261719 V -3.8125 H 2.832031 c -1.449219,0 -2.234375,0.554688 -2.234375,1.953125 C 0.597656,-0.625 1.316406,0 2.589844,0 Z M 4.1875,-0.996094 H 2.722656 c -0.664062,0 -0.996094,-0.28125 -0.996094,-0.863281 0,-0.707031 0.320313,-1 1.132813,-1 H 4.1875 Z m 0,0"
           id="path53" />
      </g>
    </g>
  </g>
  <g
     fill="#ffffff"
     fill-opacity="1"
     id="g59"
     transform="translate(-25.543269,-19.320312)">
    <g
       transform="translate(113.03791,122.52427)"
       id="g58">
      <g
         id="g57">
        <path
           d="M 5.648438,0 3.402344,-3.722656 5.515625,-6.777344 H 4.253906 L 2.140625,-3.722656 4.386719,0 Z M 2.058594,0 V -9.4375 H 0.929688 V 0 Z m 0,0"
           id="path56" />
      </g>
    </g>
  </g>
  <g
     fill="#ffffff"
     fill-opacity="1"
     id="g62"
     transform="translate(-25.543269,-19.320312)">
    <g
       transform="translate(118.81559,122.52427)"
       id="g61">
      <g
         id="g60">
        <path
           d="m 5.515625,-2.257812 v -2.261719 c 0,-1.394531 -0.796875,-2.257813 -2.191406,-2.257813 H 2.992188 c -1.398438,0 -2.195313,0.863282 -2.195313,2.257813 v 2.261719 C 0.796875,-0.863281 1.59375,0 2.992188,0 H 3.324219 C 4.71875,0 5.515625,-0.863281 5.515625,-2.257812 Z m -1.128906,0 c 0,0.703124 -0.414063,1.261718 -1.0625,1.261718 H 2.992188 c -0.652344,0 -1.066407,-0.558594 -1.066407,-1.261718 v -2.261719 c 0,-0.703125 0.414063,-1.261719 1.066407,-1.261719 h 0.332031 c 0.648437,0 1.0625,0.558594 1.0625,1.261719 z m 0,0"
           id="path59" />
      </g>
    </g>
  </g>
  <g
     fill="#ffffff"
     fill-opacity="1"
     id="g65"
     transform="translate(-25.543269,-19.320312)">
    <g
       transform="translate(125.12454,122.52427)"
       id="g64">
      <g
         id="g63">
        <path
           d="m 9.171875,0 v -4.386719 c 0,-1.460937 -0.691406,-2.390625 -2.222656,-2.390625 H 6.671875 c -0.746094,0 -1.289063,0.210938 -1.648437,0.609375 C 4.664062,-6.566406 4.105469,-6.777344 3.363281,-6.777344 h -0.28125 c -1.527343,0 -2.21875,0.929688 -2.21875,2.390625 V 0 h 1.128907 v -4.386719 c 0,-0.703125 0.320312,-1.328125 1.132812,-1.328125 h 0.199219 c 0.808593,0 1.128906,0.625 1.128906,1.328125 V 0 h 1.128906 v -4.386719 c 0,-0.703125 0.320313,-1.328125 1.128907,-1.328125 h 0.199218 c 0.8125,0 1.128906,0.625 1.128906,1.328125 V 0 Z m 0,0"
           id="path62" />
      </g>
    </g>
  </g>
  <g
     fill="#ffffff"
     fill-opacity="1"
     id="g68"
     transform="translate(-25.543269,-19.320312)">
    <g
       transform="translate(98.057342,140.51466)"
       id="g67">
      <g
         id="g66">
        <path
           d="M 6.644531,0 V -5.183594 H 3.523438 v 1.0625 H 5.515625 V -1.0625 H 3.722656 c -1.316406,0 -1.796875,-0.972656 -1.796875,-1.996094 v -3.054687 c 0,-1.277344 0.585938,-2.257813 2.0625,-2.257813 H 6.378906 V -9.4375 H 3.988281 c -2.179687,0 -3.191406,1.304688 -3.191406,3.324219 v 3.054687 C 0.796875,-1.289062 1.6875,0 3.722656,0 Z m 0,0"
           id="path65" />
      </g>
    </g>
  </g>
  <g
     fill="#ffffff"
     fill-opacity="1"
     id="g71"
     transform="translate(-25.543269,-19.320312)">
    <g
       transform="translate(105.62809,140.51466)"
       id="g70">
      <g
         id="g69">
        <path
           d="m 9.171875,0 v -4.386719 c 0,-1.460937 -0.691406,-2.390625 -2.222656,-2.390625 H 6.671875 c -0.746094,0 -1.289063,0.210938 -1.648437,0.609375 C 4.664062,-6.566406 4.105469,-6.777344 3.363281,-6.777344 h -0.28125 c -1.527343,0 -2.21875,0.929688 -2.21875,2.390625 V 0 h 1.128907 v -4.386719 c 0,-0.703125 0.320312,-1.328125 1.132812,-1.328125 h 0.199219 c 0.808593,0 1.128906,0.625 1.128906,1.328125 V 0 h 1.128906 v -4.386719 c 0,-0.703125 0.320313,-1.328125 1.128907,-1.328125 h 0.199218 c 0.8125,0 1.128906,0.625 1.128906,1.328125 V 0 Z m 0,0"
           id="path68" />
      </g>
    </g>
  </g>
  <g
     fill="#ffffff"
     fill-opacity="1"
     id="g74"
     transform="translate(-25.543269,-19.320312)">
    <g
       transform="translate(115.656,140.51466)"
       id="g73">
      <g
         id="g72">
        <path
           d="m 5.648438,-2.257812 v -2.261719 c 0,-1.394531 -0.679688,-2.257813 -2.125,-2.257813 H 2.058594 V -9.4375 H 0.929688 V 0 h 2.59375 c 1.445312,0 2.125,-0.863281 2.125,-2.257812 z m -1.128907,0 c 0,0.703124 -0.320312,1.261718 -1.128906,1.261718 H 2.058594 V -5.78125 h 1.332031 c 0.808594,0 1.128906,0.558594 1.128906,1.261719 z m 0,0"
           id="path71" />
      </g>
    </g>
  </g>
  <g
     fill="#ffffff"
     fill-opacity="1"
     id="g77"
     transform="translate(-25.543269,-19.320312)">
    <g
       transform="translate(122.09777,140.51466)"
       id="g76">
      <g
         id="g75">
        <path
           d="M 6.777344,0 V -9.4375 H 5.648438 v 4.121094 H 2.058594 V -9.4375 H 0.929688 V 0 H 2.058594 V -4.253906 H 5.648438 V 0 Z m 0,0"
           id="path74" />
      </g>
    </g>
  </g>
  <g
     fill="#ffffff"
     fill-opacity="1"
     id="g80"
     transform="translate(-25.543269,-19.320312)">
    <g
       transform="translate(74.835988,53.177035)"
       id="g79">
      <g
         id="g78">
        <path
           d="m -2.96875,-9.09375 0.296875,-0.171875 c 0.28125,-0.175781 0.53125,-0.382813 0.75,-0.625 0.21875,-0.25 0.390625,-0.507813 0.515625,-0.78125 0.125,-0.269531 0.195312,-0.550781 0.203125,-0.84375 0,-0.289063 -0.0625,-0.582031 -0.1875,-0.875 l 0.9375,-0.546875 5.8125,9.75 -1.3125,0.78125 -4.375,-7.328125 -2.234375,1.328125 z m 0,0"
           id="path77" />
      </g>
    </g>
  </g>
  <g
     fill="#ffffff"
     fill-opacity="1"
     id="g83"
     transform="translate(-25.543269,-19.320312)">
    <g
       transform="translate(82.374414,48.633456)"
       id="g82">
      <g
         id="g81">
        <path
           d="m 0.90625,-3.546875 c 0.09375,0.167969 0.222656,0.34375 0.390625,0.53125 0.175781,0.1875 0.382813,0.339844 0.625,0.453125 0.238281,0.117188 0.519531,0.183594 0.84375,0.203125 0.320313,0.023437 0.6875,-0.054687 1.09375,-0.234375 C 4.035156,-2.664062 4.25,-2.78125 4.5,-2.9375 4.757812,-3.101562 4.984375,-3.328125 5.171875,-3.609375 5.359375,-3.890625 5.472656,-4.238281 5.515625,-4.65625 5.566406,-5.082031 5.457031,-5.609375 5.1875,-6.234375 5,-6.679688 4.765625,-7.035156 4.484375,-7.296875 4.210938,-7.566406 3.929688,-7.75 3.640625,-7.84375 3.347656,-7.9375 3.039062,-7.960938 2.71875,-7.921875 c -0.3125,0.03125 -0.605469,0.105469 -0.875,0.21875 C 1.664062,-7.628906 1.484375,-7.53125 1.296875,-7.40625 1.109375,-7.28125 0.9375,-7.140625 0.78125,-6.984375 0.625,-6.828125 0.488281,-6.65625 0.375,-6.46875 0.269531,-6.289062 0.207031,-6.109375 0.1875,-5.921875 l -1.3125,0.5625 -1.640625,-5.8125 5.65625,-2.421875 0.5,1.171875 -4.609375,1.984375 0.90625,3.265625 c 0.199219,-0.425781 0.460938,-0.78125 0.796875,-1.0625 0.332031,-0.289063 0.738281,-0.535156 1.21875,-0.734375 0.476563,-0.207031 0.953125,-0.3125 1.421875,-0.3125 0.476562,-0.00781 0.925781,0.074219 1.34375,0.25 0.414062,0.179688 0.796875,0.453125 1.140625,0.828125 0.34375,0.375 0.632813,0.839844 0.875,1.390625 0.21875,0.53125 0.347656,1.058594 0.390625,1.578125 0.050781,0.511719 0,0.996094 -0.15625,1.453125 C 6.5625,-3.320312 6.285156,-2.894531 5.890625,-2.5 5.503906,-2.101562 4.988281,-1.765625 4.34375,-1.484375 3.664062,-1.191406 3.0625,-1.050781 2.53125,-1.0625 2.007812,-1.082031 1.554688,-1.179688 1.171875,-1.359375 0.785156,-1.546875 0.457031,-1.785156 0.1875,-2.078125 -0.0820312,-2.378906 -0.296875,-2.675781 -0.453125,-2.96875 Z m 0,0"
           id="path80" />
      </g>
    </g>
  </g>
  <g
     fill="#ffffff"
     fill-opacity="1"
     id="g86"
     transform="translate(-25.543269,-19.320312)">
    <g
       transform="translate(90.617539,45.19799)"
       id="g85">
      <g
         id="g84">
        <path
           d="m 1.109375,-2.203125 1.53125,-0.46875 0.53125,1.6875 -1.53125,0.46875 z m 0,0"
           id="path83" />
      </g>
    </g>
  </g>
  <g
     fill="#ffffff"
     fill-opacity="1"
     id="g89"
     transform="translate(-25.543269,-19.320312)">
    <g
       transform="translate(94.951253,43.705559)"
       id="g88">
      <g
         id="g87">
        <path
           d="m 0.203125,-9.5625 0.34375,-0.0625 c 0.320313,-0.070312 0.628906,-0.1875 0.921875,-0.34375 0.289062,-0.15625 0.535156,-0.34375 0.734375,-0.5625 0.207031,-0.21875 0.363281,-0.460938 0.46875,-0.734375 0.113281,-0.269531 0.15625,-0.570313 0.125,-0.90625 l 1.0625,-0.203125 2.25,11.140625 -1.5,0.296875 -1.6875,-8.359375 L 0.375,-8.78125 Z m 0,0"
           id="path86" />
      </g>
    </g>
  </g>
  <g
     fill="#ffffff"
     fill-opacity="1"
     id="g92"
     transform="translate(-25.543269,-19.320312)">
    <g
       transform="translate(103.56974,41.918472)"
       id="g91">
      <g
         id="g90">
        <path
           d="M 8.59375,-0.578125 0.921875,-0.0625 c -0.042969,-0.675781 0.007813,-1.269531 0.15625,-1.78125 0.15625,-0.507812 0.394531,-0.96875 0.71875,-1.375 C 2.117188,-3.632812 2.5,-4.019531 2.9375,-4.375 3.382812,-4.726562 3.875,-5.09375 4.40625,-5.46875 c 0.226562,-0.175781 0.472656,-0.359375 0.734375,-0.546875 0.257813,-0.1875 0.5,-0.40625 0.71875,-0.65625 C 6.078125,-6.929688 6.25,-7.222656 6.375,-7.546875 6.507812,-7.878906 6.5625,-8.257812 6.53125,-8.6875 c -0.054688,-0.71875 -0.304688,-1.242188 -0.75,-1.578125 -0.4375,-0.34375 -1,-0.488281 -1.6875,-0.4375 -0.71875,0.04297 -1.277344,0.28125 -1.671875,0.71875 -0.386719,0.4375 -0.558594,1 -0.515625,1.6875 L 1.9375,-7.875 0.4375,-7.78125 0.421875,-8.125 c -0.023437,-0.257812 -0.007813,-0.59375 0.046875,-1 0.0625,-0.414062 0.210938,-0.820312 0.453125,-1.21875 0.25,-0.40625 0.613281,-0.765625 1.09375,-1.078125 0.488281,-0.3125 1.164063,-0.5 2.03125,-0.5625 0.582031,-0.03125 1.113281,0.01563 1.59375,0.140625 0.476563,0.125 0.890625,0.320312 1.234375,0.578125 0.351562,0.261719 0.628906,0.601563 0.828125,1.015625 0.207031,0.417969 0.332031,0.898438 0.375,1.4375 0.03125,0.53125 -0.00781,0.992188 -0.109375,1.375 -0.105469,0.386719 -0.292969,0.75 -0.5625,1.09375 C 7.132812,-6 6.773438,-5.648438 6.328125,-5.296875 c -0.4375,0.355469 -0.96875,0.761719 -1.59375,1.21875 -0.742187,0.53125 -1.277344,1 -1.609375,1.40625 -0.324219,0.398437 -0.523438,0.804687 -0.59375,1.21875 l 5.984375,-0.40625 z m 0,0"
           id="path89" />
      </g>
    </g>
  </g>
  <g
     fill="#ffffff"
     fill-opacity="1"
     id="g95"
     transform="translate(-25.543269,-19.320312)">
    <g
       transform="translate(112.48554,41.411116)"
       id="g94">
      <g
         id="g93">
        <path
           d="m 1.78125,-1.703125 1.609375,0.0625 L 3.328125,0.125 1.71875,0.0625 Z m 0,0"
           id="path92" />
      </g>
    </g>
  </g>
  <g
     fill="#ffffff"
     fill-opacity="1"
     id="g98"
     transform="translate(-25.543269,-19.320312)">
    <g
       transform="translate(117.06906,41.439352)"
       id="g97">
      <g
         id="g96">
        <path
           d="M 8.53125,1.1875 0.90625,0.125 C 1,-0.539062 1.171875,-1.109375 1.421875,-1.578125 c 0.257813,-0.46875 0.585937,-0.875 0.984375,-1.21875 0.394531,-0.34375 0.847656,-0.640625 1.359375,-0.890625 0.519531,-0.25 1.078125,-0.507812 1.671875,-0.78125 0.257812,-0.125 0.53125,-0.25 0.8125,-0.375 0.289062,-0.132812 0.566406,-0.304688 0.828125,-0.515625 0.269531,-0.207031 0.503906,-0.457031 0.703125,-0.75 C 7.976562,-6.398438 8.109375,-6.757812 8.171875,-7.1875 8.265625,-7.894531 8.125,-8.457031 7.75,-8.875 7.382812,-9.300781 6.863281,-9.5625 6.1875,-9.65625 5.476562,-9.75 4.882812,-9.617188 4.40625,-9.265625 c -0.46875,0.34375 -0.75,0.855469 -0.84375,1.53125 L 3.5,-7.3125 2,-7.53125 2.046875,-7.875 C 2.085938,-8.132812 2.175781,-8.457031 2.3125,-8.84375 2.445312,-9.226562 2.675781,-9.59375 3,-9.9375 c 0.332031,-0.34375 0.769531,-0.617188 1.3125,-0.828125 0.539062,-0.21875 1.238281,-0.265625 2.09375,-0.140625 0.582031,0.07422 1.09375,0.226562 1.53125,0.453125 0.445312,0.21875 0.8125,0.496094 1.09375,0.828125 0.28125,0.324219 0.476562,0.714844 0.59375,1.171875 0.125,0.449219 0.148438,0.9375 0.078125,1.46875 C 9.628906,-6.453125 9.5,-6.007812 9.3125,-5.65625 9.132812,-5.300781 8.878906,-4.984375 8.546875,-4.703125 8.210938,-4.429688 7.789062,-4.164062 7.28125,-3.90625 c -0.5,0.261719 -1.105469,0.546875 -1.8125,0.859375 -0.824219,0.386719 -1.445312,0.742187 -1.859375,1.0625 C 3.203125,-1.660156 2.914062,-1.300781 2.75,-0.90625 l 5.953125,0.828125 z m 0,0"
           id="path95" />
      </g>
    </g>
  </g>
  <g
     fill="#ffffff"
     fill-opacity="1"
     id="g101"
     transform="translate(-25.543269,-19.320312)">
    <g
       transform="translate(125.79256,42.610933)"
       id="g100">
      <g
         id="g99">
        <path
           d="m 4.78125,0.359375 c 0.4375,0.113281 0.835938,0.09375 1.203125,-0.0625 C 6.359375,0.140625 6.695312,-0.117188 7,-0.484375 7.300781,-0.847656 7.570312,-1.289062 7.8125,-1.8125 c 0.238281,-0.53125 0.441406,-1.109375 0.609375,-1.734375 0.175781,-0.625 0.300781,-1.222656 0.375,-1.796875 0.070313,-0.582031 0.070313,-1.101562 0,-1.5625 C 8.722656,-7.363281 8.566406,-7.757812 8.328125,-8.09375 8.085938,-8.425781 7.75,-8.648438 7.3125,-8.765625 c -0.4375,-0.125 -0.839844,-0.101563 -1.203125,0.0625 -0.367187,0.15625 -0.699219,0.417969 -1,0.78125 C 4.804688,-7.566406 4.535156,-7.125 4.296875,-6.59375 4.054688,-6.070312 3.847656,-5.5 3.671875,-4.875 3.503906,-4.25 3.382812,-3.644531 3.3125,-3.0625 c -0.074219,0.574219 -0.074219,1.09375 0,1.5625 0.070312,0.460938 0.222656,0.855469 0.453125,1.1875 C 4.003906,0.0078125 4.34375,0.234375 4.78125,0.359375 Z M 4.4375,1.59375 C 4.300781,1.550781 4.113281,1.484375 3.875,1.390625 3.644531,1.296875 3.40625,1.148438 3.15625,0.953125 2.90625,0.753906 2.664062,0.492188 2.4375,0.171875 2.21875,-0.140625 2.046875,-0.539062 1.921875,-1.03125 1.804688,-1.53125 1.757812,-2.125 1.78125,-2.8125 c 0.03125,-0.695312 0.175781,-1.515625 0.4375,-2.453125 0.257812,-0.9375 0.554688,-1.707031 0.890625,-2.3125 0.332031,-0.613281 0.675781,-1.097656 1.03125,-1.453125 0.363281,-0.363281 0.722656,-0.625 1.078125,-0.78125 0.363281,-0.164062 0.703125,-0.269531 1.015625,-0.3125 0.320313,-0.03906 0.601563,-0.03906 0.84375,0 0.25,0.04297 0.441406,0.08594 0.578125,0.125 0.132812,0.03125 0.316406,0.09375 0.546875,0.1875 0.238281,0.09375 0.484375,0.242188 0.734375,0.4375 0.257812,0.199219 0.5,0.460938 0.71875,0.78125 0.226562,0.324219 0.398438,0.734375 0.515625,1.234375 0.125,0.492187 0.171875,1.085937 0.140625,1.78125 -0.03125,0.6875 -0.179688,1.5 -0.4375,2.4375 C 9.613281,-2.203125 9.316406,-1.425781 8.984375,-0.8125 8.660156,-0.207031 8.316406,0.269531 7.953125,0.625 7.597656,0.988281 7.238281,1.25 6.875,1.40625 6.519531,1.5625 6.179688,1.660156 5.859375,1.703125 5.535156,1.742188 5.25,1.742188 5,1.703125 4.757812,1.660156 4.570312,1.625 4.4375,1.59375 Z m 0,0"
           id="path98" />
      </g>
    </g>
  </g>
  <g
     fill="#ffffff"
     fill-opacity="1"
     id="g104"
     transform="translate(-25.543269,-19.320312)">
    <g
       transform="translate(134.28306,44.931131)"
       id="g103">
      <g
         id="g102">
        <path
           d="M 7.921875,3.390625 0.84375,0.359375 c 0.269531,-0.625 0.585938,-1.128906 0.953125,-1.515625 0.363281,-0.382812 0.785156,-0.6875 1.265625,-0.90625 0.476562,-0.21875 0.992188,-0.382812 1.546875,-0.5 C 5.171875,-2.675781 5.769531,-2.78125 6.40625,-2.875 6.695312,-2.925781 7,-2.972656 7.3125,-3.015625 7.625,-3.066406 7.9375,-3.160156 8.25,-3.296875 8.5625,-3.429688 8.847656,-3.613281 9.109375,-3.84375 9.367188,-4.070312 9.582031,-4.378906 9.75,-4.765625 c 0.289062,-0.664063 0.3125,-1.25 0.0625,-1.75 -0.242188,-0.5 -0.679688,-0.882813 -1.3125,-1.15625 -0.65625,-0.28125 -1.261719,-0.316406 -1.8125,-0.109375 -0.554688,0.199219 -0.964844,0.617188 -1.234375,1.25 l -0.15625,0.390625 -1.375,-0.59375 0.140625,-0.3125 c 0.09375,-0.238281 0.257812,-0.53125 0.5,-0.875 0.238281,-0.34375 0.554688,-0.632813 0.953125,-0.875 0.40625,-0.25 0.894531,-0.40625 1.46875,-0.46875 0.582031,-0.0625 1.269531,0.078125 2.0625,0.421875 0.53125,0.230469 0.984375,0.511719 1.359375,0.84375 0.375,0.324219 0.65625,0.683594 0.84375,1.078125 0.1875,0.398437 0.273438,0.828125 0.265625,1.296875 -0.01172,0.46875 -0.121094,0.953125 -0.328125,1.453125 -0.210938,0.492187 -0.449219,0.882813 -0.71875,1.171875 -0.273438,0.292969 -0.605469,0.53125 -1,0.71875 C 9.082031,-2.101562 8.613281,-1.957031 8.0625,-1.84375 7.507812,-1.726562 6.847656,-1.613281 6.078125,-1.5 5.171875,-1.34375 4.476562,-1.160156 4,-0.953125 3.53125,-0.742188 3.164062,-0.472656 2.90625,-0.140625 L 8.421875,2.21875 Z m 0,0"
           id="path101" />
      </g>
    </g>
  </g>
  <g
     fill="#ffffff"
     fill-opacity="1"
     id="g107"
     transform="translate(-25.543269,-19.320312)">
    <g
       transform="translate(142.39004,48.358816)"
       id="g106">
      <g
         id="g105">
        <path
           d="M 3.578125,-1.890625 C 3.554688,-1.828125 3.53125,-1.765625 3.5,-1.703125 3.476562,-1.648438 3.457031,-1.59375 3.4375,-1.53125 3.382812,-1.414062 3.320312,-1.234375 3.25,-0.984375 c -0.074219,0.242187 -0.105469,0.511719 -0.09375,0.8125 0.019531,0.289063 0.113281,0.585937 0.28125,0.890625 0.175781,0.3125 0.476562,0.597656 0.90625,0.859375 0.5,0.289063 0.941406,0.445313 1.328125,0.46875 0.394531,0.019531 0.726563,-0.039063 1,-0.171875 0.28125,-0.125 0.507813,-0.292969 0.6875,-0.5 0.1875,-0.210938 0.332031,-0.390625 0.4375,-0.546875 0.3125,-0.542969 0.398437,-1.0625 0.265625,-1.5625 -0.136719,-0.507813 -0.476562,-0.925781 -1.015625,-1.25 l -1.015625,-0.59375 0.640625,-1.0625 0.390625,0.21875 c 0.101562,0.074219 0.273438,0.167969 0.515625,0.28125 0.25,0.117187 0.523437,0.195313 0.828125,0.234375 0.300781,0.042969 0.613281,0.00781 0.9375,-0.109375 0.320312,-0.125 0.609375,-0.394531 0.859375,-0.8125 0.113281,-0.195313 0.195313,-0.410156 0.25,-0.640625 0.0625,-0.238281 0.07031,-0.484375 0.03125,-0.734375 -0.04297,-0.25 -0.15625,-0.5 -0.34375,-0.75 -0.1875,-0.25 -0.46875,-0.484375 -0.84375,-0.703125 C 9.179688,-6.726562 9.003906,-6.8125 8.765625,-6.90625 8.523438,-7.007812 8.257812,-7.050781 7.96875,-7.03125 7.6875,-7.007812 7.378906,-6.894531 7.046875,-6.6875 6.722656,-6.488281 6.398438,-6.125 6.078125,-5.59375 L 4.859375,-6.3125 c 0.082031,-0.125 0.191406,-0.296875 0.328125,-0.515625 0.144531,-0.21875 0.328125,-0.425781 0.546875,-0.625 0.21875,-0.195313 0.460937,-0.375 0.734375,-0.53125 C 6.75,-8.140625 7.0625,-8.242188 7.40625,-8.296875 7.75,-8.359375 8.128906,-8.34375 8.546875,-8.25 8.972656,-8.164062 9.4375,-7.972656 9.9375,-7.671875 c 0.6875,0.40625 1.171875,0.835937 1.453125,1.28125 0.289063,0.449219 0.457031,0.882813 0.5,1.296875 0.03906,0.40625 0.0039,0.78125 -0.109375,1.125 -0.105469,0.34375 -0.21875,0.617188 -0.34375,0.8125 -0.3125,0.53125 -0.734375,0.902344 -1.265625,1.109375 -0.53125,0.210937 -1.070313,0.242187 -1.609375,0.09375 L 8.546875,-1.9375 c 0.226563,0.1875 0.414063,0.414062 0.5625,0.671875 0.15625,0.25 0.253906,0.53125 0.296875,0.84375 C 9.457031,-0.109375 9.445312,0.21875 9.375,0.5625 9.3125,0.914062 9.164062,1.285156 8.9375,1.671875 8.65625,2.140625 8.316406,2.507812 7.921875,2.78125 7.535156,3.0625 7.113281,3.238281 6.65625,3.3125 6.207031,3.382812 5.738281,3.363281 5.25,3.25 4.769531,3.144531 4.285156,2.953125 3.796875,2.671875 3.085938,2.242188 2.578125,1.785156 2.265625,1.296875 1.953125,0.816406 1.769531,0.34375 1.71875,-0.125 1.664062,-0.601562 1.707031,-1.054688 1.84375,-1.484375 1.988281,-1.921875 2.148438,-2.300781 2.328125,-2.625 Z m 0,0"
           id="path104" />
      </g>
    </g>
  </g>
  <g
     fill="#ffffff"
     fill-opacity="1"
     id="g110"
     transform="translate(-25.543269,-19.320312)">
    <g
       transform="translate(52.020568,147.74191)"
       id="g109">
      <g
         id="g108" />
    </g>
  </g>
  <g
     fill="#ffffff"
     fill-opacity="1"
     id="g113"
     transform="translate(-25.543269,-19.320312)">
    <g
       transform="translate(54.010649,151.32017)"
       id="g112">
      <g
         id="g111">
        <path
           d="M 13.5625,-0.015625 14.75,1.5625 8.46875,0.609375 6.25,8.3125 5.09375,6.765625 7.046875,0.359375 4.640625,-0.015625 1.671875,2.21875 0.78125,1.046875 9.453125,-5.46875 10.34375,-4.296875 6.046875,-1.0625 Z m 0,0"
           id="path110" />
      </g>
    </g>
  </g>
  <g
     fill="#ffffff"
     fill-opacity="1"
     id="g116"
     transform="translate(-25.543269,-19.320312)">
    <g
       transform="translate(60.690391,160.04111)"
       id="g115">
      <g
         id="g114">
        <path
           d="M 8,1.515625 C 8.175781,1.347656 8.351562,1.128906 8.53125,0.859375 8.707031,0.585938 8.832031,0.300781 8.90625,0 8.976562,-0.300781 8.972656,-0.609375 8.890625,-0.921875 8.816406,-1.242188 8.625,-1.5625 8.3125,-1.875 7.96875,-2.226562 7.617188,-2.453125 7.265625,-2.546875 6.910156,-2.648438 6.570312,-2.671875 6.25,-2.609375 5.9375,-2.546875 5.648438,-2.425781 5.390625,-2.25 5.128906,-2.082031 4.910156,-1.914062 4.734375,-1.75 Z M 7.328125,4.125 C 7.085938,4.28125 6.8125,4.414062 6.5,4.53125 6.1875,4.644531 5.84375,4.695312 5.46875,4.6875 5.101562,4.6875 4.71875,4.597656 4.3125,4.421875 3.90625,4.242188 3.488281,3.941406 3.0625,3.515625 2.601562,3.046875 2.273438,2.59375 2.078125,2.15625 1.890625,1.71875 1.785156,1.296875 1.765625,0.890625 c -0.011719,-0.40625 0.039063,-0.78125 0.15625,-1.125 0.125,-0.351563 0.265625,-0.660156 0.421875,-0.921875 0.164062,-0.269531 0.332031,-0.503906 0.5,-0.703125 0.175781,-0.195313 0.304688,-0.335937 0.390625,-0.421875 0.125,-0.125 0.289063,-0.28125 0.5,-0.46875 0.21875,-0.1875 0.46875,-0.363281 0.75,-0.53125 0.289063,-0.164062 0.601563,-0.300781 0.9375,-0.40625 0.34375,-0.101562 0.707031,-0.144531 1.09375,-0.125 0.382813,0.023438 0.78125,0.125 1.1875,0.3125 0.414063,0.179688 0.84375,0.484375 1.28125,0.921875 0.550781,0.554687 0.894531,1.09375 1.03125,1.625 0.132813,0.53125 0.144531,1.0234375 0.03125,1.484375 C 9.941406,1 9.742188,1.4375 9.453125,1.84375 9.171875,2.257812 8.882812,2.628906 8.59375,2.953125 8.550781,2.992188 8.507812,3.035156 8.46875,3.078125 8.425781,3.128906 8.378906,3.175781 8.328125,3.21875 L 4.046875,-1.0625 C 3.804688,-0.8125 3.59375,-0.53125 3.40625,-0.21875 3.226562,0.0820312 3.109375,0.40625 3.046875,0.75 2.984375,1.09375 3,1.4375 3.09375,1.78125 3.1875,2.132812 3.394531,2.472656 3.71875,2.796875 3.9375,3.015625 4.171875,3.1875 4.421875,3.3125 c 0.25,0.125 0.488281,0.195312 0.71875,0.21875 C 5.367188,3.5625 5.59375,3.546875 5.8125,3.484375 6.03125,3.421875 6.222656,3.320312 6.390625,3.1875 Z m 0,0"
           id="path113" />
      </g>
    </g>
  </g>
  <g
     fill="#ffffff"
     fill-opacity="1"
     id="g119"
     transform="translate(-25.543269,-19.320312)">
    <g
       transform="translate(67.313559,166.49154)"
       id="g118">
      <g
         id="g117">
        <path
           d="m 8.859375,-6.71875 -6.953125,8.3125 -1.0625,-0.875 6.953125,-8.3125 z m 0,0"
           id="path116" />
      </g>
    </g>
  </g>
  <g
     fill="#ffffff"
     fill-opacity="1"
     id="g122"
     transform="translate(-25.543269,-19.320312)">
    <g
       transform="translate(70.31562,169.08084)"
       id="g121">
      <g
         id="g120">
        <path
           d="m 9.34375,-3.015625 1.203125,0.84375 -6.9375,4.75 -1.28125,-0.921875 2.1875,-8.109375 1.1875,0.84375 L 3.75,1 Z m 0,0"
           id="path119" />
      </g>
    </g>
  </g>
  <g
     fill="#ffffff"
     fill-opacity="1"
     id="g125"
     transform="translate(-25.543269,-19.320312)">
    <g
       transform="translate(76.595167,173.43813)"
       id="g124">
      <g
         id="g123">
        <path
           d="m 6.5,-8.75 1.1875,0.71875 -0.734375,1.21875 -1.1875,-0.71875 z m -0.34375,3.265625 -4.046875,6.75 -1.1875,-0.71875 4.046875,-6.75 z m 0,0"
           id="path122" />
      </g>
    </g>
  </g>
  <g
     fill="#ffffff"
     fill-opacity="1"
     id="g128"
     transform="translate(-25.543269,-19.320312)">
    <g
       transform="translate(79.941277,175.56661)"
       id="g127">
      <g
         id="g126">
        <path
           d="M 3.625,-2.65625 C 3.28125,-1.945312 3.097656,-1.347656 3.078125,-0.859375 3.066406,-0.367188 3.132812,0.0234375 3.28125,0.328125 3.425781,0.640625 3.609375,0.875 3.828125,1.03125 4.054688,1.195312 4.238281,1.3125 4.375,1.375 4.519531,1.445312 4.722656,1.519531 4.984375,1.59375 5.242188,1.664062 5.539062,1.660156 5.875,1.578125 6.21875,1.503906 6.570312,1.304688 6.9375,0.984375 7.300781,0.671875 7.65625,0.160156 8,-0.546875 8.332031,-1.253906 8.507812,-1.847656 8.53125,-2.328125 8.550781,-2.816406 8.484375,-3.210938 8.328125,-3.515625 8.179688,-3.828125 8,-4.0625 7.78125,-4.21875 7.5625,-4.375 7.378906,-4.488281 7.234375,-4.5625 7.097656,-4.625 6.894531,-4.691406 6.625,-4.765625 c -0.261719,-0.082031 -0.558594,-0.082031 -0.890625,0 C 5.398438,-4.691406 5.046875,-4.5 4.671875,-4.1875 4.304688,-3.875 3.957031,-3.363281 3.625,-2.65625 Z M 2.3125,-3.25 C 2.539062,-3.726562 2.820312,-4.164062 3.15625,-4.5625 3.488281,-4.96875 3.878906,-5.28125 4.328125,-5.5 c 0.445313,-0.226562 0.945313,-0.347656 1.5,-0.359375 0.5625,-0.00781 1.164063,0.140625 1.8125,0.453125 0.644531,0.3125 1.132813,0.6875 1.46875,1.125 0.332031,0.4375 0.550781,0.902344 0.65625,1.390625 C 9.867188,-2.398438 9.875,-1.894531 9.78125,-1.375 9.6875,-0.863281 9.523438,-0.367188 9.296875,0.109375 9.066406,0.585938 8.78125,1.019531 8.4375,1.40625 8.09375,1.800781 7.695312,2.113281 7.25,2.34375 6.800781,2.570312 6.300781,2.691406 5.75,2.703125 5.195312,2.710938 4.597656,2.5625 3.953125,2.25 3.304688,1.9375 2.8125,1.5625 2.46875,1.125 2.132812,0.6875 1.914062,0.222656 1.8125,-0.265625 c -0.105469,-0.5 -0.105469,-1 0,-1.5 0.101562,-0.507813 0.269531,-1.003906 0.5,-1.484375 z m 0,0"
           id="path125" />
      </g>
    </g>
  </g>
  <g
     fill="#ffffff"
     fill-opacity="1"
     id="g131"
     transform="translate(-25.543269,-19.320312)">
    <g
       transform="translate(88.694542,179.72331)"
       id="g130">
      <g
         id="g129">
        <path
           d="m 4.828125,-6.703125 -0.34375,1.046875 c 0.375,-0.28125 0.816406,-0.484375 1.328125,-0.609375 0.519531,-0.125 1.070312,-0.09375 1.65625,0.09375 0.5,0.167969 0.878906,0.382813 1.140625,0.640625 0.269531,0.261719 0.453125,0.554688 0.546875,0.875 0.101562,0.3125 0.132812,0.652344 0.09375,1.015625 -0.03125,0.355469 -0.109375,0.71875 -0.234375,1.09375 L 7.375,2.421875 6.078125,2 7.59375,-2.59375 c 0.0625,-0.1875 0.128906,-0.414062 0.203125,-0.6875 C 7.867188,-3.550781 7.894531,-3.816406 7.875,-4.078125 7.863281,-4.347656 7.773438,-4.597656 7.609375,-4.828125 7.441406,-5.054688 7.160156,-5.238281 6.765625,-5.375 6.585938,-5.4375 6.363281,-5.472656 6.09375,-5.484375 5.832031,-5.503906 5.554688,-5.457031 5.265625,-5.34375 4.972656,-5.238281 4.6875,-5.023438 4.40625,-4.703125 4.132812,-4.378906 3.898438,-3.910156 3.703125,-3.296875 l -1.34375,4.078125 -1.3125,-0.4375 2.46875,-7.484375 z m 0,0"
           id="path128" />
      </g>
    </g>
  </g>
  <g
     fill="#ffffff"
     fill-opacity="1"
     id="g134"
     transform="translate(-25.543269,-19.320312)">
    <g
       transform="translate(97.564911,182.49742)"
       id="g133">
      <g
         id="g132" />
    </g>
  </g>
  <g
     fill="#ffffff"
     fill-opacity="1"
     id="g137"
     transform="translate(-25.543269,-19.320312)">
    <g
       transform="translate(101.50497,183.54427)"
       id="g136">
      <g
         id="g135">
        <path
           d="m 3.484375,-5.140625 2.625,0.34375 C 6.972656,-4.679688 7.625,-4.78125 8.0625,-5.09375 8.5,-5.40625 8.765625,-5.914062 8.859375,-6.625 8.941406,-7.289062 8.800781,-7.800781 8.4375,-8.15625 8.070312,-8.507812 7.472656,-8.738281 6.640625,-8.84375 l -2.625,-0.34375 z m 3.609375,-4.875 c 0.550781,0.074219 1.039062,0.195313 1.46875,0.359375 0.4375,0.167969 0.796875,0.398438 1.078125,0.6875 0.28125,0.28125 0.484375,0.636719 0.609375,1.0625 0.125,0.417969 0.148438,0.902344 0.07813,1.453125 -0.0625,0.511719 -0.195313,0.964844 -0.390625,1.359375 -0.1875,0.386719 -0.449219,0.710938 -0.78125,0.96875 -0.324219,0.261719 -0.742188,0.445312 -1.25,0.546875 -0.5,0.09375 -1.101562,0.09375 -1.796875,0 L 3.32813,-3.9375 l -0.5625,4.296875 -1.46875,-0.1875 1.40625,-10.75 z m 0,0"
           id="path134" />
      </g>
    </g>
  </g>
  <g
     fill="#ffffff"
     fill-opacity="1"
     id="g140"
     transform="translate(-25.543269,-19.320312)">
    <g
       transform="translate(112.03749,184.90246)"
       id="g139">
      <g
         id="g138">
        <path
           d="M 2.78125,-0.0625 1.3125,-0.03125 1.078125,-10.875 l 1.46875,-0.03125 0.09375,4.515625 5.453125,-0.125 L 8,-11.03125 9.453125,-11.0625 9.6875,-0.21875 8.234375,-0.1875 8.125,-5.28125 l -5.453125,0.125 z m 0,0"
           id="path137" />
      </g>
    </g>
  </g>
  <g
     fill="#ffffff"
     fill-opacity="1"
     id="g143"
     transform="translate(-25.543269,-19.320312)">
    <g
       transform="translate(123.72937,184.53528)"
       id="g142">
      <g
         id="g141">
        <path
           d="M 7.28125,-7.5625 7.5,-6.34375 1.890625,-5.375 2.53125,-1.671875 8.875,-2.765625 9.078125,-1.5625 l -7.78125,1.34375 -1.84375,-10.6875 7.625,-1.3125 0.203125,1.203125 -6.1875,1.0625 0.578125,3.359375 z m 0,0"
           id="path140" />
      </g>
    </g>
  </g>
  <g
     fill="#ffffff"
     fill-opacity="1"
     id="g146"
     transform="translate(-25.543269,-19.320312)">
    <g
       transform="translate(133.47494,182.69372)"
       id="g145">
      <g
         id="g144" />
    </g>
  </g>
  <g
     fill="#ffffff"
     fill-opacity="1"
     id="g149"
     transform="translate(-25.543269,-19.320312)">
    <g
       transform="translate(137.51199,181.78825)"
       id="g148">
      <g
         id="g147">
        <path
           d="M 7.765625,-9.140625 9.84375,-3.875 8.78125,-3.453125 8.140625,-5.078125 8.109375,-5.0625 C 8.054688,-4.351562 7.8125,-3.710938 7.375,-3.140625 6.9375,-2.566406 6.316406,-2.125 5.515625,-1.8125 c -0.59375,0.242188 -1.21875,0.375 -1.875,0.40625 C 2.992188,-1.375 2.363281,-1.484375 1.75,-1.734375 1.144531,-1.992188 0.570312,-2.414062 0.03125,-3 -0.507812,-3.59375 -0.976562,-4.390625 -1.375,-5.390625 c -0.332031,-0.851563 -0.507812,-1.65625 -0.53125,-2.40625 -0.03125,-0.75 0.085938,-1.429687 0.34375,-2.046875 0.25,-0.625 0.636719,-1.160156 1.15625,-1.609375 0.519531,-0.457031 1.148438,-0.835937 1.890625,-1.140625 C 2.160156,-12.851562 2.78125,-12.988281 3.34375,-13 c 0.570312,-0.01953 1.085938,0.0625 1.546875,0.25 0.457031,0.179688 0.851563,0.429688 1.1875,0.75 0.332031,0.324219 0.609375,0.683594 0.828125,1.078125 l -1.375,0.53125 c -0.117188,-0.21875 -0.265625,-0.4375 -0.453125,-0.65625 C 4.890625,-11.265625 4.644531,-11.4375 4.34375,-11.5625 4.050781,-11.6875 3.703125,-11.75 3.296875,-11.75 c -0.40625,0 -0.871094,0.101562 -1.390625,0.296875 -0.53125,0.210937 -0.960938,0.46875 -1.28125,0.78125 -0.3125,0.304687 -0.546875,0.625 -0.703125,0.96875 C -0.242188,-9.359375 -0.335938,-9 -0.359375,-8.625 c -0.019531,0.375 -0.007813,0.730469 0.03125,1.0625 0.042969,0.335938 0.105469,0.648438 0.1875,0.9375 0.0859375,0.28125 0.15625,0.511719 0.21875,0.6875 0.050781,0.125 0.140625,0.320312 0.265625,0.578125 0.125,0.25 0.285156,0.515625 0.484375,0.796875 0.195313,0.28125 0.4375,0.5625 0.71875,0.84375 0.28125,0.273438 0.601563,0.5 0.96875,0.6875 0.363281,0.179688 0.765625,0.277344 1.203125,0.296875 0.445312,0.023437 0.945312,-0.078125 1.5,-0.296875 0.613281,-0.238281 1.070312,-0.546875 1.375,-0.921875 C 6.90625,-4.335938 7.109375,-4.738281 7.203125,-5.15625 7.296875,-5.582031 7.3125,-6 7.25,-6.40625 7.1875,-6.820312 7.09375,-7.1875 6.96875,-7.5 l -2.875,1.125 -0.453125,-1.140625 z m 0,0"
           id="path146" />
      </g>
    </g>
  </g>
  <g
     fill="#ffffff"
     fill-opacity="1"
     id="g152"
     transform="translate(-25.543269,-19.320312)">
    <g
       transform="translate(148.99835,177.28329)"
       id="g151">
      <g
         id="g150">
        <path
           d="m -2.046875,-8 0.5625,0.921875 L -1.453125,-7 c -0.019531,-0.25 -0.00391,-0.492188 0.046875,-0.734375 0.042969,-0.25 0.121094,-0.484375 0.234375,-0.703125 0.117187,-0.226562 0.261719,-0.4375 0.4375,-0.625 0.167969,-0.1875 0.355469,-0.34375 0.5625,-0.46875 0.289063,-0.1875 0.570313,-0.304688 0.84375,-0.359375 0.269531,-0.050781 0.523437,-0.054687 0.765625,-0.015625 0.25,0.042969 0.472656,0.121094 0.671875,0.234375 0.195313,0.117187 0.367187,0.246094 0.515625,0.390625 -0.011719,-0.175781 -0.00781,-0.382812 0.015625,-0.625 0.03125,-0.238281 0.09375,-0.488281 0.1875,-0.75 0.09375,-0.269531 0.234375,-0.53125 0.421875,-0.78125 0.1875,-0.257812 0.457031,-0.503906 0.8125,-0.734375 0.5,-0.3125 0.957031,-0.453125 1.375,-0.421875 0.425781,0.02344 0.796875,0.132812 1.109375,0.328125 0.3125,0.1875 0.578125,0.421875 0.796875,0.703125 0.21875,0.28125 0.382812,0.515625 0.5,0.703125 l 2.6875,4.3125 L 9.375,-5.828125 6.75,-10.0625 c -0.117188,-0.175781 -0.257812,-0.363281 -0.421875,-0.5625 -0.15625,-0.207031 -0.339844,-0.382812 -0.546875,-0.53125 -0.210938,-0.144531 -0.4375,-0.222656 -0.6875,-0.234375 -0.25,-0.01953 -0.527344,0.0625 -0.828125,0.25 -0.1875,0.117187 -0.367187,0.265625 -0.53125,0.453125 C 3.566406,-10.5 3.445312,-10.269531 3.375,-10 c -0.074219,0.273438 -0.085938,0.585938 -0.03125,0.9375 0.0625,0.34375 0.222656,0.726562 0.484375,1.140625 l 2.484375,4 -1.15625,0.71875 -2.625,-4.21875 c -0.15625,-0.25 -0.324219,-0.476563 -0.5,-0.6875 C 1.863281,-8.316406 1.675781,-8.472656 1.46875,-8.578125 1.257812,-8.691406 1.035156,-8.75 0.796875,-8.75 0.566406,-8.757812 0.320312,-8.6875 0.0625,-8.53125 c -0.238281,0.148438 -0.4375,0.339844 -0.59375,0.578125 -0.15625,0.230469 -0.253906,0.484375 -0.296875,0.765625 -0.039063,0.28125 -0.023437,0.589844 0.046875,0.921875 0.074219,0.324219 0.210938,0.640625 0.40625,0.953125 l 2.484375,4 -1.171875,0.734375 -4.15625,-6.6875 z m 0,0"
           id="path149" />
      </g>
    </g>
  </g>
  <g
     fill="#ffffff"
     fill-opacity="1"
     id="g155"
     transform="translate(-25.543269,-19.320312)">
    <g
       transform="translate(161.00256,169.54357)"
       id="g154">
      <g
         id="g153">
        <path
           d="m -0.828125,-4.5625 c 0.40625,0.46875 0.796875,0.820312 1.171875,1.046875 0.382812,0.21875 0.742188,0.359375 1.078125,0.421875 0.34375,0.054688 0.65625,0.027344 0.9375,-0.078125 0.28125,-0.113281 0.535156,-0.269531 0.765625,-0.46875 0.238281,-0.207031 0.429688,-0.445313 0.578125,-0.71875 0.15625,-0.28125 0.234375,-0.59375 0.234375,-0.9375 0,-0.34375 -0.089844,-0.71875 -0.265625,-1.125 -0.179687,-0.414063 -0.46875,-0.851563 -0.875,-1.3125 -0.398437,-0.445313 -0.78125,-0.78125 -1.15625,-1 -0.367187,-0.21875 -0.714844,-0.351563 -1.046875,-0.40625 -0.324219,-0.0625 -0.6289062,-0.039063 -0.921875,0.0625 -0.300781,0.105469 -0.570313,0.261719 -0.8125,0.46875 -0.25,0.21875 -0.441406,0.476563 -0.578125,0.765625 -0.144531,0.292969 -0.210938,0.605469 -0.203125,0.9375 0,0.335938 0.089844,0.699219 0.265625,1.09375 0.167969,0.398438 0.445312,0.8125 0.828125,1.25 z m -4.46875,-5.21875 2.640625,3 c -0.144531,-0.5 -0.109375,-0.976562 0.109375,-1.4375 0.210937,-0.46875 0.523437,-0.890625 0.9375,-1.265625 0.4375,-0.375 0.859375,-0.628906 1.265625,-0.765625 0.40625,-0.144531 0.789062,-0.207031 1.15625,-0.1875 0.375,0.02344 0.722656,0.101562 1.046875,0.234375 0.320313,0.136719 0.617187,0.304687 0.890625,0.5 0.269531,0.1875 0.5,0.375 0.6875,0.5625 0.1875,0.179687 0.335938,0.328125 0.453125,0.453125 0.5625,0.648438 0.9375,1.257812 1.125,1.828125 0.1875,0.574219 0.242187,1.101563 0.171875,1.578125 C 5.125,-4.800781 4.972656,-4.375 4.734375,-4 c -0.230469,0.367188 -0.480469,0.667969 -0.75,0.90625 -0.25,0.21875 -0.5,0.386719 -0.75,0.5 -0.25,0.117188 -0.5,0.199219 -0.75,0.25 C 2.242188,-2.300781 2.007812,-2.289062 1.78125,-2.3125 1.550781,-2.332031 1.328125,-2.367188 1.109375,-2.421875 l -0.03125,0.03125 0.71875,0.8125 -0.96875,0.84375 -7.15625,-8.140625 z m 0,0"
           id="path152" />
      </g>
    </g>
  </g>
  <g
     fill="#ffffff"
     fill-opacity="1"
     id="g158"
     transform="translate(-25.543269,-19.320312)">
    <g
       transform="translate(168.52523,162.93671)"
       id="g157">
      <g
         id="g156">
        <path
           d="M 1.796875,-2.125 0.84375,-1 -7.4375,-8 l 0.953125,-1.125 3.453125,2.90625 3.515625,-4.15625 -3.453125,-2.90625 0.9375,-1.109375 8.28125,7 -0.9375,1.109375 -3.890625,-3.296875 -3.515625,4.15625 z m 0,0"
           id="path155" />
      </g>
    </g>
  </g>
  <g
     fill="#ffffff"
     fill-opacity="1"
     id="g161"
     transform="translate(-25.543269,-19.320312)">
    <g
       transform="translate(175.77232,154.02712)"
       id="g160">
      <g
         id="g159" />
    </g>
  </g>
  <g
     fill="#ffffff"
     fill-opacity="1"
     id="g164"
     transform="translate(-25.543269,-19.320312)">
    <g
       transform="translate(177.92953,150.83569)"
       id="g163">
      <g
         id="g162" />
    </g>
  </g>
</svg>
