<svg xmlns="http://www.w3.org/2000/svg" xmlns:xlink="http://www.w3.org/1999/xlink" width="300" zoomAndPan="magnify" viewBox="0 0 224.87999 225" height="300" preserveAspectRatio="xMidYMid meet" version="1.0"><defs><g/><clipPath id="8060c67e17"><path d="M 0 0.0585938 L 224.761719 0.0585938 L 224.761719 224.9375 L 0 224.9375 Z M 0 0.0585938 " clip-rule="nonzero"/></clipPath><clipPath id="9bcbbe2c62"><path d="M 29.097656 25.476562 L 202.253906 25.476562 L 202.253906 198.636719 L 29.097656 198.636719 Z M 29.097656 25.476562 " clip-rule="nonzero"/></clipPath><clipPath id="d15081df88"><path d="M 67.511719 63.089844 L 165.707031 63.089844 L 165.707031 161.289062 L 67.511719 161.289062 Z M 67.511719 63.089844 " clip-rule="nonzero"/></clipPath></defs><g clip-path="url(#8060c67e17)"><path fill="#ffffff" d="M 0 0.0585938 L 224.878906 0.0585938 L 224.878906 224.941406 L 0 224.941406 Z M 0 0.0585938 " fill-opacity="1" fill-rule="nonzero"/><path fill="#ffffff" d="M 0 0.0585938 L 224.878906 0.0585938 L 224.878906 224.941406 L 0 224.941406 Z M 0 0.0585938 " fill-opacity="1" fill-rule="nonzero"/></g><g clip-path="url(#9bcbbe2c62)"><path fill="#38b6ff" d="M 202.382812 112.121094 C 202.382812 113.539062 202.347656 114.957031 202.277344 116.375 C 202.207031 117.789062 202.105469 119.203125 201.964844 120.613281 C 201.824219 122.027344 201.652344 123.433594 201.445312 124.835938 C 201.238281 126.238281 200.992188 127.632812 200.71875 129.023438 C 200.441406 130.414062 200.128906 131.796875 199.785156 133.175781 C 199.441406 134.550781 199.0625 135.914062 198.652344 137.273438 C 198.238281 138.628906 197.796875 139.976562 197.316406 141.3125 C 196.839844 142.644531 196.328125 143.96875 195.785156 145.277344 C 195.246094 146.589844 194.667969 147.882812 194.0625 149.167969 C 193.457031 150.449219 192.820312 151.714844 192.152344 152.964844 C 191.484375 154.214844 190.785156 155.449219 190.054688 156.664062 C 189.328125 157.882812 188.566406 159.078125 187.78125 160.257812 C 186.992188 161.4375 186.175781 162.597656 185.332031 163.734375 C 184.488281 164.875 183.613281 165.992188 182.714844 167.085938 C 181.816406 168.183594 180.890625 169.257812 179.9375 170.308594 C 178.984375 171.359375 178.007812 172.386719 177.003906 173.386719 C 176.003906 174.390625 174.976562 175.367188 173.925781 176.320312 C 172.875 177.273438 171.800781 178.199219 170.703125 179.097656 C 169.609375 179.996094 168.492188 180.871094 167.351562 181.714844 C 166.214844 182.558594 165.054688 183.375 163.875 184.164062 C 162.695312 184.949219 161.5 185.710938 160.28125 186.4375 C 159.066406 187.167969 157.832031 187.867188 156.582031 188.535156 C 155.332031 189.203125 154.066406 189.839844 152.785156 190.445312 C 151.5 191.050781 150.207031 191.625 148.894531 192.167969 C 147.585938 192.710938 146.261719 193.222656 144.929688 193.699219 C 143.59375 194.179688 142.246094 194.621094 140.890625 195.035156 C 139.535156 195.445312 138.167969 195.824219 136.792969 196.167969 C 135.417969 196.511719 134.03125 196.824219 132.640625 197.101562 C 131.25 197.375 129.855469 197.617188 128.453125 197.828125 C 127.050781 198.035156 125.644531 198.207031 124.230469 198.347656 C 122.820312 198.488281 121.40625 198.589844 119.992188 198.660156 C 118.574219 198.730469 117.15625 198.765625 115.738281 198.765625 C 114.320312 198.765625 112.902344 198.730469 111.488281 198.660156 C 110.070312 198.589844 108.65625 198.488281 107.246094 198.347656 C 105.835938 198.207031 104.429688 198.035156 103.027344 197.828125 C 101.625 197.617188 100.226562 197.375 98.835938 197.101562 C 97.445312 196.824219 96.0625 196.511719 94.6875 196.167969 C 93.3125 195.824219 91.945312 195.445312 90.585938 195.035156 C 89.230469 194.621094 87.886719 194.179688 86.550781 193.699219 C 85.214844 193.222656 83.890625 192.710938 82.582031 192.167969 C 81.273438 191.625 79.976562 191.050781 78.695312 190.445312 C 77.414062 189.839844 76.144531 189.203125 74.894531 188.535156 C 73.644531 187.867188 72.410156 187.167969 71.195312 186.4375 C 69.980469 185.710938 68.78125 184.949219 67.601562 184.164062 C 66.421875 183.375 65.265625 182.558594 64.125 181.714844 C 62.988281 180.871094 61.871094 179.996094 60.773438 179.097656 C 59.675781 178.199219 58.605469 177.273438 57.554688 176.320312 C 56.503906 175.367188 55.476562 174.390625 54.472656 173.386719 C 53.46875 172.386719 52.492188 171.359375 51.539062 170.308594 C 50.589844 169.257812 49.664062 168.183594 48.761719 167.085938 C 47.863281 165.992188 46.992188 164.875 46.148438 163.734375 C 45.300781 162.597656 44.484375 161.4375 43.699219 160.257812 C 42.910156 159.078125 42.152344 157.882812 41.421875 156.664062 C 40.695312 155.449219 39.996094 154.214844 39.328125 152.964844 C 38.65625 151.714844 38.019531 150.449219 37.414062 149.167969 C 36.808594 147.882812 36.234375 146.589844 35.691406 145.277344 C 35.148438 143.96875 34.636719 142.644531 34.160156 141.3125 C 33.683594 139.976562 33.238281 138.628906 32.828125 137.273438 C 32.414062 135.914062 32.035156 134.550781 31.691406 133.175781 C 31.347656 131.796875 31.039062 130.414062 30.761719 129.023438 C 30.484375 127.632812 30.242188 126.238281 30.035156 124.835938 C 29.824219 123.433594 29.652344 122.023438 29.511719 120.613281 C 29.375 119.203125 29.269531 117.789062 29.199219 116.375 C 29.128906 114.957031 29.097656 113.539062 29.097656 112.121094 C 29.097656 110.703125 29.128906 109.285156 29.199219 107.871094 C 29.269531 106.453125 29.375 105.039062 29.511719 103.628906 C 29.652344 102.21875 29.824219 100.8125 30.035156 99.410156 C 30.242188 98.007812 30.484375 96.609375 30.761719 95.21875 C 31.039062 93.828125 31.347656 92.445312 31.691406 91.070312 C 32.035156 89.695312 32.414062 88.328125 32.828125 86.96875 C 33.238281 85.613281 33.683594 84.269531 34.160156 82.933594 C 34.636719 81.597656 35.148438 80.273438 35.691406 78.964844 C 36.234375 77.65625 36.808594 76.359375 37.414062 75.078125 C 38.019531 73.796875 38.65625 72.527344 39.328125 71.277344 C 39.996094 70.027344 40.695312 68.792969 41.421875 67.578125 C 42.152344 66.363281 42.910156 65.164062 43.699219 63.984375 C 44.484375 62.804688 45.300781 61.648438 46.148438 60.507812 C 46.992188 59.371094 47.863281 58.253906 48.761719 57.15625 C 49.664062 56.058594 50.589844 54.988281 51.539062 53.9375 C 52.492188 52.886719 53.46875 51.859375 54.472656 50.855469 C 55.476562 49.851562 56.503906 48.875 57.554688 47.921875 C 58.605469 46.972656 59.675781 46.046875 60.773438 45.144531 C 61.871094 44.246094 62.988281 43.375 64.125 42.527344 C 65.265625 41.683594 66.421875 40.867188 67.601562 40.082031 C 68.78125 39.292969 69.980469 38.535156 71.195312 37.804688 C 72.410156 37.078125 73.644531 36.378906 74.894531 35.710938 C 76.144531 35.039062 77.414062 34.402344 78.695312 33.796875 C 79.976562 33.191406 81.273438 32.617188 82.582031 32.074219 C 83.890625 31.53125 85.214844 31.019531 86.550781 30.542969 C 87.886719 30.066406 89.230469 29.621094 90.585938 29.210938 C 91.945312 28.796875 93.3125 28.417969 94.6875 28.074219 C 96.0625 27.730469 97.445312 27.421875 98.835938 27.144531 C 100.226562 26.867188 101.625 26.625 103.027344 26.417969 C 104.429688 26.207031 105.835938 26.035156 107.246094 25.894531 C 108.65625 25.757812 110.070312 25.652344 111.488281 25.582031 C 112.902344 25.511719 114.320312 25.476562 115.738281 25.476562 C 117.15625 25.476562 118.574219 25.511719 119.992188 25.582031 C 121.40625 25.652344 122.820312 25.757812 124.230469 25.894531 C 125.644531 26.035156 127.050781 26.207031 128.453125 26.417969 C 129.855469 26.625 131.25 26.867188 132.640625 27.144531 C 134.03125 27.421875 135.417969 27.730469 136.792969 28.074219 C 138.167969 28.417969 139.535156 28.796875 140.890625 29.210938 C 142.246094 29.621094 143.59375 30.066406 144.929688 30.542969 C 146.261719 31.019531 147.585938 31.53125 148.894531 32.074219 C 150.207031 32.617188 151.503906 33.191406 152.785156 33.796875 C 154.066406 34.402344 155.332031 35.039062 156.582031 35.710938 C 157.832031 36.378906 159.066406 37.078125 160.28125 37.804688 C 161.5 38.535156 162.695312 39.292969 163.875 40.082031 C 165.054688 40.867188 166.214844 41.683594 167.351562 42.527344 C 168.492188 43.375 169.609375 44.246094 170.703125 45.144531 C 171.800781 46.046875 172.875 46.972656 173.925781 47.921875 C 174.976562 48.875 176.003906 49.851562 177.003906 50.855469 C 178.007812 51.859375 178.984375 52.886719 179.9375 53.9375 C 180.890625 54.988281 181.816406 56.058594 182.714844 57.15625 C 183.613281 58.253906 184.488281 59.371094 185.332031 60.507812 C 186.175781 61.648438 186.992188 62.804688 187.78125 63.984375 C 188.566406 65.164062 189.328125 66.363281 190.054688 67.578125 C 190.785156 68.792969 191.484375 70.027344 192.152344 71.277344 C 192.820312 72.527344 193.457031 73.796875 194.0625 75.078125 C 194.667969 76.359375 195.246094 77.65625 195.785156 78.964844 C 196.328125 80.273438 196.839844 81.597656 197.316406 82.933594 C 197.796875 84.269531 198.238281 85.613281 198.652344 86.96875 C 199.0625 88.328125 199.441406 89.695312 199.785156 91.070312 C 200.128906 92.445312 200.441406 93.828125 200.71875 95.21875 C 200.992188 96.609375 201.238281 98.007812 201.445312 99.410156 C 201.652344 100.8125 201.824219 102.21875 201.964844 103.628906 C 202.105469 105.039062 202.207031 106.453125 202.277344 107.871094 C 202.347656 109.285156 202.382812 110.703125 202.382812 112.121094 Z M 202.382812 112.121094 " fill-opacity="1" fill-rule="nonzero"/></g><g clip-path="url(#d15081df88)"><path fill="#000000" d="M 165.578125 112.125 C 165.578125 113.730469 165.5 115.332031 165.34375 116.933594 C 165.1875 118.53125 164.949219 120.117188 164.636719 121.691406 C 164.324219 123.265625 163.933594 124.824219 163.46875 126.359375 C 163.003906 127.898438 162.460938 129.40625 161.847656 130.890625 C 161.234375 132.375 160.546875 133.824219 159.789062 135.242188 C 159.03125 136.65625 158.207031 138.03125 157.316406 139.367188 C 156.425781 140.703125 155.46875 141.992188 154.449219 143.234375 C 153.429688 144.472656 152.355469 145.664062 151.21875 146.796875 C 150.082031 147.933594 148.894531 149.011719 147.652344 150.03125 C 146.410156 151.046875 145.121094 152.003906 143.789062 152.894531 C 142.453125 153.789062 141.078125 154.613281 139.660156 155.371094 C 138.242188 156.128906 136.792969 156.8125 135.308594 157.425781 C 133.828125 158.042969 132.316406 158.582031 130.78125 159.046875 C 129.242188 159.515625 127.6875 159.90625 126.113281 160.21875 C 124.535156 160.53125 122.949219 160.765625 121.351562 160.925781 C 119.753906 161.082031 118.152344 161.160156 116.546875 161.160156 C 114.941406 161.160156 113.335938 161.082031 111.738281 160.925781 C 110.140625 160.765625 108.554688 160.53125 106.980469 160.21875 C 105.402344 159.90625 103.847656 159.515625 102.3125 159.046875 C 100.773438 158.582031 99.265625 158.042969 97.78125 157.425781 C 96.296875 156.8125 94.847656 156.128906 93.429688 155.371094 C 92.015625 154.613281 90.640625 153.789062 89.304688 152.894531 C 87.96875 152.003906 86.679688 151.046875 85.4375 150.03125 C 84.195312 149.011719 83.007812 147.933594 81.871094 146.796875 C 80.738281 145.664062 79.660156 144.472656 78.640625 143.234375 C 77.621094 141.992188 76.667969 140.703125 75.773438 139.367188 C 74.882812 138.03125 74.058594 136.65625 73.300781 135.242188 C 72.542969 133.824219 71.859375 132.375 71.242188 130.890625 C 70.628906 129.40625 70.089844 127.898438 69.621094 126.359375 C 69.15625 124.824219 68.765625 123.265625 68.453125 121.691406 C 68.140625 120.117188 67.90625 118.53125 67.746094 116.933594 C 67.589844 115.332031 67.511719 113.730469 67.511719 112.125 C 67.511719 110.519531 67.589844 108.917969 67.746094 107.320312 C 67.90625 105.722656 68.140625 104.132812 68.453125 102.558594 C 68.765625 100.984375 69.15625 99.429688 69.621094 97.890625 C 70.089844 96.355469 70.628906 94.84375 71.242188 93.359375 C 71.859375 91.878906 72.542969 90.425781 73.300781 89.011719 C 74.058594 87.59375 74.882812 86.21875 75.773438 84.882812 C 76.667969 83.546875 77.621094 82.261719 78.640625 81.019531 C 79.660156 79.777344 80.738281 78.589844 81.871094 77.453125 C 83.007812 76.316406 84.195312 75.242188 85.4375 74.222656 C 86.679688 73.203125 87.96875 72.246094 89.304688 71.355469 C 90.640625 70.464844 92.015625 69.636719 93.429688 68.882812 C 94.847656 68.125 96.296875 67.4375 97.78125 66.824219 C 99.265625 66.210938 100.773438 65.667969 102.3125 65.203125 C 103.847656 64.738281 105.402344 64.347656 106.980469 64.035156 C 108.554688 63.71875 110.140625 63.484375 111.738281 63.328125 C 113.335938 63.171875 114.941406 63.089844 116.546875 63.089844 C 118.152344 63.089844 119.753906 63.171875 121.351562 63.328125 C 122.949219 63.484375 124.535156 63.71875 126.113281 64.035156 C 127.6875 64.347656 129.242188 64.738281 130.78125 65.203125 C 132.316406 65.667969 133.828125 66.210938 135.308594 66.824219 C 136.792969 67.4375 138.242188 68.125 139.660156 68.882812 C 141.078125 69.636719 142.453125 70.464844 143.789062 71.355469 C 145.121094 72.246094 146.410156 73.203125 147.652344 74.222656 C 148.894531 75.242188 150.082031 76.316406 151.21875 77.453125 C 152.355469 78.589844 153.429688 79.777344 154.449219 81.019531 C 155.46875 82.261719 156.425781 83.546875 157.316406 84.882812 C 158.207031 86.21875 159.03125 87.59375 159.789062 89.011719 C 160.546875 90.425781 161.234375 91.878906 161.847656 93.359375 C 162.460938 94.84375 163.003906 96.355469 163.46875 97.890625 C 163.933594 99.429688 164.324219 100.984375 164.636719 102.558594 C 164.949219 104.132812 165.1875 105.722656 165.34375 107.320312 C 165.5 108.917969 165.578125 110.519531 165.578125 112.125 Z M 165.578125 112.125 " fill-opacity="1" fill-rule="nonzero"/></g><g fill="#ffffff" fill-opacity="1"><g transform="translate(88.30129, 96.829792)"><g><path d="M 1.980469 -7.988281 L 1.980469 -9.074219 L 0.894531 -9.074219 L 0.894531 -7.988281 Z M 1.980469 0 L 1.980469 -6.519531 L 0.894531 -6.519531 L 0.894531 0 Z M 1.980469 0 "/></g></g></g><g fill="#ffffff" fill-opacity="1"><g transform="translate(91.176053, 96.829792)"><g><path d="M 4.921875 -1.980469 C 4.921875 -3.257812 4.039062 -3.589844 3.207031 -3.78125 L 2.65625 -3.910156 C 2.132812 -4.027344 1.726562 -4.21875 1.726562 -4.703125 C 1.726562 -5.203125 2.019531 -5.496094 2.875 -5.496094 L 4.792969 -5.496094 L 4.792969 -6.519531 L 2.851562 -6.519531 C 1.394531 -6.519531 0.640625 -5.890625 0.640625 -4.613281 C 0.640625 -3.386719 1.457031 -3.066406 2.273438 -2.875 L 2.914062 -2.722656 C 3.425781 -2.59375 3.832031 -2.378906 3.832031 -1.878906 C 3.832031 -1.238281 3.347656 -1.023438 2.621094 -1.023438 L 0.640625 -1.023438 L 0.640625 0 L 2.722656 0 C 4.179688 0 4.921875 -0.550781 4.921875 -1.980469 Z M 4.921875 -1.980469 "/></g></g></g><g fill="#ffffff" fill-opacity="1"><g transform="translate(96.733916, 96.829792)"><g><path d="M 4.921875 -1.980469 C 4.921875 -3.257812 4.039062 -3.589844 3.207031 -3.78125 L 2.65625 -3.910156 C 2.132812 -4.027344 1.726562 -4.21875 1.726562 -4.703125 C 1.726562 -5.203125 2.019531 -5.496094 2.875 -5.496094 L 4.792969 -5.496094 L 4.792969 -6.519531 L 2.851562 -6.519531 C 1.394531 -6.519531 0.640625 -5.890625 0.640625 -4.613281 C 0.640625 -3.386719 1.457031 -3.066406 2.273438 -2.875 L 2.914062 -2.722656 C 3.425781 -2.59375 3.832031 -2.378906 3.832031 -1.878906 C 3.832031 -1.238281 3.347656 -1.023438 2.621094 -1.023438 L 0.640625 -1.023438 L 0.640625 0 L 2.722656 0 C 4.179688 0 4.921875 -0.550781 4.921875 -1.980469 Z M 4.921875 -1.980469 "/></g></g></g><g fill="#ffffff" fill-opacity="1"><g transform="translate(102.29178, 96.829792)"><g><path d="M 5.429688 0 L 5.429688 -6.519531 L 4.34375 -6.519531 L 4.34375 -0.957031 L 3.066406 -0.957031 C 2.289062 -0.957031 1.980469 -1.496094 1.980469 -2.171875 L 1.980469 -6.519531 L 0.894531 -6.519531 L 0.894531 -2.171875 C 0.894531 -0.832031 1.546875 0 2.9375 0 Z M 5.429688 0 "/></g></g></g><g fill="#ffffff" fill-opacity="1"><g transform="translate(108.61625, 96.829792)"><g><path d="M 5.304688 -2.875 L 5.304688 -4.089844 C 5.304688 -5.535156 4.613281 -6.519531 3.167969 -6.519531 L 2.902344 -6.519531 C 1.507812 -6.519531 0.765625 -5.558594 0.765625 -4.089844 L 0.765625 -2.429688 C 0.765625 -0.792969 1.597656 0 3.066406 0 L 4.984375 0 L 4.984375 -0.957031 L 3.195312 -0.957031 C 2.3125 -0.957031 1.851562 -1.558594 1.851562 -2.429688 L 1.851562 -2.875 Z M 4.21875 -3.730469 L 1.851562 -3.730469 L 1.851562 -4.21875 C 1.851562 -4.894531 2.121094 -5.558594 2.902344 -5.558594 L 3.167969 -5.558594 C 3.949219 -5.558594 4.21875 -4.894531 4.21875 -4.21875 Z M 4.21875 -3.730469 "/></g></g></g><g fill="#ffffff" fill-opacity="1"><g transform="translate(114.685188, 96.829792)"><g><path d="M 5.304688 0 L 5.304688 -9.074219 L 4.21875 -9.074219 L 4.21875 -6.519531 L 2.8125 -6.519531 C 1.417969 -6.519531 0.765625 -5.6875 0.765625 -4.34375 L 0.765625 -2.171875 C 0.765625 -0.832031 1.417969 0 2.8125 0 Z M 4.21875 -0.957031 L 2.9375 -0.957031 C 2.160156 -0.957031 1.851562 -1.496094 1.851562 -2.171875 L 1.851562 -4.34375 C 1.851562 -5.023438 2.160156 -5.558594 2.9375 -5.558594 L 4.21875 -5.558594 Z M 4.21875 -0.957031 "/></g></g></g><g fill="#ffffff" fill-opacity="1"><g transform="translate(120.881892, 96.829792)"><g/></g></g><g fill="#ffffff" fill-opacity="1"><g transform="translate(124.97044, 96.829792)"><g><path d="M 3.515625 -8.050781 L 3.515625 -9.074219 L 2.621094 -9.074219 C 1.675781 -9.074219 1.148438 -8.574219 1.148438 -7.476562 L 1.148438 -6.519531 L 0.253906 -6.519531 L 0.253906 -5.558594 L 1.148438 -5.558594 L 1.148438 0 L 2.238281 0 L 2.238281 -5.558594 L 3.386719 -5.558594 L 3.386719 -6.519531 L 2.238281 -6.519531 L 2.238281 -7.4375 C 2.238281 -7.910156 2.453125 -8.050781 2.746094 -8.050781 Z M 3.515625 -8.050781 "/></g></g></g><g fill="#ffffff" fill-opacity="1"><g transform="translate(128.611807, 96.829792)"><g><path d="M 5.304688 -2.171875 L 5.304688 -4.34375 C 5.304688 -5.6875 4.535156 -6.519531 3.195312 -6.519531 L 2.875 -6.519531 C 1.535156 -6.519531 0.765625 -5.6875 0.765625 -4.34375 L 0.765625 -2.171875 C 0.765625 -0.832031 1.535156 0 2.875 0 L 3.195312 0 C 4.535156 0 5.304688 -0.832031 5.304688 -2.171875 Z M 4.21875 -2.171875 C 4.21875 -1.496094 3.820312 -0.957031 3.195312 -0.957031 L 2.875 -0.957031 C 2.25 -0.957031 1.851562 -1.496094 1.851562 -2.171875 L 1.851562 -4.34375 C 1.851562 -5.023438 2.25 -5.558594 2.875 -5.558594 L 3.195312 -5.558594 C 3.820312 -5.558594 4.21875 -5.023438 4.21875 -4.34375 Z M 4.21875 -2.171875 "/></g></g></g><g fill="#ffffff" fill-opacity="1"><g transform="translate(134.680746, 96.829792)"><g><path d="M 3.707031 -5.507812 L 3.707031 -6.519531 L 2.875 -6.519531 C 1.484375 -6.519531 0.832031 -5.6875 0.832031 -4.34375 L 0.832031 0 L 1.917969 0 L 1.917969 -4.34375 C 1.917969 -5.023438 2.222656 -5.507812 3.003906 -5.507812 Z M 3.707031 -5.507812 "/></g></g></g><g fill="#ffffff" fill-opacity="1"><g transform="translate(138.641528, 96.829792)"><g><path d="M 2.109375 -5.175781 L 2.109375 -6.519531 L 0.765625 -6.519531 L 0.765625 -5.175781 Z M 2.109375 0 L 2.109375 -1.34375 L 0.765625 -1.34375 L 0.765625 0 Z M 2.109375 0 "/></g></g></g><g fill="#ffffff" fill-opacity="1"><g transform="translate(94.491961, 114.227924)"><g><path d="M 7.09375 0 L 4.21875 -9.074219 L 3.132812 -9.074219 L 0.253906 0 L 1.40625 0 L 1.957031 -1.789062 L 5.394531 -1.789062 L 5.941406 0 Z M 5.074219 -2.8125 L 2.273438 -2.8125 L 3.679688 -7.324219 Z M 5.074219 -2.8125 "/></g></g></g><g fill="#ffffff" fill-opacity="1"><g transform="translate(101.838567, 114.227924)"><g><path d="M 5.304688 0 L 5.304688 -9.074219 L 4.21875 -9.074219 L 4.21875 -6.519531 L 2.8125 -6.519531 C 1.417969 -6.519531 0.765625 -5.6875 0.765625 -4.34375 L 0.765625 -2.171875 C 0.765625 -0.832031 1.417969 0 2.8125 0 Z M 4.21875 -0.957031 L 2.9375 -0.957031 C 2.160156 -0.957031 1.851562 -1.496094 1.851562 -2.171875 L 1.851562 -4.34375 C 1.851562 -5.023438 2.160156 -5.558594 2.9375 -5.558594 L 4.21875 -5.558594 Z M 4.21875 -0.957031 "/></g></g></g><g fill="#ffffff" fill-opacity="1"><g transform="translate(108.035271, 114.227924)"><g><path d="M 5.113281 0 L 5.113281 -4.28125 C 5.113281 -5.761719 4.484375 -6.519531 2.976562 -6.519531 L 1.085938 -6.519531 L 1.085938 -5.496094 L 2.875 -5.496094 C 3.730469 -5.496094 4.027344 -5.035156 4.027344 -4.28125 L 4.027344 -3.667969 L 2.722656 -3.667969 C 1.328125 -3.667969 0.574219 -3.132812 0.574219 -1.789062 C 0.574219 -0.601562 1.265625 0 2.492188 0 Z M 4.027344 -0.957031 L 2.621094 -0.957031 C 1.980469 -0.957031 1.660156 -1.226562 1.660156 -1.789062 C 1.660156 -2.464844 1.96875 -2.746094 2.746094 -2.746094 L 4.027344 -2.746094 Z M 4.027344 -0.957031 "/></g></g></g><g fill="#ffffff" fill-opacity="1"><g transform="translate(114.040327, 114.227924)"><g><path d="M 5.429688 0 L 3.273438 -3.578125 L 5.304688 -6.519531 L 4.089844 -6.519531 L 2.058594 -3.578125 L 4.21875 0 Z M 1.980469 0 L 1.980469 -9.074219 L 0.894531 -9.074219 L 0.894531 0 Z M 1.980469 0 "/></g></g></g><g fill="#ffffff" fill-opacity="1"><g transform="translate(119.598191, 114.227924)"><g><path d="M 5.304688 -2.171875 L 5.304688 -4.34375 C 5.304688 -5.6875 4.535156 -6.519531 3.195312 -6.519531 L 2.875 -6.519531 C 1.535156 -6.519531 0.765625 -5.6875 0.765625 -4.34375 L 0.765625 -2.171875 C 0.765625 -0.832031 1.535156 0 2.875 0 L 3.195312 0 C 4.535156 0 5.304688 -0.832031 5.304688 -2.171875 Z M 4.21875 -2.171875 C 4.21875 -1.496094 3.820312 -0.957031 3.195312 -0.957031 L 2.875 -0.957031 C 2.25 -0.957031 1.851562 -1.496094 1.851562 -2.171875 L 1.851562 -4.34375 C 1.851562 -5.023438 2.25 -5.558594 2.875 -5.558594 L 3.195312 -5.558594 C 3.820312 -5.558594 4.21875 -5.023438 4.21875 -4.34375 Z M 4.21875 -2.171875 "/></g></g></g><g fill="#ffffff" fill-opacity="1"><g transform="translate(125.667129, 114.227924)"><g><path d="M 8.816406 0 L 8.816406 -4.21875 C 8.816406 -5.625 8.152344 -6.519531 6.683594 -6.519531 L 6.414062 -6.519531 C 5.699219 -6.519531 5.175781 -6.3125 4.832031 -5.929688 C 4.484375 -6.3125 3.949219 -6.519531 3.234375 -6.519531 L 2.964844 -6.519531 C 1.496094 -6.519531 0.832031 -5.625 0.832031 -4.21875 L 0.832031 0 L 1.917969 0 L 1.917969 -4.21875 C 1.917969 -4.894531 2.222656 -5.496094 3.003906 -5.496094 L 3.195312 -5.496094 C 3.972656 -5.496094 4.28125 -4.894531 4.28125 -4.21875 L 4.28125 0 L 5.367188 0 L 5.367188 -4.21875 C 5.367188 -4.894531 5.675781 -5.496094 6.453125 -5.496094 L 6.644531 -5.496094 C 7.425781 -5.496094 7.730469 -4.894531 7.730469 -4.21875 L 7.730469 0 Z M 8.816406 0 "/></g></g></g><g fill="#ffffff" fill-opacity="1"><g transform="translate(99.632318, 131.626056)"><g><path d="M 6.390625 0 L 6.390625 -4.984375 L 3.386719 -4.984375 L 3.386719 -3.960938 L 5.304688 -3.960938 L 5.304688 -1.023438 L 3.578125 -1.023438 C 2.3125 -1.023438 1.851562 -1.957031 1.851562 -2.9375 L 1.851562 -5.878906 C 1.851562 -7.105469 2.414062 -8.050781 3.832031 -8.050781 L 6.132812 -8.050781 L 6.132812 -9.074219 L 3.832031 -9.074219 C 1.738281 -9.074219 0.765625 -7.820312 0.765625 -5.878906 L 0.765625 -2.9375 C 0.765625 -1.238281 1.621094 0 3.578125 0 Z M 6.390625 0 "/></g></g></g><g fill="#ffffff" fill-opacity="1"><g transform="translate(106.915042, 131.626056)"><g><path d="M 8.816406 0 L 8.816406 -4.21875 C 8.816406 -5.625 8.152344 -6.519531 6.683594 -6.519531 L 6.414062 -6.519531 C 5.699219 -6.519531 5.175781 -6.3125 4.832031 -5.929688 C 4.484375 -6.3125 3.949219 -6.519531 3.234375 -6.519531 L 2.964844 -6.519531 C 1.496094 -6.519531 0.832031 -5.625 0.832031 -4.21875 L 0.832031 0 L 1.917969 0 L 1.917969 -4.21875 C 1.917969 -4.894531 2.222656 -5.496094 3.003906 -5.496094 L 3.195312 -5.496094 C 3.972656 -5.496094 4.28125 -4.894531 4.28125 -4.21875 L 4.28125 0 L 5.367188 0 L 5.367188 -4.21875 C 5.367188 -4.894531 5.675781 -5.496094 6.453125 -5.496094 L 6.644531 -5.496094 C 7.425781 -5.496094 7.730469 -4.894531 7.730469 -4.21875 L 7.730469 0 Z M 8.816406 0 "/></g></g></g><g fill="#ffffff" fill-opacity="1"><g transform="translate(116.561453, 131.626056)"><g><path d="M 5.429688 -2.171875 L 5.429688 -4.34375 C 5.429688 -5.6875 4.78125 -6.519531 3.386719 -6.519531 L 1.980469 -6.519531 L 1.980469 -9.074219 L 0.894531 -9.074219 L 0.894531 0 L 3.386719 0 C 4.78125 0 5.429688 -0.832031 5.429688 -2.171875 Z M 4.34375 -2.171875 C 4.34375 -1.496094 4.039062 -0.957031 3.257812 -0.957031 L 1.980469 -0.957031 L 1.980469 -5.558594 L 3.257812 -5.558594 C 4.039062 -5.558594 4.34375 -5.023438 4.34375 -4.34375 Z M 4.34375 -2.171875 "/></g></g></g><g fill="#ffffff" fill-opacity="1"><g transform="translate(122.758157, 131.626056)"><g><path d="M 6.519531 0 L 6.519531 -9.074219 L 5.429688 -9.074219 L 5.429688 -5.113281 L 1.980469 -5.113281 L 1.980469 -9.074219 L 0.894531 -9.074219 L 0.894531 0 L 1.980469 0 L 1.980469 -4.089844 L 5.429688 -4.089844 L 5.429688 0 Z M 6.519531 0 "/></g></g></g><g fill="#ffffff" fill-opacity="1"><g transform="translate(77.432968, 58.64727)"><g><path d="M -2.90625 -8.90625 L -2.625 -9.0625 C -2.332031 -9.238281 -2.078125 -9.441406 -1.859375 -9.671875 C -1.640625 -9.910156 -1.472656 -10.164062 -1.359375 -10.4375 C -1.242188 -10.707031 -1.179688 -10.984375 -1.171875 -11.265625 C -1.171875 -11.554688 -1.234375 -11.84375 -1.359375 -12.125 L -0.453125 -12.671875 L 5.234375 -3.125 L 3.953125 -2.359375 L -0.328125 -9.53125 L -2.515625 -8.234375 Z M -2.90625 -8.90625 "/></g></g></g><g fill="#ffffff" fill-opacity="1"><g transform="translate(84.817922, 54.196219)"><g><path d="M 3.65625 -5.71875 L 1.546875 -10.625 L 0.15625 -4.21875 Z M -0.6875 -2.515625 L -1.171875 -3.65625 L 0.765625 -12.421875 L 2.140625 -13.015625 L 5.015625 -6.3125 L 6.625 -7 L 7.109375 -5.859375 L 5.5 -5.171875 L 6.515625 -2.796875 L 5.15625 -2.203125 L 4.140625 -4.578125 Z M -0.6875 -2.515625 "/></g></g></g><g fill="#ffffff" fill-opacity="1"><g transform="translate(92.893213, 50.830702)"><g><path d="M 1.09375 -2.15625 L 2.59375 -2.625 L 3.109375 -0.96875 L 1.609375 -0.5 Z M 1.09375 -2.15625 "/></g></g></g><g fill="#ffffff" fill-opacity="1"><g transform="translate(97.138698, 49.368662)"><g><path d="M 4.328125 -1.828125 C 4.753906 -1.910156 5.09375 -2.101562 5.34375 -2.40625 C 5.601562 -2.71875 5.785156 -3.09375 5.890625 -3.53125 C 5.992188 -3.976562 6.03125 -4.484375 6 -5.046875 C 5.96875 -5.617188 5.890625 -6.21875 5.765625 -6.84375 C 5.640625 -7.46875 5.476562 -8.046875 5.28125 -8.578125 C 5.09375 -9.109375 4.863281 -9.5625 4.59375 -9.9375 C 4.320312 -10.3125 4.007812 -10.585938 3.65625 -10.765625 C 3.3125 -10.941406 2.925781 -10.988281 2.5 -10.90625 C 2.0625 -10.8125 1.710938 -10.613281 1.453125 -10.3125 C 1.203125 -10.007812 1.023438 -9.632812 0.921875 -9.1875 C 0.816406 -8.738281 0.773438 -8.234375 0.796875 -7.671875 C 0.828125 -7.109375 0.90625 -6.515625 1.03125 -5.890625 C 1.15625 -5.265625 1.316406 -4.679688 1.515625 -4.140625 C 1.710938 -3.609375 1.945312 -3.15625 2.21875 -2.78125 C 2.488281 -2.414062 2.796875 -2.140625 3.140625 -1.953125 C 3.492188 -1.773438 3.890625 -1.734375 4.328125 -1.828125 Z M 4.578125 -0.59375 C 4.429688 -0.5625 4.238281 -0.535156 4 -0.515625 C 3.757812 -0.492188 3.484375 -0.515625 3.171875 -0.578125 C 2.867188 -0.640625 2.546875 -0.757812 2.203125 -0.9375 C 1.867188 -1.113281 1.539062 -1.390625 1.21875 -1.765625 C 0.894531 -2.140625 0.59375 -2.632812 0.3125 -3.25 C 0.03125 -3.875 -0.207031 -4.65625 -0.40625 -5.59375 C -0.59375 -6.519531 -0.675781 -7.320312 -0.65625 -8 C -0.632812 -8.6875 -0.546875 -9.265625 -0.390625 -9.734375 C -0.234375 -10.203125 -0.0390625 -10.585938 0.1875 -10.890625 C 0.425781 -11.191406 0.675781 -11.429688 0.9375 -11.609375 C 1.207031 -11.785156 1.453125 -11.910156 1.671875 -11.984375 C 1.898438 -12.054688 2.085938 -12.109375 2.234375 -12.140625 C 2.367188 -12.160156 2.5625 -12.179688 2.8125 -12.203125 C 3.0625 -12.222656 3.335938 -12.203125 3.640625 -12.140625 C 3.941406 -12.078125 4.265625 -11.957031 4.609375 -11.78125 C 4.953125 -11.601562 5.285156 -11.328125 5.609375 -10.953125 C 5.929688 -10.578125 6.234375 -10.078125 6.515625 -9.453125 C 6.796875 -8.835938 7.03125 -8.066406 7.21875 -7.140625 C 7.414062 -6.203125 7.503906 -5.390625 7.484375 -4.703125 C 7.460938 -4.023438 7.375 -3.453125 7.21875 -2.984375 C 7.0625 -2.515625 6.863281 -2.128906 6.625 -1.828125 C 6.382812 -1.523438 6.132812 -1.285156 5.875 -1.109375 C 5.613281 -0.929688 5.363281 -0.804688 5.125 -0.734375 C 4.894531 -0.660156 4.710938 -0.613281 4.578125 -0.59375 Z M 4.578125 -0.59375 "/></g></g></g><g fill="#ffffff" fill-opacity="1"><g transform="translate(105.581721, 47.617958)"><g><path d="M 2.03125 -3.703125 C 2.050781 -3.359375 2.125 -3.023438 2.25 -2.703125 C 2.375 -2.390625 2.539062 -2.113281 2.75 -1.875 C 2.96875 -1.644531 3.234375 -1.460938 3.546875 -1.328125 C 3.867188 -1.203125 4.242188 -1.148438 4.671875 -1.171875 C 5.078125 -1.203125 5.421875 -1.300781 5.703125 -1.46875 C 5.984375 -1.644531 6.207031 -1.867188 6.375 -2.140625 C 6.550781 -2.410156 6.671875 -2.710938 6.734375 -3.046875 C 6.804688 -3.378906 6.832031 -3.71875 6.8125 -4.0625 C 6.78125 -4.394531 6.707031 -4.710938 6.59375 -5.015625 C 6.488281 -5.316406 6.328125 -5.570312 6.109375 -5.78125 C 5.898438 -6 5.640625 -6.164062 5.328125 -6.28125 C 5.023438 -6.40625 4.679688 -6.453125 4.296875 -6.421875 C 3.515625 -6.367188 2.925781 -6.09375 2.53125 -5.59375 C 2.144531 -5.09375 1.976562 -4.460938 2.03125 -3.703125 Z M 6.40625 -9.125 C 6.289062 -9.5 6.128906 -9.789062 5.921875 -10 C 5.710938 -10.207031 5.5 -10.351562 5.28125 -10.4375 C 5.070312 -10.519531 4.859375 -10.5625 4.640625 -10.5625 C 4.429688 -10.5625 4.273438 -10.5625 4.171875 -10.5625 C 3.585938 -10.519531 3.128906 -10.359375 2.796875 -10.078125 C 2.472656 -9.796875 2.226562 -9.441406 2.0625 -9.015625 C 1.894531 -8.585938 1.796875 -8.128906 1.765625 -7.640625 C 1.734375 -7.160156 1.734375 -6.703125 1.765625 -6.265625 L 1.796875 -6.265625 C 2.097656 -6.734375 2.484375 -7.066406 2.953125 -7.265625 C 3.421875 -7.472656 3.910156 -7.59375 4.421875 -7.625 C 4.929688 -7.65625 5.40625 -7.601562 5.84375 -7.46875 C 6.289062 -7.332031 6.6875 -7.113281 7.03125 -6.8125 C 7.375 -6.519531 7.648438 -6.148438 7.859375 -5.703125 C 8.078125 -5.253906 8.207031 -4.734375 8.25 -4.140625 C 8.28125 -3.578125 8.226562 -3.046875 8.09375 -2.546875 C 7.957031 -2.054688 7.734375 -1.625 7.421875 -1.25 C 7.117188 -0.882812 6.738281 -0.59375 6.28125 -0.375 C 5.820312 -0.15625 5.289062 -0.0234375 4.6875 0.015625 C 4.070312 0.0546875 3.515625 0.00390625 3.015625 -0.140625 C 2.515625 -0.285156 2.078125 -0.566406 1.703125 -0.984375 C 1.328125 -1.398438 1.023438 -1.96875 0.796875 -2.6875 C 0.566406 -3.414062 0.414062 -4.332031 0.34375 -5.4375 C 0.28125 -6.425781 0.304688 -7.269531 0.421875 -7.96875 C 0.535156 -8.664062 0.703125 -9.242188 0.921875 -9.703125 C 1.148438 -10.160156 1.414062 -10.519531 1.71875 -10.78125 C 2.019531 -11.050781 2.316406 -11.253906 2.609375 -11.390625 C 2.910156 -11.523438 3.191406 -11.613281 3.453125 -11.65625 C 3.722656 -11.707031 3.941406 -11.738281 4.109375 -11.75 C 4.265625 -11.757812 4.507812 -11.753906 4.84375 -11.734375 C 5.1875 -11.710938 5.539062 -11.625 5.90625 -11.46875 C 6.28125 -11.320312 6.640625 -11.078125 6.984375 -10.734375 C 7.328125 -10.390625 7.578125 -9.878906 7.734375 -9.203125 Z M 6.40625 -9.125 "/></g></g></g><g fill="#ffffff" fill-opacity="1"><g transform="translate(114.315989, 47.120907)"><g><path d="M 1.75 -1.671875 L 3.3125 -1.625 L 3.25 0.109375 L 1.6875 0.0625 Z M 1.75 -1.671875 "/></g></g></g><g fill="#ffffff" fill-opacity="1"><g transform="translate(118.806197, 47.148555)"><g><path d="M 8.34375 1.15625 L 0.890625 0.125 C 0.984375 -0.53125 1.15625 -1.085938 1.40625 -1.546875 C 1.65625 -2.003906 1.972656 -2.398438 2.359375 -2.734375 C 2.742188 -3.066406 3.1875 -3.359375 3.6875 -3.609375 C 4.195312 -3.859375 4.742188 -4.113281 5.328125 -4.375 C 5.578125 -4.488281 5.84375 -4.609375 6.125 -4.734375 C 6.40625 -4.867188 6.675781 -5.035156 6.9375 -5.234375 C 7.195312 -5.441406 7.421875 -5.6875 7.609375 -5.96875 C 7.796875 -6.25 7.921875 -6.601562 7.984375 -7.03125 C 8.078125 -7.71875 7.945312 -8.269531 7.59375 -8.6875 C 7.238281 -9.101562 6.726562 -9.359375 6.0625 -9.453125 C 5.363281 -9.546875 4.78125 -9.421875 4.3125 -9.078125 C 3.84375 -8.742188 3.5625 -8.242188 3.46875 -7.578125 L 3.421875 -7.171875 L 1.96875 -7.375 L 2.015625 -7.703125 C 2.046875 -7.953125 2.128906 -8.269531 2.265625 -8.65625 C 2.398438 -9.039062 2.625 -9.40625 2.9375 -9.75 C 3.257812 -10.09375 3.6875 -10.363281 4.21875 -10.5625 C 4.757812 -10.757812 5.445312 -10.800781 6.28125 -10.6875 C 6.851562 -10.613281 7.351562 -10.46875 7.78125 -10.25 C 8.207031 -10.03125 8.554688 -9.753906 8.828125 -9.421875 C 9.109375 -9.097656 9.304688 -8.71875 9.421875 -8.28125 C 9.546875 -7.84375 9.570312 -7.359375 9.5 -6.828125 C 9.425781 -6.316406 9.300781 -5.882812 9.125 -5.53125 C 8.945312 -5.1875 8.691406 -4.875 8.359375 -4.59375 C 8.035156 -4.320312 7.625 -4.0625 7.125 -3.8125 C 6.632812 -3.5625 6.039062 -3.285156 5.34375 -2.984375 C 4.539062 -2.609375 3.9375 -2.257812 3.53125 -1.9375 C 3.132812 -1.625 2.859375 -1.269531 2.703125 -0.875 L 8.515625 -0.078125 Z M 8.34375 1.15625 "/></g></g></g><g fill="#ffffff" fill-opacity="1"><g transform="translate(127.352087, 48.296296)"><g><path d="M 4.6875 0.34375 C 5.113281 0.457031 5.507812 0.4375 5.875 0.28125 C 6.238281 0.125 6.566406 -0.125 6.859375 -0.46875 C 7.148438 -0.820312 7.410156 -1.257812 7.640625 -1.78125 C 7.878906 -2.300781 8.082031 -2.867188 8.25 -3.484375 C 8.425781 -4.097656 8.546875 -4.679688 8.609375 -5.234375 C 8.671875 -5.796875 8.664062 -6.304688 8.59375 -6.765625 C 8.53125 -7.222656 8.382812 -7.609375 8.15625 -7.921875 C 7.925781 -8.242188 7.597656 -8.460938 7.171875 -8.578125 C 6.742188 -8.691406 6.347656 -8.671875 5.984375 -8.515625 C 5.617188 -8.367188 5.285156 -8.117188 4.984375 -7.765625 C 4.679688 -7.410156 4.414062 -6.972656 4.1875 -6.453125 C 3.96875 -5.941406 3.769531 -5.378906 3.59375 -4.765625 C 3.425781 -4.148438 3.304688 -3.5625 3.234375 -3 C 3.160156 -2.4375 3.160156 -1.925781 3.234375 -1.46875 C 3.316406 -1.019531 3.472656 -0.632812 3.703125 -0.3125 C 3.929688 0.0078125 4.257812 0.226562 4.6875 0.34375 Z M 4.34375 1.546875 C 4.207031 1.503906 4.023438 1.4375 3.796875 1.34375 C 3.578125 1.257812 3.34375 1.117188 3.09375 0.921875 C 2.84375 0.734375 2.609375 0.484375 2.390625 0.171875 C 2.171875 -0.140625 2 -0.535156 1.875 -1.015625 C 1.757812 -1.503906 1.71875 -2.085938 1.75 -2.765625 C 1.78125 -3.441406 1.921875 -4.242188 2.171875 -5.171875 C 2.429688 -6.085938 2.722656 -6.84375 3.046875 -7.4375 C 3.367188 -8.03125 3.707031 -8.5 4.0625 -8.84375 C 4.414062 -9.195312 4.765625 -9.453125 5.109375 -9.609375 C 5.460938 -9.765625 5.796875 -9.859375 6.109375 -9.890625 C 6.421875 -9.929688 6.695312 -9.9375 6.9375 -9.90625 C 7.175781 -9.875 7.363281 -9.835938 7.5 -9.796875 C 7.632812 -9.753906 7.816406 -9.6875 8.046875 -9.59375 C 8.273438 -9.5 8.507812 -9.351562 8.75 -9.15625 C 9 -8.96875 9.234375 -8.71875 9.453125 -8.40625 C 9.671875 -8.09375 9.835938 -7.691406 9.953125 -7.203125 C 10.078125 -6.722656 10.125 -6.144531 10.09375 -5.46875 C 10.070312 -4.789062 9.929688 -3.992188 9.671875 -3.078125 C 9.421875 -2.148438 9.128906 -1.390625 8.796875 -0.796875 C 8.472656 -0.203125 8.132812 0.265625 7.78125 0.609375 C 7.425781 0.960938 7.070312 1.21875 6.71875 1.375 C 6.375 1.53125 6.046875 1.625 5.734375 1.65625 C 5.429688 1.695312 5.15625 1.695312 4.90625 1.65625 C 4.664062 1.625 4.476562 1.585938 4.34375 1.546875 Z M 4.34375 1.546875 "/></g></g></g><g fill="#ffffff" fill-opacity="1"><g transform="translate(135.669725, 50.569268)"><g><path d="M 7.734375 3.3125 L 0.828125 0.359375 C 1.085938 -0.253906 1.394531 -0.742188 1.75 -1.109375 C 2.113281 -1.484375 2.523438 -1.78125 2.984375 -2 C 3.453125 -2.226562 3.960938 -2.394531 4.515625 -2.5 C 5.066406 -2.613281 5.660156 -2.71875 6.296875 -2.8125 C 6.554688 -2.863281 6.84375 -2.914062 7.15625 -2.96875 C 7.46875 -3.019531 7.773438 -3.101562 8.078125 -3.21875 C 8.378906 -3.34375 8.65625 -3.519531 8.90625 -3.75 C 9.164062 -3.976562 9.378906 -4.285156 9.546875 -4.671875 C 9.816406 -5.316406 9.835938 -5.882812 9.609375 -6.375 C 9.378906 -6.863281 8.957031 -7.242188 8.34375 -7.515625 C 7.6875 -7.785156 7.085938 -7.820312 6.546875 -7.625 C 6.003906 -7.425781 5.601562 -7.019531 5.34375 -6.40625 L 5.1875 -6.03125 L 3.84375 -6.59375 L 3.96875 -6.890625 C 4.070312 -7.117188 4.238281 -7.398438 4.46875 -7.734375 C 4.695312 -8.078125 5.007812 -8.367188 5.40625 -8.609375 C 5.800781 -8.859375 6.285156 -9.007812 6.859375 -9.0625 C 7.429688 -9.125 8.101562 -8.988281 8.875 -8.65625 C 9.40625 -8.4375 9.847656 -8.160156 10.203125 -7.828125 C 10.554688 -7.503906 10.820312 -7.148438 11 -6.765625 C 11.1875 -6.378906 11.28125 -5.957031 11.28125 -5.5 C 11.28125 -5.050781 11.175781 -4.582031 10.96875 -4.09375 C 10.757812 -3.613281 10.519531 -3.226562 10.25 -2.9375 C 9.988281 -2.644531 9.664062 -2.410156 9.28125 -2.234375 C 8.894531 -2.054688 8.429688 -1.910156 7.890625 -1.796875 C 7.347656 -1.691406 6.703125 -1.582031 5.953125 -1.46875 C 5.078125 -1.320312 4.40625 -1.144531 3.9375 -0.9375 C 3.46875 -0.738281 3.101562 -0.472656 2.84375 -0.140625 L 8.21875 2.15625 Z M 7.734375 3.3125 "/></g></g></g><g fill="#ffffff" fill-opacity="1"><g transform="translate(143.611644, 53.92716)"><g><path d="M 7.234375 4.3125 L 0.78125 0.46875 C 1.125 -0.101562 1.492188 -0.550781 1.890625 -0.875 C 2.296875 -1.195312 2.742188 -1.4375 3.234375 -1.59375 C 3.722656 -1.75 4.25 -1.84375 4.8125 -1.875 C 5.375 -1.914062 5.972656 -1.941406 6.609375 -1.953125 C 6.878906 -1.960938 7.171875 -1.972656 7.484375 -1.984375 C 7.796875 -1.992188 8.109375 -2.039062 8.421875 -2.125 C 8.742188 -2.207031 9.046875 -2.34375 9.328125 -2.53125 C 9.609375 -2.726562 9.859375 -3.007812 10.078125 -3.375 C 10.441406 -3.976562 10.535156 -4.535156 10.359375 -5.046875 C 10.191406 -5.566406 9.828125 -6 9.265625 -6.34375 C 8.648438 -6.707031 8.0625 -6.820312 7.5 -6.6875 C 6.9375 -6.5625 6.484375 -6.210938 6.140625 -5.640625 L 5.921875 -5.296875 L 4.6875 -6.03125 L 4.859375 -6.3125 C 4.992188 -6.519531 5.191406 -6.773438 5.453125 -7.078125 C 5.722656 -7.390625 6.066406 -7.640625 6.484375 -7.828125 C 6.910156 -8.015625 7.414062 -8.097656 8 -8.078125 C 8.582031 -8.066406 9.234375 -7.84375 9.953125 -7.40625 C 10.441406 -7.113281 10.835938 -6.785156 11.140625 -6.421875 C 11.453125 -6.054688 11.671875 -5.664062 11.796875 -5.25 C 11.929688 -4.84375 11.96875 -4.410156 11.90625 -3.953125 C 11.84375 -3.503906 11.675781 -3.050781 11.40625 -2.59375 C 11.132812 -2.144531 10.847656 -1.796875 10.546875 -1.546875 C 10.253906 -1.296875 9.90625 -1.109375 9.5 -0.984375 C 9.09375 -0.859375 8.613281 -0.773438 8.0625 -0.734375 C 7.507812 -0.703125 6.851562 -0.679688 6.09375 -0.671875 C 5.195312 -0.640625 4.503906 -0.550781 4.015625 -0.40625 C 3.523438 -0.269531 3.132812 -0.0546875 2.84375 0.234375 L 7.875 3.234375 Z M 7.234375 4.3125 "/></g></g></g><g fill="#ffffff" fill-opacity="1"><g transform="translate(59.300794, 70.85274)"><g><path d="M 4.703125 12.421875 L 3.671875 14.03125 L 2.34375 7.953125 L -5.453125 8.59375 L -4.4375 6.984375 L 2.09375 6.578125 L 1.625 4.25 L -1.453125 2.296875 L -0.6875 1.09375 L 8.28125 6.78125 L 7.515625 7.984375 L 3.078125 5.171875 Z M 4.703125 12.421875 "/></g></g></g><g fill="#ffffff" fill-opacity="1"><g transform="translate(53.612605, 79.98877)"><g><path d="M 1.359375 7.84375 C 1.597656 7.9375 1.867188 8.019531 2.171875 8.09375 C 2.472656 8.164062 2.769531 8.179688 3.0625 8.140625 C 3.351562 8.109375 3.632812 8.003906 3.90625 7.828125 C 4.175781 7.648438 4.398438 7.363281 4.578125 6.96875 C 4.773438 6.53125 4.859375 6.128906 4.828125 5.765625 C 4.804688 5.410156 4.710938 5.097656 4.546875 4.828125 C 4.378906 4.554688 4.171875 4.332031 3.921875 4.15625 C 3.679688 3.976562 3.445312 3.835938 3.21875 3.734375 Z M -1.25 8.140625 C -1.46875 7.972656 -1.6875 7.765625 -1.90625 7.515625 C -2.125 7.265625 -2.289062 6.972656 -2.40625 6.640625 C -2.519531 6.304688 -2.566406 5.921875 -2.546875 5.484375 C -2.523438 5.054688 -2.390625 4.566406 -2.140625 4.015625 C -1.878906 3.429688 -1.578125 2.976562 -1.234375 2.65625 C -0.898438 2.332031 -0.550781 2.09375 -0.1875 1.9375 C 0.164062 1.78125 0.523438 1.695312 0.890625 1.6875 C 1.253906 1.675781 1.582031 1.695312 1.875 1.75 C 2.175781 1.8125 2.445312 1.882812 2.6875 1.96875 C 2.925781 2.050781 3.101562 2.117188 3.21875 2.171875 C 3.375 2.242188 3.570312 2.347656 3.8125 2.484375 C 4.0625 2.617188 4.304688 2.785156 4.546875 2.984375 C 4.796875 3.191406 5.03125 3.429688 5.25 3.703125 C 5.46875 3.984375 5.632812 4.300781 5.75 4.65625 C 5.875 5.019531 5.921875 5.421875 5.890625 5.859375 C 5.859375 6.296875 5.71875 6.789062 5.46875 7.34375 C 5.15625 8.03125 4.78125 8.53125 4.34375 8.84375 C 3.90625 9.15625 3.453125 9.335938 2.984375 9.390625 C 2.515625 9.453125 2.039062 9.421875 1.5625 9.296875 C 1.082031 9.171875 0.644531 9.035156 0.25 8.890625 C 0.207031 8.867188 0.15625 8.84375 0.09375 8.8125 C 0.03125 8.789062 -0.0234375 8.769531 -0.078125 8.75 L 2.375 3.34375 C 2.070312 3.207031 1.742188 3.109375 1.390625 3.046875 C 1.035156 2.992188 0.691406 2.992188 0.359375 3.046875 C 0.0351562 3.097656 -0.269531 3.226562 -0.5625 3.4375 C -0.863281 3.65625 -1.101562 3.960938 -1.28125 4.359375 C -1.414062 4.640625 -1.492188 4.914062 -1.515625 5.1875 C -1.546875 5.457031 -1.53125 5.703125 -1.46875 5.921875 C -1.414062 6.140625 -1.320312 6.332031 -1.1875 6.5 C -1.050781 6.675781 -0.894531 6.832031 -0.71875 6.96875 Z M -1.25 8.140625 "/></g></g></g><g fill="#ffffff" fill-opacity="1"><g transform="translate(49.987239, 88.287373)"><g><path d="M 9.234375 5.796875 L -0.796875 2.28125 L -0.359375 1.03125 L 9.671875 4.546875 Z M 9.234375 5.796875 "/></g></g></g><g fill="#ffffff" fill-opacity="1"><g transform="translate(48.649936, 91.934343)"><g><path d="M 5.984375 7.53125 L 5.625 8.921875 L -1.109375 4.203125 L -0.71875 2.703125 L 7.46875 1.90625 L 7.109375 3.296875 L 0.375 3.78125 Z M 5.984375 7.53125 "/></g></g></g><g fill="#ffffff" fill-opacity="1"><g transform="translate(46.823955, 99.196269)"><g><path d="M 10.265625 2.9375 L 10.03125 4.25 L 8.65625 4 L 8.890625 2.6875 Z M 7.15625 3.734375 L -0.421875 2.359375 L -0.1875 1.046875 L 7.390625 2.421875 Z M 7.15625 3.734375 "/></g></g></g><g fill="#ffffff" fill-opacity="1"><g transform="translate(46.02888, 102.998103)"><g><path d="M 3.671875 2.390625 C 2.898438 2.316406 2.289062 2.359375 1.84375 2.515625 C 1.394531 2.671875 1.054688 2.867188 0.828125 3.109375 C 0.597656 3.347656 0.445312 3.597656 0.375 3.859375 C 0.300781 4.128906 0.257812 4.34375 0.25 4.5 C 0.238281 4.644531 0.242188 4.847656 0.265625 5.109375 C 0.285156 5.378906 0.390625 5.648438 0.578125 5.921875 C 0.765625 6.203125 1.066406 6.457031 1.484375 6.6875 C 1.898438 6.914062 2.492188 7.066406 3.265625 7.140625 C 4.023438 7.203125 4.628906 7.15625 5.078125 7 C 5.523438 6.851562 5.863281 6.660156 6.09375 6.421875 C 6.332031 6.179688 6.484375 5.929688 6.546875 5.671875 C 6.617188 5.410156 6.660156 5.207031 6.671875 5.0625 C 6.679688 4.90625 6.675781 4.691406 6.65625 4.421875 C 6.644531 4.148438 6.539062 3.875 6.34375 3.59375 C 6.15625 3.320312 5.851562 3.066406 5.4375 2.828125 C 5.019531 2.597656 4.429688 2.453125 3.671875 2.390625 Z M 3.78125 1 C 4.289062 1.039062 4.785156 1.144531 5.265625 1.3125 C 5.742188 1.488281 6.164062 1.742188 6.53125 2.078125 C 6.894531 2.410156 7.175781 2.828125 7.375 3.328125 C 7.582031 3.835938 7.65625 4.441406 7.59375 5.140625 C 7.53125 5.828125 7.351562 6.398438 7.0625 6.859375 C 6.78125 7.328125 6.429688 7.691406 6.015625 7.953125 C 5.597656 8.210938 5.140625 8.382812 4.640625 8.46875 C 4.140625 8.5625 3.632812 8.585938 3.125 8.546875 C 2.601562 8.492188 2.101562 8.378906 1.625 8.203125 C 1.144531 8.035156 0.722656 7.785156 0.359375 7.453125 C -0.00390625 7.117188 -0.285156 6.695312 -0.484375 6.1875 C -0.679688 5.6875 -0.75 5.09375 -0.6875 4.40625 C -0.625 3.707031 -0.453125 3.125 -0.171875 2.65625 C 0.109375 2.195312 0.457031 1.835938 0.875 1.578125 C 1.289062 1.316406 1.75 1.140625 2.25 1.046875 C 2.75 0.960938 3.257812 0.945312 3.78125 1 Z M 3.78125 1 "/></g></g></g><g fill="#ffffff" fill-opacity="1"><g transform="translate(45.242329, 112.456784)"><g><path d="M 7.8125 2.09375 L 6.734375 2.140625 C 7.128906 2.390625 7.46875 2.726562 7.75 3.15625 C 8.039062 3.59375 8.203125 4.113281 8.234375 4.71875 C 8.253906 5.226562 8.191406 5.648438 8.046875 5.984375 C 7.898438 6.328125 7.695312 6.597656 7.4375 6.796875 C 7.1875 6.992188 6.890625 7.132812 6.546875 7.21875 C 6.203125 7.3125 5.835938 7.363281 5.453125 7.375 L 0.328125 7.59375 L 0.265625 6.265625 L 4.984375 6.0625 C 5.179688 6.050781 5.414062 6.03125 5.6875 6 C 5.96875 5.976562 6.222656 5.914062 6.453125 5.8125 C 6.691406 5.707031 6.890625 5.539062 7.046875 5.3125 C 7.203125 5.082031 7.273438 4.757812 7.265625 4.34375 C 7.253906 4.164062 7.210938 3.945312 7.140625 3.6875 C 7.078125 3.4375 6.941406 3.195312 6.734375 2.96875 C 6.523438 2.75 6.226562 2.566406 5.84375 2.421875 C 5.457031 2.273438 4.945312 2.21875 4.3125 2.25 L 0.109375 2.421875 L 0.046875 1.09375 L 7.75 0.765625 Z M 7.8125 2.09375 "/></g></g></g><g fill="#ffffff" fill-opacity="1"><g transform="translate(45.763, 121.546301)"><g/></g></g><g fill="#ffffff" fill-opacity="1"><g transform="translate(46.130229, 125.567821)"><g><path d="M 5.84375 9.09375 C 5.457031 9.144531 5.03125 9.144531 4.5625 9.09375 C 4.09375 9.050781 3.628906 8.910156 3.171875 8.671875 C 2.710938 8.429688 2.296875 8.070312 1.921875 7.59375 C 1.546875 7.125 1.257812 6.476562 1.0625 5.65625 C 0.875 4.882812 0.820312 4.164062 0.90625 3.5 C 0.988281 2.832031 1.207031 2.226562 1.5625 1.6875 C 1.925781 1.15625 2.40625 0.703125 3 0.328125 C 3.601562 -0.046875 4.316406 -0.335938 5.140625 -0.546875 C 6.046875 -0.765625 6.84375 -0.847656 7.53125 -0.796875 C 8.226562 -0.753906 8.816406 -0.628906 9.296875 -0.421875 C 9.785156 -0.210938 10.195312 0.0507812 10.53125 0.375 C 10.863281 0.695312 11.128906 1.019531 11.328125 1.34375 C 11.523438 1.675781 11.671875 1.988281 11.765625 2.28125 C 11.867188 2.570312 11.9375 2.789062 11.96875 2.9375 C 12.175781 3.757812 12.234375 4.460938 12.140625 5.046875 C 12.046875 5.628906 11.867188 6.125 11.609375 6.53125 C 11.347656 6.9375 11.03125 7.257812 10.65625 7.5 C 10.289062 7.738281 9.914062 7.929688 9.53125 8.078125 L 9.1875 6.671875 C 9.363281 6.597656 9.578125 6.488281 9.828125 6.34375 C 10.078125 6.207031 10.296875 6.003906 10.484375 5.734375 C 10.671875 5.472656 10.804688 5.132812 10.890625 4.71875 C 10.972656 4.300781 10.941406 3.800781 10.796875 3.21875 C 10.640625 2.5625 10.382812 2.050781 10.03125 1.6875 C 9.6875 1.320312 9.273438 1.054688 8.796875 0.890625 C 8.316406 0.734375 7.796875 0.660156 7.234375 0.671875 C 6.671875 0.691406 6.113281 0.769531 5.5625 0.90625 C 4.957031 1.050781 4.421875 1.265625 3.953125 1.546875 C 3.484375 1.828125 3.097656 2.164062 2.796875 2.5625 C 2.492188 2.957031 2.285156 3.394531 2.171875 3.875 C 2.066406 4.363281 2.082031 4.878906 2.21875 5.421875 C 2.320312 5.835938 2.484375 6.203125 2.703125 6.515625 C 2.921875 6.835938 3.171875 7.097656 3.453125 7.296875 C 3.742188 7.492188 4.0625 7.628906 4.40625 7.703125 C 4.757812 7.773438 5.125 7.78125 5.5 7.71875 Z M 5.84375 9.09375 "/></g></g></g><g fill="#ffffff" fill-opacity="1"><g transform="translate(48.966647, 136.678763)"><g><path d="M 6.609375 4.421875 C 6.847656 4.316406 7.097656 4.179688 7.359375 4.015625 C 7.617188 3.847656 7.835938 3.644531 8.015625 3.40625 C 8.203125 3.164062 8.320312 2.882812 8.375 2.5625 C 8.425781 2.238281 8.375 1.878906 8.21875 1.484375 C 8.03125 1.035156 7.796875 0.695312 7.515625 0.46875 C 7.242188 0.25 6.953125 0.101562 6.640625 0.03125 C 6.328125 -0.03125 6.019531 -0.0351562 5.71875 0.015625 C 5.414062 0.0664062 5.148438 0.140625 4.921875 0.234375 Z M 5.046875 6.515625 C 4.773438 6.566406 4.472656 6.582031 4.140625 6.5625 C 3.804688 6.550781 3.472656 6.472656 3.140625 6.328125 C 2.816406 6.179688 2.503906 5.953125 2.203125 5.640625 C 1.898438 5.328125 1.640625 4.890625 1.421875 4.328125 C 1.179688 3.734375 1.0625 3.203125 1.0625 2.734375 C 1.0625 2.265625 1.128906 1.84375 1.265625 1.46875 C 1.398438 1.101562 1.585938 0.785156 1.828125 0.515625 C 2.066406 0.253906 2.3125 0.0351562 2.5625 -0.140625 C 2.820312 -0.328125 3.0625 -0.472656 3.28125 -0.578125 C 3.507812 -0.691406 3.679688 -0.773438 3.796875 -0.828125 C 3.953125 -0.890625 4.160156 -0.960938 4.421875 -1.046875 C 4.691406 -1.128906 4.984375 -1.191406 5.296875 -1.234375 C 5.617188 -1.273438 5.953125 -1.28125 6.296875 -1.25 C 6.648438 -1.21875 7 -1.117188 7.34375 -0.953125 C 7.6875 -0.796875 8.003906 -0.550781 8.296875 -0.21875 C 8.597656 0.101562 8.863281 0.539062 9.09375 1.09375 C 9.375 1.800781 9.472656 2.421875 9.390625 2.953125 C 9.316406 3.492188 9.140625 3.945312 8.859375 4.3125 C 8.578125 4.6875 8.226562 5.003906 7.8125 5.265625 C 7.394531 5.535156 7 5.757812 6.625 5.9375 C 6.570312 5.957031 6.515625 5.984375 6.453125 6.015625 C 6.390625 6.046875 6.332031 6.070312 6.28125 6.09375 L 4.0625 0.578125 C 3.75 0.703125 3.453125 0.875 3.171875 1.09375 C 2.890625 1.3125 2.65625 1.5625 2.46875 1.84375 C 2.28125 2.125 2.160156 2.441406 2.109375 2.796875 C 2.054688 3.148438 2.113281 3.53125 2.28125 3.9375 C 2.394531 4.226562 2.535156 4.472656 2.703125 4.671875 C 2.878906 4.878906 3.066406 5.035156 3.265625 5.140625 C 3.472656 5.253906 3.679688 5.320312 3.890625 5.34375 C 4.109375 5.363281 4.332031 5.359375 4.5625 5.328125 Z M 5.046875 6.515625 "/></g></g></g><g fill="#ffffff" fill-opacity="1"><g transform="translate(52.456382, 145.235083)"><g><path d="M 7.90625 -1.65625 L 6.96875 -1.140625 C 7.4375 -1.085938 7.894531 -0.929688 8.34375 -0.671875 C 8.789062 -0.421875 9.164062 -0.03125 9.46875 0.5 C 9.71875 0.9375 9.851562 1.335938 9.875 1.703125 C 9.894531 2.066406 9.835938 2.394531 9.703125 2.6875 C 9.566406 2.988281 9.363281 3.253906 9.09375 3.484375 C 8.820312 3.710938 8.519531 3.921875 8.1875 4.109375 L 3.71875 6.625 L 3.0625 5.46875 L 7.171875 3.15625 C 7.347656 3.0625 7.550781 2.9375 7.78125 2.78125 C 8.019531 2.632812 8.21875 2.457031 8.375 2.25 C 8.539062 2.050781 8.640625 1.816406 8.671875 1.546875 C 8.710938 1.273438 8.628906 0.957031 8.421875 0.59375 C 8.335938 0.4375 8.207031 0.257812 8.03125 0.0625 C 7.863281 -0.132812 7.632812 -0.285156 7.34375 -0.390625 C 7.050781 -0.492188 6.703125 -0.523438 6.296875 -0.484375 C 5.890625 -0.441406 5.410156 -0.265625 4.859375 0.046875 L 1.1875 2.109375 L 0.53125 0.953125 L 7.25 -2.8125 Z M 7.90625 -1.65625 "/></g></g></g><g fill="#ffffff" fill-opacity="1"><g transform="translate(57.038376, 153.156813)"><g><path d="M 7.21875 -3.125 L 9.109375 -4.453125 L 9.875 -3.375 L 7.984375 -2.046875 L 8.921875 -0.703125 L 8.140625 -0.171875 L 7.203125 -1.515625 L 3.1875 1.3125 C 3.082031 1.382812 2.976562 1.457031 2.875 1.53125 C 2.769531 1.613281 2.691406 1.703125 2.640625 1.796875 C 2.585938 1.890625 2.566406 2 2.578125 2.125 C 2.597656 2.257812 2.671875 2.414062 2.796875 2.59375 C 2.867188 2.695312 2.957031 2.800781 3.0625 2.90625 C 3.164062 3.007812 3.269531 3.101562 3.375 3.1875 L 2.609375 3.71875 C 2.421875 3.601562 2.234375 3.457031 2.046875 3.28125 C 1.859375 3.113281 1.695312 2.9375 1.5625 2.75 C 1.332031 2.425781 1.203125 2.140625 1.171875 1.890625 C 1.148438 1.648438 1.191406 1.4375 1.296875 1.25 C 1.398438 1.0625 1.535156 0.894531 1.703125 0.75 C 1.878906 0.613281 2.046875 0.488281 2.203125 0.375 L 6.4375 -2.59375 L 5.640625 -3.71875 L 6.421875 -4.25 Z M 7.21875 -3.125 "/></g></g></g><g fill="#ffffff" fill-opacity="1"><g transform="translate(60.030441, 157.420808)"><g><path d="M 8.890625 -0.3125 C 8.585938 -0.664062 8.285156 -0.941406 7.984375 -1.140625 C 7.679688 -1.347656 7.367188 -1.476562 7.046875 -1.53125 C 6.722656 -1.59375 6.382812 -1.570312 6.03125 -1.46875 C 5.6875 -1.363281 5.316406 -1.175781 4.921875 -0.90625 C 4.804688 -0.8125 4.695312 -0.722656 4.59375 -0.640625 C 4.5 -0.554688 4.394531 -0.46875 4.28125 -0.375 L 1.546875 1.875 L 0.703125 0.84375 L 6.640625 -4.0625 L 7.484375 -3.03125 L 6.34375 -2.078125 L 6.359375 -2.0625 C 6.640625 -2.164062 6.914062 -2.21875 7.1875 -2.21875 C 7.46875 -2.226562 7.738281 -2.191406 8 -2.109375 C 8.257812 -2.023438 8.503906 -1.90625 8.734375 -1.75 C 8.960938 -1.601562 9.171875 -1.429688 9.359375 -1.234375 L 9.625 -0.921875 Z M 8.890625 -0.3125 "/></g></g></g><g fill="#ffffff" fill-opacity="1"><g transform="translate(63.858632, 162.142765)"><g><path d="M 6.921875 1.28125 C 6.796875 1.257812 6.679688 1.222656 6.578125 1.171875 C 6.472656 1.128906 6.367188 1.066406 6.265625 0.984375 C 6.160156 0.910156 6.039062 0.816406 5.90625 0.703125 C 5.769531 0.597656 5.617188 0.488281 5.453125 0.375 C 5.210938 0.195312 4.976562 0.03125 4.75 -0.125 C 4.53125 -0.28125 4.316406 -0.394531 4.109375 -0.46875 C 3.898438 -0.539062 3.6875 -0.550781 3.46875 -0.5 C 3.25 -0.457031 3.035156 -0.328125 2.828125 -0.109375 C 2.503906 0.210938 2.359375 0.5625 2.390625 0.9375 C 2.421875 1.3125 2.585938 1.648438 2.890625 1.953125 C 3.085938 2.140625 3.304688 2.300781 3.546875 2.4375 C 3.785156 2.570312 4.050781 2.648438 4.34375 2.671875 C 4.644531 2.691406 4.972656 2.628906 5.328125 2.484375 C 5.679688 2.347656 6.054688 2.097656 6.453125 1.734375 Z M 4.40625 -3.296875 C 4.582031 -3.472656 4.804688 -3.632812 5.078125 -3.78125 C 5.359375 -3.9375 5.675781 -4.023438 6.03125 -4.046875 C 6.382812 -4.066406 6.769531 -3.984375 7.1875 -3.796875 C 7.613281 -3.617188 8.066406 -3.289062 8.546875 -2.8125 C 8.773438 -2.59375 8.992188 -2.335938 9.203125 -2.046875 C 9.421875 -1.753906 9.570312 -1.4375 9.65625 -1.09375 C 9.75 -0.75 9.75 -0.382812 9.65625 0 C 9.5625 0.382812 9.316406 0.773438 8.921875 1.171875 L 6.34375 3.671875 C 6.238281 3.773438 6.148438 3.867188 6.078125 3.953125 C 6.003906 4.035156 5.957031 4.117188 5.9375 4.203125 C 5.914062 4.296875 5.925781 4.394531 5.96875 4.5 C 6.019531 4.613281 6.125 4.738281 6.28125 4.875 L 5.625 5.546875 C 5.550781 5.492188 5.476562 5.441406 5.40625 5.390625 C 5.34375 5.347656 5.257812 5.273438 5.15625 5.171875 C 5.03125 5.046875 4.914062 4.914062 4.8125 4.78125 C 4.71875 4.644531 4.65625 4.507812 4.625 4.375 C 4.601562 4.25 4.617188 4.109375 4.671875 3.953125 C 4.722656 3.796875 4.820312 3.613281 4.96875 3.40625 C 4.707031 3.476562 4.441406 3.503906 4.171875 3.484375 C 3.910156 3.472656 3.660156 3.425781 3.421875 3.34375 C 3.179688 3.269531 2.953125 3.160156 2.734375 3.015625 C 2.515625 2.867188 2.316406 2.703125 2.140625 2.515625 C 1.554688 1.953125 1.210938 1.363281 1.109375 0.75 C 1.015625 0.132812 1.253906 -0.460938 1.828125 -1.046875 C 2.054688 -1.285156 2.296875 -1.460938 2.546875 -1.578125 C 2.804688 -1.703125 3.109375 -1.738281 3.453125 -1.6875 C 3.804688 -1.632812 4.207031 -1.488281 4.65625 -1.25 C 5.101562 -1.007812 5.625 -0.632812 6.21875 -0.125 C 6.425781 0.0625 6.609375 0.210938 6.765625 0.328125 C 6.921875 0.453125 7.0625 0.523438 7.1875 0.546875 C 7.3125 0.578125 7.4375 0.566406 7.5625 0.515625 C 7.695312 0.460938 7.851562 0.347656 8.03125 0.171875 C 8.09375 0.0976562 8.175781 0 8.28125 -0.125 C 8.394531 -0.257812 8.472656 -0.425781 8.515625 -0.625 C 8.554688 -0.832031 8.535156 -1.0625 8.453125 -1.3125 C 8.378906 -1.570312 8.1875 -1.847656 7.875 -2.140625 C 7.789062 -2.234375 7.660156 -2.351562 7.484375 -2.5 C 7.316406 -2.644531 7.113281 -2.753906 6.875 -2.828125 C 6.644531 -2.910156 6.394531 -2.929688 6.125 -2.890625 C 5.851562 -2.847656 5.582031 -2.679688 5.3125 -2.390625 Z M 4.40625 -3.296875 "/></g></g></g><g fill="#ffffff" fill-opacity="1"><g transform="translate(70.208037, 168.222343)"><g><path d="M 8.640625 -6.65625 L 1.875 1.546875 L 0.84375 0.703125 L 7.609375 -7.5 Z M 8.640625 -6.65625 "/></g></g></g><g fill="#ffffff" fill-opacity="1"><g transform="translate(73.111131, 170.60801)"><g/></g></g><g fill="#ffffff" fill-opacity="1"><g transform="translate(76.237427, 173.068906)"><g><path d="M 10.234375 -0.921875 L 9.625 0.09375 L 4.859375 -2.78125 L 2.953125 0.375 L 8.359375 3.625 L 7.734375 4.65625 L 1.109375 0.671875 L 6.59375 -8.421875 L 13.078125 -4.515625 L 12.453125 -3.484375 L 7.1875 -6.65625 L 5.46875 -3.796875 Z M 10.234375 -0.921875 "/></g></g></g><g fill="#ffffff" fill-opacity="1"><g transform="translate(84.747404, 178.128493)"><g><path d="M 5.75 2.5 L 6.1875 1.5 L 6.15625 1.484375 C 5.851562 1.710938 5.535156 1.859375 5.203125 1.921875 C 4.878906 1.984375 4.582031 2.003906 4.3125 1.984375 C 4.039062 1.972656 3.800781 1.929688 3.59375 1.859375 C 3.394531 1.785156 3.265625 1.734375 3.203125 1.703125 C 2.679688 1.484375 2.304688 1.21875 2.078125 0.90625 C 1.847656 0.601562 1.707031 0.285156 1.65625 -0.046875 C 1.613281 -0.390625 1.632812 -0.722656 1.71875 -1.046875 C 1.8125 -1.378906 1.914062 -1.675781 2.03125 -1.9375 L 4.0625 -6.625 L 5.28125 -6.09375 L 3.40625 -1.765625 C 3.21875 -1.328125 3.097656 -0.953125 3.046875 -0.640625 C 3.003906 -0.328125 3.015625 -0.0625 3.078125 0.15625 C 3.140625 0.375 3.242188 0.546875 3.390625 0.671875 C 3.546875 0.804688 3.738281 0.921875 3.96875 1.015625 C 4.476562 1.242188 4.921875 1.304688 5.296875 1.203125 C 5.671875 1.097656 5.984375 0.921875 6.234375 0.671875 C 6.492188 0.421875 6.695312 0.160156 6.84375 -0.109375 C 6.988281 -0.390625 7.085938 -0.585938 7.140625 -0.703125 L 8.8125 -4.5625 L 10.03125 -4.046875 L 6.96875 3.015625 Z M 5.75 2.5 "/></g></g></g><g fill="#ffffff" fill-opacity="1"><g transform="translate(93.207874, 181.683062)"><g><path d="M 7.265625 -5.125 C 6.828125 -5.25 6.425781 -5.3125 6.0625 -5.3125 C 5.695312 -5.320312 5.363281 -5.257812 5.0625 -5.125 C 4.757812 -5 4.488281 -4.796875 4.25 -4.515625 C 4.007812 -4.242188 3.804688 -3.882812 3.640625 -3.4375 C 3.585938 -3.3125 3.539062 -3.179688 3.5 -3.046875 C 3.457031 -2.929688 3.414062 -2.804688 3.375 -2.671875 L 2.3125 0.71875 L 1.046875 0.328125 L 3.34375 -7.015625 L 4.609375 -6.625 L 4.171875 -5.21875 L 4.203125 -5.203125 C 4.367188 -5.441406 4.570312 -5.640625 4.8125 -5.796875 C 5.050781 -5.953125 5.300781 -6.0625 5.5625 -6.125 C 5.820312 -6.195312 6.085938 -6.234375 6.359375 -6.234375 C 6.640625 -6.242188 6.90625 -6.210938 7.15625 -6.140625 L 7.546875 -6.046875 Z M 7.265625 -5.125 "/></g></g></g><g fill="#ffffff" fill-opacity="1"><g transform="translate(99.007031, 183.564873)"><g><path d="M 2.765625 -3.390625 C 2.617188 -2.640625 2.597656 -2.03125 2.703125 -1.5625 C 2.816406 -1.09375 2.976562 -0.726562 3.1875 -0.46875 C 3.40625 -0.21875 3.640625 -0.046875 3.890625 0.046875 C 4.140625 0.148438 4.34375 0.21875 4.5 0.25 C 4.632812 0.269531 4.835938 0.28125 5.109375 0.28125 C 5.378906 0.289062 5.660156 0.21875 5.953125 0.0625 C 6.253906 -0.0820312 6.539062 -0.351562 6.8125 -0.75 C 7.09375 -1.144531 7.304688 -1.71875 7.453125 -2.46875 C 7.609375 -3.21875 7.628906 -3.820312 7.515625 -4.28125 C 7.410156 -4.75 7.25 -5.113281 7.03125 -5.375 C 6.820312 -5.632812 6.59375 -5.8125 6.34375 -5.90625 C 6.09375 -6 5.898438 -6.054688 5.765625 -6.078125 C 5.609375 -6.109375 5.394531 -6.128906 5.125 -6.140625 C 4.851562 -6.148438 4.566406 -6.078125 4.265625 -5.921875 C 3.972656 -5.765625 3.6875 -5.488281 3.40625 -5.09375 C 3.132812 -4.707031 2.921875 -4.140625 2.765625 -3.390625 Z M 1.390625 -3.65625 C 1.492188 -4.15625 1.65625 -4.632812 1.875 -5.09375 C 2.101562 -5.550781 2.398438 -5.941406 2.765625 -6.265625 C 3.140625 -6.597656 3.585938 -6.832031 4.109375 -6.96875 C 4.640625 -7.113281 5.25 -7.117188 5.9375 -6.984375 C 6.601562 -6.859375 7.148438 -6.625 7.578125 -6.28125 C 8.015625 -5.945312 8.335938 -5.554688 8.546875 -5.109375 C 8.765625 -4.671875 8.890625 -4.195312 8.921875 -3.6875 C 8.960938 -3.175781 8.929688 -2.671875 8.828125 -2.171875 C 8.722656 -1.660156 8.554688 -1.175781 8.328125 -0.71875 C 8.109375 -0.257812 7.8125 0.128906 7.4375 0.453125 C 7.070312 0.785156 6.625 1.019531 6.09375 1.15625 C 5.570312 1.289062 4.976562 1.296875 4.3125 1.171875 C 3.625 1.035156 3.0625 0.800781 2.625 0.46875 C 2.195312 0.132812 1.875 -0.25 1.65625 -0.6875 C 1.445312 -1.132812 1.320312 -1.613281 1.28125 -2.125 C 1.25 -2.632812 1.285156 -3.144531 1.390625 -3.65625 Z M 1.390625 -3.65625 "/></g></g></g><g fill="#ffffff" fill-opacity="1"><g transform="translate(108.337853, 185.3843)"><g><path d="M 2.59375 -3.6875 C 2.550781 -3.082031 2.59375 -2.570312 2.71875 -2.15625 C 2.84375 -1.75 3.015625 -1.410156 3.234375 -1.140625 C 3.453125 -0.867188 3.695312 -0.671875 3.96875 -0.546875 C 4.238281 -0.421875 4.5 -0.351562 4.75 -0.34375 C 5.019531 -0.320312 5.289062 -0.351562 5.5625 -0.4375 C 5.84375 -0.53125 6.097656 -0.691406 6.328125 -0.921875 C 6.554688 -1.160156 6.753906 -1.476562 6.921875 -1.875 C 7.085938 -2.28125 7.191406 -2.796875 7.234375 -3.421875 C 7.296875 -4.398438 7.140625 -5.1875 6.765625 -5.78125 C 6.398438 -6.382812 5.835938 -6.707031 5.078125 -6.75 C 4.910156 -6.757812 4.691406 -6.738281 4.421875 -6.6875 C 4.160156 -6.644531 3.898438 -6.519531 3.640625 -6.3125 C 3.390625 -6.101562 3.160156 -5.789062 2.953125 -5.375 C 2.753906 -4.96875 2.632812 -4.40625 2.59375 -3.6875 Z M 2.828125 -7.546875 L 2.765625 -6.484375 L 2.796875 -6.46875 C 3.015625 -6.75 3.242188 -6.96875 3.484375 -7.125 C 3.722656 -7.289062 3.953125 -7.421875 4.171875 -7.515625 C 4.398438 -7.609375 4.617188 -7.660156 4.828125 -7.671875 C 5.046875 -7.691406 5.242188 -7.695312 5.421875 -7.6875 C 5.890625 -7.65625 6.332031 -7.546875 6.75 -7.359375 C 7.164062 -7.171875 7.519531 -6.894531 7.8125 -6.53125 C 8.101562 -6.175781 8.320312 -5.726562 8.46875 -5.1875 C 8.625 -4.65625 8.679688 -4.035156 8.640625 -3.328125 C 8.585938 -2.578125 8.445312 -1.941406 8.21875 -1.421875 C 8 -0.910156 7.71875 -0.5 7.375 -0.1875 C 7.03125 0.125 6.644531 0.34375 6.21875 0.46875 C 5.789062 0.59375 5.363281 0.640625 4.9375 0.609375 C 4.851562 0.609375 4.707031 0.59375 4.5 0.5625 C 4.289062 0.53125 4.0625 0.457031 3.8125 0.34375 C 3.570312 0.226562 3.328125 0.0703125 3.078125 -0.125 C 2.835938 -0.332031 2.640625 -0.609375 2.484375 -0.953125 L 2.25 2.96875 L 0.921875 2.875 L 1.578125 -7.625 Z M 2.828125 -7.546875 "/></g></g></g><g fill="#ffffff" fill-opacity="1"><g transform="translate(117.985392, 185.943346)"><g><path d="M 6.265625 -4.90625 C 6.234375 -5.164062 6.175781 -5.445312 6.09375 -5.75 C 6.019531 -6.050781 5.894531 -6.320312 5.71875 -6.5625 C 5.550781 -6.8125 5.320312 -7.007812 5.03125 -7.15625 C 4.738281 -7.3125 4.378906 -7.375 3.953125 -7.34375 C 3.460938 -7.3125 3.070312 -7.195312 2.78125 -7 C 2.488281 -6.800781 2.257812 -6.566406 2.09375 -6.296875 C 1.9375 -6.023438 1.835938 -5.738281 1.796875 -5.4375 C 1.753906 -5.132812 1.742188 -4.859375 1.765625 -4.609375 Z M 7.75 -2.765625 C 7.71875 -2.492188 7.644531 -2.203125 7.53125 -1.890625 C 7.414062 -1.578125 7.234375 -1.289062 6.984375 -1.03125 C 6.742188 -0.769531 6.425781 -0.546875 6.03125 -0.359375 C 5.644531 -0.171875 5.148438 -0.0546875 4.546875 -0.015625 C 3.910156 0.0234375 3.367188 -0.0195312 2.921875 -0.15625 C 2.484375 -0.300781 2.109375 -0.492188 1.796875 -0.734375 C 1.492188 -0.984375 1.25 -1.265625 1.0625 -1.578125 C 0.875 -1.890625 0.734375 -2.191406 0.640625 -2.484375 C 0.546875 -2.785156 0.484375 -3.054688 0.453125 -3.296875 C 0.421875 -3.546875 0.398438 -3.734375 0.390625 -3.859375 C 0.378906 -4.023438 0.375 -4.25 0.375 -4.53125 C 0.382812 -4.8125 0.414062 -5.109375 0.46875 -5.421875 C 0.53125 -5.734375 0.628906 -6.050781 0.765625 -6.375 C 0.910156 -6.695312 1.113281 -6.992188 1.375 -7.265625 C 1.632812 -7.546875 1.960938 -7.773438 2.359375 -7.953125 C 2.753906 -8.140625 3.253906 -8.253906 3.859375 -8.296875 C 4.617188 -8.347656 5.238281 -8.253906 5.71875 -8.015625 C 6.207031 -7.773438 6.585938 -7.460938 6.859375 -7.078125 C 7.128906 -6.691406 7.320312 -6.257812 7.4375 -5.78125 C 7.5625 -5.300781 7.648438 -4.859375 7.703125 -4.453125 C 7.703125 -4.398438 7.707031 -4.335938 7.71875 -4.265625 C 7.726562 -4.203125 7.738281 -4.140625 7.75 -4.078125 L 1.828125 -3.671875 C 1.847656 -3.347656 1.914062 -3.015625 2.03125 -2.671875 C 2.144531 -2.335938 2.304688 -2.039062 2.515625 -1.78125 C 2.722656 -1.519531 2.984375 -1.304688 3.296875 -1.140625 C 3.617188 -0.984375 4 -0.914062 4.4375 -0.9375 C 4.75 -0.96875 5.03125 -1.03125 5.28125 -1.125 C 5.53125 -1.226562 5.738281 -1.359375 5.90625 -1.515625 C 6.070312 -1.671875 6.203125 -1.847656 6.296875 -2.046875 C 6.390625 -2.242188 6.445312 -2.457031 6.46875 -2.6875 Z M 7.75 -2.765625 "/></g></g></g><g fill="#ffffff" fill-opacity="1"><g transform="translate(127.012405, 185.197195)"><g/></g></g><g fill="#ffffff" fill-opacity="1"><g transform="translate(130.985405, 184.703381)"><g><path d="M 1.1875 -3.796875 C 1.269531 -3.453125 1.410156 -3.148438 1.609375 -2.890625 C 1.816406 -2.628906 2.070312 -2.425781 2.375 -2.28125 C 2.6875 -2.132812 3.046875 -2.046875 3.453125 -2.015625 C 3.859375 -1.984375 4.289062 -2.03125 4.75 -2.15625 C 5.21875 -2.28125 5.59375 -2.4375 5.875 -2.625 C 6.164062 -2.820312 6.382812 -3.035156 6.53125 -3.265625 C 6.6875 -3.492188 6.78125 -3.734375 6.8125 -3.984375 C 6.851562 -4.234375 6.835938 -4.484375 6.765625 -4.734375 C 6.679688 -5.046875 6.546875 -5.289062 6.359375 -5.46875 C 6.179688 -5.644531 5.976562 -5.773438 5.75 -5.859375 C 5.519531 -5.941406 5.269531 -5.988281 5 -6 C 4.726562 -6.007812 4.46875 -6.007812 4.21875 -6 C 3.601562 -5.976562 3.015625 -5.953125 2.453125 -5.921875 C 1.890625 -5.890625 1.378906 -5.921875 0.921875 -6.015625 C 0.460938 -6.117188 0.0664062 -6.3125 -0.265625 -6.59375 C -0.597656 -6.875 -0.84375 -7.304688 -1 -7.890625 C -1.125 -8.367188 -1.140625 -8.816406 -1.046875 -9.234375 C -0.960938 -9.660156 -0.78125 -10.039062 -0.5 -10.375 C -0.226562 -10.71875 0.125 -11.015625 0.5625 -11.265625 C 1.007812 -11.515625 1.519531 -11.71875 2.09375 -11.875 C 2.726562 -12.039062 3.300781 -12.101562 3.8125 -12.0625 C 4.332031 -12.019531 4.78125 -11.90625 5.15625 -11.71875 C 5.53125 -11.53125 5.847656 -11.273438 6.109375 -10.953125 C 6.367188 -10.628906 6.566406 -10.273438 6.703125 -9.890625 L 5.328125 -9.53125 C 5.160156 -9.9375 4.941406 -10.234375 4.671875 -10.421875 C 4.410156 -10.609375 4.132812 -10.734375 3.84375 -10.796875 C 3.550781 -10.859375 3.269531 -10.863281 3 -10.8125 C 2.738281 -10.769531 2.523438 -10.726562 2.359375 -10.6875 C 1.660156 -10.5 1.132812 -10.191406 0.78125 -9.765625 C 0.425781 -9.347656 0.316406 -8.878906 0.453125 -8.359375 C 0.535156 -8.046875 0.671875 -7.8125 0.859375 -7.65625 C 1.054688 -7.5 1.285156 -7.390625 1.546875 -7.328125 C 1.816406 -7.273438 2.113281 -7.253906 2.4375 -7.265625 C 2.757812 -7.285156 3.101562 -7.300781 3.46875 -7.3125 C 3.945312 -7.34375 4.429688 -7.363281 4.921875 -7.375 C 5.421875 -7.382812 5.890625 -7.320312 6.328125 -7.1875 C 6.765625 -7.0625 7.144531 -6.84375 7.46875 -6.53125 C 7.800781 -6.226562 8.050781 -5.765625 8.21875 -5.140625 C 8.351562 -4.640625 8.382812 -4.191406 8.3125 -3.796875 C 8.25 -3.398438 8.117188 -3.050781 7.921875 -2.75 C 7.734375 -2.445312 7.5 -2.191406 7.21875 -1.984375 C 6.945312 -1.773438 6.664062 -1.601562 6.375 -1.46875 C 6.09375 -1.34375 5.820312 -1.238281 5.5625 -1.15625 C 5.3125 -1.082031 5.113281 -1.03125 4.96875 -1 C 4.601562 -0.894531 4.175781 -0.8125 3.6875 -0.75 C 3.207031 -0.6875 2.71875 -0.722656 2.21875 -0.859375 C 1.726562 -0.992188 1.265625 -1.253906 0.828125 -1.640625 C 0.398438 -2.035156 0.0625 -2.632812 -0.1875 -3.4375 Z M 1.1875 -3.796875 "/></g></g></g><g fill="#ffffff" fill-opacity="1"><g transform="translate(141.24753, 181.937109)"><g><path d="M 0.359375 -6.0625 L 2.765625 -7.09375 C 3.535156 -7.425781 4.03125 -7.832031 4.25 -8.3125 C 4.46875 -8.789062 4.4375 -9.347656 4.15625 -9.984375 C 3.90625 -10.585938 3.535156 -10.945312 3.046875 -11.0625 C 2.554688 -11.175781 1.941406 -11.078125 1.203125 -10.765625 L -1.203125 -9.734375 Z M 0.984375 -11.96875 C 1.492188 -12.1875 1.972656 -12.328125 2.421875 -12.390625 C 2.867188 -12.460938 3.28125 -12.445312 3.65625 -12.34375 C 4.039062 -12.25 4.390625 -12.054688 4.703125 -11.765625 C 5.015625 -11.472656 5.28125 -11.078125 5.5 -10.578125 C 5.6875 -10.117188 5.800781 -9.671875 5.84375 -9.234375 C 5.882812 -8.804688 5.828125 -8.398438 5.671875 -8.015625 C 5.515625 -7.640625 5.253906 -7.285156 4.890625 -6.953125 C 4.523438 -6.617188 4.023438 -6.316406 3.390625 -6.046875 L 0.84375 -4.953125 L 2.5 -1.0625 L 1.1875 -0.515625 L -2.984375 -10.28125 Z M 0.984375 -11.96875 "/></g></g></g><g fill="#ffffff" fill-opacity="1"><g transform="translate(150.547323, 177.794652)"><g><path d="M 0.59375 -2.234375 L 1.90625 -2.96875 L 2.71875 -1.515625 L 1.40625 -0.78125 Z M 0.59375 -2.234375 "/></g></g></g><g fill="#ffffff" fill-opacity="1"><g transform="translate(154.89557, 175.333127)"><g/></g></g><g fill="#ffffff" fill-opacity="1"><g transform="translate(158.289533, 173.277937)"><g><path d="M -0.015625 -13.484375 L 0.6875 -12.578125 L 0.953125 -2.265625 L 6.046875 -6.265625 L 6.78125 -5.3125 L 0.3125 -0.234375 L -0.5 -1.265625 L -0.59375 -11.5 L -5.234375 -7.875 L -5.96875 -8.828125 Z M -0.015625 -13.484375 "/></g></g></g><g fill="#ffffff" fill-opacity="1"><g transform="translate(165.616194, 167.360345)"><g/></g></g><g fill="#ffffff" fill-opacity="1"><g transform="translate(168.700005, 164.713489)"><g><path d="M -2.625 -5.125 C -2.300781 -4.84375 -1.914062 -4.566406 -1.46875 -4.296875 C -1.03125 -4.023438 -0.554688 -3.84375 -0.046875 -3.75 C 0.460938 -3.65625 0.984375 -3.6875 1.515625 -3.84375 C 2.046875 -4 2.554688 -4.367188 3.046875 -4.953125 C 3.128906 -5.046875 3.234375 -5.179688 3.359375 -5.359375 C 3.484375 -5.546875 3.59375 -5.769531 3.6875 -6.03125 C 3.789062 -6.289062 3.859375 -6.585938 3.890625 -6.921875 C 3.921875 -7.253906 3.882812 -7.609375 3.78125 -7.984375 C 3.6875 -8.359375 3.492188 -8.757812 3.203125 -9.1875 C 2.921875 -9.613281 2.507812 -10.0625 1.96875 -10.53125 C 1.488281 -10.925781 0.992188 -11.242188 0.484375 -11.484375 C -0.0234375 -11.734375 -0.519531 -11.875 -1 -11.90625 C -1.488281 -11.945312 -1.960938 -11.867188 -2.421875 -11.671875 C -2.890625 -11.472656 -3.316406 -11.144531 -3.703125 -10.6875 C -4.046875 -10.28125 -4.28125 -9.875 -4.40625 -9.46875 C -4.539062 -9.0625 -4.59375 -8.671875 -4.5625 -8.296875 C -4.539062 -7.929688 -4.453125 -7.582031 -4.296875 -7.25 C -4.148438 -6.914062 -3.976562 -6.609375 -3.78125 -6.328125 C -3.582031 -6.054688 -3.375 -5.816406 -3.15625 -5.609375 C -2.945312 -5.398438 -2.769531 -5.238281 -2.625 -5.125 Z M -3.609375 -3.96875 C -4.316406 -4.5625 -4.859375 -5.175781 -5.234375 -5.8125 C -5.609375 -6.457031 -5.828125 -7.101562 -5.890625 -7.75 C -5.960938 -8.40625 -5.890625 -9.046875 -5.671875 -9.671875 C -5.453125 -10.296875 -5.101562 -10.890625 -4.625 -11.453125 C -4.25 -11.898438 -3.796875 -12.296875 -3.265625 -12.640625 C -2.734375 -12.984375 -2.148438 -13.203125 -1.515625 -13.296875 C -0.878906 -13.390625 -0.1875 -13.316406 0.5625 -13.078125 C 1.3125 -12.847656 2.101562 -12.382812 2.9375 -11.6875 C 3.632812 -11.082031 4.15625 -10.488281 4.5 -9.90625 C 4.851562 -9.332031 5.078125 -8.78125 5.171875 -8.25 C 5.273438 -7.726562 5.28125 -7.238281 5.1875 -6.78125 C 5.101562 -6.320312 4.984375 -5.910156 4.828125 -5.546875 C 4.671875 -5.191406 4.503906 -4.894531 4.328125 -4.65625 C 4.148438 -4.425781 4.023438 -4.269531 3.953125 -4.1875 C 3.878906 -4.09375 3.738281 -3.9375 3.53125 -3.71875 C 3.332031 -3.507812 3.066406 -3.296875 2.734375 -3.078125 C 2.398438 -2.867188 2.019531 -2.6875 1.59375 -2.53125 C 1.164062 -2.375 0.679688 -2.296875 0.140625 -2.296875 C -0.398438 -2.304688 -0.984375 -2.4375 -1.609375 -2.6875 C -2.242188 -2.9375 -2.910156 -3.363281 -3.609375 -3.96875 Z M -3.609375 -3.96875 "/></g></g></g><g fill="#ffffff" fill-opacity="1"><g transform="translate(176.301218, 155.368318)"><g><path d="M -0.5 -2.25 L 0.3125 -3.5 L 1.703125 -2.59375 L 0.890625 -1.34375 Z M -0.5 -2.25 "/></g></g></g><g fill="#ffffff" fill-opacity="1"><g transform="translate(179.351629, 151.051348)"><g><path d="M -3.765625 -4.34375 C -3.390625 -4.144531 -2.953125 -3.96875 -2.453125 -3.8125 C -1.953125 -3.664062 -1.441406 -3.601562 -0.921875 -3.625 C -0.410156 -3.65625 0.0820312 -3.8125 0.5625 -4.09375 C 1.039062 -4.375 1.445312 -4.851562 1.78125 -5.53125 C 1.84375 -5.644531 1.910156 -5.804688 1.984375 -6.015625 C 2.054688 -6.222656 2.109375 -6.460938 2.140625 -6.734375 C 2.179688 -7.015625 2.175781 -7.316406 2.125 -7.640625 C 2.082031 -7.972656 1.960938 -8.3125 1.765625 -8.65625 C 1.578125 -9 1.289062 -9.34375 0.90625 -9.6875 C 0.53125 -10.039062 0.0234375 -10.378906 -0.609375 -10.703125 C -1.171875 -10.972656 -1.722656 -11.164062 -2.265625 -11.28125 C -2.816406 -11.394531 -3.332031 -11.410156 -3.8125 -11.328125 C -4.289062 -11.253906 -4.734375 -11.0625 -5.140625 -10.75 C -5.546875 -10.445312 -5.882812 -10.023438 -6.15625 -9.484375 C -6.394531 -9.015625 -6.523438 -8.566406 -6.546875 -8.140625 C -6.566406 -7.722656 -6.519531 -7.332031 -6.40625 -6.96875 C -6.289062 -6.613281 -6.117188 -6.289062 -5.890625 -6 C -5.671875 -5.71875 -5.429688 -5.46875 -5.171875 -5.25 C -4.910156 -5.039062 -4.648438 -4.859375 -4.390625 -4.703125 C -4.140625 -4.546875 -3.929688 -4.425781 -3.765625 -4.34375 Z M -4.4375 -2.984375 C -5.269531 -3.390625 -5.945312 -3.863281 -6.46875 -4.40625 C -6.988281 -4.945312 -7.359375 -5.519531 -7.578125 -6.125 C -7.796875 -6.738281 -7.875 -7.375 -7.8125 -8.03125 C -7.75 -8.695312 -7.550781 -9.359375 -7.21875 -10.015625 C -6.957031 -10.535156 -6.609375 -11.023438 -6.171875 -11.484375 C -5.742188 -11.953125 -5.234375 -12.304688 -4.640625 -12.546875 C -4.046875 -12.796875 -3.351562 -12.894531 -2.5625 -12.84375 C -1.769531 -12.789062 -0.890625 -12.523438 0.078125 -12.046875 C 0.898438 -11.628906 1.546875 -11.179688 2.015625 -10.703125 C 2.492188 -10.222656 2.84375 -9.738281 3.0625 -9.25 C 3.28125 -8.769531 3.398438 -8.296875 3.421875 -7.828125 C 3.453125 -7.359375 3.429688 -6.925781 3.359375 -6.53125 C 3.296875 -6.144531 3.207031 -5.816406 3.09375 -5.546875 C 2.976562 -5.285156 2.894531 -5.101562 2.84375 -5 C 2.789062 -4.90625 2.691406 -4.722656 2.546875 -4.453125 C 2.398438 -4.191406 2.191406 -3.921875 1.921875 -3.640625 C 1.660156 -3.359375 1.332031 -3.085938 0.9375 -2.828125 C 0.550781 -2.578125 0.0976562 -2.390625 -0.421875 -2.265625 C -0.941406 -2.140625 -1.535156 -2.125 -2.203125 -2.21875 C -2.867188 -2.3125 -3.613281 -2.566406 -4.4375 -2.984375 Z M -4.4375 -2.984375 "/></g></g></g><g fill="#ffffff" fill-opacity="1"><g transform="translate(184.511198, 140.165451)"><g><path d="M -1.015625 -2.078125 L -0.515625 -3.484375 L 1.046875 -2.921875 L 0.546875 -1.515625 Z M -1.015625 -2.078125 "/></g></g></g><g fill="#ffffff" fill-opacity="1"><g transform="translate(186.191727, 135.416331)"><g><path d="M -0.75 -3.453125 L 1.296875 -2.875 C 1.585938 -2.789062 1.816406 -2.671875 1.984375 -2.515625 C 2.160156 -2.359375 2.296875 -2.1875 2.390625 -2 C 2.484375 -1.820312 2.539062 -1.640625 2.5625 -1.453125 C 2.59375 -1.265625 2.609375 -1.09375 2.609375 -0.9375 L 1.796875 -1.171875 C 1.828125 -1.367188 1.769531 -1.5625 1.625 -1.75 C 1.488281 -1.945312 1.3125 -2.078125 1.09375 -2.140625 L 0.640625 -2.265625 L 0.4375 -1.546875 L -1.15625 -2 Z M -0.75 -3.453125 "/></g></g></g><g fill="#ffffff" fill-opacity="1"><g transform="translate(187.512734, 130.599164)"><g/></g></g><g fill="#ffffff" fill-opacity="1"><g transform="translate(188.552893, 126.670507)"><g><path d="M -5.0625 -2.71875 C -4.644531 -2.675781 -4.171875 -2.671875 -3.640625 -2.703125 C -3.117188 -2.734375 -2.617188 -2.851562 -2.140625 -3.0625 C -1.671875 -3.269531 -1.265625 -3.59375 -0.921875 -4.03125 C -0.585938 -4.46875 -0.378906 -5.0625 -0.296875 -5.8125 C -0.285156 -5.9375 -0.28125 -6.109375 -0.28125 -6.328125 C -0.28125 -6.546875 -0.3125 -6.789062 -0.375 -7.0625 C -0.445312 -7.34375 -0.5625 -7.625 -0.71875 -7.90625 C -0.875 -8.1875 -1.097656 -8.457031 -1.390625 -8.71875 C -1.691406 -8.976562 -2.082031 -9.203125 -2.5625 -9.390625 C -3.050781 -9.578125 -3.648438 -9.707031 -4.359375 -9.78125 C -4.984375 -9.84375 -5.566406 -9.828125 -6.109375 -9.734375 C -6.660156 -9.648438 -7.148438 -9.484375 -7.578125 -9.234375 C -8.003906 -8.992188 -8.347656 -8.660156 -8.609375 -8.234375 C -8.878906 -7.804688 -9.046875 -7.289062 -9.109375 -6.6875 C -9.160156 -6.15625 -9.125 -5.6875 -9 -5.28125 C -8.875 -4.882812 -8.691406 -4.539062 -8.453125 -4.25 C -8.222656 -3.957031 -7.953125 -3.71875 -7.640625 -3.53125 C -7.335938 -3.34375 -7.023438 -3.191406 -6.703125 -3.078125 C -6.378906 -2.960938 -6.070312 -2.878906 -5.78125 -2.828125 C -5.488281 -2.773438 -5.25 -2.738281 -5.0625 -2.71875 Z M -5.21875 -1.21875 C -6.144531 -1.3125 -6.941406 -1.515625 -7.609375 -1.828125 C -8.285156 -2.148438 -8.832031 -2.554688 -9.25 -3.046875 C -9.675781 -3.535156 -9.972656 -4.101562 -10.140625 -4.75 C -10.316406 -5.394531 -10.367188 -6.082031 -10.296875 -6.8125 C -10.242188 -7.394531 -10.097656 -7.972656 -9.859375 -8.546875 C -9.617188 -9.128906 -9.257812 -9.640625 -8.78125 -10.078125 C -8.3125 -10.523438 -7.703125 -10.863281 -6.953125 -11.09375 C -6.203125 -11.332031 -5.285156 -11.398438 -4.203125 -11.296875 C -3.285156 -11.203125 -2.515625 -11.015625 -1.890625 -10.734375 C -1.273438 -10.453125 -0.78125 -10.117188 -0.40625 -9.734375 C -0.0390625 -9.359375 0.234375 -8.953125 0.421875 -8.515625 C 0.617188 -8.085938 0.753906 -7.679688 0.828125 -7.296875 C 0.898438 -6.921875 0.929688 -6.585938 0.921875 -6.296875 C 0.910156 -6.003906 0.898438 -5.800781 0.890625 -5.6875 C 0.878906 -5.570312 0.847656 -5.363281 0.796875 -5.0625 C 0.753906 -4.769531 0.65625 -4.441406 0.5 -4.078125 C 0.351562 -3.722656 0.144531 -3.359375 -0.125 -2.984375 C -0.394531 -2.609375 -0.75 -2.269531 -1.1875 -1.96875 C -1.632812 -1.675781 -2.1875 -1.453125 -2.84375 -1.296875 C -3.507812 -1.148438 -4.300781 -1.125 -5.21875 -1.21875 Z M -5.21875 -1.21875 "/></g></g></g><g fill="#ffffff" fill-opacity="1"><g transform="translate(189.624545, 114.513722)"><g><path d="M -3.953125 -2.140625 C -3.347656 -2.171875 -2.847656 -2.269531 -2.453125 -2.4375 C -2.054688 -2.613281 -1.738281 -2.828125 -1.5 -3.078125 C -1.257812 -3.328125 -1.09375 -3.59375 -1 -3.875 C -0.914062 -4.164062 -0.878906 -4.4375 -0.890625 -4.6875 C -0.898438 -4.957031 -0.960938 -5.222656 -1.078125 -5.484375 C -1.203125 -5.742188 -1.394531 -5.972656 -1.65625 -6.171875 C -1.914062 -6.367188 -2.25 -6.523438 -2.65625 -6.640625 C -3.070312 -6.765625 -3.59375 -6.8125 -4.21875 -6.78125 C -5.207031 -6.726562 -5.972656 -6.484375 -6.515625 -6.046875 C -7.066406 -5.609375 -7.328125 -5.015625 -7.296875 -4.265625 C -7.285156 -4.097656 -7.238281 -3.882812 -7.15625 -3.625 C -7.082031 -3.363281 -6.925781 -3.117188 -6.6875 -2.890625 C -6.457031 -2.660156 -6.125 -2.46875 -5.6875 -2.3125 C -5.257812 -2.164062 -4.679688 -2.109375 -3.953125 -2.140625 Z M -7.8125 -1.9375 L -6.75 -2 L -6.75 -2.03125 C -7.050781 -2.207031 -7.296875 -2.40625 -7.484375 -2.625 C -7.671875 -2.851562 -7.820312 -3.078125 -7.9375 -3.296875 C -8.050781 -3.515625 -8.128906 -3.726562 -8.171875 -3.9375 C -8.222656 -4.144531 -8.253906 -4.335938 -8.265625 -4.515625 C -8.285156 -4.984375 -8.222656 -5.429688 -8.078125 -5.859375 C -7.941406 -6.285156 -7.710938 -6.664062 -7.390625 -7 C -7.066406 -7.332031 -6.648438 -7.601562 -6.140625 -7.8125 C -5.628906 -8.019531 -5.015625 -8.144531 -4.296875 -8.1875 C -3.546875 -8.226562 -2.898438 -8.164062 -2.359375 -8 C -1.828125 -7.832031 -1.382812 -7.59375 -1.03125 -7.28125 C -0.6875 -6.976562 -0.425781 -6.625 -0.25 -6.21875 C -0.0820312 -5.820312 0.0078125 -5.410156 0.03125 -4.984375 C 0.0390625 -4.898438 0.0390625 -4.753906 0.03125 -4.546875 C 0.03125 -4.335938 -0.0078125 -4.101562 -0.09375 -3.84375 C -0.1875 -3.582031 -0.316406 -3.316406 -0.484375 -3.046875 C -0.660156 -2.785156 -0.910156 -2.554688 -1.234375 -2.359375 L 2.6875 -2.5625 L 2.75 -1.234375 L -7.75 -0.6875 Z M -7.8125 -1.9375 "/></g></g></g><g fill="#ffffff" fill-opacity="1"><g transform="translate(189.071724, 104.855505)"><g><path d="M -4.1875 -1.3125 C -3.425781 -1.457031 -2.847656 -1.660156 -2.453125 -1.921875 C -2.054688 -2.191406 -1.78125 -2.472656 -1.625 -2.765625 C -1.46875 -3.066406 -1.390625 -3.347656 -1.390625 -3.609375 C -1.398438 -3.878906 -1.414062 -4.09375 -1.4375 -4.25 C -1.46875 -4.394531 -1.53125 -4.59375 -1.625 -4.84375 C -1.71875 -5.101562 -1.890625 -5.335938 -2.140625 -5.546875 C -2.398438 -5.765625 -2.757812 -5.929688 -3.21875 -6.046875 C -3.6875 -6.160156 -4.300781 -6.144531 -5.0625 -6 C -5.8125 -5.863281 -6.382812 -5.65625 -6.78125 -5.375 C -7.175781 -5.101562 -7.453125 -4.820312 -7.609375 -4.53125 C -7.765625 -4.238281 -7.835938 -3.957031 -7.828125 -3.6875 C -7.828125 -3.414062 -7.8125 -3.207031 -7.78125 -3.0625 C -7.757812 -2.90625 -7.703125 -2.703125 -7.609375 -2.453125 C -7.515625 -2.203125 -7.335938 -1.96875 -7.078125 -1.75 C -6.828125 -1.53125 -6.46875 -1.367188 -6 -1.265625 C -5.539062 -1.160156 -4.9375 -1.175781 -4.1875 -1.3125 Z M -3.921875 0.0625 C -4.421875 0.164062 -4.921875 0.195312 -5.421875 0.15625 C -5.929688 0.113281 -6.40625 -0.015625 -6.84375 -0.234375 C -7.289062 -0.453125 -7.675781 -0.78125 -8 -1.21875 C -8.332031 -1.65625 -8.5625 -2.21875 -8.6875 -2.90625 C -8.820312 -3.582031 -8.8125 -4.179688 -8.65625 -4.703125 C -8.507812 -5.222656 -8.269531 -5.664062 -7.9375 -6.03125 C -7.601562 -6.394531 -7.207031 -6.6875 -6.75 -6.90625 C -6.289062 -7.125 -5.8125 -7.285156 -5.3125 -7.390625 C -4.800781 -7.484375 -4.285156 -7.507812 -3.765625 -7.46875 C -3.253906 -7.425781 -2.78125 -7.296875 -2.34375 -7.078125 C -1.914062 -6.859375 -1.535156 -6.53125 -1.203125 -6.09375 C -0.878906 -5.65625 -0.648438 -5.097656 -0.515625 -4.421875 C -0.390625 -3.734375 -0.398438 -3.128906 -0.546875 -2.609375 C -0.703125 -2.085938 -0.941406 -1.644531 -1.265625 -1.28125 C -1.585938 -0.914062 -1.984375 -0.625 -2.453125 -0.40625 C -2.921875 -0.1875 -3.410156 -0.03125 -3.921875 0.0625 Z M -3.921875 0.0625 "/></g></g></g><g fill="#ffffff" fill-opacity="1"><g transform="translate(187.218081, 95.733984)"><g><path d="M -10.875 0.578125 L -0.65625 -2.328125 L -0.296875 -1.046875 L -10.515625 1.859375 Z M -10.875 0.578125 "/></g></g></g><g fill="#ffffff" fill-opacity="1"><g transform="translate(186.232821, 91.919157)"><g><path d="M -6.546875 -4.53125 C -6.785156 -4.425781 -7.035156 -4.289062 -7.296875 -4.125 C -7.554688 -3.96875 -7.773438 -3.769531 -7.953125 -3.53125 C -8.140625 -3.300781 -8.265625 -3.023438 -8.328125 -2.703125 C -8.390625 -2.378906 -8.34375 -2.019531 -8.1875 -1.625 C -8.007812 -1.164062 -7.78125 -0.820312 -7.5 -0.59375 C -7.226562 -0.363281 -6.9375 -0.210938 -6.625 -0.140625 C -6.320312 -0.0664062 -6.019531 -0.0507812 -5.71875 -0.09375 C -5.414062 -0.144531 -5.148438 -0.21875 -4.921875 -0.3125 Z M -4.921875 -6.59375 C -4.648438 -6.644531 -4.347656 -6.660156 -4.015625 -6.640625 C -3.691406 -6.617188 -3.367188 -6.53125 -3.046875 -6.375 C -2.722656 -6.226562 -2.410156 -5.992188 -2.109375 -5.671875 C -1.816406 -5.359375 -1.5625 -4.921875 -1.34375 -4.359375 C -1.125 -3.765625 -1.015625 -3.226562 -1.015625 -2.75 C -1.015625 -2.28125 -1.085938 -1.863281 -1.234375 -1.5 C -1.378906 -1.132812 -1.570312 -0.816406 -1.8125 -0.546875 C -2.0625 -0.273438 -2.3125 -0.0546875 -2.5625 0.109375 C -2.820312 0.285156 -3.0625 0.425781 -3.28125 0.53125 C -3.507812 0.644531 -3.6875 0.722656 -3.8125 0.765625 C -3.96875 0.828125 -4.179688 0.894531 -4.453125 0.96875 C -4.722656 1.050781 -5.015625 1.109375 -5.328125 1.140625 C -5.640625 1.179688 -5.96875 1.179688 -6.3125 1.140625 C -6.664062 1.109375 -7.007812 1.003906 -7.34375 0.828125 C -7.6875 0.660156 -8.003906 0.410156 -8.296875 0.078125 C -8.597656 -0.242188 -8.859375 -0.6875 -9.078125 -1.25 C -9.347656 -1.957031 -9.4375 -2.578125 -9.34375 -3.109375 C -9.257812 -3.640625 -9.070312 -4.085938 -8.78125 -4.453125 C -8.5 -4.828125 -8.148438 -5.144531 -7.734375 -5.40625 C -7.316406 -5.664062 -6.910156 -5.878906 -6.515625 -6.046875 C -6.472656 -6.066406 -6.421875 -6.085938 -6.359375 -6.109375 C -6.296875 -6.140625 -6.238281 -6.171875 -6.1875 -6.203125 L -4.046875 -0.65625 C -3.734375 -0.769531 -3.429688 -0.929688 -3.140625 -1.140625 C -2.859375 -1.359375 -2.625 -1.601562 -2.4375 -1.875 C -2.25 -2.15625 -2.125 -2.472656 -2.0625 -2.828125 C -2 -3.179688 -2.046875 -3.5625 -2.203125 -3.96875 C -2.316406 -4.257812 -2.457031 -4.507812 -2.625 -4.71875 C -2.800781 -4.9375 -2.988281 -5.097656 -3.1875 -5.203125 C -3.382812 -5.304688 -3.59375 -5.375 -3.8125 -5.40625 C -4.03125 -5.4375 -4.25 -5.4375 -4.46875 -5.40625 Z M -4.921875 -6.59375 "/></g></g></g><g fill="#ffffff" fill-opacity="1"><g transform="translate(182.860437, 83.516628)"><g/></g></g><g fill="#ffffff" fill-opacity="1"><g transform="translate(181.188381, 80.133604)"><g/></g></g><g fill="#ffffff" fill-opacity="1"><g transform="translate(179.341567, 76.842727)"><g/></g></g><g fill="#ffffff" fill-opacity="1"><g transform="translate(177.325064, 73.652968)"><g/></g></g></svg>