<?xml version="1.0" encoding="UTF-8" standalone="no"?>
<svg
   width="235.85417"
   zoomAndPan="magnify"
   viewBox="0 0 176.79628 176.89063"
   height="235.85417"
   preserveAspectRatio="xMidYMid"
   version="1.0"
   id="svg236"
   sodipodi:docname="Project-Reference-Kelvion-AirDryer-2.0-DE.svg"
   inkscape:version="1.4.2 (ebf0e940, 2025-05-08)"
   xmlns:inkscape="http://www.inkscape.org/namespaces/inkscape"
   xmlns:sodipodi="http://sodipodi.sourceforge.net/DTD/sodipodi-0.dtd"
   xmlns="http://www.w3.org/2000/svg"
   xmlns:svg="http://www.w3.org/2000/svg">
  <sodipodi:namedview
     id="namedview236"
     pagecolor="#ffffff"
     bordercolor="#000000"
     borderopacity="0.25"
     inkscape:showpageshadow="2"
     inkscape:pageopacity="0.0"
     inkscape:pagecheckerboard="0"
     inkscape:deskcolor="#d1d1d1"
     inkscape:zoom="0.5453677"
     inkscape:cx="300.71455"
     inkscape:cy="3.6672506"
     inkscape:window-width="1416"
     inkscape:window-height="697"
     inkscape:window-x="0"
     inkscape:window-y="34"
     inkscape:window-maximized="0"
     inkscape:current-layer="svg236" />
  <defs
     id="defs3">
    <g
       id="g1" />
    <clipPath
       id="900ab7f96d">
      <path
         d="M 0,0.0585938 H 224.76172 V 224.9375 H 0 Z m 0,0"
         clip-rule="nonzero"
         id="path1" />
    </clipPath>
    <clipPath
       id="ace54aafa5">
      <path
         d="M 25.496094,19.320312 H 202.39844 V 196.22266 H 25.496094 Z m 0,0"
         clip-rule="nonzero"
         id="path2" />
    </clipPath>
    <clipPath
       id="2a32680920">
      <path
         d="M 64.707031,57.714844 H 165 V 158 H 64.707031 Z m 0,0"
         clip-rule="nonzero"
         id="path3" />
    </clipPath>
  </defs>
  <g
     clip-path="url(#ace54aafa5)"
     id="g4"
     transform="translate(-25.556099,-19.320312)">
    <path
       fill="#38b6ff"
       d="m 202.38672,107.76563 c 0,1.44921 -0.0352,2.89453 -0.10547,4.33984 -0.0703,1.44531 -0.17578,2.89062 -0.32031,4.32812 -0.14063,1.44141 -0.31641,2.87891 -0.53125,4.3086 -0.21094,1.43359 -0.45703,2.85937 -0.74219,4.27734 -0.28125,1.42188 -0.59766,2.83203 -0.94922,4.23828 -0.35156,1.40235 -0.73828,2.79688 -1.16016,4.1836 -0.41796,1.38281 -0.87109,2.75781 -1.35937,4.12109 -0.48828,1.36328 -1.00781,2.71484 -1.5625,4.05078 -0.55469,1.33594 -1.14063,2.66016 -1.76172,3.96875 -0.61719,1.30859 -1.26953,2.60156 -1.94922,3.87891 -0.68359,1.27343 -1.39453,2.53515 -2.14062,3.77734 -0.7461,1.23828 -1.51953,2.46094 -2.32422,3.66797 -0.80078,1.20312 -1.63672,2.38281 -2.4961,3.54687 -0.86328,1.16407 -1.7539,2.30469 -2.67187,3.42188 -0.91797,1.12109 -1.86328,2.21484 -2.83594,3.28906 -0.97265,1.07031 -1.96875,2.1211 -2.99219,3.14453 -1.02343,1.02344 -2.07421,2.01953 -3.14453,2.99219 -1.07422,0.97266 -2.16797,1.91797 -3.28906,2.83594 -1.11719,0.91797 -2.25781,1.80859 -3.42187,2.67187 -1.16407,0.85938 -2.34375,1.69532 -3.55079,2.5 -1.20312,0.80078 -2.42578,1.57813 -3.66796,2.32032 -1.23829,0.74609 -2.5,1.45703 -3.77344,2.14062 -1.27735,0.68359 -2.57031,1.33203 -3.87891,1.95313 -1.30859,0.61718 -2.63281,1.20312 -3.96875,1.75781 -1.33984,0.55469 -2.6875,1.07422 -4.05078,1.5625 -1.36328,0.48828 -2.73828,0.9414 -4.12109,1.36328 -1.38672,0.41797 -2.78125,0.80469 -4.1836,1.15625 -1.40625,0.35156 -2.8164,0.66797 -4.23828,0.94922 -1.41797,0.28515 -2.84375,0.53125 -4.27734,0.74219 -1.42969,0.21484 -2.86719,0.39062 -4.30859,0.53125 -1.4375,0.14453 -2.88282,0.25 -4.32813,0.32031 -1.44531,0.0703 -2.89062,0.10547 -4.33984,0.10547 -1.44922,0 -2.89453,-0.0352 -4.33985,-0.10547 -1.44531,-0.0703 -2.89062,-0.17578 -4.32812,-0.32031 -1.44141,-0.14063 -2.87891,-0.31641 -4.3086,-0.53125 -1.43359,-0.21094 -2.859371,-0.45704 -4.27734,-0.74219 -1.421875,-0.28125 -2.832031,-0.59766 -4.238281,-0.94922 -1.402344,-0.35156 -2.796875,-0.73828 -4.183594,-1.15625 -1.382813,-0.42188 -2.757813,-0.875 -4.121094,-1.36328 -1.363281,-0.48828 -2.714843,-1.00781 -4.050781,-1.5625 -1.335938,-0.55469 -2.660156,-1.14063 -3.96875,-1.75781 -1.308594,-0.6211 -2.601562,-1.26954 -3.878906,-1.95313 -1.273438,-0.68359 -2.535156,-1.39453 -3.777344,-2.14062 -1.238281,-0.74219 -2.460938,-1.51954 -3.664062,-2.32032 -1.207032,-0.80468 -2.386719,-1.64062 -3.550782,-2.5 -1.164062,-0.86328 -2.304687,-1.7539 -3.421875,-2.67187 -1.121093,-0.91797 -2.214843,-1.86328 -3.289062,-2.83594 -1.070313,-0.97266 -2.121094,-1.96875 -3.144531,-2.99219 -1.023438,-1.02343 -2.019532,-2.07422 -2.992188,-3.14453 -0.972656,-1.07422 -1.917969,-2.16797 -2.835938,-3.28906 -0.917968,-1.11719 -1.808593,-2.25781 -2.671874,-3.42188 -0.859376,-1.16406 -1.695313,-2.34375 -2.5,-3.54687 -0.800782,-1.20703 -1.578126,-2.42969 -2.320313,-3.66797 -0.746094,-1.24219 -1.457031,-2.50391 -2.140625,-3.77734 -0.683594,-1.27735 -1.332031,-2.57032 -1.953125,-3.87891 -0.617187,-1.30859 -1.203125,-2.63281 -1.757813,-3.96875 -0.554687,-1.33594 -1.074218,-2.6875 -1.5625,-4.05078 -0.488281,-1.36328 -0.941406,-2.73828 -1.359374,-4.12109 -0.421876,-1.38672 -0.808594,-2.78125 -1.160157,-4.1836 -0.351562,-1.40625 -0.667969,-2.8164 -0.949219,-4.23828 -0.285156,-1.41797 -0.53125,-2.84375 -0.742187,-4.27734 -0.214844,-1.42969 -0.390625,-2.86719 -0.53125,-4.3086 -0.144531,-1.4375 -0.25,-2.88281 -0.320313,-4.32812 -0.07031,-1.44531 -0.105468,-2.89063 -0.105468,-4.33984 0,-1.44532 0.03516,-2.89454 0.105468,-4.33985 0.07031,-1.44531 0.175782,-2.89062 0.320313,-4.328124 0.140625,-1.441406 0.316406,-2.878906 0.53125,-4.308594 0.210937,-1.433593 0.457031,-2.859374 0.742187,-4.277343 0.28125,-1.421875 0.597657,-2.832031 0.949219,-4.238281 0.351563,-1.402344 0.738281,-2.796876 1.160157,-4.183594 0.417968,-1.382813 0.871093,-2.757813 1.359374,-4.121094 0.488282,-1.363281 1.007813,-2.710938 1.5625,-4.050781 0.554688,-1.335938 1.140626,-2.660157 1.757813,-3.96875 0.621094,-1.308594 1.269531,-2.601563 1.953125,-3.875 0.683594,-1.277344 1.394531,-2.539063 2.140625,-3.777344 0.742187,-1.242187 1.519531,-2.464844 2.320313,-3.667969 0.804687,-1.203125 1.640624,-2.386718 2.5,-3.550781 0.863281,-1.164063 1.753906,-2.304687 2.671874,-3.421875 0.917969,-1.121094 1.863282,-2.214844 2.835938,-3.289062 0.972656,-1.070313 1.96875,-2.121094 2.992188,-3.144532 1.023437,-1.023437 2.074218,-2.019531 3.144531,-2.992187 1.074219,-0.972657 2.167969,-1.917969 3.289062,-2.835938 1.117188,-0.917969 2.257813,-1.808593 3.421875,-2.667969 1.164063,-0.863281 2.34375,-1.699218 3.550782,-2.5 1.203124,-0.804687 2.425781,-1.578124 3.664062,-2.324218 1.242188,-0.742188 2.503906,-1.457032 3.777344,-2.140625 1.277344,-0.679688 2.570312,-1.332031 3.878906,-1.949219 1.308594,-0.621094 2.632812,-1.207031 3.96875,-1.761719 1.335938,-0.554687 2.6875,-1.074219 4.050781,-1.5625 1.363281,-0.488281 2.738281,-0.941406 4.121094,-1.359375 1.386719,-0.421875 2.78125,-0.808594 4.183594,-1.160156 1.40625,-0.351562 2.816406,-0.667969 4.238281,-0.949219 1.417969,-0.285156 2.84375,-0.53125 4.27734,-0.742187 1.42969,-0.214844 2.86719,-0.390625 4.3086,-0.53125 1.4375,-0.144532 2.88281,-0.25 4.32812,-0.320313 1.44532,-0.07031 2.89063,-0.105469 4.33985,-0.105469 1.44922,0 2.89453,0.03516 4.33984,0.105469 1.44531,0.07031 2.89063,0.175781 4.32813,0.320313 1.4414,0.140625 2.8789,0.316406 4.30859,0.53125 1.43359,0.210937 2.85937,0.457031 4.27734,0.742187 1.42188,0.28125 2.83203,0.597657 4.23828,0.949219 1.40235,0.351562 2.79688,0.738281 4.1836,1.160156 C 141,23.546875 142.375,24 143.73828,24.488281 c 1.36328,0.488281 2.71094,1.007813 4.05078,1.5625 1.33594,0.554688 2.66016,1.140625 3.96875,1.761719 1.3086,0.617188 2.60156,1.269531 3.87891,1.949219 1.27344,0.683593 2.53515,1.398437 3.77344,2.140625 1.24218,0.746094 2.46484,1.519531 3.66796,2.324218 1.20704,0.800782 2.38672,1.636719 3.55079,2.5 1.16406,0.859376 2.30468,1.75 3.42187,2.667969 1.12109,0.917969 2.21484,1.863281 3.28906,2.835938 1.07032,0.972656 2.1211,1.96875 3.14453,2.992187 1.02344,1.023438 2.01954,2.074219 2.99219,3.144532 0.97266,1.074218 1.91797,2.167968 2.83594,3.289062 0.91797,1.117188 1.80859,2.257812 2.67187,3.421875 0.85938,1.164063 1.69532,2.347656 2.4961,3.550781 0.80469,1.203125 1.57812,2.425782 2.32422,3.667969 0.74609,1.238281 1.45703,2.5 2.14062,3.777344 0.67969,1.273437 1.33203,2.566406 1.94922,3.875 0.62109,1.308593 1.20703,2.632812 1.76172,3.96875 0.55469,1.339843 1.07422,2.6875 1.5625,4.050781 0.48828,1.363281 0.94141,2.738281 1.35937,4.121094 0.42188,1.386718 0.8086,2.78125 1.16016,4.183594 0.35156,1.40625 0.66797,2.816406 0.94922,4.238281 0.28516,1.417969 0.53125,2.84375 0.74219,4.277343 0.21484,1.429688 0.39062,2.867188 0.53125,4.308594 0.14453,1.437504 0.25,2.882814 0.32031,4.328124 0.0703,1.44531 0.10547,2.89453 0.10547,4.33985 z m 0,0"
       fill-opacity="1"
       fill-rule="nonzero"
       id="path4" />
  </g>
  <g
     clip-path="url(#2a32680920)"
     id="g5"
     transform="translate(-25.556099,-19.320312)">
    <path
       fill="#000000"
       d="m 164.81641,107.76563 c 0,1.64062 -0.082,3.27734 -0.24219,4.90625 -0.16016,1.63281 -0.40235,3.2539 -0.72266,4.85937 -0.32031,1.60938 -0.71484,3.19531 -1.1914,4.76563 -0.47657,1.57031 -1.02735,3.10937 -1.65625,4.625 -0.625,1.51562 -1.32813,2.99609 -2.09766,4.4414 -0.77344,1.44531 -1.61719,2.84766 -2.52734,4.21094 -0.91016,1.36328 -1.88672,2.67969 -2.92579,3.94531 -1.03906,1.26953 -2.14062,2.48047 -3.29687,3.64063 -1.16016,1.16015 -2.375,2.25781 -3.64063,3.29687 -1.26953,1.04297 -2.58203,2.01563 -3.94531,2.92578 -1.36328,0.91406 -2.76953,1.75391 -4.21484,2.52735 -1.44531,0.77343 -2.92578,1.47265 -4.44141,2.10156 -1.51172,0.625 -3.05469,1.17578 -4.625,1.65234 -1.5664,0.47656 -3.15625,0.875 -4.76172,1.19531 -1.60937,0.32032 -3.23046,0.5586 -4.85937,0.71875 -1.63281,0.16016 -3.26563,0.24219 -4.90625,0.24219 -1.64063,0 -3.27344,-0.082 -4.90625,-0.24219 -1.63281,-0.16015 -3.25,-0.39843 -4.85938,-0.71875 -1.60937,-0.32031 -3.19531,-0.71875 -4.76562,-1.19531 -1.566408,-0.47656 -3.109376,-1.02734 -4.625001,-1.65234 -1.511719,-0.62891 -2.992188,-1.32813 -4.4375,-2.10156 -1.449219,-0.77344 -2.851563,-1.61329 -4.214844,-2.52735 -1.363281,-0.91015 -2.679687,-1.88281 -3.945313,-2.92578 -1.265624,-1.03906 -2.480468,-2.13672 -3.640624,-3.29687 -1.15625,-1.16016 -2.257813,-2.3711 -3.296876,-3.64063 -1.039062,-1.26562 -2.015624,-2.58203 -2.925781,-3.94531 -0.910156,-1.36328 -1.753906,-2.76563 -2.527343,-4.21094 -0.773438,-1.44531 -1.472657,-2.92578 -2.097657,-4.4414 -0.628906,-1.51563 -1.179687,-3.05469 -1.65625,-4.625 -0.476562,-1.57032 -0.875,-3.15625 -1.195312,-4.76563 -0.316407,-1.60547 -0.558594,-3.22656 -0.71875,-4.85937 -0.160157,-1.62891 -0.242188,-3.26563 -0.242188,-4.90625 0,-1.63672 0.08203,-3.27344 0.242188,-4.90625 0.160156,-1.62891 0.402343,-3.250005 0.71875,-4.855474 0.320312,-1.609375 0.71875,-3.199218 1.195312,-4.765625 0.476563,-1.570312 1.027344,-3.113281 1.65625,-4.625 0.625,-1.515625 1.324219,-2.996093 2.097657,-4.441406 0.773437,-1.445313 1.617187,-2.851563 2.527343,-4.214844 0.910157,-1.359375 1.886719,-2.675781 2.925781,-3.945312 1.039063,-1.265625 2.140626,-2.480469 3.296876,-3.636719 1.160156,-1.160156 2.375,-2.261719 3.640624,-3.300781 1.265626,-1.039063 2.582032,-2.015625 3.945313,-2.925781 1.363281,-0.910157 2.765625,-1.75 4.214844,-2.523438 1.445312,-0.773438 2.925781,-1.472656 4.4375,-2.101562 1.515625,-0.628907 3.058593,-1.179688 4.625001,-1.65625 1.57031,-0.472657 3.15625,-0.871094 4.76562,-1.191407 1.60938,-0.320312 3.22657,-0.558593 4.85938,-0.722656 1.63281,-0.160156 3.26562,-0.238281 4.90625,-0.238281 1.64062,0 3.27344,0.07813 4.90625,0.238281 1.62891,0.164063 3.25,0.402344 4.85937,0.722656 1.60547,0.320313 3.19532,0.71875 4.76172,1.191407 1.57031,0.476562 3.11328,1.027343 4.625,1.65625 1.51563,0.628906 2.9961,1.328124 4.44141,2.101562 1.44531,0.773438 2.85156,1.613281 4.21484,2.523438 1.36328,0.910156 2.67578,1.886718 3.94531,2.925781 1.26563,1.039062 2.48047,2.140625 3.64063,3.300781 1.15625,1.15625 2.25781,2.371094 3.29687,3.636719 1.03907,1.269531 2.01563,2.585937 2.92579,3.945312 0.91015,1.363281 1.7539,2.769531 2.52734,4.214844 0.76953,1.445313 1.47266,2.925781 2.09766,4.441406 0.6289,1.511719 1.17968,3.054688 1.65625,4.625 0.47656,1.566407 0.87109,3.15625 1.1914,4.765625 0.32031,1.605469 0.5625,3.226564 0.72266,4.855474 0.16015,1.63281 0.24219,3.26953 0.24219,4.90625 z m 0,0"
       fill-opacity="1"
       fill-rule="nonzero"
       id="path5" />
  </g>
  <g
     fill="#ffffff"
     fill-opacity="1"
     id="g8"
     transform="translate(-25.556099,-19.320312)">
    <g
       transform="translate(84.775368,86.543468)"
       id="g7">
      <g
         id="g6">
        <path
           d="m 5.316406,0 v -4.453125 c 0,-1.539063 -0.652344,-2.324219 -2.21875,-2.324219 h -1.96875 v 1.0625 h 1.863282 c 0.886718,0 1.195312,0.476563 1.195312,1.261719 V -3.8125 H 2.832031 c -1.449219,0 -2.234375,0.554688 -2.234375,1.953125 C 0.597656,-0.625 1.316406,0 2.589844,0 Z M 4.1875,-0.996094 H 2.722656 c -0.664062,0 -0.996094,-0.28125 -0.996094,-0.863281 0,-0.707031 0.320313,-1 1.132813,-1 H 4.1875 Z m 0,0"
           id="path6" />
      </g>
    </g>
  </g>
  <g
     fill="#ffffff"
     fill-opacity="1"
     id="g11"
     transform="translate(-25.556099,-19.320312)">
    <g
       transform="translate(91.017913,86.543468)"
       id="g10">
      <g
         id="g9">
        <path
           d="M 5.648438,0 V -6.777344 H 4.519531 v 5.78125 H 3.191406 c -0.8125,0 -1.132812,-0.558594 -1.132812,-1.261718 V -6.777344 H 0.929688 v 4.519532 C 0.929688,-0.863281 1.609375,0 3.058594,0 Z m 0,0"
           id="path8" />
      </g>
    </g>
  </g>
  <g
     fill="#ffffff"
     fill-opacity="1"
     id="g14"
     transform="translate(-25.556099,-19.320312)">
    <g
       transform="translate(97.592502,86.543468)"
       id="g13">
      <g
         id="g12">
        <path
           d="m 5.117188,-2.058594 c 0,-1.332031 -0.917969,-1.675781 -1.78125,-1.875 L 2.765625,-4.066406 C 2.21875,-4.1875 1.792969,-4.386719 1.792969,-4.890625 c 0,-0.519531 0.308593,-0.824219 1.199219,-0.824219 h 1.992187 v -1.0625 H 2.964844 c -1.515625,0 -2.300782,0.652344 -2.300782,1.980469 0,1.273437 0.851563,1.605469 1.703126,1.804687 l 0.664062,0.160157 c 0.53125,0.132812 0.957031,0.359375 0.957031,0.878906 0,0.664063 -0.507812,0.890625 -1.265625,0.890625 H 0.664062 V 0 h 2.167969 c 1.515625,0 2.285157,-0.570312 2.285157,-2.058594 z m 0,0"
           id="path11" />
      </g>
    </g>
  </g>
  <g
     fill="#ffffff"
     fill-opacity="1"
     id="g17"
     transform="translate(-25.556099,-19.320312)">
    <g
       transform="translate(103.37017,86.543468)"
       id="g16">
      <g
         id="g15">
        <path
           d="M 5.515625,0.199219 V -6.777344 H 2.925781 c -1.449219,0 -2.128906,0.863282 -2.128906,2.257813 v 2.128906 c 0,1.394531 0.679687,2.257813 2.128906,2.257813 h 1.460938 v 0.332031 c 0,0.785156 -0.304688,1.261719 -1.195313,1.261719 H 1.328125 v 1.0625 h 1.96875 c 1.582031,0 2.21875,-0.714844 2.21875,-2.324219 z M 4.386719,-1.128906 H 3.058594 c -0.8125,0 -1.132813,-0.558594 -1.132813,-1.261719 v -2.128906 c 0,-0.703125 0.320313,-1.261719 1.132813,-1.261719 h 1.328125 z m 0,0"
           id="path14" />
      </g>
    </g>
  </g>
  <g
     fill="#ffffff"
     fill-opacity="1"
     id="g20"
     transform="translate(-25.556099,-19.320312)">
    <g
       transform="translate(109.81194,86.543468)"
       id="g19">
      <g
         id="g18">
        <path
           d="m 5.515625,-2.992188 v -1.261718 c 0,-1.5 -0.71875,-2.523438 -2.21875,-2.523438 h -0.28125 c -1.449219,0 -2.21875,0.996094 -2.21875,2.523438 v 1.730468 C 0.796875,-0.824219 1.660156,0 3.191406,0 H 5.183594 V -0.996094 H 3.324219 c -0.917969,0 -1.398438,-0.625 -1.398438,-1.527344 v -0.46875 z M 4.386719,-3.878906 H 1.925781 v -0.507813 c 0,-0.703125 0.28125,-1.394531 1.089844,-1.394531 h 0.28125 c 0.808594,0 1.089844,0.691406 1.089844,1.394531 z m 0,0"
           id="path17" />
      </g>
    </g>
  </g>
  <g
     fill="#ffffff"
     fill-opacity="1"
     id="g23"
     transform="translate(-25.556099,-19.320312)">
    <g
       transform="translate(116.1209,86.543468)"
       id="g22">
      <g
         id="g21">
        <path
           d="m 5.117188,-2.058594 c 0,-1.332031 -0.917969,-1.675781 -1.78125,-1.875 L 2.765625,-4.066406 C 2.21875,-4.1875 1.792969,-4.386719 1.792969,-4.890625 c 0,-0.519531 0.308593,-0.824219 1.199219,-0.824219 h 1.992187 v -1.0625 H 2.964844 c -1.515625,0 -2.300782,0.652344 -2.300782,1.980469 0,1.273437 0.851563,1.605469 1.703126,1.804687 l 0.664062,0.160157 c 0.53125,0.132812 0.957031,0.359375 0.957031,0.878906 0,0.664063 -0.507812,0.890625 -1.265625,0.890625 H 0.664062 V 0 h 2.167969 c 1.515625,0 2.285157,-0.570312 2.285157,-2.058594 z m 0,0"
           id="path20" />
      </g>
    </g>
  </g>
  <g
     fill="#ffffff"
     fill-opacity="1"
     id="g26"
     transform="translate(-25.556099,-19.320312)">
    <g
       transform="translate(121.89857,86.543468)"
       id="g25">
      <g
         id="g24">
        <path
           d="M 4.1875,0 V -1.0625 H 3.164062 c -0.441406,0 -0.707031,-0.28125 -0.707031,-0.773438 V -5.714844 H 4.1875 v -1.0625 H 2.457031 V -8.640625 H 1.328125 v 1.863281 h -1.0625 v 1.0625 h 1.0625 v 3.921875 C 1.328125,-0.453125 2.035156,0 2.925781,0 Z m 0,0"
           id="path23" />
      </g>
    </g>
  </g>
  <g
     fill="#ffffff"
     fill-opacity="1"
     id="g29"
     transform="translate(-25.556099,-19.320312)">
    <g
       transform="translate(126.34804,86.543468)"
       id="g28">
      <g
         id="g27">
        <path
           d="m 5.515625,-2.992188 v -1.261718 c 0,-1.5 -0.71875,-2.523438 -2.21875,-2.523438 h -0.28125 c -1.449219,0 -2.21875,0.996094 -2.21875,2.523438 v 1.730468 C 0.796875,-0.824219 1.660156,0 3.191406,0 H 5.183594 V -0.996094 H 3.324219 c -0.917969,0 -1.398438,-0.625 -1.398438,-1.527344 v -0.46875 z M 4.386719,-3.878906 H 1.925781 v -0.507813 c 0,-0.703125 0.28125,-1.394531 1.089844,-1.394531 h 0.28125 c 0.808594,0 1.089844,0.691406 1.089844,1.394531 z m 0,0"
           id="path26" />
      </g>
    </g>
  </g>
  <g
     fill="#ffffff"
     fill-opacity="1"
     id="g32"
     transform="translate(-25.556099,-19.320312)">
    <g
       transform="translate(132.65699,86.543468)"
       id="g31">
      <g
         id="g30">
        <path
           d="M 2.058594,0 V -9.4375 H 0.929688 V 0 Z m 0,0"
           id="path29" />
      </g>
    </g>
  </g>
  <g
     fill="#ffffff"
     fill-opacity="1"
     id="g35"
     transform="translate(-25.556099,-19.320312)">
    <g
       transform="translate(135.64544,86.543468)"
       id="g34">
      <g
         id="g33">
        <path
           d="M 2.058594,0 V -9.4375 H 0.929688 V 0 Z m 0,0"
           id="path32" />
      </g>
    </g>
  </g>
  <g
     fill="#ffffff"
     fill-opacity="1"
     id="g38"
     transform="translate(-25.556099,-19.320312)">
    <g
       transform="translate(138.63389,86.543468)"
       id="g37">
      <g
         id="g36">
        <path
           d="M 4.1875,0 V -1.0625 H 3.164062 c -0.441406,0 -0.707031,-0.28125 -0.707031,-0.773438 V -5.714844 H 4.1875 v -1.0625 H 2.457031 V -8.640625 H 1.328125 v 1.863281 h -1.0625 v 1.0625 h 1.0625 v 3.921875 C 1.328125,-0.453125 2.035156,0 2.925781,0 Z m 0,0"
           id="path35" />
      </g>
    </g>
  </g>
  <g
     fill="#ffffff"
     fill-opacity="1"
     id="g41"
     transform="translate(-25.556099,-19.320312)">
    <g
       transform="translate(106.68945,104.53387)"
       id="g40">
      <g
         id="g39">
        <path
           d="M 3.65625,-8.371094 V -9.4375 H 2.722656 c -0.980468,0 -1.527344,0.519531 -1.527344,1.664062 v 0.996094 H 0.265625 V -5.78125 H 1.195312 V 0 H 2.324219 V -5.78125 H 3.523438 V -6.777344 H 2.324219 v -0.957031 c 0,-0.492187 0.226562,-0.636719 0.535156,-0.636719 z m 0,0"
           id="path38" />
      </g>
    </g>
  </g>
  <g
     fill="#ffffff"
     fill-opacity="1"
     id="g44"
     transform="translate(-25.556099,-19.320312)">
    <g
       transform="translate(110.47482,104.53387)"
       id="g43">
      <g
         id="g42">
        <path
           d="M 4.984375,-8.304688 V -9.4375 H 3.855469 v 1.132812 z m -2.261719,0 V -9.4375 H 1.59375 v 1.132812 z M 5.648438,0 V -6.777344 H 4.519531 v 5.78125 H 3.191406 c -0.8125,0 -1.132812,-0.558594 -1.132812,-1.261718 V -6.777344 H 0.929688 v 4.519532 C 0.929688,-0.863281 1.609375,0 3.058594,0 Z m 0,0"
           id="path41" />
      </g>
    </g>
  </g>
  <g
     fill="#ffffff"
     fill-opacity="1"
     id="g47"
     transform="translate(-25.556099,-19.320312)">
    <g
       transform="translate(117.04941,104.53387)"
       id="g46">
      <g
         id="g45">
        <path
           d="M 3.855469,-5.726562 V -6.777344 H 2.992188 c -1.449219,0 -2.128907,0.863282 -2.128907,2.257813 V 0 h 1.128907 v -4.519531 c 0,-0.703125 0.320312,-1.207031 1.132812,-1.207031 z m 0,0"
           id="path44" />
      </g>
    </g>
  </g>
  <g
     fill="#ffffff"
     fill-opacity="1"
     id="g50"
     transform="translate(-25.556099,-19.320312)">
    <g
       transform="translate(92.716442,122.52427)"
       id="g49">
      <g
         id="g48">
        <path
           d="M 7.375,0 4.386719,-9.4375 H 3.257812 L 0.265625,0 H 1.460938 L 2.035156,-1.859375 H 5.609375 L 6.179688,0 Z M 5.277344,-2.925781 H 2.367188 l 1.460937,-4.691407 z m 0,0"
           id="path47" />
      </g>
    </g>
  </g>
  <g
     fill="#ffffff"
     fill-opacity="1"
     id="g53"
     transform="translate(-25.556099,-19.320312)">
    <g
       transform="translate(100.3536,122.52427)"
       id="g52">
      <g
         id="g51">
        <path
           d="M 5.515625,0 V -9.4375 H 4.386719 v 2.660156 H 2.925781 c -1.449219,0 -2.128906,0.863282 -2.128906,2.257813 v 2.261719 C 0.796875,-0.863281 1.476562,0 2.925781,0 Z M 4.386719,-0.996094 H 3.058594 c -0.8125,0 -1.132813,-0.558594 -1.132813,-1.261718 v -2.261719 c 0,-0.703125 0.320313,-1.261719 1.132813,-1.261719 h 1.328125 z m 0,0"
           id="path50" />
      </g>
    </g>
  </g>
  <g
     fill="#ffffff"
     fill-opacity="1"
     id="g56"
     transform="translate(-25.556099,-19.320312)">
    <g
       transform="translate(106.79537,122.52427)"
       id="g55">
      <g
         id="g54">
        <path
           d="m 5.316406,0 v -4.453125 c 0,-1.539063 -0.652344,-2.324219 -2.21875,-2.324219 h -1.96875 v 1.0625 h 1.863282 c 0.886718,0 1.195312,0.476563 1.195312,1.261719 V -3.8125 H 2.832031 c -1.449219,0 -2.234375,0.554688 -2.234375,1.953125 C 0.597656,-0.625 1.316406,0 2.589844,0 Z M 4.1875,-0.996094 H 2.722656 c -0.664062,0 -0.996094,-0.28125 -0.996094,-0.863281 0,-0.707031 0.320313,-1 1.132813,-1 H 4.1875 Z m 0,0"
           id="path53" />
      </g>
    </g>
  </g>
  <g
     fill="#ffffff"
     fill-opacity="1"
     id="g59"
     transform="translate(-25.556099,-19.320312)">
    <g
       transform="translate(113.03791,122.52427)"
       id="g58">
      <g
         id="g57">
        <path
           d="M 5.648438,0 3.402344,-3.722656 5.515625,-6.777344 H 4.253906 L 2.140625,-3.722656 4.386719,0 Z M 2.058594,0 V -9.4375 H 0.929688 V 0 Z m 0,0"
           id="path56" />
      </g>
    </g>
  </g>
  <g
     fill="#ffffff"
     fill-opacity="1"
     id="g62"
     transform="translate(-25.556099,-19.320312)">
    <g
       transform="translate(118.81559,122.52427)"
       id="g61">
      <g
         id="g60">
        <path
           d="m 5.515625,-2.257812 v -2.261719 c 0,-1.394531 -0.796875,-2.257813 -2.191406,-2.257813 H 2.992188 c -1.398438,0 -2.195313,0.863282 -2.195313,2.257813 v 2.261719 C 0.796875,-0.863281 1.59375,0 2.992188,0 H 3.324219 C 4.71875,0 5.515625,-0.863281 5.515625,-2.257812 Z m -1.128906,0 c 0,0.703124 -0.414063,1.261718 -1.0625,1.261718 H 2.992188 c -0.652344,0 -1.066407,-0.558594 -1.066407,-1.261718 v -2.261719 c 0,-0.703125 0.414063,-1.261719 1.066407,-1.261719 h 0.332031 c 0.648437,0 1.0625,0.558594 1.0625,1.261719 z m 0,0"
           id="path59" />
      </g>
    </g>
  </g>
  <g
     fill="#ffffff"
     fill-opacity="1"
     id="g65"
     transform="translate(-25.556099,-19.320312)">
    <g
       transform="translate(125.12454,122.52427)"
       id="g64">
      <g
         id="g63">
        <path
           d="m 9.171875,0 v -4.386719 c 0,-1.460937 -0.691406,-2.390625 -2.222656,-2.390625 H 6.671875 c -0.746094,0 -1.289063,0.210938 -1.648437,0.609375 C 4.664062,-6.566406 4.105469,-6.777344 3.363281,-6.777344 h -0.28125 c -1.527343,0 -2.21875,0.929688 -2.21875,2.390625 V 0 h 1.128907 v -4.386719 c 0,-0.703125 0.320312,-1.328125 1.132812,-1.328125 h 0.199219 c 0.808593,0 1.128906,0.625 1.128906,1.328125 V 0 h 1.128906 v -4.386719 c 0,-0.703125 0.320313,-1.328125 1.128907,-1.328125 h 0.199218 c 0.8125,0 1.128906,0.625 1.128906,1.328125 V 0 Z m 0,0"
           id="path62" />
      </g>
    </g>
  </g>
  <g
     fill="#ffffff"
     fill-opacity="1"
     id="g68"
     transform="translate(-25.556099,-19.320312)">
    <g
       transform="translate(98.057342,140.51466)"
       id="g67">
      <g
         id="g66">
        <path
           d="M 6.644531,0 V -5.183594 H 3.523438 v 1.0625 H 5.515625 V -1.0625 H 3.722656 c -1.316406,0 -1.796875,-0.972656 -1.796875,-1.996094 v -3.054687 c 0,-1.277344 0.585938,-2.257813 2.0625,-2.257813 H 6.378906 V -9.4375 H 3.988281 c -2.179687,0 -3.191406,1.304688 -3.191406,3.324219 v 3.054687 C 0.796875,-1.289062 1.6875,0 3.722656,0 Z m 0,0"
           id="path65" />
      </g>
    </g>
  </g>
  <g
     fill="#ffffff"
     fill-opacity="1"
     id="g71"
     transform="translate(-25.556099,-19.320312)">
    <g
       transform="translate(105.62809,140.51466)"
       id="g70">
      <g
         id="g69">
        <path
           d="m 9.171875,0 v -4.386719 c 0,-1.460937 -0.691406,-2.390625 -2.222656,-2.390625 H 6.671875 c -0.746094,0 -1.289063,0.210938 -1.648437,0.609375 C 4.664062,-6.566406 4.105469,-6.777344 3.363281,-6.777344 h -0.28125 c -1.527343,0 -2.21875,0.929688 -2.21875,2.390625 V 0 h 1.128907 v -4.386719 c 0,-0.703125 0.320312,-1.328125 1.132812,-1.328125 h 0.199219 c 0.808593,0 1.128906,0.625 1.128906,1.328125 V 0 h 1.128906 v -4.386719 c 0,-0.703125 0.320313,-1.328125 1.128907,-1.328125 h 0.199218 c 0.8125,0 1.128906,0.625 1.128906,1.328125 V 0 Z m 0,0"
           id="path68" />
      </g>
    </g>
  </g>
  <g
     fill="#ffffff"
     fill-opacity="1"
     id="g74"
     transform="translate(-25.556099,-19.320312)">
    <g
       transform="translate(115.656,140.51466)"
       id="g73">
      <g
         id="g72">
        <path
           d="m 5.648438,-2.257812 v -2.261719 c 0,-1.394531 -0.679688,-2.257813 -2.125,-2.257813 H 2.058594 V -9.4375 H 0.929688 V 0 h 2.59375 c 1.445312,0 2.125,-0.863281 2.125,-2.257812 z m -1.128907,0 c 0,0.703124 -0.320312,1.261718 -1.128906,1.261718 H 2.058594 V -5.78125 h 1.332031 c 0.808594,0 1.128906,0.558594 1.128906,1.261719 z m 0,0"
           id="path71" />
      </g>
    </g>
  </g>
  <g
     fill="#ffffff"
     fill-opacity="1"
     id="g77"
     transform="translate(-25.556099,-19.320312)">
    <g
       transform="translate(122.09777,140.51466)"
       id="g76">
      <g
         id="g75">
        <path
           d="M 6.777344,0 V -9.4375 H 5.648438 v 4.121094 H 2.058594 V -9.4375 H 0.929688 V 0 H 2.058594 V -4.253906 H 5.648438 V 0 Z m 0,0"
           id="path74" />
      </g>
    </g>
  </g>
  <g
     fill="#ffffff"
     fill-opacity="1"
     id="g80"
     transform="translate(-25.556099,-19.320312)">
    <g
       transform="translate(74.835988,53.177035)"
       id="g79">
      <g
         id="g78">
        <path
           d="m -2.96875,-9.09375 0.296875,-0.171875 c 0.28125,-0.175781 0.53125,-0.382813 0.75,-0.625 0.21875,-0.25 0.390625,-0.507813 0.515625,-0.78125 0.125,-0.269531 0.195312,-0.550781 0.203125,-0.84375 0,-0.289063 -0.0625,-0.582031 -0.1875,-0.875 l 0.9375,-0.546875 5.8125,9.75 -1.3125,0.78125 -4.375,-7.328125 -2.234375,1.328125 z m 0,0"
           id="path77" />
      </g>
    </g>
  </g>
  <g
     fill="#ffffff"
     fill-opacity="1"
     id="g83"
     transform="translate(-25.556099,-19.320312)">
    <g
       transform="translate(82.374414,48.633456)"
       id="g82">
      <g
         id="g81">
        <path
           d="M 3.71875,-5.84375 1.5625,-10.859375 0.15625,-4.3125 Z m -4.40625,3.296875 -0.5,-1.1875 1.96875,-8.953125 1.421875,-0.609375 2.9375,6.84375 1.625,-0.703125 0.5,1.1875 -1.625,0.703125 1.03125,2.40625 L 5.25,-2.25 4.21875,-4.65625 Z m 0,0"
           id="path80" />
      </g>
    </g>
  </g>
  <g
     fill="#ffffff"
     fill-opacity="1"
     id="g86"
     transform="translate(-25.556099,-19.320312)">
    <g
       transform="translate(90.617539,45.19799)"
       id="g85">
      <g
         id="g84">
        <path
           d="m 1.109375,-2.203125 1.53125,-0.46875 0.53125,1.6875 -1.53125,0.46875 z m 0,0"
           id="path83" />
      </g>
    </g>
  </g>
  <g
     fill="#ffffff"
     fill-opacity="1"
     id="g89"
     transform="translate(-25.556099,-19.320312)">
    <g
       transform="translate(94.951253,43.705559)"
       id="g88">
      <g
         id="g87">
        <path
           d="m 4.421875,-1.859375 c 0.445313,-0.082031 0.796875,-0.28125 1.046875,-0.59375 0.257812,-0.3125 0.441406,-0.695313 0.546875,-1.15625 C 6.117188,-4.066406 6.15625,-4.582031 6.125,-5.15625 6.101562,-5.738281 6.03125,-6.347656 5.90625,-6.984375 c -0.136719,-0.644531 -0.304688,-1.238281 -0.5,-1.78125 -0.199219,-0.539063 -0.4375,-1 -0.71875,-1.375 -0.273438,-0.382813 -0.585938,-0.664063 -0.9375,-0.84375 -0.355469,-0.1875 -0.757812,-0.238281 -1.203125,-0.15625 -0.449219,0.09375 -0.804687,0.296875 -1.0625,0.609375 -0.261719,0.304688 -0.445313,0.683594 -0.546875,1.140625 -0.09375,0.460937 -0.132812,0.980469 -0.109375,1.5625 C 0.847656,-7.253906 0.925781,-6.644531 1.0625,-6 c 0.125,0.636719 0.285156,1.226562 0.484375,1.765625 0.207031,0.542969 0.445313,1.007813 0.71875,1.390625 0.269531,0.375 0.582031,0.65625 0.9375,0.84375 0.363281,0.1875 0.769531,0.234375 1.21875,0.140625 z m 0.25,1.265625 C 4.535156,-0.5625 4.34375,-0.535156 4.09375,-0.515625 c -0.25,0.023437 -0.53125,0 -0.84375,-0.0625 -0.3125,-0.0625 -0.640625,-0.1875 -0.984375,-0.375 -0.34375,-0.1875 -0.6875,-0.46875 -1.03125,-0.84375 -0.335937,-0.382813 -0.648437,-0.894531 -0.9375,-1.53125 -0.28125,-0.632813 -0.515625,-1.425781 -0.703125,-2.375 -0.195312,-0.957031 -0.285156,-1.78125 -0.265625,-2.46875 0.023437,-0.6875 0.117187,-1.273437 0.28125,-1.765625 0.15625,-0.5 0.3554688,-0.894531 0.59375,-1.1875 0.238281,-0.300781 0.488281,-0.539062 0.75,-0.71875 0.269531,-0.1875 0.523437,-0.316406 0.765625,-0.390625 0.238281,-0.07031 0.425781,-0.125 0.5625,-0.15625 0.144531,-0.03125 0.335938,-0.05469 0.578125,-0.07813 0.25,-0.01953 0.53125,0 0.84375,0.0625 0.320313,0.0625 0.65625,0.183594 1,0.359375 0.351563,0.179687 0.695313,0.464844 1.03125,0.859375 0.332031,0.398438 0.640625,0.90625 0.921875,1.53125 0.28125,0.625 0.519531,1.417969 0.71875,2.375 0.1875,0.949219 0.269531,1.773438 0.25,2.46875 -0.011719,0.699219 -0.09375,1.289062 -0.25,1.765625 -0.15625,0.480469 -0.359375,0.875 -0.609375,1.1875 C 6.523438,-1.554688 6.269531,-1.3125 6,-1.125 5.726562,-0.945312 5.472656,-0.820312 5.234375,-0.75 c -0.230469,0.074219 -0.417969,0.125 -0.5625,0.15625 z m 0,0"
           id="path86" />
      </g>
    </g>
  </g>
  <g
     fill="#ffffff"
     fill-opacity="1"
     id="g92"
     transform="translate(-25.556099,-19.320312)">
    <g
       transform="translate(103.56974,41.918472)"
       id="g91">
      <g
         id="g90">
        <path
           d="m 2.0625,-3.78125 c 0.03125,0.355469 0.109375,0.695312 0.234375,1.015625 0.125,0.324219 0.296875,0.605469 0.515625,0.84375 0.226562,0.242187 0.503906,0.429687 0.828125,0.5625 0.320313,0.136719 0.695313,0.1875 1.125,0.15625 0.425781,-0.019531 0.78125,-0.117187 1.0625,-0.296875 0.289063,-0.175781 0.519531,-0.40625 0.6875,-0.6875 0.175781,-0.28125 0.300781,-0.585938 0.375,-0.921875 0.070313,-0.34375 0.09375,-0.691406 0.0625,-1.046875 C 6.929688,-4.5 6.859375,-4.820312 6.734375,-5.125 c -0.117187,-0.300781 -0.28125,-0.5625 -0.5,-0.78125 -0.210937,-0.226562 -0.46875,-0.398438 -0.78125,-0.515625 -0.3125,-0.125 -0.671875,-0.175781 -1.078125,-0.15625 -0.804688,0.0625 -1.402344,0.355469 -1.796875,0.875 C 2.191406,-5.191406 2.019531,-4.550781 2.0625,-3.78125 Z M 6.546875,-9.3125 c -0.125,-0.394531 -0.292969,-0.695312 -0.5,-0.90625 C 5.835938,-10.425781 5.625,-10.570312 5.40625,-10.65625 5.1875,-10.75 4.96875,-10.796875 4.75,-10.796875 c -0.21875,-0.0078 -0.382812,-0.0078 -0.484375,0 -0.59375,0.04297 -1.0625,0.210937 -1.40625,0.5 -0.335937,0.292969 -0.585937,0.65625 -0.75,1.09375 -0.167969,0.429687 -0.273437,0.890625 -0.3125,1.390625 -0.03125,0.5 -0.03125,0.96875 0,1.40625 l 0.03125,-0.015625 c 0.300781,-0.457031 0.691406,-0.789063 1.171875,-1 0.488281,-0.21875 0.992188,-0.34375 1.515625,-0.375 0.519531,-0.039063 1.003906,0.015625 1.453125,0.171875 0.457031,0.148438 0.863281,0.371094 1.21875,0.671875 0.351562,0.292969 0.632812,0.667969 0.84375,1.125 0.207031,0.460937 0.332031,0.992187 0.375,1.59375 0.039062,0.574219 -0.011719,1.117187 -0.15625,1.625 -0.136719,0.5 -0.359375,0.945313 -0.671875,1.328125 C 7.273438,-0.90625 6.882812,-0.601562 6.40625,-0.375 5.9375,-0.144531 5.394531,-0.0078125 4.78125,0.03125 4.15625,0.0703125 3.585938,0.0195312 3.078125,-0.125 2.566406,-0.28125 2.117188,-0.570312 1.734375,-1 1.359375,-1.425781 1.050781,-2.007812 0.8125,-2.75 0.582031,-3.488281 0.425781,-4.425781 0.34375,-5.5625 c -0.0625,-1 -0.039062,-1.851562 0.078125,-2.5625 0.125,-0.71875 0.300781,-1.316406 0.53125,-1.796875 0.226563,-0.476563 0.492187,-0.847656 0.796875,-1.109375 0.3125,-0.269531 0.613281,-0.472656 0.90625,-0.609375 0.300781,-0.144531 0.585938,-0.234375 0.859375,-0.265625 0.28125,-0.03906 0.507813,-0.06641 0.6875,-0.07813 0.15625,-0.0078 0.40625,-0.0078 0.75,0 0.351563,0.01172 0.71875,0.101563 1.09375,0.265625 0.375,0.15625 0.738281,0.414062 1.09375,0.765625 0.351563,0.34375 0.609375,0.859375 0.765625,1.546875 z m 0,0"
           id="path89" />
      </g>
    </g>
  </g>
  <g
     fill="#ffffff"
     fill-opacity="1"
     id="g95"
     transform="translate(-25.556099,-19.320312)">
    <g
       transform="translate(112.48554,41.411116)"
       id="g94">
      <g
         id="g93">
        <path
           d="m 1.78125,-1.703125 1.609375,0.0625 L 3.328125,0.125 1.71875,0.0625 Z m 0,0"
           id="path92" />
      </g>
    </g>
  </g>
  <g
     fill="#ffffff"
     fill-opacity="1"
     id="g98"
     transform="translate(-25.556099,-19.320312)">
    <g
       transform="translate(117.06906,41.439352)"
       id="g97">
      <g
         id="g96">
        <path
           d="M 8.53125,1.1875 0.90625,0.125 C 1,-0.539062 1.171875,-1.109375 1.421875,-1.578125 c 0.257813,-0.46875 0.585937,-0.875 0.984375,-1.21875 0.394531,-0.34375 0.847656,-0.640625 1.359375,-0.890625 0.519531,-0.25 1.078125,-0.507812 1.671875,-0.78125 0.257812,-0.125 0.53125,-0.25 0.8125,-0.375 0.289062,-0.132812 0.566406,-0.304688 0.828125,-0.515625 0.269531,-0.207031 0.503906,-0.457031 0.703125,-0.75 C 7.976562,-6.398438 8.109375,-6.757812 8.171875,-7.1875 8.265625,-7.894531 8.125,-8.457031 7.75,-8.875 7.382812,-9.300781 6.863281,-9.5625 6.1875,-9.65625 5.476562,-9.75 4.882812,-9.617188 4.40625,-9.265625 c -0.46875,0.34375 -0.75,0.855469 -0.84375,1.53125 L 3.5,-7.3125 2,-7.53125 2.046875,-7.875 C 2.085938,-8.132812 2.175781,-8.457031 2.3125,-8.84375 2.445312,-9.226562 2.675781,-9.59375 3,-9.9375 c 0.332031,-0.34375 0.769531,-0.617188 1.3125,-0.828125 0.539062,-0.21875 1.238281,-0.265625 2.09375,-0.140625 0.582031,0.07422 1.09375,0.226562 1.53125,0.453125 0.445312,0.21875 0.8125,0.496094 1.09375,0.828125 0.28125,0.324219 0.476562,0.714844 0.59375,1.171875 0.125,0.449219 0.148438,0.9375 0.078125,1.46875 C 9.628906,-6.453125 9.5,-6.007812 9.3125,-5.65625 9.132812,-5.300781 8.878906,-4.984375 8.546875,-4.703125 8.210938,-4.429688 7.789062,-4.164062 7.28125,-3.90625 c -0.5,0.261719 -1.105469,0.546875 -1.8125,0.859375 -0.824219,0.386719 -1.445312,0.742187 -1.859375,1.0625 C 3.203125,-1.660156 2.914062,-1.300781 2.75,-0.90625 l 5.953125,0.828125 z m 0,0"
           id="path95" />
      </g>
    </g>
  </g>
  <g
     fill="#ffffff"
     fill-opacity="1"
     id="g101"
     transform="translate(-25.556099,-19.320312)">
    <g
       transform="translate(125.79256,42.610933)"
       id="g100">
      <g
         id="g99">
        <path
           d="m 4.78125,0.359375 c 0.4375,0.113281 0.835938,0.09375 1.203125,-0.0625 C 6.359375,0.140625 6.695312,-0.117188 7,-0.484375 7.300781,-0.847656 7.570312,-1.289062 7.8125,-1.8125 c 0.238281,-0.53125 0.441406,-1.109375 0.609375,-1.734375 0.175781,-0.625 0.300781,-1.222656 0.375,-1.796875 0.070313,-0.582031 0.070313,-1.101562 0,-1.5625 C 8.722656,-7.363281 8.566406,-7.757812 8.328125,-8.09375 8.085938,-8.425781 7.75,-8.648438 7.3125,-8.765625 c -0.4375,-0.125 -0.839844,-0.101563 -1.203125,0.0625 -0.367187,0.15625 -0.699219,0.417969 -1,0.78125 C 4.804688,-7.566406 4.535156,-7.125 4.296875,-6.59375 4.054688,-6.070312 3.847656,-5.5 3.671875,-4.875 3.503906,-4.25 3.382812,-3.644531 3.3125,-3.0625 c -0.074219,0.574219 -0.074219,1.09375 0,1.5625 0.070312,0.460938 0.222656,0.855469 0.453125,1.1875 C 4.003906,0.0078125 4.34375,0.234375 4.78125,0.359375 Z M 4.4375,1.59375 C 4.300781,1.550781 4.113281,1.484375 3.875,1.390625 3.644531,1.296875 3.40625,1.148438 3.15625,0.953125 2.90625,0.753906 2.664062,0.492188 2.4375,0.171875 2.21875,-0.140625 2.046875,-0.539062 1.921875,-1.03125 1.804688,-1.53125 1.757812,-2.125 1.78125,-2.8125 c 0.03125,-0.695312 0.175781,-1.515625 0.4375,-2.453125 0.257812,-0.9375 0.554688,-1.707031 0.890625,-2.3125 0.332031,-0.613281 0.675781,-1.097656 1.03125,-1.453125 0.363281,-0.363281 0.722656,-0.625 1.078125,-0.78125 0.363281,-0.164062 0.703125,-0.269531 1.015625,-0.3125 0.320313,-0.03906 0.601563,-0.03906 0.84375,0 0.25,0.04297 0.441406,0.08594 0.578125,0.125 0.132812,0.03125 0.316406,0.09375 0.546875,0.1875 0.238281,0.09375 0.484375,0.242188 0.734375,0.4375 0.257812,0.199219 0.5,0.460938 0.71875,0.78125 0.226562,0.324219 0.398438,0.734375 0.515625,1.234375 0.125,0.492187 0.171875,1.085937 0.140625,1.78125 -0.03125,0.6875 -0.179688,1.5 -0.4375,2.4375 C 9.613281,-2.203125 9.316406,-1.425781 8.984375,-0.8125 8.660156,-0.207031 8.316406,0.269531 7.953125,0.625 7.597656,0.988281 7.238281,1.25 6.875,1.40625 6.519531,1.5625 6.179688,1.660156 5.859375,1.703125 5.535156,1.742188 5.25,1.742188 5,1.703125 4.757812,1.660156 4.570312,1.625 4.4375,1.59375 Z m 0,0"
           id="path98" />
      </g>
    </g>
  </g>
  <g
     fill="#ffffff"
     fill-opacity="1"
     id="g104"
     transform="translate(-25.556099,-19.320312)">
    <g
       transform="translate(134.28306,44.931131)"
       id="g103">
      <g
         id="g102">
        <path
           d="M 7.921875,3.390625 0.84375,0.359375 c 0.269531,-0.625 0.585938,-1.128906 0.953125,-1.515625 0.363281,-0.382812 0.785156,-0.6875 1.265625,-0.90625 0.476562,-0.21875 0.992188,-0.382812 1.546875,-0.5 C 5.171875,-2.675781 5.769531,-2.78125 6.40625,-2.875 6.695312,-2.925781 7,-2.972656 7.3125,-3.015625 7.625,-3.066406 7.9375,-3.160156 8.25,-3.296875 8.5625,-3.429688 8.847656,-3.613281 9.109375,-3.84375 9.367188,-4.070312 9.582031,-4.378906 9.75,-4.765625 c 0.289062,-0.664063 0.3125,-1.25 0.0625,-1.75 -0.242188,-0.5 -0.679688,-0.882813 -1.3125,-1.15625 -0.65625,-0.28125 -1.261719,-0.316406 -1.8125,-0.109375 -0.554688,0.199219 -0.964844,0.617188 -1.234375,1.25 l -0.15625,0.390625 -1.375,-0.59375 0.140625,-0.3125 c 0.09375,-0.238281 0.257812,-0.53125 0.5,-0.875 0.238281,-0.34375 0.554688,-0.632813 0.953125,-0.875 0.40625,-0.25 0.894531,-0.40625 1.46875,-0.46875 0.582031,-0.0625 1.269531,0.078125 2.0625,0.421875 0.53125,0.230469 0.984375,0.511719 1.359375,0.84375 0.375,0.324219 0.65625,0.683594 0.84375,1.078125 0.1875,0.398437 0.273438,0.828125 0.265625,1.296875 -0.01172,0.46875 -0.121094,0.953125 -0.328125,1.453125 -0.210938,0.492187 -0.449219,0.882813 -0.71875,1.171875 -0.273438,0.292969 -0.605469,0.53125 -1,0.71875 C 9.082031,-2.101562 8.613281,-1.957031 8.0625,-1.84375 7.507812,-1.726562 6.847656,-1.613281 6.078125,-1.5 5.171875,-1.34375 4.476562,-1.160156 4,-0.953125 3.53125,-0.742188 3.164062,-0.472656 2.90625,-0.140625 L 8.421875,2.21875 Z m 0,0"
           id="path101" />
      </g>
    </g>
  </g>
  <g
     fill="#ffffff"
     fill-opacity="1"
     id="g107"
     transform="translate(-25.556099,-19.320312)">
    <g
       transform="translate(142.39004,48.358816)"
       id="g106">
      <g
         id="g105">
        <path
           d="M 7.390625,4.40625 0.796875,0.46875 C 1.140625,-0.113281 1.519531,-0.566406 1.9375,-0.890625 2.351562,-1.222656 2.8125,-1.46875 3.3125,-1.625 3.8125,-1.789062 4.34375,-1.890625 4.90625,-1.921875 5.476562,-1.960938 6.09375,-1.988281 6.75,-2 7.03125,-2.007812 7.328125,-2.015625 7.640625,-2.015625 7.960938,-2.023438 8.285156,-2.070312 8.609375,-2.15625 8.941406,-2.25 9.253906,-2.390625 9.546875,-2.578125 9.835938,-2.773438 10.09375,-3.0625 10.3125,-3.4375 10.675781,-4.050781 10.769531,-4.625 10.59375,-5.15625 10.414062,-5.6875 10.035156,-6.128906 9.453125,-6.484375 8.828125,-6.847656 8.226562,-6.960938 7.65625,-6.828125 7.09375,-6.703125 6.632812,-6.34375 6.28125,-5.75 L 6.078125,-5.390625 4.78125,-6.15625 4.953125,-6.453125 c 0.132813,-0.21875 0.34375,-0.476563 0.625,-0.78125 0.28125,-0.3125 0.632813,-0.5625 1.0625,-0.75 0.4375,-0.195313 0.941406,-0.285156 1.515625,-0.265625 0.582031,0.023438 1.242188,0.257812 1.984375,0.703125 0.5,0.292969 0.910156,0.625 1.234375,1 0.332031,0.375 0.5625,0.773437 0.6875,1.1875 0.132812,0.417969 0.164062,0.855469 0.09375,1.3125 -0.0625,0.460937 -0.234375,0.921875 -0.515625,1.390625 -0.273437,0.449219 -0.5625,0.804688 -0.875,1.0625 -0.304687,0.25 -0.664063,0.445312 -1.078125,0.578125 -0.40625,0.125 -0.890625,0.210937 -1.453125,0.25 C 7.671875,-0.722656 7,-0.691406 6.21875,-0.671875 c -0.917969,0.023437 -1.625,0.105469 -2.125,0.25 -0.5,0.148437 -0.902344,0.3710938 -1.203125,0.671875 l 5.15625,3.0625 z m 0,0"
           id="path104" />
      </g>
    </g>
  </g>
  <g
     fill="#ffffff"
     fill-opacity="1"
     id="g110"
     transform="translate(-25.556099,-19.320312)">
    <g
       transform="translate(55.553461,68.868871)"
       id="g109">
      <g
         id="g108" />
    </g>
  </g>
  <g
     fill="#ffffff"
     fill-opacity="1"
     id="g113"
     transform="translate(-25.556099,-19.320312)">
    <g
       transform="translate(53.158439,72.192806)"
       id="g112">
      <g
         id="g111">
        <path
           d="m 5.765625,12.265625 -0.921875,1.75 L 3.03125,7.90625 -4.875,9.203125 -3.96875,7.484375 2.671875,6.515625 1.984375,4.1875 -1.296875,2.453125 -0.609375,1.15625 8.96875,6.234375 8.28125,7.53125 3.53125,5.015625 Z m 0,0"
           id="path110" />
      </g>
    </g>
  </g>
  <g
     fill="#ffffff"
     fill-opacity="1"
     id="g116"
     transform="translate(-25.556099,-19.320312)">
    <g
       transform="translate(48.101584,81.945432)"
       id="g115">
      <g
         id="g114">
        <path
           d="M 2.015625,7.890625 C 2.253906,7.972656 2.53125,8.035156 2.84375,8.078125 3.15625,8.128906 3.460938,8.125 3.765625,8.0625 4.078125,8 4.359375,7.863281 4.609375,7.65625 4.867188,7.457031 5.078125,7.15625 5.234375,6.75 5.398438,6.269531 5.453125,5.847656 5.390625,5.484375 5.335938,5.128906 5.210938,4.816406 5.015625,4.546875 4.828125,4.285156 4.597656,4.070312 4.328125,3.90625 4.066406,3.75 3.820312,3.628906 3.59375,3.546875 Z m -2.640625,0.5 C -0.863281,8.242188 -1.101562,8.050781 -1.34375,7.8125 -1.582031,7.582031 -1.773438,7.296875 -1.921875,6.953125 -2.066406,6.617188 -2.144531,6.226562 -2.15625,5.78125 -2.175781,5.34375 -2.085938,4.835938 -1.890625,4.265625 -1.660156,3.648438 -1.382812,3.160156 -1.0625,2.796875 -0.75,2.441406 -0.410156,2.171875 -0.046875,1.984375 0.304688,1.796875 0.664062,1.679688 1.03125,1.640625 1.394531,1.597656 1.734375,1.59375 2.046875,1.625 c 0.320313,0.03125 0.601563,0.082031 0.84375,0.15625 0.25,0.070312 0.429687,0.128906 0.546875,0.171875 0.164062,0.0625 0.378906,0.148437 0.640625,0.265625 0.257813,0.125 0.523437,0.273438 0.796875,0.453125 0.269531,0.175781 0.523438,0.394531 0.765625,0.65625 0.238281,0.269531 0.429687,0.582031 0.578125,0.9375 0.144531,0.363281 0.222656,0.769531 0.234375,1.21875 C 6.472656,5.941406 6.375,6.460938 6.15625,7.046875 5.894531,7.773438 5.550781,8.3125 5.125,8.65625 4.707031,9.007812 4.257812,9.234375 3.78125,9.328125 3.300781,9.429688 2.816406,9.441406 2.328125,9.359375 1.847656,9.273438 1.40625,9.171875 1,9.046875 0.9375,9.023438 0.875,9.003906 0.8125,8.984375 0.75,8.960938 0.6875,8.941406 0.625,8.921875 L 2.6875,3.21875 C 2.363281,3.101562 2.019531,3.03125 1.65625,3 1.300781,2.96875 0.953125,2.992188 0.609375,3.078125 0.273438,3.160156 -0.03125,3.316406 -0.3125,3.546875 c -0.28125,0.238281 -0.5,0.570313 -0.65625,1 -0.101562,0.289063 -0.15625,0.570313 -0.15625,0.84375 -0.00781,0.28125 0.027344,0.53125 0.109375,0.75 0.074219,0.226563 0.183594,0.425781 0.328125,0.59375 0.148438,0.175781 0.320312,0.316406 0.515625,0.421875 z m 0,0"
           id="path113" />
      </g>
    </g>
  </g>
  <g
     fill="#ffffff"
     fill-opacity="1"
     id="g119"
     transform="translate(-25.556099,-19.320312)">
    <g
       transform="translate(45.076886,90.680834)"
       id="g118">
      <g
         id="g117">
        <path
           d="M 9.84375,5.171875 -0.640625,2.40625 -0.28125,1.078125 10.203125,3.84375 Z m 0,0"
           id="path116" />
      </g>
    </g>
  </g>
  <g
     fill="#ffffff"
     fill-opacity="1"
     id="g122"
     transform="translate(-25.556099,-19.320312)">
    <g
       transform="translate(44.008068,94.499176)"
       id="g121">
      <g
         id="g120">
        <path
           d="M 6.703125,7.1875 6.4375,8.625 -0.796875,4.359375 -0.515625,2.8125 7.765625,1.34375 7.5,2.796875 0.6875,3.828125 Z m 0,0"
           id="path119" />
      </g>
    </g>
  </g>
  <g
     fill="#ffffff"
     fill-opacity="1"
     id="g125"
     transform="translate(-25.556099,-19.320312)">
    <g
       transform="translate(42.731461,102.03538)"
       id="g124">
      <g
         id="g123">
        <path
           d="M 10.671875,2.171875 10.53125,3.53125 9.125,3.390625 9.265625,2.03125 Z M 7.578125,3.234375 -0.25,2.4375 -0.109375,1.078125 7.71875,1.875 Z m 0,0"
           id="path122" />
      </g>
    </g>
  </g>
  <g
     fill="#ffffff"
     fill-opacity="1"
     id="g128"
     transform="translate(-25.556099,-19.320312)">
    <g
       transform="translate(42.226832,105.96799)"
       id="g127">
      <g
         id="g126">
        <path
           d="m 3.9375,2.140625 c -0.78125,0 -1.402344,0.09375 -1.859375,0.28125 -0.449219,0.195313 -0.78125,0.425781 -1,0.6875 C 0.867188,3.367188 0.738281,3.632812 0.6875,3.90625 0.632812,4.175781 0.609375,4.390625 0.609375,4.546875 c 0,0.15625 0.019531,0.363281 0.0625,0.625 0.050781,0.269531 0.179687,0.539063 0.390625,0.8125 0.207031,0.28125 0.535156,0.519531 0.984375,0.71875 C 2.492188,6.898438 3.109375,7 3.890625,7 c 0.78125,0.00781 1.394531,-0.078125 1.84375,-0.265625 0.445313,-0.1875 0.78125,-0.417969 1,-0.6875 0.21875,-0.273437 0.347656,-0.542969 0.390625,-0.8125 0.050781,-0.261719 0.078125,-0.46875 0.078125,-0.625 0,-0.15625 -0.023437,-0.371094 -0.0625,-0.640625 C 7.097656,3.695312 6.96875,3.425781 6.75,3.15625 6.539062,2.894531 6.210938,2.660156 5.765625,2.453125 5.328125,2.253906 4.71875,2.148438 3.9375,2.140625 Z m 0,-1.4375 c 0.53125,0.007813 1.046875,0.082031 1.546875,0.21875 0.5,0.132813 0.945313,0.351563 1.34375,0.65625 0.394531,0.3125 0.710937,0.71875 0.953125,1.21875 0.25,0.5 0.367188,1.109375 0.359375,1.828125 0,0.707031 -0.132813,1.304688 -0.390625,1.796875 -0.25,0.488281 -0.578125,0.882813 -0.984375,1.1875 -0.398437,0.3125 -0.851563,0.53125 -1.359375,0.65625 -0.5,0.132813 -1.015625,0.195313 -1.546875,0.1875 -0.53125,0 -1.054687,-0.074219 -1.5625,-0.21875 C 1.796875,8.097656 1.347656,7.875 0.953125,7.5625 0.566406,7.25 0.25,6.84375 0,6.34375 -0.238281,5.851562 -0.359375,5.253906 -0.359375,4.546875 -0.347656,3.828125 -0.21875,3.21875 0.03125,2.71875 0.289062,2.226562 0.617188,1.832031 1.015625,1.53125 1.410156,1.226562 1.863281,1.015625 2.375,0.890625 c 0.507812,-0.125 1.03125,-0.1875 1.5625,-0.1875 z m 0,0"
           id="path125" />
      </g>
    </g>
  </g>
  <g
     fill="#ffffff"
     fill-opacity="1"
     id="g131"
     transform="translate(-25.556099,-19.320312)">
    <g
       transform="translate(42.18391,115.65661)"
       id="g130">
      <g
         id="g129">
        <path
           d="M 8.109375,1.515625 7.03125,1.65625 C 7.445312,1.875 7.816406,2.191406 8.140625,2.609375 8.472656,3.023438 8.675781,3.539062 8.75,4.15625 8.8125,4.664062 8.78125,5.097656 8.65625,5.453125 8.539062,5.804688 8.359375,6.09375 8.109375,6.3125 c -0.242187,0.21875 -0.53125,0.382812 -0.875,0.5 -0.34375,0.125 -0.710937,0.210938 -1.09375,0.265625 L 0.9375,7.703125 0.765625,6.359375 5.5625,5.78125 C 5.757812,5.75 5.992188,5.707031 6.265625,5.65625 6.546875,5.613281 6.804688,5.523438 7.046875,5.390625 c 0.238281,-0.125 0.425781,-0.3125 0.5625,-0.5625 C 7.742188,4.578125 7.789062,4.25 7.75,3.84375 7.71875,3.65625 7.65625,3.4375 7.5625,3.1875 7.46875,2.9375 7.304688,2.703125 7.078125,2.484375 6.859375,2.273438 6.546875,2.113281 6.140625,2 5.734375,1.882812 5.207031,1.867188 4.5625,1.953125 l -4.265625,0.515625 -0.15625,-1.375 7.8125,-0.953125 z m 0,0"
           id="path128" />
      </g>
    </g>
  </g>
  <g
     fill="#ffffff"
     fill-opacity="1"
     id="g134"
     transform="translate(-25.556099,-19.320312)">
    <g
       transform="translate(43.441714,124.86477)"
       id="g133">
      <g
         id="g132" />
    </g>
  </g>
  <g
     fill="#ffffff"
     fill-opacity="1"
     id="g137"
     transform="translate(-25.556099,-19.320312)">
    <g
       transform="translate(44.137478,128.92763)"
       id="g136">
      <g
         id="g135">
        <path
           d="M 6.671875,8.8125 C 6.273438,8.882812 5.835938,8.914062 5.359375,8.90625 4.890625,8.894531 4.410156,8.785156 3.921875,8.578125 3.441406,8.378906 2.988281,8.050781 2.5625,7.59375 2.132812,7.132812 1.785156,6.492188 1.515625,5.671875 1.265625,4.910156 1.160156,4.179688 1.203125,3.484375 1.253906,2.796875 1.4375,2.164062 1.75,1.59375 c 0.3125,-0.5625 0.753906,-1.0625 1.328125,-1.5 0.582031,-0.4375 1.285156,-0.789062 2.109375,-1.0625 0.925781,-0.300781 1.738281,-0.457031 2.4375,-0.46875 0.695312,-0.00781 1.300781,0.074219 1.8125,0.25 0.519531,0.179688 0.957031,0.417969 1.3125,0.71875 0.363281,0.304688 0.660156,0.613281 0.890625,0.9375 0.226563,0.320312 0.398437,0.625 0.515625,0.90625 0.125,0.289062 0.210938,0.507812 0.265625,0.65625 0.269531,0.820312 0.382813,1.53125 0.34375,2.125 -0.04297,0.601562 -0.179687,1.125 -0.40625,1.5625 -0.230469,0.4375 -0.527344,0.789062 -0.890625,1.0625 -0.367188,0.28125 -0.742188,0.503906 -1.125,0.671875 L 9.890625,6.0625 c 0.175781,-0.085938 0.382813,-0.210938 0.625,-0.375 C 10.753906,5.519531 10.960938,5.289062 11.140625,5 11.316406,4.71875 11.429688,4.363281 11.484375,3.9375 11.535156,3.507812 11.460938,3 11.265625,2.40625 11.054688,1.769531 10.753906,1.273438 10.359375,0.921875 9.960938,0.566406 9.515625,0.328125 9.015625,0.203125 8.523438,0.0859375 7.992188,0.0546875 7.421875,0.109375 c -0.5625,0.0625 -1.125,0.1875 -1.6875,0.375 -0.59375,0.195313 -1.121094,0.457031 -1.578125,0.78125 -0.460938,0.320313 -0.828125,0.695313 -1.109375,1.125 -0.273437,0.425781 -0.445313,0.882813 -0.515625,1.375 -0.0625,0.5 -0.00781,1.023437 0.171875,1.578125 0.132813,0.414062 0.320313,0.773438 0.5625,1.078125 0.238281,0.300781 0.515625,0.539063 0.828125,0.71875 0.320312,0.1875 0.660156,0.300781 1.015625,0.34375 C 5.460938,7.535156 5.832031,7.507812 6.21875,7.40625 Z m 0,0"
           id="path134" />
      </g>
    </g>
  </g>
  <g
     fill="#ffffff"
     fill-opacity="1"
     id="g140"
     transform="translate(-25.556099,-19.320312)">
    <g
       transform="translate(47.913739,140.00734)"
       id="g139">
      <g
         id="g138">
        <path
           d="M 7.109375,3.984375 C 7.335938,3.859375 7.570312,3.695312 7.8125,3.5 8.0625,3.3125 8.269531,3.082031 8.4375,2.8125 8.601562,2.550781 8.703125,2.253906 8.734375,1.921875 8.765625,1.597656 8.6875,1.242188 8.5,0.859375 8.269531,0.410156 8.003906,0.0820312 7.703125,-0.125 7.398438,-0.332031 7.085938,-0.453125 6.765625,-0.484375 c -0.324219,-0.039063 -0.636719,-0.019531 -0.9375,0.0625 -0.304687,0.074219 -0.5625,0.164063 -0.78125,0.265625 z m -1.453125,2.25 C 5.375,6.304688 5.066406,6.347656 4.734375,6.359375 4.398438,6.367188 4.0625,6.3125 3.71875,6.1875 3.375,6.0625 3.035156,5.851562 2.703125,5.5625 2.367188,5.269531 2.066406,4.851562 1.796875,4.3125 1.503906,3.71875 1.335938,3.179688 1.296875,2.703125 1.253906,2.222656 1.285156,1.789062 1.390625,1.40625 c 0.113281,-0.386719 0.28125,-0.726562 0.5,-1.015625 0.226563,-0.2929688 0.460937,-0.539063 0.703125,-0.75 0.238281,-0.207031 0.46875,-0.375 0.6875,-0.5 0.226562,-0.132813 0.398438,-0.226563 0.515625,-0.28125 0.15625,-0.082031 0.363281,-0.175781 0.625,-0.28125 0.257813,-0.101563 0.550781,-0.1875 0.875,-0.25 0.320313,-0.070313 0.660156,-0.101563 1.015625,-0.09375 0.363281,0 0.722656,0.070313 1.078125,0.203125 0.351563,0.136719 0.695313,0.359375 1.03125,0.671875 C 8.753906,-0.578125 9.0625,-0.144531 9.34375,0.40625 9.6875,1.101562 9.835938,1.71875 9.796875,2.25 9.765625,2.789062 9.617188,3.265625 9.359375,3.671875 9.109375,4.085938 8.785156,4.445312 8.390625,4.75 7.992188,5.050781 7.609375,5.304688 7.234375,5.515625 7.179688,5.535156 7.125,5.5625 7.0625,5.59375 7,5.632812 6.941406,5.671875 6.890625,5.703125 L 4.1875,0.28125 C 3.875,0.425781 3.582031,0.617188 3.3125,0.859375 3.039062,1.097656 2.820312,1.367188 2.65625,1.671875 c -0.167969,0.300781 -0.261719,0.632813 -0.28125,1 -0.023438,0.363281 0.066406,0.75 0.265625,1.15625 0.144531,0.28125 0.3125,0.519531 0.5,0.71875 0.195313,0.195313 0.398437,0.34375 0.609375,0.4375 0.21875,0.09375 0.4375,0.144531 0.65625,0.15625 C 4.632812,5.148438 4.851562,5.125 5.0625,5.0625 Z m 0,0"
           id="path137" />
      </g>
    </g>
  </g>
  <g
     fill="#ffffff"
     fill-opacity="1"
     id="g143"
     transform="translate(-25.556099,-19.320312)">
    <g
       transform="translate(52.150258,148.43524)"
       id="g142">
      <g
         id="g141">
        <path
           d="m 7.921875,-2.3125 -0.90625,0.609375 c 0.46875,0.011719 0.941406,0.125 1.421875,0.34375 0.476562,0.21875 0.890625,0.585937 1.234375,1.09375 0.289063,0.4375 0.460937,0.835937 0.515625,1.203125 0.0625,0.375 0.03125,0.710938 -0.09375,1.015625 -0.125,0.3125 -0.3125,0.597656 -0.5625,0.859375 C 9.289062,3.070312 9.003906,3.316406 8.671875,3.546875 l -4.34375,2.90625 -0.765625,-1.125 4.015625,-2.6875 C 7.742188,2.535156 7.9375,2.394531 8.15625,2.21875 8.375,2.039062 8.5625,1.84375 8.71875,1.625 8.875,1.40625 8.957031,1.15625 8.96875,0.875 8.976562,0.59375 8.867188,0.28125 8.640625,-0.0625 8.535156,-0.21875 8.382812,-0.382812 8.1875,-0.5625 7.988281,-0.75 7.738281,-0.882812 7.4375,-0.96875 7.144531,-1.0625 6.789062,-1.066406 6.375,-0.984375 5.957031,-0.910156 5.476562,-0.691406 4.9375,-0.328125 L 1.375,2.0625 0.625,0.921875 l 6.546875,-4.375 z m 0,0"
           id="path140" />
      </g>
    </g>
  </g>
  <g
     fill="#ffffff"
     fill-opacity="1"
     id="g146"
     transform="translate(-25.556099,-19.320312)">
    <g
       transform="translate(57.447475,156.12962)"
       id="g145">
      <g
         id="g144">
        <path
           d="m 7.109375,-3.78125 1.8125,-1.5 0.859375,1.046875 -1.8125,1.5 1.078125,1.3125 -0.75,0.625 L 7.21875,-2.109375 3.359375,1.0625 C 3.242188,1.15625 3.140625,1.242188 3.046875,1.328125 2.953125,1.421875 2.878906,1.519531 2.828125,1.625 c -0.054687,0.101562 -0.0625,0.210938 -0.03125,0.328125 0.03125,0.125 0.117187,0.269531 0.265625,0.4375 0.09375,0.113281 0.191406,0.21875 0.296875,0.3125 0.113281,0.101563 0.234375,0.195313 0.359375,0.28125 l -0.75,0.609375 C 2.75,3.488281 2.539062,3.359375 2.34375,3.203125 2.144531,3.046875 1.96875,2.875 1.8125,2.6875 1.5625,2.382812 1.410156,2.101562 1.359375,1.84375 1.316406,1.582031 1.335938,1.351562 1.421875,1.15625 1.515625,0.96875 1.640625,0.796875 1.796875,0.640625 1.960938,0.484375 2.125,0.335938 2.28125,0.203125 l 4.078125,-3.359375 -0.90625,-1.078125 0.75,-0.625 z m 0,0"
           id="path143" />
      </g>
    </g>
  </g>
  <g
     fill="#ffffff"
     fill-opacity="1"
     id="g149"
     transform="translate(-25.556099,-19.320312)">
    <g
       transform="translate(60.833802,160.2293)"
       id="g148">
      <g
         id="g147">
        <path
           d="m 9.015625,-1.046875 c -0.324219,-0.3125 -0.648437,-0.5625 -0.96875,-0.75 C 7.722656,-1.984375 7.394531,-2.09375 7.0625,-2.125 6.726562,-2.164062 6.382812,-2.117188 6.03125,-1.984375 5.6875,-1.847656 5.328125,-1.625 4.953125,-1.3125 4.835938,-1.21875 4.726562,-1.125 4.625,-1.03125 4.53125,-0.9375 4.429688,-0.835938 4.328125,-0.734375 L 1.71875,1.78125 0.765625,0.796875 6.4375,-4.671875 7.390625,-3.6875 l -1.09375,1.046875 0.03125,0.03125 c 0.257813,-0.125 0.53125,-0.195313 0.8125,-0.21875 0.289063,-0.03125 0.570313,-0.015625 0.84375,0.046875 0.269531,0.0625 0.53125,0.164062 0.78125,0.296875 0.25,0.136719 0.46875,0.296875 0.65625,0.484375 l 0.296875,0.28125 z m 0,0"
           id="path146" />
      </g>
    </g>
  </g>
  <g
     fill="#ffffff"
     fill-opacity="1"
     id="g152"
     transform="translate(-25.556099,-19.320312)">
    <g
       transform="translate(65.107657,164.72782)"
       id="g151">
      <g
         id="g150">
        <path
           d="M 7.15625,0.765625 C 7.03125,0.753906 6.910156,0.722656 6.796875,0.671875 6.679688,0.628906 6.566406,0.570312 6.453125,0.5 6.335938,0.4375 6.207031,0.351562 6.0625,0.25 5.925781,0.15625 5.765625,0.0507812 5.578125,-0.0625 5.316406,-0.207031 5.066406,-0.351562 4.828125,-0.5 4.585938,-0.644531 4.359375,-0.742188 4.140625,-0.796875 3.921875,-0.847656 3.703125,-0.84375 3.484375,-0.78125 3.273438,-0.71875 3.070312,-0.566406 2.875,-0.328125 2.570312,0.0234375 2.445312,0.390625 2.5,0.765625 2.5625,1.140625 2.757812,1.46875 3.09375,1.75 3.300781,1.925781 3.535156,2.070312 3.796875,2.1875 4.066406,2.300781 4.351562,2.351562 4.65625,2.34375 c 0.300781,0 0.625,-0.085938 0.96875,-0.25 C 5.96875,1.925781 6.328125,1.644531 6.703125,1.25 Z M 4.234375,-3.703125 C 4.398438,-3.898438 4.613281,-4.085938 4.875,-4.265625 5.132812,-4.441406 5.441406,-4.550781 5.796875,-4.59375 6.148438,-4.644531 6.550781,-4.597656 7,-4.453125 c 0.457031,0.148437 0.953125,0.445313 1.484375,0.890625 0.25,0.210938 0.492187,0.453125 0.734375,0.734375 0.238281,0.28125 0.414062,0.601563 0.53125,0.953125 0.125,0.34375 0.15625,0.714844 0.09375,1.109375 -0.0625,0.398437 -0.289062,0.8125 -0.671875,1.25 L 6.765625,3.21875 C 6.660156,3.34375 6.570312,3.445312 6.5,3.53125 6.425781,3.625 6.382812,3.71875 6.375,3.8125 6.363281,3.914062 6.390625,4.015625 6.453125,4.109375 6.515625,4.210938 6.632812,4.332031 6.8125,4.46875 L 6.1875,5.203125 C 6.101562,5.160156 6.019531,5.113281 5.9375,5.0625 5.863281,5.007812 5.769531,4.9375 5.65625,4.84375 5.507812,4.71875 5.382812,4.59375 5.28125,4.46875 5.1875,4.351562 5.117188,4.226562 5.078125,4.09375 5.035156,3.957031 5.03125,3.804688 5.0625,3.640625 5.101562,3.484375 5.1875,3.289062 5.3125,3.0625 5.0625,3.164062 4.800781,3.21875 4.53125,3.21875 4.269531,3.226562 4.015625,3.203125 3.765625,3.140625 3.515625,3.078125 3.269531,2.976562 3.03125,2.84375 2.789062,2.71875 2.566406,2.566406 2.359375,2.390625 1.722656,1.859375 1.332031,1.28125 1.1875,0.65625 1.039062,0.0390625 1.234375,-0.578125 1.765625,-1.203125 c 0.21875,-0.257813 0.457031,-0.457031 0.71875,-0.59375 0.257813,-0.144531 0.566406,-0.207031 0.921875,-0.1875 0.351562,0.023437 0.757812,0.136719 1.21875,0.34375 0.46875,0.210937 1.035156,0.546875 1.703125,1.015625 0.226563,0.15625 0.425781,0.292969 0.59375,0.40625 C 7.085938,-0.101562 7.238281,-0.03125 7.375,0 7.507812,0.0195312 7.632812,0 7.75,-0.0625 7.875,-0.132812 8.019531,-0.269531 8.1875,-0.46875 8.25,-0.539062 8.328125,-0.648438 8.421875,-0.796875 c 0.101563,-0.15625 0.164063,-0.332031 0.1875,-0.53125 0.019531,-0.207031 -0.023437,-0.4375 -0.125,-0.6875 -0.09375,-0.257813 -0.304687,-0.53125 -0.625,-0.8125 -0.09375,-0.082031 -0.242187,-0.1875 -0.4375,-0.3125 -0.1875,-0.132813 -0.40625,-0.226563 -0.65625,-0.28125 -0.242187,-0.0625 -0.496094,-0.0625 -0.765625,0 -0.261719,0.054687 -0.515625,0.242187 -0.765625,0.5625 z m 0,0"
           id="path149" />
      </g>
    </g>
  </g>
  <g
     fill="#ffffff"
     fill-opacity="1"
     id="g155"
     transform="translate(-25.556099,-19.320312)">
    <g
       transform="translate(72.055931,170.40614)"
       id="g154">
      <g
         id="g153">
        <path
           d="m 8.25,-7.453125 -6.21875,8.875 -1.125,-0.78125 6.21875,-8.875 z m 0,0"
           id="path152" />
      </g>
    </g>
  </g>
  <g
     fill="#ffffff"
     fill-opacity="1"
     id="g158"
     transform="translate(-25.556099,-19.320312)">
    <g
       transform="translate(75.201296,172.60156)"
       id="g157">
      <g
         id="g156" />
    </g>
  </g>
  <g
     fill="#ffffff"
     fill-opacity="1"
     id="g161"
     transform="translate(-25.556099,-19.320312)">
    <g
       transform="translate(78.579792,174.85534)"
       id="g160">
      <g
         id="g159">
        <path
           d="M 10.359375,-1.765625 9.8125,-0.65625 4.71875,-3.203125 3.03125,0.15625 8.796875,3.03125 8.25,4.125 1.171875,0.59375 6.03125,-9.109375 12.953125,-5.65625 12.40625,-4.5625 6.796875,-7.359375 5.265625,-4.3125 Z m 0,0"
           id="path158" />
      </g>
    </g>
  </g>
  <g
     fill="#ffffff"
     fill-opacity="1"
     id="g164"
     transform="translate(-25.556099,-19.320312)">
    <g
       transform="translate(87.645068,179.32272)"
       id="g163">
      <g
         id="g162">
        <path
           d="M 6.0625,2.078125 6.421875,1.03125 H 6.390625 C 6.097656,1.269531 5.785156,1.4375 5.453125,1.53125 5.128906,1.625 4.828125,1.671875 4.546875,1.671875 4.273438,1.679688 4.035156,1.660156 3.828125,1.609375 3.617188,1.554688 3.476562,1.519531 3.40625,1.5 2.863281,1.3125 2.457031,1.066406 2.1875,0.765625 1.925781,0.460938 1.757812,0.144531 1.6875,-0.1875 1.613281,-0.53125 1.609375,-0.867188 1.671875,-1.203125 1.734375,-1.546875 1.8125,-1.863281 1.90625,-2.15625 L 3.609375,-7.09375 4.90625,-6.640625 3.328125,-2.0625 c -0.15625,0.460938 -0.246094,0.851562 -0.265625,1.171875 -0.011719,0.324219 0.019531,0.59375 0.09375,0.8125 0.070312,0.207031 0.191406,0.367187 0.359375,0.484375 0.175781,0.125 0.382813,0.226562 0.625,0.3125 0.53125,0.1875 0.976563,0.210938 1.34375,0.078125 0.375,-0.136719 0.679687,-0.339844 0.921875,-0.609375 0.25,-0.2695312 0.4375,-0.550781 0.5625,-0.84375 0.125,-0.289062 0.207031,-0.507812 0.25,-0.65625 L 8.625,-5.375 9.90625,-4.9375 7.34375,2.515625 Z m 0,0"
           id="path161" />
      </g>
    </g>
  </g>
  <g
     fill="#ffffff"
     fill-opacity="1"
     id="g167"
     transform="translate(-25.556099,-19.320312)">
    <g
       transform="translate(96.539418,182.2624)"
       id="g166">
      <g
         id="g165">
        <path
           d="M 6.984375,-5.796875 C 6.535156,-5.878906 6.125,-5.910156 5.75,-5.890625 5.375,-5.867188 5.035156,-5.78125 4.734375,-5.625 4.441406,-5.476562 4.1875,-5.253906 3.96875,-4.953125 3.75,-4.660156 3.570312,-4.273438 3.4375,-3.796875 c -0.042969,0.136719 -0.078125,0.273437 -0.109375,0.40625 -0.03125,0.125 -0.0625,0.261719 -0.09375,0.40625 L 2.421875,0.546875 1.078125,0.25 2.828125,-7.421875 4.171875,-7.125 3.84375,-5.65625 3.875,-5.640625 c 0.15625,-0.25 0.34375,-0.460937 0.5625,-0.640625 0.21875,-0.175781 0.457031,-0.3125 0.71875,-0.40625 0.269531,-0.09375 0.539062,-0.148438 0.8125,-0.171875 0.28125,-0.03125 0.5625,-0.019531 0.84375,0.03125 L 7.203125,-6.75 Z m 0,0"
           id="path164" />
      </g>
    </g>
  </g>
  <g
     fill="#ffffff"
     fill-opacity="1"
     id="g170"
     transform="translate(-25.556099,-19.320312)">
    <g
       transform="translate(102.59154,183.71288)"
       id="g169">
      <g
         id="g168">
        <path
           d="m 2.5625,-3.671875 c -0.09375,0.773437 -0.070312,1.390625 0.078125,1.859375 0.144531,0.46875 0.332031,0.824219 0.5625,1.0625 0.238281,0.242188 0.488281,0.402344 0.75,0.484375 C 4.222656,-0.191406 4.4375,-0.144531 4.59375,-0.125 4.75,-0.101562 4.960938,-0.0976562 5.234375,-0.109375 5.503906,-0.128906 5.785156,-0.226562 6.078125,-0.40625 6.367188,-0.582031 6.632812,-0.882812 6.875,-1.3125 7.125,-1.738281 7.296875,-2.335938 7.390625,-3.109375 7.484375,-3.890625 7.457031,-4.507812 7.3125,-4.96875 7.175781,-5.4375 6.984375,-5.789062 6.734375,-6.03125 6.492188,-6.28125 6.242188,-6.441406 5.984375,-6.515625 5.734375,-6.597656 5.53125,-6.648438 5.375,-6.671875 5.21875,-6.691406 5,-6.691406 4.71875,-6.671875 4.4375,-6.660156 4.15625,-6.5625 3.875,-6.375 3.59375,-6.195312 3.328125,-5.894531 3.078125,-5.46875 2.828125,-5.050781 2.65625,-4.453125 2.5625,-3.671875 Z m -1.421875,-0.15625 c 0.0625,-0.53125 0.1875,-1.035156 0.375,-1.515625 C 1.703125,-5.832031 1.96875,-6.253906 2.3125,-6.609375 2.664062,-6.972656 3.101562,-7.25 3.625,-7.4375 4.144531,-7.625 4.765625,-7.675781 5.484375,-7.59375 c 0.707031,0.085938 1.289063,0.277344 1.75,0.578125 0.457031,0.304687 0.8125,0.671875 1.0625,1.109375 0.257813,0.429688 0.425781,0.902344 0.5,1.421875 0.082031,0.511719 0.09375,1.03125 0.03125,1.5625 C 8.765625,-2.398438 8.632812,-1.894531 8.4375,-1.40625 8.238281,-0.914062 7.960938,-0.492188 7.609375,-0.140625 7.265625,0.210938 6.832031,0.484375 6.3125,0.671875 5.800781,0.867188 5.191406,0.925781 4.484375,0.84375 3.765625,0.757812 3.171875,0.5625 2.703125,0.25 2.242188,-0.0507812 1.882812,-0.414062 1.625,-0.84375 1.375,-1.269531 1.210938,-1.742188 1.140625,-2.265625 c -0.0625,-0.519531 -0.0625,-1.039063 0,-1.5625 z m 0,0"
           id="path167" />
      </g>
    </g>
  </g>
  <g
     fill="#ffffff"
     fill-opacity="1"
     id="g173"
     transform="translate(-25.556099,-19.320312)">
    <g
       transform="translate(112.23265,184.81721)"
       id="g172">
      <g
         id="g171">
        <path
           d="m 2.328125,-3.9375 c 0.00781,0.617188 0.09375,1.125 0.25,1.53125 0.164063,0.40625 0.367187,0.742188 0.609375,1 0.25,0.261719 0.515625,0.445312 0.796875,0.546875 0.289063,0.09375 0.566406,0.136719 0.828125,0.125 0.269531,0 0.539062,-0.050781 0.8125,-0.15625 0.28125,-0.113281 0.53125,-0.300781 0.75,-0.5625 0.21875,-0.257813 0.390625,-0.597656 0.515625,-1.015625 0.132813,-0.414062 0.195313,-0.941406 0.1875,-1.578125 C 7.066406,-5.054688 6.847656,-5.851562 6.421875,-6.4375 6.003906,-7.019531 5.410156,-7.304688 4.640625,-7.296875 c -0.179687,0.011719 -0.402344,0.054687 -0.671875,0.125 -0.273438,0.0625 -0.53125,0.210937 -0.78125,0.4375 -0.242188,0.230469 -0.449219,0.570313 -0.625,1.015625 -0.167969,0.449219 -0.246094,1.042969 -0.234375,1.78125 z m -0.0625,-3.96875 0.015625,1.09375 h 0.046875 c 0.195313,-0.3125 0.40625,-0.554688 0.625,-0.734375 0.226563,-0.1875 0.457031,-0.332031 0.6875,-0.4375 0.238281,-0.113281 0.46875,-0.1875 0.6875,-0.21875 0.21875,-0.039063 0.410156,-0.0625 0.578125,-0.0625 0.488281,-0.00781 0.945312,0.070313 1.375,0.234375 0.4375,0.15625 0.820312,0.40625 1.15625,0.75 0.332031,0.335938 0.59375,0.773438 0.78125,1.3125 0.195312,0.542969 0.300781,1.179688 0.3125,1.90625 0.00781,0.761719 -0.078125,1.414062 -0.265625,1.953125 -0.1875,0.542969 -0.449219,0.984375 -0.78125,1.328125 -0.324219,0.34375 -0.699219,0.601562 -1.125,0.765625 -0.417969,0.15625 -0.851563,0.238281 -1.296875,0.25 -0.085938,0 -0.230469,-0.011719 -0.4375,-0.03125 C 4.414062,0.191406 4.179688,0.140625 3.921875,0.046875 3.660156,-0.046875 3.394531,-0.1875 3.125,-0.375 2.863281,-0.570312 2.644531,-0.832031 2.46875,-1.15625 l 0.0625,4 -1.375,0.015625 -0.171875,-10.75 z m 0,0"
           id="path170" />
      </g>
    </g>
  </g>
  <g
     fill="#ffffff"
     fill-opacity="1"
     id="g176"
     transform="translate(-25.556099,-19.320312)">
    <g
       transform="translate(122.0951,184.61337)"
       id="g175">
      <g
         id="g174">
        <path
           d="m 5.984375,-5.53125 c -0.042969,-0.25 -0.117187,-0.519531 -0.21875,-0.8125 -0.105469,-0.300781 -0.261719,-0.566406 -0.46875,-0.796875 -0.199219,-0.238281 -0.449219,-0.425781 -0.75,-0.5625 -0.304687,-0.132813 -0.667969,-0.164063 -1.09375,-0.09375 -0.5,0.074219 -0.898437,0.21875 -1.1875,0.4375 -0.28125,0.21875 -0.496094,0.480469 -0.640625,0.78125 -0.148438,0.292969 -0.226562,0.59375 -0.234375,0.90625 -0.011719,0.304687 0,0.574219 0.03125,0.8125 z m 1.6875,2.109375 c 0,0.273437 -0.054687,0.570313 -0.15625,0.890625 -0.09375,0.324219 -0.257813,0.632812 -0.484375,0.921875 -0.230469,0.292969 -0.539062,0.554687 -0.921875,0.78125 -0.375,0.21875 -0.859375,0.375 -1.453125,0.46875 C 4,-0.265625 3.4375,-0.273438 2.96875,-0.390625 2.5,-0.503906 2.097656,-0.671875 1.765625,-0.890625 1.429688,-1.109375 1.160156,-1.375 0.953125,-1.6875 c -0.210937,-0.3125 -0.375,-0.613281 -0.5,-0.90625 -0.117187,-0.289062 -0.199219,-0.554688 -0.25,-0.796875 -0.054687,-0.25 -0.085937,-0.4375 -0.09375,-0.5625 -0.03125,-0.175781 -0.0625,-0.40625 -0.09375,-0.6875 C -0.00390625,-4.929688 0,-5.238281 0.03125,-5.5625 0.0625,-5.882812 0.132812,-6.210938 0.25,-6.546875 c 0.125,-0.34375 0.304688,-0.664063 0.546875,-0.96875 0.25,-0.300781 0.570313,-0.5625 0.96875,-0.78125 C 2.171875,-8.515625 2.675781,-8.664062 3.28125,-8.75 4.050781,-8.863281 4.6875,-8.816406 5.1875,-8.609375 5.6875,-8.410156 6.09375,-8.125 6.40625,-7.75 c 0.320312,0.367188 0.5625,0.78125 0.71875,1.25 0.15625,0.46875 0.273438,0.917969 0.359375,1.34375 0,0.0625 0.00391,0.132812 0.015625,0.203125 0.019531,0.0625 0.035156,0.121094 0.046875,0.171875 l -5.984375,0.875 c 0.050781,0.34375 0.144531,0.683594 0.28125,1.015625 0.144531,0.335937 0.332031,0.632813 0.5625,0.890625 0.238281,0.25 0.523438,0.445312 0.859375,0.578125 0.34375,0.125 0.742187,0.15625 1.203125,0.09375 0.3125,-0.039063 0.585938,-0.125 0.828125,-0.25 0.238281,-0.125 0.4375,-0.269531 0.59375,-0.4375 C 6.054688,-2.191406 6.175781,-2.382812 6.25,-2.59375 6.332031,-2.8125 6.375,-3.023438 6.375,-3.234375 Z m 0,0"
           id="path173" />
      </g>
    </g>
  </g>
  <g
     fill="#ffffff"
     fill-opacity="1"
     id="g179"
     transform="translate(-25.556099,-19.320312)">
    <g
       transform="translate(131.22157,183.13131)"
       id="g178">
      <g
         id="g177" />
    </g>
  </g>
  <g
     fill="#ffffff"
     fill-opacity="1"
     id="g182"
     transform="translate(-25.556099,-19.320312)">
    <g
       transform="translate(135.22509,182.3106)"
       id="g181">
      <g
         id="g180">
        <path
           d="m 0.890625,-3.96875 c 0.113281,0.34375 0.285156,0.640625 0.515625,0.890625 0.226562,0.25 0.503906,0.445313 0.828125,0.578125 0.332031,0.125 0.703125,0.183594 1.109375,0.171875 0.414062,-0.00781 0.851562,-0.097656 1.3125,-0.265625 C 5.125,-2.75 5.492188,-2.9375 5.765625,-3.15625 c 0.28125,-0.21875 0.488281,-0.445312 0.625,-0.6875 0.144531,-0.25 0.222656,-0.503906 0.234375,-0.765625 0.019531,-0.257813 -0.011719,-0.507813 -0.09375,-0.75 C 6.414062,-5.671875 6.253906,-5.910156 6.046875,-6.078125 5.847656,-6.242188 5.625,-6.359375 5.375,-6.421875 5.132812,-6.492188 4.878906,-6.523438 4.609375,-6.515625 4.335938,-6.503906 4.070312,-6.484375 3.8125,-6.453125 3.195312,-6.367188 2.597656,-6.289062 2.015625,-6.21875 1.441406,-6.144531 0.914062,-6.140625 0.4375,-6.203125 c -0.46875,-0.0625 -0.882812,-0.21875 -1.25,-0.46875 -0.363281,-0.257813 -0.644531,-0.6875 -0.84375,-1.28125 C -1.820312,-8.421875 -1.875,-8.875 -1.8125,-9.3125 c 0.054688,-0.445312 0.210938,-0.847656 0.46875,-1.203125 0.261719,-0.363281 0.609375,-0.691406 1.046875,-0.984375 0.425781,-0.300781 0.921875,-0.550781 1.484375,-0.75 0.644531,-0.226562 1.226562,-0.34375 1.75,-0.34375 0.519531,0 0.976562,0.08594 1.375,0.25 0.40625,0.15625 0.75,0.390625 1.03125,0.703125 0.28125,0.304687 0.503906,0.648437 0.671875,1.03125 l -1.375,0.484375 c -0.1875,-0.414062 -0.429687,-0.707031 -0.71875,-0.875 -0.28125,-0.164062 -0.570313,-0.265625 -0.859375,-0.296875 -0.292969,-0.03906 -0.578125,-0.03125 -0.859375,0.03125 -0.273437,0.0625 -0.484375,0.125 -0.640625,0.1875 -0.710938,0.242187 -1.226562,0.59375 -1.546875,1.0625 -0.320313,0.460937 -0.394531,0.949219 -0.21875,1.46875 0.1171875,0.3125 0.2695312,0.542969 0.46875,0.6875 0.195313,0.136719 0.429687,0.226563 0.703125,0.265625 0.28125,0.03125 0.585938,0.03125 0.921875,0 0.34375,-0.039062 0.691406,-0.085938 1.046875,-0.140625 0.488281,-0.070313 0.984375,-0.128906 1.484375,-0.171875 0.507813,-0.050781 0.988281,-0.03125 1.4375,0.0625 0.457031,0.09375 0.867187,0.289062 1.234375,0.578125 0.363281,0.292969 0.65625,0.75 0.875,1.375 0.175781,0.5 0.242188,0.960937 0.203125,1.375 C 8.140625,-4.109375 8.035156,-3.75 7.859375,-3.4375 7.691406,-3.125 7.46875,-2.847656 7.1875,-2.609375 6.914062,-2.367188 6.644531,-2.164062 6.375,-2 c -0.273438,0.15625 -0.539062,0.289062 -0.796875,0.390625 -0.25,0.09375 -0.449219,0.167969 -0.59375,0.21875 -0.355469,0.125 -0.78125,0.242187 -1.28125,0.34375 -0.5,0.09375 -1.007813,0.09375 -1.515625,0 -0.511719,-0.101563 -1.007812,-0.332031 -1.484375,-0.6875 -0.46875,-0.363281 -0.863281,-0.945313 -1.1875,-1.75 z m 0,0"
           id="path179" />
      </g>
    </g>
  </g>
  <g
     fill="#ffffff"
     fill-opacity="1"
     id="g185"
     transform="translate(-25.556099,-19.320312)">
    <g
       transform="translate(145.44667,178.67372)"
       id="g184">
      <g
         id="g183">
        <path
           d="M -0.109375,-6.203125 2.234375,-7.4375 c 0.78125,-0.40625 1.257813,-0.859375 1.4375,-1.359375 C 3.847656,-9.304688 3.773438,-9.875 3.453125,-10.5 3.128906,-11.09375 2.71875,-11.429688 2.21875,-11.515625 c -0.492188,-0.08203 -1.109375,0.07422 -1.859375,0.46875 l -2.34375,1.234375 z m 0.15625,-6.0625 c 0.5,-0.257813 0.972656,-0.441406 1.421875,-0.546875 0.445312,-0.113281 0.867188,-0.132812 1.265625,-0.0625 0.394531,0.07422 0.765625,0.246094 1.109375,0.515625 0.34375,0.273437 0.644531,0.652344 0.90625,1.140625 0.226562,0.460938 0.378906,0.90625 0.453125,1.34375 C 5.273438,-9.445312 5.25,-9.035156 5.125,-8.640625 5.007812,-8.242188 4.773438,-7.851562 4.421875,-7.46875 c -0.355469,0.375 -0.84375,0.726562 -1.46875,1.046875 l -2.484375,1.3125 2,3.828125 -1.3125,0.671875 -5.03125,-9.609375 z m 0,0"
           id="path182" />
      </g>
    </g>
  </g>
  <g
     fill="#ffffff"
     fill-opacity="1"
     id="g188"
     transform="translate(-25.556099,-19.320312)">
    <g
       transform="translate(154.57871,173.71321)"
       id="g187">
      <g
         id="g186">
        <path
           d="m 0.421875,-2.3125 1.28125,-0.859375 0.9375,1.40625 -1.28125,0.859375 z m 0,0"
           id="path185" />
      </g>
    </g>
  </g>
  <g
     fill="#ffffff"
     fill-opacity="1"
     id="g191"
     transform="translate(-25.556099,-19.320312)">
    <g
       transform="translate(158.8065,170.86027)"
       id="g190">
      <g
         id="g189" />
    </g>
  </g>
  <g
     fill="#ffffff"
     fill-opacity="1"
     id="g194"
     transform="translate(-25.556099,-19.320312)">
    <g
       transform="translate(162.09573,168.49687)"
       id="g193">
      <g
         id="g192">
        <path
           d="m -1.078125,-13.71875 0.78125,0.84375 1.078125,10.5 4.859375,-4.453125 0.828125,0.890625 -6.171875,5.65625 -0.890625,-0.984375 -0.921875,-10.40625 -4.453125,4.078125 -0.8125,-0.890625 z m 0,0"
           id="path191" />
      </g>
    </g>
  </g>
  <g
     fill="#ffffff"
     fill-opacity="1"
     id="g197"
     transform="translate(-25.556099,-19.320312)">
    <g
       transform="translate(169.07772,161.88831)"
       id="g196">
      <g
         id="g195" />
    </g>
  </g>
  <g
     fill="#ffffff"
     fill-opacity="1"
     id="g200"
     transform="translate(-25.556099,-19.320312)">
    <g
       transform="translate(172.00395,158.94779)"
       id="g199">
      <g
         id="g198">
        <path
           d="m -3.09375,-5 c 0.355469,0.25 0.773438,0.496094 1.25,0.734375 0.480469,0.242187 0.984375,0.390625 1.515625,0.453125 0.519531,0.0625 1.039063,-0.00781 1.5625,-0.21875 C 1.753906,-4.25 2.242188,-4.671875 2.703125,-5.296875 2.773438,-5.398438 2.867188,-5.550781 2.984375,-5.75 3.097656,-5.945312 3.195312,-6.175781 3.28125,-6.4375 3.363281,-6.707031 3.410156,-7.015625 3.421875,-7.359375 3.429688,-7.703125 3.363281,-8.0625 3.21875,-8.4375 3.082031,-8.8125 2.847656,-9.203125 2.515625,-9.609375 2.191406,-10.023438 1.734375,-10.445312 1.140625,-10.875 0.617188,-11.25 0.09375,-11.539062 -0.4375,-11.75 c -0.53125,-0.207031 -1.039062,-0.304688 -1.53125,-0.296875 -0.5,0 -0.976562,0.121094 -1.4375,0.359375 -0.46875,0.242188 -0.878906,0.609375 -1.234375,1.109375 -0.320313,0.449219 -0.53125,0.886719 -0.625,1.3125 -0.09375,0.417969 -0.109375,0.8125 -0.046875,1.1875 0.054688,0.375 0.171875,0.726563 0.359375,1.046875 0.179687,0.324219 0.382813,0.617188 0.609375,0.875 0.21875,0.261719 0.445312,0.492188 0.671875,0.6875 C -3.441406,-5.269531 -3.25,-5.113281 -3.09375,-5 Z M -4,-3.75 C -4.757812,-4.300781 -5.351562,-4.890625 -5.78125,-5.515625 -6.21875,-6.140625 -6.5,-6.78125 -6.625,-7.4375 -6.757812,-8.09375 -6.734375,-8.75 -6.546875,-9.40625 c 0.179687,-0.65625 0.484375,-1.285156 0.921875,-1.890625 0.355469,-0.488281 0.789062,-0.925781 1.296875,-1.3125 0.5,-0.394531 1.074219,-0.664063 1.71875,-0.8125 0.648437,-0.144531 1.359375,-0.128906 2.140625,0.04687 0.78125,0.179688 1.617188,0.589844 2.515625,1.234375 0.757813,0.554687 1.34375,1.109375 1.75,1.671875 0.40625,0.5625 0.675781,1.117188 0.8125,1.65625 0.132813,0.53125 0.175781,1.03125 0.125,1.5 -0.042969,0.46875 -0.132813,0.898438 -0.265625,1.28125 -0.136719,0.375 -0.28125,0.6875 -0.4375,0.9375 -0.15625,0.25 -0.265625,0.421875 -0.328125,0.515625 -0.074219,0.09375 -0.210937,0.261719 -0.40625,0.5 -0.1875,0.230469 -0.445313,0.46875 -0.765625,0.71875 -0.3125,0.242187 -0.6875,0.460937 -1.125,0.65625 -0.429688,0.199219 -0.914062,0.3125 -1.453125,0.34375 -0.539063,0.03125 -1.140625,-0.050781 -1.796875,-0.25 C -2.507812,-2.816406 -3.226562,-3.195312 -4,-3.75 Z m 0,0"
           id="path197" />
      </g>
    </g>
  </g>
  <g
     fill="#ffffff"
     fill-opacity="1"
     id="g203"
     transform="translate(-25.556099,-19.320312)">
    <g
       transform="translate(178.99077,148.82884)"
       id="g202">
      <g
         id="g201">
        <path
           d="m -0.6875,-2.25 0.734375,-1.34375 1.484375,0.8125 -0.734375,1.34375 z m 0,0"
           id="path200" />
      </g>
    </g>
  </g>
  <g
     fill="#ffffff"
     fill-opacity="1"
     id="g206"
     transform="translate(-25.556099,-19.320312)">
    <g
       transform="translate(181.74927,144.19163)"
       id="g205">
      <g
         id="g204">
        <path
           d="m -4.1875,-4.125 c 0.398438,0.15625 0.859375,0.296875 1.390625,0.421875 0.523437,0.125 1.042969,0.15625 1.5625,0.09375 0.523437,-0.070313 1.011719,-0.273437 1.46875,-0.609375 0.457031,-0.332031 0.832031,-0.859375 1.125,-1.578125 0.039063,-0.113281 0.097656,-0.28125 0.171875,-0.5 0.070312,-0.21875 0.113281,-0.46875 0.125,-0.75 0.019531,-0.28125 -0.011719,-0.582031 -0.09375,-0.90625 -0.074219,-0.332031 -0.226562,-0.664063 -0.453125,-1 C 0.890625,-9.285156 0.570312,-9.613281 0.15625,-9.9375 c -0.40625,-0.332031 -0.945312,-0.632812 -1.625,-0.90625 -0.59375,-0.238281 -1.175781,-0.394531 -1.75,-0.46875 -0.570312,-0.07031 -1.097656,-0.04687 -1.578125,0.07813 -0.476563,0.117187 -0.910156,0.34375 -1.296875,0.6875 -0.394531,0.34375 -0.707031,0.796875 -0.9375,1.359375 -0.207031,0.523438 -0.300781,1 -0.28125,1.4375 0.011719,0.429688 0.089844,0.820312 0.234375,1.171875 0.136719,0.34375 0.335937,0.652344 0.59375,0.921875 0.261719,0.273438 0.53125,0.511719 0.8125,0.71875 0.273437,0.199219 0.542969,0.367188 0.8125,0.5 0.273437,0.136719 0.496094,0.242188 0.671875,0.3125 z m -0.578125,1.4375 c -0.875,-0.351562 -1.597656,-0.78125 -2.171875,-1.28125 -0.570312,-0.507812 -0.992188,-1.066406 -1.265625,-1.671875 -0.28125,-0.613281 -0.410156,-1.257813 -0.390625,-1.9375 0.011719,-0.675781 0.15625,-1.363281 0.4375,-2.0625 0.230469,-0.550781 0.542969,-1.078125 0.9375,-1.578125 0.398438,-0.507812 0.890625,-0.910156 1.484375,-1.203125 0.59375,-0.289063 1.296875,-0.441406 2.109375,-0.453125 0.804688,-0.01953 1.714844,0.179688 2.734375,0.59375 0.875,0.355469 1.570313,0.761719 2.09375,1.21875 0.53125,0.449219 0.925781,0.914062 1.1875,1.390625 0.257813,0.480469 0.414063,0.960937 0.46875,1.4375 0.0625,0.46875 0.070313,0.902344 0.03125,1.296875 -0.03125,0.398438 -0.09375,0.742188 -0.1875,1.03125 C 2.609375,-5.625 2.539062,-5.429688 2.5,-5.328125 2.457031,-5.210938 2.367188,-5.019531 2.234375,-4.75 c -0.125,0.261719 -0.320313,0.554688 -0.578125,0.875 -0.25,0.3125 -0.558594,0.617188 -0.921875,0.90625 -0.367187,0.292969 -0.8046875,0.523438 -1.328125,0.6875 -0.519531,0.167969 -1.125,0.230469 -1.8125,0.1875 -0.6875,-0.039062 -1.472656,-0.238281 -2.359375,-0.59375 z m 0,0"
           id="path203" />
      </g>
    </g>
  </g>
  <g
     fill="#ffffff"
     fill-opacity="1"
     id="g209"
     transform="translate(-25.556099,-19.320312)">
    <g
       transform="translate(186.12803,132.70039)"
       id="g208">
      <g
         id="g207">
        <path
           d="M -1.203125,-2.015625 -0.796875,-3.5 l 1.625,0.4375 -0.40625,1.484375 z m 0,0"
           id="path206" />
      </g>
    </g>
  </g>
  <g
     fill="#ffffff"
     fill-opacity="1"
     id="g212"
     transform="translate(-25.556099,-19.320312)">
    <g
       transform="translate(187.45785,127.73288)"
       id="g211">
      <g
         id="g210">
        <path
           d="m -1.046875,-3.4375 2.125,0.421875 c 0.3125,0.0625 0.5625,0.164063 0.75,0.296875 0.1875,0.136719 0.335937,0.296875 0.453125,0.484375 C 2.394531,-2.054688 2.46875,-1.875 2.5,-1.6875 2.539062,-1.5 2.5625,-1.328125 2.5625,-1.171875 L 1.71875,-1.328125 C 1.738281,-1.554688 1.671875,-1.757812 1.515625,-1.9375 1.367188,-2.125 1.175781,-2.238281 0.9375,-2.28125 L 0.46875,-2.375 0.3125,-1.609375 -1.34375,-1.9375 Z m 0,0"
           id="path209" />
      </g>
    </g>
  </g>
  <g
     fill="#ffffff"
     fill-opacity="1"
     id="g215"
     transform="translate(-25.556099,-19.320312)">
    <g
       transform="translate(188.41639,122.72518)"
       id="g214">
      <g
         id="g213" />
    </g>
  </g>
  <g
     fill="#ffffff"
     fill-opacity="1"
     id="g218"
     transform="translate(-25.556099,-19.320312)">
    <g
       transform="translate(189.16025,118.64394)"
       id="g217">
      <g
         id="g216">
        <path
           d="m -5.375,-2.359375 c 0.429688,0 0.90625,-0.035156 1.4375,-0.109375 0.53125,-0.070312 1.03125,-0.226562 1.5,-0.46875 0.460938,-0.25 0.84375,-0.609375 1.15625,-1.078125 0.3125,-0.476563 0.480469,-1.101563 0.5,-1.875 0,-0.125 -0.003906,-0.300781 -0.015625,-0.53125 -0.019531,-0.226563 -0.070313,-0.476563 -0.15625,-0.75 C -1.035156,-7.441406 -1.164062,-7.71875 -1.34375,-8 -1.53125,-8.28125 -1.789062,-8.535156 -2.125,-8.765625 c -0.332031,-0.238281 -0.75,-0.4375 -1.25,-0.59375 -0.5,-0.15625 -1.113281,-0.238281 -1.84375,-0.25 -0.644531,-0.019531 -1.242188,0.039063 -1.796875,0.171875 -0.5625,0.136719 -1.046875,0.34375 -1.453125,0.625 -0.40625,0.28125 -0.726562,0.652344 -0.96875,1.109375 -0.25,0.460937 -0.378906,0.996094 -0.390625,1.609375 -0.00781,0.554688 0.070313,1.03125 0.234375,1.4375 0.15625,0.398438 0.367188,0.734375 0.625,1.015625 0.261719,0.273437 0.5625,0.492187 0.90625,0.65625 0.335938,0.167969 0.667969,0.296875 1,0.390625 0.324219,0.085938 0.636719,0.140625 0.9375,0.171875 0.304688,0.03125 0.554688,0.054687 0.75,0.0625 z M -5.40625,-0.8125 c -0.945312,-0.019531 -1.773438,-0.164062 -2.484375,-0.4375 -0.71875,-0.269531 -1.3125,-0.640625 -1.78125,-1.109375 -0.476563,-0.46875 -0.828125,-1.019531 -1.046875,-1.65625 -0.226562,-0.644531 -0.335938,-1.34375 -0.328125,-2.09375 0.01172,-0.601563 0.117187,-1.210937 0.3125,-1.828125 0.199219,-0.613281 0.527344,-1.160156 0.984375,-1.640625 0.449219,-0.488281 1.046875,-0.878906 1.796875,-1.171875 0.742187,-0.300781 1.664063,-0.4375 2.765625,-0.40625 0.9375,0.01172 1.734375,0.136719 2.390625,0.375 0.648437,0.242188 1.179687,0.542969 1.59375,0.90625 0.417969,0.355469 0.742187,0.742188 0.96875,1.15625 0.21875,0.417969 0.378906,0.820312 0.484375,1.203125 0.113281,0.386719 0.175781,0.730469 0.1875,1.03125 0.007812,0.292969 0.015625,0.496094 0.015625,0.609375 0,0.117188 -0.015625,0.324219 -0.046875,0.625 -0.023438,0.304688 -0.09375,0.648438 -0.21875,1.03125 -0.125,0.386719 -0.304688,0.78125 -0.546875,1.1875 -0.25,0.40625 -0.585937,0.78125 -1.015625,1.125 -0.425781,0.335938 -0.96875,0.605469 -1.625,0.8125 -0.65625,0.210938 -1.457031,0.304688 -2.40625,0.28125 z m 0,0"
           id="path215" />
      </g>
    </g>
  </g>
  <g
     fill="#ffffff"
     fill-opacity="1"
     id="g221"
     transform="translate(-25.556099,-19.320312)">
    <g
       transform="translate(189.27724,106.18687)"
       id="g220">
      <g
         id="g219">
        <path
           d="m -4.1875,-1.859375 c 0.617188,-0.082031 1.117188,-0.222656 1.5,-0.421875 0.386719,-0.207031 0.695312,-0.445312 0.921875,-0.71875 0.230469,-0.28125 0.375,-0.570312 0.4375,-0.875 C -1.265625,-4.175781 -1.25,-4.453125 -1.28125,-4.703125 -1.320312,-4.972656 -1.410156,-5.238281 -1.546875,-5.5 c -0.132813,-0.257812 -0.34375,-0.484375 -0.625,-0.671875 -0.28125,-0.1875 -0.632813,-0.316406 -1.0625,-0.390625 -0.4375,-0.082031 -0.972656,-0.082031 -1.609375,0 -1,0.136719 -1.757812,0.445312 -2.28125,0.921875 -0.53125,0.480469 -0.75,1.105469 -0.65625,1.875 0.03125,0.167969 0.101562,0.386719 0.203125,0.65625 0.09375,0.261719 0.273437,0.5 0.53125,0.71875 0.25,0.21875 0.609375,0.386719 1.078125,0.5 0.460938,0.117187 1.054688,0.125 1.78125,0.03125 z M -8.125,-1.34375 -7.03125,-1.484375 V -1.53125 c -0.332031,-0.164062 -0.601562,-0.347656 -0.8125,-0.546875 -0.21875,-0.195313 -0.390625,-0.40625 -0.515625,-0.625 -0.132813,-0.21875 -0.234375,-0.429687 -0.296875,-0.640625 -0.0625,-0.21875 -0.101562,-0.410156 -0.125,-0.578125 -0.0625,-0.488281 -0.035156,-0.953125 0.078125,-1.390625 0.105469,-0.445312 0.308594,-0.851562 0.609375,-1.21875 0.304688,-0.375 0.710938,-0.6875 1.21875,-0.9375 0.511719,-0.257812 1.125,-0.4375 1.84375,-0.53125 0.761719,-0.101562 1.421875,-0.09375 1.984375,0.03125 0.5625,0.125 1.039063,0.335938 1.421875,0.625 0.375,0.28125 0.667969,0.621094 0.875,1.015625 0.210938,0.398437 0.34375,0.820313 0.40625,1.265625 0.011719,0.085938 0.023438,0.230469 0.03125,0.4375 0,0.210938 -0.03125,0.449219 -0.09375,0.71875 -0.0625,0.273438 -0.171875,0.554688 -0.328125,0.84375 -0.164063,0.28125 -0.398437,0.527344 -0.703125,0.734375 l 3.953125,-0.515625 0.1875,1.375 -10.65625,1.40625 z m 0,0"
           id="path218" />
      </g>
    </g>
  </g>
  <g
     fill="#ffffff"
     fill-opacity="1"
     id="g224"
     transform="translate(-25.556099,-19.320312)">
    <g
       transform="translate(187.94118,96.402493)"
       id="g223">
      <g
         id="g222">
        <path
           d="m -4.359375,-1 c 0.75,-0.207031 1.320313,-0.460938 1.703125,-0.765625 0.375,-0.3125 0.636719,-0.625 0.78125,-0.9375 0.136719,-0.3125 0.1875,-0.601563 0.15625,-0.875 C -1.75,-3.847656 -1.785156,-4.0625 -1.828125,-4.21875 -1.867188,-4.363281 -1.941406,-4.5625 -2.046875,-4.8125 c -0.113281,-0.25 -0.3125,-0.472656 -0.59375,-0.671875 C -2.921875,-5.691406 -3.300781,-5.832031 -3.78125,-5.90625 -4.257812,-5.976562 -4.875,-5.910156 -5.625,-5.703125 -6.382812,-5.503906 -6.957031,-5.25 -7.34375,-4.9375 -7.726562,-4.632812 -7.984375,-4.320312 -8.109375,-4 c -0.132813,0.3125 -0.191406,0.605469 -0.171875,0.875 0.023438,0.273438 0.054688,0.480469 0.09375,0.625 0.042969,0.15625 0.125,0.359375 0.25,0.609375 0.117188,0.25 0.308594,0.476563 0.578125,0.671875 0.273437,0.199219 0.652344,0.335938 1.140625,0.40625 0.480469,0.074219 1.101562,0.011719 1.859375,-0.1875 z M -3.96875,0.375 C -4.488281,0.507812 -5.007812,0.578125 -5.53125,0.578125 -6.050781,0.585938 -6.539062,0.492188 -7,0.296875 -7.46875,0.109375 -7.882812,-0.1875 -8.25,-0.59375 -8.625,-1 -8.90625,-1.550781 -9.09375,-2.25 c -0.1875,-0.6875 -0.222656,-1.300781 -0.109375,-1.84375 0.117187,-0.539062 0.324219,-1.007812 0.625,-1.40625 0.304687,-0.40625 0.683594,-0.738281 1.140625,-1 0.449219,-0.257812 0.933594,-0.457031 1.453125,-0.59375 0.511719,-0.144531 1.027344,-0.21875 1.546875,-0.21875 0.523438,0 1.015625,0.101562 1.484375,0.296875 0.460937,0.1875 0.871094,0.492187 1.234375,0.90625 0.367188,0.40625 0.640625,0.953125 0.828125,1.640625 0.1875,0.699219 0.230469,1.320312 0.125,1.859375 -0.113281,0.53125 -0.320313,1 -0.625,1.40625 -0.300781,0.398437 -0.675781,0.726563 -1.125,0.984375 -0.457031,0.25 -0.941406,0.445312 -1.453125,0.59375 z m 0,0"
           id="path221" />
      </g>
    </g>
  </g>
  <g
     fill="#ffffff"
     fill-opacity="1"
     id="g227"
     transform="translate(-25.556099,-19.320312)">
    <g
       transform="translate(185.32434,87.268579)"
       id="g226">
      <g
         id="g225">
        <path
           d="m -11.03125,1.453125 10.171875,-3.78125 0.46875,1.28125 -10.171875,3.78125 z m 0,0"
           id="path224" />
      </g>
    </g>
  </g>
  <g
     fill="#ffffff"
     fill-opacity="1"
     id="g230"
     transform="translate(-25.556099,-19.320312)">
    <g
       transform="translate(184.01619,83.465301)"
       id="g229">
      <g
         id="g228">
        <path
           d="M -7.046875,-4.09375 C -7.265625,-3.976562 -7.5,-3.820312 -7.75,-3.625 c -0.257812,0.1875 -0.472656,0.414062 -0.640625,0.671875 -0.175781,0.261719 -0.28125,0.558594 -0.3125,0.890625 -0.039063,0.324219 0.039063,0.679688 0.234375,1.0625 0.210938,0.460938 0.464844,0.792969 0.765625,1 0.304687,0.21875 0.617187,0.347656 0.9375,0.390625 0.324219,0.039063 0.636719,0.023437 0.9375,-0.046875 0.304687,-0.074219 0.5625,-0.164062 0.78125,-0.265625 z m 1.5,-2.21875 c 0.28125,-0.082031 0.589844,-0.125 0.921875,-0.125 0.324219,-0.00781 0.65625,0.054688 1,0.1875 0.34375,0.136719 0.683594,0.355469 1.015625,0.65625 0.335937,0.292969 0.632813,0.710938 0.890625,1.25 0.28125,0.59375 0.4375,1.136719 0.46875,1.625 0.03125,0.480469 -0.00781,0.914062 -0.125,1.296875 -0.125,0.375 -0.296875,0.710937 -0.515625,1 -0.226563,0.292969 -0.46875,0.535156 -0.71875,0.734375 -0.25,0.195312 -0.484375,0.359375 -0.703125,0.484375 -0.226562,0.132813 -0.398438,0.226563 -0.515625,0.28125 -0.15625,0.070313 -0.363281,0.160156 -0.625,0.265625 -0.257813,0.101562 -0.550781,0.1875 -0.875,0.25 C -5.648438,1.664062 -5.988281,1.691406 -6.34375,1.671875 -6.707031,1.660156 -7.066406,1.582031 -7.421875,1.4375 -7.773438,1.300781 -8.113281,1.070312 -8.4375,0.75 -8.769531,0.4375 -9.070312,0.00390625 -9.34375,-0.546875 -9.675781,-1.242188 -9.816406,-1.863281 -9.765625,-2.40625 c 0.042969,-0.550781 0.195313,-1.03125 0.453125,-1.4375 0.261719,-0.40625 0.59375,-0.753906 1,-1.046875 0.40625,-0.289063 0.796875,-0.535156 1.171875,-0.734375 0.0625,-0.03125 0.125,-0.0625 0.1875,-0.09375 0.054687,-0.03125 0.109375,-0.0625 0.171875,-0.09375 l 2.609375,5.46875 c 0.304687,-0.144531 0.59375,-0.332031 0.875,-0.5625 0.273437,-0.238281 0.496094,-0.503906 0.671875,-0.796875 0.179688,-0.300781 0.28125,-0.632813 0.3125,-1 C -2.289062,-3.066406 -2.378906,-3.457031 -2.578125,-3.875 -2.710938,-4.15625 -2.875,-4.394531 -3.0625,-4.59375 c -0.195312,-0.195312 -0.398438,-0.34375 -0.609375,-0.4375 -0.207031,-0.101562 -0.425781,-0.160156 -0.65625,-0.171875 -0.226563,-0.019531 -0.445313,0 -0.65625,0.0625 z m 0,0"
           id="path227" />
      </g>
    </g>
  </g>
  <g
     fill="#ffffff"
     fill-opacity="1"
     id="g233"
     transform="translate(-25.556099,-19.320312)">
    <g
       transform="translate(179.91143,75.184874)"
       id="g232">
      <g
         id="g231" />
    </g>
  </g>
  <g
     fill="#ffffff"
     fill-opacity="1"
     id="g236"
     transform="translate(-25.556099,-19.320312)">
    <g
       transform="translate(177.93893,71.876094)"
       id="g235">
      <g
         id="g234" />
    </g>
  </g>
</svg>
