<svg xmlns="http://www.w3.org/2000/svg" xmlns:xlink="http://www.w3.org/1999/xlink" width="300" zoomAndPan="magnify" viewBox="0 0 224.87999 225" height="300" preserveAspectRatio="xMidYMid meet" version="1.0"><defs><g/><clipPath id="161e93ffce"><path d="M 0 0.0585938 L 224.761719 0.0585938 L 224.761719 224.9375 L 0 224.9375 Z M 0 0.0585938 " clip-rule="nonzero"/></clipPath><clipPath id="8215e9b675"><path d="M 25.496094 19.320312 L 202.398438 19.320312 L 202.398438 196.222656 L 25.496094 196.222656 Z M 25.496094 19.320312 " clip-rule="nonzero"/></clipPath><clipPath id="2ed1192537"><path d="M 64.707031 57.714844 L 165 57.714844 L 165 158 L 64.707031 158 Z M 64.707031 57.714844 " clip-rule="nonzero"/></clipPath></defs><g clip-path="url(#161e93ffce)"><path fill="#ffffff" d="M 0 0.0585938 L 224.878906 0.0585938 L 224.878906 224.941406 L 0 224.941406 Z M 0 0.0585938 " fill-opacity="1" fill-rule="nonzero"/><path fill="#ffffff" d="M 0 0.0585938 L 224.878906 0.0585938 L 224.878906 224.941406 L 0 224.941406 Z M 0 0.0585938 " fill-opacity="1" fill-rule="nonzero"/></g><g clip-path="url(#8215e9b675)"><path fill="#38b6ff" d="M 202.386719 107.765625 C 202.386719 109.214844 202.351562 110.660156 202.28125 112.105469 C 202.210938 113.550781 202.105469 114.996094 201.960938 116.433594 C 201.820312 117.875 201.644531 119.3125 201.429688 120.742188 C 201.21875 122.175781 200.972656 123.601562 200.6875 125.019531 C 200.40625 126.441406 200.089844 127.851562 199.738281 129.257812 C 199.386719 130.660156 199 132.054688 198.578125 133.441406 C 198.160156 134.824219 197.707031 136.199219 197.21875 137.5625 C 196.730469 138.925781 196.210938 140.277344 195.65625 141.613281 C 195.101562 142.949219 194.515625 144.273438 193.894531 145.582031 C 193.277344 146.890625 192.625 148.183594 191.945312 149.460938 C 191.261719 150.734375 190.550781 151.996094 189.804688 153.238281 C 189.058594 154.476562 188.285156 155.699219 187.480469 156.90625 C 186.679688 158.109375 185.84375 159.289062 184.984375 160.453125 C 184.121094 161.617188 183.230469 162.757812 182.3125 163.875 C 181.394531 164.996094 180.449219 166.089844 179.476562 167.164062 C 178.503906 168.234375 177.507812 169.285156 176.484375 170.308594 C 175.460938 171.332031 174.410156 172.328125 173.339844 173.300781 C 172.265625 174.273438 171.171875 175.21875 170.050781 176.136719 C 168.933594 177.054688 167.792969 177.945312 166.628906 178.808594 C 165.464844 179.667969 164.285156 180.503906 163.078125 181.308594 C 161.875 182.109375 160.652344 182.886719 159.410156 183.628906 C 158.171875 184.375 156.910156 185.085938 155.636719 185.769531 C 154.359375 186.453125 153.066406 187.101562 151.757812 187.722656 C 150.449219 188.339844 149.125 188.925781 147.789062 189.480469 C 146.449219 190.035156 145.101562 190.554688 143.738281 191.042969 C 142.375 191.53125 141 191.984375 139.617188 192.40625 C 138.230469 192.824219 136.835938 193.210938 135.433594 193.5625 C 134.027344 193.914062 132.617188 194.230469 131.195312 194.511719 C 129.777344 194.796875 128.351562 195.042969 126.917969 195.253906 C 125.488281 195.46875 124.050781 195.644531 122.609375 195.785156 C 121.171875 195.929688 119.726562 196.035156 118.28125 196.105469 C 116.835938 196.175781 115.390625 196.210938 113.941406 196.210938 C 112.492188 196.210938 111.046875 196.175781 109.601562 196.105469 C 108.15625 196.035156 106.710938 195.929688 105.273438 195.785156 C 103.832031 195.644531 102.394531 195.46875 100.964844 195.253906 C 99.53125 195.042969 98.105469 194.796875 96.6875 194.511719 C 95.265625 194.230469 93.855469 193.914062 92.449219 193.5625 C 91.046875 193.210938 89.652344 192.824219 88.265625 192.40625 C 86.882812 191.984375 85.507812 191.53125 84.144531 191.042969 C 82.78125 190.554688 81.429688 190.035156 80.09375 189.480469 C 78.757812 188.925781 77.433594 188.339844 76.125 187.722656 C 74.816406 187.101562 73.523438 186.453125 72.246094 185.769531 C 70.972656 185.085938 69.710938 184.375 68.46875 183.628906 C 67.230469 182.886719 66.007812 182.109375 64.804688 181.308594 C 63.597656 180.503906 62.417969 179.667969 61.253906 178.808594 C 60.089844 177.945312 58.949219 177.054688 57.832031 176.136719 C 56.710938 175.21875 55.617188 174.273438 54.542969 173.300781 C 53.472656 172.328125 52.421875 171.332031 51.398438 170.308594 C 50.375 169.285156 49.378906 168.234375 48.40625 167.164062 C 47.433594 166.089844 46.488281 164.996094 45.570312 163.875 C 44.652344 162.757812 43.761719 161.617188 42.898438 160.453125 C 42.039062 159.289062 41.203125 158.109375 40.398438 156.90625 C 39.597656 155.699219 38.820312 154.476562 38.078125 153.238281 C 37.332031 151.996094 36.621094 150.734375 35.9375 149.460938 C 35.253906 148.183594 34.605469 146.890625 33.984375 145.582031 C 33.367188 144.273438 32.78125 142.949219 32.226562 141.613281 C 31.671875 140.277344 31.152344 138.925781 30.664062 137.5625 C 30.175781 136.199219 29.722656 134.824219 29.304688 133.441406 C 28.882812 132.054688 28.496094 130.660156 28.144531 129.257812 C 27.792969 127.851562 27.476562 126.441406 27.195312 125.019531 C 26.910156 123.601562 26.664062 122.175781 26.453125 120.742188 C 26.238281 119.3125 26.0625 117.875 25.921875 116.433594 C 25.777344 114.996094 25.671875 113.550781 25.601562 112.105469 C 25.53125 110.660156 25.496094 109.214844 25.496094 107.765625 C 25.496094 106.320312 25.53125 104.871094 25.601562 103.425781 C 25.671875 101.980469 25.777344 100.535156 25.921875 99.097656 C 26.0625 97.65625 26.238281 96.21875 26.453125 94.789062 C 26.664062 93.355469 26.910156 91.929688 27.195312 90.511719 C 27.476562 89.089844 27.792969 87.679688 28.144531 86.273438 C 28.496094 84.871094 28.882812 83.476562 29.304688 82.089844 C 29.722656 80.707031 30.175781 79.332031 30.664062 77.96875 C 31.152344 76.605469 31.671875 75.257812 32.226562 73.917969 C 32.78125 72.582031 33.367188 71.257812 33.984375 69.949219 C 34.605469 68.640625 35.253906 67.347656 35.9375 66.074219 C 36.621094 64.796875 37.332031 63.535156 38.078125 62.296875 C 38.820312 61.054688 39.597656 59.832031 40.398438 58.628906 C 41.203125 57.425781 42.039062 56.242188 42.898438 55.078125 C 43.761719 53.914062 44.652344 52.773438 45.570312 51.65625 C 46.488281 50.535156 47.433594 49.441406 48.40625 48.367188 C 49.378906 47.296875 50.375 46.246094 51.398438 45.222656 C 52.421875 44.199219 53.472656 43.203125 54.542969 42.230469 C 55.617188 41.257812 56.710938 40.3125 57.832031 39.394531 C 58.949219 38.476562 60.089844 37.585938 61.253906 36.726562 C 62.417969 35.863281 63.597656 35.027344 64.804688 34.226562 C 66.007812 33.421875 67.230469 32.648438 68.46875 31.902344 C 69.710938 31.160156 70.972656 30.445312 72.246094 29.761719 C 73.523438 29.082031 74.816406 28.429688 76.125 27.8125 C 77.433594 27.191406 78.757812 26.605469 80.09375 26.050781 C 81.429688 25.496094 82.78125 24.976562 84.144531 24.488281 C 85.507812 24 86.882812 23.546875 88.265625 23.128906 C 89.652344 22.707031 91.046875 22.320312 92.449219 21.96875 C 93.855469 21.617188 95.265625 21.300781 96.6875 21.019531 C 98.105469 20.734375 99.53125 20.488281 100.964844 20.277344 C 102.394531 20.0625 103.832031 19.886719 105.273438 19.746094 C 106.710938 19.601562 108.15625 19.496094 109.601562 19.425781 C 111.046875 19.355469 112.492188 19.320312 113.941406 19.320312 C 115.390625 19.320312 116.835938 19.355469 118.28125 19.425781 C 119.726562 19.496094 121.171875 19.601562 122.609375 19.746094 C 124.050781 19.886719 125.488281 20.0625 126.917969 20.277344 C 128.351562 20.488281 129.777344 20.734375 131.195312 21.019531 C 132.617188 21.300781 134.027344 21.617188 135.433594 21.96875 C 136.835938 22.320312 138.230469 22.707031 139.617188 23.128906 C 141 23.546875 142.375 24 143.738281 24.488281 C 145.101562 24.976562 146.449219 25.496094 147.789062 26.050781 C 149.125 26.605469 150.449219 27.191406 151.757812 27.8125 C 153.066406 28.429688 154.359375 29.082031 155.636719 29.761719 C 156.910156 30.445312 158.171875 31.160156 159.410156 31.902344 C 160.652344 32.648438 161.875 33.421875 163.078125 34.226562 C 164.285156 35.027344 165.464844 35.863281 166.628906 36.726562 C 167.792969 37.585938 168.933594 38.476562 170.050781 39.394531 C 171.171875 40.3125 172.265625 41.257812 173.339844 42.230469 C 174.410156 43.203125 175.460938 44.199219 176.484375 45.222656 C 177.507812 46.246094 178.503906 47.296875 179.476562 48.367188 C 180.449219 49.441406 181.394531 50.535156 182.3125 51.65625 C 183.230469 52.773438 184.121094 53.914062 184.984375 55.078125 C 185.84375 56.242188 186.679688 57.425781 187.480469 58.628906 C 188.285156 59.832031 189.058594 61.054688 189.804688 62.296875 C 190.550781 63.535156 191.261719 64.796875 191.945312 66.074219 C 192.625 67.347656 193.277344 68.640625 193.894531 69.949219 C 194.515625 71.257812 195.101562 72.582031 195.65625 73.917969 C 196.210938 75.257812 196.730469 76.605469 197.21875 77.96875 C 197.707031 79.332031 198.160156 80.707031 198.578125 82.089844 C 199 83.476562 199.386719 84.871094 199.738281 86.273438 C 200.089844 87.679688 200.40625 89.089844 200.6875 90.511719 C 200.972656 91.929688 201.21875 93.355469 201.429688 94.789062 C 201.644531 96.21875 201.820312 97.65625 201.960938 99.097656 C 202.105469 100.535156 202.210938 101.980469 202.28125 103.425781 C 202.351562 104.871094 202.386719 106.320312 202.386719 107.765625 Z M 202.386719 107.765625 " fill-opacity="1" fill-rule="nonzero"/></g><g clip-path="url(#2ed1192537)"><path fill="#000000" d="M 164.816406 107.765625 C 164.816406 109.40625 164.734375 111.042969 164.574219 112.671875 C 164.414062 114.304688 164.171875 115.925781 163.851562 117.53125 C 163.53125 119.140625 163.136719 120.726562 162.660156 122.296875 C 162.183594 123.867188 161.632812 125.40625 161.003906 126.921875 C 160.378906 128.4375 159.675781 129.917969 158.90625 131.363281 C 158.132812 132.808594 157.289062 134.210938 156.378906 135.574219 C 155.46875 136.9375 154.492188 138.253906 153.453125 139.519531 C 152.414062 140.789062 151.3125 142 150.15625 143.160156 C 148.996094 144.320312 147.78125 145.417969 146.515625 146.457031 C 145.246094 147.5 143.933594 148.472656 142.570312 149.382812 C 141.207031 150.296875 139.800781 151.136719 138.355469 151.910156 C 136.910156 152.683594 135.429688 153.382812 133.914062 154.011719 C 132.402344 154.636719 130.859375 155.1875 129.289062 155.664062 C 127.722656 156.140625 126.132812 156.539062 124.527344 156.859375 C 122.917969 157.179688 121.296875 157.417969 119.667969 157.578125 C 118.035156 157.738281 116.402344 157.820312 114.761719 157.820312 C 113.121094 157.820312 111.488281 157.738281 109.855469 157.578125 C 108.222656 157.417969 106.605469 157.179688 104.996094 156.859375 C 103.386719 156.539062 101.800781 156.140625 100.230469 155.664062 C 98.664062 155.1875 97.121094 154.636719 95.605469 154.011719 C 94.09375 153.382812 92.613281 152.683594 91.167969 151.910156 C 89.71875 151.136719 88.316406 150.296875 86.953125 149.382812 C 85.589844 148.472656 84.273438 147.5 83.007812 146.457031 C 81.742188 145.417969 80.527344 144.320312 79.367188 143.160156 C 78.210938 142 77.109375 140.789062 76.070312 139.519531 C 75.03125 138.253906 74.054688 136.9375 73.144531 135.574219 C 72.234375 134.210938 71.390625 132.808594 70.617188 131.363281 C 69.84375 129.917969 69.144531 128.4375 68.519531 126.921875 C 67.890625 125.40625 67.339844 123.867188 66.863281 122.296875 C 66.386719 120.726562 65.988281 119.140625 65.667969 117.53125 C 65.351562 115.925781 65.109375 114.304688 64.949219 112.671875 C 64.789062 111.042969 64.707031 109.40625 64.707031 107.765625 C 64.707031 106.128906 64.789062 104.492188 64.949219 102.859375 C 65.109375 101.230469 65.351562 99.609375 65.667969 98.003906 C 65.988281 96.394531 66.386719 94.804688 66.863281 93.238281 C 67.339844 91.667969 67.890625 90.125 68.519531 88.613281 C 69.144531 87.097656 69.84375 85.617188 70.617188 84.171875 C 71.390625 82.726562 72.234375 81.320312 73.144531 79.957031 C 74.054688 78.597656 75.03125 77.28125 76.070312 76.011719 C 77.109375 74.746094 78.210938 73.53125 79.367188 72.375 C 80.527344 71.214844 81.742188 70.113281 83.007812 69.074219 C 84.273438 68.035156 85.589844 67.058594 86.953125 66.148438 C 88.316406 65.238281 89.71875 64.398438 91.167969 63.625 C 92.613281 62.851562 94.09375 62.152344 95.605469 61.523438 C 97.121094 60.894531 98.664062 60.34375 100.230469 59.867188 C 101.800781 59.394531 103.386719 58.996094 104.996094 58.675781 C 106.605469 58.355469 108.222656 58.117188 109.855469 57.953125 C 111.488281 57.792969 113.121094 57.714844 114.761719 57.714844 C 116.402344 57.714844 118.035156 57.792969 119.667969 57.953125 C 121.296875 58.117188 122.917969 58.355469 124.527344 58.675781 C 126.132812 58.996094 127.722656 59.394531 129.289062 59.867188 C 130.859375 60.34375 132.402344 60.894531 133.914062 61.523438 C 135.429688 62.152344 136.910156 62.851562 138.355469 63.625 C 139.800781 64.398438 141.207031 65.238281 142.570312 66.148438 C 143.933594 67.058594 145.246094 68.035156 146.515625 69.074219 C 147.78125 70.113281 148.996094 71.214844 150.15625 72.375 C 151.3125 73.53125 152.414062 74.746094 153.453125 76.011719 C 154.492188 77.28125 155.46875 78.597656 156.378906 79.957031 C 157.289062 81.320312 158.132812 82.726562 158.90625 84.171875 C 159.675781 85.617188 160.378906 87.097656 161.003906 88.613281 C 161.632812 90.125 162.183594 91.667969 162.660156 93.238281 C 163.136719 94.804688 163.53125 96.394531 163.851562 98.003906 C 164.171875 99.609375 164.414062 101.230469 164.574219 102.859375 C 164.734375 104.492188 164.816406 106.128906 164.816406 107.765625 Z M 164.816406 107.765625 " fill-opacity="1" fill-rule="nonzero"/></g><g fill="#ffffff" fill-opacity="1"><g transform="translate(78.542964, 86.342403)"><g><path d="M 6.242188 0 L 6.242188 -5.226562 C 6.242188 -7.035156 5.476562 -7.957031 3.636719 -7.957031 L 1.324219 -7.957031 L 1.324219 -6.707031 L 3.511719 -6.707031 C 4.554688 -6.707031 4.914062 -6.148438 4.914062 -5.226562 L 4.914062 -4.476562 L 3.324219 -4.476562 C 1.621094 -4.476562 0.703125 -3.820312 0.703125 -2.183594 C 0.703125 -0.734375 1.542969 0 3.042969 0 Z M 4.914062 -1.171875 L 3.199219 -1.171875 C 2.417969 -1.171875 2.027344 -1.496094 2.027344 -2.183594 C 2.027344 -3.011719 2.402344 -3.355469 3.355469 -3.355469 L 4.914062 -3.355469 Z M 4.914062 -1.171875 "/></g></g></g><g fill="#ffffff" fill-opacity="1"><g transform="translate(85.871538, 86.342403)"><g><path d="M 6.628906 0 L 6.628906 -7.957031 L 5.304688 -7.957031 L 5.304688 -1.171875 L 3.746094 -1.171875 C 2.792969 -1.171875 2.417969 -1.824219 2.417969 -2.652344 L 2.417969 -7.957031 L 1.09375 -7.957031 L 1.09375 -2.652344 C 1.09375 -1.015625 1.886719 0 3.589844 0 Z M 6.628906 0 "/></g></g></g><g fill="#ffffff" fill-opacity="1"><g transform="translate(93.589931, 86.342403)"><g><path d="M 6.007812 -2.417969 C 6.007812 -3.976562 4.929688 -4.382812 3.914062 -4.617188 L 3.246094 -4.773438 C 2.605469 -4.914062 2.105469 -5.148438 2.105469 -5.742188 C 2.105469 -6.347656 2.464844 -6.707031 3.511719 -6.707031 L 5.851562 -6.707031 L 5.851562 -7.957031 L 3.480469 -7.957031 C 1.699219 -7.957031 0.78125 -7.191406 0.78125 -5.632812 C 0.78125 -4.132812 1.777344 -3.746094 2.777344 -3.511719 L 3.558594 -3.324219 C 4.179688 -3.167969 4.679688 -2.902344 4.679688 -2.292969 C 4.679688 -1.511719 4.085938 -1.25 3.199219 -1.25 L 0.78125 -1.25 L 0.78125 0 L 3.324219 0 C 5.101562 0 6.007812 -0.671875 6.007812 -2.417969 Z M 6.007812 -2.417969 "/></g></g></g><g fill="#ffffff" fill-opacity="1"><g transform="translate(100.372756, 86.342403)"><g><path d="M 6.472656 0.234375 L 6.472656 -7.957031 L 3.433594 -7.957031 C 1.730469 -7.957031 0.9375 -6.941406 0.9375 -5.304688 L 0.9375 -2.808594 C 0.9375 -1.171875 1.730469 -0.15625 3.433594 -0.15625 L 5.148438 -0.15625 L 5.148438 0.234375 C 5.148438 1.15625 4.789062 1.714844 3.746094 1.714844 L 1.558594 1.714844 L 1.558594 2.964844 L 3.867188 2.964844 C 5.726562 2.964844 6.472656 2.121094 6.472656 0.234375 Z M 5.148438 -1.324219 L 3.589844 -1.324219 C 2.636719 -1.324219 2.261719 -1.980469 2.261719 -2.808594 L 2.261719 -5.304688 C 2.261719 -6.132812 2.636719 -6.785156 3.589844 -6.785156 L 5.148438 -6.785156 Z M 5.148438 -1.324219 "/></g></g></g><g fill="#ffffff" fill-opacity="1"><g transform="translate(107.935217, 86.342403)"><g><path d="M 6.472656 -3.511719 L 6.472656 -4.992188 C 6.472656 -6.753906 5.632812 -7.957031 3.867188 -7.957031 L 3.542969 -7.957031 C 1.839844 -7.957031 0.9375 -6.785156 0.9375 -4.992188 L 0.9375 -2.964844 C 0.9375 -0.96875 1.949219 0 3.746094 0 L 6.085938 0 L 6.085938 -1.171875 L 3.898438 -1.171875 C 2.824219 -1.171875 2.261719 -1.902344 2.261719 -2.964844 L 2.261719 -3.511719 Z M 5.148438 -4.554688 L 2.261719 -4.554688 L 2.261719 -5.148438 C 2.261719 -5.976562 2.589844 -6.785156 3.542969 -6.785156 L 3.867188 -6.785156 C 4.820312 -6.785156 5.148438 -5.976562 5.148438 -5.148438 Z M 5.148438 -4.554688 "/></g></g></g><g fill="#ffffff" fill-opacity="1"><g transform="translate(115.341758, 86.342403)"><g><path d="M 6.007812 -2.417969 C 6.007812 -3.976562 4.929688 -4.382812 3.914062 -4.617188 L 3.246094 -4.773438 C 2.605469 -4.914062 2.105469 -5.148438 2.105469 -5.742188 C 2.105469 -6.347656 2.464844 -6.707031 3.511719 -6.707031 L 5.851562 -6.707031 L 5.851562 -7.957031 L 3.480469 -7.957031 C 1.699219 -7.957031 0.78125 -7.191406 0.78125 -5.632812 C 0.78125 -4.132812 1.777344 -3.746094 2.777344 -3.511719 L 3.558594 -3.324219 C 4.179688 -3.167969 4.679688 -2.902344 4.679688 -2.292969 C 4.679688 -1.511719 4.085938 -1.25 3.199219 -1.25 L 0.78125 -1.25 L 0.78125 0 L 3.324219 0 C 5.101562 0 6.007812 -0.671875 6.007812 -2.417969 Z M 6.007812 -2.417969 "/></g></g></g><g fill="#ffffff" fill-opacity="1"><g transform="translate(122.124583, 86.342403)"><g><path d="M 4.914062 0 L 4.914062 -1.25 L 3.714844 -1.25 C 3.199219 -1.25 2.886719 -1.574219 2.886719 -2.152344 L 2.886719 -6.707031 L 4.914062 -6.707031 L 4.914062 -7.957031 L 2.886719 -7.957031 L 2.886719 -10.140625 L 1.558594 -10.140625 L 1.558594 -7.957031 L 0.3125 -7.957031 L 0.3125 -6.707031 L 1.558594 -6.707031 L 1.558594 -2.105469 C 1.558594 -0.53125 2.386719 0 3.433594 0 Z M 4.914062 0 "/></g></g></g><g fill="#ffffff" fill-opacity="1"><g transform="translate(127.348136, 86.342403)"><g><path d="M 6.472656 -3.511719 L 6.472656 -4.992188 C 6.472656 -6.753906 5.632812 -7.957031 3.867188 -7.957031 L 3.542969 -7.957031 C 1.839844 -7.957031 0.9375 -6.785156 0.9375 -4.992188 L 0.9375 -2.964844 C 0.9375 -0.96875 1.949219 0 3.746094 0 L 6.085938 0 L 6.085938 -1.171875 L 3.898438 -1.171875 C 2.824219 -1.171875 2.261719 -1.902344 2.261719 -2.964844 L 2.261719 -3.511719 Z M 5.148438 -4.554688 L 2.261719 -4.554688 L 2.261719 -5.148438 C 2.261719 -5.976562 2.589844 -6.785156 3.542969 -6.785156 L 3.867188 -6.785156 C 4.820312 -6.785156 5.148438 -5.976562 5.148438 -5.148438 Z M 5.148438 -4.554688 "/></g></g></g><g fill="#ffffff" fill-opacity="1"><g transform="translate(134.754677, 86.342403)"><g><path d="M 2.417969 0 L 2.417969 -11.078125 L 1.09375 -11.078125 L 1.09375 0 Z M 2.417969 0 "/></g></g></g><g fill="#ffffff" fill-opacity="1"><g transform="translate(138.263038, 86.342403)"><g><path d="M 2.417969 0 L 2.417969 -11.078125 L 1.09375 -11.078125 L 1.09375 0 Z M 2.417969 0 "/></g></g></g><g fill="#ffffff" fill-opacity="1"><g transform="translate(141.771399, 86.342403)"><g><path d="M 4.914062 0 L 4.914062 -1.25 L 3.714844 -1.25 C 3.199219 -1.25 2.886719 -1.574219 2.886719 -2.152344 L 2.886719 -6.707031 L 4.914062 -6.707031 L 4.914062 -7.957031 L 2.886719 -7.957031 L 2.886719 -10.140625 L 1.558594 -10.140625 L 1.558594 -7.957031 L 0.3125 -7.957031 L 0.3125 -6.707031 L 1.558594 -6.707031 L 1.558594 -2.105469 C 1.558594 -0.53125 2.386719 0 3.433594 0 Z M 4.914062 0 "/></g></g></g><g fill="#ffffff" fill-opacity="1"><g transform="translate(104.265337, 107.880544)"><g><path d="M 4.289062 -9.828125 L 4.289062 -11.078125 L 3.199219 -11.078125 C 2.042969 -11.078125 1.402344 -10.46875 1.402344 -9.125 L 1.402344 -7.957031 L 0.3125 -7.957031 L 0.3125 -6.785156 L 1.402344 -6.785156 L 1.402344 0 L 2.730469 0 L 2.730469 -6.785156 L 4.132812 -6.785156 L 4.132812 -7.957031 L 2.730469 -7.957031 L 2.730469 -9.078125 C 2.730469 -9.65625 2.996094 -9.828125 3.355469 -9.828125 Z M 4.289062 -9.828125 "/></g></g></g><g fill="#ffffff" fill-opacity="1"><g transform="translate(108.709255, 107.880544)"><g><path d="M 5.851562 -9.75 L 5.851562 -11.078125 L 4.523438 -11.078125 L 4.523438 -9.75 Z M 3.199219 -9.75 L 3.199219 -11.078125 L 1.871094 -11.078125 L 1.871094 -9.75 Z M 6.628906 0 L 6.628906 -7.957031 L 5.304688 -7.957031 L 5.304688 -1.171875 L 3.746094 -1.171875 C 2.792969 -1.171875 2.417969 -1.824219 2.417969 -2.652344 L 2.417969 -7.957031 L 1.09375 -7.957031 L 1.09375 -2.652344 C 1.09375 -1.015625 1.886719 0 3.589844 0 Z M 6.628906 0 "/></g></g></g><g fill="#ffffff" fill-opacity="1"><g transform="translate(116.427648, 107.880544)"><g><path d="M 4.523438 -6.722656 L 4.523438 -7.957031 L 3.511719 -7.957031 C 1.808594 -7.957031 1.015625 -6.941406 1.015625 -5.304688 L 1.015625 0 L 2.339844 0 L 2.339844 -5.304688 C 2.339844 -6.132812 2.714844 -6.722656 3.667969 -6.722656 Z M 4.523438 -6.722656 "/></g></g></g><g fill="#ffffff" fill-opacity="1"><g transform="translate(87.853723, 129.418685)"><g><path d="M 8.660156 0 L 5.148438 -11.078125 L 3.820312 -11.078125 L 0.3125 0 L 1.714844 0 L 2.386719 -2.183594 L 6.582031 -2.183594 L 7.253906 0 Z M 6.195312 -3.433594 L 2.777344 -3.433594 L 4.492188 -8.9375 Z M 6.195312 -3.433594 "/></g></g></g><g fill="#ffffff" fill-opacity="1"><g transform="translate(96.819535, 129.418685)"><g><path d="M 6.472656 0 L 6.472656 -11.078125 L 5.148438 -11.078125 L 5.148438 -7.957031 L 3.433594 -7.957031 C 1.730469 -7.957031 0.9375 -6.941406 0.9375 -5.304688 L 0.9375 -2.652344 C 0.9375 -1.015625 1.730469 0 3.433594 0 Z M 5.148438 -1.171875 L 3.589844 -1.171875 C 2.636719 -1.171875 2.261719 -1.824219 2.261719 -2.652344 L 2.261719 -5.304688 C 2.261719 -6.132812 2.636719 -6.785156 3.589844 -6.785156 L 5.148438 -6.785156 Z M 5.148438 -1.171875 "/></g></g></g><g fill="#ffffff" fill-opacity="1"><g transform="translate(104.381996, 129.418685)"><g><path d="M 6.242188 0 L 6.242188 -5.226562 C 6.242188 -7.035156 5.476562 -7.957031 3.636719 -7.957031 L 1.324219 -7.957031 L 1.324219 -6.707031 L 3.511719 -6.707031 C 4.554688 -6.707031 4.914062 -6.148438 4.914062 -5.226562 L 4.914062 -4.476562 L 3.324219 -4.476562 C 1.621094 -4.476562 0.703125 -3.820312 0.703125 -2.183594 C 0.703125 -0.734375 1.542969 0 3.042969 0 Z M 4.914062 -1.171875 L 3.199219 -1.171875 C 2.417969 -1.171875 2.027344 -1.496094 2.027344 -2.183594 C 2.027344 -3.011719 2.402344 -3.355469 3.355469 -3.355469 L 4.914062 -3.355469 Z M 4.914062 -1.171875 "/></g></g></g><g fill="#ffffff" fill-opacity="1"><g transform="translate(111.71057, 129.418685)"><g><path d="M 6.628906 0 L 3.992188 -4.367188 L 6.472656 -7.957031 L 4.992188 -7.957031 L 2.511719 -4.367188 L 5.148438 0 Z M 2.417969 0 L 2.417969 -11.078125 L 1.09375 -11.078125 L 1.09375 0 Z M 2.417969 0 "/></g></g></g><g fill="#ffffff" fill-opacity="1"><g transform="translate(118.493396, 129.418685)"><g><path d="M 6.472656 -2.652344 L 6.472656 -5.304688 C 6.472656 -6.941406 5.539062 -7.957031 3.898438 -7.957031 L 3.511719 -7.957031 C 1.871094 -7.957031 0.9375 -6.941406 0.9375 -5.304688 L 0.9375 -2.652344 C 0.9375 -1.015625 1.871094 0 3.511719 0 L 3.898438 0 C 5.539062 0 6.472656 -1.015625 6.472656 -2.652344 Z M 5.148438 -2.652344 C 5.148438 -1.824219 4.664062 -1.171875 3.898438 -1.171875 L 3.511719 -1.171875 C 2.746094 -1.171875 2.261719 -1.824219 2.261719 -2.652344 L 2.261719 -5.304688 C 2.261719 -6.132812 2.746094 -6.785156 3.511719 -6.785156 L 3.898438 -6.785156 C 4.664062 -6.785156 5.148438 -6.132812 5.148438 -5.304688 Z M 5.148438 -2.652344 "/></g></g></g><g fill="#ffffff" fill-opacity="1"><g transform="translate(125.899936, 129.418685)"><g><path d="M 10.765625 0 L 10.765625 -5.148438 C 10.765625 -6.863281 9.953125 -7.957031 8.160156 -7.957031 L 7.832031 -7.957031 C 6.957031 -7.957031 6.316406 -7.707031 5.898438 -7.238281 C 5.476562 -7.707031 4.820312 -7.957031 3.945312 -7.957031 L 3.621094 -7.957031 C 1.824219 -7.957031 1.015625 -6.863281 1.015625 -5.148438 L 1.015625 0 L 2.339844 0 L 2.339844 -5.148438 C 2.339844 -5.976562 2.714844 -6.707031 3.667969 -6.707031 L 3.898438 -6.707031 C 4.851562 -6.707031 5.226562 -5.976562 5.226562 -5.148438 L 5.226562 0 L 6.550781 0 L 6.550781 -5.148438 C 6.550781 -5.976562 6.925781 -6.707031 7.878906 -6.707031 L 8.113281 -6.707031 C 9.0625 -6.707031 9.4375 -5.976562 9.4375 -5.148438 L 9.4375 0 Z M 10.765625 0 "/></g></g></g><g fill="#ffffff" fill-opacity="1"><g transform="translate(94.13568, 150.956826)"><g><path d="M 7.800781 0 L 7.800781 -6.085938 L 4.132812 -6.085938 L 4.132812 -4.835938 L 6.472656 -4.835938 L 6.472656 -1.25 L 4.367188 -1.25 C 2.824219 -1.25 2.261719 -2.386719 2.261719 -3.589844 L 2.261719 -7.175781 C 2.261719 -8.675781 2.949219 -9.828125 4.679688 -9.828125 L 7.488281 -9.828125 L 7.488281 -11.078125 L 4.679688 -11.078125 C 2.121094 -11.078125 0.9375 -9.546875 0.9375 -7.175781 L 0.9375 -3.589844 C 0.9375 -1.511719 1.980469 0 4.367188 0 Z M 7.800781 0 "/></g></g></g><g fill="#ffffff" fill-opacity="1"><g transform="translate(103.023527, 150.956826)"><g><path d="M 10.765625 0 L 10.765625 -5.148438 C 10.765625 -6.863281 9.953125 -7.957031 8.160156 -7.957031 L 7.832031 -7.957031 C 6.957031 -7.957031 6.316406 -7.707031 5.898438 -7.238281 C 5.476562 -7.707031 4.820312 -7.957031 3.945312 -7.957031 L 3.621094 -7.957031 C 1.824219 -7.957031 1.015625 -6.863281 1.015625 -5.148438 L 1.015625 0 L 2.339844 0 L 2.339844 -5.148438 C 2.339844 -5.976562 2.714844 -6.707031 3.667969 -6.707031 L 3.898438 -6.707031 C 4.851562 -6.707031 5.226562 -5.976562 5.226562 -5.148438 L 5.226562 0 L 6.550781 0 L 6.550781 -5.148438 C 6.550781 -5.976562 6.925781 -6.707031 7.878906 -6.707031 L 8.113281 -6.707031 C 9.0625 -6.707031 9.4375 -5.976562 9.4375 -5.148438 L 9.4375 0 Z M 10.765625 0 "/></g></g></g><g fill="#ffffff" fill-opacity="1"><g transform="translate(114.796019, 150.956826)"><g><path d="M 6.628906 -2.652344 L 6.628906 -5.304688 C 6.628906 -6.941406 5.835938 -7.957031 4.132812 -7.957031 L 2.417969 -7.957031 L 2.417969 -11.078125 L 1.09375 -11.078125 L 1.09375 0 L 4.132812 0 C 5.835938 0 6.628906 -1.015625 6.628906 -2.652344 Z M 5.304688 -2.652344 C 5.304688 -1.824219 4.929688 -1.171875 3.976562 -1.171875 L 2.417969 -1.171875 L 2.417969 -6.785156 L 3.976562 -6.785156 C 4.929688 -6.785156 5.304688 -6.132812 5.304688 -5.304688 Z M 5.304688 -2.652344 "/></g></g></g><g fill="#ffffff" fill-opacity="1"><g transform="translate(122.35848, 150.956826)"><g><path d="M 7.957031 0 L 7.957031 -11.078125 L 6.628906 -11.078125 L 6.628906 -6.242188 L 2.417969 -6.242188 L 2.417969 -11.078125 L 1.09375 -11.078125 L 1.09375 0 L 2.417969 0 L 2.417969 -4.992188 L 6.628906 -4.992188 L 6.628906 0 Z M 7.957031 0 "/></g></g></g><g fill="#ffffff" fill-opacity="1"><g transform="translate(74.835988, 53.177035)"><g><path d="M 7.390625 -4.40625 L 0.796875 -0.46875 C 0.453125 -1.050781 0.234375 -1.601562 0.140625 -2.125 C 0.046875 -2.65625 0.046875 -3.175781 0.140625 -3.6875 C 0.234375 -4.207031 0.394531 -4.722656 0.625 -5.234375 C 0.863281 -5.753906 1.132812 -6.300781 1.4375 -6.875 C 1.570312 -7.132812 1.707031 -7.40625 1.84375 -7.6875 C 1.988281 -7.976562 2.097656 -8.285156 2.171875 -8.609375 C 2.253906 -8.941406 2.28125 -9.28125 2.25 -9.625 C 2.21875 -9.976562 2.09375 -10.34375 1.875 -10.71875 C 1.507812 -11.332031 1.050781 -11.6875 0.5 -11.78125 C -0.0507812 -11.875 -0.617188 -11.742188 -1.203125 -11.390625 C -1.828125 -11.023438 -2.210938 -10.554688 -2.359375 -9.984375 C -2.515625 -9.421875 -2.414062 -8.84375 -2.0625 -8.25 L -1.859375 -7.890625 L -3.15625 -7.125 L -3.328125 -7.421875 C -3.460938 -7.640625 -3.597656 -7.941406 -3.734375 -8.328125 C -3.867188 -8.722656 -3.914062 -9.15625 -3.875 -9.625 C -3.84375 -10.101562 -3.675781 -10.59375 -3.375 -11.09375 C -3.082031 -11.59375 -2.566406 -12.066406 -1.828125 -12.515625 C -1.328125 -12.804688 -0.832031 -13.007812 -0.34375 -13.125 C 0.132812 -13.238281 0.585938 -13.253906 1.015625 -13.171875 C 1.453125 -13.085938 1.851562 -12.90625 2.21875 -12.625 C 2.59375 -12.34375 2.921875 -11.96875 3.203125 -11.5 C 3.472656 -11.050781 3.644531 -10.628906 3.71875 -10.234375 C 3.800781 -9.847656 3.796875 -9.441406 3.703125 -9.015625 C 3.617188 -8.597656 3.460938 -8.128906 3.234375 -7.609375 C 3.003906 -7.085938 2.71875 -6.484375 2.375 -5.796875 C 1.957031 -4.984375 1.691406 -4.320312 1.578125 -3.8125 C 1.460938 -3.300781 1.460938 -2.84375 1.578125 -2.4375 L 6.734375 -5.5 Z M 7.390625 -4.40625 "/></g></g></g><g fill="#ffffff" fill-opacity="1"><g transform="translate(82.374414, 48.633456)"><g><path d="M 3.71875 -5.84375 L 1.5625 -10.859375 L 0.15625 -4.3125 Z M -0.6875 -2.546875 L -1.1875 -3.734375 L 0.78125 -12.6875 L 2.203125 -13.296875 L 5.140625 -6.453125 L 6.765625 -7.15625 L 7.265625 -5.96875 L 5.640625 -5.265625 L 6.671875 -2.859375 L 5.25 -2.25 L 4.21875 -4.65625 Z M -0.6875 -2.546875 "/></g></g></g><g fill="#ffffff" fill-opacity="1"><g transform="translate(90.617539, 45.19799)"><g><path d="M 1.109375 -2.203125 L 2.640625 -2.671875 L 3.171875 -0.984375 L 1.640625 -0.515625 Z M 1.109375 -2.203125 "/></g></g></g><g fill="#ffffff" fill-opacity="1"><g transform="translate(94.951253, 43.705559)"><g><path d="M 4.421875 -1.859375 C 4.867188 -1.941406 5.21875 -2.140625 5.46875 -2.453125 C 5.726562 -2.765625 5.910156 -3.148438 6.015625 -3.609375 C 6.117188 -4.066406 6.15625 -4.582031 6.125 -5.15625 C 6.101562 -5.738281 6.03125 -6.347656 5.90625 -6.984375 C 5.769531 -7.628906 5.601562 -8.222656 5.40625 -8.765625 C 5.207031 -9.304688 4.96875 -9.765625 4.6875 -10.140625 C 4.414062 -10.523438 4.101562 -10.804688 3.75 -10.984375 C 3.394531 -11.171875 2.992188 -11.222656 2.546875 -11.140625 C 2.097656 -11.046875 1.742188 -10.84375 1.484375 -10.53125 C 1.222656 -10.226562 1.039062 -9.847656 0.9375 -9.390625 C 0.84375 -8.929688 0.804688 -8.410156 0.828125 -7.828125 C 0.847656 -7.253906 0.925781 -6.644531 1.0625 -6 C 1.1875 -5.363281 1.347656 -4.773438 1.546875 -4.234375 C 1.753906 -3.691406 1.992188 -3.226562 2.265625 -2.84375 C 2.535156 -2.46875 2.847656 -2.1875 3.203125 -2 C 3.566406 -1.8125 3.972656 -1.765625 4.421875 -1.859375 Z M 4.671875 -0.59375 C 4.535156 -0.5625 4.34375 -0.535156 4.09375 -0.515625 C 3.84375 -0.492188 3.5625 -0.515625 3.25 -0.578125 C 2.9375 -0.640625 2.609375 -0.765625 2.265625 -0.953125 C 1.921875 -1.140625 1.578125 -1.421875 1.234375 -1.796875 C 0.898438 -2.179688 0.585938 -2.691406 0.296875 -3.328125 C 0.015625 -3.960938 -0.21875 -4.753906 -0.40625 -5.703125 C -0.601562 -6.660156 -0.691406 -7.484375 -0.671875 -8.171875 C -0.648438 -8.859375 -0.554688 -9.445312 -0.390625 -9.9375 C -0.234375 -10.4375 -0.0351562 -10.832031 0.203125 -11.125 C 0.441406 -11.425781 0.691406 -11.664062 0.953125 -11.84375 C 1.222656 -12.03125 1.476562 -12.160156 1.71875 -12.234375 C 1.957031 -12.304688 2.144531 -12.359375 2.28125 -12.390625 C 2.425781 -12.421875 2.617188 -12.445312 2.859375 -12.46875 C 3.109375 -12.488281 3.390625 -12.46875 3.703125 -12.40625 C 4.023438 -12.34375 4.359375 -12.222656 4.703125 -12.046875 C 5.054688 -11.867188 5.398438 -11.582031 5.734375 -11.1875 C 6.066406 -10.789062 6.375 -10.28125 6.65625 -9.65625 C 6.9375 -9.03125 7.175781 -8.238281 7.375 -7.28125 C 7.5625 -6.332031 7.644531 -5.507812 7.625 -4.8125 C 7.613281 -4.113281 7.53125 -3.523438 7.375 -3.046875 C 7.21875 -2.566406 7.015625 -2.171875 6.765625 -1.859375 C 6.523438 -1.554688 6.269531 -1.3125 6 -1.125 C 5.726562 -0.945312 5.472656 -0.820312 5.234375 -0.75 C 5.003906 -0.675781 4.816406 -0.625 4.671875 -0.59375 Z M 4.671875 -0.59375 "/></g></g></g><g fill="#ffffff" fill-opacity="1"><g transform="translate(103.56974, 41.918472)"><g><path d="M 2.0625 -3.78125 C 2.09375 -3.425781 2.171875 -3.085938 2.296875 -2.765625 C 2.421875 -2.441406 2.59375 -2.160156 2.8125 -1.921875 C 3.039062 -1.679688 3.316406 -1.492188 3.640625 -1.359375 C 3.960938 -1.222656 4.335938 -1.171875 4.765625 -1.203125 C 5.191406 -1.222656 5.546875 -1.320312 5.828125 -1.5 C 6.117188 -1.675781 6.347656 -1.90625 6.515625 -2.1875 C 6.691406 -2.46875 6.816406 -2.773438 6.890625 -3.109375 C 6.960938 -3.453125 6.984375 -3.800781 6.953125 -4.15625 C 6.929688 -4.5 6.859375 -4.820312 6.734375 -5.125 C 6.617188 -5.425781 6.453125 -5.6875 6.234375 -5.90625 C 6.023438 -6.132812 5.765625 -6.304688 5.453125 -6.421875 C 5.140625 -6.546875 4.78125 -6.597656 4.375 -6.578125 C 3.570312 -6.515625 2.972656 -6.222656 2.578125 -5.703125 C 2.191406 -5.191406 2.019531 -4.550781 2.0625 -3.78125 Z M 6.546875 -9.3125 C 6.421875 -9.707031 6.253906 -10.007812 6.046875 -10.21875 C 5.835938 -10.425781 5.625 -10.570312 5.40625 -10.65625 C 5.1875 -10.75 4.96875 -10.796875 4.75 -10.796875 C 4.53125 -10.804688 4.367188 -10.804688 4.265625 -10.796875 C 3.671875 -10.753906 3.203125 -10.585938 2.859375 -10.296875 C 2.523438 -10.003906 2.273438 -9.640625 2.109375 -9.203125 C 1.941406 -8.773438 1.835938 -8.3125 1.796875 -7.8125 C 1.765625 -7.3125 1.765625 -6.84375 1.796875 -6.40625 L 1.828125 -6.421875 C 2.128906 -6.878906 2.519531 -7.210938 3 -7.421875 C 3.488281 -7.640625 3.992188 -7.765625 4.515625 -7.796875 C 5.035156 -7.835938 5.519531 -7.78125 5.96875 -7.625 C 6.425781 -7.476562 6.832031 -7.253906 7.1875 -6.953125 C 7.539062 -6.660156 7.820312 -6.285156 8.03125 -5.828125 C 8.238281 -5.367188 8.363281 -4.835938 8.40625 -4.234375 C 8.445312 -3.660156 8.394531 -3.117188 8.25 -2.609375 C 8.113281 -2.109375 7.890625 -1.664062 7.578125 -1.28125 C 7.273438 -0.90625 6.882812 -0.601562 6.40625 -0.375 C 5.9375 -0.144531 5.394531 -0.0078125 4.78125 0.03125 C 4.15625 0.0703125 3.585938 0.0195312 3.078125 -0.125 C 2.566406 -0.28125 2.117188 -0.570312 1.734375 -1 C 1.359375 -1.425781 1.050781 -2.007812 0.8125 -2.75 C 0.582031 -3.488281 0.425781 -4.425781 0.34375 -5.5625 C 0.28125 -6.5625 0.304688 -7.414062 0.421875 -8.125 C 0.546875 -8.84375 0.722656 -9.441406 0.953125 -9.921875 C 1.179688 -10.398438 1.445312 -10.769531 1.75 -11.03125 C 2.0625 -11.300781 2.363281 -11.503906 2.65625 -11.640625 C 2.957031 -11.785156 3.242188 -11.875 3.515625 -11.90625 C 3.796875 -11.945312 4.023438 -11.972656 4.203125 -11.984375 C 4.359375 -11.992188 4.609375 -11.992188 4.953125 -11.984375 C 5.304688 -11.972656 5.671875 -11.882812 6.046875 -11.71875 C 6.421875 -11.5625 6.785156 -11.304688 7.140625 -10.953125 C 7.492188 -10.609375 7.75 -10.09375 7.90625 -9.40625 Z M 6.546875 -9.3125 "/></g></g></g><g fill="#ffffff" fill-opacity="1"><g transform="translate(112.48554, 41.411116)"><g><path d="M 1.78125 -1.703125 L 3.390625 -1.640625 L 3.328125 0.125 L 1.71875 0.0625 Z M 1.78125 -1.703125 "/></g></g></g><g fill="#ffffff" fill-opacity="1"><g transform="translate(117.069061, 41.439352)"><g><path d="M 8.53125 1.1875 L 0.90625 0.125 C 1 -0.539062 1.171875 -1.109375 1.421875 -1.578125 C 1.679688 -2.046875 2.007812 -2.453125 2.40625 -2.796875 C 2.800781 -3.140625 3.253906 -3.4375 3.765625 -3.6875 C 4.285156 -3.9375 4.84375 -4.195312 5.4375 -4.46875 C 5.695312 -4.59375 5.96875 -4.71875 6.25 -4.84375 C 6.539062 -4.976562 6.816406 -5.148438 7.078125 -5.359375 C 7.347656 -5.566406 7.582031 -5.816406 7.78125 -6.109375 C 7.976562 -6.398438 8.109375 -6.757812 8.171875 -7.1875 C 8.265625 -7.894531 8.125 -8.457031 7.75 -8.875 C 7.382812 -9.300781 6.863281 -9.5625 6.1875 -9.65625 C 5.476562 -9.75 4.882812 -9.617188 4.40625 -9.265625 C 3.9375 -8.921875 3.65625 -8.410156 3.5625 -7.734375 L 3.5 -7.3125 L 2 -7.53125 L 2.046875 -7.875 C 2.085938 -8.132812 2.175781 -8.457031 2.3125 -8.84375 C 2.445312 -9.226562 2.675781 -9.59375 3 -9.9375 C 3.332031 -10.28125 3.769531 -10.554688 4.3125 -10.765625 C 4.851562 -10.984375 5.550781 -11.03125 6.40625 -10.90625 C 6.988281 -10.832031 7.5 -10.679688 7.9375 -10.453125 C 8.382812 -10.234375 8.75 -9.957031 9.03125 -9.625 C 9.3125 -9.300781 9.507812 -8.910156 9.625 -8.453125 C 9.75 -8.003906 9.773438 -7.515625 9.703125 -6.984375 C 9.628906 -6.453125 9.5 -6.007812 9.3125 -5.65625 C 9.132812 -5.300781 8.878906 -4.984375 8.546875 -4.703125 C 8.210938 -4.429688 7.789062 -4.164062 7.28125 -3.90625 C 6.78125 -3.644531 6.175781 -3.359375 5.46875 -3.046875 C 4.644531 -2.660156 4.023438 -2.304688 3.609375 -1.984375 C 3.203125 -1.660156 2.914062 -1.300781 2.75 -0.90625 L 8.703125 -0.078125 Z M 8.53125 1.1875 "/></g></g></g><g fill="#ffffff" fill-opacity="1"><g transform="translate(125.792559, 42.610933)"><g><path d="M 4.78125 0.359375 C 5.21875 0.472656 5.617188 0.453125 5.984375 0.296875 C 6.359375 0.140625 6.695312 -0.117188 7 -0.484375 C 7.300781 -0.847656 7.570312 -1.289062 7.8125 -1.8125 C 8.050781 -2.34375 8.253906 -2.921875 8.421875 -3.546875 C 8.597656 -4.171875 8.722656 -4.769531 8.796875 -5.34375 C 8.867188 -5.925781 8.867188 -6.445312 8.796875 -6.90625 C 8.722656 -7.363281 8.566406 -7.757812 8.328125 -8.09375 C 8.085938 -8.425781 7.75 -8.648438 7.3125 -8.765625 C 6.875 -8.890625 6.472656 -8.867188 6.109375 -8.703125 C 5.742188 -8.546875 5.410156 -8.285156 5.109375 -7.921875 C 4.804688 -7.566406 4.535156 -7.125 4.296875 -6.59375 C 4.054688 -6.070312 3.847656 -5.5 3.671875 -4.875 C 3.503906 -4.25 3.382812 -3.644531 3.3125 -3.0625 C 3.238281 -2.488281 3.238281 -1.96875 3.3125 -1.5 C 3.382812 -1.039062 3.535156 -0.644531 3.765625 -0.3125 C 4.003906 0.0078125 4.34375 0.234375 4.78125 0.359375 Z M 4.4375 1.59375 C 4.300781 1.550781 4.113281 1.484375 3.875 1.390625 C 3.644531 1.296875 3.40625 1.148438 3.15625 0.953125 C 2.90625 0.753906 2.664062 0.492188 2.4375 0.171875 C 2.21875 -0.140625 2.046875 -0.539062 1.921875 -1.03125 C 1.804688 -1.53125 1.757812 -2.125 1.78125 -2.8125 C 1.8125 -3.507812 1.957031 -4.328125 2.21875 -5.265625 C 2.476562 -6.203125 2.773438 -6.972656 3.109375 -7.578125 C 3.441406 -8.191406 3.785156 -8.675781 4.140625 -9.03125 C 4.503906 -9.394531 4.863281 -9.65625 5.21875 -9.8125 C 5.582031 -9.976562 5.921875 -10.082031 6.234375 -10.125 C 6.554688 -10.164062 6.835938 -10.164062 7.078125 -10.125 C 7.328125 -10.082031 7.519531 -10.039062 7.65625 -10 C 7.789062 -9.96875 7.972656 -9.90625 8.203125 -9.8125 C 8.441406 -9.71875 8.6875 -9.570312 8.9375 -9.375 C 9.195312 -9.175781 9.4375 -8.914062 9.65625 -8.59375 C 9.882812 -8.269531 10.054688 -7.859375 10.171875 -7.359375 C 10.296875 -6.867188 10.34375 -6.273438 10.3125 -5.578125 C 10.28125 -4.890625 10.132812 -4.078125 9.875 -3.140625 C 9.613281 -2.203125 9.316406 -1.425781 8.984375 -0.8125 C 8.660156 -0.207031 8.316406 0.269531 7.953125 0.625 C 7.597656 0.988281 7.238281 1.25 6.875 1.40625 C 6.519531 1.5625 6.179688 1.660156 5.859375 1.703125 C 5.535156 1.742188 5.25 1.742188 5 1.703125 C 4.757812 1.660156 4.570312 1.625 4.4375 1.59375 Z M 4.4375 1.59375 "/></g></g></g><g fill="#ffffff" fill-opacity="1"><g transform="translate(134.283062, 44.931131)"><g><path d="M 7.921875 3.390625 L 0.84375 0.359375 C 1.113281 -0.265625 1.429688 -0.769531 1.796875 -1.15625 C 2.160156 -1.539062 2.582031 -1.84375 3.0625 -2.0625 C 3.539062 -2.28125 4.054688 -2.445312 4.609375 -2.5625 C 5.171875 -2.675781 5.769531 -2.78125 6.40625 -2.875 C 6.695312 -2.925781 7 -2.972656 7.3125 -3.015625 C 7.625 -3.066406 7.9375 -3.160156 8.25 -3.296875 C 8.5625 -3.429688 8.847656 -3.613281 9.109375 -3.84375 C 9.367188 -4.070312 9.582031 -4.378906 9.75 -4.765625 C 10.039062 -5.429688 10.0625 -6.015625 9.8125 -6.515625 C 9.570312 -7.015625 9.132812 -7.398438 8.5 -7.671875 C 7.84375 -7.953125 7.238281 -7.988281 6.6875 -7.78125 C 6.132812 -7.582031 5.722656 -7.164062 5.453125 -6.53125 L 5.296875 -6.140625 L 3.921875 -6.734375 L 4.0625 -7.046875 C 4.15625 -7.285156 4.320312 -7.578125 4.5625 -7.921875 C 4.800781 -8.265625 5.117188 -8.554688 5.515625 -8.796875 C 5.921875 -9.046875 6.410156 -9.203125 6.984375 -9.265625 C 7.566406 -9.328125 8.253906 -9.1875 9.046875 -8.84375 C 9.578125 -8.613281 10.03125 -8.332031 10.40625 -8 C 10.78125 -7.675781 11.0625 -7.316406 11.25 -6.921875 C 11.4375 -6.523438 11.523438 -6.09375 11.515625 -5.625 C 11.503906 -5.15625 11.394531 -4.671875 11.1875 -4.171875 C 10.976562 -3.679688 10.738281 -3.289062 10.46875 -3 C 10.195312 -2.707031 9.863281 -2.46875 9.46875 -2.28125 C 9.082031 -2.101562 8.613281 -1.957031 8.0625 -1.84375 C 7.507812 -1.726562 6.847656 -1.613281 6.078125 -1.5 C 5.171875 -1.34375 4.476562 -1.160156 4 -0.953125 C 3.53125 -0.742188 3.164062 -0.472656 2.90625 -0.140625 L 8.421875 2.21875 Z M 7.921875 3.390625 "/></g></g></g><g fill="#ffffff" fill-opacity="1"><g transform="translate(142.390043, 48.358816)"><g><path d="M 7.390625 4.40625 L 0.796875 0.46875 C 1.140625 -0.113281 1.519531 -0.566406 1.9375 -0.890625 C 2.351562 -1.222656 2.8125 -1.46875 3.3125 -1.625 C 3.8125 -1.789062 4.34375 -1.890625 4.90625 -1.921875 C 5.476562 -1.960938 6.09375 -1.988281 6.75 -2 C 7.03125 -2.007812 7.328125 -2.015625 7.640625 -2.015625 C 7.960938 -2.023438 8.285156 -2.070312 8.609375 -2.15625 C 8.941406 -2.25 9.253906 -2.390625 9.546875 -2.578125 C 9.835938 -2.773438 10.09375 -3.0625 10.3125 -3.4375 C 10.675781 -4.050781 10.769531 -4.625 10.59375 -5.15625 C 10.414062 -5.6875 10.035156 -6.128906 9.453125 -6.484375 C 8.828125 -6.847656 8.226562 -6.960938 7.65625 -6.828125 C 7.09375 -6.703125 6.632812 -6.34375 6.28125 -5.75 L 6.078125 -5.390625 L 4.78125 -6.15625 L 4.953125 -6.453125 C 5.085938 -6.671875 5.296875 -6.929688 5.578125 -7.234375 C 5.859375 -7.546875 6.210938 -7.796875 6.640625 -7.984375 C 7.078125 -8.179688 7.582031 -8.269531 8.15625 -8.25 C 8.738281 -8.226562 9.398438 -7.992188 10.140625 -7.546875 C 10.640625 -7.253906 11.050781 -6.921875 11.375 -6.546875 C 11.707031 -6.171875 11.9375 -5.773438 12.0625 -5.359375 C 12.195312 -4.941406 12.226562 -4.503906 12.15625 -4.046875 C 12.09375 -3.585938 11.921875 -3.125 11.640625 -2.65625 C 11.367188 -2.207031 11.078125 -1.851562 10.765625 -1.59375 C 10.460938 -1.34375 10.101562 -1.148438 9.6875 -1.015625 C 9.28125 -0.890625 8.796875 -0.804688 8.234375 -0.765625 C 7.671875 -0.722656 7 -0.691406 6.21875 -0.671875 C 5.300781 -0.648438 4.59375 -0.566406 4.09375 -0.421875 C 3.59375 -0.273438 3.191406 -0.0507812 2.890625 0.25 L 8.046875 3.3125 Z M 7.390625 4.40625 "/></g></g></g><g fill="#ffffff" fill-opacity="1"><g transform="translate(53.285821, 147.136786)"><g/></g></g><g fill="#ffffff" fill-opacity="1"><g transform="translate(55.208952, 150.61617)"><g><path d="M 13.5625 -0.015625 L 14.75 1.5625 L 8.46875 0.609375 L 6.25 8.3125 L 5.09375 6.765625 L 7.03125 0.359375 L 4.640625 -0.015625 L 1.671875 2.21875 L 0.796875 1.046875 L 9.46875 -5.46875 L 10.34375 -4.296875 L 6.046875 -1.0625 Z M 13.5625 -0.015625 "/></g></g></g><g fill="#ffffff" fill-opacity="1"><g transform="translate(61.782663, 159.206587)"><g><path d="M 8 1.515625 C 8.175781 1.328125 8.351562 1.101562 8.53125 0.84375 C 8.707031 0.582031 8.832031 0.300781 8.90625 0 C 8.976562 -0.300781 8.972656 -0.609375 8.890625 -0.921875 C 8.816406 -1.242188 8.625 -1.5625 8.3125 -1.875 C 7.96875 -2.226562 7.617188 -2.453125 7.265625 -2.546875 C 6.921875 -2.648438 6.585938 -2.671875 6.265625 -2.609375 C 5.941406 -2.554688 5.644531 -2.441406 5.375 -2.265625 C 5.113281 -2.085938 4.898438 -1.914062 4.734375 -1.75 Z M 7.328125 4.125 C 7.085938 4.28125 6.8125 4.414062 6.5 4.53125 C 6.1875 4.644531 5.84375 4.695312 5.46875 4.6875 C 5.101562 4.6875 4.71875 4.597656 4.3125 4.421875 C 3.90625 4.242188 3.488281 3.941406 3.0625 3.515625 C 2.601562 3.046875 2.273438 2.585938 2.078125 2.140625 C 1.890625 1.703125 1.785156 1.28125 1.765625 0.875 C 1.753906 0.476562 1.804688 0.109375 1.921875 -0.234375 C 2.046875 -0.585938 2.1875 -0.894531 2.34375 -1.15625 C 2.507812 -1.425781 2.675781 -1.660156 2.84375 -1.859375 C 3.019531 -2.054688 3.148438 -2.203125 3.234375 -2.296875 C 3.359375 -2.421875 3.523438 -2.570312 3.734375 -2.75 C 3.953125 -2.9375 4.203125 -3.113281 4.484375 -3.28125 C 4.765625 -3.445312 5.078125 -3.582031 5.421875 -3.6875 C 5.765625 -3.789062 6.128906 -3.832031 6.515625 -3.8125 C 6.898438 -3.800781 7.296875 -3.703125 7.703125 -3.515625 C 8.117188 -3.328125 8.546875 -3.015625 8.984375 -2.578125 C 9.535156 -2.023438 9.878906 -1.488281 10.015625 -0.96875 C 10.148438 -0.445312 10.160156 0.046875 10.046875 0.515625 C 9.941406 0.992188 9.742188 1.4375 9.453125 1.84375 C 9.171875 2.257812 8.890625 2.628906 8.609375 2.953125 C 8.566406 2.992188 8.519531 3.035156 8.46875 3.078125 C 8.425781 3.128906 8.378906 3.175781 8.328125 3.21875 L 4.046875 -1.0625 C 3.804688 -0.820312 3.59375 -0.546875 3.40625 -0.234375 C 3.226562 0.078125 3.109375 0.40625 3.046875 0.75 C 2.984375 1.09375 3 1.4375 3.09375 1.78125 C 3.1875 2.132812 3.394531 2.472656 3.71875 2.796875 C 3.945312 3.015625 4.179688 3.1875 4.421875 3.3125 C 4.671875 3.4375 4.910156 3.507812 5.140625 3.53125 C 5.378906 3.5625 5.601562 3.546875 5.8125 3.484375 C 6.03125 3.421875 6.222656 3.320312 6.390625 3.1875 Z M 7.328125 4.125 "/></g></g></g><g fill="#ffffff" fill-opacity="1"><g transform="translate(68.326475, 165.582312)"><g><path d="M 8.859375 -6.71875 L 1.90625 1.59375 L 0.84375 0.71875 L 7.796875 -7.59375 Z M 8.859375 -6.71875 "/></g></g></g><g fill="#ffffff" fill-opacity="1"><g transform="translate(71.255136, 168.111533)"><g><path d="M 9.34375 -3.015625 L 10.546875 -2.171875 L 3.609375 2.578125 L 2.328125 1.65625 L 4.515625 -6.453125 L 5.703125 -5.609375 L 3.75 1 Z M 9.34375 -3.015625 "/></g></g></g><g fill="#ffffff" fill-opacity="1"><g transform="translate(77.455894, 172.415422)"><g><path d="M 6.484375 -8.75 L 7.671875 -8.03125 L 6.953125 -6.8125 L 5.765625 -7.53125 Z M 6.15625 -5.484375 L 2.109375 1.265625 L 0.921875 0.546875 L 4.96875 -6.203125 Z M 6.15625 -5.484375 "/></g></g></g><g fill="#ffffff" fill-opacity="1"><g transform="translate(80.706073, 174.492724)"><g><path d="M 3.625 -2.65625 C 3.28125 -1.945312 3.097656 -1.347656 3.078125 -0.859375 C 3.066406 -0.367188 3.132812 0.0234375 3.28125 0.328125 C 3.425781 0.640625 3.609375 0.875 3.828125 1.03125 C 4.054688 1.195312 4.238281 1.3125 4.375 1.375 C 4.519531 1.445312 4.722656 1.519531 4.984375 1.59375 C 5.242188 1.664062 5.539062 1.660156 5.875 1.578125 C 6.21875 1.503906 6.570312 1.304688 6.9375 0.984375 C 7.300781 0.671875 7.65625 0.160156 8 -0.546875 C 8.332031 -1.253906 8.507812 -1.847656 8.53125 -2.328125 C 8.550781 -2.816406 8.484375 -3.210938 8.328125 -3.515625 C 8.179688 -3.828125 8 -4.0625 7.78125 -4.21875 C 7.5625 -4.375 7.378906 -4.488281 7.234375 -4.5625 C 7.097656 -4.625 6.894531 -4.691406 6.625 -4.765625 C 6.363281 -4.847656 6.066406 -4.847656 5.734375 -4.765625 C 5.398438 -4.691406 5.046875 -4.5 4.671875 -4.1875 C 4.304688 -3.875 3.957031 -3.363281 3.625 -2.65625 Z M 2.3125 -3.25 C 2.539062 -3.726562 2.820312 -4.171875 3.15625 -4.578125 C 3.488281 -4.984375 3.878906 -5.296875 4.328125 -5.515625 C 4.773438 -5.734375 5.273438 -5.847656 5.828125 -5.859375 C 6.390625 -5.867188 6.992188 -5.71875 7.640625 -5.40625 C 8.285156 -5.09375 8.773438 -4.71875 9.109375 -4.28125 C 9.441406 -3.84375 9.660156 -3.378906 9.765625 -2.890625 C 9.867188 -2.410156 9.875 -1.910156 9.78125 -1.390625 C 9.6875 -0.878906 9.523438 -0.382812 9.296875 0.09375 C 9.066406 0.570312 8.78125 1.007812 8.4375 1.40625 C 8.09375 1.800781 7.695312 2.113281 7.25 2.34375 C 6.800781 2.570312 6.300781 2.691406 5.75 2.703125 C 5.195312 2.710938 4.597656 2.5625 3.953125 2.25 C 3.304688 1.9375 2.8125 1.5625 2.46875 1.125 C 2.132812 0.6875 1.914062 0.222656 1.8125 -0.265625 C 1.707031 -0.765625 1.707031 -1.265625 1.8125 -1.765625 C 1.914062 -2.273438 2.082031 -2.769531 2.3125 -3.25 Z M 2.3125 -3.25 "/></g></g></g><g fill="#ffffff" fill-opacity="1"><g transform="translate(89.31458, 178.589299)"><g><path d="M 4.828125 -6.703125 L 4.484375 -5.65625 C 4.859375 -5.9375 5.300781 -6.140625 5.8125 -6.265625 C 6.332031 -6.390625 6.882812 -6.359375 7.46875 -6.171875 C 7.96875 -6.003906 8.347656 -5.789062 8.609375 -5.53125 C 8.878906 -5.269531 9.0625 -4.976562 9.15625 -4.65625 C 9.257812 -4.34375 9.289062 -4.003906 9.25 -3.640625 C 9.21875 -3.285156 9.140625 -2.921875 9.015625 -2.546875 L 7.375 2.421875 L 6.078125 2 L 7.59375 -2.59375 C 7.65625 -2.78125 7.722656 -3.007812 7.796875 -3.28125 C 7.867188 -3.550781 7.894531 -3.816406 7.875 -4.078125 C 7.863281 -4.347656 7.773438 -4.597656 7.609375 -4.828125 C 7.441406 -5.054688 7.160156 -5.238281 6.765625 -5.375 C 6.585938 -5.4375 6.363281 -5.472656 6.09375 -5.484375 C 5.832031 -5.503906 5.554688 -5.457031 5.265625 -5.34375 C 4.972656 -5.238281 4.6875 -5.023438 4.40625 -4.703125 C 4.132812 -4.378906 3.898438 -3.910156 3.703125 -3.296875 L 2.359375 0.78125 L 1.046875 0.34375 L 3.515625 -7.140625 Z M 4.828125 -6.703125 "/></g></g></g><g fill="#ffffff" fill-opacity="1"><g transform="translate(98.079306, 181.33212)"><g/></g></g><g fill="#ffffff" fill-opacity="1"><g transform="translate(101.904461, 182.35855)"><g><path d="M 3.484375 -5.140625 L 6.109375 -4.796875 C 6.972656 -4.679688 7.625 -4.78125 8.0625 -5.09375 C 8.5 -5.40625 8.765625 -5.914062 8.859375 -6.625 C 8.941406 -7.289062 8.796875 -7.800781 8.421875 -8.15625 C 8.054688 -8.507812 7.457031 -8.738281 6.625 -8.84375 L 4 -9.1875 Z M 7.09375 -10.015625 C 7.644531 -9.941406 8.132812 -9.820312 8.5625 -9.65625 C 9 -9.488281 9.359375 -9.257812 9.640625 -8.96875 C 9.921875 -8.6875 10.125 -8.332031 10.25 -7.90625 C 10.375 -7.488281 10.398438 -7.003906 10.328125 -6.453125 C 10.265625 -5.941406 10.132812 -5.488281 9.9375 -5.09375 C 9.75 -4.707031 9.488281 -4.382812 9.15625 -4.125 C 8.832031 -3.863281 8.414062 -3.679688 7.90625 -3.578125 C 7.40625 -3.484375 6.804688 -3.484375 6.109375 -3.578125 L 3.328125 -3.9375 L 2.765625 0.359375 L 1.296875 0.171875 L 2.703125 -10.578125 Z M 7.09375 -10.015625 "/></g></g></g><g fill="#ffffff" fill-opacity="1"><g transform="translate(112.255081, 183.705923)"><g><path d="M 2.78125 -0.0625 L 1.3125 -0.03125 L 1.078125 -10.875 L 2.546875 -10.90625 L 2.640625 -6.390625 L 8.09375 -6.515625 L 8 -11.03125 L 9.453125 -11.0625 L 9.6875 -0.21875 L 8.234375 -0.1875 L 8.125 -5.28125 L 2.671875 -5.15625 Z M 2.78125 -0.0625 "/></g></g></g><g fill="#ffffff" fill-opacity="1"><g transform="translate(123.768688, 183.356549)"><g><path d="M 7.28125 -7.5625 L 7.5 -6.34375 L 1.890625 -5.375 L 2.53125 -1.671875 L 8.875 -2.765625 L 9.078125 -1.5625 L 1.296875 -0.21875 L -0.546875 -10.90625 L 7.078125 -12.21875 L 7.28125 -11.015625 L 1.09375 -9.953125 L 1.671875 -6.59375 Z M 7.28125 -7.5625 "/></g></g></g><g fill="#ffffff" fill-opacity="1"><g transform="translate(133.401596, 181.540592)"><g/></g></g><g fill="#ffffff" fill-opacity="1"><g transform="translate(137.315221, 180.676521)"><g><path d="M 7.765625 -9.140625 L 9.84375 -3.875 L 8.78125 -3.453125 L 8.140625 -5.078125 L 8.109375 -5.0625 C 8.054688 -4.351562 7.8125 -3.710938 7.375 -3.140625 C 6.9375 -2.566406 6.316406 -2.125 5.515625 -1.8125 C 4.921875 -1.570312 4.296875 -1.4375 3.640625 -1.40625 C 2.992188 -1.375 2.363281 -1.484375 1.75 -1.734375 C 1.144531 -1.992188 0.570312 -2.414062 0.03125 -3 C -0.507812 -3.59375 -0.976562 -4.390625 -1.375 -5.390625 C -1.707031 -6.242188 -1.882812 -7.046875 -1.90625 -7.796875 C -1.9375 -8.546875 -1.820312 -9.226562 -1.5625 -9.84375 C -1.3125 -10.46875 -0.925781 -11.003906 -0.40625 -11.453125 C 0.113281 -11.910156 0.742188 -12.289062 1.484375 -12.59375 C 2.160156 -12.851562 2.78125 -12.988281 3.34375 -13 C 3.914062 -13.019531 4.429688 -12.9375 4.890625 -12.75 C 5.347656 -12.5625 5.742188 -12.304688 6.078125 -11.984375 C 6.410156 -11.671875 6.6875 -11.316406 6.90625 -10.921875 L 5.53125 -10.390625 C 5.414062 -10.609375 5.265625 -10.828125 5.078125 -11.046875 C 4.890625 -11.265625 4.644531 -11.4375 4.34375 -11.5625 C 4.050781 -11.6875 3.703125 -11.75 3.296875 -11.75 C 2.890625 -11.75 2.425781 -11.648438 1.90625 -11.453125 C 1.375 -11.242188 0.953125 -10.984375 0.640625 -10.671875 C 0.328125 -10.367188 0.0859375 -10.046875 -0.078125 -9.703125 C -0.242188 -9.359375 -0.335938 -9 -0.359375 -8.625 C -0.378906 -8.25 -0.367188 -7.894531 -0.328125 -7.5625 C -0.285156 -7.226562 -0.222656 -6.914062 -0.140625 -6.625 C -0.0546875 -6.34375 0.0195312 -6.113281 0.09375 -5.9375 C 0.132812 -5.8125 0.21875 -5.617188 0.34375 -5.359375 C 0.46875 -5.109375 0.628906 -4.84375 0.828125 -4.5625 C 1.023438 -4.28125 1.265625 -4 1.546875 -3.71875 C 1.828125 -3.445312 2.148438 -3.21875 2.515625 -3.03125 C 2.878906 -2.851562 3.28125 -2.753906 3.71875 -2.734375 C 4.164062 -2.710938 4.664062 -2.804688 5.21875 -3.015625 C 5.832031 -3.265625 6.289062 -3.578125 6.59375 -3.953125 C 6.90625 -4.335938 7.109375 -4.738281 7.203125 -5.15625 C 7.296875 -5.582031 7.3125 -6.003906 7.25 -6.421875 C 7.1875 -6.835938 7.09375 -7.195312 6.96875 -7.5 L 4.09375 -6.375 L 3.640625 -7.515625 Z M 7.765625 -9.140625 "/></g></g></g><g fill="#ffffff" fill-opacity="1"><g transform="translate(148.607159, 176.268644)"><g><path d="M -2.046875 -8 L -1.484375 -7.09375 L -1.453125 -7 C -1.472656 -7.25 -1.457031 -7.492188 -1.40625 -7.734375 C -1.351562 -7.984375 -1.269531 -8.21875 -1.15625 -8.4375 C -1.050781 -8.664062 -0.910156 -8.875 -0.734375 -9.0625 C -0.554688 -9.25 -0.363281 -9.40625 -0.15625 -9.53125 C 0.132812 -9.71875 0.414062 -9.835938 0.6875 -9.890625 C 0.957031 -9.941406 1.210938 -9.945312 1.453125 -9.90625 C 1.691406 -9.863281 1.910156 -9.785156 2.109375 -9.671875 C 2.304688 -9.554688 2.484375 -9.425781 2.640625 -9.28125 C 2.617188 -9.457031 2.617188 -9.664062 2.640625 -9.90625 C 2.671875 -10.144531 2.734375 -10.394531 2.828125 -10.65625 C 2.921875 -10.925781 3.0625 -11.1875 3.25 -11.4375 C 3.445312 -11.695312 3.722656 -11.9375 4.078125 -12.15625 C 4.578125 -12.476562 5.035156 -12.625 5.453125 -12.59375 C 5.867188 -12.5625 6.238281 -12.453125 6.5625 -12.265625 C 6.882812 -12.078125 7.148438 -11.84375 7.359375 -11.5625 C 7.566406 -11.28125 7.734375 -11.046875 7.859375 -10.859375 L 10.53125 -6.546875 L 9.375 -5.828125 L 6.75 -10.0625 C 6.632812 -10.238281 6.492188 -10.425781 6.328125 -10.625 C 6.171875 -10.832031 5.988281 -11.007812 5.78125 -11.15625 C 5.582031 -11.300781 5.351562 -11.378906 5.09375 -11.390625 C 4.84375 -11.410156 4.566406 -11.328125 4.265625 -11.140625 C 4.078125 -11.023438 3.898438 -10.875 3.734375 -10.6875 C 3.566406 -10.5 3.445312 -10.269531 3.375 -10 C 3.300781 -9.726562 3.289062 -9.414062 3.34375 -9.0625 C 3.40625 -8.71875 3.566406 -8.335938 3.828125 -7.921875 L 6.3125 -3.921875 L 5.15625 -3.203125 L 2.53125 -7.421875 C 2.375 -7.671875 2.207031 -7.898438 2.03125 -8.109375 C 1.863281 -8.316406 1.675781 -8.472656 1.46875 -8.578125 C 1.257812 -8.691406 1.035156 -8.75 0.796875 -8.75 C 0.566406 -8.757812 0.320312 -8.6875 0.0625 -8.53125 C -0.175781 -8.382812 -0.375 -8.191406 -0.53125 -7.953125 C -0.6875 -7.722656 -0.785156 -7.46875 -0.828125 -7.1875 C -0.867188 -6.90625 -0.851562 -6.597656 -0.78125 -6.265625 C -0.707031 -5.941406 -0.570312 -5.625 -0.375 -5.3125 L 2.109375 -1.3125 L 0.9375 -0.578125 L -3.21875 -7.265625 Z M -2.046875 -8 "/></g></g></g><g fill="#ffffff" fill-opacity="1"><g transform="translate(160.452427, 168.65117)"><g><path d="M -0.828125 -4.5625 C -0.421875 -4.09375 -0.03125 -3.742188 0.34375 -3.515625 C 0.726562 -3.296875 1.085938 -3.15625 1.421875 -3.09375 C 1.765625 -3.039062 2.078125 -3.066406 2.359375 -3.171875 C 2.648438 -3.285156 2.90625 -3.441406 3.125 -3.640625 C 3.363281 -3.847656 3.554688 -4.085938 3.703125 -4.359375 C 3.859375 -4.640625 3.9375 -4.953125 3.9375 -5.296875 C 3.9375 -5.640625 3.847656 -6.015625 3.671875 -6.421875 C 3.492188 -6.828125 3.203125 -7.257812 2.796875 -7.71875 C 2.398438 -8.164062 2.015625 -8.5 1.640625 -8.71875 C 1.273438 -8.945312 0.925781 -9.085938 0.59375 -9.140625 C 0.269531 -9.203125 -0.0351562 -9.179688 -0.328125 -9.078125 C -0.628906 -8.972656 -0.898438 -8.816406 -1.140625 -8.609375 C -1.390625 -8.390625 -1.582031 -8.132812 -1.71875 -7.84375 C -1.863281 -7.550781 -1.929688 -7.238281 -1.921875 -6.90625 C -1.921875 -6.570312 -1.832031 -6.207031 -1.65625 -5.8125 C -1.488281 -5.414062 -1.210938 -5 -0.828125 -4.5625 Z M -5.296875 -9.78125 L -2.65625 -6.78125 C -2.800781 -7.28125 -2.765625 -7.765625 -2.546875 -8.234375 C -2.335938 -8.703125 -2.023438 -9.125 -1.609375 -9.5 C -1.171875 -9.875 -0.75 -10.125 -0.34375 -10.25 C 0.0625 -10.382812 0.445312 -10.441406 0.8125 -10.421875 C 1.1875 -10.410156 1.535156 -10.335938 1.859375 -10.203125 C 2.191406 -10.066406 2.488281 -9.898438 2.75 -9.703125 C 3.019531 -9.515625 3.25 -9.328125 3.4375 -9.140625 C 3.625 -8.960938 3.773438 -8.8125 3.890625 -8.6875 C 4.453125 -8.039062 4.828125 -7.425781 5.015625 -6.84375 C 5.203125 -6.269531 5.257812 -5.742188 5.1875 -5.265625 C 5.125 -4.796875 4.972656 -4.375 4.734375 -4 C 4.503906 -3.632812 4.253906 -3.332031 3.984375 -3.09375 C 3.742188 -2.875 3.492188 -2.703125 3.234375 -2.578125 C 2.984375 -2.460938 2.734375 -2.382812 2.484375 -2.34375 C 2.242188 -2.300781 2.007812 -2.289062 1.78125 -2.3125 C 1.550781 -2.332031 1.328125 -2.367188 1.109375 -2.421875 L 1.078125 -2.390625 L 1.796875 -1.578125 L 0.828125 -0.734375 L -6.328125 -8.875 Z M -5.296875 -9.78125 "/></g></g></g><g fill="#ffffff" fill-opacity="1"><g transform="translate(167.853547, 162.174303)"><g><path d="M 1.796875 -2.125 L 0.84375 -1 L -7.4375 -8 L -6.484375 -9.125 L -3.03125 -6.21875 L 0.484375 -10.375 L -2.96875 -13.28125 L -2.03125 -14.390625 L 6.25 -7.390625 L 5.3125 -6.28125 L 1.421875 -9.578125 L -2.09375 -5.421875 Z M 1.796875 -2.125 "/></g></g></g><g fill="#ffffff" fill-opacity="1"><g transform="translate(175.026133, 153.370819)"><g/></g></g><g fill="#ffffff" fill-opacity="1"><g transform="translate(177.150621, 150.233397)"><g/></g></g></svg>