<?xml version="1.0" encoding="UTF-8" standalone="no"?>
<svg
   width="230.875"
   zoomAndPan="magnify"
   viewBox="0 0 173.06389 173.16015"
   height="230.8802"
   preserveAspectRatio="xMidYMid"
   version="1.0"
   id="svg215"
   sodipodi:docname="Project-Reference-Kelvion-DTS-EN.svg"
   inkscape:version="1.4.2 (ebf0e940, 2025-05-08)"
   xmlns:inkscape="http://www.inkscape.org/namespaces/inkscape"
   xmlns:sodipodi="http://sodipodi.sourceforge.net/DTD/sodipodi-0.dtd"
   xmlns="http://www.w3.org/2000/svg"
   xmlns:svg="http://www.w3.org/2000/svg">
  <sodipodi:namedview
     id="namedview215"
     pagecolor="#ffffff"
     bordercolor="#000000"
     borderopacity="0.25"
     inkscape:showpageshadow="2"
     inkscape:pageopacity="0.0"
     inkscape:pagecheckerboard="0"
     inkscape:deskcolor="#d1d1d1"
     inkscape:zoom="0.086666667"
     inkscape:cx="109.61538"
     inkscape:cy="109.61538"
     inkscape:window-width="1328"
     inkscape:window-height="878"
     inkscape:window-x="0"
     inkscape:window-y="34"
     inkscape:window-maximized="0"
     inkscape:current-layer="svg215" />
  <defs
     id="defs3">
    <g
       id="g1" />
    <clipPath
       id="0dc15f51b9">
      <path
         d="M 0,0.0585938 H 224.76172 V 224.9375 H 0 Z m 0,0"
         clip-rule="nonzero"
         id="path1" />
    </clipPath>
    <clipPath
       id="b7240a3ae3">
      <path
         d="M 29.097656,25.476562 H 202.25391 V 198.63672 H 29.097656 Z m 0,0"
         clip-rule="nonzero"
         id="path2" />
    </clipPath>
    <clipPath
       id="b7331fa58b">
      <path
         d="M 67.511719,63.089844 H 165.70703 V 161.28906 H 67.511719 Z m 0,0"
         clip-rule="nonzero"
         id="path3" />
    </clipPath>
  </defs>
  <g
     clip-path="url(#b7240a3ae3)"
     id="g4"
     transform="translate(-29.157661,-25.476562)">
    <path
       fill="#38b6ff"
       d="m 202.38281,112.12109 c 0,1.41797 -0.0352,2.83594 -0.10547,4.25391 -0.0703,1.41406 -0.17187,2.82813 -0.3125,4.23828 -0.14062,1.41406 -0.3125,2.82031 -0.51953,4.22266 -0.20703,1.40234 -0.45312,2.79687 -0.72656,4.1875 -0.27734,1.39062 -0.58984,2.77343 -0.93359,4.15234 -0.34375,1.375 -0.72266,2.73828 -1.13282,4.09766 -0.41406,1.35547 -0.85547,2.70312 -1.33593,4.03906 -0.47657,1.33203 -0.98829,2.65625 -1.53125,3.96484 -0.53907,1.3125 -1.11719,2.60547 -1.72266,3.89063 -0.60547,1.28125 -1.24219,2.54687 -1.91016,3.79687 -0.66797,1.25 -1.36718,2.48438 -2.09765,3.69922 -0.72657,1.21875 -1.48828,2.41406 -2.27344,3.59375 -0.78906,1.17969 -1.60547,2.33985 -2.44922,3.47656 -0.84375,1.14063 -1.71875,2.25782 -2.61719,3.35157 -0.89843,1.09765 -1.82422,2.17187 -2.77734,3.22265 -0.95313,1.05078 -1.92969,2.07813 -2.93359,3.07813 -1,1.0039 -2.02735,1.98047 -3.07813,2.93359 -1.05078,0.95313 -2.125,1.87891 -3.22266,2.77735 -1.09375,0.89843 -2.21093,1.77343 -3.35156,2.61718 -1.13672,0.84375 -2.29687,1.66016 -3.47656,2.44922 -1.17969,0.78516 -2.375,1.54688 -3.59375,2.27344 -1.21484,0.73047 -2.44922,1.42969 -3.69922,2.09766 -1.25,0.66796 -2.51562,1.30468 -3.79687,1.91015 -1.28516,0.60547 -2.57813,1.17969 -3.89063,1.72266 -1.30859,0.54297 -2.63281,1.05469 -3.96484,1.53125 -1.33594,0.48047 -2.6836,0.92187 -4.03907,1.33594 -1.35546,0.41015 -2.72265,0.78906 -4.09765,1.13281 -1.375,0.34375 -2.76172,0.65625 -4.15235,0.93359 -1.39062,0.27344 -2.78515,0.51563 -4.1875,0.72656 -1.40234,0.20704 -2.80859,0.37891 -4.22265,0.51954 -1.41016,0.14062 -2.82422,0.24218 -4.23828,0.3125 -1.41797,0.0703 -2.83594,0.10546 -4.25391,0.10546 -1.41797,0 -2.83594,-0.0352 -4.25,-0.10546 -1.41797,-0.0703 -2.83203,-0.17188 -4.24219,-0.3125 -1.41015,-0.14063 -2.8164,-0.3125 -4.21875,-0.51954 -1.40234,-0.21093 -2.80078,-0.45312 -4.191402,-0.72656 -1.390626,-0.27734 -2.773438,-0.58984 -4.148438,-0.93359 -1.375,-0.34375 -2.742188,-0.72266 -4.101562,-1.13281 -1.355469,-0.41407 -2.699219,-0.85547 -4.035157,-1.33594 -1.335937,-0.47656 -2.660156,-0.98828 -3.96875,-1.53125 -1.308593,-0.54297 -2.605469,-1.11719 -3.886719,-1.72266 -1.28125,-0.60547 -2.550781,-1.24219 -3.800781,-1.91015 -1.25,-0.66797 -2.484375,-1.36719 -3.699219,-2.09766 -1.214843,-0.72656 -2.414062,-1.48828 -3.59375,-2.27344 -1.179687,-0.78906 -2.335937,-1.60547 -3.476562,-2.44922 -1.136719,-0.84375 -2.253906,-1.71875 -3.351562,-2.61718 -1.097657,-0.89844 -2.167969,-1.82422 -3.21875,-2.77735 -1.050782,-0.95312 -2.078126,-1.92969 -3.082032,-2.93359 -1.003906,-1 -1.980468,-2.02735 -2.933594,-3.07813 -0.949218,-1.05078 -1.875,-2.125 -2.777343,-3.22265 -0.898438,-1.09375 -1.769531,-2.21094 -2.613281,-3.35157 -0.847657,-1.13671 -1.664063,-2.29687 -2.449219,-3.47656 -0.789063,-1.17969 -1.546875,-2.375 -2.277344,-3.59375 -0.726563,-1.21484 -1.425781,-2.44922 -2.09375,-3.69922 -0.671875,-1.25 -1.308594,-2.51562 -1.914063,-3.79687 -0.605468,-1.28516 -1.179687,-2.57813 -1.722656,-3.89063 -0.542968,-1.30859 -1.054687,-2.63281 -1.53125,-3.96484 -0.476562,-1.33594 -0.921875,-2.68359 -1.332031,-4.03906 -0.414063,-1.35938 -0.792969,-2.72266 -1.136719,-4.09766 -0.34375,-1.37891 -0.652344,-2.76172 -0.929687,-4.15234 -0.277344,-1.39063 -0.519531,-2.78516 -0.726563,-4.1875 -0.210937,-1.40235 -0.382812,-2.8125 -0.523437,-4.22266 -0.136719,-1.41015 -0.242188,-2.82422 -0.3125,-4.23828 -0.07031,-1.41797 -0.101563,-2.83594 -0.101563,-4.25391 0,-1.41796 0.03125,-2.83593 0.101563,-4.25 0.07031,-1.41796 0.175781,-2.83203 0.3125,-4.24218 0.140625,-1.41016 0.3125,-2.81641 0.523437,-4.218754 0.207032,-1.402344 0.449219,-2.800781 0.726563,-4.191406 0.277343,-1.390625 0.585937,-2.773438 0.929687,-4.148438 0.34375,-1.375 0.722656,-2.742187 1.136719,-4.101562 0.410156,-1.355469 0.855469,-2.699219 1.332031,-4.035156 0.476563,-1.335938 0.988282,-2.660156 1.53125,-3.96875 0.542969,-1.308594 1.117188,-2.605469 1.722656,-3.886719 0.605469,-1.28125 1.242188,-2.550781 1.914063,-3.800781 0.667969,-1.25 1.367187,-2.484375 2.09375,-3.699219 0.730469,-1.214844 1.488281,-2.414063 2.277344,-3.59375 0.785156,-1.179687 1.601562,-2.335937 2.449219,-3.476563 0.84375,-1.136718 1.714843,-2.253906 2.613281,-3.351562 0.902343,-1.097656 1.828125,-2.167969 2.777343,-3.21875 0.953126,-1.050781 1.929688,-2.078125 2.933594,-3.082031 1.003906,-1.003907 2.03125,-1.980469 3.082032,-2.933594 1.050781,-0.949219 2.121093,-1.875 3.21875,-2.777344 1.097656,-0.898437 2.214843,-1.769531 3.351562,-2.617187 1.140625,-0.84375 2.296875,-1.660156 3.476562,-2.445313 1.179688,-0.789062 2.378907,-1.546875 3.59375,-2.277343 1.214844,-0.726563 2.449219,-1.425782 3.699219,-2.09375 1.25,-0.671876 2.519531,-1.308594 3.800781,-1.914063 1.28125,-0.605469 2.578126,-1.179687 3.886719,-1.722656 1.308594,-0.542969 2.632813,-1.054688 3.96875,-1.53125 1.335938,-0.476563 2.679688,-0.921875 4.035157,-1.332031 1.359374,-0.414063 2.726562,-0.792969 4.101562,-1.136719 1.375,-0.34375 2.757812,-0.652344 4.148438,-0.929688 1.390622,-0.277343 2.789062,-0.519531 4.191402,-0.726562 1.40235,-0.210938 2.8086,-0.382813 4.21875,-0.523438 1.41016,-0.136719 2.82422,-0.242187 4.24219,-0.3125 1.41406,-0.07031 2.83203,-0.105469 4.25,-0.105469 1.41797,0 2.83594,0.03516 4.25391,0.105469 1.41406,0.07031 2.82812,0.175781 4.23828,0.3125 1.41406,0.140625 2.82031,0.3125 4.22265,0.523438 1.40235,0.207031 2.79688,0.449219 4.1875,0.726562 1.39063,0.277344 2.77735,0.585938 4.15235,0.929688 1.375,0.34375 2.74219,0.722656 4.09765,1.136719 1.35547,0.410156 2.70313,0.855468 4.03907,1.332031 1.33203,0.476562 2.65625,0.988281 3.96484,1.53125 1.3125,0.542969 2.60938,1.117187 3.89063,1.722656 1.28125,0.605469 2.54687,1.242187 3.79687,1.914063 1.25,0.667968 2.48438,1.367187 3.69922,2.09375 1.21875,0.730468 2.41406,1.488281 3.59375,2.277343 1.17969,0.785157 2.33984,1.601563 3.47656,2.445313 1.14063,0.847656 2.25781,1.71875 3.35156,2.617187 1.09766,0.902344 2.17188,1.828125 3.22266,2.777344 1.05078,0.953125 2.07813,1.929687 3.07813,2.933594 1.0039,1.003906 1.98046,2.03125 2.93359,3.082031 0.95312,1.050781 1.87891,2.121094 2.77734,3.21875 0.89844,1.097656 1.77344,2.214844 2.61719,3.351562 0.84375,1.140626 1.66016,2.296876 2.44922,3.476563 0.78516,1.179687 1.54687,2.378906 2.27344,3.59375 0.73047,1.214844 1.42968,2.449219 2.09765,3.699219 0.66797,1.25 1.30469,2.519531 1.91016,3.800781 0.60547,1.28125 1.18359,2.578125 1.72266,3.886719 0.54296,1.308594 1.05468,2.632812 1.53125,3.96875 0.48046,1.335937 0.92187,2.679687 1.33593,4.035156 0.41016,1.359375 0.78907,2.726562 1.13282,4.101562 0.34375,1.375 0.65625,2.757813 0.93359,4.148438 0.27344,1.390625 0.51953,2.789062 0.72656,4.191406 0.20703,1.402344 0.37891,2.808594 0.51953,4.218754 0.14063,1.41015 0.24219,2.82422 0.3125,4.24218 0.0703,1.41407 0.10547,2.83204 0.10547,4.25 z m 0,0"
       fill-opacity="1"
       fill-rule="nonzero"
       id="path4" />
  </g>
  <g
     clip-path="url(#b7331fa58b)"
     id="g5"
     transform="translate(-29.157661,-25.476562)">
    <path
       fill="#000000"
       d="m 165.57812,112.125 c 0,1.60547 -0.0781,3.20703 -0.23437,4.80859 -0.15625,1.59766 -0.39453,3.1836 -0.70703,4.75782 -0.3125,1.57422 -0.70313,3.13281 -1.16797,4.66797 -0.46484,1.53906 -1.00781,3.04687 -1.62109,4.53124 -0.61329,1.48438 -1.30079,2.9336 -2.0586,4.35157 -0.75781,1.41406 -1.58203,2.78906 -2.47265,4.125 -0.89063,1.33593 -1.84766,2.625 -2.86719,3.86718 -1.01953,1.23829 -2.09375,2.42969 -3.23047,3.5625 -1.13672,1.13672 -2.32422,2.21485 -3.56641,3.23438 -1.24218,1.01562 -2.53125,1.97266 -3.86328,2.86328 -1.33594,0.89453 -2.71094,1.71875 -4.1289,2.47656 -1.41797,0.75782 -2.86719,1.44141 -4.35157,2.05469 -1.48047,0.61719 -2.99218,1.15625 -4.52734,1.62109 -1.53906,0.46875 -3.09375,0.85938 -4.66797,1.17188 -1.57812,0.3125 -3.16406,0.54687 -4.76172,0.70703 -1.59765,0.15625 -3.19922,0.23438 -4.80468,0.23438 -1.60547,0 -3.21094,-0.0781 -4.8086,-0.23438 -1.59765,-0.16016 -3.18359,-0.39453 -4.75781,-0.70703 -1.57813,-0.3125 -3.13281,-0.70313 -4.66797,-1.17188 -1.53906,-0.46484 -3.046875,-1.0039 -4.53125,-1.62109 -1.484375,-0.61328 -2.933594,-1.29687 -4.351562,-2.05469 -1.414063,-0.75781 -2.789063,-1.58203 -4.125,-2.47656 -1.335938,-0.89062 -2.625,-1.84766 -3.867188,-2.86328 -1.242188,-1.01953 -2.429688,-2.09766 -3.566406,-3.23438 -1.132813,-1.13281 -2.210938,-2.32421 -3.230469,-3.5625 -1.019531,-1.24218 -1.972656,-2.53125 -2.867187,-3.86718 -0.890626,-1.33594 -1.714844,-2.71094 -2.472657,-4.125 -0.757812,-1.41797 -1.441406,-2.86719 -2.058593,-4.35157 -0.613282,-1.48437 -1.152344,-2.99218 -1.621094,-4.53124 -0.464844,-1.53516 -0.855469,-3.09375 -1.167969,-4.66797 -0.3125,-1.57422 -0.546875,-3.16016 -0.707031,-4.75782 -0.15625,-1.60156 -0.234375,-3.20312 -0.234375,-4.80859 0,-1.60547 0.07813,-3.20703 0.234375,-4.80469 0.160156,-1.59765 0.394531,-3.1875 0.707031,-4.76172 0.3125,-1.57421 0.703125,-3.128902 1.167969,-4.667965 0.46875,-1.535156 1.007812,-3.046875 1.621094,-4.53125 0.617187,-1.480469 1.300781,-2.933594 2.058593,-4.347656 0.757813,-1.417969 1.582031,-2.792969 2.472657,-4.128907 0.894531,-1.335937 1.847656,-2.621093 2.867187,-3.863281 1.019531,-1.242187 2.097656,-2.429687 3.230469,-3.566406 1.136718,-1.136719 2.324218,-2.210937 3.566406,-3.230469 1.242188,-1.019531 2.53125,-1.976562 3.867188,-2.867187 1.335937,-0.890625 2.710937,-1.71875 4.125,-2.472657 1.417968,-0.757812 2.867187,-1.445312 4.351562,-2.058593 1.484375,-0.613281 2.99219,-1.15625 4.53125,-1.621094 1.53516,-0.464844 3.08984,-0.855469 4.66797,-1.167969 1.57422,-0.316406 3.16016,-0.550781 4.75781,-0.707031 1.59766,-0.15625 3.20313,-0.238281 4.8086,-0.238281 1.60546,0 3.20703,0.08203 4.80468,0.238281 1.59766,0.15625 3.1836,0.390625 4.76172,0.707031 1.57422,0.3125 3.12891,0.703125 4.66797,1.167969 1.53516,0.464844 3.04687,1.007813 4.52734,1.621094 1.48438,0.613281 2.9336,1.300781 4.35157,2.058593 1.41796,0.753907 2.79296,1.582032 4.1289,2.472657 1.33203,0.890625 2.6211,1.847656 3.86328,2.867187 1.24219,1.019532 2.42969,2.09375 3.56641,3.230469 1.13672,1.136719 2.21094,2.324219 3.23047,3.566406 1.01953,1.242188 1.97656,2.527344 2.86719,3.863281 0.89062,1.335938 1.71484,2.710938 2.47265,4.128907 0.75781,1.414062 1.44531,2.867187 2.0586,4.347656 0.61328,1.484375 1.15625,2.996094 1.62109,4.53125 0.46484,1.539063 0.85547,3.093755 1.16797,4.667965 0.3125,1.57422 0.55078,3.16407 0.70703,4.76172 0.15625,1.59766 0.23437,3.19922 0.23437,4.80469 z m 0,0"
       fill-opacity="1"
       fill-rule="nonzero"
       id="path5" />
  </g>
  <g
     fill="#ffffff"
     fill-opacity="1"
     id="g8"
     transform="translate(-29.157661,-25.476562)">
    <g
       transform="translate(88.30129,96.829792)"
       id="g7">
      <g
         id="g6">
        <path
           d="M 1.980469,-7.988281 V -9.074219 H 0.894531 v 1.085938 z M 1.980469,0 V -6.519531 H 0.894531 V 0 Z m 0,0"
           id="path6" />
      </g>
    </g>
  </g>
  <g
     fill="#ffffff"
     fill-opacity="1"
     id="g11"
     transform="translate(-29.157661,-25.476562)">
    <g
       transform="translate(91.176053,96.829792)"
       id="g10">
      <g
         id="g9">
        <path
           d="m 4.921875,-1.980469 c 0,-1.277343 -0.882813,-1.609375 -1.714844,-1.800781 L 2.65625,-3.910156 C 2.132812,-4.027344 1.726562,-4.21875 1.726562,-4.703125 c 0,-0.5 0.292969,-0.792969 1.148438,-0.792969 H 4.792969 V -6.519531 H 2.851562 c -1.457031,0 -2.210937,0.628906 -2.210937,1.90625 0,1.226562 0.816406,1.546875 1.632813,1.738281 l 0.640624,0.152344 c 0.511719,0.128906 0.917969,0.34375 0.917969,0.84375 0,0.640625 -0.484375,0.855468 -1.210937,0.855468 H 0.640625 V 0 h 2.082031 c 1.457032,0 2.199219,-0.550781 2.199219,-1.980469 z m 0,0"
           id="path8" />
      </g>
    </g>
  </g>
  <g
     fill="#ffffff"
     fill-opacity="1"
     id="g14"
     transform="translate(-29.157661,-25.476562)">
    <g
       transform="translate(96.733916,96.829792)"
       id="g13">
      <g
         id="g12">
        <path
           d="m 4.921875,-1.980469 c 0,-1.277343 -0.882813,-1.609375 -1.714844,-1.800781 L 2.65625,-3.910156 C 2.132812,-4.027344 1.726562,-4.21875 1.726562,-4.703125 c 0,-0.5 0.292969,-0.792969 1.148438,-0.792969 H 4.792969 V -6.519531 H 2.851562 c -1.457031,0 -2.210937,0.628906 -2.210937,1.90625 0,1.226562 0.816406,1.546875 1.632813,1.738281 l 0.640624,0.152344 c 0.511719,0.128906 0.917969,0.34375 0.917969,0.84375 0,0.640625 -0.484375,0.855468 -1.210937,0.855468 H 0.640625 V 0 h 2.082031 c 1.457032,0 2.199219,-0.550781 2.199219,-1.980469 z m 0,0"
           id="path11" />
      </g>
    </g>
  </g>
  <g
     fill="#ffffff"
     fill-opacity="1"
     id="g17"
     transform="translate(-29.157661,-25.476562)">
    <g
       transform="translate(102.29178,96.829792)"
       id="g16">
      <g
         id="g15">
        <path
           d="M 5.429688,0 V -6.519531 H 4.34375 v 5.5625 H 3.066406 c -0.777344,0 -1.085937,-0.539063 -1.085937,-1.214844 V -6.519531 H 0.894531 v 4.347656 C 0.894531,-0.832031 1.546875,0 2.9375,0 Z m 0,0"
           id="path14" />
      </g>
    </g>
  </g>
  <g
     fill="#ffffff"
     fill-opacity="1"
     id="g20"
     transform="translate(-29.157661,-25.476562)">
    <g
       transform="translate(108.61625,96.829792)"
       id="g19">
      <g
         id="g18">
        <path
           d="m 5.304688,-2.875 v -1.214844 c 0,-1.445312 -0.691407,-2.429687 -2.136719,-2.429687 H 2.902344 c -1.394532,0 -2.136719,0.960937 -2.136719,2.429687 v 1.660156 C 0.765625,-0.792969 1.597656,0 3.066406,0 H 4.984375 V -0.957031 H 3.195312 c -0.882812,0 -1.34375,-0.601563 -1.34375,-1.472657 V -2.875 Z M 4.21875,-3.730469 H 1.851562 V -4.21875 c 0,-0.675781 0.269532,-1.339844 1.050782,-1.339844 h 0.265625 c 0.78125,0 1.050781,0.664063 1.050781,1.339844 z m 0,0"
           id="path17" />
      </g>
    </g>
  </g>
  <g
     fill="#ffffff"
     fill-opacity="1"
     id="g23"
     transform="translate(-29.157661,-25.476562)">
    <g
       transform="translate(114.68519,96.829792)"
       id="g22">
      <g
         id="g21">
        <path
           d="M 5.304688,0 V -9.074219 H 4.21875 v 2.554688 H 2.8125 c -1.394531,0 -2.046875,0.832031 -2.046875,2.175781 v 2.171875 C 0.765625,-0.832031 1.417969,0 2.8125,0 Z M 4.21875,-0.957031 H 2.9375 c -0.777344,0 -1.085938,-0.539063 -1.085938,-1.214844 V -4.34375 c 0,-0.679688 0.308594,-1.214844 1.085938,-1.214844 h 1.28125 z m 0,0"
           id="path20" />
      </g>
    </g>
  </g>
  <g
     fill="#ffffff"
     fill-opacity="1"
     id="g26"
     transform="translate(-29.157661,-25.476562)">
    <g
       transform="translate(120.88189,96.829792)"
       id="g25">
      <g
         id="g24" />
    </g>
  </g>
  <g
     fill="#ffffff"
     fill-opacity="1"
     id="g29"
     transform="translate(-29.157661,-25.476562)">
    <g
       transform="translate(124.97044,96.829792)"
       id="g28">
      <g
         id="g27">
        <path
           d="M 3.515625,-8.050781 V -9.074219 H 2.621094 c -0.945313,0 -1.472656,0.5 -1.472656,1.597657 v 0.957031 H 0.253906 v 0.960937 H 1.148438 V 0 H 2.238281 V -5.558594 H 3.386719 V -6.519531 H 2.238281 V -7.4375 c 0,-0.472656 0.214844,-0.613281 0.507813,-0.613281 z m 0,0"
           id="path26" />
      </g>
    </g>
  </g>
  <g
     fill="#ffffff"
     fill-opacity="1"
     id="g32"
     transform="translate(-29.157661,-25.476562)">
    <g
       transform="translate(128.61181,96.829792)"
       id="g31">
      <g
         id="g30">
        <path
           d="M 5.304688,-2.171875 V -4.34375 c 0,-1.34375 -0.769532,-2.175781 -2.109376,-2.175781 H 2.875 c -1.339844,0 -2.109375,0.832031 -2.109375,2.175781 v 2.171875 C 0.765625,-0.832031 1.535156,0 2.875,0 h 0.320312 c 1.339844,0 2.109376,-0.832031 2.109376,-2.171875 z m -1.085938,0 c 0,0.675781 -0.398438,1.214844 -1.023438,1.214844 H 2.875 c -0.625,0 -1.023438,-0.539063 -1.023438,-1.214844 V -4.34375 c 0,-0.679688 0.398438,-1.214844 1.023438,-1.214844 h 0.320312 c 0.625,0 1.023438,0.535156 1.023438,1.214844 z m 0,0"
           id="path29" />
      </g>
    </g>
  </g>
  <g
     fill="#ffffff"
     fill-opacity="1"
     id="g35"
     transform="translate(-29.157661,-25.476562)">
    <g
       transform="translate(134.68075,96.829792)"
       id="g34">
      <g
         id="g33">
        <path
           d="M 3.707031,-5.507812 V -6.519531 H 2.875 c -1.390625,0 -2.042969,0.832031 -2.042969,2.175781 V 0 h 1.085938 v -4.34375 c 0,-0.679688 0.304687,-1.164062 1.085937,-1.164062 z m 0,0"
           id="path32" />
      </g>
    </g>
  </g>
  <g
     fill="#ffffff"
     fill-opacity="1"
     id="g38"
     transform="translate(-29.157661,-25.476562)">
    <g
       transform="translate(138.64153,96.829792)"
       id="g37">
      <g
         id="g36">
        <path
           d="m 2.109375,-5.175781 v -1.34375 h -1.34375 v 1.34375 z M 2.109375,0 V -1.34375 H 0.765625 V 0 Z m 0,0"
           id="path35" />
      </g>
    </g>
  </g>
  <g
     fill="#ffffff"
     fill-opacity="1"
     id="g41"
     transform="translate(-29.157661,-25.476562)">
    <g
       transform="translate(94.491961,114.22792)"
       id="g40">
      <g
         id="g39">
        <path
           d="m 7.09375,0 -2.875,-9.074219 H 3.132812 L 0.253906,0 H 1.40625 l 0.550781,-1.789062 h 3.4375 L 5.941406,0 Z M 5.074219,-2.8125 H 2.273438 l 1.40625,-4.511719 z m 0,0"
           id="path38" />
      </g>
    </g>
  </g>
  <g
     fill="#ffffff"
     fill-opacity="1"
     id="g44"
     transform="translate(-29.157661,-25.476562)">
    <g
       transform="translate(101.83857,114.22792)"
       id="g43">
      <g
         id="g42">
        <path
           d="M 5.304688,0 V -9.074219 H 4.21875 v 2.554688 H 2.8125 c -1.394531,0 -2.046875,0.832031 -2.046875,2.175781 v 2.171875 C 0.765625,-0.832031 1.417969,0 2.8125,0 Z M 4.21875,-0.957031 H 2.9375 c -0.777344,0 -1.085938,-0.539063 -1.085938,-1.214844 V -4.34375 c 0,-0.679688 0.308594,-1.214844 1.085938,-1.214844 h 1.28125 z m 0,0"
           id="path41" />
      </g>
    </g>
  </g>
  <g
     fill="#ffffff"
     fill-opacity="1"
     id="g47"
     transform="translate(-29.157661,-25.476562)">
    <g
       transform="translate(108.03527,114.22792)"
       id="g46">
      <g
         id="g45">
        <path
           d="m 5.113281,0 v -4.28125 c 0,-1.480469 -0.628906,-2.238281 -2.136719,-2.238281 H 1.085938 v 1.023437 H 2.875 c 0.855469,0 1.152344,0.460938 1.152344,1.214844 v 0.613281 H 2.722656 c -1.394531,0 -2.148437,0.535157 -2.148437,1.878907 C 0.574219,-0.601562 1.265625,0 2.492188,0 Z M 4.027344,-0.957031 h -1.40625 c -0.640625,0 -0.960938,-0.269531 -0.960938,-0.832031 0,-0.675782 0.308594,-0.957032 1.085938,-0.957032 h 1.28125 z m 0,0"
           id="path44" />
      </g>
    </g>
  </g>
  <g
     fill="#ffffff"
     fill-opacity="1"
     id="g50"
     transform="translate(-29.157661,-25.476562)">
    <g
       transform="translate(114.04033,114.22792)"
       id="g49">
      <g
         id="g48">
        <path
           d="m 5.429688,0 -2.15625,-3.578125 2.03125,-2.941406 H 4.089844 L 2.058594,-3.578125 4.21875,0 Z M 1.980469,0 V -9.074219 H 0.894531 V 0 Z m 0,0"
           id="path47" />
      </g>
    </g>
  </g>
  <g
     fill="#ffffff"
     fill-opacity="1"
     id="g53"
     transform="translate(-29.157661,-25.476562)">
    <g
       transform="translate(119.59819,114.22792)"
       id="g52">
      <g
         id="g51">
        <path
           d="M 5.304688,-2.171875 V -4.34375 c 0,-1.34375 -0.769532,-2.175781 -2.109376,-2.175781 H 2.875 c -1.339844,0 -2.109375,0.832031 -2.109375,2.175781 v 2.171875 C 0.765625,-0.832031 1.535156,0 2.875,0 h 0.320312 c 1.339844,0 2.109376,-0.832031 2.109376,-2.171875 z m -1.085938,0 c 0,0.675781 -0.398438,1.214844 -1.023438,1.214844 H 2.875 c -0.625,0 -1.023438,-0.539063 -1.023438,-1.214844 V -4.34375 c 0,-0.679688 0.398438,-1.214844 1.023438,-1.214844 h 0.320312 c 0.625,0 1.023438,0.535156 1.023438,1.214844 z m 0,0"
           id="path50" />
      </g>
    </g>
  </g>
  <g
     fill="#ffffff"
     fill-opacity="1"
     id="g56"
     transform="translate(-29.157661,-25.476562)">
    <g
       transform="translate(125.66713,114.22792)"
       id="g55">
      <g
         id="g54">
        <path
           d="m 8.816406,0 v -4.21875 c 0,-1.40625 -0.664062,-2.300781 -2.132812,-2.300781 H 6.414062 c -0.714843,0 -1.238281,0.207031 -1.582031,0.589843 C 4.484375,-6.3125 3.949219,-6.519531 3.234375,-6.519531 H 2.964844 c -1.46875,0 -2.132813,0.894531 -2.132813,2.300781 V 0 h 1.085938 v -4.21875 c 0,-0.675781 0.304687,-1.277344 1.085937,-1.277344 h 0.191406 c 0.777344,0 1.085938,0.601563 1.085938,1.277344 V 0 h 1.085938 v -4.21875 c 0,-0.675781 0.308593,-1.277344 1.085937,-1.277344 h 0.191406 c 0.78125,0 1.085938,0.601563 1.085938,1.277344 V 0 Z m 0,0"
           id="path53" />
      </g>
    </g>
  </g>
  <g
     fill="#ffffff"
     fill-opacity="1"
     id="g59"
     transform="translate(-29.157661,-25.476562)">
    <g
       transform="translate(99.632318,131.62606)"
       id="g58">
      <g
         id="g57">
        <path
           d="M 6.390625,0 V -4.984375 H 3.386719 v 1.023437 h 1.917969 v 2.9375 H 3.578125 c -1.265625,0 -1.726563,-0.933593 -1.726563,-1.914062 v -2.941406 c 0,-1.226563 0.5625,-2.171875 1.980469,-2.171875 H 6.132812 V -9.074219 H 3.832031 c -2.09375,0 -3.066406,1.253907 -3.066406,3.195313 V -2.9375 c 0,1.699219 0.855469,2.9375 2.8125,2.9375 z m 0,0"
           id="path56" />
      </g>
    </g>
  </g>
  <g
     fill="#ffffff"
     fill-opacity="1"
     id="g62"
     transform="translate(-29.157661,-25.476562)">
    <g
       transform="translate(106.91504,131.62606)"
       id="g61">
      <g
         id="g60">
        <path
           d="m 8.816406,0 v -4.21875 c 0,-1.40625 -0.664062,-2.300781 -2.132812,-2.300781 H 6.414062 c -0.714843,0 -1.238281,0.207031 -1.582031,0.589843 C 4.484375,-6.3125 3.949219,-6.519531 3.234375,-6.519531 H 2.964844 c -1.46875,0 -2.132813,0.894531 -2.132813,2.300781 V 0 h 1.085938 v -4.21875 c 0,-0.675781 0.304687,-1.277344 1.085937,-1.277344 h 0.191406 c 0.777344,0 1.085938,0.601563 1.085938,1.277344 V 0 h 1.085938 v -4.21875 c 0,-0.675781 0.308593,-1.277344 1.085937,-1.277344 h 0.191406 c 0.78125,0 1.085938,0.601563 1.085938,1.277344 V 0 Z m 0,0"
           id="path59" />
      </g>
    </g>
  </g>
  <g
     fill="#ffffff"
     fill-opacity="1"
     id="g65"
     transform="translate(-29.157661,-25.476562)">
    <g
       transform="translate(116.56145,131.62606)"
       id="g64">
      <g
         id="g63">
        <path
           d="M 5.429688,-2.171875 V -4.34375 c 0,-1.34375 -0.648438,-2.175781 -2.042969,-2.175781 H 1.980469 V -9.074219 H 0.894531 V 0 H 3.386719 C 4.78125,0 5.429688,-0.832031 5.429688,-2.171875 Z m -1.085938,0 c 0,0.675781 -0.304688,1.214844 -1.085938,1.214844 H 1.980469 v -4.601563 h 1.277343 c 0.78125,0 1.085938,0.535156 1.085938,1.214844 z m 0,0"
           id="path62" />
      </g>
    </g>
  </g>
  <g
     fill="#ffffff"
     fill-opacity="1"
     id="g68"
     transform="translate(-29.157661,-25.476562)">
    <g
       transform="translate(122.75816,131.62606)"
       id="g67">
      <g
         id="g66">
        <path
           d="M 6.519531,0 V -9.074219 H 5.429688 v 3.960938 H 1.980469 V -9.074219 H 0.894531 V 0 H 1.980469 V -4.089844 H 5.429688 V 0 Z m 0,0"
           id="path65" />
      </g>
    </g>
  </g>
  <g
     fill="#ffffff"
     fill-opacity="1"
     id="g71"
     transform="translate(-29.157661,-25.476562)">
    <g
       transform="translate(77.432968,58.64727)"
       id="g70">
      <g
         id="g69">
        <path
           d="M 7.234375,-4.3125 0.78125,-0.46875 C 0.4375,-1.039062 0.21875,-1.582031 0.125,-2.09375 0.0390625,-2.601562 0.046875,-3.109375 0.140625,-3.609375 0.234375,-4.109375 0.394531,-4.613281 0.625,-5.125 0.851562,-5.644531 1.117188,-6.179688 1.421875,-6.734375 1.546875,-6.972656 1.675781,-7.238281 1.8125,-7.53125 1.945312,-7.820312 2.050781,-8.125 2.125,-8.4375 2.207031,-8.75 2.234375,-9.070312 2.203125,-9.40625 c -0.03125,-0.34375 -0.15625,-0.695312 -0.375,-1.0625 -0.367187,-0.601562 -0.820313,-0.953125 -1.359375,-1.046875 -0.53125,-0.101563 -1.078125,0.01563 -1.640625,0.359375 -0.613281,0.367188 -1,0.828125 -1.15625,1.390625 -0.15625,0.554687 -0.0625,1.117187 0.28125,1.6875 l 0.21875,0.34375 L -3.0625,-7 -3.234375,-7.28125 c -0.132813,-0.207031 -0.269531,-0.5 -0.40625,-0.875 -0.144531,-0.382812 -0.195313,-0.8125 -0.15625,-1.28125 0.03125,-0.46875 0.195313,-0.945312 0.484375,-1.4375 0.292969,-0.5 0.796875,-0.96875 1.515625,-1.40625 0.492187,-0.289062 0.976563,-0.484375 1.453125,-0.578125 0.46875,-0.09375 0.910156,-0.09766 1.328125,-0.01563 0.425781,0.07422 0.820313,0.246094 1.1875,0.515625 0.363281,0.261719 0.679687,0.621094 0.953125,1.078125 0.269531,0.449219 0.441406,0.867188 0.515625,1.25 0.082031,0.386719 0.082031,0.789062 0,1.203125 C 3.554688,-8.410156 3.398438,-7.945312 3.171875,-7.4375 2.941406,-6.9375 2.65625,-6.347656 2.3125,-5.671875 1.914062,-4.867188 1.660156,-4.21875 1.546875,-3.71875 1.429688,-3.226562 1.4375,-2.785156 1.5625,-2.390625 l 5.03125,-3 z m 0,0"
           id="path68" />
      </g>
    </g>
  </g>
  <g
     fill="#ffffff"
     fill-opacity="1"
     id="g74"
     transform="translate(-29.157661,-25.476562)">
    <g
       transform="translate(84.817922,54.196219)"
       id="g73">
      <g
         id="g72">
        <path
           d="m -1.703125,-9.203125 0.3125,-0.125 c 0.304687,-0.132813 0.578125,-0.300781 0.828125,-0.5 0.242188,-0.207031 0.4375,-0.4375 0.59375,-0.6875 0.15625,-0.257813 0.253906,-0.53125 0.296875,-0.8125 0.039063,-0.289063 0.019531,-0.582031 -0.0625,-0.875 l 0.96875,-0.421875 4.375,10.21875 -1.375,0.59375 -3.28125,-7.671875 -2.34375,1 z m 0,0"
           id="path71" />
      </g>
    </g>
  </g>
  <g
     fill="#ffffff"
     fill-opacity="1"
     id="g77"
     transform="translate(-29.157661,-25.476562)">
    <g
       transform="translate(92.893213,50.830702)"
       id="g76">
      <g
         id="g75">
        <path
           d="m 1.09375,-2.15625 1.5,-0.46875 0.515625,1.65625 -1.5,0.46875 z m 0,0"
           id="path74" />
      </g>
    </g>
  </g>
  <g
     fill="#ffffff"
     fill-opacity="1"
     id="g80"
     transform="translate(-29.157661,-25.476562)">
    <g
       transform="translate(97.138698,49.368662)"
       id="g79">
      <g
         id="g78">
        <path
           d="M 4.328125,-1.828125 C 4.753906,-1.910156 5.09375,-2.101562 5.34375,-2.40625 5.601562,-2.71875 5.785156,-3.09375 5.890625,-3.53125 5.992188,-3.976562 6.03125,-4.484375 6,-5.046875 5.96875,-5.617188 5.890625,-6.21875 5.765625,-6.84375 5.640625,-7.46875 5.476562,-8.046875 5.28125,-8.578125 5.09375,-9.109375 4.863281,-9.5625 4.59375,-9.9375 4.320312,-10.3125 4.007812,-10.585938 3.65625,-10.765625 3.3125,-10.941406 2.925781,-10.988281 2.5,-10.90625 c -0.4375,0.09375 -0.789062,0.292969 -1.046875,0.59375 -0.25,0.304688 -0.429687,0.679688 -0.53125,1.125 -0.105469,0.449219 -0.148437,0.953125 -0.125,1.515625 0.03125,0.5625 0.109375,1.15625 0.234375,1.78125 0.125,0.625 0.285156,1.210937 0.484375,1.75 0.195313,0.53125 0.429687,0.984375 0.703125,1.359375 0.269531,0.367188 0.578125,0.640625 0.921875,0.828125 0.351563,0.179687 0.75,0.21875 1.1875,0.125 z m 0.25,1.234375 C 4.429688,-0.5625 4.238281,-0.535156 4,-0.515625 c -0.242188,0.023437 -0.515625,0 -0.828125,-0.0625 -0.304687,-0.0625 -0.625,-0.179687 -0.96875,-0.359375 C 1.867188,-1.113281 1.539062,-1.390625 1.21875,-1.765625 0.894531,-2.140625 0.59375,-2.632812 0.3125,-3.25 0.03125,-3.875 -0.207031,-4.65625 -0.40625,-5.59375 -0.59375,-6.519531 -0.675781,-7.320312 -0.65625,-8 c 0.023438,-0.6875 0.109375,-1.265625 0.265625,-1.734375 0.15625,-0.46875 0.3515625,-0.851563 0.578125,-1.15625 0.238281,-0.300781 0.488281,-0.539063 0.75,-0.71875 0.269531,-0.175781 0.515625,-0.300781 0.734375,-0.375 0.226563,-0.07031 0.414063,-0.125 0.5625,-0.15625 0.132813,-0.01953 0.328125,-0.03906 0.578125,-0.0625 0.25,-0.01953 0.523438,0 0.828125,0.0625 0.300781,0.0625 0.625,0.183594 0.96875,0.359375 0.34375,0.179688 0.675781,0.453125 1,0.828125 0.320313,0.375 0.625,0.875 0.90625,1.5 0.28125,0.617187 0.515625,1.386719 0.703125,2.3125 0.195312,0.9375 0.285156,1.75 0.265625,2.4375 -0.023437,0.679687 -0.109375,1.25 -0.265625,1.71875 -0.15625,0.46875 -0.355469,0.855469 -0.59375,1.15625 -0.242188,0.304687 -0.492188,0.542969 -0.75,0.71875 -0.261719,0.179687 -0.511719,0.304687 -0.75,0.375 -0.230469,0.074219 -0.414062,0.121094 -0.546875,0.140625 z m 0,0"
           id="path77" />
      </g>
    </g>
  </g>
  <g
     fill="#ffffff"
     fill-opacity="1"
     id="g83"
     transform="translate(-29.157661,-25.476562)">
    <g
       transform="translate(105.58172,47.617958)"
       id="g82">
      <g
         id="g81">
        <path
           d="m -0.1875,-11.109375 8.09375,-0.546875 0.0625,1 C 7.625,-10.21875 7.316406,-9.789062 7.046875,-9.375 6.773438,-8.96875 6.53125,-8.550781 6.3125,-8.125 c -0.210938,0.417969 -0.40625,0.84375 -0.59375,1.28125 -0.179688,0.4375 -0.34375,0.898438 -0.5,1.375 -0.15625,0.449219 -0.289062,0.875 -0.390625,1.28125 -0.09375,0.398438 -0.179687,0.804688 -0.25,1.21875 -0.0625,0.40625 -0.117187,0.828125 -0.15625,1.265625 -0.042969,0.4375 -0.074219,0.90625 -0.09375,1.40625 L 2.765625,-0.1875 C 2.816406,-0.988281 2.910156,-1.800781 3.046875,-2.625 3.191406,-3.445312 3.425781,-4.316406 3.75,-5.234375 3.882812,-5.648438 4.046875,-6.070312 4.234375,-6.5 4.429688,-6.925781 4.644531,-7.359375 4.875,-7.796875 5.113281,-8.242188 5.367188,-8.675781 5.640625,-9.09375 c 0.269531,-0.414062 0.5625,-0.828125 0.875,-1.234375 l -6.625,0.453125 z m 0,0"
           id="path80" />
      </g>
    </g>
  </g>
  <g
     fill="#ffffff"
     fill-opacity="1"
     id="g86"
     transform="translate(-29.157661,-25.476562)">
    <g
       transform="translate(114.31599,47.120907)"
       id="g85">
      <g
         id="g84">
        <path
           d="M 1.75,-1.671875 3.3125,-1.625 3.25,0.109375 1.6875,0.0625 Z m 0,0"
           id="path83" />
      </g>
    </g>
  </g>
  <g
     fill="#ffffff"
     fill-opacity="1"
     id="g89"
     transform="translate(-29.157661,-25.476562)">
    <g
       transform="translate(118.8062,47.148555)"
       id="g88">
      <g
         id="g87">
        <path
           d="M 8.34375,1.15625 0.890625,0.125 c 0.09375,-0.65625 0.265625,-1.210938 0.515625,-1.671875 0.25,-0.457031 0.566406,-0.851563 0.953125,-1.1875 0.382813,-0.332031 0.828125,-0.625 1.328125,-0.875 0.507812,-0.25 1.054688,-0.503906 1.640625,-0.765625 0.25,-0.113281 0.515625,-0.234375 0.796875,-0.359375 0.28125,-0.132813 0.550781,-0.300781 0.8125,-0.5 0.257812,-0.207031 0.484375,-0.453125 0.671875,-0.734375 0.1875,-0.28125 0.3125,-0.632812 0.375,-1.0625 C 8.078125,-7.71875 7.945312,-8.269531 7.59375,-8.6875 7.238281,-9.101562 6.726562,-9.359375 6.0625,-9.453125 c -0.699219,-0.09375 -1.28125,0.03125 -1.75,0.375 -0.46875,0.335937 -0.75,0.835937 -0.84375,1.5 L 3.421875,-7.171875 1.96875,-7.375 2.015625,-7.703125 c 0.03125,-0.25 0.113281,-0.566406 0.25,-0.953125 C 2.398438,-9.039062 2.625,-9.40625 2.9375,-9.75 c 0.320312,-0.34375 0.75,-0.613281 1.28125,-0.8125 0.539062,-0.195312 1.226562,-0.238281 2.0625,-0.125 0.570312,0.07422 1.070312,0.21875 1.5,0.4375 0.425781,0.21875 0.773438,0.496094 1.046875,0.828125 0.28125,0.324219 0.476563,0.703125 0.59375,1.140625 0.125,0.4375 0.148437,0.921875 0.078125,1.453125 C 9.425781,-6.316406 9.300781,-5.882812 9.125,-5.53125 8.945312,-5.1875 8.691406,-4.875 8.359375,-4.59375 8.035156,-4.320312 7.625,-4.0625 7.125,-3.8125 6.632812,-3.5625 6.039062,-3.285156 5.34375,-2.984375 4.539062,-2.609375 3.9375,-2.257812 3.53125,-1.9375 3.132812,-1.625 2.859375,-1.269531 2.703125,-0.875 l 5.8125,0.796875 z m 0,0"
           id="path86" />
      </g>
    </g>
  </g>
  <g
     fill="#ffffff"
     fill-opacity="1"
     id="g92"
     transform="translate(-29.157661,-25.476562)">
    <g
       transform="translate(127.35209,48.296296)"
       id="g91">
      <g
         id="g90">
        <path
           d="M 4.6875,0.34375 C 5.113281,0.457031 5.507812,0.4375 5.875,0.28125 6.238281,0.125 6.566406,-0.125 6.859375,-0.46875 7.148438,-0.820312 7.410156,-1.257812 7.640625,-1.78125 7.878906,-2.300781 8.082031,-2.867188 8.25,-3.484375 c 0.175781,-0.613281 0.296875,-1.195313 0.359375,-1.75 0.0625,-0.5625 0.054687,-1.070313 -0.015625,-1.53125 -0.0625,-0.457031 -0.210938,-0.84375 -0.4375,-1.15625 -0.230469,-0.320313 -0.558594,-0.539063 -0.984375,-0.65625 -0.429687,-0.113281 -0.824219,-0.09375 -1.1875,0.0625 -0.367187,0.148437 -0.699219,0.398437 -1,0.75 -0.304687,0.355469 -0.570313,0.792969 -0.796875,1.3125 -0.21875,0.511719 -0.417969,1.074219 -0.59375,1.6875 C 3.425781,-4.148438 3.304688,-3.5625 3.234375,-3 c -0.074219,0.5625 -0.074219,1.074219 0,1.53125 0.082031,0.449219 0.238281,0.835938 0.46875,1.15625 C 3.929688,0.0078125 4.257812,0.226562 4.6875,0.34375 Z M 4.34375,1.546875 C 4.207031,1.503906 4.023438,1.4375 3.796875,1.34375 3.578125,1.257812 3.34375,1.117188 3.09375,0.921875 c -0.25,-0.1875 -0.484375,-0.4375 -0.703125,-0.75 C 2.171875,-0.140625 2,-0.535156 1.875,-1.015625 1.757812,-1.503906 1.71875,-2.085938 1.75,-2.765625 1.78125,-3.441406 1.921875,-4.242188 2.171875,-5.171875 2.429688,-6.085938 2.722656,-6.84375 3.046875,-7.4375 3.367188,-8.03125 3.707031,-8.5 4.0625,-8.84375 c 0.351562,-0.351562 0.703125,-0.609375 1.046875,-0.765625 0.351563,-0.15625 0.6875,-0.25 1,-0.28125 C 6.421875,-9.929688 6.695312,-9.9375 6.9375,-9.90625 7.175781,-9.875 7.363281,-9.835938 7.5,-9.796875 7.632812,-9.753906 7.816406,-9.6875 8.046875,-9.59375 8.273438,-9.5 8.507812,-9.351562 8.75,-9.15625 c 0.25,0.1875 0.484375,0.4375 0.703125,0.75 0.21875,0.3125 0.382813,0.714844 0.5,1.203125 0.125,0.480469 0.171875,1.058594 0.140625,1.734375 -0.02344,0.679688 -0.164062,1.476562 -0.421875,2.390625 -0.25,0.929687 -0.542969,1.6875 -0.875,2.28125 -0.324219,0.59375 -0.664063,1.0625 -1.015625,1.40625 C 7.425781,0.960938 7.070312,1.21875 6.71875,1.375 6.375,1.53125 6.046875,1.625 5.734375,1.65625 5.429688,1.695312 5.15625,1.695312 4.90625,1.65625 4.664062,1.625 4.476562,1.585938 4.34375,1.546875 Z m 0,0"
           id="path89" />
      </g>
    </g>
  </g>
  <g
     fill="#ffffff"
     fill-opacity="1"
     id="g95"
     transform="translate(-29.157661,-25.476562)">
    <g
       transform="translate(135.66972,50.569268)"
       id="g94">
      <g
         id="g93">
        <path
           d="M 7.734375,3.3125 0.828125,0.359375 C 1.085938,-0.253906 1.394531,-0.742188 1.75,-1.109375 2.113281,-1.484375 2.523438,-1.78125 2.984375,-2 c 0.46875,-0.226562 0.976563,-0.394531 1.53125,-0.5 0.550781,-0.113281 1.144531,-0.21875 1.78125,-0.3125 0.257813,-0.050781 0.546875,-0.101562 0.859375,-0.15625 0.3125,-0.050781 0.617188,-0.132812 0.921875,-0.25 C 8.378906,-3.34375 8.65625,-3.519531 8.90625,-3.75 9.164062,-3.976562 9.378906,-4.285156 9.546875,-4.671875 9.816406,-5.316406 9.835938,-5.882812 9.609375,-6.375 9.378906,-6.863281 8.957031,-7.242188 8.34375,-7.515625 7.6875,-7.785156 7.085938,-7.820312 6.546875,-7.625 6.003906,-7.425781 5.601562,-7.019531 5.34375,-6.40625 l -0.15625,0.375 -1.34375,-0.5625 0.125,-0.296875 c 0.101562,-0.226563 0.269531,-0.507813 0.5,-0.84375 0.226562,-0.34375 0.539062,-0.632813 0.9375,-0.875 0.394531,-0.25 0.878906,-0.398437 1.453125,-0.453125 0.570313,-0.0625 1.242187,0.074219 2.015625,0.40625 0.53125,0.21875 0.972656,0.496094 1.328125,0.828125 0.351563,0.324219 0.617187,0.679687 0.796875,1.0625 0.1875,0.386719 0.28125,0.808594 0.28125,1.265625 0,0.449219 -0.105469,0.917969 -0.3125,1.40625 -0.210938,0.480469 -0.449219,0.867188 -0.71875,1.15625 -0.261719,0.292969 -0.585938,0.527344 -0.96875,0.703125 -0.386719,0.179687 -0.851562,0.324219 -1.390625,0.4375 -0.542969,0.105469 -1.1875,0.214844 -1.9375,0.328125 -0.875,0.148438 -1.546875,0.324219 -2.015625,0.53125 -0.46875,0.199219 -0.835938,0.464844 -1.09375,0.796875 l 5.375,2.296875 z m 0,0"
           id="path92" />
      </g>
    </g>
  </g>
  <g
     fill="#ffffff"
     fill-opacity="1"
     id="g98"
     transform="translate(-29.157661,-25.476562)">
    <g
       transform="translate(143.61164,53.92716)"
       id="g97">
      <g
         id="g96">
        <path
           d="M 7.234375,4.3125 0.78125,0.46875 C 1.125,-0.101562 1.492188,-0.550781 1.890625,-0.875 2.296875,-1.195312 2.742188,-1.4375 3.234375,-1.59375 3.722656,-1.75 4.25,-1.84375 4.8125,-1.875 5.375,-1.914062 5.972656,-1.941406 6.609375,-1.953125 c 0.269531,-0.00781 0.5625,-0.019531 0.875,-0.03125 0.3125,-0.00781 0.625,-0.054687 0.9375,-0.140625 0.320313,-0.082031 0.625,-0.21875 0.90625,-0.40625 0.28125,-0.195312 0.53125,-0.476562 0.75,-0.84375 0.363281,-0.601562 0.457031,-1.160156 0.28125,-1.671875 C 10.191406,-5.566406 9.828125,-6 9.265625,-6.34375 8.648438,-6.707031 8.0625,-6.820312 7.5,-6.6875 6.9375,-6.5625 6.484375,-6.210938 6.140625,-5.640625 L 5.921875,-5.296875 4.6875,-6.03125 4.859375,-6.3125 c 0.132813,-0.207031 0.332031,-0.460938 0.59375,-0.765625 0.269531,-0.3125 0.613281,-0.5625 1.03125,-0.75 0.425781,-0.1875 0.929687,-0.269531 1.515625,-0.25 0.582031,0.011719 1.234375,0.234375 1.953125,0.671875 0.488281,0.292969 0.882813,0.621094 1.1875,0.984375 0.3125,0.367187 0.53125,0.757813 0.65625,1.171875 0.132813,0.40625 0.171875,0.839844 0.109375,1.296875 -0.0625,0.449219 -0.230469,0.902344 -0.5,1.359375 -0.273438,0.449219 -0.558594,0.796875 -0.859375,1.046875 -0.292969,0.25 -0.640625,0.4375 -1.046875,0.5625 -0.40625,0.125 -0.886719,0.210937 -1.4375,0.25 -0.554688,0.03125 -1.210938,0.054687 -1.96875,0.0625 -0.898438,0.03125 -1.589844,0.121094 -2.078125,0.265625 -0.492187,0.136719 -0.882813,0.3515625 -1.171875,0.640625 l 5.03125,3 z m 0,0"
           id="path95" />
      </g>
    </g>
  </g>
  <g
     fill="#ffffff"
     fill-opacity="1"
     id="g101"
     transform="translate(-29.157661,-25.476562)">
    <g
       transform="translate(57.311255,73.598192)"
       id="g100">
      <g
         id="g99">
        <path
           d="m 5.28125,12.1875 -0.9375,1.671875 -1.609375,-6.015625 -7.78125,1 L -4.09375,7.1875 2.421875,6.46875 1.8125,4.15625 -1.34375,2.359375 -0.640625,1.125 8.59375,6.390625 7.890625,7.625 3.3125,5.015625 Z m 0,0"
           id="path98" />
      </g>
    </g>
  </g>
  <g
     fill="#ffffff"
     fill-opacity="1"
     id="g104"
     transform="translate(-29.157661,-25.476562)">
    <g
       transform="translate(52.064575,82.994714)"
       id="g103">
      <g
         id="g102">
        <path
           d="m 1.734375,7.765625 c 0.25,0.082031 0.523437,0.15625 0.828125,0.21875 C 2.863281,8.046875 3.160156,8.050781 3.453125,8 3.742188,7.945312 4.019531,7.820312 4.28125,7.625 4.539062,7.4375 4.753906,7.144531 4.921875,6.75 5.097656,6.289062 5.160156,5.882812 5.109375,5.53125 5.054688,5.175781 4.941406,4.867188 4.765625,4.609375 4.597656,4.347656 4.382812,4.132812 4.125,3.96875 3.875,3.800781 3.632812,3.671875 3.40625,3.578125 Z M -0.859375,8.1875 C -1.085938,8.03125 -1.316406,7.832031 -1.546875,7.59375 -1.773438,7.363281 -1.957031,7.082031 -2.09375,6.75 -2.226562,6.414062 -2.296875,6.03125 -2.296875,5.59375 -2.296875,5.164062 -2.1875,4.671875 -1.96875,4.109375 -1.726562,3.523438 -1.445312,3.0625 -1.125,2.71875 -0.800781,2.375 -0.460938,2.113281 -0.109375,1.9375 0.242188,1.769531 0.597656,1.671875 0.953125,1.640625 c 0.363281,-0.03125 0.695313,-0.027344 1,0.015625 0.3125,0.039062 0.582031,0.097656 0.8125,0.171875 C 3.003906,1.910156 3.1875,1.976562 3.3125,2.03125 3.457031,2.09375 3.660156,2.1875 3.921875,2.3125 4.179688,2.4375 4.4375,2.585938 4.6875,2.765625 c 0.25,0.1875 0.488281,0.410156 0.71875,0.671875 0.238281,0.269531 0.425781,0.582031 0.5625,0.9375 0.132812,0.363281 0.195312,0.765625 0.1875,1.203125 0,0.4375 -0.117188,0.9375 -0.34375,1.5 C 5.53125,7.785156 5.175781,8.300781 4.75,8.625 4.320312,8.957031 3.878906,9.160156 3.421875,9.234375 2.960938,9.316406 2.488281,9.3125 2,9.21875 1.519531,9.125 1.082031,9.007812 0.6875,8.875 0.644531,8.851562 0.585938,8.832031 0.515625,8.8125 0.453125,8.789062 0.394531,8.769531 0.34375,8.75 l 2.1875,-5.515625 c -0.3125,-0.125 -0.648438,-0.210937 -1,-0.25 C 1.175781,2.941406 0.835938,2.957031 0.515625,3.03125 c -0.324219,0.070312 -0.625,0.21875 -0.90625,0.4375 -0.289063,0.226562 -0.519531,0.546875 -0.6875,0.953125 -0.113281,0.28125 -0.175781,0.554687 -0.1875,0.828125 -0.019531,0.269531 0.00781,0.515625 0.078125,0.734375 0.074219,0.21875 0.179688,0.410156 0.3125,0.578125 0.136719,0.164062 0.304688,0.3125 0.5,0.4375 z m 0,0"
           id="path101" />
      </g>
    </g>
  </g>
  <g
     fill="#ffffff"
     fill-opacity="1"
     id="g107"
     transform="translate(-29.157661,-25.476562)">
    <g
       transform="translate(48.838507,91.45659)"
       id="g106">
      <g
         id="g105">
        <path
           d="m 9.5,5.359375 -10.1875,-3.03125 0.375,-1.28125 10.1875,3.03125 z m 0,0"
           id="path104" />
      </g>
    </g>
  </g>
  <g
     fill="#ffffff"
     fill-opacity="1"
     id="g110"
     transform="translate(-29.157661,-25.476562)">
    <g
       transform="translate(47.676393,95.163071)"
       id="g109">
      <g
         id="g108">
        <path
           d="M 6.328125,7.234375 6.03125,8.640625 -0.90625,4.25 -0.578125,2.734375 7.546875,1.546875 7.25,2.953125 0.546875,3.765625 Z m 0,0"
           id="path107" />
      </g>
    </g>
  </g>
  <g
     fill="#ffffff"
     fill-opacity="1"
     id="g113"
     transform="translate(-29.157661,-25.476562)">
    <g
       transform="translate(46.198292,102.50373)"
       id="g112">
      <g
         id="g111">
        <path
           d="M 10.390625,2.4375 10.21875,3.765625 8.828125,3.578125 9,2.25 Z M 7.328125,3.390625 -0.3125,2.375 -0.140625,1.046875 7.5,2.0625 Z m 0,0"
           id="path110" />
      </g>
    </g>
  </g>
  <g
     fill="#ffffff"
     fill-opacity="1"
     id="g116"
     transform="translate(-29.157661,-25.476562)">
    <g
       transform="translate(45.585164,106.33912)"
       id="g115">
      <g
         id="g114">
        <path
           d="M 3.796875,2.21875 C 3.023438,2.1875 2.414062,2.257812 1.96875,2.4375 1.519531,2.613281 1.1875,2.828125 0.96875,3.078125 0.75,3.328125 0.609375,3.582031 0.546875,3.84375 0.492188,4.113281 0.46875,4.328125 0.46875,4.484375 0.457031,4.628906 0.46875,4.832031 0.5,5.09375 0.539062,5.363281 0.660156,5.632812 0.859375,5.90625 1.054688,6.175781 1.367188,6.414062 1.796875,6.625 2.222656,6.832031 2.820312,6.953125 3.59375,6.984375 4.351562,7.015625 4.957031,6.941406 5.40625,6.765625 5.851562,6.585938 6.1875,6.375 6.40625,6.125 6.632812,5.875 6.773438,5.613281 6.828125,5.34375 6.878906,5.082031 6.910156,4.878906 6.921875,4.734375 6.921875,4.578125 6.90625,4.363281 6.875,4.09375 6.84375,3.832031 6.722656,3.566406 6.515625,3.296875 6.316406,3.023438 6.003906,2.785156 5.578125,2.578125 5.148438,2.367188 4.554688,2.25 3.796875,2.21875 Z M 3.828125,0.8125 c 0.507813,0.019531 1.007813,0.101562 1.5,0.25 C 5.816406,1.21875 6.25,1.453125 6.625,1.765625 c 0.382812,0.3125 0.6875,0.71875 0.90625,1.21875 0.226562,0.5 0.332031,1.097656 0.3125,1.796875 -0.03125,0.6875 -0.183594,1.269531 -0.453125,1.75 -0.261719,0.476562 -0.59375,0.859375 -1,1.140625 C 5.992188,7.953125 5.546875,8.144531 5.046875,8.25 4.546875,8.363281 4.039062,8.410156 3.53125,8.390625 3.007812,8.367188 2.503906,8.28125 2.015625,8.125 1.523438,7.976562 1.085938,7.75 0.703125,7.4375 0.328125,7.125 0.03125,6.71875 -0.1875,6.21875 -0.40625,5.71875 -0.5,5.125 -0.46875,4.4375 -0.445312,3.738281 -0.304688,3.148438 -0.046875,2.671875 0.210938,2.191406 0.539062,1.8125 0.9375,1.53125 1.34375,1.25 1.796875,1.050781 2.296875,0.9375 c 0.5,-0.105469 1.007813,-0.148438 1.53125,-0.125 z m 0,0"
           id="path113" />
      </g>
    </g>
  </g>
  <g
     fill="#ffffff"
     fill-opacity="1"
     id="g119"
     transform="translate(-29.157661,-25.476562)">
    <g
       transform="translate(45.249923,115.8246)"
       id="g118">
      <g
         id="g117">
        <path
           d="M 7.890625,1.71875 6.8125,1.8125 C 7.21875,2.050781 7.578125,2.378906 7.890625,2.796875 8.203125,3.210938 8.382812,3.722656 8.4375,4.328125 8.488281,4.828125 8.445312,5.25 8.3125,5.59375 8.1875,5.9375 8,6.210938 7.75,6.421875 7.5,6.628906 7.207031,6.785156 6.875,6.890625 6.539062,6.992188 6.179688,7.066406 5.796875,7.109375 L 0.6875,7.5625 0.5625,6.234375 5.265625,5.8125 C 5.460938,5.789062 5.695312,5.757812 5.96875,5.71875 6.238281,5.675781 6.488281,5.597656 6.71875,5.484375 6.945312,5.367188 7.132812,5.191406 7.28125,4.953125 7.425781,4.722656 7.484375,4.398438 7.453125,3.984375 7.429688,3.804688 7.378906,3.59375 7.296875,3.34375 7.222656,3.09375 7.078125,2.859375 6.859375,2.640625 6.640625,2.429688 6.332031,2.257812 5.9375,2.125 5.550781,2 5.039062,1.96875 4.40625,2.03125 l -4.1875,0.375 -0.125,-1.3125 7.671875,-0.6875 z m 0,0"
           id="path116" />
      </g>
    </g>
  </g>
  <g
     fill="#ffffff"
     fill-opacity="1"
     id="g122"
     transform="translate(-29.157661,-25.476562)">
    <g
       transform="translate(46.20286,124.87903)"
       id="g121">
      <g
         id="g120" />
    </g>
  </g>
  <g
     fill="#ffffff"
     fill-opacity="1"
     id="g125"
     transform="translate(-29.157661,-25.476562)">
    <g
       transform="translate(46.671571,129.00048)"
       id="g124">
      <g
         id="g123">
        <path
           d="M 9.328125,-0.09375 9.3125,-0.125 8.953125,0.015625 0.828125,2.59375 0.390625,1.234375 10.515625,-1.96875 11.15625,0.0625 3.8125,5.875 13.171875,6.40625 13.8125,8.4375 3.6875,11.640625 3.25,10.28125 11.375,7.703125 11.765625,7.625 11.75,7.578125 2.21875,6.984375 1.859375,5.890625 Z m 0,0"
           id="path122" />
      </g>
    </g>
  </g>
  <g
     fill="#ffffff"
     fill-opacity="1"
     id="g128"
     transform="translate(-29.157661,-25.476562)">
    <g
       transform="translate(51.226932,142.49948)"
       id="g127">
      <g
         id="g126">
        <path
           d="M 6.15625,3.4375 C 6.039062,3.375 5.941406,3.300781 5.859375,3.21875 5.773438,3.132812 5.695312,3.039062 5.625,2.9375 5.550781,2.832031 5.46875,2.707031 5.375,2.5625 5.28125,2.414062 5.171875,2.253906 5.046875,2.078125 4.867188,1.835938 4.703125,1.609375 4.546875,1.390625 4.390625,1.171875 4.21875,0.992188 4.03125,0.859375 3.851562,0.722656 3.65625,0.644531 3.4375,0.625 3.226562,0.601562 2.988281,0.660156 2.71875,0.796875 2.3125,1.003906 2.0625,1.285156 1.96875,1.640625 1.875,2.003906 1.925781,2.375 2.125,2.75 2.25,3 2.398438,3.222656 2.578125,3.421875 2.765625,3.628906 3,3.789062 3.28125,3.90625 3.5625,4.019531 3.890625,4.066406 4.265625,4.046875 4.640625,4.023438 5.070312,3.910156 5.5625,3.703125 Z m -0.9375,-5.15625 c 0.226562,-0.113281 0.5,-0.195312 0.8125,-0.25 0.3125,-0.0625 0.632812,-0.046875 0.96875,0.046875 0.332031,0.09375 0.671875,0.296875 1.015625,0.609375 0.351563,0.304688 0.6875,0.757812 1,1.359375 C 9.148438,0.316406 9.269531,0.628906 9.375,0.984375 9.488281,1.335938 9.53125,1.691406 9.5,2.046875 9.476562,2.398438 9.363281,2.742188 9.15625,3.078125 8.945312,3.410156 8.585938,3.695312 8.078125,3.9375 L 4.84375,5.5 C 4.71875,5.5625 4.601562,5.617188 4.5,5.671875 4.40625,5.734375 4.332031,5.804688 4.28125,5.890625 4.238281,5.972656 4.222656,6.070312 4.234375,6.1875 4.253906,6.300781 4.316406,6.445312 4.421875,6.625 L 3.578125,7.046875 C 3.515625,6.972656 3.457031,6.898438 3.40625,6.828125 3.351562,6.765625 3.296875,6.671875 3.234375,6.546875 3.148438,6.378906 3.082031,6.21875 3.03125,6.0625 2.988281,5.914062 2.972656,5.769531 2.984375,5.625 3.003906,5.488281 3.0625,5.351562 3.15625,5.21875 3.257812,5.09375 3.414062,4.953125 3.625,4.796875 3.34375,4.796875 3.082031,4.742188 2.84375,4.640625 2.613281,4.546875 2.394531,4.421875 2.1875,4.265625 1.976562,4.117188 1.789062,3.941406 1.625,3.734375 1.46875,3.523438 1.332031,3.300781 1.21875,3.0625 c -0.367188,-0.71875 -0.5,-1.386719 -0.40625,-2 0.09375,-0.617188 0.503906,-1.1015625 1.234375,-1.46875 0.300781,-0.15625 0.59375,-0.25 0.875,-0.28125 0.289063,-0.03125 0.59375,0.039062 0.90625,0.203125 0.3125,0.15625 0.640625,0.4179688 0.984375,0.78125 0.34375,0.375 0.71875,0.894531 1.125,1.5625 C 6.082031,2.097656 6.207031,2.300781 6.3125,2.46875 6.425781,2.632812 6.535156,2.753906 6.640625,2.828125 6.742188,2.898438 6.863281,2.925781 7,2.90625 7.144531,2.894531 7.332031,2.835938 7.5625,2.734375 7.644531,2.679688 7.753906,2.609375 7.890625,2.515625 8.035156,2.421875 8.160156,2.285156 8.265625,2.109375 8.378906,1.929688 8.4375,1.707031 8.4375,1.4375 8.4375,1.175781 8.34375,0.859375 8.15625,0.484375 8.09375,0.367188 8.003906,0.210938 7.890625,0.015625 7.785156,-0.171875 7.632812,-0.335938 7.4375,-0.484375 7.238281,-0.640625 7.003906,-0.738281 6.734375,-0.78125 6.460938,-0.820312 6.148438,-0.753906 5.796875,-0.578125 Z m 0,0"
           id="path125" />
      </g>
    </g>
  </g>
  <g
     fill="#ffffff"
     fill-opacity="1"
     id="g131"
     transform="translate(-29.157661,-25.476562)">
    <g
       transform="translate(55.309614,150.47658)"
       id="g130">
      <g
         id="g129">
        <path
           d="M 6.625,4.90625 C 6.40625,5.03125 6.125,5.144531 5.78125,5.25 5.445312,5.363281 5.082031,5.410156 4.6875,5.390625 4.289062,5.378906 3.875,5.257812 3.4375,5.03125 3.007812,4.8125 2.601562,4.414062 2.21875,3.84375 2.144531,3.726562 2.050781,3.566406 1.9375,3.359375 1.820312,3.160156 1.71875,2.921875 1.625,2.640625 1.53125,2.359375 1.476562,2.046875 1.46875,1.703125 1.457031,1.367188 1.515625,1.019531 1.640625,0.65625 c 0.125,-0.367188 0.335937,-0.7382812 0.640625,-1.125 0.3125,-0.394531 0.753906,-0.785156 1.328125,-1.171875 0.363281,-0.25 0.773437,-0.46875 1.234375,-0.65625 0.457031,-0.1875 0.929688,-0.273437 1.421875,-0.265625 0.488281,0 0.972656,0.125 1.453125,0.375 0.476562,0.25 0.929688,0.6875 1.359375,1.3125 0.300781,0.449219 0.5,0.87890625 0.59375,1.296875 0.101563,0.414063 0.125,0.804687 0.0625,1.171875 C 9.679688,1.96875 9.5625,2.304688 9.375,2.609375 9.195312,2.921875 8.96875,3.195312 8.6875,3.4375 L 7.984375,2.390625 C 8.296875,2.085938 8.5,1.789062 8.59375,1.5 8.695312,1.21875 8.738281,0.957031 8.71875,0.71875 8.695312,0.476562 8.632812,0.265625 8.53125,0.078125 8.425781,-0.0976562 8.347656,-0.234375 8.296875,-0.328125 8.054688,-0.671875 7.785156,-0.914062 7.484375,-1.0625 7.179688,-1.21875 6.863281,-1.289062 6.53125,-1.28125 6.207031,-1.269531 5.859375,-1.191406 5.484375,-1.046875 5.117188,-0.910156 4.757812,-0.722656 4.40625,-0.484375 4.039062,-0.242188 3.71875,0.0234375 3.4375,0.328125 3.164062,0.628906 2.953125,0.9375 2.796875,1.25 2.648438,1.570312 2.585938,1.910156 2.609375,2.265625 c 0.03125,0.351563 0.164063,0.707031 0.40625,1.0625 0.207031,0.300781 0.441406,0.519531 0.703125,0.65625 0.257812,0.144531 0.519531,0.226563 0.78125,0.25 0.269531,0.019531 0.523438,-0.011719 0.765625,-0.09375 0.25,-0.085937 0.460937,-0.179687 0.640625,-0.28125 z m 0,0"
           id="path128" />
      </g>
    </g>
  </g>
  <g
     fill="#ffffff"
     fill-opacity="1"
     id="g134"
     transform="translate(-29.157661,-25.476562)">
    <g
       transform="translate(60.298525,157.84273)"
       id="g133">
      <g
         id="g132">
        <path
           d="M 9.59375,-5.171875 6.578125,-2.53125 c 0.601563,-0.0625 1.128906,0 1.578125,0.1875 0.445312,0.179688 0.847656,0.46875 1.203125,0.875 0.28125,0.324219 0.472656,0.636719 0.578125,0.9375 0.113281,0.292969 0.160156,0.5664062 0.140625,0.828125 C 10.066406,0.554688 10.007812,0.789062 9.90625,1 9.8125,1.21875 9.703125,1.414062 9.578125,1.59375 c -0.125,0.175781 -0.261719,0.328125 -0.40625,0.453125 -0.148437,0.125 -0.257813,0.21875 -0.328125,0.28125 l -3.859375,3.375 -0.875,-1 L 7.65625,1.59375 C 7.820312,1.445312 8.003906,1.28125 8.203125,1.09375 8.410156,0.914062 8.566406,0.707031 8.671875,0.46875 8.785156,0.238281 8.832031,-0.00390625 8.8125,-0.265625 8.789062,-0.535156 8.640625,-0.828125 8.359375,-1.140625 8.242188,-1.273438 8.082031,-1.421875 7.875,-1.578125 7.664062,-1.734375 7.40625,-1.832031 7.09375,-1.875 6.789062,-1.925781 6.441406,-1.882812 6.046875,-1.75 c -0.386719,0.125 -0.8125,0.398438 -1.28125,0.8125 l -3.171875,2.765625 -0.875,-1 8,-7 z m 0,0"
           id="path131" />
      </g>
    </g>
  </g>
  <g
     fill="#ffffff"
     fill-opacity="1"
     id="g137"
     transform="translate(-29.157661,-25.476562)">
    <g
       transform="translate(66.380112,164.59426)"
       id="g136">
      <g
         id="g135">
        <path
           d="M 8.109375,-6.953125 9.078125,-6.03125 8.109375,-5.015625 7.140625,-5.9375 Z M 7.0625,-3.90625 1.734375,1.65625 0.765625,0.734375 6.09375,-4.828125 Z m 0,0"
           id="path134" />
      </g>
    </g>
  </g>
  <g
     fill="#ffffff"
     fill-opacity="1"
     id="g140"
     transform="translate(-29.157661,-25.476562)">
    <g
       transform="translate(69.115189,167.3422)"
       id="g139">
      <g
         id="g138">
        <path
           d="m 6.6875,-4.515625 -0.671875,0.84375 c 0.457031,-0.132813 0.941406,-0.164063 1.453125,-0.09375 0.519531,0.0625 1.015625,0.28125 1.484375,0.65625 0.40625,0.3125 0.6875,0.636719 0.84375,0.96875 0.15625,0.324219 0.222656,0.648437 0.203125,0.96875 -0.023438,0.324219 -0.117188,0.648437 -0.28125,0.96875 C 9.5625,0.109375 9.363281,0.414062 9.125,0.71875 L 5.9375,4.734375 4.90625,3.90625 7.84375,0.21875 C 7.96875,0.0625 8.109375,-0.128906 8.265625,-0.359375 8.421875,-0.585938 8.535156,-0.820312 8.609375,-1.0625 8.691406,-1.3125 8.695312,-1.570312 8.625,-1.84375 8.5625,-2.113281 8.363281,-2.378906 8.03125,-2.640625 7.894531,-2.753906 7.707031,-2.863281 7.46875,-2.96875 c -0.230469,-0.113281 -0.5,-0.164062 -0.8125,-0.15625 -0.3125,0.011719 -0.652344,0.117188 -1.015625,0.3125 -0.355469,0.199219 -0.730469,0.546875 -1.125,1.046875 l -2.625,3.28125 L 0.859375,0.6875 5.65625,-5.34375 Z m 0,0"
           id="path137" />
      </g>
    </g>
  </g>
  <g
     fill="#ffffff"
     fill-opacity="1"
     id="g143"
     transform="translate(-29.157661,-25.476562)">
    <g
       transform="translate(76.404141,173.09854)"
       id="g142">
      <g
         id="g141">
        <path
           d="m 7.953125,-0.4375 c 0.125,-0.226562 0.238281,-0.484375 0.34375,-0.765625 0.113281,-0.289063 0.164063,-0.582031 0.15625,-0.875 0,-0.300781 -0.074219,-0.597656 -0.21875,-0.890625 C 8.085938,-3.257812 7.832031,-3.515625 7.46875,-3.734375 7.050781,-3.992188 6.660156,-4.128906 6.296875,-4.140625 c -0.367187,-0.00781 -0.6875,0.054687 -0.96875,0.1875 -0.28125,0.136719 -0.527344,0.3125 -0.734375,0.53125 -0.210938,0.21875 -0.375,0.433594 -0.5,0.640625 z M 7.9375,2.1875 C 7.75,2.394531 7.519531,2.59375 7.25,2.78125 6.976562,2.96875 6.664062,3.097656 6.3125,3.171875 5.957031,3.253906 5.566406,3.257812 5.140625,3.1875 4.722656,3.113281 4.253906,2.921875 3.734375,2.609375 c -0.542969,-0.335937 -0.960937,-0.6875 -1.25,-1.0625 -0.28125,-0.367187 -0.480469,-0.742187 -0.59375,-1.125 -0.105469,-0.375 -0.148437,-0.738281 -0.125,-1.09375 0.03125,-0.363281 0.09375,-0.691406 0.1875,-0.984375 0.101563,-0.300781 0.210937,-0.5625 0.328125,-0.78125 0.113281,-0.21875 0.203125,-0.382812 0.265625,-0.5 C 2.628906,-3.070312 2.75,-3.253906 2.90625,-3.484375 3.070312,-3.722656 3.269531,-3.953125 3.5,-4.171875 c 0.226562,-0.21875 0.492188,-0.414063 0.796875,-0.59375 0.300781,-0.1875 0.632813,-0.316406 1,-0.390625 0.375,-0.070312 0.78125,-0.070312 1.21875,0 0.4375,0.074219 0.910156,0.273438 1.421875,0.59375 0.65625,0.386719 1.109375,0.820312 1.359375,1.296875 0.257813,0.46875 0.390625,0.9375 0.390625,1.40625 0,0.46875 -0.089844,0.933594 -0.265625,1.390625 -0.179687,0.4609375 -0.367187,0.875 -0.5625,1.25 C 8.828125,0.832031 8.796875,0.882812 8.765625,0.9375 8.742188,1 8.71875,1.054688 8.6875,1.109375 L 3.609375,-1.96875 C 3.429688,-1.6875 3.289062,-1.367188 3.1875,-1.015625 3.09375,-0.671875 3.050781,-0.332031 3.0625,0 3.082031,0.320312 3.175781,0.640625 3.34375,0.953125 3.519531,1.273438 3.796875,1.550781 4.171875,1.78125 4.441406,1.945312 4.707031,2.054688 4.96875,2.109375 5.238281,2.171875 5.484375,2.1875 5.703125,2.15625 5.929688,2.125 6.140625,2.050781 6.328125,1.9375 6.515625,1.832031 6.6875,1.695312 6.84375,1.53125 Z m 0,0"
           id="path140" />
      </g>
    </g>
  </g>
  <g
     fill="#ffffff"
     fill-opacity="1"
     id="g146"
     transform="translate(-29.157661,-25.476562)">
    <g
       transform="translate(84.222489,177.67135)"
       id="g145">
      <g
         id="g144" />
    </g>
  </g>
  <g
     fill="#ffffff"
     fill-opacity="1"
     id="g149"
     transform="translate(-29.157661,-25.476562)">
    <g
       transform="translate(87.773693,179.59055)"
       id="g148">
      <g
         id="g147">
        <path
           d="m 10.8125,0.171875 c -0.179688,0.34375 -0.417969,0.695313 -0.71875,1.0625 C 9.800781,1.597656 9.429688,1.90625 8.984375,2.15625 8.535156,2.40625 8.003906,2.554688 7.390625,2.609375 6.785156,2.660156 6.082031,2.539062 5.28125,2.25 4.539062,1.976562 3.914062,1.617188 3.40625,1.171875 c -0.5,-0.4375 -0.875,-0.949219 -1.125,-1.53125 C 2.039062,-0.953125 1.925781,-1.601562 1.9375,-2.3125 c 0.00781,-0.71875 0.160156,-1.472656 0.453125,-2.265625 0.3125,-0.882813 0.675781,-1.597656 1.09375,-2.140625 0.425781,-0.539062 0.859375,-0.960938 1.296875,-1.265625 0.445312,-0.300781 0.894531,-0.5 1.34375,-0.59375 0.457031,-0.09375 0.878906,-0.128906 1.265625,-0.109375 0.394531,0.023438 0.738281,0.074219 1.03125,0.15625 0.300781,0.074219 0.519531,0.136719 0.65625,0.1875 0.800781,0.292969 1.421875,0.636719 1.859375,1.03125 0.4375,0.398438 0.75,0.8125 0.9375,1.25 0.1875,0.4375 0.273438,0.882812 0.265625,1.328125 0,0.449219 -0.05469,0.871094 -0.15625,1.265625 l -1.34375,-0.484375 c 0.03906,-0.1875 0.06641,-0.421875 0.07813,-0.703125 0.01953,-0.289062 -0.02734,-0.585938 -0.140625,-0.890625 -0.117187,-0.3125 -0.324219,-0.613281 -0.625,-0.90625 -0.292974,-0.300781 -0.726568,-0.554687 -1.29688,-0.765625 -0.625,-0.226562 -1.1875,-0.296875 -1.6875,-0.203125 -0.5,0.085937 -0.953125,0.28125 -1.359375,0.59375 -0.398437,0.3125 -0.742187,0.710937 -1.03125,1.1875 C 4.285156,-5.171875 4.039062,-4.664062 3.84375,-4.125 3.632812,-3.550781 3.515625,-2.988281 3.484375,-2.4375 3.460938,-1.882812 3.53125,-1.375 3.6875,-0.90625 c 0.15625,0.46875 0.40625,0.8828125 0.75,1.234375 0.34375,0.351563 0.78125,0.625 1.3125,0.8125 0.394531,0.144531 0.785156,0.21875 1.171875,0.21875 0.382813,0 0.738281,-0.070313 1.0625,-0.203125 0.320313,-0.125 0.609375,-0.3125 0.859375,-0.5625 0.257812,-0.25 0.46875,-0.5546875 0.625,-0.90625 z m 0,0"
           id="path146" />
      </g>
    </g>
  </g>
  <g
     fill="#ffffff"
     fill-opacity="1"
     id="g152"
     transform="translate(-29.157661,-25.476562)">
    <g
       transform="translate(98.602599,183.38935)"
       id="g151">
      <g
         id="g150">
        <path
           d="m 2.796875,-3.390625 c -0.15625,0.761719 -0.183594,1.375 -0.078125,1.84375 0.101562,0.46875 0.257812,0.835937 0.46875,1.09375 0.21875,0.25 0.453125,0.421875 0.703125,0.515625 0.25,0.101562 0.445313,0.171875 0.59375,0.203125 C 4.628906,0.296875 4.835938,0.3125 5.109375,0.3125 5.378906,0.320312 5.660156,0.25 5.953125,0.09375 6.253906,-0.0507812 6.539062,-0.316406 6.8125,-0.703125 c 0.28125,-0.382813 0.5,-0.957031 0.65625,-1.71875 0.144531,-0.738281 0.164062,-1.34375 0.0625,-1.8125 C 7.4375,-4.710938 7.28125,-5.082031 7.0625,-5.34375 6.851562,-5.601562 6.625,-5.78125 6.375,-5.875 6.125,-5.96875 5.925781,-6.03125 5.78125,-6.0625 5.632812,-6.09375 5.425781,-6.113281 5.15625,-6.125 4.882812,-6.132812 4.597656,-6.0625 4.296875,-5.90625 4.003906,-5.75 3.71875,-5.472656 3.4375,-5.078125 c -0.28125,0.386719 -0.496094,0.949219 -0.640625,1.6875 z m -1.375,-0.265625 c 0.09375,-0.5 0.253906,-0.976562 0.484375,-1.4375 0.226562,-0.457031 0.523438,-0.847656 0.890625,-1.171875 0.363281,-0.320313 0.8125,-0.550781 1.34375,-0.6875 0.539063,-0.144531 1.148437,-0.148437 1.828125,-0.015625 0.675781,0.136719 1.226562,0.375 1.65625,0.71875 0.425781,0.335938 0.742188,0.726562 0.953125,1.171875 0.21875,0.449219 0.335937,0.929687 0.359375,1.4375 0.03125,0.511719 0,1.015625 -0.09375,1.515625 -0.105469,0.511719 -0.273438,0.996094 -0.5,1.453125 C 8.113281,-0.210938 7.8125,0.175781 7.4375,0.5 7.070312,0.820312 6.625,1.050781 6.09375,1.1875 5.570312,1.320312 4.972656,1.320312 4.296875,1.1875 3.617188,1.050781 3.0625,0.816406 2.625,0.484375 2.1875,0.148438 1.863281,-0.238281 1.65625,-0.6875 1.445312,-1.132812 1.328125,-1.613281 1.296875,-2.125 c -0.023437,-0.507812 0.019531,-1.019531 0.125,-1.53125 z m 0,0"
           id="path149" />
      </g>
    </g>
  </g>
  <g
     fill="#ffffff"
     fill-opacity="1"
     id="g155"
     transform="translate(-29.157661,-25.476562)">
    <g
       transform="translate(107.91786,185.25528)"
       id="g154">
      <g
         id="g153">
        <path
           d="m 2.328125,-3.71875 c -0.054687,0.761719 0,1.371094 0.15625,1.828125 0.164063,0.449219 0.367187,0.789063 0.609375,1.015625 0.25,0.21875 0.503906,0.367188 0.765625,0.4375 0.257813,0.0625 0.46875,0.101562 0.625,0.109375 0.144531,0.011719 0.351563,0.007813 0.625,-0.015625 C 5.378906,-0.375 5.648438,-0.484375 5.921875,-0.671875 6.191406,-0.867188 6.4375,-1.175781 6.65625,-1.59375 6.882812,-2.019531 7.023438,-2.613281 7.078125,-3.375 c 0.0625,-0.757812 0.00781,-1.363281 -0.15625,-1.8125 -0.167969,-0.457031 -0.375,-0.800781 -0.625,-1.03125 -0.242187,-0.226562 -0.492187,-0.375 -0.75,-0.4375 C 5.285156,-6.71875 5.082031,-6.753906 4.9375,-6.765625 4.78125,-6.773438 4.566406,-6.769531 4.296875,-6.75 4.023438,-6.726562 3.753906,-6.617188 3.484375,-6.421875 3.210938,-6.222656 2.96875,-5.910156 2.75,-5.484375 2.53125,-5.066406 2.390625,-4.476562 2.328125,-3.71875 Z M 0.921875,-3.796875 C 0.960938,-4.304688 1.0625,-4.800781 1.21875,-5.28125 1.382812,-5.769531 1.628906,-6.195312 1.953125,-6.5625 c 0.332031,-0.375 0.75,-0.664062 1.25,-0.875 0.5,-0.21875 1.097656,-0.300781 1.796875,-0.25 0.6875,0.054688 1.265625,0.21875 1.734375,0.5 0.476563,0.273438 0.847656,0.617188 1.109375,1.03125 0.269531,0.40625 0.453125,0.867188 0.546875,1.375 0.101563,0.5 0.132813,1.007812 0.09375,1.515625 -0.03125,0.511719 -0.132813,1.011719 -0.296875,1.5 -0.167969,0.480469 -0.414062,0.90625 -0.734375,1.28125 -0.324219,0.367187 -0.742187,0.648437 -1.25,0.859375 -0.5,0.207031 -1.09375,0.285156 -1.78125,0.234375 C 3.722656,0.554688 3.140625,0.394531 2.671875,0.125 2.203125,-0.144531 1.832031,-0.484375 1.5625,-0.890625 c -0.273438,-0.414063 -0.453125,-0.875 -0.546875,-1.375 -0.09375,-0.507813 -0.125,-1.019531 -0.09375,-1.53125 z m 0,0"
           id="path152" />
      </g>
    </g>
  </g>
  <g
     fill="#ffffff"
     fill-opacity="1"
     id="g158"
     transform="translate(-29.157661,-25.476562)">
    <g
       transform="translate(117.21191,185.76614)"
       id="g157">
      <g
         id="g156">
        <path
           d="m 2.1875,-10.671875 0.234375,10.625 -1.328125,0.015625 -0.234375,-10.625 z m 0,0"
           id="path155" />
      </g>
    </g>
  </g>
  <g
     fill="#ffffff"
     fill-opacity="1"
     id="g161"
     transform="translate(-29.157661,-25.476562)">
    <g
       transform="translate(120.96628,185.67784)"
       id="g160">
      <g
         id="g159">
        <path
           d="m 0.28125,-10.671875 1.328125,-0.09375 0.109375,1.40625 -1.328125,0.09375 z m 1.546875,2.8125 0.5625,7.6875 L 1.0625,-0.078125 0.5,-7.765625 Z m 0,0"
           id="path158" />
      </g>
    </g>
  </g>
  <g
     fill="#ffffff"
     fill-opacity="1"
     id="g164"
     transform="translate(-29.157661,-25.476562)">
    <g
       transform="translate(124.83967,185.49291)"
       id="g163">
      <g
         id="g162">
        <path
           d="m 1.140625,-7.984375 0.171875,1.0625 c 0.207031,-0.425781 0.503906,-0.804687 0.890625,-1.140625 0.394531,-0.34375 0.894531,-0.566406 1.5,-0.671875 0.5,-0.082031 0.921875,-0.070313 1.265625,0.03125 0.34375,0.09375 0.628906,0.261719 0.859375,0.5 0.238281,0.230469 0.421875,0.511719 0.546875,0.84375 0.132812,0.335937 0.234375,0.6875 0.296875,1.0625 L 7.5,-1.234375 6.1875,-1.015625 5.421875,-5.671875 C 5.390625,-5.867188 5.34375,-6.101562 5.28125,-6.375 5.21875,-6.644531 5.117188,-6.890625 4.984375,-7.109375 4.859375,-7.328125 4.671875,-7.5 4.421875,-7.625 c -0.25,-0.132812 -0.585937,-0.164062 -1,-0.09375 -0.179687,0.023438 -0.386719,0.085938 -0.625,0.1875 -0.242187,0.09375 -0.460937,0.261719 -0.65625,0.5 -0.199219,0.230469 -0.351563,0.546875 -0.453125,0.953125 -0.09375,0.398437 -0.089844,0.914063 0.015625,1.546875 l 0.6875,4.140625 -1.3125,0.21875 -1.25,-7.59375 z m 0,0"
           id="path161" />
      </g>
    </g>
  </g>
  <g
     fill="#ffffff"
     fill-opacity="1"
     id="g167"
     transform="translate(-29.157661,-25.476562)">
    <g
       transform="translate(134.01584,183.95331)"
       id="g166">
      <g
         id="g165">
        <path
           d="M 4.109375,-1.90625 C 4.222656,-1.945312 4.394531,-2.035156 4.625,-2.171875 4.851562,-2.304688 5.050781,-2.519531 5.21875,-2.8125 5.394531,-3.101562 5.507812,-3.484375 5.5625,-3.953125 5.613281,-4.429688 5.535156,-5.023438 5.328125,-5.734375 5.035156,-6.671875 4.617188,-7.34375 4.078125,-7.75 3.535156,-8.15625 2.890625,-8.242188 2.140625,-8.015625 1.773438,-7.910156 1.488281,-7.757812 1.28125,-7.5625 1.070312,-7.363281 0.910156,-7.148438 0.796875,-6.921875 0.691406,-6.691406 0.632812,-6.445312 0.625,-6.1875 c 0,0.25 0.003906,0.492188 0.015625,0.71875 0.019531,0.230469 0.054687,0.4375 0.109375,0.625 0.050781,0.1875 0.09375,0.335938 0.125,0.4375 0.226562,0.742188 0.5,1.296875 0.8125,1.671875 0.3125,0.375 0.617188,0.632813 0.921875,0.765625 0.300781,0.136719 0.585937,0.195312 0.859375,0.171875 C 3.75,-1.828125 3.960938,-1.863281 4.109375,-1.90625 Z m -1.453125,2 c 0.125,0.195312 0.273438,0.34375 0.453125,0.4375 0.175781,0.101562 0.363281,0.164062 0.5625,0.1875 C 3.878906,0.738281 4.09375,0.734375 4.3125,0.703125 4.53125,0.671875 4.734375,0.625 4.921875,0.5625 5.429688,0.414062 5.789062,0.195312 6,-0.09375 c 0.207031,-0.289062 0.335938,-0.582031 0.390625,-0.875 0.050781,-0.300781 0.050781,-0.578125 0,-0.828125 -0.054687,-0.257813 -0.09375,-0.441406 -0.125,-0.546875 l -0.25,-0.796875 C 5.929688,-2.804688 5.835938,-2.519531 5.734375,-2.28125 5.628906,-2.050781 5.5,-1.847656 5.34375,-1.671875 5.1875,-1.492188 5.003906,-1.347656 4.796875,-1.234375 4.597656,-1.117188 4.363281,-1.019531 4.09375,-0.9375 3.65625,-0.800781 3.210938,-0.75 2.765625,-0.78125 2.328125,-0.8125 1.90625,-0.941406 1.5,-1.171875 1.09375,-1.410156 0.71875,-1.753906 0.375,-2.203125 c -0.3359375,-0.445313 -0.609375,-1.03125 -0.828125,-1.75 -0.03125,-0.113281 -0.078125,-0.289063 -0.140625,-0.53125 -0.0625,-0.25 -0.109375,-0.523437 -0.140625,-0.828125 -0.039063,-0.300781 -0.039063,-0.625 0,-0.96875 0.03125,-0.34375 0.132813,-0.679688 0.296875,-1.015625 0.15625,-0.332031 0.390625,-0.632813 0.703125,-0.90625 0.320313,-0.269531 0.75,-0.484375 1.28125,-0.640625 0.601563,-0.1875 1.15625,-0.234375 1.65625,-0.140625 0.5,0.09375 0.925781,0.320313 1.28125,0.671875 L 4.53125,-8.328125 4.234375,-9.34375 5.4375,-9.703125 l 2.171875,7.1875 c 0.144531,0.46875 0.195313,0.890625 0.15625,1.265625 -0.03125,0.375 -0.117187,0.703125 -0.25,0.984375 C 7.390625,0.015625 7.21875,0.253906 7,0.453125 6.78125,0.660156 6.5625,0.832031 6.34375,0.96875 6.125,1.101562 5.90625,1.210938 5.6875,1.296875 5.476562,1.378906 5.3125,1.4375 5.1875,1.46875 5.019531,1.519531 4.78125,1.582031 4.46875,1.65625 4.164062,1.738281 3.832031,1.765625 3.46875,1.734375 3.101562,1.710938 2.738281,1.613281 2.375,1.4375 2.019531,1.257812 1.710938,0.9375 1.453125,0.46875 Z m 0,0"
           id="path164" />
      </g>
    </g>
  </g>
  <g
     fill="#ffffff"
     fill-opacity="1"
     id="g170"
     transform="translate(-29.157661,-25.476562)">
    <g
       transform="translate(143.08722,181.03913)"
       id="g169">
      <g
         id="g168" />
    </g>
  </g>
  <g
     fill="#ffffff"
     fill-opacity="1"
     id="g173"
     transform="translate(-29.157661,-25.476562)">
    <g
       transform="translate(146.84193,179.6496)"
       id="g172">
      <g
         id="g171">
        <path
           d="m 0.28125,-3.96875 c 0.15625,0.3125 0.359375,0.574219 0.609375,0.78125 0.257813,0.210938 0.554687,0.351562 0.890625,0.421875 0.34375,0.0625 0.710938,0.070313 1.109375,0.015625 0.40625,-0.0625 0.816406,-0.203125 1.234375,-0.421875 0.425781,-0.226563 0.753906,-0.472656 0.984375,-0.734375 0.238281,-0.257812 0.40625,-0.515625 0.5,-0.765625 C 5.710938,-4.929688 5.75,-5.1875 5.71875,-5.4375 5.695312,-5.695312 5.625,-5.941406 5.5,-6.171875 5.351562,-6.453125 5.171875,-6.65625 4.953125,-6.78125 4.734375,-6.90625 4.5,-6.984375 4.25,-7.015625 4.007812,-7.046875 3.757812,-7.035156 3.5,-6.984375 3.238281,-6.929688 2.984375,-6.875 2.734375,-6.8125 c -0.59375,0.179688 -1.164063,0.34375 -1.703125,0.5 -0.542969,0.148438 -1.0390625,0.226562 -1.5,0.234375 -0.46875,0.011719 -0.898438,-0.082031 -1.296875,-0.28125 C -2.160156,-6.554688 -2.5,-6.921875 -2.78125,-7.453125 -3.007812,-7.878906 -3.128906,-8.3125 -3.140625,-8.75 c -0.00781,-0.4375 0.085937,-0.847656 0.28125,-1.234375 0.1875,-0.394531 0.46875,-0.765625 0.84375,-1.109375 0.375,-0.34375 0.824219,-0.65625 1.34375,-0.9375 0.5859375,-0.3125 1.125,-0.503906 1.625,-0.578125 0.507813,-0.08203 0.972656,-0.07031 1.390625,0.03125 0.414062,0.09375 0.785156,0.265625 1.109375,0.515625 0.320313,0.25 0.59375,0.554688 0.8125,0.90625 L 3,-10.5 c -0.25,-0.351562 -0.527344,-0.59375 -0.828125,-0.71875 -0.292969,-0.132812 -0.589844,-0.195312 -0.890625,-0.1875 -0.304688,0.01172 -0.578125,0.07422 -0.828125,0.1875 -0.242187,0.105469 -0.4375,0.195312 -0.59375,0.265625 -0.632813,0.34375 -1.078125,0.765625 -1.328125,1.265625 -0.257812,0.492188 -0.257812,0.976562 0,1.453125 0.148438,0.28125 0.335938,0.480469 0.5625,0.59375 0.21875,0.105469 0.464844,0.15625 0.734375,0.15625 0.2695312,-0.00781 0.5625,-0.054687 0.875,-0.140625 0.320313,-0.09375 0.65625,-0.191406 1,-0.296875 C 2.171875,-8.054688 2.644531,-8.1875 3.125,-8.3125 c 0.476562,-0.125 0.941406,-0.175781 1.390625,-0.15625 0.457031,0.023438 0.882813,0.152344 1.28125,0.390625 0.394531,0.230469 0.742187,0.632813 1.046875,1.203125 0.238281,0.460938 0.367188,0.886719 0.390625,1.28125 0.019531,0.398438 -0.027344,0.761719 -0.140625,1.09375 -0.117188,0.335938 -0.289062,0.636719 -0.515625,0.90625 -0.230469,0.261719 -0.46875,0.492188 -0.71875,0.6875 -0.25,0.199219 -0.492187,0.367188 -0.71875,0.5 -0.230469,0.136719 -0.40625,0.242188 -0.53125,0.3125 C 4.273438,-1.914062 3.875,-1.742188 3.40625,-1.578125 2.945312,-1.410156 2.460938,-1.332031 1.953125,-1.34375 1.453125,-1.351562 0.945312,-1.5 0.4375,-1.78125 -0.0703125,-2.070312 -0.539062,-2.582031 -0.96875,-3.3125 Z m 0,0"
           id="path170" />
      </g>
    </g>
  </g>
  <g
     fill="#ffffff"
     fill-opacity="1"
     id="g176"
     transform="translate(-29.157661,-25.476562)">
    <g
       transform="translate(156.10064,174.59503)"
       id="g175">
      <g
         id="g174">
        <path
           d="M 2.171875,0.6875 C 2.347656,0.570312 2.476562,0.492188 2.5625,0.453125 2.644531,0.421875 2.710938,0.382812 2.765625,0.34375 2.921875,0.226562 3.03125,0.109375 3.09375,-0.015625 3.164062,-0.148438 3.203125,-0.289062 3.203125,-0.4375 c 0,-0.15625 -0.027344,-0.316406 -0.078125,-0.484375 -0.042969,-0.164063 -0.089844,-0.332031 -0.140625,-0.5 L 2.796875,-2 -4.375,-6.34375 -3.078125,-7.265625 2.5625,-3.625 0.59375,-9.890625 l 1.09375,-0.78125 2.5,8.8125 c 0.0625,0.1875 0.125,0.398437 0.1875,0.625 0.0625,0.230469 0.085938,0.46875 0.078125,0.71875 0,0.242187 -0.058594,0.484375 -0.171875,0.734375 C 4.175781,0.46875 3.976562,0.695312 3.6875,0.90625 3.507812,1.03125 3.335938,1.140625 3.171875,1.234375 3.015625,1.335938 2.875,1.421875 2.75,1.484375 Z m 0,0"
           id="path173" />
      </g>
    </g>
  </g>
  <g
     fill="#ffffff"
     fill-opacity="1"
     id="g179"
     transform="translate(-29.157661,-25.476562)">
    <g
       transform="translate(162.66665,169.89454)"
       id="g178">
      <g
         id="g177">
        <path
           d="m -0.140625,-2.953125 c 0.21875,0.21875 0.441406,0.367187 0.671875,0.4375 0.238281,0.074219 0.472656,0.09375 0.703125,0.0625 0.238281,-0.03125 0.46875,-0.109375 0.6875,-0.234375 0.21875,-0.132812 0.421875,-0.285156 0.609375,-0.453125 0.332031,-0.289063 0.546875,-0.5625 0.640625,-0.8125 C 3.273438,-4.210938 3.316406,-4.4375 3.296875,-4.625 3.273438,-4.820312 3.210938,-4.984375 3.109375,-5.109375 3.015625,-5.242188 2.941406,-5.34375 2.890625,-5.40625 2.804688,-5.5 2.710938,-5.578125 2.609375,-5.640625 c -0.09375,-0.0625 -0.21875,-0.09375 -0.375,-0.09375 -0.148437,-0.00781 -0.335937,0.023437 -0.5625,0.09375 -0.230469,0.074219 -0.511719,0.199219 -0.84375,0.375 l -0.734375,0.40625 c -0.28125,0.167969 -0.5625,0.320313 -0.84375,0.453125 -0.289062,0.125 -0.570312,0.199219 -0.84375,0.21875 -0.269531,0.023438 -0.539062,-0.015625 -0.8125,-0.109375 -0.269531,-0.09375 -0.539062,-0.289063 -0.8125,-0.59375 -0.28125,-0.320313 -0.453125,-0.644531 -0.515625,-0.96875 -0.070313,-0.332031 -0.054687,-0.65625 0.046875,-0.96875 0.105469,-0.3125 0.261719,-0.609375 0.46875,-0.890625 0.199219,-0.289062 0.433594,-0.554688 0.703125,-0.796875 0.492187,-0.4375 0.9375,-0.726563 1.34375,-0.875 0.40625,-0.144531 0.773437,-0.203125 1.09375,-0.171875 0.320313,0.03125 0.601563,0.121094 0.84375,0.265625 0.238281,0.136719 0.441406,0.28125 0.609375,0.4375 l -0.96875,0.84375 C 0.332031,-8.085938 0.222656,-8.164062 0.078125,-8.25 -0.0546875,-8.34375 -0.21875,-8.398438 -0.40625,-8.421875 c -0.195312,-0.019531 -0.414062,0.011719 -0.65625,0.09375 -0.238281,0.074219 -0.5,0.242187 -0.78125,0.5 -0.03125,0.03125 -0.109375,0.105469 -0.234375,0.21875 -0.125,0.117187 -0.226563,0.265625 -0.3125,0.453125 -0.082031,0.179688 -0.125,0.382812 -0.125,0.609375 -0.00781,0.21875 0.089844,0.445313 0.296875,0.671875 0.179688,0.199219 0.367188,0.320312 0.5625,0.359375 0.1875,0.042969 0.390625,0.039063 0.609375,-0.015625 0.210937,-0.0625 0.429687,-0.15625 0.65625,-0.28125 0.21875,-0.132812 0.4453125,-0.273438 0.6875,-0.421875 0.351563,-0.1875 0.6875,-0.359375 1,-0.515625 0.320313,-0.15625 0.625,-0.253906 0.90625,-0.296875 0.289063,-0.039063 0.566406,-0.015625 0.828125,0.078125 0.269531,0.09375 0.539062,0.292969 0.8125,0.59375 0.269531,0.304688 0.441406,0.605469 0.515625,0.90625 0.082031,0.292969 0.109375,0.578125 0.078125,0.859375 -0.03125,0.28125 -0.109375,0.546875 -0.234375,0.796875 -0.125,0.25 -0.261719,0.476562 -0.40625,0.671875 -0.148437,0.1875 -0.28125,0.34375 -0.40625,0.46875 -0.117187,0.125 -0.199219,0.210937 -0.25,0.25 -0.429687,0.386719 -0.84375,0.671875 -1.25,0.859375 -0.40625,0.179688 -0.792969,0.273438 -1.15625,0.28125 C 0.367188,-1.269531 0.03125,-1.332031 -0.28125,-1.46875 -0.59375,-1.613281 -0.875,-1.8125 -1.125,-2.0625 Z m 0,0"
           id="path176" />
      </g>
    </g>
  </g>
  <g
     fill="#ffffff"
     fill-opacity="1"
     id="g182"
     transform="translate(-29.157661,-25.476562)">
    <g
       transform="translate(168.63922,164.42172)"
       id="g181">
      <g
         id="g180">
        <path
           d="m -4.578125,-6.390625 -1.6875,-1.5625 0.890625,-0.96875 1.6875,1.5625 1.125,-1.21875 L -1.875,-7.9375 -3,-6.71875 0.609375,-3.390625 c 0.09375,0.09375 0.1875,0.183594 0.28125,0.265625 0.101563,0.074219 0.207031,0.132812 0.3125,0.171875 0.113281,0.03125 0.226563,0.027344 0.34375,-0.015625 0.125,-0.050781 0.257813,-0.15625 0.40625,-0.3125 0.09375,-0.09375 0.175781,-0.203125 0.25,-0.328125 0.082031,-0.125 0.148437,-0.25 0.203125,-0.375 l 0.6875,0.640625 C 3.019531,-3.125 2.914062,-2.90625 2.78125,-2.6875 2.65625,-2.46875 2.515625,-2.273438 2.359375,-2.109375 2.085938,-1.816406 1.832031,-1.632812 1.59375,-1.5625 1.363281,-1.488281 1.148438,-1.476562 0.953125,-1.53125 0.753906,-1.582031 0.566406,-1.675781 0.390625,-1.8125 0.210938,-1.957031 0.0507812,-2.097656 -0.09375,-2.234375 L -3.890625,-5.75 l -0.9375,1 -0.6875,-0.640625 z m 0,0"
           id="path179" />
      </g>
    </g>
  </g>
  <g
     fill="#ffffff"
     fill-opacity="1"
     id="g185"
     transform="translate(-29.157661,-25.476562)">
    <g
       transform="translate(172.30497,160.56704)"
       id="g184">
      <g
         id="g183">
        <path
           d="M 0.390625,-7.953125 C 0.171875,-8.097656 -0.0703125,-8.238281 -0.34375,-8.375 c -0.269531,-0.132812 -0.554688,-0.21875 -0.859375,-0.25 -0.300781,-0.03125 -0.601563,0.015625 -0.90625,0.140625 -0.3125,0.117187 -0.59375,0.34375 -0.84375,0.6875 -0.300781,0.386719 -0.472656,0.757813 -0.515625,1.109375 -0.050781,0.355469 -0.023438,0.683594 0.078125,0.984375 0.105469,0.292969 0.261719,0.558594 0.46875,0.796875 0.199219,0.230469 0.398437,0.417969 0.59375,0.5625 z M 3,-7.671875 c 0.1875,0.199219 0.359375,0.445313 0.515625,0.734375 0.15625,0.292969 0.25,0.621094 0.28125,0.984375 0.039063,0.355469 0.00391,0.742187 -0.109375,1.15625 -0.117188,0.417969 -0.355469,0.867187 -0.71875,1.34375 -0.375,0.5 -0.765625,0.882813 -1.171875,1.140625 -0.398437,0.25 -0.792969,0.414062 -1.1875,0.484375 -0.386719,0.0625 -0.75,0.0625 -1.09375,0 C -0.835938,-1.898438 -1.160156,-2 -1.453125,-2.125 -1.742188,-2.25 -1.992188,-2.378906 -2.203125,-2.515625 -2.410156,-2.648438 -2.5625,-2.757812 -2.65625,-2.84375 -2.789062,-2.9375 -2.960938,-3.078125 -3.171875,-3.265625 -3.378906,-3.453125 -3.582031,-3.664062 -3.78125,-3.90625 -3.976562,-4.15625 -4.15625,-4.4375 -4.3125,-4.75 -4.46875,-5.070312 -4.5625,-5.421875 -4.59375,-5.796875 -4.625,-6.171875 -4.578125,-6.570312 -4.453125,-7 c 0.125,-0.425781 0.371094,-0.878906 0.734375,-1.359375 0.460938,-0.601563 0.933594,-1.007813 1.421875,-1.21875 0.492187,-0.207031 0.976563,-0.285156 1.453125,-0.234375 0.46875,0.042969 0.921875,0.179688 1.359375,0.40625 0.4375,0.21875 0.828125,0.445312 1.171875,0.671875 0.039062,0.03125 0.085938,0.070313 0.140625,0.109375 0.0625,0.03125 0.117187,0.0625 0.171875,0.09375 l -3.578125,4.75 c 0.261719,0.199219 0.558594,0.367188 0.890625,0.5 0.324219,0.125 0.6523438,0.199219 0.984375,0.21875 0.332031,0.023438 0.664063,-0.035156 1,-0.171875 0.332031,-0.144531 0.632813,-0.394531 0.90625,-0.75 0.1875,-0.25 0.320313,-0.5 0.40625,-0.75 0.09375,-0.25 0.132813,-0.488281 0.125,-0.71875 C 2.722656,-5.679688 2.671875,-5.894531 2.578125,-6.09375 2.492188,-6.300781 2.375,-6.484375 2.21875,-6.640625 Z m 0,0"
           id="path182" />
      </g>
    </g>
  </g>
  <g
     fill="#ffffff"
     fill-opacity="1"
     id="g188"
     transform="translate(-29.157661,-25.476562)">
    <g
       transform="translate(178.08226,153.12763)"
       id="g187">
      <g
         id="g186">
        <path
           d="M -5.6875,-5.734375 -4.765625,-5.25 -4.6875,-5.1875 c -0.15625,-0.195312 -0.269531,-0.410156 -0.34375,-0.640625 -0.070312,-0.238281 -0.113281,-0.484375 -0.125,-0.734375 -0.00781,-0.25 0.011719,-0.492188 0.0625,-0.734375 0.042969,-0.238281 0.121094,-0.46875 0.234375,-0.6875 0.15625,-0.289063 0.339844,-0.519531 0.546875,-0.6875 0.199219,-0.175781 0.40625,-0.304687 0.625,-0.390625 0.21875,-0.082031 0.445312,-0.128906 0.671875,-0.140625 0.230469,-0.019531 0.449219,-0.00391 0.65625,0.046875 -0.09375,-0.125 -0.1875,-0.289062 -0.28125,-0.5 -0.101563,-0.21875 -0.1875,-0.457031 -0.25,-0.71875 -0.0625,-0.269531 -0.070313,-0.566406 -0.03125,-0.890625 0.03125,-0.320313 0.148437,-0.664063 0.34375,-1.03125 0.273437,-0.507813 0.589844,-0.859375 0.953125,-1.046875 0.367188,-0.1875 0.730469,-0.273438 1.09375,-0.265625 0.367188,0.01172 0.703125,0.08594 1.015625,0.21875 0.320313,0.125 0.582031,0.242187 0.78125,0.34375 l 4.390625,2.3125 -0.625,1.1875 -4.328125,-2.28125 c -0.179687,-0.09375 -0.386719,-0.1875 -0.625,-0.28125 -0.226563,-0.101563 -0.460937,-0.160156 -0.703125,-0.171875 -0.238281,-0.0078 -0.472656,0.03906 -0.703125,0.140625 -0.226563,0.105469 -0.421875,0.308594 -0.578125,0.609375 -0.101562,0.1875 -0.179688,0.40625 -0.234375,0.65625 -0.050781,0.25 -0.039063,0.507812 0.03125,0.765625 0.0625,0.261719 0.210937,0.527344 0.4375,0.796875 0.21875,0.261719 0.554687,0.507812 1,0.734375 l 4.0625,2.140625 -0.609375,1.171875 -4.3125,-2.265625 c -0.25,-0.132812 -0.5,-0.242188 -0.75,-0.328125 -0.25,-0.082031 -0.488281,-0.117187 -0.71875,-0.109375 -0.238281,0 -0.457031,0.054688 -0.65625,0.15625 -0.195312,0.105469 -0.367188,0.296875 -0.515625,0.578125 -0.125,0.242187 -0.191406,0.496094 -0.203125,0.765625 -0.00781,0.273438 0.039062,0.542969 0.140625,0.8125 0.09375,0.261719 0.25,0.511719 0.46875,0.75 0.21875,0.242188 0.496094,0.449219 0.828125,0.625 l 4.0625,2.140625 -0.609375,1.171875 -6.8125,-3.59375 z m 0,0"
           id="path185" />
      </g>
    </g>
  </g>
  <g
     fill="#ffffff"
     fill-opacity="1"
     id="g191"
     transform="translate(-29.157661,-25.476562)">
    <g
       transform="translate(184.33947,140.67328)"
       id="g190">
      <g
         id="g189">
        <path
           d="m -1.5625,-2.53125 c 0.292969,0.105469 0.558594,0.132812 0.796875,0.078125 0.242187,-0.050781 0.460937,-0.148437 0.65625,-0.296875 0.1875,-0.144531 0.34375,-0.320312 0.46875,-0.53125 C 0.492188,-3.5 0.597656,-3.722656 0.671875,-3.953125 0.816406,-4.378906 0.867188,-4.726562 0.828125,-5 0.796875,-5.269531 0.722656,-5.484375 0.609375,-5.640625 0.492188,-5.796875 0.363281,-5.90625 0.21875,-5.96875 0.0703125,-6.039062 -0.0390625,-6.085938 -0.125,-6.109375 -0.238281,-6.148438 -0.351562,-6.175781 -0.46875,-6.1875 c -0.113281,-0.00781 -0.238281,0.015625 -0.375,0.078125 -0.132812,0.0625 -0.285156,0.183594 -0.453125,0.359375 -0.164063,0.179688 -0.347656,0.429688 -0.546875,0.75 l -0.4375,0.703125 c -0.164062,0.292969 -0.335938,0.570313 -0.515625,0.828125 -0.1875,0.25 -0.394531,0.449219 -0.625,0.59375 -0.226563,0.148438 -0.484375,0.246094 -0.765625,0.296875 -0.289062,0.042969 -0.628906,0 -1.015625,-0.125 -0.40625,-0.144531 -0.710937,-0.34375 -0.921875,-0.59375 -0.21875,-0.25 -0.359375,-0.535156 -0.421875,-0.859375 -0.0625,-0.332031 -0.070313,-0.671875 -0.03125,-1.015625 0.042969,-0.351563 0.121094,-0.695313 0.234375,-1.03125 0.210938,-0.613281 0.453125,-1.082031 0.734375,-1.40625 0.28125,-0.332031 0.574219,-0.5625 0.875,-0.6875 0.304687,-0.132813 0.59375,-0.195313 0.875,-0.1875 0.273437,0 0.515625,0.027344 0.734375,0.078125 l -0.421875,1.21875 c -0.113281,-0.039062 -0.25,-0.0625 -0.40625,-0.0625 -0.164063,0 -0.335937,0.039062 -0.515625,0.109375 C -4.65625,-7.066406 -4.832031,-6.9375 -5,-6.75 c -0.164062,0.179688 -0.3125,0.449219 -0.4375,0.8125 -0.00781,0.042969 -0.039062,0.148438 -0.09375,0.3125 -0.050781,0.15625 -0.066406,0.339844 -0.046875,0.546875 0.011719,0.199219 0.074219,0.398437 0.1875,0.59375 0.105469,0.199219 0.296875,0.34375 0.578125,0.4375 0.261719,0.09375 0.484375,0.117187 0.671875,0.0625 0.1875,-0.0625 0.359375,-0.171875 0.515625,-0.328125 0.148438,-0.15625 0.292969,-0.34375 0.4375,-0.5625 0.136719,-0.226562 0.273438,-0.46875 0.40625,-0.71875 0.21875,-0.332031 0.433594,-0.640625 0.640625,-0.921875 0.199219,-0.289063 0.414063,-0.523437 0.640625,-0.703125 0.21875,-0.1875 0.476562,-0.300781 0.765625,-0.34375 0.28125,-0.050781 0.609375,-0.00781 0.984375,0.125 0.375,0.125 0.671875,0.296875 0.890625,0.515625 0.21875,0.21875 0.378906,0.464844 0.484375,0.734375 0.113281,0.261719 0.175781,0.53125 0.1875,0.8125 0.019531,0.273438 0.00781,0.53125 -0.03125,0.78125 -0.03125,0.242188 -0.074219,0.445312 -0.125,0.609375 -0.042969,0.167969 -0.074219,0.28125 -0.09375,0.34375 -0.1875,0.542969 -0.417969,0.992187 -0.6875,1.34375 -0.261719,0.355469 -0.546875,0.625 -0.859375,0.8125 C -0.296875,-1.296875 -0.625,-1.1875 -0.96875,-1.15625 -1.3125,-1.125 -1.65625,-1.160156 -2,-1.265625 Z m 0,0"
           id="path188" />
      </g>
    </g>
  </g>
  <g
     fill="#ffffff"
     fill-opacity="1"
     id="g194"
     transform="translate(-29.157661,-25.476562)">
    <g
       transform="translate(186.85373,133.02105)"
       id="g193">
      <g
         id="g192" />
    </g>
  </g>
  <g
     fill="#ffffff"
     fill-opacity="1"
     id="g197"
     transform="translate(-29.157661,-25.476562)">
    <g
       transform="translate(188.01978,129.13828)"
       id="g196">
      <g
         id="g195">
        <path
           d="M -4.0625,-11.015625 1.421875,-10.25 1.265625,-9.140625 -0.4375,-9.375 v 0.03125 c 0.582031,0.375 1.007812,0.890625 1.28125,1.546875 0.28125,0.648437 0.363281,1.386719 0.25,2.21875 -0.09375,0.636719 -0.277344,1.242187 -0.546875,1.8125 -0.273437,0.5625 -0.660156,1.042969 -1.171875,1.4375 -0.519531,0.398437 -1.160156,0.683594 -1.921875,0.859375 -0.769531,0.167969 -1.679687,0.179688 -2.734375,0.03125 -0.882812,-0.113281 -1.648438,-0.335938 -2.296875,-0.671875 -0.65625,-0.332031 -1.179687,-0.753906 -1.578125,-1.265625 -0.394531,-0.519531 -0.664062,-1.109375 -0.8125,-1.765625 -0.144531,-0.664063 -0.160156,-1.390625 -0.046875,-2.171875 0.09375,-0.707031 0.277344,-1.304688 0.546875,-1.796875 0.261719,-0.488281 0.578125,-0.878906 0.953125,-1.171875 0.367187,-0.300781 0.765625,-0.519531 1.203125,-0.65625 0.4375,-0.132812 0.875,-0.203125 1.3125,-0.203125 l -0.203125,1.421875 c -0.238281,-0.00781 -0.5,0.015625 -0.78125,0.078125 -0.28125,0.0625 -0.539063,0.195313 -0.78125,0.390625 -0.25,0.1875 -0.472656,0.453125 -0.671875,0.796875 -0.195312,0.34375 -0.332031,0.789063 -0.40625,1.328125 -0.070312,0.554688 -0.054688,1.039062 0.046875,1.453125 0.105469,0.417969 0.265625,0.78125 0.484375,1.09375 0.21875,0.304687 0.480469,0.558594 0.78125,0.765625 0.304688,0.199219 0.609375,0.359375 0.921875,0.484375 0.304687,0.117187 0.59375,0.203125 0.875,0.265625 0.28125,0.0625 0.515625,0.109375 0.703125,0.140625 0.136719,0.023437 0.34375,0.042969 0.625,0.0625 0.273438,0.011719 0.574219,0 0.90625,-0.03125 0.335938,-0.03125 0.6875,-0.097656 1.0625,-0.203125 0.367188,-0.101562 0.714844,-0.269531 1.046875,-0.5 C -1.066406,-3.832031 -0.78125,-4.132812 -0.53125,-4.5 -0.289062,-4.863281 -0.132812,-5.328125 -0.0625,-5.890625 0.03125,-6.546875 -0.0078125,-7.09375 -0.1875,-7.53125 -0.375,-7.976562 -0.625,-8.34375 -0.9375,-8.625 -1.25,-8.90625 -1.601562,-9.117188 -2,-9.265625 -2.394531,-9.421875 -2.75,-9.519531 -3.0625,-9.5625 l -0.40625,3.015625 -1.1875,-0.171875 z m 0,0"
           id="path194" />
      </g>
    </g>
  </g>
  <g
     fill="#ffffff"
     fill-opacity="1"
     id="g200"
     transform="translate(-29.157661,-25.476562)">
    <g
       transform="translate(189.69368,117.16882)"
       id="g199">
      <g
         id="g198">
        <path
           d="m -7.8125,-2.09375 1.046875,-0.046875 0.09375,0.015625 c -0.226563,-0.09375 -0.4375,-0.21875 -0.625,-0.375 -0.1875,-0.164062 -0.34375,-0.351562 -0.46875,-0.5625 -0.132813,-0.207031 -0.238281,-0.429688 -0.3125,-0.671875 -0.082031,-0.238281 -0.128906,-0.476563 -0.140625,-0.71875 -0.019531,-0.332031 0.015625,-0.625 0.109375,-0.875 0.085937,-0.257813 0.203125,-0.476563 0.359375,-0.65625 0.148438,-0.1875 0.320312,-0.34375 0.515625,-0.46875 0.1875,-0.125 0.382813,-0.210937 0.578125,-0.265625 -0.15625,-0.0625 -0.328125,-0.160156 -0.515625,-0.296875 -0.195313,-0.132813 -0.382813,-0.300781 -0.5625,-0.5 -0.1875,-0.207031 -0.34375,-0.457031 -0.46875,-0.75 C -8.335938,-8.554688 -8.414062,-8.90625 -8.4375,-9.3125 c -0.019531,-0.582031 0.085938,-1.046875 0.3125,-1.390625 0.21875,-0.34375 0.492188,-0.597656 0.8125,-0.765625 0.3125,-0.175781 0.640625,-0.289062 0.984375,-0.34375 0.335937,-0.05078 0.609375,-0.08203 0.828125,-0.09375 l 4.96875,-0.21875 0.0625,1.34375 -4.890625,0.21875 c -0.195313,0 -0.421875,0.02344 -0.671875,0.0625 -0.257812,0.04297 -0.492188,0.117188 -0.703125,0.21875 -0.21875,0.105469 -0.394531,0.261719 -0.53125,0.46875 -0.144531,0.210938 -0.210937,0.484375 -0.203125,0.828125 0.011719,0.21875 0.058594,0.449219 0.140625,0.6875 0.074219,0.230469 0.210937,0.4375 0.40625,0.625 0.199219,0.1875 0.460937,0.339844 0.78125,0.453125 0.324219,0.117188 0.734375,0.164062 1.234375,0.140625 l 4.59375,-0.203125 0.046875,1.328125 -4.875,0.21875 C -5.421875,-5.722656 -5.6875,-5.691406 -5.9375,-5.640625 -6.195312,-5.585938 -6.425781,-5.5 -6.625,-5.375 c -0.195312,0.125 -0.351562,0.289062 -0.46875,0.484375 -0.125,0.1875 -0.175781,0.4375 -0.15625,0.75 0.011719,0.273437 0.078125,0.527344 0.203125,0.765625 0.125,0.242188 0.296875,0.449219 0.515625,0.625 0.21875,0.179688 0.484375,0.3125 0.796875,0.40625 0.3125,0.09375 0.65625,0.136719 1.03125,0.125 l 4.59375,-0.203125 0.0625,1.328125 L -7.75,-0.765625 Z m 0,0"
           id="path197" />
      </g>
    </g>
  </g>
  <g
     fill="#ffffff"
     fill-opacity="1"
     id="g203"
     transform="translate(-29.157661,-25.476562)">
    <g
       transform="translate(188.85433,103.20207)"
       id="g202">
      <g
         id="g201">
        <path
           d="m -4.3125,-1.484375 c 0.605469,-0.125 1.09375,-0.289063 1.46875,-0.5 0.375,-0.21875 0.667969,-0.457031 0.875,-0.71875 C -1.757812,-2.972656 -1.628906,-3.25 -1.578125,-3.53125 -1.523438,-3.820312 -1.53125,-4.113281 -1.59375,-4.40625 -1.65625,-4.707031 -1.769531,-4.992188 -1.9375,-5.265625 -2.113281,-5.535156 -2.347656,-5.75 -2.640625,-5.90625 c -0.289063,-0.164062 -0.648437,-0.269531 -1.078125,-0.3125 -0.4375,-0.050781 -0.953125,-0.015625 -1.546875,0.109375 -0.550781,0.125 -1.015625,0.292969 -1.390625,0.5 -0.375,0.210937 -0.660156,0.445313 -0.859375,0.703125 -0.207031,0.261719 -0.335937,0.542969 -0.390625,0.84375 -0.050781,0.304688 -0.046875,0.609375 0.015625,0.921875 0.074219,0.3125 0.199219,0.601563 0.375,0.859375 0.167969,0.25 0.398437,0.460938 0.6875,0.625 0.292969,0.15625 0.652344,0.257812 1.078125,0.296875 0.429688,0.03125 0.90625,-0.00781 1.4375,-0.125 z m -6.578125,1.3125 3.828125,-0.8125 c -0.488281,-0.113281 -0.882812,-0.375 -1.1875,-0.78125 -0.300781,-0.40625 -0.507812,-0.882813 -0.625,-1.4375 -0.113281,-0.539063 -0.128906,-1.015625 -0.046875,-1.421875 0.074219,-0.414062 0.210937,-0.773438 0.40625,-1.078125 0.1875,-0.300781 0.421875,-0.5625 0.703125,-0.78125 C -7.539062,-6.703125 -7.257812,-6.875 -6.96875,-7 c 0.28125,-0.132812 0.554688,-0.238281 0.8125,-0.3125 0.261719,-0.070312 0.464844,-0.128906 0.609375,-0.171875 0.835937,-0.164063 1.539063,-0.191406 2.109375,-0.078125 0.574219,0.117188 1.046875,0.3125 1.421875,0.59375 0.375,0.28125 0.667969,0.617188 0.875,1 0.199219,0.375 0.335937,0.734375 0.40625,1.078125 0.074219,0.3125 0.101563,0.605469 0.078125,0.875 -0.019531,0.273437 -0.066406,0.523437 -0.140625,0.75 -0.082031,0.230469 -0.1875,0.445313 -0.3125,0.640625 -0.125,0.1875 -0.269531,0.359375 -0.4375,0.515625 l 0.015625,0.03125 1.046875,-0.21875 0.25,1.234375 L -10.625,1.140625 Z m 0,0"
           id="path200" />
      </g>
    </g>
  </g>
  <g
     fill="#ffffff"
     fill-opacity="1"
     id="g206"
     transform="translate(-29.157661,-25.476562)">
    <g
       transform="translate(186.82718,93.602883)"
       id="g205">
      <g
         id="g204">
        <path
           d="m -0.953125,-2.546875 0.5,1.328125 -9.953125,3.703125 -0.5,-1.328125 4.15625,-1.546875 -1.859375,-5.015625 -4.15625,1.546875 -0.5,-1.328125 9.953125,-3.703125 0.5,1.328125 -4.671875,1.734375 L -5.625,-0.8125 Z m 0,0"
           id="path203" />
      </g>
    </g>
  </g>
  <g
     fill="#ffffff"
     fill-opacity="1"
     id="g209"
     transform="translate(-29.157661,-25.476562)">
    <g
       transform="translate(182.70449,83.137208)"
       id="g208">
      <g
         id="g207" />
    </g>
  </g>
  <g
     fill="#ffffff"
     fill-opacity="1"
     id="g212"
     transform="translate(-29.157661,-25.476562)">
    <g
       transform="translate(181.01648,79.762111)"
       id="g211">
      <g
         id="g210" />
    </g>
  </g>
  <g
     fill="#ffffff"
     fill-opacity="1"
     id="g215"
     transform="translate(-29.157661,-25.476562)">
    <g
       transform="translate(179.15415,76.479959)"
       id="g214">
      <g
         id="g213" />
    </g>
  </g>
</svg>
