<?xml version="1.0" encoding="UTF-8" standalone="no"?>
<svg
   width="230.875"
   zoomAndPan="magnify"
   viewBox="0 0 173.06389 173.16015"
   height="230.8802"
   preserveAspectRatio="xMidYMid"
   version="1.0"
   id="svg230"
   sodipodi:docname="Project-Reference-Kelvion-AirDryer-2.0-EN.svg"
   inkscape:version="1.4.2 (ebf0e940, 2025-05-08)"
   xmlns:inkscape="http://www.inkscape.org/namespaces/inkscape"
   xmlns:sodipodi="http://sodipodi.sourceforge.net/DTD/sodipodi-0.dtd"
   xmlns="http://www.w3.org/2000/svg"
   xmlns:svg="http://www.w3.org/2000/svg">
  <sodipodi:namedview
     id="namedview230"
     pagecolor="#ffffff"
     bordercolor="#000000"
     borderopacity="0.25"
     inkscape:showpageshadow="2"
     inkscape:pageopacity="0.0"
     inkscape:pagecheckerboard="0"
     inkscape:deskcolor="#d1d1d1"
     showgrid="false"
     inkscape:zoom="2.3366667"
     inkscape:cx="110.84165"
     inkscape:cy="116.19116"
     inkscape:window-width="1512"
     inkscape:window-height="920"
     inkscape:window-x="0"
     inkscape:window-y="34"
     inkscape:window-maximized="1"
     inkscape:current-layer="svg230" />
  <defs
     id="defs3">
    <g
       id="g1" />
    <clipPath
       id="8060c67e17">
      <path
         d="M 0,0.0585938 H 224.76172 V 224.9375 H 0 Z m 0,0"
         clip-rule="nonzero"
         id="path1" />
    </clipPath>
    <clipPath
       id="9bcbbe2c62">
      <path
         d="M 29.097656,25.476562 H 202.25391 V 198.63672 H 29.097656 Z m 0,0"
         clip-rule="nonzero"
         id="path2" />
    </clipPath>
    <clipPath
       id="d15081df88">
      <path
         d="M 67.511719,63.089844 H 165.70703 V 161.28906 H 67.511719 Z m 0,0"
         clip-rule="nonzero"
         id="path3" />
    </clipPath>
  </defs>
  <g
     clip-path="url(#9bcbbe2c62)"
     id="g4"
     transform="translate(-29.157661,-25.476562)">
    <path
       fill="#38b6ff"
       d="m 202.38281,112.12109 c 0,1.41797 -0.0352,2.83594 -0.10547,4.25391 -0.0703,1.41406 -0.17187,2.82813 -0.3125,4.23828 -0.14062,1.41406 -0.3125,2.82031 -0.51953,4.22266 -0.20703,1.40234 -0.45312,2.79687 -0.72656,4.1875 -0.27734,1.39062 -0.58984,2.77343 -0.93359,4.15234 -0.34375,1.375 -0.72266,2.73828 -1.13282,4.09766 -0.41406,1.35547 -0.85547,2.70312 -1.33593,4.03906 -0.47657,1.33203 -0.98829,2.65625 -1.53125,3.96484 -0.53907,1.3125 -1.11719,2.60547 -1.72266,3.89063 -0.60547,1.28125 -1.24219,2.54687 -1.91016,3.79687 -0.66797,1.25 -1.36718,2.48438 -2.09765,3.69922 -0.72657,1.21875 -1.48828,2.41406 -2.27344,3.59375 -0.78906,1.17969 -1.60547,2.33985 -2.44922,3.47656 -0.84375,1.14063 -1.71875,2.25782 -2.61719,3.35157 -0.89843,1.09765 -1.82422,2.17187 -2.77734,3.22265 -0.95313,1.05078 -1.92969,2.07813 -2.93359,3.07813 -1,1.0039 -2.02735,1.98047 -3.07813,2.93359 -1.05078,0.95313 -2.125,1.87891 -3.22266,2.77735 -1.09375,0.89843 -2.21093,1.77343 -3.35156,2.61718 -1.13672,0.84375 -2.29687,1.66016 -3.47656,2.44922 -1.17969,0.78516 -2.375,1.54688 -3.59375,2.27344 -1.21484,0.73047 -2.44922,1.42969 -3.69922,2.09766 -1.25,0.66796 -2.51562,1.30468 -3.79687,1.91015 -1.28516,0.60547 -2.57813,1.17969 -3.89063,1.72266 -1.30859,0.54297 -2.63281,1.05469 -3.96484,1.53125 -1.33594,0.48047 -2.6836,0.92187 -4.03907,1.33594 -1.35546,0.41015 -2.72265,0.78906 -4.09765,1.13281 -1.375,0.34375 -2.76172,0.65625 -4.15235,0.93359 -1.39062,0.27344 -2.78515,0.51563 -4.1875,0.72656 -1.40234,0.20704 -2.80859,0.37891 -4.22265,0.51954 -1.41016,0.14062 -2.82422,0.24218 -4.23828,0.3125 -1.41797,0.0703 -2.83594,0.10546 -4.25391,0.10546 -1.41797,0 -2.83594,-0.0352 -4.25,-0.10546 -1.41797,-0.0703 -2.83203,-0.17188 -4.24219,-0.3125 -1.41015,-0.14063 -2.8164,-0.3125 -4.21875,-0.51954 -1.40234,-0.21093 -2.80078,-0.45312 -4.191402,-0.72656 -1.390626,-0.27734 -2.773438,-0.58984 -4.148438,-0.93359 -1.375,-0.34375 -2.742188,-0.72266 -4.101562,-1.13281 -1.355469,-0.41407 -2.699219,-0.85547 -4.035157,-1.33594 -1.335937,-0.47656 -2.660156,-0.98828 -3.96875,-1.53125 -1.308593,-0.54297 -2.605469,-1.11719 -3.886719,-1.72266 -1.28125,-0.60547 -2.550781,-1.24219 -3.800781,-1.91015 -1.25,-0.66797 -2.484375,-1.36719 -3.699219,-2.09766 -1.214843,-0.72656 -2.414062,-1.48828 -3.59375,-2.27344 -1.179687,-0.78906 -2.335937,-1.60547 -3.476562,-2.44922 -1.136719,-0.84375 -2.253906,-1.71875 -3.351562,-2.61718 -1.097657,-0.89844 -2.167969,-1.82422 -3.21875,-2.77735 -1.050782,-0.95312 -2.078126,-1.92969 -3.082032,-2.93359 -1.003906,-1 -1.980468,-2.02735 -2.933594,-3.07813 -0.949218,-1.05078 -1.875,-2.125 -2.777343,-3.22265 -0.898438,-1.09375 -1.769531,-2.21094 -2.613281,-3.35157 -0.847657,-1.13671 -1.664063,-2.29687 -2.449219,-3.47656 -0.789063,-1.17969 -1.546875,-2.375 -2.277344,-3.59375 -0.726563,-1.21484 -1.425781,-2.44922 -2.09375,-3.69922 -0.671875,-1.25 -1.308594,-2.51562 -1.914063,-3.79687 -0.605468,-1.28516 -1.179687,-2.57813 -1.722656,-3.89063 -0.542968,-1.30859 -1.054687,-2.63281 -1.53125,-3.96484 -0.476562,-1.33594 -0.921875,-2.68359 -1.332031,-4.03906 -0.414063,-1.35938 -0.792969,-2.72266 -1.136719,-4.09766 -0.34375,-1.37891 -0.652344,-2.76172 -0.929687,-4.15234 -0.277344,-1.39063 -0.519531,-2.78516 -0.726563,-4.1875 -0.210937,-1.40235 -0.382812,-2.8125 -0.523437,-4.22266 -0.136719,-1.41015 -0.242188,-2.82422 -0.3125,-4.23828 -0.07031,-1.41797 -0.101563,-2.83594 -0.101563,-4.25391 0,-1.41796 0.03125,-2.83593 0.101563,-4.25 0.07031,-1.41796 0.175781,-2.83203 0.3125,-4.24218 0.140625,-1.41016 0.3125,-2.81641 0.523437,-4.218754 0.207032,-1.402344 0.449219,-2.800781 0.726563,-4.191406 0.277343,-1.390625 0.585937,-2.773438 0.929687,-4.148438 0.34375,-1.375 0.722656,-2.742187 1.136719,-4.101562 0.410156,-1.355469 0.855469,-2.699219 1.332031,-4.035156 0.476563,-1.335938 0.988282,-2.660156 1.53125,-3.96875 0.542969,-1.308594 1.117188,-2.605469 1.722656,-3.886719 0.605469,-1.28125 1.242188,-2.550781 1.914063,-3.800781 0.667969,-1.25 1.367187,-2.484375 2.09375,-3.699219 0.730469,-1.214844 1.488281,-2.414063 2.277344,-3.59375 0.785156,-1.179687 1.601562,-2.335937 2.449219,-3.476563 0.84375,-1.136718 1.714843,-2.253906 2.613281,-3.351562 0.902343,-1.097656 1.828125,-2.167969 2.777343,-3.21875 0.953126,-1.050781 1.929688,-2.078125 2.933594,-3.082031 1.003906,-1.003907 2.03125,-1.980469 3.082032,-2.933594 1.050781,-0.949219 2.121093,-1.875 3.21875,-2.777344 1.097656,-0.898437 2.214843,-1.769531 3.351562,-2.617187 1.140625,-0.84375 2.296875,-1.660156 3.476562,-2.445313 1.179688,-0.789062 2.378907,-1.546875 3.59375,-2.277343 1.214844,-0.726563 2.449219,-1.425782 3.699219,-2.09375 1.25,-0.671876 2.519531,-1.308594 3.800781,-1.914063 1.28125,-0.605469 2.578126,-1.179687 3.886719,-1.722656 1.308594,-0.542969 2.632813,-1.054688 3.96875,-1.53125 1.335938,-0.476563 2.679688,-0.921875 4.035157,-1.332031 1.359374,-0.414063 2.726562,-0.792969 4.101562,-1.136719 1.375,-0.34375 2.757812,-0.652344 4.148438,-0.929688 1.390622,-0.277343 2.789062,-0.519531 4.191402,-0.726562 1.40235,-0.210938 2.8086,-0.382813 4.21875,-0.523438 1.41016,-0.136719 2.82422,-0.242187 4.24219,-0.3125 1.41406,-0.07031 2.83203,-0.105469 4.25,-0.105469 1.41797,0 2.83594,0.03516 4.25391,0.105469 1.41406,0.07031 2.82812,0.175781 4.23828,0.3125 1.41406,0.140625 2.82031,0.3125 4.22265,0.523438 1.40235,0.207031 2.79688,0.449219 4.1875,0.726562 1.39063,0.277344 2.77735,0.585938 4.15235,0.929688 1.375,0.34375 2.74219,0.722656 4.09765,1.136719 1.35547,0.410156 2.70313,0.855468 4.03907,1.332031 1.33203,0.476562 2.65625,0.988281 3.96484,1.53125 1.3125,0.542969 2.60938,1.117187 3.89063,1.722656 1.28125,0.605469 2.54687,1.242187 3.79687,1.914063 1.25,0.667968 2.48438,1.367187 3.69922,2.09375 1.21875,0.730468 2.41406,1.488281 3.59375,2.277343 1.17969,0.785157 2.33984,1.601563 3.47656,2.445313 1.14063,0.847656 2.25781,1.71875 3.35156,2.617187 1.09766,0.902344 2.17188,1.828125 3.22266,2.777344 1.05078,0.953125 2.07813,1.929687 3.07813,2.933594 1.0039,1.003906 1.98046,2.03125 2.93359,3.082031 0.95312,1.050781 1.87891,2.121094 2.77734,3.21875 0.89844,1.097656 1.77344,2.214844 2.61719,3.351562 0.84375,1.140626 1.66016,2.296876 2.44922,3.476563 0.78516,1.179687 1.54687,2.378906 2.27344,3.59375 0.73047,1.214844 1.42968,2.449219 2.09765,3.699219 0.66797,1.25 1.30469,2.519531 1.91016,3.800781 0.60547,1.28125 1.18359,2.578125 1.72266,3.886719 0.54296,1.308594 1.05468,2.632812 1.53125,3.96875 0.48046,1.335937 0.92187,2.679687 1.33593,4.035156 0.41016,1.359375 0.78907,2.726562 1.13282,4.101562 0.34375,1.375 0.65625,2.757813 0.93359,4.148438 0.27344,1.390625 0.51953,2.789062 0.72656,4.191406 0.20703,1.402344 0.37891,2.808594 0.51953,4.218754 0.14063,1.41015 0.24219,2.82422 0.3125,4.24218 0.0703,1.41407 0.10547,2.83204 0.10547,4.25 z m 0,0"
       fill-opacity="1"
       fill-rule="nonzero"
       id="path4" />
  </g>
  <g
     clip-path="url(#d15081df88)"
     id="g5"
     transform="translate(-29.157661,-25.476562)">
    <path
       fill="#000000"
       d="m 165.57812,112.125 c 0,1.60547 -0.0781,3.20703 -0.23437,4.80859 -0.15625,1.59766 -0.39453,3.1836 -0.70703,4.75782 -0.3125,1.57422 -0.70313,3.13281 -1.16797,4.66797 -0.46484,1.53906 -1.00781,3.04687 -1.62109,4.53124 -0.61329,1.48438 -1.30079,2.9336 -2.0586,4.35157 -0.75781,1.41406 -1.58203,2.78906 -2.47265,4.125 -0.89063,1.33593 -1.84766,2.625 -2.86719,3.86718 -1.01953,1.23829 -2.09375,2.42969 -3.23047,3.5625 -1.13672,1.13672 -2.32422,2.21485 -3.56641,3.23438 -1.24218,1.01562 -2.53125,1.97266 -3.86328,2.86328 -1.33594,0.89453 -2.71094,1.71875 -4.1289,2.47656 -1.41797,0.75782 -2.86719,1.44141 -4.35157,2.05469 -1.48047,0.61719 -2.99218,1.15625 -4.52734,1.62109 -1.53906,0.46875 -3.09375,0.85938 -4.66797,1.17188 -1.57812,0.3125 -3.16406,0.54687 -4.76172,0.70703 -1.59765,0.15625 -3.19922,0.23438 -4.80468,0.23438 -1.60547,0 -3.21094,-0.0781 -4.8086,-0.23438 -1.59765,-0.16016 -3.18359,-0.39453 -4.75781,-0.70703 -1.57813,-0.3125 -3.13281,-0.70313 -4.66797,-1.17188 -1.53906,-0.46484 -3.046875,-1.0039 -4.53125,-1.62109 -1.484375,-0.61328 -2.933594,-1.29687 -4.351562,-2.05469 -1.414063,-0.75781 -2.789063,-1.58203 -4.125,-2.47656 -1.335938,-0.89062 -2.625,-1.84766 -3.867188,-2.86328 -1.242188,-1.01953 -2.429688,-2.09766 -3.566406,-3.23438 -1.132813,-1.13281 -2.210938,-2.32421 -3.230469,-3.5625 -1.019531,-1.24218 -1.972656,-2.53125 -2.867187,-3.86718 -0.890626,-1.33594 -1.714844,-2.71094 -2.472657,-4.125 -0.757812,-1.41797 -1.441406,-2.86719 -2.058593,-4.35157 -0.613282,-1.48437 -1.152344,-2.99218 -1.621094,-4.53124 -0.464844,-1.53516 -0.855469,-3.09375 -1.167969,-4.66797 -0.3125,-1.57422 -0.546875,-3.16016 -0.707031,-4.75782 -0.15625,-1.60156 -0.234375,-3.20312 -0.234375,-4.80859 0,-1.60547 0.07813,-3.20703 0.234375,-4.80469 0.160156,-1.59765 0.394531,-3.1875 0.707031,-4.76172 0.3125,-1.57421 0.703125,-3.128902 1.167969,-4.667965 0.46875,-1.535156 1.007812,-3.046875 1.621094,-4.53125 0.617187,-1.480469 1.300781,-2.933594 2.058593,-4.347656 0.757813,-1.417969 1.582031,-2.792969 2.472657,-4.128907 0.894531,-1.335937 1.847656,-2.621093 2.867187,-3.863281 1.019531,-1.242187 2.097656,-2.429687 3.230469,-3.566406 1.136718,-1.136719 2.324218,-2.210937 3.566406,-3.230469 1.242188,-1.019531 2.53125,-1.976562 3.867188,-2.867187 1.335937,-0.890625 2.710937,-1.71875 4.125,-2.472657 1.417968,-0.757812 2.867187,-1.445312 4.351562,-2.058593 1.484375,-0.613281 2.99219,-1.15625 4.53125,-1.621094 1.53516,-0.464844 3.08984,-0.855469 4.66797,-1.167969 1.57422,-0.316406 3.16016,-0.550781 4.75781,-0.707031 1.59766,-0.15625 3.20313,-0.238281 4.8086,-0.238281 1.60546,0 3.20703,0.08203 4.80468,0.238281 1.59766,0.15625 3.1836,0.390625 4.76172,0.707031 1.57422,0.3125 3.12891,0.703125 4.66797,1.167969 1.53516,0.464844 3.04687,1.007813 4.52734,1.621094 1.48438,0.613281 2.9336,1.300781 4.35157,2.058593 1.41796,0.753907 2.79296,1.582032 4.1289,2.472657 1.33203,0.890625 2.6211,1.847656 3.86328,2.867187 1.24219,1.019532 2.42969,2.09375 3.56641,3.230469 1.13672,1.136719 2.21094,2.324219 3.23047,3.566406 1.01953,1.242188 1.97656,2.527344 2.86719,3.863281 0.89062,1.335938 1.71484,2.710938 2.47265,4.128907 0.75781,1.414062 1.44531,2.867187 2.0586,4.347656 0.61328,1.484375 1.15625,2.996094 1.62109,4.53125 0.46484,1.539063 0.85547,3.093755 1.16797,4.667965 0.3125,1.57422 0.55078,3.16407 0.70703,4.76172 0.15625,1.59766 0.23437,3.19922 0.23437,4.80469 z m 0,0"
       fill-opacity="1"
       fill-rule="nonzero"
       id="path5" />
  </g>
  <g
     fill="#ffffff"
     fill-opacity="1"
     id="g8"
     transform="translate(-29.157661,-25.476562)">
    <g
       transform="translate(88.30129,96.829792)"
       id="g7">
      <g
         id="g6">
        <path
           d="M 1.980469,-7.988281 V -9.074219 H 0.894531 v 1.085938 z M 1.980469,0 V -6.519531 H 0.894531 V 0 Z m 0,0"
           id="path6" />
      </g>
    </g>
  </g>
  <g
     fill="#ffffff"
     fill-opacity="1"
     id="g11"
     transform="translate(-29.157661,-25.476562)">
    <g
       transform="translate(91.176053,96.829792)"
       id="g10">
      <g
         id="g9">
        <path
           d="m 4.921875,-1.980469 c 0,-1.277343 -0.882813,-1.609375 -1.714844,-1.800781 L 2.65625,-3.910156 C 2.132812,-4.027344 1.726562,-4.21875 1.726562,-4.703125 c 0,-0.5 0.292969,-0.792969 1.148438,-0.792969 H 4.792969 V -6.519531 H 2.851562 c -1.457031,0 -2.210937,0.628906 -2.210937,1.90625 0,1.226562 0.816406,1.546875 1.632813,1.738281 l 0.640624,0.152344 c 0.511719,0.128906 0.917969,0.34375 0.917969,0.84375 0,0.640625 -0.484375,0.855468 -1.210937,0.855468 H 0.640625 V 0 h 2.082031 c 1.457032,0 2.199219,-0.550781 2.199219,-1.980469 z m 0,0"
           id="path8" />
      </g>
    </g>
  </g>
  <g
     fill="#ffffff"
     fill-opacity="1"
     id="g14"
     transform="translate(-29.157661,-25.476562)">
    <g
       transform="translate(96.733916,96.829792)"
       id="g13">
      <g
         id="g12">
        <path
           d="m 4.921875,-1.980469 c 0,-1.277343 -0.882813,-1.609375 -1.714844,-1.800781 L 2.65625,-3.910156 C 2.132812,-4.027344 1.726562,-4.21875 1.726562,-4.703125 c 0,-0.5 0.292969,-0.792969 1.148438,-0.792969 H 4.792969 V -6.519531 H 2.851562 c -1.457031,0 -2.210937,0.628906 -2.210937,1.90625 0,1.226562 0.816406,1.546875 1.632813,1.738281 l 0.640624,0.152344 c 0.511719,0.128906 0.917969,0.34375 0.917969,0.84375 0,0.640625 -0.484375,0.855468 -1.210937,0.855468 H 0.640625 V 0 h 2.082031 c 1.457032,0 2.199219,-0.550781 2.199219,-1.980469 z m 0,0"
           id="path11" />
      </g>
    </g>
  </g>
  <g
     fill="#ffffff"
     fill-opacity="1"
     id="g17"
     transform="translate(-29.157661,-25.476562)">
    <g
       transform="translate(102.29178,96.829792)"
       id="g16">
      <g
         id="g15">
        <path
           d="M 5.429688,0 V -6.519531 H 4.34375 v 5.5625 H 3.066406 c -0.777344,0 -1.085937,-0.539063 -1.085937,-1.214844 V -6.519531 H 0.894531 v 4.347656 C 0.894531,-0.832031 1.546875,0 2.9375,0 Z m 0,0"
           id="path14" />
      </g>
    </g>
  </g>
  <g
     fill="#ffffff"
     fill-opacity="1"
     id="g20"
     transform="translate(-29.157661,-25.476562)">
    <g
       transform="translate(108.61625,96.829792)"
       id="g19">
      <g
         id="g18">
        <path
           d="m 5.304688,-2.875 v -1.214844 c 0,-1.445312 -0.691407,-2.429687 -2.136719,-2.429687 H 2.902344 c -1.394532,0 -2.136719,0.960937 -2.136719,2.429687 v 1.660156 C 0.765625,-0.792969 1.597656,0 3.066406,0 H 4.984375 V -0.957031 H 3.195312 c -0.882812,0 -1.34375,-0.601563 -1.34375,-1.472657 V -2.875 Z M 4.21875,-3.730469 H 1.851562 V -4.21875 c 0,-0.675781 0.269532,-1.339844 1.050782,-1.339844 h 0.265625 c 0.78125,0 1.050781,0.664063 1.050781,1.339844 z m 0,0"
           id="path17" />
      </g>
    </g>
  </g>
  <g
     fill="#ffffff"
     fill-opacity="1"
     id="g23"
     transform="translate(-29.157661,-25.476562)">
    <g
       transform="translate(114.68519,96.829792)"
       id="g22">
      <g
         id="g21">
        <path
           d="M 5.304688,0 V -9.074219 H 4.21875 v 2.554688 H 2.8125 c -1.394531,0 -2.046875,0.832031 -2.046875,2.175781 v 2.171875 C 0.765625,-0.832031 1.417969,0 2.8125,0 Z M 4.21875,-0.957031 H 2.9375 c -0.777344,0 -1.085938,-0.539063 -1.085938,-1.214844 V -4.34375 c 0,-0.679688 0.308594,-1.214844 1.085938,-1.214844 h 1.28125 z m 0,0"
           id="path20" />
      </g>
    </g>
  </g>
  <g
     fill="#ffffff"
     fill-opacity="1"
     id="g26"
     transform="translate(-29.157661,-25.476562)">
    <g
       transform="translate(120.88189,96.829792)"
       id="g25">
      <g
         id="g24" />
    </g>
  </g>
  <g
     fill="#ffffff"
     fill-opacity="1"
     id="g29"
     transform="translate(-29.157661,-25.476562)">
    <g
       transform="translate(124.97044,96.829792)"
       id="g28">
      <g
         id="g27">
        <path
           d="M 3.515625,-8.050781 V -9.074219 H 2.621094 c -0.945313,0 -1.472656,0.5 -1.472656,1.597657 v 0.957031 H 0.253906 v 0.960937 H 1.148438 V 0 H 2.238281 V -5.558594 H 3.386719 V -6.519531 H 2.238281 V -7.4375 c 0,-0.472656 0.214844,-0.613281 0.507813,-0.613281 z m 0,0"
           id="path26" />
      </g>
    </g>
  </g>
  <g
     fill="#ffffff"
     fill-opacity="1"
     id="g32"
     transform="translate(-29.157661,-25.476562)">
    <g
       transform="translate(128.61181,96.829792)"
       id="g31">
      <g
         id="g30">
        <path
           d="M 5.304688,-2.171875 V -4.34375 c 0,-1.34375 -0.769532,-2.175781 -2.109376,-2.175781 H 2.875 c -1.339844,0 -2.109375,0.832031 -2.109375,2.175781 v 2.171875 C 0.765625,-0.832031 1.535156,0 2.875,0 h 0.320312 c 1.339844,0 2.109376,-0.832031 2.109376,-2.171875 z m -1.085938,0 c 0,0.675781 -0.398438,1.214844 -1.023438,1.214844 H 2.875 c -0.625,0 -1.023438,-0.539063 -1.023438,-1.214844 V -4.34375 c 0,-0.679688 0.398438,-1.214844 1.023438,-1.214844 h 0.320312 c 0.625,0 1.023438,0.535156 1.023438,1.214844 z m 0,0"
           id="path29" />
      </g>
    </g>
  </g>
  <g
     fill="#ffffff"
     fill-opacity="1"
     id="g35"
     transform="translate(-29.157661,-25.476562)">
    <g
       transform="translate(134.68075,96.829792)"
       id="g34">
      <g
         id="g33">
        <path
           d="M 3.707031,-5.507812 V -6.519531 H 2.875 c -1.390625,0 -2.042969,0.832031 -2.042969,2.175781 V 0 h 1.085938 v -4.34375 c 0,-0.679688 0.304687,-1.164062 1.085937,-1.164062 z m 0,0"
           id="path32" />
      </g>
    </g>
  </g>
  <g
     fill="#ffffff"
     fill-opacity="1"
     id="g38"
     transform="translate(-29.157661,-25.476562)">
    <g
       transform="translate(138.64153,96.829792)"
       id="g37">
      <g
         id="g36">
        <path
           d="m 2.109375,-5.175781 v -1.34375 h -1.34375 v 1.34375 z M 2.109375,0 V -1.34375 H 0.765625 V 0 Z m 0,0"
           id="path35" />
      </g>
    </g>
  </g>
  <g
     fill="#ffffff"
     fill-opacity="1"
     id="g41"
     transform="translate(-29.157661,-25.476562)">
    <g
       transform="translate(94.491961,114.22792)"
       id="g40">
      <g
         id="g39">
        <path
           d="m 7.09375,0 -2.875,-9.074219 H 3.132812 L 0.253906,0 H 1.40625 l 0.550781,-1.789062 h 3.4375 L 5.941406,0 Z M 5.074219,-2.8125 H 2.273438 l 1.40625,-4.511719 z m 0,0"
           id="path38" />
      </g>
    </g>
  </g>
  <g
     fill="#ffffff"
     fill-opacity="1"
     id="g44"
     transform="translate(-29.157661,-25.476562)">
    <g
       transform="translate(101.83857,114.22792)"
       id="g43">
      <g
         id="g42">
        <path
           d="M 5.304688,0 V -9.074219 H 4.21875 v 2.554688 H 2.8125 c -1.394531,0 -2.046875,0.832031 -2.046875,2.175781 v 2.171875 C 0.765625,-0.832031 1.417969,0 2.8125,0 Z M 4.21875,-0.957031 H 2.9375 c -0.777344,0 -1.085938,-0.539063 -1.085938,-1.214844 V -4.34375 c 0,-0.679688 0.308594,-1.214844 1.085938,-1.214844 h 1.28125 z m 0,0"
           id="path41" />
      </g>
    </g>
  </g>
  <g
     fill="#ffffff"
     fill-opacity="1"
     id="g47"
     transform="translate(-29.157661,-25.476562)">
    <g
       transform="translate(108.03527,114.22792)"
       id="g46">
      <g
         id="g45">
        <path
           d="m 5.113281,0 v -4.28125 c 0,-1.480469 -0.628906,-2.238281 -2.136719,-2.238281 H 1.085938 v 1.023437 H 2.875 c 0.855469,0 1.152344,0.460938 1.152344,1.214844 v 0.613281 H 2.722656 c -1.394531,0 -2.148437,0.535157 -2.148437,1.878907 C 0.574219,-0.601562 1.265625,0 2.492188,0 Z M 4.027344,-0.957031 h -1.40625 c -0.640625,0 -0.960938,-0.269531 -0.960938,-0.832031 0,-0.675782 0.308594,-0.957032 1.085938,-0.957032 h 1.28125 z m 0,0"
           id="path44" />
      </g>
    </g>
  </g>
  <g
     fill="#ffffff"
     fill-opacity="1"
     id="g50"
     transform="translate(-29.157661,-25.476562)">
    <g
       transform="translate(114.04033,114.22792)"
       id="g49">
      <g
         id="g48">
        <path
           d="m 5.429688,0 -2.15625,-3.578125 2.03125,-2.941406 H 4.089844 L 2.058594,-3.578125 4.21875,0 Z M 1.980469,0 V -9.074219 H 0.894531 V 0 Z m 0,0"
           id="path47" />
      </g>
    </g>
  </g>
  <g
     fill="#ffffff"
     fill-opacity="1"
     id="g53"
     transform="translate(-29.157661,-25.476562)">
    <g
       transform="translate(119.59819,114.22792)"
       id="g52">
      <g
         id="g51">
        <path
           d="M 5.304688,-2.171875 V -4.34375 c 0,-1.34375 -0.769532,-2.175781 -2.109376,-2.175781 H 2.875 c -1.339844,0 -2.109375,0.832031 -2.109375,2.175781 v 2.171875 C 0.765625,-0.832031 1.535156,0 2.875,0 h 0.320312 c 1.339844,0 2.109376,-0.832031 2.109376,-2.171875 z m -1.085938,0 c 0,0.675781 -0.398438,1.214844 -1.023438,1.214844 H 2.875 c -0.625,0 -1.023438,-0.539063 -1.023438,-1.214844 V -4.34375 c 0,-0.679688 0.398438,-1.214844 1.023438,-1.214844 h 0.320312 c 0.625,0 1.023438,0.535156 1.023438,1.214844 z m 0,0"
           id="path50" />
      </g>
    </g>
  </g>
  <g
     fill="#ffffff"
     fill-opacity="1"
     id="g56"
     transform="translate(-29.157661,-25.476562)">
    <g
       transform="translate(125.66713,114.22792)"
       id="g55">
      <g
         id="g54">
        <path
           d="m 8.816406,0 v -4.21875 c 0,-1.40625 -0.664062,-2.300781 -2.132812,-2.300781 H 6.414062 c -0.714843,0 -1.238281,0.207031 -1.582031,0.589843 C 4.484375,-6.3125 3.949219,-6.519531 3.234375,-6.519531 H 2.964844 c -1.46875,0 -2.132813,0.894531 -2.132813,2.300781 V 0 h 1.085938 v -4.21875 c 0,-0.675781 0.304687,-1.277344 1.085937,-1.277344 h 0.191406 c 0.777344,0 1.085938,0.601563 1.085938,1.277344 V 0 h 1.085938 v -4.21875 c 0,-0.675781 0.308593,-1.277344 1.085937,-1.277344 h 0.191406 c 0.78125,0 1.085938,0.601563 1.085938,1.277344 V 0 Z m 0,0"
           id="path53" />
      </g>
    </g>
  </g>
  <g
     fill="#ffffff"
     fill-opacity="1"
     id="g59"
     transform="translate(-29.157661,-25.476562)">
    <g
       transform="translate(99.632318,131.62606)"
       id="g58">
      <g
         id="g57">
        <path
           d="M 6.390625,0 V -4.984375 H 3.386719 v 1.023437 h 1.917969 v 2.9375 H 3.578125 c -1.265625,0 -1.726563,-0.933593 -1.726563,-1.914062 v -2.941406 c 0,-1.226563 0.5625,-2.171875 1.980469,-2.171875 H 6.132812 V -9.074219 H 3.832031 c -2.09375,0 -3.066406,1.253907 -3.066406,3.195313 V -2.9375 c 0,1.699219 0.855469,2.9375 2.8125,2.9375 z m 0,0"
           id="path56" />
      </g>
    </g>
  </g>
  <g
     fill="#ffffff"
     fill-opacity="1"
     id="g62"
     transform="translate(-29.157661,-25.476562)">
    <g
       transform="translate(106.91504,131.62606)"
       id="g61">
      <g
         id="g60">
        <path
           d="m 8.816406,0 v -4.21875 c 0,-1.40625 -0.664062,-2.300781 -2.132812,-2.300781 H 6.414062 c -0.714843,0 -1.238281,0.207031 -1.582031,0.589843 C 4.484375,-6.3125 3.949219,-6.519531 3.234375,-6.519531 H 2.964844 c -1.46875,0 -2.132813,0.894531 -2.132813,2.300781 V 0 h 1.085938 v -4.21875 c 0,-0.675781 0.304687,-1.277344 1.085937,-1.277344 h 0.191406 c 0.777344,0 1.085938,0.601563 1.085938,1.277344 V 0 h 1.085938 v -4.21875 c 0,-0.675781 0.308593,-1.277344 1.085937,-1.277344 h 0.191406 c 0.78125,0 1.085938,0.601563 1.085938,1.277344 V 0 Z m 0,0"
           id="path59" />
      </g>
    </g>
  </g>
  <g
     fill="#ffffff"
     fill-opacity="1"
     id="g65"
     transform="translate(-29.157661,-25.476562)">
    <g
       transform="translate(116.56145,131.62606)"
       id="g64">
      <g
         id="g63">
        <path
           d="M 5.429688,-2.171875 V -4.34375 c 0,-1.34375 -0.648438,-2.175781 -2.042969,-2.175781 H 1.980469 V -9.074219 H 0.894531 V 0 H 3.386719 C 4.78125,0 5.429688,-0.832031 5.429688,-2.171875 Z m -1.085938,0 c 0,0.675781 -0.304688,1.214844 -1.085938,1.214844 H 1.980469 v -4.601563 h 1.277343 c 0.78125,0 1.085938,0.535156 1.085938,1.214844 z m 0,0"
           id="path62" />
      </g>
    </g>
  </g>
  <g
     fill="#ffffff"
     fill-opacity="1"
     id="g68"
     transform="translate(-29.157661,-25.476562)">
    <g
       transform="translate(122.75816,131.62606)"
       id="g67">
      <g
         id="g66">
        <path
           d="M 6.519531,0 V -9.074219 H 5.429688 v 3.960938 H 1.980469 V -9.074219 H 0.894531 V 0 H 1.980469 V -4.089844 H 5.429688 V 0 Z m 0,0"
           id="path65" />
      </g>
    </g>
  </g>
  <g
     fill="#ffffff"
     fill-opacity="1"
     id="g71"
     transform="translate(-29.157661,-25.476562)">
    <g
       transform="translate(77.432968,58.64727)"
       id="g70">
      <g
         id="g69">
        <path
           d="M -2.90625,-8.90625 -2.625,-9.0625 c 0.292969,-0.175781 0.546875,-0.378906 0.765625,-0.609375 0.21875,-0.238281 0.386719,-0.492187 0.5,-0.765625 0.117187,-0.269531 0.179687,-0.546875 0.1875,-0.828125 0,-0.289063 -0.0625,-0.578125 -0.1875,-0.859375 l 0.90625,-0.546875 5.6875,9.546875 -1.28125,0.765625 -4.28125,-7.171875 -2.1875,1.296875 z m 0,0"
           id="path68" />
      </g>
    </g>
  </g>
  <g
     fill="#ffffff"
     fill-opacity="1"
     id="g74"
     transform="translate(-29.157661,-25.476562)">
    <g
       transform="translate(84.817922,54.196219)"
       id="g73">
      <g
         id="g72">
        <path
           d="M 3.65625,-5.71875 1.546875,-10.625 0.15625,-4.21875 Z m -4.34375,3.203125 -0.484375,-1.140625 1.9375,-8.765625 1.375,-0.59375 2.875,6.703125 L 6.625,-7 7.109375,-5.859375 5.5,-5.171875 l 1.015625,2.375 -1.359375,0.59375 -1.015625,-2.375 z m 0,0"
           id="path71" />
      </g>
    </g>
  </g>
  <g
     fill="#ffffff"
     fill-opacity="1"
     id="g77"
     transform="translate(-29.157661,-25.476562)">
    <g
       transform="translate(92.893213,50.830702)"
       id="g76">
      <g
         id="g75">
        <path
           d="m 1.09375,-2.15625 1.5,-0.46875 0.515625,1.65625 -1.5,0.46875 z m 0,0"
           id="path74" />
      </g>
    </g>
  </g>
  <g
     fill="#ffffff"
     fill-opacity="1"
     id="g80"
     transform="translate(-29.157661,-25.476562)">
    <g
       transform="translate(97.138698,49.368662)"
       id="g79">
      <g
         id="g78">
        <path
           d="M 4.328125,-1.828125 C 4.753906,-1.910156 5.09375,-2.101562 5.34375,-2.40625 5.601562,-2.71875 5.785156,-3.09375 5.890625,-3.53125 5.992188,-3.976562 6.03125,-4.484375 6,-5.046875 5.96875,-5.617188 5.890625,-6.21875 5.765625,-6.84375 5.640625,-7.46875 5.476562,-8.046875 5.28125,-8.578125 5.09375,-9.109375 4.863281,-9.5625 4.59375,-9.9375 4.320312,-10.3125 4.007812,-10.585938 3.65625,-10.765625 3.3125,-10.941406 2.925781,-10.988281 2.5,-10.90625 c -0.4375,0.09375 -0.789062,0.292969 -1.046875,0.59375 -0.25,0.304688 -0.429687,0.679688 -0.53125,1.125 -0.105469,0.449219 -0.148437,0.953125 -0.125,1.515625 0.03125,0.5625 0.109375,1.15625 0.234375,1.78125 0.125,0.625 0.285156,1.210937 0.484375,1.75 0.195313,0.53125 0.429687,0.984375 0.703125,1.359375 0.269531,0.367188 0.578125,0.640625 0.921875,0.828125 0.351563,0.179687 0.75,0.21875 1.1875,0.125 z m 0.25,1.234375 C 4.429688,-0.5625 4.238281,-0.535156 4,-0.515625 c -0.242188,0.023437 -0.515625,0 -0.828125,-0.0625 -0.304687,-0.0625 -0.625,-0.179687 -0.96875,-0.359375 C 1.867188,-1.113281 1.539062,-1.390625 1.21875,-1.765625 0.894531,-2.140625 0.59375,-2.632812 0.3125,-3.25 0.03125,-3.875 -0.207031,-4.65625 -0.40625,-5.59375 -0.59375,-6.519531 -0.675781,-7.320312 -0.65625,-8 c 0.023438,-0.6875 0.109375,-1.265625 0.265625,-1.734375 0.15625,-0.46875 0.3515625,-0.851563 0.578125,-1.15625 0.238281,-0.300781 0.488281,-0.539063 0.75,-0.71875 0.269531,-0.175781 0.515625,-0.300781 0.734375,-0.375 0.226563,-0.07031 0.414063,-0.125 0.5625,-0.15625 0.132813,-0.01953 0.328125,-0.03906 0.578125,-0.0625 0.25,-0.01953 0.523438,0 0.828125,0.0625 0.300781,0.0625 0.625,0.183594 0.96875,0.359375 0.34375,0.179688 0.675781,0.453125 1,0.828125 0.320313,0.375 0.625,0.875 0.90625,1.5 0.28125,0.617187 0.515625,1.386719 0.703125,2.3125 0.195312,0.9375 0.285156,1.75 0.265625,2.4375 -0.023437,0.679687 -0.109375,1.25 -0.265625,1.71875 -0.15625,0.46875 -0.355469,0.855469 -0.59375,1.15625 -0.242188,0.304687 -0.492188,0.542969 -0.75,0.71875 -0.261719,0.179687 -0.511719,0.304687 -0.75,0.375 -0.230469,0.074219 -0.414062,0.121094 -0.546875,0.140625 z m 0,0"
           id="path77" />
      </g>
    </g>
  </g>
  <g
     fill="#ffffff"
     fill-opacity="1"
     id="g83"
     transform="translate(-29.157661,-25.476562)">
    <g
       transform="translate(105.58172,47.617958)"
       id="g82">
      <g
         id="g81">
        <path
           d="m 2.03125,-3.703125 c 0.019531,0.34375 0.09375,0.679687 0.21875,1 0.125,0.3125 0.289062,0.589844 0.5,0.828125 0.21875,0.230469 0.484375,0.414062 0.796875,0.546875 0.320313,0.125 0.695313,0.179687 1.125,0.15625 0.40625,-0.03125 0.75,-0.128906 1.03125,-0.296875 C 5.984375,-1.644531 6.207031,-1.867188 6.375,-2.140625 6.550781,-2.410156 6.671875,-2.710938 6.734375,-3.046875 6.804688,-3.378906 6.832031,-3.71875 6.8125,-4.0625 6.78125,-4.394531 6.707031,-4.710938 6.59375,-5.015625 6.488281,-5.316406 6.328125,-5.570312 6.109375,-5.78125 5.898438,-6 5.640625,-6.164062 5.328125,-6.28125 5.023438,-6.40625 4.679688,-6.453125 4.296875,-6.421875 3.515625,-6.367188 2.925781,-6.09375 2.53125,-5.59375 c -0.386719,0.5 -0.554688,1.132812 -0.5,1.890625 z M 6.40625,-9.125 C 6.289062,-9.5 6.128906,-9.789062 5.921875,-10 5.710938,-10.207031 5.5,-10.351562 5.28125,-10.4375 c -0.210938,-0.08203 -0.421875,-0.125 -0.640625,-0.125 -0.210937,0 -0.367187,0 -0.46875,0 -0.585937,0.04297 -1.042969,0.203125 -1.375,0.484375 -0.324219,0.28125 -0.570313,0.636719 -0.734375,1.0625 -0.167969,0.429687 -0.265625,0.886719 -0.296875,1.375 -0.03125,0.480469 -0.03125,0.9375 0,1.375 h 0.03125 c 0.300781,-0.46875 0.6875,-0.800781 1.15625,-1 0.46875,-0.207031 0.957031,-0.328125 1.46875,-0.359375 0.507813,-0.03125 0.984375,0.023438 1.421875,0.15625 0.445312,0.136719 0.84375,0.355469 1.1875,0.65625 0.34375,0.292969 0.617188,0.664062 0.828125,1.109375 0.21875,0.449219 0.347656,0.96875 0.390625,1.5625 0.03125,0.5625 -0.023438,1.09375 -0.15625,1.59375 C 7.957031,-2.054688 7.734375,-1.625 7.421875,-1.25 7.117188,-0.882812 6.738281,-0.59375 6.28125,-0.375 5.820312,-0.15625 5.289062,-0.0234375 4.6875,0.015625 4.070312,0.0546875 3.515625,0.00390625 3.015625,-0.140625 c -0.5,-0.144531 -0.9375,-0.425781 -1.3125,-0.84375 C 1.328125,-1.398438 1.023438,-1.96875 0.796875,-2.6875 0.566406,-3.414062 0.414062,-4.332031 0.34375,-5.4375 0.28125,-6.425781 0.304688,-7.269531 0.421875,-7.96875 c 0.113281,-0.695312 0.28125,-1.273438 0.5,-1.734375 0.226563,-0.457031 0.492187,-0.816406 0.796875,-1.078125 0.300781,-0.269531 0.597656,-0.472656 0.890625,-0.609375 0.300781,-0.132813 0.582031,-0.222656 0.84375,-0.265625 0.269531,-0.05078 0.488281,-0.08203 0.65625,-0.09375 0.15625,-0.0078 0.398437,-0.0039 0.734375,0.01563 0.34375,0.02344 0.695312,0.109375 1.0625,0.265625 0.375,0.148438 0.734375,0.390625 1.078125,0.734375 0.34375,0.34375 0.59375,0.855469 0.75,1.53125 z m 0,0"
           id="path80" />
      </g>
    </g>
  </g>
  <g
     fill="#ffffff"
     fill-opacity="1"
     id="g86"
     transform="translate(-29.157661,-25.476562)">
    <g
       transform="translate(114.31599,47.120907)"
       id="g85">
      <g
         id="g84">
        <path
           d="M 1.75,-1.671875 3.3125,-1.625 3.25,0.109375 1.6875,0.0625 Z m 0,0"
           id="path83" />
      </g>
    </g>
  </g>
  <g
     fill="#ffffff"
     fill-opacity="1"
     id="g89"
     transform="translate(-29.157661,-25.476562)">
    <g
       transform="translate(118.8062,47.148555)"
       id="g88">
      <g
         id="g87">
        <path
           d="M 8.34375,1.15625 0.890625,0.125 c 0.09375,-0.65625 0.265625,-1.210938 0.515625,-1.671875 0.25,-0.457031 0.566406,-0.851563 0.953125,-1.1875 0.382813,-0.332031 0.828125,-0.625 1.328125,-0.875 0.507812,-0.25 1.054688,-0.503906 1.640625,-0.765625 0.25,-0.113281 0.515625,-0.234375 0.796875,-0.359375 0.28125,-0.132813 0.550781,-0.300781 0.8125,-0.5 0.257812,-0.207031 0.484375,-0.453125 0.671875,-0.734375 0.1875,-0.28125 0.3125,-0.632812 0.375,-1.0625 C 8.078125,-7.71875 7.945312,-8.269531 7.59375,-8.6875 7.238281,-9.101562 6.726562,-9.359375 6.0625,-9.453125 c -0.699219,-0.09375 -1.28125,0.03125 -1.75,0.375 -0.46875,0.335937 -0.75,0.835937 -0.84375,1.5 L 3.421875,-7.171875 1.96875,-7.375 2.015625,-7.703125 c 0.03125,-0.25 0.113281,-0.566406 0.25,-0.953125 C 2.398438,-9.039062 2.625,-9.40625 2.9375,-9.75 c 0.320312,-0.34375 0.75,-0.613281 1.28125,-0.8125 0.539062,-0.195312 1.226562,-0.238281 2.0625,-0.125 0.570312,0.07422 1.070312,0.21875 1.5,0.4375 0.425781,0.21875 0.773438,0.496094 1.046875,0.828125 0.28125,0.324219 0.476563,0.703125 0.59375,1.140625 0.125,0.4375 0.148437,0.921875 0.078125,1.453125 C 9.425781,-6.316406 9.300781,-5.882812 9.125,-5.53125 8.945312,-5.1875 8.691406,-4.875 8.359375,-4.59375 8.035156,-4.320312 7.625,-4.0625 7.125,-3.8125 6.632812,-3.5625 6.039062,-3.285156 5.34375,-2.984375 4.539062,-2.609375 3.9375,-2.257812 3.53125,-1.9375 3.132812,-1.625 2.859375,-1.269531 2.703125,-0.875 l 5.8125,0.796875 z m 0,0"
           id="path86" />
      </g>
    </g>
  </g>
  <g
     fill="#ffffff"
     fill-opacity="1"
     id="g92"
     transform="translate(-29.157661,-25.476562)">
    <g
       transform="translate(127.35209,48.296296)"
       id="g91">
      <g
         id="g90">
        <path
           d="M 4.6875,0.34375 C 5.113281,0.457031 5.507812,0.4375 5.875,0.28125 6.238281,0.125 6.566406,-0.125 6.859375,-0.46875 7.148438,-0.820312 7.410156,-1.257812 7.640625,-1.78125 7.878906,-2.300781 8.082031,-2.867188 8.25,-3.484375 c 0.175781,-0.613281 0.296875,-1.195313 0.359375,-1.75 0.0625,-0.5625 0.054687,-1.070313 -0.015625,-1.53125 -0.0625,-0.457031 -0.210938,-0.84375 -0.4375,-1.15625 -0.230469,-0.320313 -0.558594,-0.539063 -0.984375,-0.65625 -0.429687,-0.113281 -0.824219,-0.09375 -1.1875,0.0625 -0.367187,0.148437 -0.699219,0.398437 -1,0.75 -0.304687,0.355469 -0.570313,0.792969 -0.796875,1.3125 -0.21875,0.511719 -0.417969,1.074219 -0.59375,1.6875 C 3.425781,-4.148438 3.304688,-3.5625 3.234375,-3 c -0.074219,0.5625 -0.074219,1.074219 0,1.53125 0.082031,0.449219 0.238281,0.835938 0.46875,1.15625 C 3.929688,0.0078125 4.257812,0.226562 4.6875,0.34375 Z M 4.34375,1.546875 C 4.207031,1.503906 4.023438,1.4375 3.796875,1.34375 3.578125,1.257812 3.34375,1.117188 3.09375,0.921875 c -0.25,-0.1875 -0.484375,-0.4375 -0.703125,-0.75 C 2.171875,-0.140625 2,-0.535156 1.875,-1.015625 1.757812,-1.503906 1.71875,-2.085938 1.75,-2.765625 1.78125,-3.441406 1.921875,-4.242188 2.171875,-5.171875 2.429688,-6.085938 2.722656,-6.84375 3.046875,-7.4375 3.367188,-8.03125 3.707031,-8.5 4.0625,-8.84375 c 0.351562,-0.351562 0.703125,-0.609375 1.046875,-0.765625 0.351563,-0.15625 0.6875,-0.25 1,-0.28125 C 6.421875,-9.929688 6.695312,-9.9375 6.9375,-9.90625 7.175781,-9.875 7.363281,-9.835938 7.5,-9.796875 7.632812,-9.753906 7.816406,-9.6875 8.046875,-9.59375 8.273438,-9.5 8.507812,-9.351562 8.75,-9.15625 c 0.25,0.1875 0.484375,0.4375 0.703125,0.75 0.21875,0.3125 0.382813,0.714844 0.5,1.203125 0.125,0.480469 0.171875,1.058594 0.140625,1.734375 -0.02344,0.679688 -0.164062,1.476562 -0.421875,2.390625 -0.25,0.929687 -0.542969,1.6875 -0.875,2.28125 -0.324219,0.59375 -0.664063,1.0625 -1.015625,1.40625 C 7.425781,0.960938 7.070312,1.21875 6.71875,1.375 6.375,1.53125 6.046875,1.625 5.734375,1.65625 5.429688,1.695312 5.15625,1.695312 4.90625,1.65625 4.664062,1.625 4.476562,1.585938 4.34375,1.546875 Z m 0,0"
           id="path89" />
      </g>
    </g>
  </g>
  <g
     fill="#ffffff"
     fill-opacity="1"
     id="g95"
     transform="translate(-29.157661,-25.476562)">
    <g
       transform="translate(135.66972,50.569268)"
       id="g94">
      <g
         id="g93">
        <path
           d="M 7.734375,3.3125 0.828125,0.359375 C 1.085938,-0.253906 1.394531,-0.742188 1.75,-1.109375 2.113281,-1.484375 2.523438,-1.78125 2.984375,-2 c 0.46875,-0.226562 0.976563,-0.394531 1.53125,-0.5 0.550781,-0.113281 1.144531,-0.21875 1.78125,-0.3125 0.257813,-0.050781 0.546875,-0.101562 0.859375,-0.15625 0.3125,-0.050781 0.617188,-0.132812 0.921875,-0.25 C 8.378906,-3.34375 8.65625,-3.519531 8.90625,-3.75 9.164062,-3.976562 9.378906,-4.285156 9.546875,-4.671875 9.816406,-5.316406 9.835938,-5.882812 9.609375,-6.375 9.378906,-6.863281 8.957031,-7.242188 8.34375,-7.515625 7.6875,-7.785156 7.085938,-7.820312 6.546875,-7.625 6.003906,-7.425781 5.601562,-7.019531 5.34375,-6.40625 l -0.15625,0.375 -1.34375,-0.5625 0.125,-0.296875 c 0.101562,-0.226563 0.269531,-0.507813 0.5,-0.84375 0.226562,-0.34375 0.539062,-0.632813 0.9375,-0.875 0.394531,-0.25 0.878906,-0.398437 1.453125,-0.453125 0.570313,-0.0625 1.242187,0.074219 2.015625,0.40625 0.53125,0.21875 0.972656,0.496094 1.328125,0.828125 0.351563,0.324219 0.617187,0.679687 0.796875,1.0625 0.1875,0.386719 0.28125,0.808594 0.28125,1.265625 0,0.449219 -0.105469,0.917969 -0.3125,1.40625 -0.210938,0.480469 -0.449219,0.867188 -0.71875,1.15625 -0.261719,0.292969 -0.585938,0.527344 -0.96875,0.703125 -0.386719,0.179687 -0.851562,0.324219 -1.390625,0.4375 -0.542969,0.105469 -1.1875,0.214844 -1.9375,0.328125 -0.875,0.148438 -1.546875,0.324219 -2.015625,0.53125 -0.46875,0.199219 -0.835938,0.464844 -1.09375,0.796875 l 5.375,2.296875 z m 0,0"
           id="path92" />
      </g>
    </g>
  </g>
  <g
     fill="#ffffff"
     fill-opacity="1"
     id="g98"
     transform="translate(-29.157661,-25.476562)">
    <g
       transform="translate(143.61164,53.92716)"
       id="g97">
      <g
         id="g96">
        <path
           d="M 7.234375,4.3125 0.78125,0.46875 C 1.125,-0.101562 1.492188,-0.550781 1.890625,-0.875 2.296875,-1.195312 2.742188,-1.4375 3.234375,-1.59375 3.722656,-1.75 4.25,-1.84375 4.8125,-1.875 5.375,-1.914062 5.972656,-1.941406 6.609375,-1.953125 c 0.269531,-0.00781 0.5625,-0.019531 0.875,-0.03125 0.3125,-0.00781 0.625,-0.054687 0.9375,-0.140625 0.320313,-0.082031 0.625,-0.21875 0.90625,-0.40625 0.28125,-0.195312 0.53125,-0.476562 0.75,-0.84375 0.363281,-0.601562 0.457031,-1.160156 0.28125,-1.671875 C 10.191406,-5.566406 9.828125,-6 9.265625,-6.34375 8.648438,-6.707031 8.0625,-6.820312 7.5,-6.6875 6.9375,-6.5625 6.484375,-6.210938 6.140625,-5.640625 L 5.921875,-5.296875 4.6875,-6.03125 4.859375,-6.3125 c 0.132813,-0.207031 0.332031,-0.460938 0.59375,-0.765625 0.269531,-0.3125 0.613281,-0.5625 1.03125,-0.75 0.425781,-0.1875 0.929687,-0.269531 1.515625,-0.25 0.582031,0.011719 1.234375,0.234375 1.953125,0.671875 0.488281,0.292969 0.882813,0.621094 1.1875,0.984375 0.3125,0.367187 0.53125,0.757813 0.65625,1.171875 0.132813,0.40625 0.171875,0.839844 0.109375,1.296875 -0.0625,0.449219 -0.230469,0.902344 -0.5,1.359375 -0.273438,0.449219 -0.558594,0.796875 -0.859375,1.046875 -0.292969,0.25 -0.640625,0.4375 -1.046875,0.5625 -0.40625,0.125 -0.886719,0.210937 -1.4375,0.25 -0.554688,0.03125 -1.210938,0.054687 -1.96875,0.0625 -0.898438,0.03125 -1.589844,0.121094 -2.078125,0.265625 -0.492187,0.136719 -0.882813,0.3515625 -1.171875,0.640625 l 5.03125,3 z m 0,0"
           id="path95" />
      </g>
    </g>
  </g>
  <g
     fill="#ffffff"
     fill-opacity="1"
     id="g101"
     transform="translate(-29.157661,-25.476562)">
    <g
       transform="translate(59.300794,70.85274)"
       id="g100">
      <g
         id="g99">
        <path
           d="M 4.703125,12.421875 3.671875,14.03125 2.34375,7.953125 -5.453125,8.59375 -4.4375,6.984375 2.09375,6.578125 1.625,4.25 -1.453125,2.296875 -0.6875,1.09375 l 8.96875,5.6875 -0.765625,1.203125 -4.4375,-2.8125 z m 0,0"
           id="path98" />
      </g>
    </g>
  </g>
  <g
     fill="#ffffff"
     fill-opacity="1"
     id="g104"
     transform="translate(-29.157661,-25.476562)">
    <g
       transform="translate(53.612605,79.98877)"
       id="g103">
      <g
         id="g102">
        <path
           d="m 1.359375,7.84375 c 0.238281,0.09375 0.507813,0.175781 0.8125,0.25 C 2.472656,8.164062 2.769531,8.179688 3.0625,8.140625 3.351562,8.109375 3.632812,8.003906 3.90625,7.828125 4.175781,7.648438 4.398438,7.363281 4.578125,6.96875 4.773438,6.53125 4.859375,6.128906 4.828125,5.765625 4.804688,5.410156 4.710938,5.097656 4.546875,4.828125 4.378906,4.554688 4.171875,4.332031 3.921875,4.15625 3.679688,3.976562 3.445312,3.835938 3.21875,3.734375 Z M -1.25,8.140625 c -0.21875,-0.167969 -0.4375,-0.375 -0.65625,-0.625 -0.21875,-0.25 -0.382812,-0.542969 -0.5,-0.875 -0.113281,-0.335937 -0.160156,-0.71875 -0.140625,-1.15625 0.023437,-0.429687 0.15625,-0.917969 0.40625,-1.46875 0.261719,-0.585937 0.5625,-1.039063 0.90625,-1.359375 C -0.898438,2.332031 -0.550781,2.09375 -0.1875,1.9375 0.164062,1.78125 0.523438,1.695312 0.890625,1.6875 1.253906,1.675781 1.582031,1.695312 1.875,1.75 2.175781,1.8125 2.445312,1.882812 2.6875,1.96875 2.925781,2.050781 3.101562,2.117188 3.21875,2.171875 3.375,2.242188 3.570312,2.347656 3.8125,2.484375 c 0.25,0.132813 0.492188,0.300781 0.734375,0.5 0.25,0.207031 0.484375,0.445313 0.703125,0.71875 0.21875,0.28125 0.382812,0.597656 0.5,0.953125 0.125,0.363281 0.171875,0.765625 0.140625,1.203125 -0.03125,0.4375 -0.171875,0.929687 -0.421875,1.484375 -0.3125,0.6875 -0.6875,1.1875 -1.125,1.5 C 3.90625,9.15625 3.453125,9.335938 2.984375,9.390625 2.515625,9.453125 2.039062,9.421875 1.5625,9.296875 1.082031,9.171875 0.644531,9.035156 0.25,8.890625 0.207031,8.867188 0.15625,8.84375 0.09375,8.8125 0.03125,8.789062 -0.0234375,8.769531 -0.078125,8.75 L 2.375,3.34375 C 2.070312,3.207031 1.742188,3.109375 1.390625,3.046875 1.035156,2.992188 0.691406,2.992188 0.359375,3.046875 0.0351562,3.097656 -0.269531,3.226562 -0.5625,3.4375 -0.863281,3.65625 -1.101562,3.960938 -1.28125,4.359375 -1.414062,4.640625 -1.492188,4.914062 -1.515625,5.1875 -1.546875,5.457031 -1.53125,5.703125 -1.46875,5.921875 -1.414062,6.140625 -1.320312,6.332031 -1.1875,6.5 c 0.136719,0.175781 0.292969,0.332031 0.46875,0.46875 z m 0,0"
           id="path101" />
      </g>
    </g>
  </g>
  <g
     fill="#ffffff"
     fill-opacity="1"
     id="g107"
     transform="translate(-29.157661,-25.476562)">
    <g
       transform="translate(49.987239,88.287373)"
       id="g106">
      <g
         id="g105">
        <path
           d="m 9.234375,5.796875 -10.03125,-3.515625 0.4375,-1.25 10.03125,3.515625 z m 0,0"
           id="path104" />
      </g>
    </g>
  </g>
  <g
     fill="#ffffff"
     fill-opacity="1"
     id="g110"
     transform="translate(-29.157661,-25.476562)">
    <g
       transform="translate(48.649936,91.934343)"
       id="g109">
      <g
         id="g108">
        <path
           d="M 5.984375,7.53125 5.625,8.921875 -1.109375,4.203125 -0.71875,2.703125 7.46875,1.90625 7.109375,3.296875 0.375,3.78125 Z m 0,0"
           id="path107" />
      </g>
    </g>
  </g>
  <g
     fill="#ffffff"
     fill-opacity="1"
     id="g113"
     transform="translate(-29.157661,-25.476562)">
    <g
       transform="translate(46.823955,99.196269)"
       id="g112">
      <g
         id="g111">
        <path
           d="M 10.265625,2.9375 10.03125,4.25 8.65625,4 8.890625,2.6875 Z m -3.109375,0.796875 -7.578125,-1.375 0.234375,-1.3125 7.578125,1.375 z m 0,0"
           id="path110" />
      </g>
    </g>
  </g>
  <g
     fill="#ffffff"
     fill-opacity="1"
     id="g116"
     transform="translate(-29.157661,-25.476562)">
    <g
       transform="translate(46.02888,102.9981)"
       id="g115">
      <g
         id="g114">
        <path
           d="M 3.671875,2.390625 C 2.898438,2.316406 2.289062,2.359375 1.84375,2.515625 1.394531,2.671875 1.054688,2.867188 0.828125,3.109375 0.597656,3.347656 0.445312,3.597656 0.375,3.859375 0.300781,4.128906 0.257812,4.34375 0.25,4.5 0.238281,4.644531 0.242188,4.847656 0.265625,5.109375 c 0.019531,0.269531 0.125,0.539063 0.3125,0.8125 0.1875,0.28125 0.488281,0.535156 0.90625,0.765625 0.414063,0.226562 1.007813,0.378906 1.78125,0.453125 C 4.023438,7.203125 4.628906,7.15625 5.078125,7 5.523438,6.851562 5.863281,6.660156 6.09375,6.421875 6.332031,6.179688 6.484375,5.929688 6.546875,5.671875 6.617188,5.410156 6.660156,5.207031 6.671875,5.0625 6.679688,4.90625 6.675781,4.691406 6.65625,4.421875 6.644531,4.148438 6.539062,3.875 6.34375,3.59375 6.15625,3.320312 5.851562,3.066406 5.4375,2.828125 5.019531,2.597656 4.429688,2.453125 3.671875,2.390625 Z M 3.78125,1 c 0.507812,0.039062 1.003906,0.144531 1.484375,0.3125 0.476563,0.175781 0.898437,0.429688 1.265625,0.765625 0.363281,0.332031 0.644531,0.75 0.84375,1.25 0.207031,0.507813 0.28125,1.113281 0.21875,1.8125 -0.0625,0.6875 -0.242188,1.257813 -0.53125,1.71875 -0.28125,0.46875 -0.632812,0.832031 -1.046875,1.09375 -0.417969,0.257813 -0.875,0.429687 -1.375,0.515625 C 4.140625,8.5625 3.632812,8.585938 3.125,8.546875 2.601562,8.492188 2.101562,8.378906 1.625,8.203125 1.144531,8.035156 0.722656,7.785156 0.359375,7.453125 -0.00390625,7.117188 -0.285156,6.695312 -0.484375,6.1875 -0.679688,5.6875 -0.75,5.09375 -0.6875,4.40625 -0.625,3.707031 -0.453125,3.125 -0.171875,2.65625 0.109375,2.195312 0.457031,1.835938 0.875,1.578125 1.289062,1.316406 1.75,1.140625 2.25,1.046875 2.75,0.960938 3.257812,0.945312 3.78125,1 Z m 0,0"
           id="path113" />
      </g>
    </g>
  </g>
  <g
     fill="#ffffff"
     fill-opacity="1"
     id="g119"
     transform="translate(-29.157661,-25.476562)">
    <g
       transform="translate(45.242329,112.45678)"
       id="g118">
      <g
         id="g117">
        <path
           d="M 7.8125,2.09375 6.734375,2.140625 C 7.128906,2.390625 7.46875,2.726562 7.75,3.15625 8.039062,3.59375 8.203125,4.113281 8.234375,4.71875 8.253906,5.226562 8.191406,5.648438 8.046875,5.984375 7.898438,6.328125 7.695312,6.597656 7.4375,6.796875 7.1875,6.992188 6.890625,7.132812 6.546875,7.21875 6.203125,7.3125 5.835938,7.363281 5.453125,7.375 L 0.328125,7.59375 0.265625,6.265625 4.984375,6.0625 C 5.179688,6.050781 5.414062,6.03125 5.6875,6 5.96875,5.976562 6.222656,5.914062 6.453125,5.8125 6.691406,5.707031 6.890625,5.539062 7.046875,5.3125 7.203125,5.082031 7.273438,4.757812 7.265625,4.34375 7.253906,4.164062 7.210938,3.945312 7.140625,3.6875 7.078125,3.4375 6.941406,3.195312 6.734375,2.96875 6.523438,2.75 6.226562,2.566406 5.84375,2.421875 5.457031,2.273438 4.945312,2.21875 4.3125,2.25 L 0.109375,2.421875 0.046875,1.09375 7.75,0.765625 Z m 0,0"
           id="path116" />
      </g>
    </g>
  </g>
  <g
     fill="#ffffff"
     fill-opacity="1"
     id="g122"
     transform="translate(-29.157661,-25.476562)">
    <g
       transform="translate(45.763,121.5463)"
       id="g121">
      <g
         id="g120" />
    </g>
  </g>
  <g
     fill="#ffffff"
     fill-opacity="1"
     id="g125"
     transform="translate(-29.157661,-25.476562)">
    <g
       transform="translate(46.130229,125.56782)"
       id="g124">
      <g
         id="g123">
        <path
           d="m 5.84375,9.09375 c -0.386719,0.050781 -0.8125,0.050781 -1.28125,0 C 4.09375,9.050781 3.628906,8.910156 3.171875,8.671875 2.710938,8.429688 2.296875,8.070312 1.921875,7.59375 1.546875,7.125 1.257812,6.476562 1.0625,5.65625 0.875,4.882812 0.820312,4.164062 0.90625,3.5 0.988281,2.832031 1.207031,2.226562 1.5625,1.6875 1.925781,1.15625 2.40625,0.703125 3,0.328125 c 0.601562,-0.375 1.316406,-0.664063 2.140625,-0.875 0.90625,-0.21875 1.703125,-0.300781 2.390625,-0.25 0.695312,0.042969 1.285156,0.167969 1.765625,0.375 0.488281,0.210937 0.898437,0.4726562 1.234375,0.796875 0.332031,0.320312 0.597656,0.644531 0.796875,0.96875 0.195313,0.332031 0.34375,0.644531 0.4375,0.9375 0.101563,0.289062 0.171875,0.507812 0.203125,0.65625 0.207031,0.820312 0.265625,1.523438 0.171875,2.109375 C 12.046875,5.628906 11.867188,6.125 11.609375,6.53125 11.347656,6.9375 11.03125,7.257812 10.65625,7.5 10.289062,7.738281 9.914062,7.929688 9.53125,8.078125 L 9.1875,6.671875 C 9.363281,6.597656 9.578125,6.488281 9.828125,6.34375 c 0.25,-0.136719 0.46875,-0.339844 0.65625,-0.609375 0.1875,-0.261719 0.320313,-0.601563 0.40625,-1.015625 0.08203,-0.417969 0.05078,-0.917969 -0.09375,-1.5 C 10.640625,2.5625 10.382812,2.050781 10.03125,1.6875 9.6875,1.320312 9.273438,1.054688 8.796875,0.890625 c -0.480469,-0.15625 -1,-0.230469 -1.5625,-0.21875 C 6.671875,0.691406 6.113281,0.769531 5.5625,0.90625 4.957031,1.050781 4.421875,1.265625 3.953125,1.546875 3.484375,1.828125 3.097656,2.164062 2.796875,2.5625 2.492188,2.957031 2.285156,3.394531 2.171875,3.875 2.066406,4.363281 2.082031,4.878906 2.21875,5.421875 c 0.101562,0.414063 0.265625,0.78125 0.484375,1.09375 0.21875,0.320313 0.46875,0.582031 0.75,0.78125 C 3.742188,7.492188 4.0625,7.628906 4.40625,7.703125 4.757812,7.773438 5.125,7.78125 5.5,7.71875 Z m 0,0"
           id="path122" />
      </g>
    </g>
  </g>
  <g
     fill="#ffffff"
     fill-opacity="1"
     id="g128"
     transform="translate(-29.157661,-25.476562)">
    <g
       transform="translate(48.966647,136.67876)"
       id="g127">
      <g
         id="g126">
        <path
           d="M 6.609375,4.421875 C 6.847656,4.316406 7.097656,4.179688 7.359375,4.015625 7.617188,3.847656 7.835938,3.644531 8.015625,3.40625 8.203125,3.164062 8.320312,2.882812 8.375,2.5625 8.425781,2.238281 8.375,1.878906 8.21875,1.484375 8.03125,1.035156 7.796875,0.695312 7.515625,0.46875 7.242188,0.25 6.953125,0.101562 6.640625,0.03125 6.328125,-0.03125 6.019531,-0.0351562 5.71875,0.015625 5.414062,0.0664062 5.148438,0.140625 4.921875,0.234375 Z m -1.5625,2.09375 C 4.773438,6.566406 4.472656,6.582031 4.140625,6.5625 c -0.335937,-0.011719 -0.667969,-0.089844 -1,-0.234375 -0.324219,-0.148437 -0.636719,-0.375 -0.9375,-0.6875 -0.304687,-0.3125 -0.5625,-0.75 -0.78125,-1.3125 C 1.179688,3.734375 1.0625,3.203125 1.0625,2.734375 1.0625,2.265625 1.128906,1.84375 1.265625,1.46875 1.398438,1.101562 1.585938,0.785156 1.828125,0.515625 2.066406,0.253906 2.3125,0.0351562 2.5625,-0.140625 c 0.257812,-0.1875 0.5,-0.332031 0.71875,-0.4375 0.226562,-0.113281 0.398438,-0.195313 0.515625,-0.25 0.15625,-0.0625 0.363281,-0.132813 0.625,-0.21875 0.269531,-0.082031 0.5625,-0.144531 0.875,-0.1875 0.320313,-0.039063 0.65625,-0.046875 1,-0.015625 C 6.648438,-1.21875 7,-1.117188 7.34375,-0.953125 7.6875,-0.796875 8.003906,-0.550781 8.296875,-0.21875 8.597656,0.101562 8.863281,0.539062 9.09375,1.09375 9.375,1.800781 9.472656,2.421875 9.390625,2.953125 9.316406,3.492188 9.140625,3.945312 8.859375,4.3125 8.578125,4.6875 8.226562,5.003906 7.8125,5.265625 7.394531,5.535156 7,5.757812 6.625,5.9375 6.570312,5.957031 6.515625,5.984375 6.453125,6.015625 6.390625,6.046875 6.332031,6.070312 6.28125,6.09375 L 4.0625,0.578125 C 3.75,0.703125 3.453125,0.875 3.171875,1.09375 2.890625,1.3125 2.65625,1.5625 2.46875,1.84375 2.28125,2.125 2.160156,2.441406 2.109375,2.796875 2.054688,3.148438 2.113281,3.53125 2.28125,3.9375 c 0.113281,0.289062 0.253906,0.535156 0.421875,0.734375 0.175781,0.207031 0.363281,0.363281 0.5625,0.46875 0.207031,0.113281 0.414063,0.179687 0.625,0.203125 0.21875,0.019531 0.441406,0.015625 0.671875,-0.015625 z m 0,0"
           id="path125" />
      </g>
    </g>
  </g>
  <g
     fill="#ffffff"
     fill-opacity="1"
     id="g131"
     transform="translate(-29.157661,-25.476562)">
    <g
       transform="translate(52.456382,145.23508)"
       id="g130">
      <g
         id="g129">
        <path
           d="m 7.90625,-1.65625 -0.9375,0.515625 c 0.46875,0.054687 0.925781,0.210937 1.375,0.46875 0.445312,0.25 0.820312,0.640625 1.125,1.171875 0.25,0.4375 0.382812,0.835938 0.40625,1.203125 C 9.894531,2.066406 9.835938,2.394531 9.703125,2.6875 9.566406,2.988281 9.363281,3.253906 9.09375,3.484375 8.820312,3.710938 8.519531,3.921875 8.1875,4.109375 L 3.71875,6.625 3.0625,5.46875 7.171875,3.15625 C 7.347656,3.0625 7.550781,2.9375 7.78125,2.78125 8.019531,2.632812 8.21875,2.457031 8.375,2.25 8.539062,2.050781 8.640625,1.816406 8.671875,1.546875 8.710938,1.273438 8.628906,0.957031 8.421875,0.59375 8.335938,0.4375 8.207031,0.257812 8.03125,0.0625 7.863281,-0.132812 7.632812,-0.285156 7.34375,-0.390625 7.050781,-0.492188 6.703125,-0.523438 6.296875,-0.484375 c -0.40625,0.042969 -0.886719,0.21875 -1.4375,0.53125 L 1.1875,2.109375 0.53125,0.953125 7.25,-2.8125 Z m 0,0"
           id="path128" />
      </g>
    </g>
  </g>
  <g
     fill="#ffffff"
     fill-opacity="1"
     id="g134"
     transform="translate(-29.157661,-25.476562)">
    <g
       transform="translate(57.038376,153.15681)"
       id="g133">
      <g
         id="g132">
        <path
           d="M 7.21875,-3.125 9.109375,-4.453125 9.875,-3.375 l -1.890625,1.328125 0.9375,1.34375 -0.78125,0.53125 -0.9375,-1.34375 L 3.1875,1.3125 C 3.082031,1.382812 2.976562,1.457031 2.875,1.53125 2.769531,1.613281 2.691406,1.703125 2.640625,1.796875 2.585938,1.890625 2.566406,2 2.578125,2.125 2.597656,2.257812 2.671875,2.414062 2.796875,2.59375 2.867188,2.695312 2.957031,2.800781 3.0625,2.90625 3.164062,3.007812 3.269531,3.101562 3.375,3.1875 L 2.609375,3.71875 C 2.421875,3.601562 2.234375,3.457031 2.046875,3.28125 1.859375,3.113281 1.695312,2.9375 1.5625,2.75 1.332031,2.425781 1.203125,2.140625 1.171875,1.890625 1.148438,1.648438 1.191406,1.4375 1.296875,1.25 1.398438,1.0625 1.535156,0.894531 1.703125,0.75 c 0.175781,-0.136719 0.34375,-0.261719 0.5,-0.375 L 6.4375,-2.59375 5.640625,-3.71875 6.421875,-4.25 Z m 0,0"
           id="path131" />
      </g>
    </g>
  </g>
  <g
     fill="#ffffff"
     fill-opacity="1"
     id="g137"
     transform="translate(-29.157661,-25.476562)">
    <g
       transform="translate(60.030441,157.42081)"
       id="g136">
      <g
         id="g135">
        <path
           d="M 8.890625,-0.3125 C 8.585938,-0.664062 8.285156,-0.941406 7.984375,-1.140625 7.679688,-1.347656 7.367188,-1.476562 7.046875,-1.53125 6.722656,-1.59375 6.382812,-1.570312 6.03125,-1.46875 5.6875,-1.363281 5.316406,-1.175781 4.921875,-0.90625 4.804688,-0.8125 4.695312,-0.722656 4.59375,-0.640625 4.5,-0.554688 4.394531,-0.46875 4.28125,-0.375 L 1.546875,1.875 0.703125,0.84375 6.640625,-4.0625 7.484375,-3.03125 6.34375,-2.078125 6.359375,-2.0625 C 6.640625,-2.164062 6.914062,-2.21875 7.1875,-2.21875 7.46875,-2.226562 7.738281,-2.191406 8,-2.109375 8.257812,-2.023438 8.503906,-1.90625 8.734375,-1.75 c 0.226563,0.148438 0.4375,0.320312 0.625,0.515625 l 0.265625,0.3125 z m 0,0"
           id="path134" />
      </g>
    </g>
  </g>
  <g
     fill="#ffffff"
     fill-opacity="1"
     id="g140"
     transform="translate(-29.157661,-25.476562)">
    <g
       transform="translate(63.858632,162.14276)"
       id="g139">
      <g
         id="g138">
        <path
           d="M 6.921875,1.28125 C 6.796875,1.257812 6.679688,1.222656 6.578125,1.171875 6.472656,1.128906 6.367188,1.066406 6.265625,0.984375 6.160156,0.910156 6.039062,0.816406 5.90625,0.703125 5.769531,0.597656 5.617188,0.488281 5.453125,0.375 5.210938,0.195312 4.976562,0.03125 4.75,-0.125 4.53125,-0.28125 4.316406,-0.394531 4.109375,-0.46875 3.898438,-0.539062 3.6875,-0.550781 3.46875,-0.5 3.25,-0.457031 3.035156,-0.328125 2.828125,-0.109375 2.503906,0.210938 2.359375,0.5625 2.390625,0.9375 c 0.03125,0.375 0.195313,0.710938 0.5,1.015625 0.195313,0.1875 0.414063,0.347656 0.65625,0.484375 0.238281,0.132812 0.503906,0.210938 0.796875,0.234375 0.300781,0.019531 0.628906,-0.042969 0.984375,-0.1875 0.351563,-0.136719 0.726563,-0.386719 1.125,-0.75 z M 4.40625,-3.296875 c 0.175781,-0.175781 0.398438,-0.335937 0.671875,-0.484375 0.28125,-0.15625 0.597656,-0.242188 0.953125,-0.265625 0.351562,-0.019531 0.738281,0.0625 1.15625,0.25 0.425781,0.179687 0.878906,0.507813 1.359375,0.984375 0.226563,0.21875 0.445313,0.476562 0.65625,0.765625 C 9.421875,-1.753906 9.570312,-1.4375 9.65625,-1.09375 9.75,-0.75 9.75,-0.382812 9.65625,0 9.5625,0.382812 9.316406,0.773438 8.921875,1.171875 l -2.578125,2.5 C 6.238281,3.773438 6.148438,3.867188 6.078125,3.953125 6.003906,4.035156 5.957031,4.117188 5.9375,4.203125 5.914062,4.296875 5.925781,4.394531 5.96875,4.5 6.019531,4.613281 6.125,4.738281 6.28125,4.875 L 5.625,5.546875 C 5.550781,5.492188 5.476562,5.441406 5.40625,5.390625 5.34375,5.347656 5.257812,5.273438 5.15625,5.171875 5.03125,5.046875 4.914062,4.914062 4.8125,4.78125 4.71875,4.644531 4.65625,4.507812 4.625,4.375 4.601562,4.25 4.617188,4.109375 4.671875,3.953125 4.722656,3.796875 4.820312,3.613281 4.96875,3.40625 4.707031,3.476562 4.441406,3.503906 4.171875,3.484375 3.910156,3.472656 3.660156,3.425781 3.421875,3.34375 3.179688,3.269531 2.953125,3.160156 2.734375,3.015625 2.515625,2.867188 2.316406,2.703125 2.140625,2.515625 1.554688,1.953125 1.210938,1.363281 1.109375,0.75 c -0.09375,-0.617188 0.144531,-1.210938 0.71875,-1.796875 0.226563,-0.238281 0.46875,-0.414063 0.71875,-0.53125 0.257813,-0.125 0.5625,-0.160156 0.90625,-0.109375 0.351563,0.054688 0.753906,0.199219 1.203125,0.4375 0.445312,0.242188 0.96875,0.617188 1.5625,1.125 0.207031,0.1875 0.390625,0.335938 0.546875,0.453125 0.15625,0.125 0.296875,0.195313 0.421875,0.21875 0.125,0.03125 0.25,0.019531 0.375,-0.03125 C 7.695312,0.460938 7.851562,0.347656 8.03125,0.171875 8.09375,0.0976562 8.175781,0 8.28125,-0.125 8.394531,-0.257812 8.472656,-0.425781 8.515625,-0.625 8.554688,-0.832031 8.535156,-1.0625 8.453125,-1.3125 8.378906,-1.570312 8.1875,-1.847656 7.875,-2.140625 7.789062,-2.234375 7.660156,-2.351562 7.484375,-2.5 7.316406,-2.644531 7.113281,-2.753906 6.875,-2.828125 c -0.230469,-0.082031 -0.480469,-0.101563 -0.75,-0.0625 -0.273438,0.042969 -0.542969,0.210937 -0.8125,0.5 z m 0,0"
           id="path137" />
      </g>
    </g>
  </g>
  <g
     fill="#ffffff"
     fill-opacity="1"
     id="g143"
     transform="translate(-29.157661,-25.476562)">
    <g
       transform="translate(70.208037,168.22234)"
       id="g142">
      <g
         id="g141">
        <path
           d="M 8.640625,-6.65625 1.875,1.546875 0.84375,0.703125 7.609375,-7.5 Z m 0,0"
           id="path140" />
      </g>
    </g>
  </g>
  <g
     fill="#ffffff"
     fill-opacity="1"
     id="g146"
     transform="translate(-29.157661,-25.476562)">
    <g
       transform="translate(73.111131,170.60801)"
       id="g145">
      <g
         id="g144" />
    </g>
  </g>
  <g
     fill="#ffffff"
     fill-opacity="1"
     id="g149"
     transform="translate(-29.157661,-25.476562)">
    <g
       transform="translate(76.237427,173.06891)"
       id="g148">
      <g
         id="g147">
        <path
           d="M 10.234375,-0.921875 9.625,0.09375 4.859375,-2.78125 2.953125,0.375 l 5.40625,3.25 -0.625,1.03125 -6.625,-3.984375 5.484375,-9.09375 6.484375,3.90625 -0.625,1.03125 L 7.1875,-6.65625 5.46875,-3.796875 Z m 0,0"
           id="path146" />
      </g>
    </g>
  </g>
  <g
     fill="#ffffff"
     fill-opacity="1"
     id="g152"
     transform="translate(-29.157661,-25.476562)">
    <g
       transform="translate(84.747404,178.12849)"
       id="g151">
      <g
         id="g150">
        <path
           d="M 5.75,2.5 6.1875,1.5 6.15625,1.484375 C 5.851562,1.710938 5.535156,1.859375 5.203125,1.921875 4.878906,1.984375 4.582031,2.003906 4.3125,1.984375 4.039062,1.972656 3.800781,1.929688 3.59375,1.859375 3.394531,1.785156 3.265625,1.734375 3.203125,1.703125 2.679688,1.484375 2.304688,1.21875 2.078125,0.90625 1.847656,0.601562 1.707031,0.285156 1.65625,-0.046875 c -0.042969,-0.34375 -0.023438,-0.675781 0.0625,-1 0.09375,-0.332031 0.195312,-0.628906 0.3125,-0.890625 l 2.03125,-4.6875 1.21875,0.53125 -1.875,4.328125 c -0.1875,0.4375 -0.308594,0.8125 -0.359375,1.125 -0.042969,0.3125 -0.03125,0.578125 0.03125,0.796875 0.0625,0.21875 0.164063,0.390625 0.3125,0.515625 0.15625,0.132813 0.347656,0.25 0.578125,0.34375 0.507812,0.226563 0.953125,0.289063 1.328125,0.1875 0.375,-0.105469 0.6875,-0.28125 0.9375,-0.53125 0.257813,-0.25 0.460937,-0.511719 0.609375,-0.78125 0.144531,-0.28125 0.242188,-0.476563 0.296875,-0.59375 L 8.8125,-4.5625 l 1.21875,0.515625 -3.0625,7.0625 z m 0,0"
           id="path149" />
      </g>
    </g>
  </g>
  <g
     fill="#ffffff"
     fill-opacity="1"
     id="g155"
     transform="translate(-29.157661,-25.476562)">
    <g
       transform="translate(93.207874,181.68306)"
       id="g154">
      <g
         id="g153">
        <path
           d="M 7.265625,-5.125 C 6.828125,-5.25 6.425781,-5.3125 6.0625,-5.3125 5.695312,-5.320312 5.363281,-5.257812 5.0625,-5.125 4.757812,-5 4.488281,-4.796875 4.25,-4.515625 4.007812,-4.242188 3.804688,-3.882812 3.640625,-3.4375 3.585938,-3.3125 3.539062,-3.179688 3.5,-3.046875 c -0.042969,0.117187 -0.085938,0.242187 -0.125,0.375 L 2.3125,0.71875 1.046875,0.328125 3.34375,-7.015625 4.609375,-6.625 l -0.4375,1.40625 0.03125,0.015625 c 0.164063,-0.238281 0.367187,-0.4375 0.609375,-0.59375 0.238281,-0.15625 0.488281,-0.265625 0.75,-0.328125 0.257812,-0.070312 0.523438,-0.109375 0.796875,-0.109375 0.28125,-0.00781 0.546875,0.023437 0.796875,0.09375 l 0.390625,0.09375 z m 0,0"
           id="path152" />
      </g>
    </g>
  </g>
  <g
     fill="#ffffff"
     fill-opacity="1"
     id="g158"
     transform="translate(-29.157661,-25.476562)">
    <g
       transform="translate(99.007031,183.56487)"
       id="g157">
      <g
         id="g156">
        <path
           d="m 2.765625,-3.390625 c -0.148437,0.75 -0.167969,1.359375 -0.0625,1.828125 0.113281,0.46875 0.273437,0.835938 0.484375,1.09375 0.21875,0.25 0.453125,0.421875 0.703125,0.515625 C 4.140625,0.148438 4.34375,0.21875 4.5,0.25 4.632812,0.269531 4.835938,0.28125 5.109375,0.28125 5.378906,0.289062 5.660156,0.21875 5.953125,0.0625 6.253906,-0.0820312 6.539062,-0.351562 6.8125,-0.75 c 0.28125,-0.394531 0.492188,-0.96875 0.640625,-1.71875 0.15625,-0.75 0.175781,-1.351562 0.0625,-1.8125 C 7.410156,-4.75 7.25,-5.113281 7.03125,-5.375 6.820312,-5.632812 6.59375,-5.8125 6.34375,-5.90625 6.09375,-6 5.898438,-6.054688 5.765625,-6.078125 5.609375,-6.109375 5.394531,-6.128906 5.125,-6.140625 4.851562,-6.148438 4.566406,-6.078125 4.265625,-5.921875 3.972656,-5.765625 3.6875,-5.488281 3.40625,-5.09375 3.132812,-4.707031 2.921875,-4.140625 2.765625,-3.390625 Z m -1.375,-0.265625 c 0.101563,-0.5 0.265625,-0.976562 0.484375,-1.4375 0.226562,-0.457031 0.523438,-0.847656 0.890625,-1.171875 0.375,-0.332031 0.820313,-0.566406 1.34375,-0.703125 C 4.640625,-7.113281 5.25,-7.117188 5.9375,-6.984375 c 0.664062,0.125 1.210938,0.359375 1.640625,0.703125 0.4375,0.335938 0.757813,0.726562 0.96875,1.171875 0.21875,0.4375 0.34375,0.914063 0.375,1.421875 0.039063,0.511719 0.00781,1.015625 -0.09375,1.515625 -0.105469,0.511719 -0.273437,0.996094 -0.5,1.453125 C 8.109375,-0.257812 7.8125,0.128906 7.4375,0.453125 7.070312,0.785156 6.625,1.019531 6.09375,1.15625 5.570312,1.289062 4.976562,1.296875 4.3125,1.171875 3.625,1.035156 3.0625,0.800781 2.625,0.46875 2.195312,0.132812 1.875,-0.25 1.65625,-0.6875 1.445312,-1.132812 1.320312,-1.613281 1.28125,-2.125 1.25,-2.632812 1.285156,-3.144531 1.390625,-3.65625 Z m 0,0"
           id="path155" />
      </g>
    </g>
  </g>
  <g
     fill="#ffffff"
     fill-opacity="1"
     id="g161"
     transform="translate(-29.157661,-25.476562)">
    <g
       transform="translate(108.33785,185.3843)"
       id="g160">
      <g
         id="g159">
        <path
           d="m 2.59375,-3.6875 c -0.042969,0.605469 0,1.117188 0.125,1.53125 0.125,0.40625 0.296875,0.746094 0.515625,1.015625 0.21875,0.273437 0.460937,0.46875 0.734375,0.59375 C 4.238281,-0.421875 4.5,-0.351562 4.75,-0.34375 5.019531,-0.320312 5.289062,-0.351562 5.5625,-0.4375 5.84375,-0.53125 6.097656,-0.691406 6.328125,-0.921875 6.554688,-1.160156 6.753906,-1.476562 6.921875,-1.875 7.085938,-2.28125 7.191406,-2.796875 7.234375,-3.421875 7.296875,-4.398438 7.140625,-5.1875 6.765625,-5.78125 6.398438,-6.382812 5.835938,-6.707031 5.078125,-6.75 c -0.167969,-0.00781 -0.386719,0.011719 -0.65625,0.0625 -0.261719,0.042969 -0.523437,0.167969 -0.78125,0.375 -0.25,0.210938 -0.480469,0.523438 -0.6875,0.9375 -0.199219,0.40625 -0.320313,0.96875 -0.359375,1.6875 z m 0.234375,-3.859375 -0.0625,1.0625 0.03125,0.015625 c 0.21875,-0.28125 0.445313,-0.5 0.6875,-0.65625 0.238281,-0.164062 0.46875,-0.296875 0.6875,-0.390625 0.226563,-0.09375 0.445313,-0.144531 0.65625,-0.15625 0.21875,-0.019531 0.414063,-0.023437 0.59375,-0.015625 0.46875,0.03125 0.910156,0.140625 1.328125,0.328125 0.414062,0.1875 0.769531,0.464844 1.0625,0.828125 0.289062,0.355469 0.507812,0.804688 0.65625,1.34375 0.15625,0.53125 0.210938,1.152344 0.171875,1.859375 -0.054687,0.75 -0.195313,1.386719 -0.421875,1.90625 C 8,-0.910156 7.71875,-0.5 7.375,-0.1875 7.03125,0.125 6.644531,0.34375 6.21875,0.46875 5.789062,0.59375 5.363281,0.640625 4.9375,0.609375 4.851562,0.609375 4.707031,0.59375 4.5,0.5625 4.289062,0.53125 4.0625,0.457031 3.8125,0.34375 3.570312,0.226562 3.328125,0.0703125 3.078125,-0.125 2.835938,-0.332031 2.640625,-0.609375 2.484375,-0.953125 L 2.25,2.96875 0.921875,2.875 l 0.65625,-10.5 z m 0,0"
           id="path158" />
      </g>
    </g>
  </g>
  <g
     fill="#ffffff"
     fill-opacity="1"
     id="g164"
     transform="translate(-29.157661,-25.476562)">
    <g
       transform="translate(117.98539,185.94335)"
       id="g163">
      <g
         id="g162">
        <path
           d="M 6.265625,-4.90625 C 6.234375,-5.164062 6.175781,-5.445312 6.09375,-5.75 6.019531,-6.050781 5.894531,-6.320312 5.71875,-6.5625 5.550781,-6.8125 5.320312,-7.007812 5.03125,-7.15625 4.738281,-7.3125 4.378906,-7.375 3.953125,-7.34375 3.460938,-7.3125 3.070312,-7.195312 2.78125,-7 2.488281,-6.800781 2.257812,-6.566406 2.09375,-6.296875 1.9375,-6.023438 1.835938,-5.738281 1.796875,-5.4375 1.753906,-5.132812 1.742188,-4.859375 1.765625,-4.609375 Z M 7.75,-2.765625 c -0.03125,0.273437 -0.105469,0.5625 -0.21875,0.875 -0.117188,0.3125 -0.296875,0.601563 -0.546875,0.859375 -0.242187,0.261719 -0.558594,0.484375 -0.953125,0.671875 -0.386719,0.1875 -0.882812,0.3046875 -1.484375,0.34375 -0.636719,0.0390625 -1.179687,-0.0039062 -1.625,-0.140625 -0.4375,-0.144531 -0.8125,-0.335938 -1.125,-0.578125 -0.304687,-0.25 -0.546875,-0.53125 -0.734375,-0.84375 -0.1875,-0.3125 -0.328125,-0.613281 -0.421875,-0.90625 -0.09375,-0.300781 -0.15625,-0.570313 -0.1875,-0.8125 -0.03125,-0.25 -0.054687,-0.4375 -0.0625,-0.5625 C 0.378906,-4.023438 0.375,-4.25 0.375,-4.53125 0.382812,-4.8125 0.414062,-5.109375 0.46875,-5.421875 0.53125,-5.734375 0.628906,-6.050781 0.765625,-6.375 0.910156,-6.695312 1.113281,-6.992188 1.375,-7.265625 c 0.257812,-0.28125 0.585938,-0.507813 0.984375,-0.6875 0.394531,-0.1875 0.894531,-0.300781 1.5,-0.34375 0.757813,-0.050781 1.378906,0.042969 1.859375,0.28125 0.488281,0.242187 0.867188,0.554687 1.140625,0.9375 0.269531,0.386719 0.460937,0.820313 0.578125,1.296875 0.125,0.480469 0.210938,0.921875 0.265625,1.328125 0,0.054687 0.00391,0.117187 0.015625,0.1875 0.00781,0.0625 0.019531,0.125 0.03125,0.1875 l -5.921875,0.40625 c 0.019531,0.324219 0.085937,0.65625 0.203125,1 0.113281,0.335937 0.273438,0.632813 0.484375,0.890625 0.207031,0.261719 0.46875,0.476562 0.78125,0.640625 C 3.617188,-0.984375 4,-0.914062 4.4375,-0.9375 4.75,-0.96875 5.03125,-1.03125 5.28125,-1.125 c 0.25,-0.101562 0.457031,-0.234375 0.625,-0.390625 0.164062,-0.15625 0.296875,-0.332031 0.390625,-0.53125 0.09375,-0.195313 0.148437,-0.410156 0.171875,-0.640625 z m 0,0"
           id="path161" />
      </g>
    </g>
  </g>
  <g
     fill="#ffffff"
     fill-opacity="1"
     id="g167"
     transform="translate(-29.157661,-25.476562)">
    <g
       transform="translate(127.01241,185.19719)"
       id="g166">
      <g
         id="g165" />
    </g>
  </g>
  <g
     fill="#ffffff"
     fill-opacity="1"
     id="g170"
     transform="translate(-29.157661,-25.476562)">
    <g
       transform="translate(130.9854,184.70338)"
       id="g169">
      <g
         id="g168">
        <path
           d="m 1.1875,-3.796875 c 0.082031,0.34375 0.222656,0.648437 0.421875,0.90625 0.207031,0.261719 0.460937,0.464844 0.765625,0.609375 0.3125,0.148438 0.671875,0.234375 1.078125,0.265625 0.40625,0.03125 0.835937,-0.015625 1.296875,-0.140625 0.46875,-0.125 0.84375,-0.28125 1.125,-0.46875 0.289062,-0.195312 0.507812,-0.410156 0.65625,-0.640625 0.15625,-0.226563 0.25,-0.46875 0.28125,-0.71875 0.039062,-0.25 0.023438,-0.5 -0.046875,-0.75 C 6.679688,-5.046875 6.546875,-5.289062 6.359375,-5.46875 6.179688,-5.644531 5.976562,-5.773438 5.75,-5.859375 5.519531,-5.941406 5.269531,-5.988281 5,-6 4.726562,-6.00781 4.46875,-6.00781 4.21875,-6 c -0.617188,0.023438 -1.203125,0.046875 -1.765625,0.078125 -0.5625,0.03125 -1.074219,0 -1.53125,-0.09375 C 0.460938,-6.117188 0.0664062,-6.3125 -0.265625,-6.59375 -0.597656,-6.875 -0.84375,-7.304688 -1,-7.890625 -1.125,-8.367188 -1.140625,-8.816406 -1.046875,-9.234375 -0.960938,-9.660156 -0.78125,-10.039062 -0.5,-10.375 c 0.273438,-0.34375 0.625,-0.640625 1.0625,-0.890625 0.445312,-0.25 0.957031,-0.453125 1.53125,-0.609375 0.632812,-0.164062 1.207031,-0.226562 1.71875,-0.1875 0.519531,0.04297 0.96875,0.15625 1.34375,0.34375 0.375,0.1875 0.691406,0.445312 0.953125,0.765625 0.257813,0.324219 0.457031,0.679687 0.59375,1.0625 l -1.375,0.359375 c -0.167969,-0.40625 -0.386719,-0.703125 -0.65625,-0.890625 -0.261719,-0.1875 -0.539063,-0.3125 -0.828125,-0.375 -0.292969,-0.0625 -0.574219,-0.06641 -0.84375,-0.01563 -0.261719,0.04297 -0.476562,0.08594 -0.640625,0.125 -0.699219,0.1875 -1.226563,0.496094 -1.578125,0.921875 -0.355469,0.417969 -0.464844,0.886719 -0.328125,1.40625 0.082031,0.3125 0.21875,0.546875 0.40625,0.703125 0.195313,0.15625 0.425781,0.265625 0.6875,0.328125 0.269531,0.054687 0.566406,0.074219 0.890625,0.0625 0.320312,-0.019531 0.664062,-0.035156 1.03125,-0.046875 0.476562,-0.03125 0.960938,-0.050781 1.453125,-0.0625 0.5,-0.00781 0.96875,0.054688 1.40625,0.1875 0.4375,0.125 0.816406,0.34375 1.140625,0.65625 0.332031,0.304688 0.582031,0.765625 0.75,1.390625 0.132812,0.5 0.164062,0.949219 0.09375,1.34375 C 8.25,-3.398438 8.117188,-3.050781 7.921875,-2.75 7.734375,-2.445312 7.5,-2.191406 7.21875,-1.984375 6.945312,-1.773438 6.664062,-1.601562 6.375,-1.46875 6.09375,-1.34375 5.820312,-1.238281 5.5625,-1.15625 5.3125,-1.082031 5.113281,-1.03125 4.96875,-1 4.601562,-0.894531 4.175781,-0.8125 3.6875,-0.75 3.207031,-0.6875 2.71875,-0.722656 2.21875,-0.859375 1.726562,-0.992188 1.265625,-1.253906 0.828125,-1.640625 0.398438,-2.035156 0.0625,-2.632812 -0.1875,-3.4375 Z m 0,0"
           id="path167" />
      </g>
    </g>
  </g>
  <g
     fill="#ffffff"
     fill-opacity="1"
     id="g173"
     transform="translate(-29.157661,-25.476562)">
    <g
       transform="translate(141.24753,181.93711)"
       id="g172">
      <g
         id="g171">
        <path
           d="m 0.359375,-6.0625 2.40625,-1.03125 C 3.535156,-7.425781 4.03125,-7.832031 4.25,-8.3125 4.46875,-8.789062 4.4375,-9.347656 4.15625,-9.984375 c -0.25,-0.601563 -0.621094,-0.960937 -1.109375,-1.078125 -0.492187,-0.113281 -1.105469,-0.01563 -1.84375,0.296875 l -2.40625,1.03125 z m 0.625,-5.90625 c 0.507813,-0.21875 0.988281,-0.359375 1.4375,-0.421875 0.445313,-0.07031 0.859375,-0.05469 1.234375,0.04687 0.382812,0.09375 0.734375,0.289062 1.046875,0.578125 0.3125,0.292969 0.578125,0.6875 0.796875,1.1875 0.1875,0.460937 0.300781,0.90625 0.34375,1.34375 0.039062,0.429687 -0.015625,0.835937 -0.171875,1.21875 -0.15625,0.375 -0.417969,0.730469 -0.78125,1.0625 -0.367187,0.335937 -0.867187,0.636719 -1.5,0.90625 L 0.84375,-4.953125 2.5,-1.0625 1.1875,-0.515625 -2.984375,-10.28125 Z m 0,0"
           id="path170" />
      </g>
    </g>
  </g>
  <g
     fill="#ffffff"
     fill-opacity="1"
     id="g176"
     transform="translate(-29.157661,-25.476562)">
    <g
       transform="translate(150.54732,177.79465)"
       id="g175">
      <g
         id="g174">
        <path
           d="m 0.59375,-2.234375 1.3125,-0.734375 0.8125,1.453125 -1.3125,0.734375 z m 0,0"
           id="path173" />
      </g>
    </g>
  </g>
  <g
     fill="#ffffff"
     fill-opacity="1"
     id="g179"
     transform="translate(-29.157661,-25.476562)">
    <g
       transform="translate(154.89557,175.33313)"
       id="g178">
      <g
         id="g177" />
    </g>
  </g>
  <g
     fill="#ffffff"
     fill-opacity="1"
     id="g182"
     transform="translate(-29.157661,-25.476562)">
    <g
       transform="translate(158.28953,173.27794)"
       id="g181">
      <g
         id="g180">
        <path
           d="m -0.015625,-13.484375 0.703125,0.90625 0.265625,10.3125 5.09375,-4 L 6.78125,-5.3125 0.3125,-0.234375 -0.5,-1.265625 -0.59375,-11.5 -5.234375,-7.875 -5.96875,-8.828125 Z m 0,0"
           id="path179" />
      </g>
    </g>
  </g>
  <g
     fill="#ffffff"
     fill-opacity="1"
     id="g185"
     transform="translate(-29.157661,-25.476562)">
    <g
       transform="translate(165.61619,167.36034)"
       id="g184">
      <g
         id="g183" />
    </g>
  </g>
  <g
     fill="#ffffff"
     fill-opacity="1"
     id="g188"
     transform="translate(-29.157661,-25.476562)">
    <g
       transform="translate(168.7,164.71349)"
       id="g187">
      <g
         id="g186">
        <path
           d="m -2.625,-5.125 c 0.324219,0.28125 0.710938,0.558594 1.15625,0.828125 0.4375,0.273437 0.914062,0.453125 1.421875,0.546875 0.507813,0.09375 1.03125,0.0625 1.5625,-0.09375 0.53125,-0.15625 1.039063,-0.523438 1.53125,-1.109375 0.082031,-0.09375 0.1875,-0.226563 0.3125,-0.40625 0.125,-0.1875 0.234375,-0.410156 0.328125,-0.671875 0.101562,-0.257812 0.171875,-0.554688 0.203125,-0.890625 0.03125,-0.332031 -0.00781,-0.6875 -0.109375,-1.0625 C 3.6875,-8.359375 3.492188,-8.757812 3.203125,-9.1875 2.921875,-9.613281 2.507812,-10.0625 1.96875,-10.53125 1.488281,-10.925781 0.992188,-11.242188 0.484375,-11.484375 -0.0234375,-11.734375 -0.519531,-11.875 -1,-11.90625 c -0.488281,-0.03906 -0.960938,0.03906 -1.421875,0.234375 -0.46875,0.199219 -0.894531,0.527344 -1.28125,0.984375 -0.34375,0.40625 -0.578125,0.8125 -0.703125,1.21875 -0.132812,0.40625 -0.1875,0.796875 -0.15625,1.171875 0.023438,0.367187 0.109375,0.714844 0.265625,1.046875 0.148437,0.335938 0.320313,0.640625 0.515625,0.921875 0.199219,0.273437 0.40625,0.511719 0.625,0.71875 0.210938,0.210937 0.386719,0.371094 0.53125,0.484375 z m -0.984375,1.15625 c -0.707031,-0.59375 -1.25,-1.207031 -1.625,-1.84375 -0.375,-0.644531 -0.59375,-1.289062 -0.65625,-1.9375 -0.070313,-0.65625 0,-1.296875 0.21875,-1.921875 0.21875,-0.625 0.570313,-1.21875 1.046875,-1.78125 0.375,-0.445313 0.828125,-0.84375 1.359375,-1.1875 0.53125,-0.34375 1.117187,-0.5625 1.75,-0.65625 0.636719,-0.09375 1.328125,-0.01953 2.078125,0.21875 0.75,0.230469 1.539062,0.695313 2.375,1.390625 0.695312,0.605469 1.21875,1.199219 1.5625,1.78125 0.351562,0.574219 0.578125,1.125 0.671875,1.65625 0.101563,0.523438 0.109375,1.011719 0.015625,1.46875 -0.085938,0.460938 -0.203125,0.871094 -0.359375,1.234375 -0.15625,0.355469 -0.324219,0.652344 -0.5,0.890625 -0.179687,0.230469 -0.304687,0.386719 -0.375,0.46875 -0.074219,0.09375 -0.214844,0.25 -0.421875,0.46875 C 3.332031,-3.507812 3.066406,-3.296875 2.734375,-3.078125 2.398438,-2.867188 2.019531,-2.6875 1.59375,-2.53125 1.164062,-2.375 0.679688,-2.296875 0.140625,-2.296875 c -0.539063,-0.00781 -1.125,-0.140625 -1.75,-0.390625 -0.632813,-0.25 -1.300781,-0.675781 -2,-1.28125 z m 0,0"
           id="path185" />
      </g>
    </g>
  </g>
  <g
     fill="#ffffff"
     fill-opacity="1"
     id="g191"
     transform="translate(-29.157661,-25.476562)">
    <g
       transform="translate(176.30122,155.36832)"
       id="g190">
      <g
         id="g189">
        <path
           d="m -0.5,-2.25 0.8125,-1.25 1.390625,0.90625 -0.8125,1.25 z m 0,0"
           id="path188" />
      </g>
    </g>
  </g>
  <g
     fill="#ffffff"
     fill-opacity="1"
     id="g194"
     transform="translate(-29.157661,-25.476562)">
    <g
       transform="translate(179.35163,151.05135)"
       id="g193">
      <g
         id="g192">
        <path
           d="m -3.765625,-4.34375 c 0.375,0.199219 0.8125,0.375 1.3125,0.53125 0.5,0.148438 1.011719,0.210938 1.53125,0.1875 0.511719,-0.03125 1.0039062,-0.1875 1.484375,-0.46875 0.476562,-0.28125 0.882812,-0.757812 1.21875,-1.4375 0.0625,-0.113281 0.128906,-0.273438 0.203125,-0.484375 0.070313,-0.207031 0.125,-0.445313 0.15625,-0.71875 C 2.179688,-7.015625 2.175781,-7.316406 2.125,-7.640625 2.082031,-7.972656 1.960938,-8.3125 1.765625,-8.65625 1.578125,-9 1.289062,-9.34375 0.90625,-9.6875 c -0.375,-0.351562 -0.8828125,-0.691406 -1.515625,-1.015625 -0.5625,-0.269531 -1.113281,-0.460937 -1.65625,-0.578125 -0.550781,-0.113281 -1.066406,-0.128906 -1.546875,-0.04687 -0.476562,0.07422 -0.921875,0.265625 -1.328125,0.578125 -0.40625,0.304688 -0.742187,0.726562 -1.015625,1.265625 -0.238281,0.46875 -0.367188,0.917969 -0.390625,1.34375 -0.019531,0.417969 0.027344,0.808594 0.140625,1.171875 0.117188,0.355469 0.289062,0.679688 0.515625,0.96875 0.21875,0.28125 0.460937,0.53125 0.71875,0.75 0.261719,0.210938 0.523437,0.390625 0.78125,0.546875 0.25,0.15625 0.460937,0.277344 0.625,0.359375 z M -4.4375,-2.984375 C -5.269531,-3.390625 -5.945312,-3.863281 -6.46875,-4.40625 -6.988281,-4.945312 -7.359375,-5.519531 -7.578125,-6.125 -7.796875,-6.738281 -7.875,-7.375 -7.8125,-8.03125 c 0.0625,-0.664062 0.261719,-1.328125 0.59375,-1.984375 0.261719,-0.519531 0.609375,-1.007813 1.046875,-1.46875 0.429687,-0.46875 0.9375,-0.820313 1.53125,-1.0625 0.59375,-0.25 1.289063,-0.347656 2.078125,-0.296875 0.792969,0.05469 1.671875,0.320312 2.640625,0.796875 0.820313,0.417969 1.46875,0.867187 1.9375,1.34375 0.476563,0.480469 0.828125,0.964844 1.046875,1.453125 0.21875,0.480469 0.335938,0.953125 0.359375,1.421875 0.03125,0.46875 0.00781,0.902344 -0.0625,1.296875 -0.0625,0.386719 -0.152344,0.714844 -0.265625,0.984375 -0.117188,0.261719 -0.199219,0.445313 -0.25,0.546875 -0.054688,0.09375 -0.152344,0.277344 -0.296875,0.546875 -0.148437,0.261719 -0.355469,0.53125 -0.625,0.8125 -0.261719,0.28125 -0.589844,0.554687 -0.984375,0.8125 -0.386719,0.25 -0.8398438,0.4375 -1.359375,0.5625 -0.519531,0.125 -1.113281,0.140625 -1.78125,0.046875 C -2.867188,-2.3125 -3.613281,-2.566406 -4.4375,-2.984375 Z m 0,0"
           id="path191" />
      </g>
    </g>
  </g>
  <g
     fill="#ffffff"
     fill-opacity="1"
     id="g197"
     transform="translate(-29.157661,-25.476562)">
    <g
       transform="translate(184.5112,140.16545)"
       id="g196">
      <g
         id="g195">
        <path
           d="m -1.015625,-2.078125 0.5,-1.40625 1.5625,0.5625 -0.5,1.40625 z m 0,0"
           id="path194" />
      </g>
    </g>
  </g>
  <g
     fill="#ffffff"
     fill-opacity="1"
     id="g200"
     transform="translate(-29.157661,-25.476562)">
    <g
       transform="translate(186.19173,135.41633)"
       id="g199">
      <g
         id="g198">
        <path
           d="M -0.75,-3.453125 1.296875,-2.875 c 0.289063,0.085938 0.519531,0.203125 0.6875,0.359375 0.175781,0.15625 0.3125,0.328125 0.40625,0.515625 0.09375,0.179688 0.148437,0.359375 0.171875,0.546875 0.03125,0.1875 0.046875,0.359375 0.046875,0.515625 l -0.8125,-0.234375 C 1.828125,-1.367188 1.769531,-1.5625 1.625,-1.75 1.488281,-1.945312 1.3125,-2.078125 1.09375,-2.140625 L 0.640625,-2.265625 0.4375,-1.546875 -1.15625,-2 Z m 0,0"
           id="path197" />
      </g>
    </g>
  </g>
  <g
     fill="#ffffff"
     fill-opacity="1"
     id="g203"
     transform="translate(-29.157661,-25.476562)">
    <g
       transform="translate(187.51273,130.59916)"
       id="g202">
      <g
         id="g201" />
    </g>
  </g>
  <g
     fill="#ffffff"
     fill-opacity="1"
     id="g206"
     transform="translate(-29.157661,-25.476562)">
    <g
       transform="translate(188.55289,126.67051)"
       id="g205">
      <g
         id="g204">
        <path
           d="m -5.0625,-2.71875 c 0.417969,0.042969 0.890625,0.046875 1.421875,0.015625 0.523437,-0.03125 1.023437,-0.148437 1.5,-0.359375 0.46875,-0.207031 0.875,-0.53125 1.21875,-0.96875 0.335937,-0.4375 0.542969,-1.03125 0.625,-1.78125 0.011719,-0.125 0.015625,-0.296875 0.015625,-0.515625 0,-0.21875 -0.03125,-0.460937 -0.09375,-0.734375 C -0.445312,-7.34375 -0.5625,-7.625 -0.71875,-7.90625 -0.875,-8.1875 -1.097656,-8.457031 -1.390625,-8.71875 -1.691406,-8.976562 -2.082031,-9.203125 -2.5625,-9.390625 c -0.488281,-0.1875 -1.085938,-0.316406 -1.796875,-0.390625 -0.625,-0.0625 -1.207031,-0.046875 -1.75,0.046875 -0.550781,0.085937 -1.039063,0.25 -1.46875,0.5 -0.425781,0.242187 -0.769531,0.574219 -1.03125,1 -0.269531,0.429687 -0.4375,0.945313 -0.5,1.546875 -0.050781,0.53125 -0.015625,1 0.109375,1.40625 0.125,0.398438 0.308594,0.742188 0.546875,1.03125 0.230469,0.292969 0.5,0.53125 0.8125,0.71875 0.304687,0.1875 0.617187,0.339844 0.9375,0.453125 0.324219,0.117187 0.632813,0.199219 0.921875,0.25 0.292969,0.054687 0.53125,0.089844 0.71875,0.109375 z m -0.15625,1.5 C -6.144531,-1.3125 -6.941406,-1.515625 -7.609375,-1.828125 -8.285156,-2.148438 -8.832031,-2.554688 -9.25,-3.046875 -9.675781,-3.535156 -9.972656,-4.101562 -10.140625,-4.75 c -0.175781,-0.644531 -0.226563,-1.332031 -0.15625,-2.0625 0.05469,-0.582031 0.199219,-1.160156 0.4375,-1.734375 0.242187,-0.582031 0.601563,-1.09375 1.078125,-1.53125 0.46875,-0.445313 1.078125,-0.785156 1.828125,-1.015625 0.75,-0.238281 1.667969,-0.304688 2.75,-0.203125 0.917969,0.09375 1.6875,0.28125 2.3125,0.5625 0.617187,0.28125 1.109375,0.617187 1.484375,1 0.3671875,0.375 0.640625,0.78125 0.828125,1.21875 0.195313,0.429687 0.332031,0.835937 0.40625,1.21875 0.070313,0.375 0.101563,0.710937 0.09375,1 -0.011719,0.292969 -0.023437,0.496094 -0.03125,0.609375 -0.011719,0.117188 -0.042969,0.324219 -0.09375,0.625 C 0.753906,-4.769531 0.65625,-4.441406 0.5,-4.078125 c -0.148438,0.355469 -0.355469,0.71875 -0.625,1.09375 -0.269531,0.375 -0.625,0.714844 -1.0625,1.015625 -0.445312,0.292969 -1,0.515625 -1.65625,0.671875 -0.664062,0.148437 -1.457031,0.171875 -2.375,0.078125 z m 0,0"
           id="path203" />
      </g>
    </g>
  </g>
  <g
     fill="#ffffff"
     fill-opacity="1"
     id="g209"
     transform="translate(-29.157661,-25.476562)">
    <g
       transform="translate(189.62454,114.51372)"
       id="g208">
      <g
         id="g207">
        <path
           d="m -3.953125,-2.140625 c 0.605469,-0.03125 1.105469,-0.128906 1.5,-0.296875 0.398437,-0.175781 0.714844,-0.390625 0.953125,-0.640625 0.242188,-0.25 0.40625,-0.515625 0.5,-0.796875 0.085938,-0.289062 0.121094,-0.5625 0.109375,-0.8125 -0.007813,-0.269531 -0.070313,-0.535156 -0.1875,-0.796875 -0.125,-0.257813 -0.316406,-0.488281 -0.578125,-0.6875 -0.257812,-0.195313 -0.59375,-0.351563 -1,-0.46875 -0.414062,-0.125 -0.9375,-0.171875 -1.5625,-0.140625 -0.988281,0.054688 -1.753906,0.296875 -2.296875,0.734375 -0.550781,0.4375 -0.8125,1.03125 -0.78125,1.78125 0.011719,0.167969 0.058594,0.382813 0.140625,0.640625 0.074219,0.261719 0.230469,0.507812 0.46875,0.734375 0.230469,0.230469 0.5625,0.421875 1,0.578125 0.429688,0.148438 1.007812,0.203125 1.734375,0.171875 z M -7.8125,-1.9375 -6.75,-2 v -0.03125 c -0.300781,-0.175781 -0.546875,-0.375 -0.734375,-0.59375 -0.1875,-0.226562 -0.335937,-0.453125 -0.453125,-0.671875 -0.113281,-0.21875 -0.191406,-0.429687 -0.234375,-0.640625 -0.050781,-0.207031 -0.082031,-0.398438 -0.09375,-0.578125 -0.019531,-0.46875 0.042969,-0.914063 0.1875,-1.34375 0.136719,-0.425781 0.367187,-0.804687 0.6875,-1.140625 0.324219,-0.332031 0.742187,-0.601562 1.25,-0.8125 0.511719,-0.207031 1.125,-0.332031 1.84375,-0.375 0.75,-0.039062 1.398437,0.023438 1.9375,0.1875 0.53125,0.167969 0.976563,0.40625 1.328125,0.71875 0.34375,0.304688 0.605469,0.65625 0.78125,1.0625 0.1679688,0.398438 0.2578125,0.808594 0.28125,1.234375 0.0078125,0.085937 0.0078125,0.230469 0,0.4375 0,0.210937 -0.0390625,0.445313 -0.125,0.703125 -0.09375,0.261719 -0.222656,0.527344 -0.390625,0.796875 -0.175781,0.261719 -0.425781,0.492187 -0.75,0.6875 L 2.6875,-2.5625 2.75,-1.234375 -7.75,-0.6875 Z m 0,0"
           id="path206" />
      </g>
    </g>
  </g>
  <g
     fill="#ffffff"
     fill-opacity="1"
     id="g212"
     transform="translate(-29.157661,-25.476562)">
    <g
       transform="translate(189.07172,104.8555)"
       id="g211">
      <g
         id="g210">
        <path
           d="m -4.1875,-1.3125 c 0.761719,-0.144531 1.339844,-0.347656 1.734375,-0.609375 0.398437,-0.269531 0.671875,-0.550781 0.828125,-0.84375 0.15625,-0.300781 0.234375,-0.582031 0.234375,-0.84375 C -1.398438,-3.878906 -1.414062,-4.09375 -1.4375,-4.25 -1.46875,-4.394531 -1.53125,-4.59375 -1.625,-4.84375 c -0.09375,-0.257812 -0.265625,-0.492188 -0.515625,-0.703125 -0.257813,-0.21875 -0.617187,-0.382813 -1.078125,-0.5 C -3.6875,-6.160156 -4.300781,-6.144531 -5.0625,-6 c -0.75,0.136719 -1.320312,0.34375 -1.71875,0.625 -0.394531,0.273438 -0.671875,0.554688 -0.828125,0.84375 -0.15625,0.292969 -0.226563,0.574219 -0.21875,0.84375 0,0.273438 0.015625,0.480469 0.046875,0.625 0.023438,0.15625 0.078125,0.359375 0.171875,0.609375 0.09375,0.25 0.273437,0.484375 0.53125,0.703125 0.25,0.21875 0.609375,0.382812 1.078125,0.484375 0.460938,0.105469 1.0625,0.089844 1.8125,-0.046875 z m 0.265625,1.375 c -0.5,0.101562 -1,0.132812 -1.5,0.09375 C -5.929688,0.113281 -6.40625,-0.015625 -6.84375,-0.234375 -7.289062,-0.453125 -7.675781,-0.78125 -8,-1.21875 c -0.332031,-0.4375 -0.5625,-1 -0.6875,-1.6875 -0.132812,-0.675781 -0.125,-1.273438 0.03125,-1.796875 0.148438,-0.519531 0.386719,-0.960937 0.71875,-1.328125 0.335938,-0.363281 0.730469,-0.65625 1.1875,-0.875 0.460938,-0.21875 0.9375,-0.378906 1.4375,-0.484375 0.511719,-0.09375 1.027344,-0.117187 1.546875,-0.078125 0.511719,0.042969 0.984375,0.171875 1.421875,0.390625 0.429688,0.21875 0.808594,0.546875 1.140625,0.984375 0.324219,0.4375 0.554687,0.996094 0.6875,1.671875 0.125,0.6875 0.117187,1.292969 -0.03125,1.8125 -0.15625,0.523437 -0.394531,0.964844 -0.71875,1.328125 -0.320313,0.367188 -0.71875,0.65625 -1.1875,0.875 -0.46875,0.21875 -0.957031,0.375 -1.46875,0.46875 z m 0,0"
           id="path209" />
      </g>
    </g>
  </g>
  <g
     fill="#ffffff"
     fill-opacity="1"
     id="g215"
     transform="translate(-29.157661,-25.476562)">
    <g
       transform="translate(187.21808,95.733984)"
       id="g214">
      <g
         id="g213">
        <path
           d="m -10.875,0.578125 10.21875,-2.90625 0.359375,1.28125 -10.21875,2.90625 z m 0,0"
           id="path212" />
      </g>
    </g>
  </g>
  <g
     fill="#ffffff"
     fill-opacity="1"
     id="g218"
     transform="translate(-29.157661,-25.476562)">
    <g
       transform="translate(186.23282,91.919157)"
       id="g217">
      <g
         id="g216">
        <path
           d="m -6.546875,-4.53125 c -0.238281,0.105469 -0.488281,0.242188 -0.75,0.40625 -0.257813,0.15625 -0.476563,0.355469 -0.65625,0.59375 -0.1875,0.230469 -0.3125,0.507812 -0.375,0.828125 -0.0625,0.324219 -0.015625,0.683594 0.140625,1.078125 0.179688,0.460938 0.40625,0.804688 0.6875,1.03125 0.273438,0.230469 0.5625,0.382812 0.875,0.453125 0.304688,0.0742188 0.605469,0.0898438 0.90625,0.046875 0.304688,-0.050781 0.570312,-0.125 0.796875,-0.21875 z m 1.625,-2.0625 c 0.273437,-0.050781 0.574219,-0.066406 0.90625,-0.046875 0.324219,0.023437 0.648437,0.109375 0.96875,0.265625 0.324219,0.148438 0.636719,0.382812 0.9375,0.703125 0.292969,0.3125 0.546875,0.75 0.765625,1.3125 0.21875,0.59375 0.328125,1.132813 0.328125,1.609375 0,0.46875 -0.070313,0.886719 -0.21875,1.25 -0.144531,0.367188 -0.335937,0.683594 -0.578125,0.953125 -0.25,0.273437 -0.5,0.4921875 -0.75,0.65625 -0.257812,0.175781 -0.5,0.316406 -0.71875,0.421875 -0.226562,0.113281 -0.40625,0.191406 -0.53125,0.234375 -0.15625,0.0625 -0.367188,0.128906 -0.640625,0.203125 -0.269531,0.082031 -0.5625,0.140625 -0.875,0.171875 -0.3125,0.039063 -0.640625,0.039063 -0.984375,0 C -6.664062,1.109375 -7.007812,1.003906 -7.34375,0.828125 -7.6875,0.660156 -8.003906,0.410156 -8.296875,0.078125 -8.597656,-0.242188 -8.859375,-0.6875 -9.078125,-1.25 -9.347656,-1.957031 -9.4375,-2.578125 -9.34375,-3.109375 c 0.085938,-0.53125 0.273438,-0.976563 0.5625,-1.34375 0.28125,-0.375 0.632812,-0.691406 1.046875,-0.953125 0.417969,-0.257812 0.824219,-0.472656 1.21875,-0.640625 0.042969,-0.019531 0.09375,-0.039063 0.15625,-0.0625 0.0625,-0.03125 0.121094,-0.0625 0.171875,-0.09375 l 2.140625,5.546875 c 0.3125,-0.113281 0.617187,-0.273438 0.90625,-0.484375 C -2.859375,-1.359375 -2.625,-1.601562 -2.4375,-1.875 -2.25,-2.15625 -2.125,-2.472656 -2.0625,-2.828125 -2,-3.179688 -2.046875,-3.5625 -2.203125,-3.96875 -2.316406,-4.257812 -2.457031,-4.507812 -2.625,-4.71875 -2.800781,-4.9375 -2.988281,-5.097656 -3.1875,-5.203125 -3.382812,-5.304688 -3.59375,-5.375 -3.8125,-5.40625 c -0.21875,-0.03125 -0.4375,-0.03125 -0.65625,0 z m 0,0"
           id="path215" />
      </g>
    </g>
  </g>
  <g
     fill="#ffffff"
     fill-opacity="1"
     id="g221"
     transform="translate(-29.157661,-25.476562)">
    <g
       transform="translate(182.86044,83.516628)"
       id="g220">
      <g
         id="g219" />
    </g>
  </g>
  <g
     fill="#ffffff"
     fill-opacity="1"
     id="g224"
     transform="translate(-29.157661,-25.476562)">
    <g
       transform="translate(181.18838,80.133604)"
       id="g223">
      <g
         id="g222" />
    </g>
  </g>
  <g
     fill="#ffffff"
     fill-opacity="1"
     id="g227"
     transform="translate(-29.157661,-25.476562)">
    <g
       transform="translate(179.34157,76.842727)"
       id="g226">
      <g
         id="g225" />
    </g>
  </g>
  <g
     fill="#ffffff"
     fill-opacity="1"
     id="g230"
     transform="translate(-29.157661,-25.476562)">
    <g
       transform="translate(177.32506,73.652968)"
       id="g229">
      <g
         id="g228" />
    </g>
  </g>
</svg>
