<svg xmlns="http://www.w3.org/2000/svg" xmlns:xlink="http://www.w3.org/1999/xlink" width="300" zoomAndPan="magnify" viewBox="0 0 224.87999 225" height="300" preserveAspectRatio="xMidYMid meet" version="1.0"><defs><g/><clipPath id="0dc15f51b9"><path d="M 0 0.0585938 L 224.761719 0.0585938 L 224.761719 224.9375 L 0 224.9375 Z M 0 0.0585938 " clip-rule="nonzero"/></clipPath><clipPath id="b7240a3ae3"><path d="M 29.097656 25.476562 L 202.253906 25.476562 L 202.253906 198.636719 L 29.097656 198.636719 Z M 29.097656 25.476562 " clip-rule="nonzero"/></clipPath><clipPath id="b7331fa58b"><path d="M 67.511719 63.089844 L 165.707031 63.089844 L 165.707031 161.289062 L 67.511719 161.289062 Z M 67.511719 63.089844 " clip-rule="nonzero"/></clipPath></defs><g clip-path="url(#0dc15f51b9)"><path fill="#ffffff" d="M 0 0.0585938 L 224.878906 0.0585938 L 224.878906 224.941406 L 0 224.941406 Z M 0 0.0585938 " fill-opacity="1" fill-rule="nonzero"/><path fill="#ffffff" d="M 0 0.0585938 L 224.878906 0.0585938 L 224.878906 224.941406 L 0 224.941406 Z M 0 0.0585938 " fill-opacity="1" fill-rule="nonzero"/></g><g clip-path="url(#b7240a3ae3)"><path fill="#38b6ff" d="M 202.382812 112.121094 C 202.382812 113.539062 202.347656 114.957031 202.277344 116.375 C 202.207031 117.789062 202.105469 119.203125 201.964844 120.613281 C 201.824219 122.027344 201.652344 123.433594 201.445312 124.835938 C 201.238281 126.238281 200.992188 127.632812 200.71875 129.023438 C 200.441406 130.414062 200.128906 131.796875 199.785156 133.175781 C 199.441406 134.550781 199.0625 135.914062 198.652344 137.273438 C 198.238281 138.628906 197.796875 139.976562 197.316406 141.3125 C 196.839844 142.644531 196.328125 143.96875 195.785156 145.277344 C 195.246094 146.589844 194.667969 147.882812 194.0625 149.167969 C 193.457031 150.449219 192.820312 151.714844 192.152344 152.964844 C 191.484375 154.214844 190.785156 155.449219 190.054688 156.664062 C 189.328125 157.882812 188.566406 159.078125 187.78125 160.257812 C 186.992188 161.4375 186.175781 162.597656 185.332031 163.734375 C 184.488281 164.875 183.613281 165.992188 182.714844 167.085938 C 181.816406 168.183594 180.890625 169.257812 179.9375 170.308594 C 178.984375 171.359375 178.007812 172.386719 177.003906 173.386719 C 176.003906 174.390625 174.976562 175.367188 173.925781 176.320312 C 172.875 177.273438 171.800781 178.199219 170.703125 179.097656 C 169.609375 179.996094 168.492188 180.871094 167.351562 181.714844 C 166.214844 182.558594 165.054688 183.375 163.875 184.164062 C 162.695312 184.949219 161.5 185.710938 160.28125 186.4375 C 159.066406 187.167969 157.832031 187.867188 156.582031 188.535156 C 155.332031 189.203125 154.066406 189.839844 152.785156 190.445312 C 151.5 191.050781 150.207031 191.625 148.894531 192.167969 C 147.585938 192.710938 146.261719 193.222656 144.929688 193.699219 C 143.59375 194.179688 142.246094 194.621094 140.890625 195.035156 C 139.535156 195.445312 138.167969 195.824219 136.792969 196.167969 C 135.417969 196.511719 134.03125 196.824219 132.640625 197.101562 C 131.25 197.375 129.855469 197.617188 128.453125 197.828125 C 127.050781 198.035156 125.644531 198.207031 124.230469 198.347656 C 122.820312 198.488281 121.40625 198.589844 119.992188 198.660156 C 118.574219 198.730469 117.15625 198.765625 115.738281 198.765625 C 114.320312 198.765625 112.902344 198.730469 111.488281 198.660156 C 110.070312 198.589844 108.65625 198.488281 107.246094 198.347656 C 105.835938 198.207031 104.429688 198.035156 103.027344 197.828125 C 101.625 197.617188 100.226562 197.375 98.835938 197.101562 C 97.445312 196.824219 96.0625 196.511719 94.6875 196.167969 C 93.3125 195.824219 91.945312 195.445312 90.585938 195.035156 C 89.230469 194.621094 87.886719 194.179688 86.550781 193.699219 C 85.214844 193.222656 83.890625 192.710938 82.582031 192.167969 C 81.273438 191.625 79.976562 191.050781 78.695312 190.445312 C 77.414062 189.839844 76.144531 189.203125 74.894531 188.535156 C 73.644531 187.867188 72.410156 187.167969 71.195312 186.4375 C 69.980469 185.710938 68.78125 184.949219 67.601562 184.164062 C 66.421875 183.375 65.265625 182.558594 64.125 181.714844 C 62.988281 180.871094 61.871094 179.996094 60.773438 179.097656 C 59.675781 178.199219 58.605469 177.273438 57.554688 176.320312 C 56.503906 175.367188 55.476562 174.390625 54.472656 173.386719 C 53.46875 172.386719 52.492188 171.359375 51.539062 170.308594 C 50.589844 169.257812 49.664062 168.183594 48.761719 167.085938 C 47.863281 165.992188 46.992188 164.875 46.148438 163.734375 C 45.300781 162.597656 44.484375 161.4375 43.699219 160.257812 C 42.910156 159.078125 42.152344 157.882812 41.421875 156.664062 C 40.695312 155.449219 39.996094 154.214844 39.328125 152.964844 C 38.65625 151.714844 38.019531 150.449219 37.414062 149.167969 C 36.808594 147.882812 36.234375 146.589844 35.691406 145.277344 C 35.148438 143.96875 34.636719 142.644531 34.160156 141.3125 C 33.683594 139.976562 33.238281 138.628906 32.828125 137.273438 C 32.414062 135.914062 32.035156 134.550781 31.691406 133.175781 C 31.347656 131.796875 31.039062 130.414062 30.761719 129.023438 C 30.484375 127.632812 30.242188 126.238281 30.035156 124.835938 C 29.824219 123.433594 29.652344 122.023438 29.511719 120.613281 C 29.375 119.203125 29.269531 117.789062 29.199219 116.375 C 29.128906 114.957031 29.097656 113.539062 29.097656 112.121094 C 29.097656 110.703125 29.128906 109.285156 29.199219 107.871094 C 29.269531 106.453125 29.375 105.039062 29.511719 103.628906 C 29.652344 102.21875 29.824219 100.8125 30.035156 99.410156 C 30.242188 98.007812 30.484375 96.609375 30.761719 95.21875 C 31.039062 93.828125 31.347656 92.445312 31.691406 91.070312 C 32.035156 89.695312 32.414062 88.328125 32.828125 86.96875 C 33.238281 85.613281 33.683594 84.269531 34.160156 82.933594 C 34.636719 81.597656 35.148438 80.273438 35.691406 78.964844 C 36.234375 77.65625 36.808594 76.359375 37.414062 75.078125 C 38.019531 73.796875 38.65625 72.527344 39.328125 71.277344 C 39.996094 70.027344 40.695312 68.792969 41.421875 67.578125 C 42.152344 66.363281 42.910156 65.164062 43.699219 63.984375 C 44.484375 62.804688 45.300781 61.648438 46.148438 60.507812 C 46.992188 59.371094 47.863281 58.253906 48.761719 57.15625 C 49.664062 56.058594 50.589844 54.988281 51.539062 53.9375 C 52.492188 52.886719 53.46875 51.859375 54.472656 50.855469 C 55.476562 49.851562 56.503906 48.875 57.554688 47.921875 C 58.605469 46.972656 59.675781 46.046875 60.773438 45.144531 C 61.871094 44.246094 62.988281 43.375 64.125 42.527344 C 65.265625 41.683594 66.421875 40.867188 67.601562 40.082031 C 68.78125 39.292969 69.980469 38.535156 71.195312 37.804688 C 72.410156 37.078125 73.644531 36.378906 74.894531 35.710938 C 76.144531 35.039062 77.414062 34.402344 78.695312 33.796875 C 79.976562 33.191406 81.273438 32.617188 82.582031 32.074219 C 83.890625 31.53125 85.214844 31.019531 86.550781 30.542969 C 87.886719 30.066406 89.230469 29.621094 90.585938 29.210938 C 91.945312 28.796875 93.3125 28.417969 94.6875 28.074219 C 96.0625 27.730469 97.445312 27.421875 98.835938 27.144531 C 100.226562 26.867188 101.625 26.625 103.027344 26.417969 C 104.429688 26.207031 105.835938 26.035156 107.246094 25.894531 C 108.65625 25.757812 110.070312 25.652344 111.488281 25.582031 C 112.902344 25.511719 114.320312 25.476562 115.738281 25.476562 C 117.15625 25.476562 118.574219 25.511719 119.992188 25.582031 C 121.40625 25.652344 122.820312 25.757812 124.230469 25.894531 C 125.644531 26.035156 127.050781 26.207031 128.453125 26.417969 C 129.855469 26.625 131.25 26.867188 132.640625 27.144531 C 134.03125 27.421875 135.417969 27.730469 136.792969 28.074219 C 138.167969 28.417969 139.535156 28.796875 140.890625 29.210938 C 142.246094 29.621094 143.59375 30.066406 144.929688 30.542969 C 146.261719 31.019531 147.585938 31.53125 148.894531 32.074219 C 150.207031 32.617188 151.503906 33.191406 152.785156 33.796875 C 154.066406 34.402344 155.332031 35.039062 156.582031 35.710938 C 157.832031 36.378906 159.066406 37.078125 160.28125 37.804688 C 161.5 38.535156 162.695312 39.292969 163.875 40.082031 C 165.054688 40.867188 166.214844 41.683594 167.351562 42.527344 C 168.492188 43.375 169.609375 44.246094 170.703125 45.144531 C 171.800781 46.046875 172.875 46.972656 173.925781 47.921875 C 174.976562 48.875 176.003906 49.851562 177.003906 50.855469 C 178.007812 51.859375 178.984375 52.886719 179.9375 53.9375 C 180.890625 54.988281 181.816406 56.058594 182.714844 57.15625 C 183.613281 58.253906 184.488281 59.371094 185.332031 60.507812 C 186.175781 61.648438 186.992188 62.804688 187.78125 63.984375 C 188.566406 65.164062 189.328125 66.363281 190.054688 67.578125 C 190.785156 68.792969 191.484375 70.027344 192.152344 71.277344 C 192.820312 72.527344 193.457031 73.796875 194.0625 75.078125 C 194.667969 76.359375 195.246094 77.65625 195.785156 78.964844 C 196.328125 80.273438 196.839844 81.597656 197.316406 82.933594 C 197.796875 84.269531 198.238281 85.613281 198.652344 86.96875 C 199.0625 88.328125 199.441406 89.695312 199.785156 91.070312 C 200.128906 92.445312 200.441406 93.828125 200.71875 95.21875 C 200.992188 96.609375 201.238281 98.007812 201.445312 99.410156 C 201.652344 100.8125 201.824219 102.21875 201.964844 103.628906 C 202.105469 105.039062 202.207031 106.453125 202.277344 107.871094 C 202.347656 109.285156 202.382812 110.703125 202.382812 112.121094 Z M 202.382812 112.121094 " fill-opacity="1" fill-rule="nonzero"/></g><g clip-path="url(#b7331fa58b)"><path fill="#000000" d="M 165.578125 112.125 C 165.578125 113.730469 165.5 115.332031 165.34375 116.933594 C 165.1875 118.53125 164.949219 120.117188 164.636719 121.691406 C 164.324219 123.265625 163.933594 124.824219 163.46875 126.359375 C 163.003906 127.898438 162.460938 129.40625 161.847656 130.890625 C 161.234375 132.375 160.546875 133.824219 159.789062 135.242188 C 159.03125 136.65625 158.207031 138.03125 157.316406 139.367188 C 156.425781 140.703125 155.46875 141.992188 154.449219 143.234375 C 153.429688 144.472656 152.355469 145.664062 151.21875 146.796875 C 150.082031 147.933594 148.894531 149.011719 147.652344 150.03125 C 146.410156 151.046875 145.121094 152.003906 143.789062 152.894531 C 142.453125 153.789062 141.078125 154.613281 139.660156 155.371094 C 138.242188 156.128906 136.792969 156.8125 135.308594 157.425781 C 133.828125 158.042969 132.316406 158.582031 130.78125 159.046875 C 129.242188 159.515625 127.6875 159.90625 126.113281 160.21875 C 124.535156 160.53125 122.949219 160.765625 121.351562 160.925781 C 119.753906 161.082031 118.152344 161.160156 116.546875 161.160156 C 114.941406 161.160156 113.335938 161.082031 111.738281 160.925781 C 110.140625 160.765625 108.554688 160.53125 106.980469 160.21875 C 105.402344 159.90625 103.847656 159.515625 102.3125 159.046875 C 100.773438 158.582031 99.265625 158.042969 97.78125 157.425781 C 96.296875 156.8125 94.847656 156.128906 93.429688 155.371094 C 92.015625 154.613281 90.640625 153.789062 89.304688 152.894531 C 87.96875 152.003906 86.679688 151.046875 85.4375 150.03125 C 84.195312 149.011719 83.007812 147.933594 81.871094 146.796875 C 80.738281 145.664062 79.660156 144.472656 78.640625 143.234375 C 77.621094 141.992188 76.667969 140.703125 75.773438 139.367188 C 74.882812 138.03125 74.058594 136.65625 73.300781 135.242188 C 72.542969 133.824219 71.859375 132.375 71.242188 130.890625 C 70.628906 129.40625 70.089844 127.898438 69.621094 126.359375 C 69.15625 124.824219 68.765625 123.265625 68.453125 121.691406 C 68.140625 120.117188 67.90625 118.53125 67.746094 116.933594 C 67.589844 115.332031 67.511719 113.730469 67.511719 112.125 C 67.511719 110.519531 67.589844 108.917969 67.746094 107.320312 C 67.90625 105.722656 68.140625 104.132812 68.453125 102.558594 C 68.765625 100.984375 69.15625 99.429688 69.621094 97.890625 C 70.089844 96.355469 70.628906 94.84375 71.242188 93.359375 C 71.859375 91.878906 72.542969 90.425781 73.300781 89.011719 C 74.058594 87.59375 74.882812 86.21875 75.773438 84.882812 C 76.667969 83.546875 77.621094 82.261719 78.640625 81.019531 C 79.660156 79.777344 80.738281 78.589844 81.871094 77.453125 C 83.007812 76.316406 84.195312 75.242188 85.4375 74.222656 C 86.679688 73.203125 87.96875 72.246094 89.304688 71.355469 C 90.640625 70.464844 92.015625 69.636719 93.429688 68.882812 C 94.847656 68.125 96.296875 67.4375 97.78125 66.824219 C 99.265625 66.210938 100.773438 65.667969 102.3125 65.203125 C 103.847656 64.738281 105.402344 64.347656 106.980469 64.035156 C 108.554688 63.71875 110.140625 63.484375 111.738281 63.328125 C 113.335938 63.171875 114.941406 63.089844 116.546875 63.089844 C 118.152344 63.089844 119.753906 63.171875 121.351562 63.328125 C 122.949219 63.484375 124.535156 63.71875 126.113281 64.035156 C 127.6875 64.347656 129.242188 64.738281 130.78125 65.203125 C 132.316406 65.667969 133.828125 66.210938 135.308594 66.824219 C 136.792969 67.4375 138.242188 68.125 139.660156 68.882812 C 141.078125 69.636719 142.453125 70.464844 143.789062 71.355469 C 145.121094 72.246094 146.410156 73.203125 147.652344 74.222656 C 148.894531 75.242188 150.082031 76.316406 151.21875 77.453125 C 152.355469 78.589844 153.429688 79.777344 154.449219 81.019531 C 155.46875 82.261719 156.425781 83.546875 157.316406 84.882812 C 158.207031 86.21875 159.03125 87.59375 159.789062 89.011719 C 160.546875 90.425781 161.234375 91.878906 161.847656 93.359375 C 162.460938 94.84375 163.003906 96.355469 163.46875 97.890625 C 163.933594 99.429688 164.324219 100.984375 164.636719 102.558594 C 164.949219 104.132812 165.1875 105.722656 165.34375 107.320312 C 165.5 108.917969 165.578125 110.519531 165.578125 112.125 Z M 165.578125 112.125 " fill-opacity="1" fill-rule="nonzero"/></g><g fill="#ffffff" fill-opacity="1"><g transform="translate(88.30129, 96.829792)"><g><path d="M 1.980469 -7.988281 L 1.980469 -9.074219 L 0.894531 -9.074219 L 0.894531 -7.988281 Z M 1.980469 0 L 1.980469 -6.519531 L 0.894531 -6.519531 L 0.894531 0 Z M 1.980469 0 "/></g></g></g><g fill="#ffffff" fill-opacity="1"><g transform="translate(91.176053, 96.829792)"><g><path d="M 4.921875 -1.980469 C 4.921875 -3.257812 4.039062 -3.589844 3.207031 -3.78125 L 2.65625 -3.910156 C 2.132812 -4.027344 1.726562 -4.21875 1.726562 -4.703125 C 1.726562 -5.203125 2.019531 -5.496094 2.875 -5.496094 L 4.792969 -5.496094 L 4.792969 -6.519531 L 2.851562 -6.519531 C 1.394531 -6.519531 0.640625 -5.890625 0.640625 -4.613281 C 0.640625 -3.386719 1.457031 -3.066406 2.273438 -2.875 L 2.914062 -2.722656 C 3.425781 -2.59375 3.832031 -2.378906 3.832031 -1.878906 C 3.832031 -1.238281 3.347656 -1.023438 2.621094 -1.023438 L 0.640625 -1.023438 L 0.640625 0 L 2.722656 0 C 4.179688 0 4.921875 -0.550781 4.921875 -1.980469 Z M 4.921875 -1.980469 "/></g></g></g><g fill="#ffffff" fill-opacity="1"><g transform="translate(96.733916, 96.829792)"><g><path d="M 4.921875 -1.980469 C 4.921875 -3.257812 4.039062 -3.589844 3.207031 -3.78125 L 2.65625 -3.910156 C 2.132812 -4.027344 1.726562 -4.21875 1.726562 -4.703125 C 1.726562 -5.203125 2.019531 -5.496094 2.875 -5.496094 L 4.792969 -5.496094 L 4.792969 -6.519531 L 2.851562 -6.519531 C 1.394531 -6.519531 0.640625 -5.890625 0.640625 -4.613281 C 0.640625 -3.386719 1.457031 -3.066406 2.273438 -2.875 L 2.914062 -2.722656 C 3.425781 -2.59375 3.832031 -2.378906 3.832031 -1.878906 C 3.832031 -1.238281 3.347656 -1.023438 2.621094 -1.023438 L 0.640625 -1.023438 L 0.640625 0 L 2.722656 0 C 4.179688 0 4.921875 -0.550781 4.921875 -1.980469 Z M 4.921875 -1.980469 "/></g></g></g><g fill="#ffffff" fill-opacity="1"><g transform="translate(102.29178, 96.829792)"><g><path d="M 5.429688 0 L 5.429688 -6.519531 L 4.34375 -6.519531 L 4.34375 -0.957031 L 3.066406 -0.957031 C 2.289062 -0.957031 1.980469 -1.496094 1.980469 -2.171875 L 1.980469 -6.519531 L 0.894531 -6.519531 L 0.894531 -2.171875 C 0.894531 -0.832031 1.546875 0 2.9375 0 Z M 5.429688 0 "/></g></g></g><g fill="#ffffff" fill-opacity="1"><g transform="translate(108.61625, 96.829792)"><g><path d="M 5.304688 -2.875 L 5.304688 -4.089844 C 5.304688 -5.535156 4.613281 -6.519531 3.167969 -6.519531 L 2.902344 -6.519531 C 1.507812 -6.519531 0.765625 -5.558594 0.765625 -4.089844 L 0.765625 -2.429688 C 0.765625 -0.792969 1.597656 0 3.066406 0 L 4.984375 0 L 4.984375 -0.957031 L 3.195312 -0.957031 C 2.3125 -0.957031 1.851562 -1.558594 1.851562 -2.429688 L 1.851562 -2.875 Z M 4.21875 -3.730469 L 1.851562 -3.730469 L 1.851562 -4.21875 C 1.851562 -4.894531 2.121094 -5.558594 2.902344 -5.558594 L 3.167969 -5.558594 C 3.949219 -5.558594 4.21875 -4.894531 4.21875 -4.21875 Z M 4.21875 -3.730469 "/></g></g></g><g fill="#ffffff" fill-opacity="1"><g transform="translate(114.685188, 96.829792)"><g><path d="M 5.304688 0 L 5.304688 -9.074219 L 4.21875 -9.074219 L 4.21875 -6.519531 L 2.8125 -6.519531 C 1.417969 -6.519531 0.765625 -5.6875 0.765625 -4.34375 L 0.765625 -2.171875 C 0.765625 -0.832031 1.417969 0 2.8125 0 Z M 4.21875 -0.957031 L 2.9375 -0.957031 C 2.160156 -0.957031 1.851562 -1.496094 1.851562 -2.171875 L 1.851562 -4.34375 C 1.851562 -5.023438 2.160156 -5.558594 2.9375 -5.558594 L 4.21875 -5.558594 Z M 4.21875 -0.957031 "/></g></g></g><g fill="#ffffff" fill-opacity="1"><g transform="translate(120.881892, 96.829792)"><g/></g></g><g fill="#ffffff" fill-opacity="1"><g transform="translate(124.97044, 96.829792)"><g><path d="M 3.515625 -8.050781 L 3.515625 -9.074219 L 2.621094 -9.074219 C 1.675781 -9.074219 1.148438 -8.574219 1.148438 -7.476562 L 1.148438 -6.519531 L 0.253906 -6.519531 L 0.253906 -5.558594 L 1.148438 -5.558594 L 1.148438 0 L 2.238281 0 L 2.238281 -5.558594 L 3.386719 -5.558594 L 3.386719 -6.519531 L 2.238281 -6.519531 L 2.238281 -7.4375 C 2.238281 -7.910156 2.453125 -8.050781 2.746094 -8.050781 Z M 3.515625 -8.050781 "/></g></g></g><g fill="#ffffff" fill-opacity="1"><g transform="translate(128.611807, 96.829792)"><g><path d="M 5.304688 -2.171875 L 5.304688 -4.34375 C 5.304688 -5.6875 4.535156 -6.519531 3.195312 -6.519531 L 2.875 -6.519531 C 1.535156 -6.519531 0.765625 -5.6875 0.765625 -4.34375 L 0.765625 -2.171875 C 0.765625 -0.832031 1.535156 0 2.875 0 L 3.195312 0 C 4.535156 0 5.304688 -0.832031 5.304688 -2.171875 Z M 4.21875 -2.171875 C 4.21875 -1.496094 3.820312 -0.957031 3.195312 -0.957031 L 2.875 -0.957031 C 2.25 -0.957031 1.851562 -1.496094 1.851562 -2.171875 L 1.851562 -4.34375 C 1.851562 -5.023438 2.25 -5.558594 2.875 -5.558594 L 3.195312 -5.558594 C 3.820312 -5.558594 4.21875 -5.023438 4.21875 -4.34375 Z M 4.21875 -2.171875 "/></g></g></g><g fill="#ffffff" fill-opacity="1"><g transform="translate(134.680746, 96.829792)"><g><path d="M 3.707031 -5.507812 L 3.707031 -6.519531 L 2.875 -6.519531 C 1.484375 -6.519531 0.832031 -5.6875 0.832031 -4.34375 L 0.832031 0 L 1.917969 0 L 1.917969 -4.34375 C 1.917969 -5.023438 2.222656 -5.507812 3.003906 -5.507812 Z M 3.707031 -5.507812 "/></g></g></g><g fill="#ffffff" fill-opacity="1"><g transform="translate(138.641528, 96.829792)"><g><path d="M 2.109375 -5.175781 L 2.109375 -6.519531 L 0.765625 -6.519531 L 0.765625 -5.175781 Z M 2.109375 0 L 2.109375 -1.34375 L 0.765625 -1.34375 L 0.765625 0 Z M 2.109375 0 "/></g></g></g><g fill="#ffffff" fill-opacity="1"><g transform="translate(94.491961, 114.227924)"><g><path d="M 7.09375 0 L 4.21875 -9.074219 L 3.132812 -9.074219 L 0.253906 0 L 1.40625 0 L 1.957031 -1.789062 L 5.394531 -1.789062 L 5.941406 0 Z M 5.074219 -2.8125 L 2.273438 -2.8125 L 3.679688 -7.324219 Z M 5.074219 -2.8125 "/></g></g></g><g fill="#ffffff" fill-opacity="1"><g transform="translate(101.838567, 114.227924)"><g><path d="M 5.304688 0 L 5.304688 -9.074219 L 4.21875 -9.074219 L 4.21875 -6.519531 L 2.8125 -6.519531 C 1.417969 -6.519531 0.765625 -5.6875 0.765625 -4.34375 L 0.765625 -2.171875 C 0.765625 -0.832031 1.417969 0 2.8125 0 Z M 4.21875 -0.957031 L 2.9375 -0.957031 C 2.160156 -0.957031 1.851562 -1.496094 1.851562 -2.171875 L 1.851562 -4.34375 C 1.851562 -5.023438 2.160156 -5.558594 2.9375 -5.558594 L 4.21875 -5.558594 Z M 4.21875 -0.957031 "/></g></g></g><g fill="#ffffff" fill-opacity="1"><g transform="translate(108.035271, 114.227924)"><g><path d="M 5.113281 0 L 5.113281 -4.28125 C 5.113281 -5.761719 4.484375 -6.519531 2.976562 -6.519531 L 1.085938 -6.519531 L 1.085938 -5.496094 L 2.875 -5.496094 C 3.730469 -5.496094 4.027344 -5.035156 4.027344 -4.28125 L 4.027344 -3.667969 L 2.722656 -3.667969 C 1.328125 -3.667969 0.574219 -3.132812 0.574219 -1.789062 C 0.574219 -0.601562 1.265625 0 2.492188 0 Z M 4.027344 -0.957031 L 2.621094 -0.957031 C 1.980469 -0.957031 1.660156 -1.226562 1.660156 -1.789062 C 1.660156 -2.464844 1.96875 -2.746094 2.746094 -2.746094 L 4.027344 -2.746094 Z M 4.027344 -0.957031 "/></g></g></g><g fill="#ffffff" fill-opacity="1"><g transform="translate(114.040327, 114.227924)"><g><path d="M 5.429688 0 L 3.273438 -3.578125 L 5.304688 -6.519531 L 4.089844 -6.519531 L 2.058594 -3.578125 L 4.21875 0 Z M 1.980469 0 L 1.980469 -9.074219 L 0.894531 -9.074219 L 0.894531 0 Z M 1.980469 0 "/></g></g></g><g fill="#ffffff" fill-opacity="1"><g transform="translate(119.598191, 114.227924)"><g><path d="M 5.304688 -2.171875 L 5.304688 -4.34375 C 5.304688 -5.6875 4.535156 -6.519531 3.195312 -6.519531 L 2.875 -6.519531 C 1.535156 -6.519531 0.765625 -5.6875 0.765625 -4.34375 L 0.765625 -2.171875 C 0.765625 -0.832031 1.535156 0 2.875 0 L 3.195312 0 C 4.535156 0 5.304688 -0.832031 5.304688 -2.171875 Z M 4.21875 -2.171875 C 4.21875 -1.496094 3.820312 -0.957031 3.195312 -0.957031 L 2.875 -0.957031 C 2.25 -0.957031 1.851562 -1.496094 1.851562 -2.171875 L 1.851562 -4.34375 C 1.851562 -5.023438 2.25 -5.558594 2.875 -5.558594 L 3.195312 -5.558594 C 3.820312 -5.558594 4.21875 -5.023438 4.21875 -4.34375 Z M 4.21875 -2.171875 "/></g></g></g><g fill="#ffffff" fill-opacity="1"><g transform="translate(125.667129, 114.227924)"><g><path d="M 8.816406 0 L 8.816406 -4.21875 C 8.816406 -5.625 8.152344 -6.519531 6.683594 -6.519531 L 6.414062 -6.519531 C 5.699219 -6.519531 5.175781 -6.3125 4.832031 -5.929688 C 4.484375 -6.3125 3.949219 -6.519531 3.234375 -6.519531 L 2.964844 -6.519531 C 1.496094 -6.519531 0.832031 -5.625 0.832031 -4.21875 L 0.832031 0 L 1.917969 0 L 1.917969 -4.21875 C 1.917969 -4.894531 2.222656 -5.496094 3.003906 -5.496094 L 3.195312 -5.496094 C 3.972656 -5.496094 4.28125 -4.894531 4.28125 -4.21875 L 4.28125 0 L 5.367188 0 L 5.367188 -4.21875 C 5.367188 -4.894531 5.675781 -5.496094 6.453125 -5.496094 L 6.644531 -5.496094 C 7.425781 -5.496094 7.730469 -4.894531 7.730469 -4.21875 L 7.730469 0 Z M 8.816406 0 "/></g></g></g><g fill="#ffffff" fill-opacity="1"><g transform="translate(99.632318, 131.626056)"><g><path d="M 6.390625 0 L 6.390625 -4.984375 L 3.386719 -4.984375 L 3.386719 -3.960938 L 5.304688 -3.960938 L 5.304688 -1.023438 L 3.578125 -1.023438 C 2.3125 -1.023438 1.851562 -1.957031 1.851562 -2.9375 L 1.851562 -5.878906 C 1.851562 -7.105469 2.414062 -8.050781 3.832031 -8.050781 L 6.132812 -8.050781 L 6.132812 -9.074219 L 3.832031 -9.074219 C 1.738281 -9.074219 0.765625 -7.820312 0.765625 -5.878906 L 0.765625 -2.9375 C 0.765625 -1.238281 1.621094 0 3.578125 0 Z M 6.390625 0 "/></g></g></g><g fill="#ffffff" fill-opacity="1"><g transform="translate(106.915042, 131.626056)"><g><path d="M 8.816406 0 L 8.816406 -4.21875 C 8.816406 -5.625 8.152344 -6.519531 6.683594 -6.519531 L 6.414062 -6.519531 C 5.699219 -6.519531 5.175781 -6.3125 4.832031 -5.929688 C 4.484375 -6.3125 3.949219 -6.519531 3.234375 -6.519531 L 2.964844 -6.519531 C 1.496094 -6.519531 0.832031 -5.625 0.832031 -4.21875 L 0.832031 0 L 1.917969 0 L 1.917969 -4.21875 C 1.917969 -4.894531 2.222656 -5.496094 3.003906 -5.496094 L 3.195312 -5.496094 C 3.972656 -5.496094 4.28125 -4.894531 4.28125 -4.21875 L 4.28125 0 L 5.367188 0 L 5.367188 -4.21875 C 5.367188 -4.894531 5.675781 -5.496094 6.453125 -5.496094 L 6.644531 -5.496094 C 7.425781 -5.496094 7.730469 -4.894531 7.730469 -4.21875 L 7.730469 0 Z M 8.816406 0 "/></g></g></g><g fill="#ffffff" fill-opacity="1"><g transform="translate(116.561453, 131.626056)"><g><path d="M 5.429688 -2.171875 L 5.429688 -4.34375 C 5.429688 -5.6875 4.78125 -6.519531 3.386719 -6.519531 L 1.980469 -6.519531 L 1.980469 -9.074219 L 0.894531 -9.074219 L 0.894531 0 L 3.386719 0 C 4.78125 0 5.429688 -0.832031 5.429688 -2.171875 Z M 4.34375 -2.171875 C 4.34375 -1.496094 4.039062 -0.957031 3.257812 -0.957031 L 1.980469 -0.957031 L 1.980469 -5.558594 L 3.257812 -5.558594 C 4.039062 -5.558594 4.34375 -5.023438 4.34375 -4.34375 Z M 4.34375 -2.171875 "/></g></g></g><g fill="#ffffff" fill-opacity="1"><g transform="translate(122.758157, 131.626056)"><g><path d="M 6.519531 0 L 6.519531 -9.074219 L 5.429688 -9.074219 L 5.429688 -5.113281 L 1.980469 -5.113281 L 1.980469 -9.074219 L 0.894531 -9.074219 L 0.894531 0 L 1.980469 0 L 1.980469 -4.089844 L 5.429688 -4.089844 L 5.429688 0 Z M 6.519531 0 "/></g></g></g><g fill="#ffffff" fill-opacity="1"><g transform="translate(77.432968, 58.64727)"><g><path d="M 7.234375 -4.3125 L 0.78125 -0.46875 C 0.4375 -1.039062 0.21875 -1.582031 0.125 -2.09375 C 0.0390625 -2.601562 0.046875 -3.109375 0.140625 -3.609375 C 0.234375 -4.109375 0.394531 -4.613281 0.625 -5.125 C 0.851562 -5.644531 1.117188 -6.179688 1.421875 -6.734375 C 1.546875 -6.972656 1.675781 -7.238281 1.8125 -7.53125 C 1.945312 -7.820312 2.050781 -8.125 2.125 -8.4375 C 2.207031 -8.75 2.234375 -9.070312 2.203125 -9.40625 C 2.171875 -9.75 2.046875 -10.101562 1.828125 -10.46875 C 1.460938 -11.070312 1.007812 -11.421875 0.46875 -11.515625 C -0.0625 -11.617188 -0.609375 -11.5 -1.171875 -11.15625 C -1.785156 -10.789062 -2.171875 -10.328125 -2.328125 -9.765625 C -2.484375 -9.210938 -2.390625 -8.648438 -2.046875 -8.078125 L -1.828125 -7.734375 L -3.0625 -7 L -3.234375 -7.28125 C -3.367188 -7.488281 -3.503906 -7.78125 -3.640625 -8.15625 C -3.785156 -8.539062 -3.835938 -8.96875 -3.796875 -9.4375 C -3.765625 -9.90625 -3.601562 -10.382812 -3.3125 -10.875 C -3.019531 -11.375 -2.515625 -11.84375 -1.796875 -12.28125 C -1.304688 -12.570312 -0.820312 -12.765625 -0.34375 -12.859375 C 0.125 -12.953125 0.566406 -12.957031 0.984375 -12.875 C 1.410156 -12.800781 1.804688 -12.628906 2.171875 -12.359375 C 2.535156 -12.097656 2.851562 -11.738281 3.125 -11.28125 C 3.394531 -10.832031 3.566406 -10.414062 3.640625 -10.03125 C 3.722656 -9.644531 3.722656 -9.242188 3.640625 -8.828125 C 3.554688 -8.410156 3.398438 -7.945312 3.171875 -7.4375 C 2.941406 -6.9375 2.65625 -6.347656 2.3125 -5.671875 C 1.914062 -4.867188 1.660156 -4.21875 1.546875 -3.71875 C 1.429688 -3.226562 1.4375 -2.785156 1.5625 -2.390625 L 6.59375 -5.390625 Z M 7.234375 -4.3125 "/></g></g></g><g fill="#ffffff" fill-opacity="1"><g transform="translate(84.817922, 54.196219)"><g><path d="M -1.703125 -9.203125 L -1.390625 -9.328125 C -1.085938 -9.460938 -0.8125 -9.628906 -0.5625 -9.828125 C -0.320312 -10.035156 -0.125 -10.265625 0.03125 -10.515625 C 0.1875 -10.773438 0.285156 -11.046875 0.328125 -11.328125 C 0.367188 -11.617188 0.347656 -11.910156 0.265625 -12.203125 L 1.234375 -12.625 L 5.609375 -2.40625 L 4.234375 -1.8125 L 0.953125 -9.484375 L -1.390625 -8.484375 Z M -1.703125 -9.203125 "/></g></g></g><g fill="#ffffff" fill-opacity="1"><g transform="translate(92.893213, 50.830702)"><g><path d="M 1.09375 -2.15625 L 2.59375 -2.625 L 3.109375 -0.96875 L 1.609375 -0.5 Z M 1.09375 -2.15625 "/></g></g></g><g fill="#ffffff" fill-opacity="1"><g transform="translate(97.138698, 49.368662)"><g><path d="M 4.328125 -1.828125 C 4.753906 -1.910156 5.09375 -2.101562 5.34375 -2.40625 C 5.601562 -2.71875 5.785156 -3.09375 5.890625 -3.53125 C 5.992188 -3.976562 6.03125 -4.484375 6 -5.046875 C 5.96875 -5.617188 5.890625 -6.21875 5.765625 -6.84375 C 5.640625 -7.46875 5.476562 -8.046875 5.28125 -8.578125 C 5.09375 -9.109375 4.863281 -9.5625 4.59375 -9.9375 C 4.320312 -10.3125 4.007812 -10.585938 3.65625 -10.765625 C 3.3125 -10.941406 2.925781 -10.988281 2.5 -10.90625 C 2.0625 -10.8125 1.710938 -10.613281 1.453125 -10.3125 C 1.203125 -10.007812 1.023438 -9.632812 0.921875 -9.1875 C 0.816406 -8.738281 0.773438 -8.234375 0.796875 -7.671875 C 0.828125 -7.109375 0.90625 -6.515625 1.03125 -5.890625 C 1.15625 -5.265625 1.316406 -4.679688 1.515625 -4.140625 C 1.710938 -3.609375 1.945312 -3.15625 2.21875 -2.78125 C 2.488281 -2.414062 2.796875 -2.140625 3.140625 -1.953125 C 3.492188 -1.773438 3.890625 -1.734375 4.328125 -1.828125 Z M 4.578125 -0.59375 C 4.429688 -0.5625 4.238281 -0.535156 4 -0.515625 C 3.757812 -0.492188 3.484375 -0.515625 3.171875 -0.578125 C 2.867188 -0.640625 2.546875 -0.757812 2.203125 -0.9375 C 1.867188 -1.113281 1.539062 -1.390625 1.21875 -1.765625 C 0.894531 -2.140625 0.59375 -2.632812 0.3125 -3.25 C 0.03125 -3.875 -0.207031 -4.65625 -0.40625 -5.59375 C -0.59375 -6.519531 -0.675781 -7.320312 -0.65625 -8 C -0.632812 -8.6875 -0.546875 -9.265625 -0.390625 -9.734375 C -0.234375 -10.203125 -0.0390625 -10.585938 0.1875 -10.890625 C 0.425781 -11.191406 0.675781 -11.429688 0.9375 -11.609375 C 1.207031 -11.785156 1.453125 -11.910156 1.671875 -11.984375 C 1.898438 -12.054688 2.085938 -12.109375 2.234375 -12.140625 C 2.367188 -12.160156 2.5625 -12.179688 2.8125 -12.203125 C 3.0625 -12.222656 3.335938 -12.203125 3.640625 -12.140625 C 3.941406 -12.078125 4.265625 -11.957031 4.609375 -11.78125 C 4.953125 -11.601562 5.285156 -11.328125 5.609375 -10.953125 C 5.929688 -10.578125 6.234375 -10.078125 6.515625 -9.453125 C 6.796875 -8.835938 7.03125 -8.066406 7.21875 -7.140625 C 7.414062 -6.203125 7.503906 -5.390625 7.484375 -4.703125 C 7.460938 -4.023438 7.375 -3.453125 7.21875 -2.984375 C 7.0625 -2.515625 6.863281 -2.128906 6.625 -1.828125 C 6.382812 -1.523438 6.132812 -1.285156 5.875 -1.109375 C 5.613281 -0.929688 5.363281 -0.804688 5.125 -0.734375 C 4.894531 -0.660156 4.710938 -0.613281 4.578125 -0.59375 Z M 4.578125 -0.59375 "/></g></g></g><g fill="#ffffff" fill-opacity="1"><g transform="translate(105.581721, 47.617958)"><g><path d="M -0.1875 -11.109375 L 7.90625 -11.65625 L 7.96875 -10.65625 C 7.625 -10.21875 7.316406 -9.789062 7.046875 -9.375 C 6.773438 -8.96875 6.53125 -8.550781 6.3125 -8.125 C 6.101562 -7.707031 5.90625 -7.28125 5.71875 -6.84375 C 5.539062 -6.40625 5.375 -5.945312 5.21875 -5.46875 C 5.0625 -5.019531 4.929688 -4.59375 4.828125 -4.1875 C 4.734375 -3.789062 4.648438 -3.382812 4.578125 -2.96875 C 4.515625 -2.5625 4.460938 -2.140625 4.421875 -1.703125 C 4.378906 -1.265625 4.347656 -0.796875 4.328125 -0.296875 L 2.765625 -0.1875 C 2.816406 -0.988281 2.910156 -1.800781 3.046875 -2.625 C 3.191406 -3.445312 3.425781 -4.316406 3.75 -5.234375 C 3.882812 -5.648438 4.046875 -6.070312 4.234375 -6.5 C 4.429688 -6.925781 4.644531 -7.359375 4.875 -7.796875 C 5.113281 -8.242188 5.367188 -8.675781 5.640625 -9.09375 C 5.910156 -9.507812 6.203125 -9.921875 6.515625 -10.328125 L -0.109375 -9.875 Z M -0.1875 -11.109375 "/></g></g></g><g fill="#ffffff" fill-opacity="1"><g transform="translate(114.315989, 47.120907)"><g><path d="M 1.75 -1.671875 L 3.3125 -1.625 L 3.25 0.109375 L 1.6875 0.0625 Z M 1.75 -1.671875 "/></g></g></g><g fill="#ffffff" fill-opacity="1"><g transform="translate(118.806197, 47.148555)"><g><path d="M 8.34375 1.15625 L 0.890625 0.125 C 0.984375 -0.53125 1.15625 -1.085938 1.40625 -1.546875 C 1.65625 -2.003906 1.972656 -2.398438 2.359375 -2.734375 C 2.742188 -3.066406 3.1875 -3.359375 3.6875 -3.609375 C 4.195312 -3.859375 4.742188 -4.113281 5.328125 -4.375 C 5.578125 -4.488281 5.84375 -4.609375 6.125 -4.734375 C 6.40625 -4.867188 6.675781 -5.035156 6.9375 -5.234375 C 7.195312 -5.441406 7.421875 -5.6875 7.609375 -5.96875 C 7.796875 -6.25 7.921875 -6.601562 7.984375 -7.03125 C 8.078125 -7.71875 7.945312 -8.269531 7.59375 -8.6875 C 7.238281 -9.101562 6.726562 -9.359375 6.0625 -9.453125 C 5.363281 -9.546875 4.78125 -9.421875 4.3125 -9.078125 C 3.84375 -8.742188 3.5625 -8.242188 3.46875 -7.578125 L 3.421875 -7.171875 L 1.96875 -7.375 L 2.015625 -7.703125 C 2.046875 -7.953125 2.128906 -8.269531 2.265625 -8.65625 C 2.398438 -9.039062 2.625 -9.40625 2.9375 -9.75 C 3.257812 -10.09375 3.6875 -10.363281 4.21875 -10.5625 C 4.757812 -10.757812 5.445312 -10.800781 6.28125 -10.6875 C 6.851562 -10.613281 7.351562 -10.46875 7.78125 -10.25 C 8.207031 -10.03125 8.554688 -9.753906 8.828125 -9.421875 C 9.109375 -9.097656 9.304688 -8.71875 9.421875 -8.28125 C 9.546875 -7.84375 9.570312 -7.359375 9.5 -6.828125 C 9.425781 -6.316406 9.300781 -5.882812 9.125 -5.53125 C 8.945312 -5.1875 8.691406 -4.875 8.359375 -4.59375 C 8.035156 -4.320312 7.625 -4.0625 7.125 -3.8125 C 6.632812 -3.5625 6.039062 -3.285156 5.34375 -2.984375 C 4.539062 -2.609375 3.9375 -2.257812 3.53125 -1.9375 C 3.132812 -1.625 2.859375 -1.269531 2.703125 -0.875 L 8.515625 -0.078125 Z M 8.34375 1.15625 "/></g></g></g><g fill="#ffffff" fill-opacity="1"><g transform="translate(127.352087, 48.296296)"><g><path d="M 4.6875 0.34375 C 5.113281 0.457031 5.507812 0.4375 5.875 0.28125 C 6.238281 0.125 6.566406 -0.125 6.859375 -0.46875 C 7.148438 -0.820312 7.410156 -1.257812 7.640625 -1.78125 C 7.878906 -2.300781 8.082031 -2.867188 8.25 -3.484375 C 8.425781 -4.097656 8.546875 -4.679688 8.609375 -5.234375 C 8.671875 -5.796875 8.664062 -6.304688 8.59375 -6.765625 C 8.53125 -7.222656 8.382812 -7.609375 8.15625 -7.921875 C 7.925781 -8.242188 7.597656 -8.460938 7.171875 -8.578125 C 6.742188 -8.691406 6.347656 -8.671875 5.984375 -8.515625 C 5.617188 -8.367188 5.285156 -8.117188 4.984375 -7.765625 C 4.679688 -7.410156 4.414062 -6.972656 4.1875 -6.453125 C 3.96875 -5.941406 3.769531 -5.378906 3.59375 -4.765625 C 3.425781 -4.148438 3.304688 -3.5625 3.234375 -3 C 3.160156 -2.4375 3.160156 -1.925781 3.234375 -1.46875 C 3.316406 -1.019531 3.472656 -0.632812 3.703125 -0.3125 C 3.929688 0.0078125 4.257812 0.226562 4.6875 0.34375 Z M 4.34375 1.546875 C 4.207031 1.503906 4.023438 1.4375 3.796875 1.34375 C 3.578125 1.257812 3.34375 1.117188 3.09375 0.921875 C 2.84375 0.734375 2.609375 0.484375 2.390625 0.171875 C 2.171875 -0.140625 2 -0.535156 1.875 -1.015625 C 1.757812 -1.503906 1.71875 -2.085938 1.75 -2.765625 C 1.78125 -3.441406 1.921875 -4.242188 2.171875 -5.171875 C 2.429688 -6.085938 2.722656 -6.84375 3.046875 -7.4375 C 3.367188 -8.03125 3.707031 -8.5 4.0625 -8.84375 C 4.414062 -9.195312 4.765625 -9.453125 5.109375 -9.609375 C 5.460938 -9.765625 5.796875 -9.859375 6.109375 -9.890625 C 6.421875 -9.929688 6.695312 -9.9375 6.9375 -9.90625 C 7.175781 -9.875 7.363281 -9.835938 7.5 -9.796875 C 7.632812 -9.753906 7.816406 -9.6875 8.046875 -9.59375 C 8.273438 -9.5 8.507812 -9.351562 8.75 -9.15625 C 9 -8.96875 9.234375 -8.71875 9.453125 -8.40625 C 9.671875 -8.09375 9.835938 -7.691406 9.953125 -7.203125 C 10.078125 -6.722656 10.125 -6.144531 10.09375 -5.46875 C 10.070312 -4.789062 9.929688 -3.992188 9.671875 -3.078125 C 9.421875 -2.148438 9.128906 -1.390625 8.796875 -0.796875 C 8.472656 -0.203125 8.132812 0.265625 7.78125 0.609375 C 7.425781 0.960938 7.070312 1.21875 6.71875 1.375 C 6.375 1.53125 6.046875 1.625 5.734375 1.65625 C 5.429688 1.695312 5.15625 1.695312 4.90625 1.65625 C 4.664062 1.625 4.476562 1.585938 4.34375 1.546875 Z M 4.34375 1.546875 "/></g></g></g><g fill="#ffffff" fill-opacity="1"><g transform="translate(135.669725, 50.569268)"><g><path d="M 7.734375 3.3125 L 0.828125 0.359375 C 1.085938 -0.253906 1.394531 -0.742188 1.75 -1.109375 C 2.113281 -1.484375 2.523438 -1.78125 2.984375 -2 C 3.453125 -2.226562 3.960938 -2.394531 4.515625 -2.5 C 5.066406 -2.613281 5.660156 -2.71875 6.296875 -2.8125 C 6.554688 -2.863281 6.84375 -2.914062 7.15625 -2.96875 C 7.46875 -3.019531 7.773438 -3.101562 8.078125 -3.21875 C 8.378906 -3.34375 8.65625 -3.519531 8.90625 -3.75 C 9.164062 -3.976562 9.378906 -4.285156 9.546875 -4.671875 C 9.816406 -5.316406 9.835938 -5.882812 9.609375 -6.375 C 9.378906 -6.863281 8.957031 -7.242188 8.34375 -7.515625 C 7.6875 -7.785156 7.085938 -7.820312 6.546875 -7.625 C 6.003906 -7.425781 5.601562 -7.019531 5.34375 -6.40625 L 5.1875 -6.03125 L 3.84375 -6.59375 L 3.96875 -6.890625 C 4.070312 -7.117188 4.238281 -7.398438 4.46875 -7.734375 C 4.695312 -8.078125 5.007812 -8.367188 5.40625 -8.609375 C 5.800781 -8.859375 6.285156 -9.007812 6.859375 -9.0625 C 7.429688 -9.125 8.101562 -8.988281 8.875 -8.65625 C 9.40625 -8.4375 9.847656 -8.160156 10.203125 -7.828125 C 10.554688 -7.503906 10.820312 -7.148438 11 -6.765625 C 11.1875 -6.378906 11.28125 -5.957031 11.28125 -5.5 C 11.28125 -5.050781 11.175781 -4.582031 10.96875 -4.09375 C 10.757812 -3.613281 10.519531 -3.226562 10.25 -2.9375 C 9.988281 -2.644531 9.664062 -2.410156 9.28125 -2.234375 C 8.894531 -2.054688 8.429688 -1.910156 7.890625 -1.796875 C 7.347656 -1.691406 6.703125 -1.582031 5.953125 -1.46875 C 5.078125 -1.320312 4.40625 -1.144531 3.9375 -0.9375 C 3.46875 -0.738281 3.101562 -0.472656 2.84375 -0.140625 L 8.21875 2.15625 Z M 7.734375 3.3125 "/></g></g></g><g fill="#ffffff" fill-opacity="1"><g transform="translate(143.611644, 53.92716)"><g><path d="M 7.234375 4.3125 L 0.78125 0.46875 C 1.125 -0.101562 1.492188 -0.550781 1.890625 -0.875 C 2.296875 -1.195312 2.742188 -1.4375 3.234375 -1.59375 C 3.722656 -1.75 4.25 -1.84375 4.8125 -1.875 C 5.375 -1.914062 5.972656 -1.941406 6.609375 -1.953125 C 6.878906 -1.960938 7.171875 -1.972656 7.484375 -1.984375 C 7.796875 -1.992188 8.109375 -2.039062 8.421875 -2.125 C 8.742188 -2.207031 9.046875 -2.34375 9.328125 -2.53125 C 9.609375 -2.726562 9.859375 -3.007812 10.078125 -3.375 C 10.441406 -3.976562 10.535156 -4.535156 10.359375 -5.046875 C 10.191406 -5.566406 9.828125 -6 9.265625 -6.34375 C 8.648438 -6.707031 8.0625 -6.820312 7.5 -6.6875 C 6.9375 -6.5625 6.484375 -6.210938 6.140625 -5.640625 L 5.921875 -5.296875 L 4.6875 -6.03125 L 4.859375 -6.3125 C 4.992188 -6.519531 5.191406 -6.773438 5.453125 -7.078125 C 5.722656 -7.390625 6.066406 -7.640625 6.484375 -7.828125 C 6.910156 -8.015625 7.414062 -8.097656 8 -8.078125 C 8.582031 -8.066406 9.234375 -7.84375 9.953125 -7.40625 C 10.441406 -7.113281 10.835938 -6.785156 11.140625 -6.421875 C 11.453125 -6.054688 11.671875 -5.664062 11.796875 -5.25 C 11.929688 -4.84375 11.96875 -4.410156 11.90625 -3.953125 C 11.84375 -3.503906 11.675781 -3.050781 11.40625 -2.59375 C 11.132812 -2.144531 10.847656 -1.796875 10.546875 -1.546875 C 10.253906 -1.296875 9.90625 -1.109375 9.5 -0.984375 C 9.09375 -0.859375 8.613281 -0.773438 8.0625 -0.734375 C 7.507812 -0.703125 6.851562 -0.679688 6.09375 -0.671875 C 5.195312 -0.640625 4.503906 -0.550781 4.015625 -0.40625 C 3.523438 -0.269531 3.132812 -0.0546875 2.84375 0.234375 L 7.875 3.234375 Z M 7.234375 4.3125 "/></g></g></g><g fill="#ffffff" fill-opacity="1"><g transform="translate(57.311255, 73.598192)"><g><path d="M 5.28125 12.1875 L 4.34375 13.859375 L 2.734375 7.84375 L -5.046875 8.84375 L -4.09375 7.1875 L 2.421875 6.46875 L 1.8125 4.15625 L -1.34375 2.359375 L -0.640625 1.125 L 8.59375 6.390625 L 7.890625 7.625 L 3.3125 5.015625 Z M 5.28125 12.1875 "/></g></g></g><g fill="#ffffff" fill-opacity="1"><g transform="translate(52.064575, 82.994714)"><g><path d="M 1.734375 7.765625 C 1.984375 7.847656 2.257812 7.921875 2.5625 7.984375 C 2.863281 8.046875 3.160156 8.050781 3.453125 8 C 3.742188 7.945312 4.019531 7.820312 4.28125 7.625 C 4.539062 7.4375 4.753906 7.144531 4.921875 6.75 C 5.097656 6.289062 5.160156 5.882812 5.109375 5.53125 C 5.054688 5.175781 4.941406 4.867188 4.765625 4.609375 C 4.597656 4.347656 4.382812 4.132812 4.125 3.96875 C 3.875 3.800781 3.632812 3.671875 3.40625 3.578125 Z M -0.859375 8.1875 C -1.085938 8.03125 -1.316406 7.832031 -1.546875 7.59375 C -1.773438 7.363281 -1.957031 7.082031 -2.09375 6.75 C -2.226562 6.414062 -2.296875 6.03125 -2.296875 5.59375 C -2.296875 5.164062 -2.1875 4.671875 -1.96875 4.109375 C -1.726562 3.523438 -1.445312 3.0625 -1.125 2.71875 C -0.800781 2.375 -0.460938 2.113281 -0.109375 1.9375 C 0.242188 1.769531 0.597656 1.671875 0.953125 1.640625 C 1.316406 1.609375 1.648438 1.613281 1.953125 1.65625 C 2.265625 1.695312 2.535156 1.753906 2.765625 1.828125 C 3.003906 1.910156 3.1875 1.976562 3.3125 2.03125 C 3.457031 2.09375 3.660156 2.1875 3.921875 2.3125 C 4.179688 2.4375 4.4375 2.585938 4.6875 2.765625 C 4.9375 2.953125 5.175781 3.175781 5.40625 3.4375 C 5.644531 3.707031 5.832031 4.019531 5.96875 4.375 C 6.101562 4.738281 6.164062 5.140625 6.15625 5.578125 C 6.15625 6.015625 6.039062 6.515625 5.8125 7.078125 C 5.53125 7.785156 5.175781 8.300781 4.75 8.625 C 4.320312 8.957031 3.878906 9.160156 3.421875 9.234375 C 2.960938 9.316406 2.488281 9.3125 2 9.21875 C 1.519531 9.125 1.082031 9.007812 0.6875 8.875 C 0.644531 8.851562 0.585938 8.832031 0.515625 8.8125 C 0.453125 8.789062 0.394531 8.769531 0.34375 8.75 L 2.53125 3.234375 C 2.21875 3.109375 1.882812 3.023438 1.53125 2.984375 C 1.175781 2.941406 0.835938 2.957031 0.515625 3.03125 C 0.191406 3.101562 -0.109375 3.25 -0.390625 3.46875 C -0.679688 3.695312 -0.910156 4.015625 -1.078125 4.421875 C -1.191406 4.703125 -1.253906 4.976562 -1.265625 5.25 C -1.285156 5.519531 -1.257812 5.765625 -1.1875 5.984375 C -1.113281 6.203125 -1.007812 6.394531 -0.875 6.5625 C -0.738281 6.726562 -0.570312 6.875 -0.375 7 Z M -0.859375 8.1875 "/></g></g></g><g fill="#ffffff" fill-opacity="1"><g transform="translate(48.838507, 91.45659)"><g><path d="M 9.5 5.359375 L -0.6875 2.328125 L -0.3125 1.046875 L 9.875 4.078125 Z M 9.5 5.359375 "/></g></g></g><g fill="#ffffff" fill-opacity="1"><g transform="translate(47.676393, 95.163071)"><g><path d="M 6.328125 7.234375 L 6.03125 8.640625 L -0.90625 4.25 L -0.578125 2.734375 L 7.546875 1.546875 L 7.25 2.953125 L 0.546875 3.765625 Z M 6.328125 7.234375 "/></g></g></g><g fill="#ffffff" fill-opacity="1"><g transform="translate(46.198292, 102.503725)"><g><path d="M 10.390625 2.4375 L 10.21875 3.765625 L 8.828125 3.578125 L 9 2.25 Z M 7.328125 3.390625 L -0.3125 2.375 L -0.140625 1.046875 L 7.5 2.0625 Z M 7.328125 3.390625 "/></g></g></g><g fill="#ffffff" fill-opacity="1"><g transform="translate(45.585164, 106.339123)"><g><path d="M 3.796875 2.21875 C 3.023438 2.1875 2.414062 2.257812 1.96875 2.4375 C 1.519531 2.613281 1.1875 2.828125 0.96875 3.078125 C 0.75 3.328125 0.609375 3.582031 0.546875 3.84375 C 0.492188 4.113281 0.46875 4.328125 0.46875 4.484375 C 0.457031 4.628906 0.46875 4.832031 0.5 5.09375 C 0.539062 5.363281 0.660156 5.632812 0.859375 5.90625 C 1.054688 6.175781 1.367188 6.414062 1.796875 6.625 C 2.222656 6.832031 2.820312 6.953125 3.59375 6.984375 C 4.351562 7.015625 4.957031 6.941406 5.40625 6.765625 C 5.851562 6.585938 6.1875 6.375 6.40625 6.125 C 6.632812 5.875 6.773438 5.613281 6.828125 5.34375 C 6.878906 5.082031 6.910156 4.878906 6.921875 4.734375 C 6.921875 4.578125 6.90625 4.363281 6.875 4.09375 C 6.84375 3.832031 6.722656 3.566406 6.515625 3.296875 C 6.316406 3.023438 6.003906 2.785156 5.578125 2.578125 C 5.148438 2.367188 4.554688 2.25 3.796875 2.21875 Z M 3.828125 0.8125 C 4.335938 0.832031 4.835938 0.914062 5.328125 1.0625 C 5.816406 1.21875 6.25 1.453125 6.625 1.765625 C 7.007812 2.078125 7.3125 2.484375 7.53125 2.984375 C 7.757812 3.484375 7.863281 4.082031 7.84375 4.78125 C 7.8125 5.46875 7.660156 6.050781 7.390625 6.53125 C 7.128906 7.007812 6.796875 7.390625 6.390625 7.671875 C 5.992188 7.953125 5.546875 8.144531 5.046875 8.25 C 4.546875 8.363281 4.039062 8.410156 3.53125 8.390625 C 3.007812 8.367188 2.503906 8.28125 2.015625 8.125 C 1.523438 7.976562 1.085938 7.75 0.703125 7.4375 C 0.328125 7.125 0.03125 6.71875 -0.1875 6.21875 C -0.40625 5.71875 -0.5 5.125 -0.46875 4.4375 C -0.445312 3.738281 -0.304688 3.148438 -0.046875 2.671875 C 0.210938 2.191406 0.539062 1.8125 0.9375 1.53125 C 1.34375 1.25 1.796875 1.050781 2.296875 0.9375 C 2.796875 0.832031 3.304688 0.789062 3.828125 0.8125 Z M 3.828125 0.8125 "/></g></g></g><g fill="#ffffff" fill-opacity="1"><g transform="translate(45.249923, 115.824595)"><g><path d="M 7.890625 1.71875 L 6.8125 1.8125 C 7.21875 2.050781 7.578125 2.378906 7.890625 2.796875 C 8.203125 3.210938 8.382812 3.722656 8.4375 4.328125 C 8.488281 4.828125 8.445312 5.25 8.3125 5.59375 C 8.1875 5.9375 8 6.210938 7.75 6.421875 C 7.5 6.628906 7.207031 6.785156 6.875 6.890625 C 6.539062 6.992188 6.179688 7.066406 5.796875 7.109375 L 0.6875 7.5625 L 0.5625 6.234375 L 5.265625 5.8125 C 5.460938 5.789062 5.695312 5.757812 5.96875 5.71875 C 6.238281 5.675781 6.488281 5.597656 6.71875 5.484375 C 6.945312 5.367188 7.132812 5.191406 7.28125 4.953125 C 7.425781 4.722656 7.484375 4.398438 7.453125 3.984375 C 7.429688 3.804688 7.378906 3.59375 7.296875 3.34375 C 7.222656 3.09375 7.078125 2.859375 6.859375 2.640625 C 6.640625 2.429688 6.332031 2.257812 5.9375 2.125 C 5.550781 2 5.039062 1.96875 4.40625 2.03125 L 0.21875 2.40625 L 0.09375 1.09375 L 7.765625 0.40625 Z M 7.890625 1.71875 "/></g></g></g><g fill="#ffffff" fill-opacity="1"><g transform="translate(46.20286, 124.879025)"><g/></g></g><g fill="#ffffff" fill-opacity="1"><g transform="translate(46.671571, 129.000478)"><g><path d="M 9.328125 -0.09375 L 9.3125 -0.125 L 8.953125 0.015625 L 0.828125 2.59375 L 0.390625 1.234375 L 10.515625 -1.96875 L 11.15625 0.0625 L 3.8125 5.875 L 13.171875 6.40625 L 13.8125 8.4375 L 3.6875 11.640625 L 3.25 10.28125 L 11.375 7.703125 L 11.765625 7.625 L 11.75 7.578125 L 2.21875 6.984375 L 1.859375 5.890625 Z M 9.328125 -0.09375 "/></g></g></g><g fill="#ffffff" fill-opacity="1"><g transform="translate(51.226932, 142.499482)"><g><path d="M 6.15625 3.4375 C 6.039062 3.375 5.941406 3.300781 5.859375 3.21875 C 5.773438 3.132812 5.695312 3.039062 5.625 2.9375 C 5.550781 2.832031 5.46875 2.707031 5.375 2.5625 C 5.28125 2.414062 5.171875 2.253906 5.046875 2.078125 C 4.867188 1.835938 4.703125 1.609375 4.546875 1.390625 C 4.390625 1.171875 4.21875 0.992188 4.03125 0.859375 C 3.851562 0.722656 3.65625 0.644531 3.4375 0.625 C 3.226562 0.601562 2.988281 0.660156 2.71875 0.796875 C 2.3125 1.003906 2.0625 1.285156 1.96875 1.640625 C 1.875 2.003906 1.925781 2.375 2.125 2.75 C 2.25 3 2.398438 3.222656 2.578125 3.421875 C 2.765625 3.628906 3 3.789062 3.28125 3.90625 C 3.5625 4.019531 3.890625 4.066406 4.265625 4.046875 C 4.640625 4.023438 5.070312 3.910156 5.5625 3.703125 Z M 5.21875 -1.71875 C 5.445312 -1.832031 5.71875 -1.914062 6.03125 -1.96875 C 6.34375 -2.03125 6.664062 -2.015625 7 -1.921875 C 7.332031 -1.828125 7.671875 -1.625 8.015625 -1.3125 C 8.367188 -1.007812 8.703125 -0.554688 9.015625 0.046875 C 9.148438 0.316406 9.269531 0.628906 9.375 0.984375 C 9.488281 1.335938 9.53125 1.691406 9.5 2.046875 C 9.476562 2.398438 9.363281 2.742188 9.15625 3.078125 C 8.945312 3.410156 8.585938 3.695312 8.078125 3.9375 L 4.84375 5.5 C 4.71875 5.5625 4.601562 5.617188 4.5 5.671875 C 4.40625 5.734375 4.332031 5.804688 4.28125 5.890625 C 4.238281 5.972656 4.222656 6.070312 4.234375 6.1875 C 4.253906 6.300781 4.316406 6.445312 4.421875 6.625 L 3.578125 7.046875 C 3.515625 6.972656 3.457031 6.898438 3.40625 6.828125 C 3.351562 6.765625 3.296875 6.671875 3.234375 6.546875 C 3.148438 6.378906 3.082031 6.21875 3.03125 6.0625 C 2.988281 5.914062 2.972656 5.769531 2.984375 5.625 C 3.003906 5.488281 3.0625 5.351562 3.15625 5.21875 C 3.257812 5.09375 3.414062 4.953125 3.625 4.796875 C 3.34375 4.796875 3.082031 4.742188 2.84375 4.640625 C 2.613281 4.546875 2.394531 4.421875 2.1875 4.265625 C 1.976562 4.117188 1.789062 3.941406 1.625 3.734375 C 1.46875 3.523438 1.332031 3.300781 1.21875 3.0625 C 0.851562 2.34375 0.71875 1.675781 0.8125 1.0625 C 0.90625 0.445312 1.316406 -0.0390625 2.046875 -0.40625 C 2.347656 -0.5625 2.640625 -0.65625 2.921875 -0.6875 C 3.210938 -0.71875 3.515625 -0.648438 3.828125 -0.484375 C 4.140625 -0.328125 4.46875 -0.0664062 4.8125 0.296875 C 5.15625 0.671875 5.53125 1.191406 5.9375 1.859375 C 6.082031 2.097656 6.207031 2.300781 6.3125 2.46875 C 6.425781 2.632812 6.535156 2.753906 6.640625 2.828125 C 6.742188 2.898438 6.863281 2.925781 7 2.90625 C 7.144531 2.894531 7.332031 2.835938 7.5625 2.734375 C 7.644531 2.679688 7.753906 2.609375 7.890625 2.515625 C 8.035156 2.421875 8.160156 2.285156 8.265625 2.109375 C 8.378906 1.929688 8.4375 1.707031 8.4375 1.4375 C 8.4375 1.175781 8.34375 0.859375 8.15625 0.484375 C 8.09375 0.367188 8.003906 0.210938 7.890625 0.015625 C 7.785156 -0.171875 7.632812 -0.335938 7.4375 -0.484375 C 7.238281 -0.640625 7.003906 -0.738281 6.734375 -0.78125 C 6.460938 -0.820312 6.148438 -0.753906 5.796875 -0.578125 Z M 5.21875 -1.71875 "/></g></g></g><g fill="#ffffff" fill-opacity="1"><g transform="translate(55.309614, 150.476584)"><g><path d="M 6.625 4.90625 C 6.40625 5.03125 6.125 5.144531 5.78125 5.25 C 5.445312 5.363281 5.082031 5.410156 4.6875 5.390625 C 4.289062 5.378906 3.875 5.257812 3.4375 5.03125 C 3.007812 4.8125 2.601562 4.414062 2.21875 3.84375 C 2.144531 3.726562 2.050781 3.566406 1.9375 3.359375 C 1.820312 3.160156 1.71875 2.921875 1.625 2.640625 C 1.53125 2.359375 1.476562 2.046875 1.46875 1.703125 C 1.457031 1.367188 1.515625 1.019531 1.640625 0.65625 C 1.765625 0.289062 1.976562 -0.0820312 2.28125 -0.46875 C 2.59375 -0.863281 3.035156 -1.253906 3.609375 -1.640625 C 3.972656 -1.890625 4.382812 -2.109375 4.84375 -2.296875 C 5.300781 -2.484375 5.773438 -2.570312 6.265625 -2.5625 C 6.753906 -2.5625 7.238281 -2.4375 7.71875 -2.1875 C 8.195312 -1.9375 8.648438 -1.5 9.078125 -0.875 C 9.378906 -0.425781 9.578125 0.00390625 9.671875 0.421875 C 9.773438 0.835938 9.796875 1.226562 9.734375 1.59375 C 9.679688 1.96875 9.5625 2.304688 9.375 2.609375 C 9.195312 2.921875 8.96875 3.195312 8.6875 3.4375 L 7.984375 2.390625 C 8.296875 2.085938 8.5 1.789062 8.59375 1.5 C 8.695312 1.21875 8.738281 0.957031 8.71875 0.71875 C 8.695312 0.476562 8.632812 0.265625 8.53125 0.078125 C 8.425781 -0.0976562 8.347656 -0.234375 8.296875 -0.328125 C 8.054688 -0.671875 7.785156 -0.914062 7.484375 -1.0625 C 7.179688 -1.21875 6.863281 -1.289062 6.53125 -1.28125 C 6.207031 -1.269531 5.859375 -1.191406 5.484375 -1.046875 C 5.117188 -0.910156 4.757812 -0.722656 4.40625 -0.484375 C 4.039062 -0.242188 3.71875 0.0234375 3.4375 0.328125 C 3.164062 0.628906 2.953125 0.9375 2.796875 1.25 C 2.648438 1.570312 2.585938 1.910156 2.609375 2.265625 C 2.640625 2.617188 2.773438 2.972656 3.015625 3.328125 C 3.222656 3.628906 3.457031 3.847656 3.71875 3.984375 C 3.976562 4.128906 4.238281 4.210938 4.5 4.234375 C 4.769531 4.253906 5.023438 4.222656 5.265625 4.140625 C 5.515625 4.054688 5.726562 3.960938 5.90625 3.859375 Z M 6.625 4.90625 "/></g></g></g><g fill="#ffffff" fill-opacity="1"><g transform="translate(60.298525, 157.842729)"><g><path d="M 9.59375 -5.171875 L 6.578125 -2.53125 C 7.179688 -2.59375 7.707031 -2.53125 8.15625 -2.34375 C 8.601562 -2.164062 9.003906 -1.875 9.359375 -1.46875 C 9.640625 -1.144531 9.832031 -0.832031 9.9375 -0.53125 C 10.050781 -0.238281 10.097656 0.0351562 10.078125 0.296875 C 10.066406 0.554688 10.007812 0.789062 9.90625 1 C 9.8125 1.21875 9.703125 1.414062 9.578125 1.59375 C 9.453125 1.769531 9.316406 1.921875 9.171875 2.046875 C 9.023438 2.171875 8.914062 2.265625 8.84375 2.328125 L 4.984375 5.703125 L 4.109375 4.703125 L 7.65625 1.59375 C 7.820312 1.445312 8.003906 1.28125 8.203125 1.09375 C 8.410156 0.914062 8.566406 0.707031 8.671875 0.46875 C 8.785156 0.238281 8.832031 -0.00390625 8.8125 -0.265625 C 8.789062 -0.535156 8.640625 -0.828125 8.359375 -1.140625 C 8.242188 -1.273438 8.082031 -1.421875 7.875 -1.578125 C 7.664062 -1.734375 7.40625 -1.832031 7.09375 -1.875 C 6.789062 -1.925781 6.441406 -1.882812 6.046875 -1.75 C 5.660156 -1.625 5.234375 -1.351562 4.765625 -0.9375 L 1.59375 1.828125 L 0.71875 0.828125 L 8.71875 -6.171875 Z M 9.59375 -5.171875 "/></g></g></g><g fill="#ffffff" fill-opacity="1"><g transform="translate(66.380112, 164.594259)"><g><path d="M 8.109375 -6.953125 L 9.078125 -6.03125 L 8.109375 -5.015625 L 7.140625 -5.9375 Z M 7.0625 -3.90625 L 1.734375 1.65625 L 0.765625 0.734375 L 6.09375 -4.828125 Z M 7.0625 -3.90625 "/></g></g></g><g fill="#ffffff" fill-opacity="1"><g transform="translate(69.115189, 167.342204)"><g><path d="M 6.6875 -4.515625 L 6.015625 -3.671875 C 6.472656 -3.804688 6.957031 -3.835938 7.46875 -3.765625 C 7.988281 -3.703125 8.484375 -3.484375 8.953125 -3.109375 C 9.359375 -2.796875 9.640625 -2.472656 9.796875 -2.140625 C 9.953125 -1.816406 10.019531 -1.492188 10 -1.171875 C 9.976562 -0.847656 9.882812 -0.523438 9.71875 -0.203125 C 9.5625 0.109375 9.363281 0.414062 9.125 0.71875 L 5.9375 4.734375 L 4.90625 3.90625 L 7.84375 0.21875 C 7.96875 0.0625 8.109375 -0.128906 8.265625 -0.359375 C 8.421875 -0.585938 8.535156 -0.820312 8.609375 -1.0625 C 8.691406 -1.3125 8.695312 -1.570312 8.625 -1.84375 C 8.5625 -2.113281 8.363281 -2.378906 8.03125 -2.640625 C 7.894531 -2.753906 7.707031 -2.863281 7.46875 -2.96875 C 7.238281 -3.082031 6.96875 -3.132812 6.65625 -3.125 C 6.34375 -3.113281 6.003906 -3.007812 5.640625 -2.8125 C 5.285156 -2.613281 4.910156 -2.265625 4.515625 -1.765625 L 1.890625 1.515625 L 0.859375 0.6875 L 5.65625 -5.34375 Z M 6.6875 -4.515625 "/></g></g></g><g fill="#ffffff" fill-opacity="1"><g transform="translate(76.404141, 173.098542)"><g><path d="M 7.953125 -0.4375 C 8.078125 -0.664062 8.191406 -0.921875 8.296875 -1.203125 C 8.410156 -1.492188 8.460938 -1.785156 8.453125 -2.078125 C 8.453125 -2.378906 8.378906 -2.675781 8.234375 -2.96875 C 8.085938 -3.257812 7.832031 -3.515625 7.46875 -3.734375 C 7.050781 -3.992188 6.660156 -4.128906 6.296875 -4.140625 C 5.929688 -4.148438 5.609375 -4.085938 5.328125 -3.953125 C 5.046875 -3.816406 4.800781 -3.640625 4.59375 -3.421875 C 4.382812 -3.203125 4.21875 -2.988281 4.09375 -2.78125 Z M 7.9375 2.1875 C 7.75 2.394531 7.519531 2.59375 7.25 2.78125 C 6.976562 2.96875 6.664062 3.097656 6.3125 3.171875 C 5.957031 3.253906 5.566406 3.257812 5.140625 3.1875 C 4.722656 3.113281 4.253906 2.921875 3.734375 2.609375 C 3.191406 2.273438 2.773438 1.921875 2.484375 1.546875 C 2.203125 1.179688 2.003906 0.804688 1.890625 0.421875 C 1.785156 0.046875 1.742188 -0.316406 1.765625 -0.671875 C 1.796875 -1.035156 1.859375 -1.363281 1.953125 -1.65625 C 2.054688 -1.957031 2.164062 -2.21875 2.28125 -2.4375 C 2.394531 -2.65625 2.484375 -2.820312 2.546875 -2.9375 C 2.628906 -3.070312 2.75 -3.253906 2.90625 -3.484375 C 3.070312 -3.722656 3.269531 -3.953125 3.5 -4.171875 C 3.726562 -4.390625 3.992188 -4.585938 4.296875 -4.765625 C 4.597656 -4.953125 4.929688 -5.082031 5.296875 -5.15625 C 5.671875 -5.226562 6.078125 -5.226562 6.515625 -5.15625 C 6.953125 -5.082031 7.425781 -4.882812 7.9375 -4.5625 C 8.59375 -4.175781 9.046875 -3.742188 9.296875 -3.265625 C 9.554688 -2.796875 9.6875 -2.328125 9.6875 -1.859375 C 9.6875 -1.390625 9.597656 -0.925781 9.421875 -0.46875 C 9.242188 -0.0078125 9.054688 0.40625 8.859375 0.78125 C 8.828125 0.832031 8.796875 0.882812 8.765625 0.9375 C 8.742188 1 8.71875 1.054688 8.6875 1.109375 L 3.609375 -1.96875 C 3.429688 -1.6875 3.289062 -1.367188 3.1875 -1.015625 C 3.09375 -0.671875 3.050781 -0.332031 3.0625 0 C 3.082031 0.320312 3.175781 0.640625 3.34375 0.953125 C 3.519531 1.273438 3.796875 1.550781 4.171875 1.78125 C 4.441406 1.945312 4.707031 2.054688 4.96875 2.109375 C 5.238281 2.171875 5.484375 2.1875 5.703125 2.15625 C 5.929688 2.125 6.140625 2.050781 6.328125 1.9375 C 6.515625 1.832031 6.6875 1.695312 6.84375 1.53125 Z M 7.9375 2.1875 "/></g></g></g><g fill="#ffffff" fill-opacity="1"><g transform="translate(84.222489, 177.671355)"><g/></g></g><g fill="#ffffff" fill-opacity="1"><g transform="translate(87.773693, 179.590546)"><g><path d="M 10.8125 0.171875 C 10.632812 0.515625 10.394531 0.867188 10.09375 1.234375 C 9.800781 1.597656 9.429688 1.90625 8.984375 2.15625 C 8.535156 2.40625 8.003906 2.554688 7.390625 2.609375 C 6.785156 2.660156 6.082031 2.539062 5.28125 2.25 C 4.539062 1.976562 3.914062 1.617188 3.40625 1.171875 C 2.90625 0.734375 2.53125 0.222656 2.28125 -0.359375 C 2.039062 -0.953125 1.925781 -1.601562 1.9375 -2.3125 C 1.945312 -3.03125 2.097656 -3.785156 2.390625 -4.578125 C 2.703125 -5.460938 3.066406 -6.175781 3.484375 -6.71875 C 3.910156 -7.257812 4.34375 -7.679688 4.78125 -7.984375 C 5.226562 -8.285156 5.675781 -8.484375 6.125 -8.578125 C 6.582031 -8.671875 7.003906 -8.707031 7.390625 -8.6875 C 7.785156 -8.664062 8.128906 -8.613281 8.421875 -8.53125 C 8.722656 -8.457031 8.941406 -8.394531 9.078125 -8.34375 C 9.878906 -8.050781 10.5 -7.707031 10.9375 -7.3125 C 11.375 -6.914062 11.6875 -6.5 11.875 -6.0625 C 12.0625 -5.625 12.148438 -5.179688 12.140625 -4.734375 C 12.140625 -4.285156 12.085938 -3.863281 11.984375 -3.46875 L 10.640625 -3.953125 C 10.679688 -4.140625 10.707031 -4.375 10.71875 -4.65625 C 10.738281 -4.945312 10.691406 -5.242188 10.578125 -5.546875 C 10.460938 -5.859375 10.253906 -6.160156 9.953125 -6.453125 C 9.660156 -6.753906 9.226562 -7.007812 8.65625 -7.21875 C 8.03125 -7.445312 7.46875 -7.515625 6.96875 -7.421875 C 6.46875 -7.335938 6.015625 -7.140625 5.609375 -6.828125 C 5.210938 -6.515625 4.867188 -6.117188 4.578125 -5.640625 C 4.285156 -5.171875 4.039062 -4.664062 3.84375 -4.125 C 3.632812 -3.550781 3.515625 -2.988281 3.484375 -2.4375 C 3.460938 -1.882812 3.53125 -1.375 3.6875 -0.90625 C 3.84375 -0.4375 4.09375 -0.0234375 4.4375 0.328125 C 4.78125 0.679688 5.21875 0.953125 5.75 1.140625 C 6.144531 1.285156 6.535156 1.359375 6.921875 1.359375 C 7.304688 1.359375 7.660156 1.289062 7.984375 1.15625 C 8.304688 1.03125 8.59375 0.84375 8.84375 0.59375 C 9.101562 0.34375 9.3125 0.0390625 9.46875 -0.3125 Z M 10.8125 0.171875 "/></g></g></g><g fill="#ffffff" fill-opacity="1"><g transform="translate(98.602599, 183.389349)"><g><path d="M 2.796875 -3.390625 C 2.640625 -2.628906 2.613281 -2.015625 2.71875 -1.546875 C 2.820312 -1.078125 2.976562 -0.710938 3.1875 -0.453125 C 3.40625 -0.203125 3.640625 -0.03125 3.890625 0.0625 C 4.140625 0.164062 4.335938 0.234375 4.484375 0.265625 C 4.628906 0.296875 4.835938 0.3125 5.109375 0.3125 C 5.378906 0.320312 5.660156 0.25 5.953125 0.09375 C 6.253906 -0.0507812 6.539062 -0.316406 6.8125 -0.703125 C 7.09375 -1.085938 7.3125 -1.660156 7.46875 -2.421875 C 7.613281 -3.160156 7.632812 -3.765625 7.53125 -4.234375 C 7.4375 -4.710938 7.28125 -5.082031 7.0625 -5.34375 C 6.851562 -5.601562 6.625 -5.78125 6.375 -5.875 C 6.125 -5.96875 5.925781 -6.03125 5.78125 -6.0625 C 5.632812 -6.09375 5.425781 -6.113281 5.15625 -6.125 C 4.882812 -6.132812 4.597656 -6.0625 4.296875 -5.90625 C 4.003906 -5.75 3.71875 -5.472656 3.4375 -5.078125 C 3.15625 -4.691406 2.941406 -4.128906 2.796875 -3.390625 Z M 1.421875 -3.65625 C 1.515625 -4.15625 1.675781 -4.632812 1.90625 -5.09375 C 2.132812 -5.550781 2.429688 -5.941406 2.796875 -6.265625 C 3.160156 -6.585938 3.609375 -6.816406 4.140625 -6.953125 C 4.679688 -7.097656 5.289062 -7.101562 5.96875 -6.96875 C 6.644531 -6.832031 7.195312 -6.59375 7.625 -6.25 C 8.050781 -5.914062 8.367188 -5.523438 8.578125 -5.078125 C 8.796875 -4.628906 8.914062 -4.148438 8.9375 -3.640625 C 8.96875 -3.128906 8.9375 -2.625 8.84375 -2.125 C 8.738281 -1.613281 8.570312 -1.128906 8.34375 -0.671875 C 8.113281 -0.210938 7.8125 0.175781 7.4375 0.5 C 7.070312 0.820312 6.625 1.050781 6.09375 1.1875 C 5.570312 1.320312 4.972656 1.320312 4.296875 1.1875 C 3.617188 1.050781 3.0625 0.816406 2.625 0.484375 C 2.1875 0.148438 1.863281 -0.238281 1.65625 -0.6875 C 1.445312 -1.132812 1.328125 -1.613281 1.296875 -2.125 C 1.273438 -2.632812 1.316406 -3.144531 1.421875 -3.65625 Z M 1.421875 -3.65625 "/></g></g></g><g fill="#ffffff" fill-opacity="1"><g transform="translate(107.917864, 185.255284)"><g><path d="M 2.328125 -3.71875 C 2.273438 -2.957031 2.328125 -2.347656 2.484375 -1.890625 C 2.648438 -1.441406 2.851562 -1.101562 3.09375 -0.875 C 3.34375 -0.65625 3.597656 -0.507812 3.859375 -0.4375 C 4.117188 -0.375 4.328125 -0.335938 4.484375 -0.328125 C 4.628906 -0.316406 4.835938 -0.320312 5.109375 -0.34375 C 5.378906 -0.375 5.648438 -0.484375 5.921875 -0.671875 C 6.191406 -0.867188 6.4375 -1.175781 6.65625 -1.59375 C 6.882812 -2.019531 7.023438 -2.613281 7.078125 -3.375 C 7.140625 -4.132812 7.085938 -4.738281 6.921875 -5.1875 C 6.753906 -5.644531 6.546875 -5.988281 6.296875 -6.21875 C 6.054688 -6.445312 5.804688 -6.59375 5.546875 -6.65625 C 5.285156 -6.71875 5.082031 -6.753906 4.9375 -6.765625 C 4.78125 -6.773438 4.566406 -6.769531 4.296875 -6.75 C 4.023438 -6.726562 3.753906 -6.617188 3.484375 -6.421875 C 3.210938 -6.222656 2.96875 -5.910156 2.75 -5.484375 C 2.53125 -5.066406 2.390625 -4.476562 2.328125 -3.71875 Z M 0.921875 -3.796875 C 0.960938 -4.304688 1.0625 -4.800781 1.21875 -5.28125 C 1.382812 -5.769531 1.628906 -6.195312 1.953125 -6.5625 C 2.285156 -6.9375 2.703125 -7.226562 3.203125 -7.4375 C 3.703125 -7.65625 4.300781 -7.738281 5 -7.6875 C 5.6875 -7.632812 6.265625 -7.46875 6.734375 -7.1875 C 7.210938 -6.914062 7.582031 -6.570312 7.84375 -6.15625 C 8.113281 -5.75 8.296875 -5.289062 8.390625 -4.78125 C 8.492188 -4.28125 8.523438 -3.773438 8.484375 -3.265625 C 8.453125 -2.753906 8.351562 -2.253906 8.1875 -1.765625 C 8.019531 -1.285156 7.773438 -0.859375 7.453125 -0.484375 C 7.128906 -0.117188 6.710938 0.164062 6.203125 0.375 C 5.703125 0.582031 5.109375 0.660156 4.421875 0.609375 C 3.722656 0.554688 3.140625 0.394531 2.671875 0.125 C 2.203125 -0.144531 1.832031 -0.484375 1.5625 -0.890625 C 1.289062 -1.304688 1.109375 -1.765625 1.015625 -2.265625 C 0.921875 -2.773438 0.890625 -3.285156 0.921875 -3.796875 Z M 0.921875 -3.796875 "/></g></g></g><g fill="#ffffff" fill-opacity="1"><g transform="translate(117.211911, 185.766138)"><g><path d="M 2.1875 -10.671875 L 2.421875 -0.046875 L 1.09375 -0.03125 L 0.859375 -10.65625 Z M 2.1875 -10.671875 "/></g></g></g><g fill="#ffffff" fill-opacity="1"><g transform="translate(120.96628, 185.67784)"><g><path d="M 0.28125 -10.671875 L 1.609375 -10.765625 L 1.71875 -9.359375 L 0.390625 -9.265625 Z M 1.828125 -7.859375 L 2.390625 -0.171875 L 1.0625 -0.078125 L 0.5 -7.765625 Z M 1.828125 -7.859375 "/></g></g></g><g fill="#ffffff" fill-opacity="1"><g transform="translate(124.839668, 185.492911)"><g><path d="M 1.140625 -7.984375 L 1.3125 -6.921875 C 1.519531 -7.347656 1.816406 -7.726562 2.203125 -8.0625 C 2.597656 -8.40625 3.097656 -8.628906 3.703125 -8.734375 C 4.203125 -8.816406 4.625 -8.804688 4.96875 -8.703125 C 5.3125 -8.609375 5.597656 -8.441406 5.828125 -8.203125 C 6.066406 -7.972656 6.25 -7.691406 6.375 -7.359375 C 6.507812 -7.023438 6.609375 -6.671875 6.671875 -6.296875 L 7.5 -1.234375 L 6.1875 -1.015625 L 5.421875 -5.671875 C 5.390625 -5.867188 5.34375 -6.101562 5.28125 -6.375 C 5.21875 -6.644531 5.117188 -6.890625 4.984375 -7.109375 C 4.859375 -7.328125 4.671875 -7.5 4.421875 -7.625 C 4.171875 -7.757812 3.835938 -7.789062 3.421875 -7.71875 C 3.242188 -7.695312 3.035156 -7.632812 2.796875 -7.53125 C 2.554688 -7.4375 2.335938 -7.269531 2.140625 -7.03125 C 1.941406 -6.800781 1.789062 -6.484375 1.6875 -6.078125 C 1.59375 -5.679688 1.597656 -5.164062 1.703125 -4.53125 L 2.390625 -0.390625 L 1.078125 -0.171875 L -0.171875 -7.765625 Z M 1.140625 -7.984375 "/></g></g></g><g fill="#ffffff" fill-opacity="1"><g transform="translate(134.015838, 183.953313)"><g><path d="M 4.109375 -1.90625 C 4.222656 -1.945312 4.394531 -2.035156 4.625 -2.171875 C 4.851562 -2.304688 5.050781 -2.519531 5.21875 -2.8125 C 5.394531 -3.101562 5.507812 -3.484375 5.5625 -3.953125 C 5.613281 -4.429688 5.535156 -5.023438 5.328125 -5.734375 C 5.035156 -6.671875 4.617188 -7.34375 4.078125 -7.75 C 3.535156 -8.15625 2.890625 -8.242188 2.140625 -8.015625 C 1.773438 -7.910156 1.488281 -7.757812 1.28125 -7.5625 C 1.070312 -7.363281 0.910156 -7.148438 0.796875 -6.921875 C 0.691406 -6.691406 0.632812 -6.445312 0.625 -6.1875 C 0.625 -5.9375 0.628906 -5.695312 0.640625 -5.46875 C 0.660156 -5.238281 0.695312 -5.03125 0.75 -4.84375 C 0.800781 -4.65625 0.84375 -4.507812 0.875 -4.40625 C 1.101562 -3.664062 1.375 -3.109375 1.6875 -2.734375 C 2 -2.359375 2.304688 -2.101562 2.609375 -1.96875 C 2.910156 -1.832031 3.195312 -1.773438 3.46875 -1.796875 C 3.75 -1.828125 3.960938 -1.863281 4.109375 -1.90625 Z M 2.65625 0.09375 C 2.78125 0.289062 2.929688 0.4375 3.109375 0.53125 C 3.285156 0.632812 3.472656 0.695312 3.671875 0.71875 C 3.878906 0.738281 4.09375 0.734375 4.3125 0.703125 C 4.53125 0.671875 4.734375 0.625 4.921875 0.5625 C 5.429688 0.414062 5.789062 0.195312 6 -0.09375 C 6.207031 -0.382812 6.335938 -0.675781 6.390625 -0.96875 C 6.441406 -1.269531 6.441406 -1.546875 6.390625 -1.796875 C 6.335938 -2.054688 6.296875 -2.238281 6.265625 -2.34375 L 6.015625 -3.140625 C 5.929688 -2.804688 5.835938 -2.519531 5.734375 -2.28125 C 5.628906 -2.050781 5.5 -1.847656 5.34375 -1.671875 C 5.1875 -1.492188 5.003906 -1.347656 4.796875 -1.234375 C 4.597656 -1.117188 4.363281 -1.019531 4.09375 -0.9375 C 3.65625 -0.800781 3.210938 -0.75 2.765625 -0.78125 C 2.328125 -0.8125 1.90625 -0.941406 1.5 -1.171875 C 1.09375 -1.410156 0.71875 -1.753906 0.375 -2.203125 C 0.0390625 -2.648438 -0.234375 -3.234375 -0.453125 -3.953125 C -0.484375 -4.066406 -0.53125 -4.242188 -0.59375 -4.484375 C -0.65625 -4.734375 -0.703125 -5.007812 -0.734375 -5.3125 C -0.773438 -5.613281 -0.773438 -5.9375 -0.734375 -6.28125 C -0.703125 -6.625 -0.601562 -6.960938 -0.4375 -7.296875 C -0.28125 -7.628906 -0.046875 -7.929688 0.265625 -8.203125 C 0.585938 -8.472656 1.015625 -8.6875 1.546875 -8.84375 C 2.148438 -9.03125 2.703125 -9.078125 3.203125 -8.984375 C 3.703125 -8.890625 4.128906 -8.664062 4.484375 -8.3125 L 4.53125 -8.328125 L 4.234375 -9.34375 L 5.4375 -9.703125 L 7.609375 -2.515625 C 7.753906 -2.046875 7.804688 -1.625 7.765625 -1.25 C 7.734375 -0.875 7.648438 -0.546875 7.515625 -0.265625 C 7.390625 0.015625 7.21875 0.253906 7 0.453125 C 6.78125 0.660156 6.5625 0.832031 6.34375 0.96875 C 6.125 1.101562 5.90625 1.210938 5.6875 1.296875 C 5.476562 1.378906 5.3125 1.4375 5.1875 1.46875 C 5.019531 1.519531 4.78125 1.582031 4.46875 1.65625 C 4.164062 1.738281 3.832031 1.765625 3.46875 1.734375 C 3.101562 1.710938 2.738281 1.613281 2.375 1.4375 C 2.019531 1.257812 1.710938 0.9375 1.453125 0.46875 Z M 2.65625 0.09375 "/></g></g></g><g fill="#ffffff" fill-opacity="1"><g transform="translate(143.087221, 181.039127)"><g/></g></g><g fill="#ffffff" fill-opacity="1"><g transform="translate(146.841926, 179.649604)"><g><path d="M 0.28125 -3.96875 C 0.4375 -3.65625 0.640625 -3.394531 0.890625 -3.1875 C 1.148438 -2.976562 1.445312 -2.835938 1.78125 -2.765625 C 2.125 -2.703125 2.492188 -2.695312 2.890625 -2.75 C 3.296875 -2.8125 3.707031 -2.953125 4.125 -3.171875 C 4.550781 -3.398438 4.878906 -3.644531 5.109375 -3.90625 C 5.347656 -4.164062 5.515625 -4.421875 5.609375 -4.671875 C 5.710938 -4.929688 5.75 -5.1875 5.71875 -5.4375 C 5.695312 -5.695312 5.625 -5.941406 5.5 -6.171875 C 5.351562 -6.453125 5.171875 -6.65625 4.953125 -6.78125 C 4.734375 -6.90625 4.5 -6.984375 4.25 -7.015625 C 4.007812 -7.046875 3.757812 -7.035156 3.5 -6.984375 C 3.238281 -6.929688 2.984375 -6.875 2.734375 -6.8125 C 2.140625 -6.632812 1.570312 -6.46875 1.03125 -6.3125 C 0.488281 -6.164062 -0.0078125 -6.085938 -0.46875 -6.078125 C -0.9375 -6.066406 -1.367188 -6.160156 -1.765625 -6.359375 C -2.160156 -6.554688 -2.5 -6.921875 -2.78125 -7.453125 C -3.007812 -7.878906 -3.128906 -8.3125 -3.140625 -8.75 C -3.148438 -9.1875 -3.054688 -9.597656 -2.859375 -9.984375 C -2.671875 -10.378906 -2.390625 -10.75 -2.015625 -11.09375 C -1.640625 -11.4375 -1.191406 -11.75 -0.671875 -12.03125 C -0.0859375 -12.34375 0.453125 -12.535156 0.953125 -12.609375 C 1.460938 -12.691406 1.925781 -12.679688 2.34375 -12.578125 C 2.757812 -12.484375 3.128906 -12.3125 3.453125 -12.0625 C 3.773438 -11.8125 4.046875 -11.507812 4.265625 -11.15625 L 3 -10.5 C 2.75 -10.851562 2.472656 -11.09375 2.171875 -11.21875 C 1.878906 -11.351562 1.582031 -11.414062 1.28125 -11.40625 C 0.976562 -11.394531 0.703125 -11.332031 0.453125 -11.21875 C 0.210938 -11.113281 0.015625 -11.023438 -0.140625 -10.953125 C -0.773438 -10.609375 -1.21875 -10.1875 -1.46875 -9.6875 C -1.726562 -9.195312 -1.726562 -8.710938 -1.46875 -8.234375 C -1.320312 -7.953125 -1.132812 -7.753906 -0.90625 -7.640625 C -0.6875 -7.535156 -0.441406 -7.484375 -0.171875 -7.484375 C 0.0976562 -7.492188 0.390625 -7.539062 0.703125 -7.625 C 1.023438 -7.71875 1.359375 -7.816406 1.703125 -7.921875 C 2.171875 -8.054688 2.644531 -8.1875 3.125 -8.3125 C 3.601562 -8.4375 4.066406 -8.488281 4.515625 -8.46875 C 4.972656 -8.445312 5.398438 -8.316406 5.796875 -8.078125 C 6.191406 -7.847656 6.539062 -7.445312 6.84375 -6.875 C 7.082031 -6.414062 7.210938 -5.988281 7.234375 -5.59375 C 7.253906 -5.195312 7.207031 -4.832031 7.09375 -4.5 C 6.976562 -4.164062 6.804688 -3.863281 6.578125 -3.59375 C 6.347656 -3.332031 6.109375 -3.101562 5.859375 -2.90625 C 5.609375 -2.707031 5.367188 -2.539062 5.140625 -2.40625 C 4.910156 -2.269531 4.734375 -2.164062 4.609375 -2.09375 C 4.273438 -1.914062 3.875 -1.742188 3.40625 -1.578125 C 2.945312 -1.410156 2.460938 -1.332031 1.953125 -1.34375 C 1.453125 -1.351562 0.945312 -1.5 0.4375 -1.78125 C -0.0703125 -2.070312 -0.539062 -2.582031 -0.96875 -3.3125 Z M 0.28125 -3.96875 "/></g></g></g><g fill="#ffffff" fill-opacity="1"><g transform="translate(156.100643, 174.595032)"><g><path d="M 2.171875 0.6875 C 2.347656 0.570312 2.476562 0.492188 2.5625 0.453125 C 2.644531 0.421875 2.710938 0.382812 2.765625 0.34375 C 2.921875 0.226562 3.03125 0.109375 3.09375 -0.015625 C 3.164062 -0.148438 3.203125 -0.289062 3.203125 -0.4375 C 3.203125 -0.59375 3.175781 -0.753906 3.125 -0.921875 C 3.082031 -1.085938 3.035156 -1.253906 2.984375 -1.421875 L 2.796875 -2 L -4.375 -6.34375 L -3.078125 -7.265625 L 2.5625 -3.625 L 0.59375 -9.890625 L 1.6875 -10.671875 L 4.1875 -1.859375 C 4.25 -1.671875 4.3125 -1.460938 4.375 -1.234375 C 4.4375 -1.003906 4.460938 -0.765625 4.453125 -0.515625 C 4.453125 -0.273438 4.394531 -0.03125 4.28125 0.21875 C 4.175781 0.46875 3.976562 0.695312 3.6875 0.90625 C 3.507812 1.03125 3.335938 1.140625 3.171875 1.234375 C 3.015625 1.335938 2.875 1.421875 2.75 1.484375 Z M 2.171875 0.6875 "/></g></g></g><g fill="#ffffff" fill-opacity="1"><g transform="translate(162.666654, 169.894539)"><g><path d="M -0.140625 -2.953125 C 0.078125 -2.734375 0.300781 -2.585938 0.53125 -2.515625 C 0.769531 -2.441406 1.003906 -2.421875 1.234375 -2.453125 C 1.472656 -2.484375 1.703125 -2.5625 1.921875 -2.6875 C 2.140625 -2.820312 2.34375 -2.972656 2.53125 -3.140625 C 2.863281 -3.429688 3.078125 -3.703125 3.171875 -3.953125 C 3.273438 -4.210938 3.316406 -4.4375 3.296875 -4.625 C 3.273438 -4.820312 3.210938 -4.984375 3.109375 -5.109375 C 3.015625 -5.242188 2.941406 -5.34375 2.890625 -5.40625 C 2.804688 -5.5 2.710938 -5.578125 2.609375 -5.640625 C 2.515625 -5.703125 2.390625 -5.734375 2.234375 -5.734375 C 2.085938 -5.742188 1.898438 -5.710938 1.671875 -5.640625 C 1.441406 -5.566406 1.160156 -5.441406 0.828125 -5.265625 L 0.09375 -4.859375 C -0.1875 -4.691406 -0.46875 -4.539062 -0.75 -4.40625 C -1.039062 -4.28125 -1.320312 -4.207031 -1.59375 -4.1875 C -1.863281 -4.164062 -2.132812 -4.203125 -2.40625 -4.296875 C -2.675781 -4.390625 -2.945312 -4.585938 -3.21875 -4.890625 C -3.5 -5.210938 -3.671875 -5.535156 -3.734375 -5.859375 C -3.804688 -6.191406 -3.789062 -6.515625 -3.6875 -6.828125 C -3.582031 -7.140625 -3.425781 -7.4375 -3.21875 -7.71875 C -3.019531 -8.007812 -2.785156 -8.273438 -2.515625 -8.515625 C -2.023438 -8.953125 -1.578125 -9.242188 -1.171875 -9.390625 C -0.765625 -9.535156 -0.398438 -9.59375 -0.078125 -9.5625 C 0.242188 -9.53125 0.523438 -9.441406 0.765625 -9.296875 C 1.003906 -9.160156 1.207031 -9.015625 1.375 -8.859375 L 0.40625 -8.015625 C 0.332031 -8.085938 0.222656 -8.164062 0.078125 -8.25 C -0.0546875 -8.34375 -0.21875 -8.398438 -0.40625 -8.421875 C -0.601562 -8.441406 -0.820312 -8.410156 -1.0625 -8.328125 C -1.300781 -8.253906 -1.5625 -8.085938 -1.84375 -7.828125 C -1.875 -7.796875 -1.953125 -7.722656 -2.078125 -7.609375 C -2.203125 -7.492188 -2.304688 -7.34375 -2.390625 -7.15625 C -2.472656 -6.976562 -2.515625 -6.773438 -2.515625 -6.546875 C -2.523438 -6.328125 -2.425781 -6.101562 -2.21875 -5.875 C -2.039062 -5.675781 -1.851562 -5.554688 -1.65625 -5.515625 C -1.46875 -5.472656 -1.265625 -5.476562 -1.046875 -5.53125 C -0.835938 -5.59375 -0.617188 -5.6875 -0.390625 -5.8125 C -0.171875 -5.945312 0.0546875 -6.085938 0.296875 -6.234375 C 0.648438 -6.421875 0.984375 -6.59375 1.296875 -6.75 C 1.617188 -6.90625 1.921875 -7.003906 2.203125 -7.046875 C 2.492188 -7.085938 2.769531 -7.0625 3.03125 -6.96875 C 3.300781 -6.875 3.570312 -6.675781 3.84375 -6.375 C 4.113281 -6.070312 4.285156 -5.769531 4.359375 -5.46875 C 4.441406 -5.175781 4.46875 -4.890625 4.4375 -4.609375 C 4.40625 -4.328125 4.328125 -4.0625 4.203125 -3.8125 C 4.078125 -3.5625 3.941406 -3.335938 3.796875 -3.140625 C 3.648438 -2.953125 3.515625 -2.796875 3.390625 -2.671875 C 3.273438 -2.546875 3.191406 -2.460938 3.140625 -2.421875 C 2.710938 -2.035156 2.296875 -1.75 1.890625 -1.5625 C 1.484375 -1.382812 1.097656 -1.289062 0.734375 -1.28125 C 0.367188 -1.269531 0.03125 -1.332031 -0.28125 -1.46875 C -0.59375 -1.613281 -0.875 -1.8125 -1.125 -2.0625 Z M -0.140625 -2.953125 "/></g></g></g><g fill="#ffffff" fill-opacity="1"><g transform="translate(168.63922, 164.42172)"><g><path d="M -4.578125 -6.390625 L -6.265625 -7.953125 L -5.375 -8.921875 L -3.6875 -7.359375 L -2.5625 -8.578125 L -1.875 -7.9375 L -3 -6.71875 L 0.609375 -3.390625 C 0.703125 -3.296875 0.796875 -3.207031 0.890625 -3.125 C 0.992188 -3.050781 1.097656 -2.992188 1.203125 -2.953125 C 1.316406 -2.921875 1.429688 -2.925781 1.546875 -2.96875 C 1.671875 -3.019531 1.804688 -3.125 1.953125 -3.28125 C 2.046875 -3.375 2.128906 -3.484375 2.203125 -3.609375 C 2.285156 -3.734375 2.351562 -3.859375 2.40625 -3.984375 L 3.09375 -3.34375 C 3.019531 -3.125 2.914062 -2.90625 2.78125 -2.6875 C 2.65625 -2.46875 2.515625 -2.273438 2.359375 -2.109375 C 2.085938 -1.816406 1.832031 -1.632812 1.59375 -1.5625 C 1.363281 -1.488281 1.148438 -1.476562 0.953125 -1.53125 C 0.753906 -1.582031 0.566406 -1.675781 0.390625 -1.8125 C 0.210938 -1.957031 0.0507812 -2.097656 -0.09375 -2.234375 L -3.890625 -5.75 L -4.828125 -4.75 L -5.515625 -5.390625 Z M -4.578125 -6.390625 "/></g></g></g><g fill="#ffffff" fill-opacity="1"><g transform="translate(172.304971, 160.567044)"><g><path d="M 0.390625 -7.953125 C 0.171875 -8.097656 -0.0703125 -8.238281 -0.34375 -8.375 C -0.613281 -8.507812 -0.898438 -8.59375 -1.203125 -8.625 C -1.503906 -8.65625 -1.804688 -8.609375 -2.109375 -8.484375 C -2.421875 -8.367188 -2.703125 -8.140625 -2.953125 -7.796875 C -3.253906 -7.410156 -3.425781 -7.039062 -3.46875 -6.6875 C -3.519531 -6.332031 -3.492188 -6.003906 -3.390625 -5.703125 C -3.285156 -5.410156 -3.128906 -5.144531 -2.921875 -4.90625 C -2.722656 -4.675781 -2.523438 -4.488281 -2.328125 -4.34375 Z M 3 -7.671875 C 3.1875 -7.472656 3.359375 -7.226562 3.515625 -6.9375 C 3.671875 -6.644531 3.765625 -6.316406 3.796875 -5.953125 C 3.835938 -5.597656 3.800781 -5.210938 3.6875 -4.796875 C 3.570312 -4.378906 3.332031 -3.929688 2.96875 -3.453125 C 2.59375 -2.953125 2.203125 -2.570312 1.796875 -2.3125 C 1.398438 -2.0625 1.003906 -1.898438 0.609375 -1.828125 C 0.222656 -1.765625 -0.140625 -1.765625 -0.484375 -1.828125 C -0.835938 -1.898438 -1.160156 -2 -1.453125 -2.125 C -1.742188 -2.25 -1.992188 -2.378906 -2.203125 -2.515625 C -2.410156 -2.648438 -2.5625 -2.757812 -2.65625 -2.84375 C -2.789062 -2.9375 -2.960938 -3.078125 -3.171875 -3.265625 C -3.378906 -3.453125 -3.582031 -3.664062 -3.78125 -3.90625 C -3.976562 -4.15625 -4.15625 -4.4375 -4.3125 -4.75 C -4.46875 -5.070312 -4.5625 -5.421875 -4.59375 -5.796875 C -4.625 -6.171875 -4.578125 -6.570312 -4.453125 -7 C -4.328125 -7.425781 -4.082031 -7.878906 -3.71875 -8.359375 C -3.257812 -8.960938 -2.785156 -9.367188 -2.296875 -9.578125 C -1.804688 -9.785156 -1.320312 -9.863281 -0.84375 -9.8125 C -0.375 -9.769531 0.078125 -9.632812 0.515625 -9.40625 C 0.953125 -9.1875 1.34375 -8.960938 1.6875 -8.734375 C 1.726562 -8.703125 1.773438 -8.664062 1.828125 -8.625 C 1.890625 -8.59375 1.945312 -8.5625 2 -8.53125 L -1.578125 -3.78125 C -1.316406 -3.582031 -1.019531 -3.414062 -0.6875 -3.28125 C -0.363281 -3.15625 -0.0351562 -3.082031 0.296875 -3.0625 C 0.628906 -3.039062 0.960938 -3.097656 1.296875 -3.234375 C 1.628906 -3.378906 1.929688 -3.628906 2.203125 -3.984375 C 2.390625 -4.234375 2.523438 -4.484375 2.609375 -4.734375 C 2.703125 -4.984375 2.742188 -5.222656 2.734375 -5.453125 C 2.722656 -5.679688 2.671875 -5.894531 2.578125 -6.09375 C 2.492188 -6.300781 2.375 -6.484375 2.21875 -6.640625 Z M 3 -7.671875 "/></g></g></g><g fill="#ffffff" fill-opacity="1"><g transform="translate(178.082264, 153.127631)"><g><path d="M -5.6875 -5.734375 L -4.765625 -5.25 L -4.6875 -5.1875 C -4.84375 -5.382812 -4.957031 -5.597656 -5.03125 -5.828125 C -5.101562 -6.066406 -5.144531 -6.3125 -5.15625 -6.5625 C -5.164062 -6.8125 -5.144531 -7.054688 -5.09375 -7.296875 C -5.050781 -7.535156 -4.972656 -7.765625 -4.859375 -7.984375 C -4.703125 -8.273438 -4.519531 -8.503906 -4.3125 -8.671875 C -4.113281 -8.847656 -3.90625 -8.976562 -3.6875 -9.0625 C -3.46875 -9.144531 -3.242188 -9.191406 -3.015625 -9.203125 C -2.785156 -9.222656 -2.566406 -9.207031 -2.359375 -9.15625 C -2.453125 -9.28125 -2.546875 -9.445312 -2.640625 -9.65625 C -2.742188 -9.875 -2.828125 -10.113281 -2.890625 -10.375 C -2.953125 -10.644531 -2.960938 -10.941406 -2.921875 -11.265625 C -2.890625 -11.585938 -2.773438 -11.929688 -2.578125 -12.296875 C -2.304688 -12.804688 -1.988281 -13.15625 -1.625 -13.34375 C -1.257812 -13.53125 -0.894531 -13.617188 -0.53125 -13.609375 C -0.164062 -13.597656 0.171875 -13.523438 0.484375 -13.390625 C 0.804688 -13.265625 1.066406 -13.148438 1.265625 -13.046875 L 5.65625 -10.734375 L 5.03125 -9.546875 L 0.703125 -11.828125 C 0.523438 -11.921875 0.316406 -12.015625 0.078125 -12.109375 C -0.148438 -12.210938 -0.382812 -12.269531 -0.625 -12.28125 C -0.863281 -12.289062 -1.097656 -12.242188 -1.328125 -12.140625 C -1.554688 -12.035156 -1.75 -11.832031 -1.90625 -11.53125 C -2.007812 -11.34375 -2.085938 -11.125 -2.140625 -10.875 C -2.191406 -10.625 -2.179688 -10.367188 -2.109375 -10.109375 C -2.046875 -9.847656 -1.898438 -9.582031 -1.671875 -9.3125 C -1.453125 -9.050781 -1.117188 -8.804688 -0.671875 -8.578125 L 3.390625 -6.4375 L 2.78125 -5.265625 L -1.53125 -7.53125 C -1.78125 -7.664062 -2.03125 -7.773438 -2.28125 -7.859375 C -2.53125 -7.941406 -2.769531 -7.976562 -3 -7.96875 C -3.238281 -7.96875 -3.457031 -7.914062 -3.65625 -7.8125 C -3.851562 -7.707031 -4.023438 -7.515625 -4.171875 -7.234375 C -4.296875 -6.992188 -4.363281 -6.738281 -4.375 -6.46875 C -4.382812 -6.195312 -4.335938 -5.925781 -4.234375 -5.65625 C -4.140625 -5.394531 -3.984375 -5.144531 -3.765625 -4.90625 C -3.546875 -4.664062 -3.269531 -4.457031 -2.9375 -4.28125 L 1.125 -2.140625 L 0.515625 -0.96875 L -6.296875 -4.5625 Z M -5.6875 -5.734375 "/></g></g></g><g fill="#ffffff" fill-opacity="1"><g transform="translate(184.339472, 140.673277)"><g><path d="M -1.5625 -2.53125 C -1.269531 -2.425781 -1.003906 -2.398438 -0.765625 -2.453125 C -0.523438 -2.503906 -0.304688 -2.601562 -0.109375 -2.75 C 0.078125 -2.894531 0.234375 -3.070312 0.359375 -3.28125 C 0.492188 -3.5 0.597656 -3.722656 0.671875 -3.953125 C 0.816406 -4.378906 0.867188 -4.726562 0.828125 -5 C 0.796875 -5.269531 0.722656 -5.484375 0.609375 -5.640625 C 0.492188 -5.796875 0.363281 -5.90625 0.21875 -5.96875 C 0.0703125 -6.039062 -0.0390625 -6.085938 -0.125 -6.109375 C -0.238281 -6.148438 -0.351562 -6.175781 -0.46875 -6.1875 C -0.582031 -6.195312 -0.707031 -6.171875 -0.84375 -6.109375 C -0.976562 -6.046875 -1.128906 -5.925781 -1.296875 -5.75 C -1.460938 -5.570312 -1.644531 -5.320312 -1.84375 -5 L -2.28125 -4.296875 C -2.445312 -4.003906 -2.617188 -3.726562 -2.796875 -3.46875 C -2.984375 -3.21875 -3.191406 -3.019531 -3.421875 -2.875 C -3.648438 -2.726562 -3.90625 -2.628906 -4.1875 -2.578125 C -4.476562 -2.535156 -4.816406 -2.578125 -5.203125 -2.703125 C -5.609375 -2.847656 -5.914062 -3.046875 -6.125 -3.296875 C -6.34375 -3.546875 -6.484375 -3.832031 -6.546875 -4.15625 C -6.609375 -4.488281 -6.617188 -4.828125 -6.578125 -5.171875 C -6.535156 -5.523438 -6.457031 -5.867188 -6.34375 -6.203125 C -6.132812 -6.816406 -5.890625 -7.285156 -5.609375 -7.609375 C -5.328125 -7.941406 -5.035156 -8.171875 -4.734375 -8.296875 C -4.429688 -8.429688 -4.140625 -8.492188 -3.859375 -8.484375 C -3.585938 -8.484375 -3.34375 -8.457031 -3.125 -8.40625 L -3.546875 -7.1875 C -3.660156 -7.226562 -3.796875 -7.25 -3.953125 -7.25 C -4.117188 -7.25 -4.289062 -7.210938 -4.46875 -7.140625 C -4.65625 -7.066406 -4.832031 -6.9375 -5 -6.75 C -5.164062 -6.570312 -5.3125 -6.300781 -5.4375 -5.9375 C -5.445312 -5.894531 -5.476562 -5.789062 -5.53125 -5.625 C -5.582031 -5.46875 -5.597656 -5.285156 -5.578125 -5.078125 C -5.566406 -4.878906 -5.503906 -4.679688 -5.390625 -4.484375 C -5.285156 -4.285156 -5.09375 -4.140625 -4.8125 -4.046875 C -4.550781 -3.953125 -4.328125 -3.929688 -4.140625 -3.984375 C -3.953125 -4.046875 -3.78125 -4.15625 -3.625 -4.3125 C -3.476562 -4.46875 -3.332031 -4.65625 -3.1875 -4.875 C -3.050781 -5.101562 -2.914062 -5.34375 -2.78125 -5.59375 C -2.5625 -5.925781 -2.347656 -6.234375 -2.140625 -6.515625 C -1.941406 -6.804688 -1.726562 -7.039062 -1.5 -7.21875 C -1.28125 -7.40625 -1.023438 -7.519531 -0.734375 -7.5625 C -0.453125 -7.613281 -0.125 -7.570312 0.25 -7.4375 C 0.625 -7.3125 0.921875 -7.140625 1.140625 -6.921875 C 1.359375 -6.703125 1.519531 -6.457031 1.625 -6.1875 C 1.738281 -5.925781 1.800781 -5.65625 1.8125 -5.375 C 1.832031 -5.101562 1.820312 -4.84375 1.78125 -4.59375 C 1.75 -4.351562 1.707031 -4.148438 1.65625 -3.984375 C 1.613281 -3.816406 1.582031 -3.703125 1.5625 -3.640625 C 1.375 -3.097656 1.144531 -2.648438 0.875 -2.296875 C 0.613281 -1.941406 0.328125 -1.671875 0.015625 -1.484375 C -0.296875 -1.296875 -0.625 -1.1875 -0.96875 -1.15625 C -1.3125 -1.125 -1.65625 -1.160156 -2 -1.265625 Z M -1.5625 -2.53125 "/></g></g></g><g fill="#ffffff" fill-opacity="1"><g transform="translate(186.85373, 133.021054)"><g/></g></g><g fill="#ffffff" fill-opacity="1"><g transform="translate(188.019778, 129.138277)"><g><path d="M -4.0625 -11.015625 L 1.421875 -10.25 L 1.265625 -9.140625 L -0.4375 -9.375 L -0.4375 -9.34375 C 0.144531 -8.96875 0.570312 -8.453125 0.84375 -7.796875 C 1.125 -7.148438 1.207031 -6.410156 1.09375 -5.578125 C 1 -4.941406 0.816406 -4.335938 0.546875 -3.765625 C 0.273438 -3.203125 -0.113281 -2.722656 -0.625 -2.328125 C -1.144531 -1.929688 -1.785156 -1.644531 -2.546875 -1.46875 C -3.316406 -1.300781 -4.226562 -1.289062 -5.28125 -1.4375 C -6.164062 -1.550781 -6.929688 -1.773438 -7.578125 -2.109375 C -8.234375 -2.441406 -8.757812 -2.863281 -9.15625 -3.375 C -9.550781 -3.894531 -9.820312 -4.484375 -9.96875 -5.140625 C -10.113281 -5.804688 -10.128906 -6.53125 -10.015625 -7.3125 C -9.921875 -8.019531 -9.738281 -8.617188 -9.46875 -9.109375 C -9.207031 -9.597656 -8.890625 -9.988281 -8.515625 -10.28125 C -8.148438 -10.582031 -7.75 -10.800781 -7.3125 -10.9375 C -6.875 -11.070312 -6.4375 -11.140625 -6 -11.140625 L -6.203125 -9.71875 C -6.441406 -9.726562 -6.703125 -9.703125 -6.984375 -9.640625 C -7.265625 -9.578125 -7.523438 -9.445312 -7.765625 -9.25 C -8.015625 -9.0625 -8.238281 -8.796875 -8.4375 -8.453125 C -8.632812 -8.109375 -8.769531 -7.664062 -8.84375 -7.125 C -8.914062 -6.570312 -8.898438 -6.085938 -8.796875 -5.671875 C -8.691406 -5.253906 -8.53125 -4.890625 -8.3125 -4.578125 C -8.09375 -4.273438 -7.832031 -4.019531 -7.53125 -3.8125 C -7.226562 -3.613281 -6.921875 -3.453125 -6.609375 -3.328125 C -6.304688 -3.210938 -6.015625 -3.125 -5.734375 -3.0625 C -5.453125 -3 -5.21875 -2.953125 -5.03125 -2.921875 C -4.894531 -2.898438 -4.6875 -2.878906 -4.40625 -2.859375 C -4.132812 -2.847656 -3.832031 -2.859375 -3.5 -2.890625 C -3.164062 -2.921875 -2.8125 -2.988281 -2.4375 -3.09375 C -2.070312 -3.195312 -1.722656 -3.363281 -1.390625 -3.59375 C -1.066406 -3.832031 -0.78125 -4.132812 -0.53125 -4.5 C -0.289062 -4.863281 -0.132812 -5.328125 -0.0625 -5.890625 C 0.03125 -6.546875 -0.0078125 -7.09375 -0.1875 -7.53125 C -0.375 -7.976562 -0.625 -8.34375 -0.9375 -8.625 C -1.25 -8.90625 -1.601562 -9.117188 -2 -9.265625 C -2.394531 -9.421875 -2.75 -9.519531 -3.0625 -9.5625 L -3.46875 -6.546875 L -4.65625 -6.71875 Z M -4.0625 -11.015625 "/></g></g></g><g fill="#ffffff" fill-opacity="1"><g transform="translate(189.693685, 117.168817)"><g><path d="M -7.8125 -2.09375 L -6.765625 -2.140625 L -6.671875 -2.125 C -6.898438 -2.21875 -7.109375 -2.34375 -7.296875 -2.5 C -7.484375 -2.664062 -7.640625 -2.851562 -7.765625 -3.0625 C -7.898438 -3.269531 -8.003906 -3.492188 -8.078125 -3.734375 C -8.160156 -3.972656 -8.207031 -4.210938 -8.21875 -4.453125 C -8.238281 -4.785156 -8.203125 -5.078125 -8.109375 -5.328125 C -8.023438 -5.585938 -7.90625 -5.804688 -7.75 -5.984375 C -7.601562 -6.171875 -7.429688 -6.328125 -7.234375 -6.453125 C -7.046875 -6.578125 -6.851562 -6.664062 -6.65625 -6.71875 C -6.8125 -6.78125 -6.984375 -6.878906 -7.171875 -7.015625 C -7.367188 -7.148438 -7.554688 -7.316406 -7.734375 -7.515625 C -7.921875 -7.722656 -8.078125 -7.972656 -8.203125 -8.265625 C -8.335938 -8.554688 -8.414062 -8.90625 -8.4375 -9.3125 C -8.457031 -9.894531 -8.351562 -10.359375 -8.125 -10.703125 C -7.90625 -11.046875 -7.632812 -11.300781 -7.3125 -11.46875 C -7 -11.644531 -6.671875 -11.757812 -6.328125 -11.8125 C -5.992188 -11.863281 -5.71875 -11.894531 -5.5 -11.90625 L -0.53125 -12.125 L -0.46875 -10.78125 L -5.359375 -10.5625 C -5.554688 -10.5625 -5.78125 -10.539062 -6.03125 -10.5 C -6.289062 -10.457031 -6.523438 -10.382812 -6.734375 -10.28125 C -6.953125 -10.175781 -7.128906 -10.019531 -7.265625 -9.8125 C -7.410156 -9.601562 -7.476562 -9.328125 -7.46875 -8.984375 C -7.457031 -8.765625 -7.410156 -8.535156 -7.328125 -8.296875 C -7.253906 -8.066406 -7.117188 -7.859375 -6.921875 -7.671875 C -6.722656 -7.484375 -6.460938 -7.332031 -6.140625 -7.21875 C -5.816406 -7.101562 -5.40625 -7.054688 -4.90625 -7.078125 L -0.3125 -7.28125 L -0.265625 -5.953125 L -5.140625 -5.734375 C -5.421875 -5.722656 -5.6875 -5.691406 -5.9375 -5.640625 C -6.195312 -5.585938 -6.425781 -5.5 -6.625 -5.375 C -6.820312 -5.25 -6.976562 -5.085938 -7.09375 -4.890625 C -7.21875 -4.703125 -7.269531 -4.453125 -7.25 -4.140625 C -7.238281 -3.867188 -7.171875 -3.613281 -7.046875 -3.375 C -6.921875 -3.132812 -6.75 -2.925781 -6.53125 -2.75 C -6.3125 -2.570312 -6.046875 -2.4375 -5.734375 -2.34375 C -5.421875 -2.25 -5.078125 -2.207031 -4.703125 -2.21875 L -0.109375 -2.421875 L -0.046875 -1.09375 L -7.75 -0.765625 Z M -7.8125 -2.09375 "/></g></g></g><g fill="#ffffff" fill-opacity="1"><g transform="translate(188.854332, 103.202065)"><g><path d="M -4.3125 -1.484375 C -3.707031 -1.609375 -3.21875 -1.773438 -2.84375 -1.984375 C -2.46875 -2.203125 -2.175781 -2.441406 -1.96875 -2.703125 C -1.757812 -2.972656 -1.628906 -3.25 -1.578125 -3.53125 C -1.523438 -3.820312 -1.53125 -4.113281 -1.59375 -4.40625 C -1.65625 -4.707031 -1.769531 -4.992188 -1.9375 -5.265625 C -2.113281 -5.535156 -2.347656 -5.75 -2.640625 -5.90625 C -2.929688 -6.070312 -3.289062 -6.175781 -3.71875 -6.21875 C -4.15625 -6.269531 -4.671875 -6.234375 -5.265625 -6.109375 C -5.816406 -5.984375 -6.28125 -5.816406 -6.65625 -5.609375 C -7.03125 -5.398438 -7.316406 -5.164062 -7.515625 -4.90625 C -7.722656 -4.644531 -7.851562 -4.363281 -7.90625 -4.0625 C -7.957031 -3.757812 -7.953125 -3.453125 -7.890625 -3.140625 C -7.816406 -2.828125 -7.691406 -2.539062 -7.515625 -2.28125 C -7.347656 -2.03125 -7.117188 -1.820312 -6.828125 -1.65625 C -6.535156 -1.5 -6.175781 -1.398438 -5.75 -1.359375 C -5.320312 -1.328125 -4.84375 -1.367188 -4.3125 -1.484375 Z M -10.890625 -0.171875 L -7.0625 -0.984375 C -7.550781 -1.097656 -7.945312 -1.359375 -8.25 -1.765625 C -8.550781 -2.171875 -8.757812 -2.648438 -8.875 -3.203125 C -8.988281 -3.742188 -9.003906 -4.21875 -8.921875 -4.625 C -8.847656 -5.039062 -8.710938 -5.398438 -8.515625 -5.703125 C -8.328125 -6.003906 -8.09375 -6.265625 -7.8125 -6.484375 C -7.539062 -6.703125 -7.257812 -6.875 -6.96875 -7 C -6.6875 -7.132812 -6.414062 -7.238281 -6.15625 -7.3125 C -5.894531 -7.382812 -5.691406 -7.441406 -5.546875 -7.484375 C -4.710938 -7.648438 -4.007812 -7.675781 -3.4375 -7.5625 C -2.863281 -7.445312 -2.390625 -7.25 -2.015625 -6.96875 C -1.640625 -6.6875 -1.347656 -6.351562 -1.140625 -5.96875 C -0.941406 -5.59375 -0.804688 -5.234375 -0.734375 -4.890625 C -0.660156 -4.578125 -0.632812 -4.285156 -0.65625 -4.015625 C -0.675781 -3.742188 -0.722656 -3.492188 -0.796875 -3.265625 C -0.878906 -3.035156 -0.984375 -2.820312 -1.109375 -2.625 C -1.234375 -2.4375 -1.378906 -2.265625 -1.546875 -2.109375 L -1.53125 -2.078125 L -0.484375 -2.296875 L -0.234375 -1.0625 L -10.625 1.140625 Z M -10.890625 -0.171875 "/></g></g></g><g fill="#ffffff" fill-opacity="1"><g transform="translate(186.827184, 93.602883)"><g><path d="M -0.953125 -2.546875 L -0.453125 -1.21875 L -10.40625 2.484375 L -10.90625 1.15625 L -6.75 -0.390625 L -8.609375 -5.40625 L -12.765625 -3.859375 L -13.265625 -5.1875 L -3.3125 -8.890625 L -2.8125 -7.5625 L -7.484375 -5.828125 L -5.625 -0.8125 Z M -0.953125 -2.546875 "/></g></g></g><g fill="#ffffff" fill-opacity="1"><g transform="translate(182.704489, 83.137208)"><g/></g></g><g fill="#ffffff" fill-opacity="1"><g transform="translate(181.01648, 79.762111)"><g/></g></g><g fill="#ffffff" fill-opacity="1"><g transform="translate(179.154153, 76.479959)"><g/></g></g></svg>