<svg xmlns="http://www.w3.org/2000/svg" xmlns:xlink="http://www.w3.org/1999/xlink" width="300" zoomAndPan="magnify" viewBox="0 0 224.87999 225" height="300" preserveAspectRatio="xMidYMid meet" version="1.0"><defs><g/><clipPath id="11e05dccbb"><path d="M 0 0.0585938 L 224.761719 0.0585938 L 224.761719 224.9375 L 0 224.9375 Z M 0 0.0585938 " clip-rule="nonzero"/></clipPath><clipPath id="a50ebfa9cd"><path d="M 29.097656 25.476562 L 202.253906 25.476562 L 202.253906 198.636719 L 29.097656 198.636719 Z M 29.097656 25.476562 " clip-rule="nonzero"/></clipPath><clipPath id="cf02d75446"><path d="M 67.511719 63.089844 L 165.707031 63.089844 L 165.707031 161.289062 L 67.511719 161.289062 Z M 67.511719 63.089844 " clip-rule="nonzero"/></clipPath></defs><g clip-path="url(#11e05dccbb)"><path fill="#ffffff" d="M 0 0.0585938 L 224.878906 0.0585938 L 224.878906 224.941406 L 0 224.941406 Z M 0 0.0585938 " fill-opacity="1" fill-rule="nonzero"/><path fill="#ffffff" d="M 0 0.0585938 L 224.878906 0.0585938 L 224.878906 224.941406 L 0 224.941406 Z M 0 0.0585938 " fill-opacity="1" fill-rule="nonzero"/></g><g clip-path="url(#a50ebfa9cd)"><path fill="#38b6ff" d="M 202.382812 112.121094 C 202.382812 113.539062 202.347656 114.957031 202.277344 116.375 C 202.207031 117.789062 202.105469 119.203125 201.964844 120.613281 C 201.824219 122.027344 201.652344 123.433594 201.445312 124.835938 C 201.238281 126.238281 200.992188 127.632812 200.71875 129.023438 C 200.441406 130.414062 200.128906 131.796875 199.785156 133.175781 C 199.441406 134.550781 199.0625 135.914062 198.652344 137.273438 C 198.238281 138.628906 197.796875 139.976562 197.316406 141.3125 C 196.839844 142.644531 196.328125 143.96875 195.785156 145.277344 C 195.246094 146.589844 194.667969 147.882812 194.0625 149.167969 C 193.457031 150.449219 192.820312 151.714844 192.152344 152.964844 C 191.484375 154.214844 190.785156 155.449219 190.054688 156.664062 C 189.328125 157.882812 188.566406 159.078125 187.78125 160.257812 C 186.992188 161.4375 186.175781 162.597656 185.332031 163.734375 C 184.488281 164.875 183.613281 165.992188 182.714844 167.085938 C 181.816406 168.183594 180.890625 169.257812 179.9375 170.308594 C 178.984375 171.359375 178.007812 172.386719 177.003906 173.386719 C 176.003906 174.390625 174.976562 175.367188 173.925781 176.320312 C 172.875 177.273438 171.800781 178.199219 170.703125 179.097656 C 169.609375 179.996094 168.492188 180.871094 167.351562 181.714844 C 166.214844 182.558594 165.054688 183.375 163.875 184.164062 C 162.695312 184.949219 161.5 185.710938 160.28125 186.4375 C 159.066406 187.167969 157.832031 187.867188 156.582031 188.535156 C 155.332031 189.203125 154.066406 189.839844 152.785156 190.445312 C 151.5 191.050781 150.207031 191.625 148.894531 192.167969 C 147.585938 192.710938 146.261719 193.222656 144.929688 193.699219 C 143.59375 194.179688 142.246094 194.621094 140.890625 195.035156 C 139.535156 195.445312 138.167969 195.824219 136.792969 196.167969 C 135.417969 196.511719 134.03125 196.824219 132.640625 197.101562 C 131.25 197.375 129.855469 197.617188 128.453125 197.828125 C 127.050781 198.035156 125.644531 198.207031 124.230469 198.347656 C 122.820312 198.488281 121.40625 198.589844 119.992188 198.660156 C 118.574219 198.730469 117.15625 198.765625 115.738281 198.765625 C 114.320312 198.765625 112.902344 198.730469 111.488281 198.660156 C 110.070312 198.589844 108.65625 198.488281 107.246094 198.347656 C 105.835938 198.207031 104.429688 198.035156 103.027344 197.828125 C 101.625 197.617188 100.226562 197.375 98.835938 197.101562 C 97.445312 196.824219 96.0625 196.511719 94.6875 196.167969 C 93.3125 195.824219 91.945312 195.445312 90.585938 195.035156 C 89.230469 194.621094 87.886719 194.179688 86.550781 193.699219 C 85.214844 193.222656 83.890625 192.710938 82.582031 192.167969 C 81.273438 191.625 79.976562 191.050781 78.695312 190.445312 C 77.414062 189.839844 76.144531 189.203125 74.894531 188.535156 C 73.644531 187.867188 72.410156 187.167969 71.195312 186.4375 C 69.980469 185.710938 68.78125 184.949219 67.601562 184.164062 C 66.421875 183.375 65.265625 182.558594 64.125 181.714844 C 62.988281 180.871094 61.871094 179.996094 60.773438 179.097656 C 59.675781 178.199219 58.605469 177.273438 57.554688 176.320312 C 56.503906 175.367188 55.476562 174.390625 54.472656 173.386719 C 53.46875 172.386719 52.492188 171.359375 51.539062 170.308594 C 50.589844 169.257812 49.664062 168.183594 48.761719 167.085938 C 47.863281 165.992188 46.992188 164.875 46.148438 163.734375 C 45.300781 162.597656 44.484375 161.4375 43.699219 160.257812 C 42.910156 159.078125 42.152344 157.882812 41.421875 156.664062 C 40.695312 155.449219 39.996094 154.214844 39.328125 152.964844 C 38.65625 151.714844 38.019531 150.449219 37.414062 149.167969 C 36.808594 147.882812 36.234375 146.589844 35.691406 145.277344 C 35.148438 143.96875 34.636719 142.644531 34.160156 141.3125 C 33.683594 139.976562 33.238281 138.628906 32.828125 137.273438 C 32.414062 135.914062 32.035156 134.550781 31.691406 133.175781 C 31.347656 131.796875 31.039062 130.414062 30.761719 129.023438 C 30.484375 127.632812 30.242188 126.238281 30.035156 124.835938 C 29.824219 123.433594 29.652344 122.023438 29.511719 120.613281 C 29.375 119.203125 29.269531 117.789062 29.199219 116.375 C 29.128906 114.957031 29.097656 113.539062 29.097656 112.121094 C 29.097656 110.703125 29.128906 109.285156 29.199219 107.871094 C 29.269531 106.453125 29.375 105.039062 29.511719 103.628906 C 29.652344 102.21875 29.824219 100.8125 30.035156 99.410156 C 30.242188 98.007812 30.484375 96.609375 30.761719 95.21875 C 31.039062 93.828125 31.347656 92.445312 31.691406 91.070312 C 32.035156 89.695312 32.414062 88.328125 32.828125 86.96875 C 33.238281 85.613281 33.683594 84.269531 34.160156 82.933594 C 34.636719 81.597656 35.148438 80.273438 35.691406 78.964844 C 36.234375 77.65625 36.808594 76.359375 37.414062 75.078125 C 38.019531 73.796875 38.65625 72.527344 39.328125 71.277344 C 39.996094 70.027344 40.695312 68.792969 41.421875 67.578125 C 42.152344 66.363281 42.910156 65.164062 43.699219 63.984375 C 44.484375 62.804688 45.300781 61.648438 46.148438 60.507812 C 46.992188 59.371094 47.863281 58.253906 48.761719 57.15625 C 49.664062 56.058594 50.589844 54.988281 51.539062 53.9375 C 52.492188 52.886719 53.46875 51.859375 54.472656 50.855469 C 55.476562 49.851562 56.503906 48.875 57.554688 47.921875 C 58.605469 46.972656 59.675781 46.046875 60.773438 45.144531 C 61.871094 44.246094 62.988281 43.375 64.125 42.527344 C 65.265625 41.683594 66.421875 40.867188 67.601562 40.082031 C 68.78125 39.292969 69.980469 38.535156 71.195312 37.804688 C 72.410156 37.078125 73.644531 36.378906 74.894531 35.710938 C 76.144531 35.039062 77.414062 34.402344 78.695312 33.796875 C 79.976562 33.191406 81.273438 32.617188 82.582031 32.074219 C 83.890625 31.53125 85.214844 31.019531 86.550781 30.542969 C 87.886719 30.066406 89.230469 29.621094 90.585938 29.210938 C 91.945312 28.796875 93.3125 28.417969 94.6875 28.074219 C 96.0625 27.730469 97.445312 27.421875 98.835938 27.144531 C 100.226562 26.867188 101.625 26.625 103.027344 26.417969 C 104.429688 26.207031 105.835938 26.035156 107.246094 25.894531 C 108.65625 25.757812 110.070312 25.652344 111.488281 25.582031 C 112.902344 25.511719 114.320312 25.476562 115.738281 25.476562 C 117.15625 25.476562 118.574219 25.511719 119.992188 25.582031 C 121.40625 25.652344 122.820312 25.757812 124.230469 25.894531 C 125.644531 26.035156 127.050781 26.207031 128.453125 26.417969 C 129.855469 26.625 131.25 26.867188 132.640625 27.144531 C 134.03125 27.421875 135.417969 27.730469 136.792969 28.074219 C 138.167969 28.417969 139.535156 28.796875 140.890625 29.210938 C 142.246094 29.621094 143.59375 30.066406 144.929688 30.542969 C 146.261719 31.019531 147.585938 31.53125 148.894531 32.074219 C 150.207031 32.617188 151.503906 33.191406 152.785156 33.796875 C 154.066406 34.402344 155.332031 35.039062 156.582031 35.710938 C 157.832031 36.378906 159.066406 37.078125 160.28125 37.804688 C 161.5 38.535156 162.695312 39.292969 163.875 40.082031 C 165.054688 40.867188 166.214844 41.683594 167.351562 42.527344 C 168.492188 43.375 169.609375 44.246094 170.703125 45.144531 C 171.800781 46.046875 172.875 46.972656 173.925781 47.921875 C 174.976562 48.875 176.003906 49.851562 177.003906 50.855469 C 178.007812 51.859375 178.984375 52.886719 179.9375 53.9375 C 180.890625 54.988281 181.816406 56.058594 182.714844 57.15625 C 183.613281 58.253906 184.488281 59.371094 185.332031 60.507812 C 186.175781 61.648438 186.992188 62.804688 187.78125 63.984375 C 188.566406 65.164062 189.328125 66.363281 190.054688 67.578125 C 190.785156 68.792969 191.484375 70.027344 192.152344 71.277344 C 192.820312 72.527344 193.457031 73.796875 194.0625 75.078125 C 194.667969 76.359375 195.246094 77.65625 195.785156 78.964844 C 196.328125 80.273438 196.839844 81.597656 197.316406 82.933594 C 197.796875 84.269531 198.238281 85.613281 198.652344 86.96875 C 199.0625 88.328125 199.441406 89.695312 199.785156 91.070312 C 200.128906 92.445312 200.441406 93.828125 200.71875 95.21875 C 200.992188 96.609375 201.238281 98.007812 201.445312 99.410156 C 201.652344 100.8125 201.824219 102.21875 201.964844 103.628906 C 202.105469 105.039062 202.207031 106.453125 202.277344 107.871094 C 202.347656 109.285156 202.382812 110.703125 202.382812 112.121094 Z M 202.382812 112.121094 " fill-opacity="1" fill-rule="nonzero"/></g><g clip-path="url(#cf02d75446)"><path fill="#000000" d="M 165.578125 112.125 C 165.578125 113.730469 165.5 115.332031 165.34375 116.933594 C 165.1875 118.53125 164.949219 120.117188 164.636719 121.691406 C 164.324219 123.265625 163.933594 124.824219 163.46875 126.359375 C 163.003906 127.898438 162.460938 129.40625 161.847656 130.890625 C 161.234375 132.375 160.546875 133.824219 159.789062 135.242188 C 159.03125 136.65625 158.207031 138.03125 157.316406 139.367188 C 156.425781 140.703125 155.46875 141.992188 154.449219 143.234375 C 153.429688 144.472656 152.355469 145.664062 151.21875 146.796875 C 150.082031 147.933594 148.894531 149.011719 147.652344 150.03125 C 146.410156 151.046875 145.121094 152.003906 143.789062 152.894531 C 142.453125 153.789062 141.078125 154.613281 139.660156 155.371094 C 138.242188 156.128906 136.792969 156.8125 135.308594 157.425781 C 133.828125 158.042969 132.316406 158.582031 130.78125 159.046875 C 129.242188 159.515625 127.6875 159.90625 126.113281 160.21875 C 124.535156 160.53125 122.949219 160.765625 121.351562 160.925781 C 119.753906 161.082031 118.152344 161.160156 116.546875 161.160156 C 114.941406 161.160156 113.335938 161.082031 111.738281 160.925781 C 110.140625 160.765625 108.554688 160.53125 106.980469 160.21875 C 105.402344 159.90625 103.847656 159.515625 102.3125 159.046875 C 100.773438 158.582031 99.265625 158.042969 97.78125 157.425781 C 96.296875 156.8125 94.847656 156.128906 93.429688 155.371094 C 92.015625 154.613281 90.640625 153.789062 89.304688 152.894531 C 87.96875 152.003906 86.679688 151.046875 85.4375 150.03125 C 84.195312 149.011719 83.007812 147.933594 81.871094 146.796875 C 80.738281 145.664062 79.660156 144.472656 78.640625 143.234375 C 77.621094 141.992188 76.667969 140.703125 75.773438 139.367188 C 74.882812 138.03125 74.058594 136.65625 73.300781 135.242188 C 72.542969 133.824219 71.859375 132.375 71.242188 130.890625 C 70.628906 129.40625 70.089844 127.898438 69.621094 126.359375 C 69.15625 124.824219 68.765625 123.265625 68.453125 121.691406 C 68.140625 120.117188 67.90625 118.53125 67.746094 116.933594 C 67.589844 115.332031 67.511719 113.730469 67.511719 112.125 C 67.511719 110.519531 67.589844 108.917969 67.746094 107.320312 C 67.90625 105.722656 68.140625 104.132812 68.453125 102.558594 C 68.765625 100.984375 69.15625 99.429688 69.621094 97.890625 C 70.089844 96.355469 70.628906 94.84375 71.242188 93.359375 C 71.859375 91.878906 72.542969 90.425781 73.300781 89.011719 C 74.058594 87.59375 74.882812 86.21875 75.773438 84.882812 C 76.667969 83.546875 77.621094 82.261719 78.640625 81.019531 C 79.660156 79.777344 80.738281 78.589844 81.871094 77.453125 C 83.007812 76.316406 84.195312 75.242188 85.4375 74.222656 C 86.679688 73.203125 87.96875 72.246094 89.304688 71.355469 C 90.640625 70.464844 92.015625 69.636719 93.429688 68.882812 C 94.847656 68.125 96.296875 67.4375 97.78125 66.824219 C 99.265625 66.210938 100.773438 65.667969 102.3125 65.203125 C 103.847656 64.738281 105.402344 64.347656 106.980469 64.035156 C 108.554688 63.71875 110.140625 63.484375 111.738281 63.328125 C 113.335938 63.171875 114.941406 63.089844 116.546875 63.089844 C 118.152344 63.089844 119.753906 63.171875 121.351562 63.328125 C 122.949219 63.484375 124.535156 63.71875 126.113281 64.035156 C 127.6875 64.347656 129.242188 64.738281 130.78125 65.203125 C 132.316406 65.667969 133.828125 66.210938 135.308594 66.824219 C 136.792969 67.4375 138.242188 68.125 139.660156 68.882812 C 141.078125 69.636719 142.453125 70.464844 143.789062 71.355469 C 145.121094 72.246094 146.410156 73.203125 147.652344 74.222656 C 148.894531 75.242188 150.082031 76.316406 151.21875 77.453125 C 152.355469 78.589844 153.429688 79.777344 154.449219 81.019531 C 155.46875 82.261719 156.425781 83.546875 157.316406 84.882812 C 158.207031 86.21875 159.03125 87.59375 159.789062 89.011719 C 160.546875 90.425781 161.234375 91.878906 161.847656 93.359375 C 162.460938 94.84375 163.003906 96.355469 163.46875 97.890625 C 163.933594 99.429688 164.324219 100.984375 164.636719 102.558594 C 164.949219 104.132812 165.1875 105.722656 165.34375 107.320312 C 165.5 108.917969 165.578125 110.519531 165.578125 112.125 Z M 165.578125 112.125 " fill-opacity="1" fill-rule="nonzero"/></g><g fill="#ffffff" fill-opacity="1"><g transform="translate(80.724297, 92.123978)"><g><path d="M 2.726562 -10.992188 L 2.726562 -12.484375 L 1.230469 -12.484375 L 1.230469 -10.992188 Z M 2.726562 0 L 2.726562 -8.96875 L 1.230469 -8.96875 L 1.230469 0 Z M 2.726562 0 "/></g></g></g><g fill="#ffffff" fill-opacity="1"><g transform="translate(84.680618, 92.123978)"><g><path d="M 6.769531 -2.726562 C 6.769531 -4.484375 5.558594 -4.941406 4.414062 -5.207031 L 3.65625 -5.382812 C 2.9375 -5.539062 2.375 -5.804688 2.375 -6.472656 C 2.375 -7.15625 2.777344 -7.5625 3.957031 -7.5625 L 6.59375 -7.5625 L 6.59375 -8.96875 L 3.921875 -8.96875 C 1.917969 -8.96875 0.878906 -8.105469 0.878906 -6.347656 C 0.878906 -4.660156 2.003906 -4.21875 3.128906 -3.957031 L 4.007812 -3.746094 C 4.714844 -3.570312 5.277344 -3.269531 5.277344 -2.585938 C 5.277344 -1.707031 4.609375 -1.40625 3.605469 -1.40625 L 0.878906 -1.40625 L 0.878906 0 L 3.746094 0 C 5.75 0 6.769531 -0.757812 6.769531 -2.726562 Z M 6.769531 -2.726562 "/></g></g></g><g fill="#ffffff" fill-opacity="1"><g transform="translate(92.329505, 92.123978)"><g><path d="M 6.769531 -2.726562 C 6.769531 -4.484375 5.558594 -4.941406 4.414062 -5.207031 L 3.65625 -5.382812 C 2.9375 -5.539062 2.375 -5.804688 2.375 -6.472656 C 2.375 -7.15625 2.777344 -7.5625 3.957031 -7.5625 L 6.59375 -7.5625 L 6.59375 -8.96875 L 3.921875 -8.96875 C 1.917969 -8.96875 0.878906 -8.105469 0.878906 -6.347656 C 0.878906 -4.660156 2.003906 -4.21875 3.128906 -3.957031 L 4.007812 -3.746094 C 4.714844 -3.570312 5.277344 -3.269531 5.277344 -2.585938 C 5.277344 -1.707031 4.609375 -1.40625 3.605469 -1.40625 L 0.878906 -1.40625 L 0.878906 0 L 3.746094 0 C 5.75 0 6.769531 -0.757812 6.769531 -2.726562 Z M 6.769531 -2.726562 "/></g></g></g><g fill="#ffffff" fill-opacity="1"><g transform="translate(99.978392, 92.123978)"><g><path d="M 7.472656 0 L 7.472656 -8.96875 L 5.980469 -8.96875 L 5.980469 -1.320312 L 4.21875 -1.320312 C 3.148438 -1.320312 2.726562 -2.058594 2.726562 -2.988281 L 2.726562 -8.96875 L 1.230469 -8.96875 L 1.230469 -2.988281 C 1.230469 -1.144531 2.128906 0 4.042969 0 Z M 7.472656 0 "/></g></g></g><g fill="#ffffff" fill-opacity="1"><g transform="translate(108.682289, 92.123978)"><g><path d="M 7.296875 -3.957031 L 7.296875 -5.628906 C 7.296875 -7.613281 6.347656 -8.96875 4.363281 -8.96875 L 3.992188 -8.96875 C 2.074219 -8.96875 1.054688 -7.648438 1.054688 -5.628906 L 1.054688 -3.339844 C 1.054688 -1.089844 2.199219 0 4.21875 0 L 6.859375 0 L 6.859375 -1.320312 L 4.398438 -1.320312 C 3.183594 -1.320312 2.550781 -2.144531 2.550781 -3.339844 L 2.550781 -3.957031 Z M 5.804688 -5.136719 L 2.550781 -5.136719 L 2.550781 -5.804688 C 2.550781 -6.734375 2.917969 -7.648438 3.992188 -7.648438 L 4.363281 -7.648438 C 5.433594 -7.648438 5.804688 -6.734375 5.804688 -5.804688 Z M 5.804688 -5.136719 "/></g></g></g><g fill="#ffffff" fill-opacity="1"><g transform="translate(117.03452, 92.123978)"><g><path d="M 7.296875 0 L 7.296875 -12.484375 L 5.804688 -12.484375 L 5.804688 -8.96875 L 3.867188 -8.96875 C 1.953125 -8.96875 1.054688 -7.824219 1.054688 -5.980469 L 1.054688 -2.988281 C 1.054688 -1.144531 1.953125 0 3.867188 0 Z M 5.804688 -1.320312 L 4.042969 -1.320312 C 2.972656 -1.320312 2.550781 -2.058594 2.550781 -2.988281 L 2.550781 -5.980469 C 2.550781 -6.910156 2.972656 -7.648438 4.042969 -7.648438 L 5.804688 -7.648438 Z M 5.804688 -1.320312 "/></g></g></g><g fill="#ffffff" fill-opacity="1"><g transform="translate(125.562584, 92.123978)"><g/></g></g><g fill="#ffffff" fill-opacity="1"><g transform="translate(131.189349, 92.123978)"><g><path d="M 4.835938 -11.078125 L 4.835938 -12.484375 L 3.605469 -12.484375 C 2.304688 -12.484375 1.582031 -11.800781 1.582031 -10.289062 L 1.582031 -8.96875 L 0.351562 -8.96875 L 0.351562 -7.648438 L 1.582031 -7.648438 L 1.582031 0 L 3.078125 0 L 3.078125 -7.648438 L 4.660156 -7.648438 L 4.660156 -8.96875 L 3.078125 -8.96875 L 3.078125 -10.234375 C 3.078125 -10.886719 3.375 -11.078125 3.78125 -11.078125 Z M 4.835938 -11.078125 "/></g></g></g><g fill="#ffffff" fill-opacity="1"><g transform="translate(136.200693, 92.123978)"><g><path d="M 7.296875 -2.988281 L 7.296875 -5.980469 C 7.296875 -7.824219 6.242188 -8.96875 4.398438 -8.96875 L 3.957031 -8.96875 C 2.109375 -8.96875 1.054688 -7.824219 1.054688 -5.980469 L 1.054688 -2.988281 C 1.054688 -1.144531 2.109375 0 3.957031 0 L 4.398438 0 C 6.242188 0 7.296875 -1.144531 7.296875 -2.988281 Z M 5.804688 -2.988281 C 5.804688 -2.058594 5.257812 -1.320312 4.398438 -1.320312 L 3.957031 -1.320312 C 3.09375 -1.320312 2.550781 -2.058594 2.550781 -2.988281 L 2.550781 -5.980469 C 2.550781 -6.910156 3.09375 -7.648438 3.957031 -7.648438 L 4.398438 -7.648438 C 5.257812 -7.648438 5.804688 -6.910156 5.804688 -5.980469 Z M 5.804688 -2.988281 "/></g></g></g><g fill="#ffffff" fill-opacity="1"><g transform="translate(144.552924, 92.123978)"><g><path d="M 5.101562 -7.578125 L 5.101562 -8.96875 L 3.957031 -8.96875 C 2.039062 -8.96875 1.144531 -7.824219 1.144531 -5.980469 L 1.144531 0 L 2.636719 0 L 2.636719 -5.980469 C 2.636719 -6.910156 3.058594 -7.578125 4.132812 -7.578125 Z M 5.101562 -7.578125 "/></g></g></g><g fill="#ffffff" fill-opacity="1"><g transform="translate(150.003856, 92.123978)"><g><path d="M 2.902344 -7.121094 L 2.902344 -8.96875 L 1.054688 -8.96875 L 1.054688 -7.121094 Z M 2.902344 0 L 2.902344 -1.847656 L 1.054688 -1.847656 L 1.054688 0 Z M 2.902344 0 "/></g></g></g><g fill="#ffffff" fill-opacity="1"><g transform="translate(89.248511, 116.352065)"><g><path d="M 9.761719 0 L 5.804688 -12.484375 L 4.308594 -12.484375 L 0.351562 0 L 1.933594 0 L 2.691406 -2.460938 L 7.421875 -2.460938 L 8.175781 0 Z M 6.980469 -3.867188 L 3.128906 -3.867188 L 5.066406 -10.078125 Z M 6.980469 -3.867188 "/></g></g></g><g fill="#ffffff" fill-opacity="1"><g transform="translate(99.359109, 116.352065)"><g><path d="M 7.296875 0 L 7.296875 -12.484375 L 5.804688 -12.484375 L 5.804688 -8.96875 L 3.867188 -8.96875 C 1.953125 -8.96875 1.054688 -7.824219 1.054688 -5.980469 L 1.054688 -2.988281 C 1.054688 -1.144531 1.953125 0 3.867188 0 Z M 5.804688 -1.320312 L 4.042969 -1.320312 C 2.972656 -1.320312 2.550781 -2.058594 2.550781 -2.988281 L 2.550781 -5.980469 C 2.550781 -6.910156 2.972656 -7.648438 4.042969 -7.648438 L 5.804688 -7.648438 Z M 5.804688 -1.320312 "/></g></g></g><g fill="#ffffff" fill-opacity="1"><g transform="translate(107.887172, 116.352065)"><g><path d="M 7.035156 0 L 7.035156 -5.890625 C 7.035156 -7.929688 6.171875 -8.96875 4.097656 -8.96875 L 1.496094 -8.96875 L 1.496094 -7.5625 L 3.957031 -7.5625 C 5.136719 -7.5625 5.539062 -6.929688 5.539062 -5.890625 L 5.539062 -5.046875 L 3.746094 -5.046875 C 1.828125 -5.046875 0.792969 -4.308594 0.792969 -2.460938 C 0.792969 -0.828125 1.742188 0 3.429688 0 Z M 5.539062 -1.320312 L 3.605469 -1.320312 C 2.726562 -1.320312 2.285156 -1.6875 2.285156 -2.460938 C 2.285156 -3.394531 2.707031 -3.78125 3.78125 -3.78125 L 5.539062 -3.78125 Z M 5.539062 -1.320312 "/></g></g></g><g fill="#ffffff" fill-opacity="1"><g transform="translate(116.151481, 116.352065)"><g><path d="M 7.472656 0 L 4.503906 -4.925781 L 7.296875 -8.96875 L 5.628906 -8.96875 L 2.832031 -4.925781 L 5.804688 0 Z M 2.726562 0 L 2.726562 -12.484375 L 1.230469 -12.484375 L 1.230469 0 Z M 2.726562 0 "/></g></g></g><g fill="#ffffff" fill-opacity="1"><g transform="translate(123.800368, 116.352065)"><g><path d="M 7.296875 -2.988281 L 7.296875 -5.980469 C 7.296875 -7.824219 6.242188 -8.96875 4.398438 -8.96875 L 3.957031 -8.96875 C 2.109375 -8.96875 1.054688 -7.824219 1.054688 -5.980469 L 1.054688 -2.988281 C 1.054688 -1.144531 2.109375 0 3.957031 0 L 4.398438 0 C 6.242188 0 7.296875 -1.144531 7.296875 -2.988281 Z M 5.804688 -2.988281 C 5.804688 -2.058594 5.257812 -1.320312 4.398438 -1.320312 L 3.957031 -1.320312 C 3.09375 -1.320312 2.550781 -2.058594 2.550781 -2.988281 L 2.550781 -5.980469 C 2.550781 -6.910156 3.09375 -7.648438 3.957031 -7.648438 L 4.398438 -7.648438 C 5.257812 -7.648438 5.804688 -6.910156 5.804688 -5.980469 Z M 5.804688 -2.988281 "/></g></g></g><g fill="#ffffff" fill-opacity="1"><g transform="translate(132.152599, 116.352065)"><g><path d="M 12.132812 0 L 12.132812 -5.804688 C 12.132812 -7.738281 11.21875 -8.96875 9.199219 -8.96875 L 8.828125 -8.96875 C 7.84375 -8.96875 7.121094 -8.6875 6.648438 -8.160156 C 6.171875 -8.6875 5.433594 -8.96875 4.449219 -8.96875 L 4.078125 -8.96875 C 2.058594 -8.96875 1.144531 -7.738281 1.144531 -5.804688 L 1.144531 0 L 2.636719 0 L 2.636719 -5.804688 C 2.636719 -6.734375 3.058594 -7.5625 4.132812 -7.5625 L 4.398438 -7.5625 C 5.46875 -7.5625 5.890625 -6.734375 5.890625 -5.804688 L 5.890625 0 L 7.386719 0 L 7.386719 -5.804688 C 7.386719 -6.734375 7.808594 -7.5625 8.882812 -7.5625 L 9.144531 -7.5625 C 10.21875 -7.5625 10.640625 -6.734375 10.640625 -5.804688 L 10.640625 0 Z M 12.132812 0 "/></g></g></g><g fill="#ffffff" fill-opacity="1"><g transform="translate(96.323739, 140.580153)"><g><path d="M 8.792969 0 L 8.792969 -6.859375 L 4.660156 -6.859375 L 4.660156 -5.453125 L 7.296875 -5.453125 L 7.296875 -1.40625 L 4.925781 -1.40625 C 3.183594 -1.40625 2.550781 -2.691406 2.550781 -4.042969 L 2.550781 -8.089844 C 2.550781 -9.777344 3.324219 -11.078125 5.277344 -11.078125 L 8.441406 -11.078125 L 8.441406 -12.484375 L 5.277344 -12.484375 C 2.390625 -12.484375 1.054688 -10.761719 1.054688 -8.089844 L 1.054688 -4.042969 C 1.054688 -1.707031 2.234375 0 4.925781 0 Z M 8.792969 0 "/></g></g></g><g fill="#ffffff" fill-opacity="1"><g transform="translate(106.346414, 140.580153)"><g><path d="M 12.132812 0 L 12.132812 -5.804688 C 12.132812 -7.738281 11.21875 -8.96875 9.199219 -8.96875 L 8.828125 -8.96875 C 7.84375 -8.96875 7.121094 -8.6875 6.648438 -8.160156 C 6.171875 -8.6875 5.433594 -8.96875 4.449219 -8.96875 L 4.078125 -8.96875 C 2.058594 -8.96875 1.144531 -7.738281 1.144531 -5.804688 L 1.144531 0 L 2.636719 0 L 2.636719 -5.804688 C 2.636719 -6.734375 3.058594 -7.5625 4.132812 -7.5625 L 4.398438 -7.5625 C 5.46875 -7.5625 5.890625 -6.734375 5.890625 -5.804688 L 5.890625 0 L 7.386719 0 L 7.386719 -5.804688 C 7.386719 -6.734375 7.808594 -7.5625 8.882812 -7.5625 L 9.144531 -7.5625 C 10.21875 -7.5625 10.640625 -6.734375 10.640625 -5.804688 L 10.640625 0 Z M 12.132812 0 "/></g></g></g><g fill="#ffffff" fill-opacity="1"><g transform="translate(119.622066, 140.580153)"><g><path d="M 7.472656 -2.988281 L 7.472656 -5.980469 C 7.472656 -7.824219 6.578125 -8.96875 4.660156 -8.96875 L 2.726562 -8.96875 L 2.726562 -12.484375 L 1.230469 -12.484375 L 1.230469 0 L 4.660156 0 C 6.578125 0 7.472656 -1.144531 7.472656 -2.988281 Z M 5.980469 -2.988281 C 5.980469 -2.058594 5.558594 -1.320312 4.484375 -1.320312 L 2.726562 -1.320312 L 2.726562 -7.648438 L 4.484375 -7.648438 C 5.558594 -7.648438 5.980469 -6.910156 5.980469 -5.980469 Z M 5.980469 -2.988281 "/></g></g></g><g fill="#ffffff" fill-opacity="1"><g transform="translate(128.15013, 140.580153)"><g><path d="M 8.96875 0 L 8.96875 -12.484375 L 7.472656 -12.484375 L 7.472656 -7.035156 L 2.726562 -7.035156 L 2.726562 -12.484375 L 1.230469 -12.484375 L 1.230469 0 L 2.726562 0 L 2.726562 -5.628906 L 7.472656 -5.628906 L 7.472656 0 Z M 8.96875 0 "/></g></g></g><g fill="#ffffff" fill-opacity="1"><g transform="translate(77.432968, 58.64727)"><g><path d="M 7.234375 -4.3125 L 0.78125 -0.46875 C 0.4375 -1.039062 0.21875 -1.582031 0.125 -2.09375 C 0.0390625 -2.601562 0.046875 -3.109375 0.140625 -3.609375 C 0.234375 -4.109375 0.394531 -4.613281 0.625 -5.125 C 0.851562 -5.644531 1.117188 -6.179688 1.421875 -6.734375 C 1.546875 -6.972656 1.675781 -7.238281 1.8125 -7.53125 C 1.945312 -7.820312 2.050781 -8.125 2.125 -8.4375 C 2.207031 -8.75 2.234375 -9.070312 2.203125 -9.40625 C 2.171875 -9.75 2.046875 -10.101562 1.828125 -10.46875 C 1.460938 -11.070312 1.007812 -11.421875 0.46875 -11.515625 C -0.0625 -11.617188 -0.609375 -11.5 -1.171875 -11.15625 C -1.785156 -10.789062 -2.171875 -10.328125 -2.328125 -9.765625 C -2.484375 -9.210938 -2.390625 -8.648438 -2.046875 -8.078125 L -1.828125 -7.734375 L -3.0625 -7 L -3.234375 -7.28125 C -3.367188 -7.488281 -3.503906 -7.78125 -3.640625 -8.15625 C -3.785156 -8.539062 -3.835938 -8.96875 -3.796875 -9.4375 C -3.765625 -9.90625 -3.601562 -10.382812 -3.3125 -10.875 C -3.019531 -11.375 -2.515625 -11.84375 -1.796875 -12.28125 C -1.304688 -12.570312 -0.820312 -12.765625 -0.34375 -12.859375 C 0.125 -12.953125 0.566406 -12.957031 0.984375 -12.875 C 1.410156 -12.800781 1.804688 -12.628906 2.171875 -12.359375 C 2.535156 -12.097656 2.851562 -11.738281 3.125 -11.28125 C 3.394531 -10.832031 3.566406 -10.414062 3.640625 -10.03125 C 3.722656 -9.644531 3.722656 -9.242188 3.640625 -8.828125 C 3.554688 -8.410156 3.398438 -7.945312 3.171875 -7.4375 C 2.941406 -6.9375 2.65625 -6.347656 2.3125 -5.671875 C 1.914062 -4.867188 1.660156 -4.21875 1.546875 -3.71875 C 1.429688 -3.226562 1.4375 -2.785156 1.5625 -2.390625 L 6.59375 -5.390625 Z M 7.234375 -4.3125 "/></g></g></g><g fill="#ffffff" fill-opacity="1"><g transform="translate(84.817922, 54.196219)"><g><path d="M 3.65625 -5.71875 L 1.546875 -10.625 L 0.15625 -4.21875 Z M -0.6875 -2.515625 L -1.171875 -3.65625 L 0.765625 -12.421875 L 2.140625 -13.015625 L 5.015625 -6.3125 L 6.625 -7 L 7.109375 -5.859375 L 5.5 -5.171875 L 6.515625 -2.796875 L 5.15625 -2.203125 L 4.140625 -4.578125 Z M -0.6875 -2.515625 "/></g></g></g><g fill="#ffffff" fill-opacity="1"><g transform="translate(92.893213, 50.830702)"><g><path d="M 1.09375 -2.15625 L 2.59375 -2.625 L 3.109375 -0.96875 L 1.609375 -0.5 Z M 1.09375 -2.15625 "/></g></g></g><g fill="#ffffff" fill-opacity="1"><g transform="translate(97.138698, 49.368662)"><g><path d="M 4.328125 -1.828125 C 4.753906 -1.910156 5.09375 -2.101562 5.34375 -2.40625 C 5.601562 -2.71875 5.785156 -3.09375 5.890625 -3.53125 C 5.992188 -3.976562 6.03125 -4.484375 6 -5.046875 C 5.96875 -5.617188 5.890625 -6.21875 5.765625 -6.84375 C 5.640625 -7.46875 5.476562 -8.046875 5.28125 -8.578125 C 5.09375 -9.109375 4.863281 -9.5625 4.59375 -9.9375 C 4.320312 -10.3125 4.007812 -10.585938 3.65625 -10.765625 C 3.3125 -10.941406 2.925781 -10.988281 2.5 -10.90625 C 2.0625 -10.8125 1.710938 -10.613281 1.453125 -10.3125 C 1.203125 -10.007812 1.023438 -9.632812 0.921875 -9.1875 C 0.816406 -8.738281 0.773438 -8.234375 0.796875 -7.671875 C 0.828125 -7.109375 0.90625 -6.515625 1.03125 -5.890625 C 1.15625 -5.265625 1.316406 -4.679688 1.515625 -4.140625 C 1.710938 -3.609375 1.945312 -3.15625 2.21875 -2.78125 C 2.488281 -2.414062 2.796875 -2.140625 3.140625 -1.953125 C 3.492188 -1.773438 3.890625 -1.734375 4.328125 -1.828125 Z M 4.578125 -0.59375 C 4.429688 -0.5625 4.238281 -0.535156 4 -0.515625 C 3.757812 -0.492188 3.484375 -0.515625 3.171875 -0.578125 C 2.867188 -0.640625 2.546875 -0.757812 2.203125 -0.9375 C 1.867188 -1.113281 1.539062 -1.390625 1.21875 -1.765625 C 0.894531 -2.140625 0.59375 -2.632812 0.3125 -3.25 C 0.03125 -3.875 -0.207031 -4.65625 -0.40625 -5.59375 C -0.59375 -6.519531 -0.675781 -7.320312 -0.65625 -8 C -0.632812 -8.6875 -0.546875 -9.265625 -0.390625 -9.734375 C -0.234375 -10.203125 -0.0390625 -10.585938 0.1875 -10.890625 C 0.425781 -11.191406 0.675781 -11.429688 0.9375 -11.609375 C 1.207031 -11.785156 1.453125 -11.910156 1.671875 -11.984375 C 1.898438 -12.054688 2.085938 -12.109375 2.234375 -12.140625 C 2.367188 -12.160156 2.5625 -12.179688 2.8125 -12.203125 C 3.0625 -12.222656 3.335938 -12.203125 3.640625 -12.140625 C 3.941406 -12.078125 4.265625 -11.957031 4.609375 -11.78125 C 4.953125 -11.601562 5.285156 -11.328125 5.609375 -10.953125 C 5.929688 -10.578125 6.234375 -10.078125 6.515625 -9.453125 C 6.796875 -8.835938 7.03125 -8.066406 7.21875 -7.140625 C 7.414062 -6.203125 7.503906 -5.390625 7.484375 -4.703125 C 7.460938 -4.023438 7.375 -3.453125 7.21875 -2.984375 C 7.0625 -2.515625 6.863281 -2.128906 6.625 -1.828125 C 6.382812 -1.523438 6.132812 -1.285156 5.875 -1.109375 C 5.613281 -0.929688 5.363281 -0.804688 5.125 -0.734375 C 4.894531 -0.660156 4.710938 -0.613281 4.578125 -0.59375 Z M 4.578125 -0.59375 "/></g></g></g><g fill="#ffffff" fill-opacity="1"><g transform="translate(105.581721, 47.617958)"><g><path d="M 2.03125 -3.703125 C 2.050781 -3.359375 2.125 -3.023438 2.25 -2.703125 C 2.375 -2.390625 2.539062 -2.113281 2.75 -1.875 C 2.96875 -1.644531 3.234375 -1.460938 3.546875 -1.328125 C 3.867188 -1.203125 4.242188 -1.148438 4.671875 -1.171875 C 5.078125 -1.203125 5.421875 -1.300781 5.703125 -1.46875 C 5.984375 -1.644531 6.207031 -1.867188 6.375 -2.140625 C 6.550781 -2.410156 6.671875 -2.710938 6.734375 -3.046875 C 6.804688 -3.378906 6.832031 -3.71875 6.8125 -4.0625 C 6.78125 -4.394531 6.707031 -4.710938 6.59375 -5.015625 C 6.488281 -5.316406 6.328125 -5.570312 6.109375 -5.78125 C 5.898438 -6 5.640625 -6.164062 5.328125 -6.28125 C 5.023438 -6.40625 4.679688 -6.453125 4.296875 -6.421875 C 3.515625 -6.367188 2.925781 -6.09375 2.53125 -5.59375 C 2.144531 -5.09375 1.976562 -4.460938 2.03125 -3.703125 Z M 6.40625 -9.125 C 6.289062 -9.5 6.128906 -9.789062 5.921875 -10 C 5.710938 -10.207031 5.5 -10.351562 5.28125 -10.4375 C 5.070312 -10.519531 4.859375 -10.5625 4.640625 -10.5625 C 4.429688 -10.5625 4.273438 -10.5625 4.171875 -10.5625 C 3.585938 -10.519531 3.128906 -10.359375 2.796875 -10.078125 C 2.472656 -9.796875 2.226562 -9.441406 2.0625 -9.015625 C 1.894531 -8.585938 1.796875 -8.128906 1.765625 -7.640625 C 1.734375 -7.160156 1.734375 -6.703125 1.765625 -6.265625 L 1.796875 -6.265625 C 2.097656 -6.734375 2.484375 -7.066406 2.953125 -7.265625 C 3.421875 -7.472656 3.910156 -7.59375 4.421875 -7.625 C 4.929688 -7.65625 5.40625 -7.601562 5.84375 -7.46875 C 6.289062 -7.332031 6.6875 -7.113281 7.03125 -6.8125 C 7.375 -6.519531 7.648438 -6.148438 7.859375 -5.703125 C 8.078125 -5.253906 8.207031 -4.734375 8.25 -4.140625 C 8.28125 -3.578125 8.226562 -3.046875 8.09375 -2.546875 C 7.957031 -2.054688 7.734375 -1.625 7.421875 -1.25 C 7.117188 -0.882812 6.738281 -0.59375 6.28125 -0.375 C 5.820312 -0.15625 5.289062 -0.0234375 4.6875 0.015625 C 4.070312 0.0546875 3.515625 0.00390625 3.015625 -0.140625 C 2.515625 -0.285156 2.078125 -0.566406 1.703125 -0.984375 C 1.328125 -1.398438 1.023438 -1.96875 0.796875 -2.6875 C 0.566406 -3.414062 0.414062 -4.332031 0.34375 -5.4375 C 0.28125 -6.425781 0.304688 -7.269531 0.421875 -7.96875 C 0.535156 -8.664062 0.703125 -9.242188 0.921875 -9.703125 C 1.148438 -10.160156 1.414062 -10.519531 1.71875 -10.78125 C 2.019531 -11.050781 2.316406 -11.253906 2.609375 -11.390625 C 2.910156 -11.523438 3.191406 -11.613281 3.453125 -11.65625 C 3.722656 -11.707031 3.941406 -11.738281 4.109375 -11.75 C 4.265625 -11.757812 4.507812 -11.753906 4.84375 -11.734375 C 5.1875 -11.710938 5.539062 -11.625 5.90625 -11.46875 C 6.28125 -11.320312 6.640625 -11.078125 6.984375 -10.734375 C 7.328125 -10.390625 7.578125 -9.878906 7.734375 -9.203125 Z M 6.40625 -9.125 "/></g></g></g><g fill="#ffffff" fill-opacity="1"><g transform="translate(114.315989, 47.120907)"><g><path d="M 1.75 -1.671875 L 3.3125 -1.625 L 3.25 0.109375 L 1.6875 0.0625 Z M 1.75 -1.671875 "/></g></g></g><g fill="#ffffff" fill-opacity="1"><g transform="translate(118.806197, 47.148555)"><g><path d="M 8.34375 1.15625 L 0.890625 0.125 C 0.984375 -0.53125 1.15625 -1.085938 1.40625 -1.546875 C 1.65625 -2.003906 1.972656 -2.398438 2.359375 -2.734375 C 2.742188 -3.066406 3.1875 -3.359375 3.6875 -3.609375 C 4.195312 -3.859375 4.742188 -4.113281 5.328125 -4.375 C 5.578125 -4.488281 5.84375 -4.609375 6.125 -4.734375 C 6.40625 -4.867188 6.675781 -5.035156 6.9375 -5.234375 C 7.195312 -5.441406 7.421875 -5.6875 7.609375 -5.96875 C 7.796875 -6.25 7.921875 -6.601562 7.984375 -7.03125 C 8.078125 -7.71875 7.945312 -8.269531 7.59375 -8.6875 C 7.238281 -9.101562 6.726562 -9.359375 6.0625 -9.453125 C 5.363281 -9.546875 4.78125 -9.421875 4.3125 -9.078125 C 3.84375 -8.742188 3.5625 -8.242188 3.46875 -7.578125 L 3.421875 -7.171875 L 1.96875 -7.375 L 2.015625 -7.703125 C 2.046875 -7.953125 2.128906 -8.269531 2.265625 -8.65625 C 2.398438 -9.039062 2.625 -9.40625 2.9375 -9.75 C 3.257812 -10.09375 3.6875 -10.363281 4.21875 -10.5625 C 4.757812 -10.757812 5.445312 -10.800781 6.28125 -10.6875 C 6.851562 -10.613281 7.351562 -10.46875 7.78125 -10.25 C 8.207031 -10.03125 8.554688 -9.753906 8.828125 -9.421875 C 9.109375 -9.097656 9.304688 -8.71875 9.421875 -8.28125 C 9.546875 -7.84375 9.570312 -7.359375 9.5 -6.828125 C 9.425781 -6.316406 9.300781 -5.882812 9.125 -5.53125 C 8.945312 -5.1875 8.691406 -4.875 8.359375 -4.59375 C 8.035156 -4.320312 7.625 -4.0625 7.125 -3.8125 C 6.632812 -3.5625 6.039062 -3.285156 5.34375 -2.984375 C 4.539062 -2.609375 3.9375 -2.257812 3.53125 -1.9375 C 3.132812 -1.625 2.859375 -1.269531 2.703125 -0.875 L 8.515625 -0.078125 Z M 8.34375 1.15625 "/></g></g></g><g fill="#ffffff" fill-opacity="1"><g transform="translate(127.352087, 48.296296)"><g><path d="M 4.6875 0.34375 C 5.113281 0.457031 5.507812 0.4375 5.875 0.28125 C 6.238281 0.125 6.566406 -0.125 6.859375 -0.46875 C 7.148438 -0.820312 7.410156 -1.257812 7.640625 -1.78125 C 7.878906 -2.300781 8.082031 -2.867188 8.25 -3.484375 C 8.425781 -4.097656 8.546875 -4.679688 8.609375 -5.234375 C 8.671875 -5.796875 8.664062 -6.304688 8.59375 -6.765625 C 8.53125 -7.222656 8.382812 -7.609375 8.15625 -7.921875 C 7.925781 -8.242188 7.597656 -8.460938 7.171875 -8.578125 C 6.742188 -8.691406 6.347656 -8.671875 5.984375 -8.515625 C 5.617188 -8.367188 5.285156 -8.117188 4.984375 -7.765625 C 4.679688 -7.410156 4.414062 -6.972656 4.1875 -6.453125 C 3.96875 -5.941406 3.769531 -5.378906 3.59375 -4.765625 C 3.425781 -4.148438 3.304688 -3.5625 3.234375 -3 C 3.160156 -2.4375 3.160156 -1.925781 3.234375 -1.46875 C 3.316406 -1.019531 3.472656 -0.632812 3.703125 -0.3125 C 3.929688 0.0078125 4.257812 0.226562 4.6875 0.34375 Z M 4.34375 1.546875 C 4.207031 1.503906 4.023438 1.4375 3.796875 1.34375 C 3.578125 1.257812 3.34375 1.117188 3.09375 0.921875 C 2.84375 0.734375 2.609375 0.484375 2.390625 0.171875 C 2.171875 -0.140625 2 -0.535156 1.875 -1.015625 C 1.757812 -1.503906 1.71875 -2.085938 1.75 -2.765625 C 1.78125 -3.441406 1.921875 -4.242188 2.171875 -5.171875 C 2.429688 -6.085938 2.722656 -6.84375 3.046875 -7.4375 C 3.367188 -8.03125 3.707031 -8.5 4.0625 -8.84375 C 4.414062 -9.195312 4.765625 -9.453125 5.109375 -9.609375 C 5.460938 -9.765625 5.796875 -9.859375 6.109375 -9.890625 C 6.421875 -9.929688 6.695312 -9.9375 6.9375 -9.90625 C 7.175781 -9.875 7.363281 -9.835938 7.5 -9.796875 C 7.632812 -9.753906 7.816406 -9.6875 8.046875 -9.59375 C 8.273438 -9.5 8.507812 -9.351562 8.75 -9.15625 C 9 -8.96875 9.234375 -8.71875 9.453125 -8.40625 C 9.671875 -8.09375 9.835938 -7.691406 9.953125 -7.203125 C 10.078125 -6.722656 10.125 -6.144531 10.09375 -5.46875 C 10.070312 -4.789062 9.929688 -3.992188 9.671875 -3.078125 C 9.421875 -2.148438 9.128906 -1.390625 8.796875 -0.796875 C 8.472656 -0.203125 8.132812 0.265625 7.78125 0.609375 C 7.425781 0.960938 7.070312 1.21875 6.71875 1.375 C 6.375 1.53125 6.046875 1.625 5.734375 1.65625 C 5.429688 1.695312 5.15625 1.695312 4.90625 1.65625 C 4.664062 1.625 4.476562 1.585938 4.34375 1.546875 Z M 4.34375 1.546875 "/></g></g></g><g fill="#ffffff" fill-opacity="1"><g transform="translate(135.669725, 50.569268)"><g><path d="M 7.734375 3.3125 L 0.828125 0.359375 C 1.085938 -0.253906 1.394531 -0.742188 1.75 -1.109375 C 2.113281 -1.484375 2.523438 -1.78125 2.984375 -2 C 3.453125 -2.226562 3.960938 -2.394531 4.515625 -2.5 C 5.066406 -2.613281 5.660156 -2.71875 6.296875 -2.8125 C 6.554688 -2.863281 6.84375 -2.914062 7.15625 -2.96875 C 7.46875 -3.019531 7.773438 -3.101562 8.078125 -3.21875 C 8.378906 -3.34375 8.65625 -3.519531 8.90625 -3.75 C 9.164062 -3.976562 9.378906 -4.285156 9.546875 -4.671875 C 9.816406 -5.316406 9.835938 -5.882812 9.609375 -6.375 C 9.378906 -6.863281 8.957031 -7.242188 8.34375 -7.515625 C 7.6875 -7.785156 7.085938 -7.820312 6.546875 -7.625 C 6.003906 -7.425781 5.601562 -7.019531 5.34375 -6.40625 L 5.1875 -6.03125 L 3.84375 -6.59375 L 3.96875 -6.890625 C 4.070312 -7.117188 4.238281 -7.398438 4.46875 -7.734375 C 4.695312 -8.078125 5.007812 -8.367188 5.40625 -8.609375 C 5.800781 -8.859375 6.285156 -9.007812 6.859375 -9.0625 C 7.429688 -9.125 8.101562 -8.988281 8.875 -8.65625 C 9.40625 -8.4375 9.847656 -8.160156 10.203125 -7.828125 C 10.554688 -7.503906 10.820312 -7.148438 11 -6.765625 C 11.1875 -6.378906 11.28125 -5.957031 11.28125 -5.5 C 11.28125 -5.050781 11.175781 -4.582031 10.96875 -4.09375 C 10.757812 -3.613281 10.519531 -3.226562 10.25 -2.9375 C 9.988281 -2.644531 9.664062 -2.410156 9.28125 -2.234375 C 8.894531 -2.054688 8.429688 -1.910156 7.890625 -1.796875 C 7.347656 -1.691406 6.703125 -1.582031 5.953125 -1.46875 C 5.078125 -1.320312 4.40625 -1.144531 3.9375 -0.9375 C 3.46875 -0.738281 3.101562 -0.472656 2.84375 -0.140625 L 8.21875 2.15625 Z M 7.734375 3.3125 "/></g></g></g><g fill="#ffffff" fill-opacity="1"><g transform="translate(143.611644, 53.92716)"><g><path d="M 7.234375 4.3125 L 0.78125 0.46875 C 1.125 -0.101562 1.492188 -0.550781 1.890625 -0.875 C 2.296875 -1.195312 2.742188 -1.4375 3.234375 -1.59375 C 3.722656 -1.75 4.25 -1.84375 4.8125 -1.875 C 5.375 -1.914062 5.972656 -1.941406 6.609375 -1.953125 C 6.878906 -1.960938 7.171875 -1.972656 7.484375 -1.984375 C 7.796875 -1.992188 8.109375 -2.039062 8.421875 -2.125 C 8.742188 -2.207031 9.046875 -2.34375 9.328125 -2.53125 C 9.609375 -2.726562 9.859375 -3.007812 10.078125 -3.375 C 10.441406 -3.976562 10.535156 -4.535156 10.359375 -5.046875 C 10.191406 -5.566406 9.828125 -6 9.265625 -6.34375 C 8.648438 -6.707031 8.0625 -6.820312 7.5 -6.6875 C 6.9375 -6.5625 6.484375 -6.210938 6.140625 -5.640625 L 5.921875 -5.296875 L 4.6875 -6.03125 L 4.859375 -6.3125 C 4.992188 -6.519531 5.191406 -6.773438 5.453125 -7.078125 C 5.722656 -7.390625 6.066406 -7.640625 6.484375 -7.828125 C 6.910156 -8.015625 7.414062 -8.097656 8 -8.078125 C 8.582031 -8.066406 9.234375 -7.84375 9.953125 -7.40625 C 10.441406 -7.113281 10.835938 -6.785156 11.140625 -6.421875 C 11.453125 -6.054688 11.671875 -5.664062 11.796875 -5.25 C 11.929688 -4.84375 11.96875 -4.410156 11.90625 -3.953125 C 11.84375 -3.503906 11.675781 -3.050781 11.40625 -2.59375 C 11.132812 -2.144531 10.847656 -1.796875 10.546875 -1.546875 C 10.253906 -1.296875 9.90625 -1.109375 9.5 -0.984375 C 9.09375 -0.859375 8.613281 -0.773438 8.0625 -0.734375 C 7.507812 -0.703125 6.851562 -0.679688 6.09375 -0.671875 C 5.195312 -0.640625 4.503906 -0.550781 4.015625 -0.40625 C 3.523438 -0.269531 3.132812 -0.0546875 2.84375 0.234375 L 7.875 3.234375 Z M 7.234375 4.3125 "/></g></g></g><g fill="#ffffff" fill-opacity="1"><g transform="translate(54.00852, 148.394003)"><g><path d="M 13.25 1.015625 L 14.28125 2.640625 L 8.21875 1.25 L 5.46875 8.59375 L 4.4375 6.984375 L 6.84375 0.890625 L 4.53125 0.34375 L 1.453125 2.296875 L 0.703125 1.09375 L 9.671875 -4.609375 L 10.421875 -3.40625 L 5.96875 -0.578125 Z M 13.25 1.015625 "/></g></g></g><g fill="#ffffff" fill-opacity="1"><g transform="translate(59.861824, 157.424466)"><g><path d="M 7.6875 2.109375 C 7.875 1.929688 8.0625 1.71875 8.25 1.46875 C 8.445312 1.226562 8.59375 0.96875 8.6875 0.6875 C 8.78125 0.40625 8.800781 0.101562 8.75 -0.21875 C 8.695312 -0.539062 8.535156 -0.863281 8.265625 -1.1875 C 7.941406 -1.5625 7.609375 -1.804688 7.265625 -1.921875 C 6.929688 -2.046875 6.609375 -2.09375 6.296875 -2.0625 C 5.984375 -2.03125 5.695312 -1.941406 5.4375 -1.796875 C 5.175781 -1.648438 4.953125 -1.492188 4.765625 -1.328125 Z M 6.84375 4.578125 C 6.59375 4.710938 6.3125 4.828125 6 4.921875 C 5.6875 5.015625 5.347656 5.039062 4.984375 5 C 4.628906 4.957031 4.257812 4.835938 3.875 4.640625 C 3.5 4.441406 3.117188 4.113281 2.734375 3.65625 C 2.316406 3.164062 2.03125 2.695312 1.875 2.25 C 1.726562 1.8125 1.65625 1.394531 1.65625 1 C 1.664062 0.613281 1.742188 0.253906 1.890625 -0.078125 C 2.035156 -0.410156 2.195312 -0.703125 2.375 -0.953125 C 2.5625 -1.210938 2.742188 -1.425781 2.921875 -1.59375 C 3.097656 -1.769531 3.238281 -1.898438 3.34375 -1.984375 C 3.46875 -2.085938 3.644531 -2.222656 3.875 -2.390625 C 4.101562 -2.554688 4.359375 -2.707031 4.640625 -2.84375 C 4.929688 -2.988281 5.242188 -3.097656 5.578125 -3.171875 C 5.921875 -3.253906 6.28125 -3.269531 6.65625 -3.21875 C 7.039062 -3.175781 7.425781 -3.050781 7.8125 -2.84375 C 8.195312 -2.632812 8.582031 -2.300781 8.96875 -1.84375 C 9.46875 -1.257812 9.757812 -0.703125 9.84375 -0.171875 C 9.9375 0.359375 9.910156 0.847656 9.765625 1.296875 C 9.617188 1.742188 9.390625 2.15625 9.078125 2.53125 C 8.773438 2.914062 8.46875 3.25 8.15625 3.53125 C 8.113281 3.570312 8.066406 3.613281 8.015625 3.65625 C 7.972656 3.707031 7.929688 3.753906 7.890625 3.796875 L 4.046875 -0.71875 C 3.785156 -0.5 3.550781 -0.25 3.34375 0.03125 C 3.144531 0.320312 3.003906 0.628906 2.921875 0.953125 C 2.835938 1.285156 2.820312 1.625 2.875 1.96875 C 2.9375 2.320312 3.113281 2.664062 3.40625 3 C 3.601562 3.238281 3.816406 3.425781 4.046875 3.5625 C 4.273438 3.707031 4.503906 3.800781 4.734375 3.84375 C 4.960938 3.882812 5.179688 3.882812 5.390625 3.84375 C 5.609375 3.800781 5.8125 3.722656 6 3.609375 Z M 6.84375 4.578125 "/></g></g></g><g fill="#ffffff" fill-opacity="1"><g transform="translate(65.834382, 164.233095)"><g><path d="M 9.171875 -5.890625 L 1.734375 1.703125 L 0.78125 0.765625 L 8.21875 -6.828125 Z M 9.171875 -5.890625 "/></g></g></g><g fill="#ffffff" fill-opacity="1"><g transform="translate(68.567251, 166.992593)"><g><path d="M 9.34375 -2.21875 L 10.453125 -1.296875 L 3.328125 2.78125 L 2.140625 1.796875 L 4.890625 -5.953125 L 5.984375 -5.03125 L 3.59375 1.265625 Z M 9.34375 -2.21875 "/></g></g></g><g fill="#ffffff" fill-opacity="1"><g transform="translate(74.365093, 171.730719)"><g><path d="M 7.015625 -8.046875 L 8.109375 -7.265625 L 7.296875 -6.125 L 6.203125 -6.90625 Z M 6.421875 -4.890625 L 1.953125 1.390625 L 0.859375 0.609375 L 5.328125 -5.671875 Z M 6.421875 -4.890625 "/></g></g></g><g fill="#ffffff" fill-opacity="1"><g transform="translate(77.469392, 174.066541)"><g><path d="M 3.734375 -2.3125 C 3.335938 -1.644531 3.113281 -1.070312 3.0625 -0.59375 C 3.007812 -0.125 3.039062 0.265625 3.15625 0.578125 C 3.28125 0.890625 3.445312 1.132812 3.65625 1.3125 C 3.863281 1.488281 4.035156 1.613281 4.171875 1.6875 C 4.296875 1.757812 4.484375 1.84375 4.734375 1.9375 C 4.992188 2.03125 5.285156 2.050781 5.609375 2 C 5.941406 1.945312 6.300781 1.78125 6.6875 1.5 C 7.070312 1.226562 7.460938 0.757812 7.859375 0.09375 C 8.234375 -0.5625 8.445312 -1.128906 8.5 -1.609375 C 8.5625 -2.085938 8.53125 -2.484375 8.40625 -2.796875 C 8.289062 -3.117188 8.125 -3.363281 7.90625 -3.53125 C 7.695312 -3.695312 7.53125 -3.816406 7.40625 -3.890625 C 7.269531 -3.960938 7.078125 -4.050781 6.828125 -4.15625 C 6.578125 -4.257812 6.285156 -4.28125 5.953125 -4.21875 C 5.628906 -4.164062 5.269531 -4 4.875 -3.71875 C 4.488281 -3.4375 4.109375 -2.96875 3.734375 -2.3125 Z M 2.5 -3.015625 C 2.757812 -3.453125 3.070312 -3.847656 3.4375 -4.203125 C 3.800781 -4.566406 4.207031 -4.84375 4.65625 -5.03125 C 5.101562 -5.226562 5.597656 -5.304688 6.140625 -5.265625 C 6.691406 -5.222656 7.269531 -5.03125 7.875 -4.6875 C 8.46875 -4.34375 8.914062 -3.941406 9.21875 -3.484375 C 9.519531 -3.023438 9.703125 -2.550781 9.765625 -2.0625 C 9.828125 -1.582031 9.789062 -1.09375 9.65625 -0.59375 C 9.519531 -0.101562 9.320312 0.359375 9.0625 0.796875 C 8.800781 1.253906 8.488281 1.660156 8.125 2.015625 C 7.757812 2.378906 7.351562 2.65625 6.90625 2.84375 C 6.457031 3.039062 5.957031 3.113281 5.40625 3.0625 C 4.851562 3.019531 4.28125 2.828125 3.6875 2.484375 C 3.082031 2.140625 2.628906 1.738281 2.328125 1.28125 C 2.035156 0.832031 1.859375 0.367188 1.796875 -0.109375 C 1.734375 -0.597656 1.769531 -1.085938 1.90625 -1.578125 C 2.039062 -2.078125 2.238281 -2.554688 2.5 -3.015625 Z M 2.5 -3.015625 "/></g></g></g><g fill="#ffffff" fill-opacity="1"><g transform="translate(85.698542, 178.798684)"><g><path d="M 5.203125 -6.171875 L 4.796875 -5.171875 C 5.191406 -5.421875 5.644531 -5.582031 6.15625 -5.65625 C 6.664062 -5.738281 7.203125 -5.664062 7.765625 -5.4375 C 8.234375 -5.238281 8.585938 -5.003906 8.828125 -4.734375 C 9.078125 -4.472656 9.234375 -4.179688 9.296875 -3.859375 C 9.367188 -3.535156 9.367188 -3.195312 9.296875 -2.84375 C 9.234375 -2.5 9.128906 -2.148438 8.984375 -1.796875 L 7 2.9375 L 5.78125 2.421875 L 7.609375 -1.9375 C 7.679688 -2.113281 7.757812 -2.332031 7.84375 -2.59375 C 7.9375 -2.851562 7.988281 -3.109375 8 -3.359375 C 8.007812 -3.617188 7.941406 -3.867188 7.796875 -4.109375 C 7.660156 -4.359375 7.398438 -4.5625 7.015625 -4.71875 C 6.847656 -4.789062 6.632812 -4.847656 6.375 -4.890625 C 6.113281 -4.941406 5.835938 -4.921875 5.546875 -4.828125 C 5.265625 -4.734375 4.972656 -4.539062 4.671875 -4.25 C 4.367188 -3.957031 4.097656 -3.519531 3.859375 -2.9375 L 2.234375 0.9375 L 1.015625 0.421875 L 3.984375 -6.6875 Z M 5.203125 -6.171875 "/></g></g></g><g fill="#ffffff" fill-opacity="1"><g transform="translate(94.148319, 182.189664)"><g/></g></g><g fill="#ffffff" fill-opacity="1"><g transform="translate(97.915802, 183.514843)"><g><path d="M 3.78125 -4.75 L 6.34375 -4.21875 C 7.164062 -4.039062 7.800781 -4.085938 8.25 -4.359375 C 8.695312 -4.628906 8.992188 -5.109375 9.140625 -5.796875 C 9.273438 -6.429688 9.175781 -6.929688 8.84375 -7.296875 C 8.507812 -7.671875 7.945312 -7.945312 7.15625 -8.125 L 4.59375 -8.65625 Z M 7.671875 -9.234375 C 8.210938 -9.117188 8.6875 -8.960938 9.09375 -8.765625 C 9.5 -8.566406 9.828125 -8.316406 10.078125 -8.015625 C 10.335938 -7.710938 10.507812 -7.347656 10.59375 -6.921875 C 10.6875 -6.503906 10.675781 -6.035156 10.5625 -5.515625 C 10.457031 -5.023438 10.300781 -4.59375 10.09375 -4.21875 C 9.882812 -3.84375 9.601562 -3.539062 9.25 -3.3125 C 8.90625 -3.082031 8.484375 -2.9375 7.984375 -2.875 C 7.492188 -2.820312 6.910156 -2.867188 6.234375 -3.015625 L 3.53125 -3.578125 L 2.65625 0.5625 L 1.265625 0.265625 L 3.453125 -10.125 Z M 7.671875 -9.234375 "/></g></g></g><g fill="#ffffff" fill-opacity="1"><g transform="translate(108.097698, 185.651)"><g><path d="M 2.71875 0.15625 L 1.296875 0.078125 L 1.890625 -10.53125 L 3.3125 -10.453125 L 3.0625 -6.015625 L 8.390625 -5.71875 L 8.640625 -10.15625 L 10.0625 -10.078125 L 9.46875 0.53125 L 8.046875 0.453125 L 8.328125 -4.515625 L 3 -4.8125 Z M 2.71875 0.15625 "/></g></g></g><g fill="#ffffff" fill-opacity="1"><g transform="translate(119.54445, 186.190953)"><g><path d="M 7.6875 -6.8125 L 7.796875 -5.640625 L 2.25 -5.125 L 2.59375 -1.453125 L 8.890625 -2.03125 L 9 -0.828125 L 1.296875 -0.125 L 0.3125 -10.703125 L 7.84375 -11.390625 L 7.96875 -10.1875 L 1.84375 -9.625 L 2.140625 -6.296875 Z M 7.6875 -6.8125 "/></g></g></g><g fill="#ffffff" fill-opacity="1"><g transform="translate(129.203707, 185.141364)"><g/></g></g><g fill="#ffffff" fill-opacity="1"><g transform="translate(133.215953, 184.567433)"><g><path d="M 8.28125 -8.3125 L 9.890625 -3.015625 L 8.828125 -2.703125 L 8.328125 -4.34375 L 8.296875 -4.328125 C 8.203125 -3.640625 7.914062 -3.035156 7.4375 -2.515625 C 6.96875 -1.992188 6.328125 -1.609375 5.515625 -1.359375 C 4.910156 -1.171875 4.289062 -1.082031 3.65625 -1.09375 C 3.03125 -1.101562 2.429688 -1.253906 1.859375 -1.546875 C 1.285156 -1.847656 0.753906 -2.304688 0.265625 -2.921875 C -0.222656 -3.546875 -0.617188 -4.367188 -0.921875 -5.390625 C -1.179688 -6.242188 -1.296875 -7.03125 -1.265625 -7.75 C -1.242188 -8.476562 -1.082031 -9.128906 -0.78125 -9.703125 C -0.476562 -10.285156 -0.0546875 -10.785156 0.484375 -11.203125 C 1.023438 -11.617188 1.675781 -11.941406 2.4375 -12.171875 C 3.113281 -12.378906 3.726562 -12.460938 4.28125 -12.421875 C 4.832031 -12.390625 5.320312 -12.269531 5.75 -12.0625 C 6.175781 -11.851562 6.539062 -11.578125 6.84375 -11.234375 C 7.15625 -10.890625 7.398438 -10.523438 7.578125 -10.140625 L 6.203125 -9.71875 C 6.109375 -9.9375 5.972656 -10.160156 5.796875 -10.390625 C 5.617188 -10.617188 5.390625 -10.800781 5.109375 -10.9375 C 4.835938 -11.082031 4.503906 -11.171875 4.109375 -11.203125 C 3.710938 -11.234375 3.257812 -11.171875 2.75 -11.015625 C 2.207031 -10.847656 1.769531 -10.628906 1.4375 -10.359375 C 1.101562 -10.085938 0.847656 -9.785156 0.671875 -9.453125 C 0.492188 -9.128906 0.375 -8.789062 0.3125 -8.4375 C 0.25 -8.082031 0.226562 -7.738281 0.25 -7.40625 C 0.269531 -7.082031 0.304688 -6.773438 0.359375 -6.484375 C 0.421875 -6.191406 0.484375 -5.957031 0.546875 -5.78125 C 0.578125 -5.65625 0.644531 -5.460938 0.75 -5.203125 C 0.851562 -4.953125 0.988281 -4.679688 1.15625 -4.390625 C 1.320312 -4.109375 1.53125 -3.816406 1.78125 -3.515625 C 2.039062 -3.222656 2.335938 -2.976562 2.671875 -2.78125 C 3.015625 -2.582031 3.40625 -2.453125 3.84375 -2.390625 C 4.28125 -2.328125 4.773438 -2.378906 5.328125 -2.546875 C 5.953125 -2.734375 6.425781 -3.003906 6.75 -3.359375 C 7.070312 -3.710938 7.296875 -4.085938 7.421875 -4.484375 C 7.554688 -4.890625 7.609375 -5.296875 7.578125 -5.703125 C 7.546875 -6.117188 7.484375 -6.484375 7.390625 -6.796875 L 4.484375 -5.90625 L 4.140625 -7.046875 Z M 8.28125 -8.3125 "/></g></g></g><g fill="#ffffff" fill-opacity="1"><g transform="translate(144.780021, 181.050467)"><g><path d="M -1.390625 -7.953125 L -0.90625 -7.015625 L -0.875 -6.9375 C -0.882812 -7.1875 -0.851562 -7.429688 -0.78125 -7.671875 C -0.71875 -7.910156 -0.617188 -8.128906 -0.484375 -8.328125 C -0.359375 -8.535156 -0.203125 -8.726562 -0.015625 -8.90625 C 0.160156 -9.082031 0.359375 -9.222656 0.578125 -9.328125 C 0.867188 -9.484375 1.148438 -9.570312 1.421875 -9.59375 C 1.691406 -9.625 1.941406 -9.609375 2.171875 -9.546875 C 2.398438 -9.484375 2.609375 -9.390625 2.796875 -9.265625 C 2.984375 -9.148438 3.148438 -9.015625 3.296875 -8.859375 C 3.285156 -9.023438 3.300781 -9.222656 3.34375 -9.453125 C 3.382812 -9.691406 3.457031 -9.929688 3.5625 -10.171875 C 3.675781 -10.421875 3.835938 -10.671875 4.046875 -10.921875 C 4.253906 -11.171875 4.539062 -11.382812 4.90625 -11.5625 C 5.414062 -11.832031 5.875 -11.9375 6.28125 -11.875 C 6.6875 -11.820312 7.035156 -11.6875 7.328125 -11.46875 C 7.628906 -11.257812 7.875 -11.007812 8.0625 -10.71875 C 8.25 -10.425781 8.394531 -10.179688 8.5 -9.984375 L 10.78125 -5.578125 L 9.59375 -4.96875 L 7.34375 -9.3125 C 7.25 -9.488281 7.128906 -9.679688 6.984375 -9.890625 C 6.847656 -10.097656 6.6875 -10.28125 6.5 -10.4375 C 6.3125 -10.59375 6.09375 -10.6875 5.84375 -10.71875 C 5.601562 -10.757812 5.328125 -10.703125 5.015625 -10.546875 C 4.828125 -10.441406 4.640625 -10.304688 4.453125 -10.140625 C 4.265625 -9.972656 4.125 -9.757812 4.03125 -9.5 C 3.945312 -9.238281 3.921875 -8.9375 3.953125 -8.59375 C 3.992188 -8.257812 4.128906 -7.867188 4.359375 -7.421875 L 6.46875 -3.34375 L 5.28125 -2.734375 L 3.046875 -7.0625 C 2.910156 -7.3125 2.765625 -7.539062 2.609375 -7.75 C 2.453125 -7.957031 2.273438 -8.125 2.078125 -8.25 C 1.890625 -8.382812 1.679688 -8.460938 1.453125 -8.484375 C 1.234375 -8.515625 0.984375 -8.457031 0.703125 -8.3125 C 0.460938 -8.1875 0.257812 -8.015625 0.09375 -7.796875 C -0.0703125 -7.585938 -0.1875 -7.34375 -0.25 -7.0625 C -0.320312 -6.789062 -0.332031 -6.492188 -0.28125 -6.171875 C -0.238281 -5.847656 -0.128906 -5.519531 0.046875 -5.1875 L 2.15625 -1.109375 L 0.96875 -0.5 L -2.578125 -7.34375 Z M -1.390625 -7.953125 "/></g></g></g><g fill="#ffffff" fill-opacity="1"><g transform="translate(157.098449, 174.414308)"><g><path d="M -0.46875 -4.53125 C -0.101562 -4.039062 0.253906 -3.671875 0.609375 -3.421875 C 0.960938 -3.171875 1.304688 -3.003906 1.640625 -2.921875 C 1.972656 -2.847656 2.273438 -2.847656 2.546875 -2.921875 C 2.828125 -2.992188 3.085938 -3.117188 3.328125 -3.296875 C 3.578125 -3.484375 3.785156 -3.707031 3.953125 -3.96875 C 4.128906 -4.238281 4.226562 -4.539062 4.25 -4.875 C 4.269531 -5.207031 4.210938 -5.578125 4.078125 -5.984375 C 3.941406 -6.398438 3.691406 -6.847656 3.328125 -7.328125 C 2.984375 -7.785156 2.640625 -8.140625 2.296875 -8.390625 C 1.953125 -8.640625 1.613281 -8.800781 1.28125 -8.875 C 0.957031 -8.945312 0.648438 -8.945312 0.359375 -8.875 C 0.0664062 -8.800781 -0.203125 -8.671875 -0.453125 -8.484375 C -0.710938 -8.285156 -0.921875 -8.050781 -1.078125 -7.78125 C -1.234375 -7.519531 -1.320312 -7.222656 -1.34375 -6.890625 C -1.375 -6.554688 -1.316406 -6.1875 -1.171875 -5.78125 C -1.035156 -5.382812 -0.800781 -4.96875 -0.46875 -4.53125 Z M -4.4375 -9.953125 L -2.078125 -6.8125 C -2.179688 -7.320312 -2.113281 -7.796875 -1.875 -8.234375 C -1.632812 -8.671875 -1.289062 -9.0625 -0.84375 -9.40625 C -0.394531 -9.726562 0.03125 -9.941406 0.4375 -10.046875 C 0.851562 -10.148438 1.238281 -10.175781 1.59375 -10.125 C 1.945312 -10.082031 2.273438 -9.976562 2.578125 -9.8125 C 2.890625 -9.65625 3.171875 -9.472656 3.421875 -9.265625 C 3.671875 -9.066406 3.878906 -8.863281 4.046875 -8.65625 C 4.222656 -8.457031 4.359375 -8.296875 4.453125 -8.171875 C 4.960938 -7.503906 5.285156 -6.878906 5.421875 -6.296875 C 5.554688 -5.722656 5.570312 -5.207031 5.46875 -4.75 C 5.375 -4.289062 5.195312 -3.890625 4.9375 -3.546875 C 4.675781 -3.210938 4.40625 -2.9375 4.125 -2.71875 C 3.863281 -2.53125 3.609375 -2.382812 3.359375 -2.28125 C 3.109375 -2.1875 2.863281 -2.125 2.625 -2.09375 C 2.382812 -2.070312 2.148438 -2.078125 1.921875 -2.109375 C 1.691406 -2.140625 1.472656 -2.191406 1.265625 -2.265625 L 1.234375 -2.25 L 1.875 -1.40625 L 0.875 -0.65625 L -5.5 -9.15625 Z M -4.4375 -9.953125 "/></g></g></g><g fill="#ffffff" fill-opacity="1"><g transform="translate(164.953018, 168.540324)"><g><path d="M 1.90625 -1.9375 L 0.90625 -0.921875 L -6.640625 -8.390625 L -5.640625 -9.40625 L -2.484375 -6.296875 L 1.28125 -10.09375 L -1.875 -13.203125 L -0.875 -14.203125 L 6.671875 -6.734375 L 5.671875 -5.734375 L 2.125 -9.234375 L -1.640625 -5.4375 Z M 1.90625 -1.9375 "/></g></g></g><g fill="#ffffff" fill-opacity="1"><g transform="translate(172.715464, 160.39582)"><g/></g></g><g fill="#ffffff" fill-opacity="1"><g transform="translate(175.067528, 157.444784)"><g/></g></g><g fill="#ffffff" fill-opacity="1"><g transform="translate(177.261949, 154.374718)"><g/></g></g><g fill="#ffffff" fill-opacity="1"><g transform="translate(179.29269, 151.194038)"><g/></g></g></svg>