<?xml version="1.0" encoding="UTF-8" standalone="no"?>
<svg
   width="230.875"
   zoomAndPan="magnify"
   viewBox="0 0 173.06389 173.16015"
   height="230.8802"
   preserveAspectRatio="xMidYMid"
   version="1.0"
   id="svg152"
   sodipodi:docname="Project-Reference-Kelvion-OR-PHE-EN.svg"
   inkscape:version="1.4.2 (ebf0e940, 2025-05-08)"
   xmlns:inkscape="http://www.inkscape.org/namespaces/inkscape"
   xmlns:sodipodi="http://sodipodi.sourceforge.net/DTD/sodipodi-0.dtd"
   xmlns="http://www.w3.org/2000/svg"
   xmlns:svg="http://www.w3.org/2000/svg">
  <sodipodi:namedview
     id="namedview152"
     pagecolor="#ffffff"
     bordercolor="#000000"
     borderopacity="0.25"
     inkscape:showpageshadow="2"
     inkscape:pageopacity="0.0"
     inkscape:pagecheckerboard="0"
     inkscape:deskcolor="#d1d1d1"
     inkscape:zoom="0.086666667"
     inkscape:cx="109.61538"
     inkscape:cy="109.61538"
     inkscape:window-width="1312"
     inkscape:window-height="830"
     inkscape:window-x="0"
     inkscape:window-y="34"
     inkscape:window-maximized="0"
     inkscape:current-layer="svg152" />
  <defs
     id="defs3">
    <g
       id="g1" />
    <clipPath
       id="bdb3009b39">
      <path
         d="M 0,0.0585938 H 224.76172 V 224.9375 H 0 Z m 0,0"
         clip-rule="nonzero"
         id="path1" />
    </clipPath>
    <clipPath
       id="e678a565bc">
      <path
         d="M 29.097656,25.476562 H 202.25391 V 198.63672 H 29.097656 Z m 0,0"
         clip-rule="nonzero"
         id="path2" />
    </clipPath>
    <clipPath
       id="cedbab30bb">
      <path
         d="M 67.511719,63.089844 H 165.70703 V 161.28906 H 67.511719 Z m 0,0"
         clip-rule="nonzero"
         id="path3" />
    </clipPath>
  </defs>
  <g
     clip-path="url(#e678a565bc)"
     id="g4"
     transform="translate(-29.157661,-25.476562)">
    <path
       fill="#38b6ff"
       d="m 202.38281,112.12109 c 0,1.41797 -0.0352,2.83594 -0.10547,4.25391 -0.0703,1.41406 -0.17187,2.82813 -0.3125,4.23828 -0.14062,1.41406 -0.3125,2.82031 -0.51953,4.22266 -0.20703,1.40234 -0.45312,2.79687 -0.72656,4.1875 -0.27734,1.39062 -0.58984,2.77343 -0.93359,4.15234 -0.34375,1.375 -0.72266,2.73828 -1.13282,4.09766 -0.41406,1.35547 -0.85547,2.70312 -1.33593,4.03906 -0.47657,1.33203 -0.98829,2.65625 -1.53125,3.96484 -0.53907,1.3125 -1.11719,2.60547 -1.72266,3.89063 -0.60547,1.28125 -1.24219,2.54687 -1.91016,3.79687 -0.66797,1.25 -1.36718,2.48438 -2.09765,3.69922 -0.72657,1.21875 -1.48828,2.41406 -2.27344,3.59375 -0.78906,1.17969 -1.60547,2.33985 -2.44922,3.47656 -0.84375,1.14063 -1.71875,2.25782 -2.61719,3.35157 -0.89843,1.09765 -1.82422,2.17187 -2.77734,3.22265 -0.95313,1.05078 -1.92969,2.07813 -2.93359,3.07813 -1,1.0039 -2.02735,1.98047 -3.07813,2.93359 -1.05078,0.95313 -2.125,1.87891 -3.22266,2.77735 -1.09375,0.89843 -2.21093,1.77343 -3.35156,2.61718 -1.13672,0.84375 -2.29687,1.66016 -3.47656,2.44922 -1.17969,0.78516 -2.375,1.54688 -3.59375,2.27344 -1.21484,0.73047 -2.44922,1.42969 -3.69922,2.09766 -1.25,0.66796 -2.51562,1.30468 -3.79687,1.91015 -1.28516,0.60547 -2.57813,1.17969 -3.89063,1.72266 -1.30859,0.54297 -2.63281,1.05469 -3.96484,1.53125 -1.33594,0.48047 -2.6836,0.92187 -4.03907,1.33594 -1.35546,0.41015 -2.72265,0.78906 -4.09765,1.13281 -1.375,0.34375 -2.76172,0.65625 -4.15235,0.93359 -1.39062,0.27344 -2.78515,0.51563 -4.1875,0.72656 -1.40234,0.20704 -2.80859,0.37891 -4.22265,0.51954 -1.41016,0.14062 -2.82422,0.24218 -4.23828,0.3125 -1.41797,0.0703 -2.83594,0.10546 -4.25391,0.10546 -1.41797,0 -2.83594,-0.0352 -4.25,-0.10546 -1.41797,-0.0703 -2.83203,-0.17188 -4.24219,-0.3125 -1.41015,-0.14063 -2.8164,-0.3125 -4.21875,-0.51954 -1.40234,-0.21093 -2.80078,-0.45312 -4.191402,-0.72656 -1.390626,-0.27734 -2.773438,-0.58984 -4.148438,-0.93359 -1.375,-0.34375 -2.742188,-0.72266 -4.101562,-1.13281 -1.355469,-0.41407 -2.699219,-0.85547 -4.035157,-1.33594 -1.335937,-0.47656 -2.660156,-0.98828 -3.96875,-1.53125 -1.308593,-0.54297 -2.605469,-1.11719 -3.886719,-1.72266 -1.28125,-0.60547 -2.550781,-1.24219 -3.800781,-1.91015 -1.25,-0.66797 -2.484375,-1.36719 -3.699219,-2.09766 -1.214843,-0.72656 -2.414062,-1.48828 -3.59375,-2.27344 -1.179687,-0.78906 -2.335937,-1.60547 -3.476562,-2.44922 -1.136719,-0.84375 -2.253906,-1.71875 -3.351562,-2.61718 -1.097657,-0.89844 -2.167969,-1.82422 -3.21875,-2.77735 -1.050782,-0.95312 -2.078126,-1.92969 -3.082032,-2.93359 -1.003906,-1 -1.980468,-2.02735 -2.933594,-3.07813 -0.949218,-1.05078 -1.875,-2.125 -2.777343,-3.22265 -0.898438,-1.09375 -1.769531,-2.21094 -2.613281,-3.35157 -0.847657,-1.13671 -1.664063,-2.29687 -2.449219,-3.47656 -0.789063,-1.17969 -1.546875,-2.375 -2.277344,-3.59375 -0.726563,-1.21484 -1.425781,-2.44922 -2.09375,-3.69922 -0.671875,-1.25 -1.308594,-2.51562 -1.914063,-3.79687 -0.605468,-1.28516 -1.179687,-2.57813 -1.722656,-3.89063 -0.542968,-1.30859 -1.054687,-2.63281 -1.53125,-3.96484 -0.476562,-1.33594 -0.921875,-2.68359 -1.332031,-4.03906 -0.414063,-1.35938 -0.792969,-2.72266 -1.136719,-4.09766 -0.34375,-1.37891 -0.652344,-2.76172 -0.929687,-4.15234 -0.277344,-1.39063 -0.519531,-2.78516 -0.726563,-4.1875 -0.210937,-1.40235 -0.382812,-2.8125 -0.523437,-4.22266 -0.136719,-1.41015 -0.242188,-2.82422 -0.3125,-4.23828 -0.07031,-1.41797 -0.101563,-2.83594 -0.101563,-4.25391 0,-1.41796 0.03125,-2.83593 0.101563,-4.25 0.07031,-1.41796 0.175781,-2.83203 0.3125,-4.24218 0.140625,-1.41016 0.3125,-2.81641 0.523437,-4.218754 0.207032,-1.402344 0.449219,-2.800781 0.726563,-4.191406 0.277343,-1.390625 0.585937,-2.773438 0.929687,-4.148438 0.34375,-1.375 0.722656,-2.742187 1.136719,-4.101562 0.410156,-1.355469 0.855469,-2.699219 1.332031,-4.035156 0.476563,-1.335938 0.988282,-2.660156 1.53125,-3.96875 0.542969,-1.308594 1.117188,-2.605469 1.722656,-3.886719 0.605469,-1.28125 1.242188,-2.550781 1.914063,-3.800781 0.667969,-1.25 1.367187,-2.484375 2.09375,-3.699219 0.730469,-1.214844 1.488281,-2.414063 2.277344,-3.59375 0.785156,-1.179687 1.601562,-2.335937 2.449219,-3.476563 0.84375,-1.136718 1.714843,-2.253906 2.613281,-3.351562 0.902343,-1.097656 1.828125,-2.167969 2.777343,-3.21875 0.953126,-1.050781 1.929688,-2.078125 2.933594,-3.082031 1.003906,-1.003907 2.03125,-1.980469 3.082032,-2.933594 1.050781,-0.949219 2.121093,-1.875 3.21875,-2.777344 1.097656,-0.898437 2.214843,-1.769531 3.351562,-2.617187 1.140625,-0.84375 2.296875,-1.660156 3.476562,-2.445313 1.179688,-0.789062 2.378907,-1.546875 3.59375,-2.277343 1.214844,-0.726563 2.449219,-1.425782 3.699219,-2.09375 1.25,-0.671876 2.519531,-1.308594 3.800781,-1.914063 1.28125,-0.605469 2.578126,-1.179687 3.886719,-1.722656 1.308594,-0.542969 2.632813,-1.054688 3.96875,-1.53125 1.335938,-0.476563 2.679688,-0.921875 4.035157,-1.332031 1.359374,-0.414063 2.726562,-0.792969 4.101562,-1.136719 1.375,-0.34375 2.757812,-0.652344 4.148438,-0.929688 1.390622,-0.277343 2.789062,-0.519531 4.191402,-0.726562 1.40235,-0.210938 2.8086,-0.382813 4.21875,-0.523438 1.41016,-0.136719 2.82422,-0.242187 4.24219,-0.3125 1.41406,-0.07031 2.83203,-0.105469 4.25,-0.105469 1.41797,0 2.83594,0.03516 4.25391,0.105469 1.41406,0.07031 2.82812,0.175781 4.23828,0.3125 1.41406,0.140625 2.82031,0.3125 4.22265,0.523438 1.40235,0.207031 2.79688,0.449219 4.1875,0.726562 1.39063,0.277344 2.77735,0.585938 4.15235,0.929688 1.375,0.34375 2.74219,0.722656 4.09765,1.136719 1.35547,0.410156 2.70313,0.855468 4.03907,1.332031 1.33203,0.476562 2.65625,0.988281 3.96484,1.53125 1.3125,0.542969 2.60938,1.117187 3.89063,1.722656 1.28125,0.605469 2.54687,1.242187 3.79687,1.914063 1.25,0.667968 2.48438,1.367187 3.69922,2.09375 1.21875,0.730468 2.41406,1.488281 3.59375,2.277343 1.17969,0.785157 2.33984,1.601563 3.47656,2.445313 1.14063,0.847656 2.25781,1.71875 3.35156,2.617187 1.09766,0.902344 2.17188,1.828125 3.22266,2.777344 1.05078,0.953125 2.07813,1.929687 3.07813,2.933594 1.0039,1.003906 1.98046,2.03125 2.93359,3.082031 0.95312,1.050781 1.87891,2.121094 2.77734,3.21875 0.89844,1.097656 1.77344,2.214844 2.61719,3.351562 0.84375,1.140626 1.66016,2.296876 2.44922,3.476563 0.78516,1.179687 1.54687,2.378906 2.27344,3.59375 0.73047,1.214844 1.42968,2.449219 2.09765,3.699219 0.66797,1.25 1.30469,2.519531 1.91016,3.800781 0.60547,1.28125 1.18359,2.578125 1.72266,3.886719 0.54296,1.308594 1.05468,2.632812 1.53125,3.96875 0.48046,1.335937 0.92187,2.679687 1.33593,4.035156 0.41016,1.359375 0.78907,2.726562 1.13282,4.101562 0.34375,1.375 0.65625,2.757813 0.93359,4.148438 0.27344,1.390625 0.51953,2.789062 0.72656,4.191406 0.20703,1.402344 0.37891,2.808594 0.51953,4.218754 0.14063,1.41015 0.24219,2.82422 0.3125,4.24218 0.0703,1.41407 0.10547,2.83204 0.10547,4.25 z m 0,0"
       fill-opacity="1"
       fill-rule="nonzero"
       id="path4" />
  </g>
  <g
     clip-path="url(#cedbab30bb)"
     id="g5"
     transform="translate(-29.157661,-25.476562)">
    <path
       fill="#000000"
       d="m 165.57812,112.125 c 0,1.60547 -0.0781,3.20703 -0.23437,4.80859 -0.15625,1.59766 -0.39453,3.1836 -0.70703,4.75782 -0.3125,1.57422 -0.70313,3.13281 -1.16797,4.66797 -0.46484,1.53906 -1.00781,3.04687 -1.62109,4.53124 -0.61329,1.48438 -1.30079,2.9336 -2.0586,4.35157 -0.75781,1.41406 -1.58203,2.78906 -2.47265,4.125 -0.89063,1.33593 -1.84766,2.625 -2.86719,3.86718 -1.01953,1.23829 -2.09375,2.42969 -3.23047,3.5625 -1.13672,1.13672 -2.32422,2.21485 -3.56641,3.23438 -1.24218,1.01562 -2.53125,1.97266 -3.86328,2.86328 -1.33594,0.89453 -2.71094,1.71875 -4.1289,2.47656 -1.41797,0.75782 -2.86719,1.44141 -4.35157,2.05469 -1.48047,0.61719 -2.99218,1.15625 -4.52734,1.62109 -1.53906,0.46875 -3.09375,0.85938 -4.66797,1.17188 -1.57812,0.3125 -3.16406,0.54687 -4.76172,0.70703 -1.59765,0.15625 -3.19922,0.23438 -4.80468,0.23438 -1.60547,0 -3.21094,-0.0781 -4.8086,-0.23438 -1.59765,-0.16016 -3.18359,-0.39453 -4.75781,-0.70703 -1.57813,-0.3125 -3.13281,-0.70313 -4.66797,-1.17188 -1.53906,-0.46484 -3.046875,-1.0039 -4.53125,-1.62109 -1.484375,-0.61328 -2.933594,-1.29687 -4.351562,-2.05469 -1.414063,-0.75781 -2.789063,-1.58203 -4.125,-2.47656 -1.335938,-0.89062 -2.625,-1.84766 -3.867188,-2.86328 -1.242188,-1.01953 -2.429688,-2.09766 -3.566406,-3.23438 -1.132813,-1.13281 -2.210938,-2.32421 -3.230469,-3.5625 -1.019531,-1.24218 -1.972656,-2.53125 -2.867187,-3.86718 -0.890626,-1.33594 -1.714844,-2.71094 -2.472657,-4.125 -0.757812,-1.41797 -1.441406,-2.86719 -2.058593,-4.35157 -0.613282,-1.48437 -1.152344,-2.99218 -1.621094,-4.53124 -0.464844,-1.53516 -0.855469,-3.09375 -1.167969,-4.66797 -0.3125,-1.57422 -0.546875,-3.16016 -0.707031,-4.75782 -0.15625,-1.60156 -0.234375,-3.20312 -0.234375,-4.80859 0,-1.60547 0.07813,-3.20703 0.234375,-4.80469 0.160156,-1.59765 0.394531,-3.1875 0.707031,-4.76172 0.3125,-1.57421 0.703125,-3.128902 1.167969,-4.667965 0.46875,-1.535156 1.007812,-3.046875 1.621094,-4.53125 0.617187,-1.480469 1.300781,-2.933594 2.058593,-4.347656 0.757813,-1.417969 1.582031,-2.792969 2.472657,-4.128907 0.894531,-1.335937 1.847656,-2.621093 2.867187,-3.863281 1.019531,-1.242187 2.097656,-2.429687 3.230469,-3.566406 1.136718,-1.136719 2.324218,-2.210937 3.566406,-3.230469 1.242188,-1.019531 2.53125,-1.976562 3.867188,-2.867187 1.335937,-0.890625 2.710937,-1.71875 4.125,-2.472657 1.417968,-0.757812 2.867187,-1.445312 4.351562,-2.058593 1.484375,-0.613281 2.99219,-1.15625 4.53125,-1.621094 1.53516,-0.464844 3.08984,-0.855469 4.66797,-1.167969 1.57422,-0.316406 3.16016,-0.550781 4.75781,-0.707031 1.59766,-0.15625 3.20313,-0.238281 4.8086,-0.238281 1.60546,0 3.20703,0.08203 4.80468,0.238281 1.59766,0.15625 3.1836,0.390625 4.76172,0.707031 1.57422,0.3125 3.12891,0.703125 4.66797,1.167969 1.53516,0.464844 3.04687,1.007813 4.52734,1.621094 1.48438,0.613281 2.9336,1.300781 4.35157,2.058593 1.41796,0.753907 2.79296,1.582032 4.1289,2.472657 1.33203,0.890625 2.6211,1.847656 3.86328,2.867187 1.24219,1.019532 2.42969,2.09375 3.56641,3.230469 1.13672,1.136719 2.21094,2.324219 3.23047,3.566406 1.01953,1.242188 1.97656,2.527344 2.86719,3.863281 0.89062,1.335938 1.71484,2.710938 2.47265,4.128907 0.75781,1.414062 1.44531,2.867187 2.0586,4.347656 0.61328,1.484375 1.15625,2.996094 1.62109,4.53125 0.46484,1.539063 0.85547,3.093755 1.16797,4.667965 0.3125,1.57422 0.55078,3.16407 0.70703,4.76172 0.15625,1.59766 0.23437,3.19922 0.23437,4.80469 z m 0,0"
       fill-opacity="1"
       fill-rule="nonzero"
       id="path5" />
  </g>
  <g
     fill="#ffffff"
     fill-opacity="1"
     id="g8"
     transform="translate(-29.157661,-25.476562)">
    <g
       transform="translate(88.30129,96.829792)"
       id="g7">
      <g
         id="g6">
        <path
           d="M 1.980469,-7.988281 V -9.074219 H 0.894531 v 1.085938 z M 1.980469,0 V -6.519531 H 0.894531 V 0 Z m 0,0"
           id="path6" />
      </g>
    </g>
  </g>
  <g
     fill="#ffffff"
     fill-opacity="1"
     id="g11"
     transform="translate(-29.157661,-25.476562)">
    <g
       transform="translate(91.176053,96.829792)"
       id="g10">
      <g
         id="g9">
        <path
           d="m 4.921875,-1.980469 c 0,-1.277343 -0.882813,-1.609375 -1.714844,-1.800781 L 2.65625,-3.910156 C 2.132812,-4.027344 1.726562,-4.21875 1.726562,-4.703125 c 0,-0.5 0.292969,-0.792969 1.148438,-0.792969 H 4.792969 V -6.519531 H 2.851562 c -1.457031,0 -2.210937,0.628906 -2.210937,1.90625 0,1.226562 0.816406,1.546875 1.632813,1.738281 l 0.640624,0.152344 c 0.511719,0.128906 0.917969,0.34375 0.917969,0.84375 0,0.640625 -0.484375,0.855468 -1.210937,0.855468 H 0.640625 V 0 h 2.082031 c 1.457032,0 2.199219,-0.550781 2.199219,-1.980469 z m 0,0"
           id="path8" />
      </g>
    </g>
  </g>
  <g
     fill="#ffffff"
     fill-opacity="1"
     id="g14"
     transform="translate(-29.157661,-25.476562)">
    <g
       transform="translate(96.733916,96.829792)"
       id="g13">
      <g
         id="g12">
        <path
           d="m 4.921875,-1.980469 c 0,-1.277343 -0.882813,-1.609375 -1.714844,-1.800781 L 2.65625,-3.910156 C 2.132812,-4.027344 1.726562,-4.21875 1.726562,-4.703125 c 0,-0.5 0.292969,-0.792969 1.148438,-0.792969 H 4.792969 V -6.519531 H 2.851562 c -1.457031,0 -2.210937,0.628906 -2.210937,1.90625 0,1.226562 0.816406,1.546875 1.632813,1.738281 l 0.640624,0.152344 c 0.511719,0.128906 0.917969,0.34375 0.917969,0.84375 0,0.640625 -0.484375,0.855468 -1.210937,0.855468 H 0.640625 V 0 h 2.082031 c 1.457032,0 2.199219,-0.550781 2.199219,-1.980469 z m 0,0"
           id="path11" />
      </g>
    </g>
  </g>
  <g
     fill="#ffffff"
     fill-opacity="1"
     id="g17"
     transform="translate(-29.157661,-25.476562)">
    <g
       transform="translate(102.29178,96.829792)"
       id="g16">
      <g
         id="g15">
        <path
           d="M 5.429688,0 V -6.519531 H 4.34375 v 5.5625 H 3.066406 c -0.777344,0 -1.085937,-0.539063 -1.085937,-1.214844 V -6.519531 H 0.894531 v 4.347656 C 0.894531,-0.832031 1.546875,0 2.9375,0 Z m 0,0"
           id="path14" />
      </g>
    </g>
  </g>
  <g
     fill="#ffffff"
     fill-opacity="1"
     id="g20"
     transform="translate(-29.157661,-25.476562)">
    <g
       transform="translate(108.61625,96.829792)"
       id="g19">
      <g
         id="g18">
        <path
           d="m 5.304688,-2.875 v -1.214844 c 0,-1.445312 -0.691407,-2.429687 -2.136719,-2.429687 H 2.902344 c -1.394532,0 -2.136719,0.960937 -2.136719,2.429687 v 1.660156 C 0.765625,-0.792969 1.597656,0 3.066406,0 H 4.984375 V -0.957031 H 3.195312 c -0.882812,0 -1.34375,-0.601563 -1.34375,-1.472657 V -2.875 Z M 4.21875,-3.730469 H 1.851562 V -4.21875 c 0,-0.675781 0.269532,-1.339844 1.050782,-1.339844 h 0.265625 c 0.78125,0 1.050781,0.664063 1.050781,1.339844 z m 0,0"
           id="path17" />
      </g>
    </g>
  </g>
  <g
     fill="#ffffff"
     fill-opacity="1"
     id="g23"
     transform="translate(-29.157661,-25.476562)">
    <g
       transform="translate(114.68519,96.829792)"
       id="g22">
      <g
         id="g21">
        <path
           d="M 5.304688,0 V -9.074219 H 4.21875 v 2.554688 H 2.8125 c -1.394531,0 -2.046875,0.832031 -2.046875,2.175781 v 2.171875 C 0.765625,-0.832031 1.417969,0 2.8125,0 Z M 4.21875,-0.957031 H 2.9375 c -0.777344,0 -1.085938,-0.539063 -1.085938,-1.214844 V -4.34375 c 0,-0.679688 0.308594,-1.214844 1.085938,-1.214844 h 1.28125 z m 0,0"
           id="path20" />
      </g>
    </g>
  </g>
  <g
     fill="#ffffff"
     fill-opacity="1"
     id="g26"
     transform="translate(-29.157661,-25.476562)">
    <g
       transform="translate(120.88189,96.829792)"
       id="g25">
      <g
         id="g24" />
    </g>
  </g>
  <g
     fill="#ffffff"
     fill-opacity="1"
     id="g29"
     transform="translate(-29.157661,-25.476562)">
    <g
       transform="translate(124.97044,96.829792)"
       id="g28">
      <g
         id="g27">
        <path
           d="M 3.515625,-8.050781 V -9.074219 H 2.621094 c -0.945313,0 -1.472656,0.5 -1.472656,1.597657 v 0.957031 H 0.253906 v 0.960937 H 1.148438 V 0 H 2.238281 V -5.558594 H 3.386719 V -6.519531 H 2.238281 V -7.4375 c 0,-0.472656 0.214844,-0.613281 0.507813,-0.613281 z m 0,0"
           id="path26" />
      </g>
    </g>
  </g>
  <g
     fill="#ffffff"
     fill-opacity="1"
     id="g32"
     transform="translate(-29.157661,-25.476562)">
    <g
       transform="translate(128.61181,96.829792)"
       id="g31">
      <g
         id="g30">
        <path
           d="M 5.304688,-2.171875 V -4.34375 c 0,-1.34375 -0.769532,-2.175781 -2.109376,-2.175781 H 2.875 c -1.339844,0 -2.109375,0.832031 -2.109375,2.175781 v 2.171875 C 0.765625,-0.832031 1.535156,0 2.875,0 h 0.320312 c 1.339844,0 2.109376,-0.832031 2.109376,-2.171875 z m -1.085938,0 c 0,0.675781 -0.398438,1.214844 -1.023438,1.214844 H 2.875 c -0.625,0 -1.023438,-0.539063 -1.023438,-1.214844 V -4.34375 c 0,-0.679688 0.398438,-1.214844 1.023438,-1.214844 h 0.320312 c 0.625,0 1.023438,0.535156 1.023438,1.214844 z m 0,0"
           id="path29" />
      </g>
    </g>
  </g>
  <g
     fill="#ffffff"
     fill-opacity="1"
     id="g35"
     transform="translate(-29.157661,-25.476562)">
    <g
       transform="translate(134.68075,96.829792)"
       id="g34">
      <g
         id="g33">
        <path
           d="M 3.707031,-5.507812 V -6.519531 H 2.875 c -1.390625,0 -2.042969,0.832031 -2.042969,2.175781 V 0 h 1.085938 v -4.34375 c 0,-0.679688 0.304687,-1.164062 1.085937,-1.164062 z m 0,0"
           id="path32" />
      </g>
    </g>
  </g>
  <g
     fill="#ffffff"
     fill-opacity="1"
     id="g38"
     transform="translate(-29.157661,-25.476562)">
    <g
       transform="translate(138.64153,96.829792)"
       id="g37">
      <g
         id="g36">
        <path
           d="m 2.109375,-5.175781 v -1.34375 h -1.34375 v 1.34375 z M 2.109375,0 V -1.34375 H 0.765625 V 0 Z m 0,0"
           id="path35" />
      </g>
    </g>
  </g>
  <g
     fill="#ffffff"
     fill-opacity="1"
     id="g41"
     transform="translate(-29.157661,-25.476562)">
    <g
       transform="translate(94.491961,114.22792)"
       id="g40">
      <g
         id="g39">
        <path
           d="m 7.09375,0 -2.875,-9.074219 H 3.132812 L 0.253906,0 H 1.40625 l 0.550781,-1.789062 h 3.4375 L 5.941406,0 Z M 5.074219,-2.8125 H 2.273438 l 1.40625,-4.511719 z m 0,0"
           id="path38" />
      </g>
    </g>
  </g>
  <g
     fill="#ffffff"
     fill-opacity="1"
     id="g44"
     transform="translate(-29.157661,-25.476562)">
    <g
       transform="translate(101.83857,114.22792)"
       id="g43">
      <g
         id="g42">
        <path
           d="M 5.304688,0 V -9.074219 H 4.21875 v 2.554688 H 2.8125 c -1.394531,0 -2.046875,0.832031 -2.046875,2.175781 v 2.171875 C 0.765625,-0.832031 1.417969,0 2.8125,0 Z M 4.21875,-0.957031 H 2.9375 c -0.777344,0 -1.085938,-0.539063 -1.085938,-1.214844 V -4.34375 c 0,-0.679688 0.308594,-1.214844 1.085938,-1.214844 h 1.28125 z m 0,0"
           id="path41" />
      </g>
    </g>
  </g>
  <g
     fill="#ffffff"
     fill-opacity="1"
     id="g47"
     transform="translate(-29.157661,-25.476562)">
    <g
       transform="translate(108.03527,114.22792)"
       id="g46">
      <g
         id="g45">
        <path
           d="m 5.113281,0 v -4.28125 c 0,-1.480469 -0.628906,-2.238281 -2.136719,-2.238281 H 1.085938 v 1.023437 H 2.875 c 0.855469,0 1.152344,0.460938 1.152344,1.214844 v 0.613281 H 2.722656 c -1.394531,0 -2.148437,0.535157 -2.148437,1.878907 C 0.574219,-0.601562 1.265625,0 2.492188,0 Z M 4.027344,-0.957031 h -1.40625 c -0.640625,0 -0.960938,-0.269531 -0.960938,-0.832031 0,-0.675782 0.308594,-0.957032 1.085938,-0.957032 h 1.28125 z m 0,0"
           id="path44" />
      </g>
    </g>
  </g>
  <g
     fill="#ffffff"
     fill-opacity="1"
     id="g50"
     transform="translate(-29.157661,-25.476562)">
    <g
       transform="translate(114.04033,114.22792)"
       id="g49">
      <g
         id="g48">
        <path
           d="m 5.429688,0 -2.15625,-3.578125 2.03125,-2.941406 H 4.089844 L 2.058594,-3.578125 4.21875,0 Z M 1.980469,0 V -9.074219 H 0.894531 V 0 Z m 0,0"
           id="path47" />
      </g>
    </g>
  </g>
  <g
     fill="#ffffff"
     fill-opacity="1"
     id="g53"
     transform="translate(-29.157661,-25.476562)">
    <g
       transform="translate(119.59819,114.22792)"
       id="g52">
      <g
         id="g51">
        <path
           d="M 5.304688,-2.171875 V -4.34375 c 0,-1.34375 -0.769532,-2.175781 -2.109376,-2.175781 H 2.875 c -1.339844,0 -2.109375,0.832031 -2.109375,2.175781 v 2.171875 C 0.765625,-0.832031 1.535156,0 2.875,0 h 0.320312 c 1.339844,0 2.109376,-0.832031 2.109376,-2.171875 z m -1.085938,0 c 0,0.675781 -0.398438,1.214844 -1.023438,1.214844 H 2.875 c -0.625,0 -1.023438,-0.539063 -1.023438,-1.214844 V -4.34375 c 0,-0.679688 0.398438,-1.214844 1.023438,-1.214844 h 0.320312 c 0.625,0 1.023438,0.535156 1.023438,1.214844 z m 0,0"
           id="path50" />
      </g>
    </g>
  </g>
  <g
     fill="#ffffff"
     fill-opacity="1"
     id="g56"
     transform="translate(-29.157661,-25.476562)">
    <g
       transform="translate(125.66713,114.22792)"
       id="g55">
      <g
         id="g54">
        <path
           d="m 8.816406,0 v -4.21875 c 0,-1.40625 -0.664062,-2.300781 -2.132812,-2.300781 H 6.414062 c -0.714843,0 -1.238281,0.207031 -1.582031,0.589843 C 4.484375,-6.3125 3.949219,-6.519531 3.234375,-6.519531 H 2.964844 c -1.46875,0 -2.132813,0.894531 -2.132813,2.300781 V 0 h 1.085938 v -4.21875 c 0,-0.675781 0.304687,-1.277344 1.085937,-1.277344 h 0.191406 c 0.777344,0 1.085938,0.601563 1.085938,1.277344 V 0 h 1.085938 v -4.21875 c 0,-0.675781 0.308593,-1.277344 1.085937,-1.277344 h 0.191406 c 0.78125,0 1.085938,0.601563 1.085938,1.277344 V 0 Z m 0,0"
           id="path53" />
      </g>
    </g>
  </g>
  <g
     fill="#ffffff"
     fill-opacity="1"
     id="g59"
     transform="translate(-29.157661,-25.476562)">
    <g
       transform="translate(99.632318,131.62606)"
       id="g58">
      <g
         id="g57">
        <path
           d="M 6.390625,0 V -4.984375 H 3.386719 v 1.023437 h 1.917969 v 2.9375 H 3.578125 c -1.265625,0 -1.726563,-0.933593 -1.726563,-1.914062 v -2.941406 c 0,-1.226563 0.5625,-2.171875 1.980469,-2.171875 H 6.132812 V -9.074219 H 3.832031 c -2.09375,0 -3.066406,1.253907 -3.066406,3.195313 V -2.9375 c 0,1.699219 0.855469,2.9375 2.8125,2.9375 z m 0,0"
           id="path56" />
      </g>
    </g>
  </g>
  <g
     fill="#ffffff"
     fill-opacity="1"
     id="g62"
     transform="translate(-29.157661,-25.476562)">
    <g
       transform="translate(106.91504,131.62606)"
       id="g61">
      <g
         id="g60">
        <path
           d="m 8.816406,0 v -4.21875 c 0,-1.40625 -0.664062,-2.300781 -2.132812,-2.300781 H 6.414062 c -0.714843,0 -1.238281,0.207031 -1.582031,0.589843 C 4.484375,-6.3125 3.949219,-6.519531 3.234375,-6.519531 H 2.964844 c -1.46875,0 -2.132813,0.894531 -2.132813,2.300781 V 0 h 1.085938 v -4.21875 c 0,-0.675781 0.304687,-1.277344 1.085937,-1.277344 h 0.191406 c 0.777344,0 1.085938,0.601563 1.085938,1.277344 V 0 h 1.085938 v -4.21875 c 0,-0.675781 0.308593,-1.277344 1.085937,-1.277344 h 0.191406 c 0.78125,0 1.085938,0.601563 1.085938,1.277344 V 0 Z m 0,0"
           id="path59" />
      </g>
    </g>
  </g>
  <g
     fill="#ffffff"
     fill-opacity="1"
     id="g65"
     transform="translate(-29.157661,-25.476562)">
    <g
       transform="translate(116.56145,131.62606)"
       id="g64">
      <g
         id="g63">
        <path
           d="M 5.429688,-2.171875 V -4.34375 c 0,-1.34375 -0.648438,-2.175781 -2.042969,-2.175781 H 1.980469 V -9.074219 H 0.894531 V 0 H 3.386719 C 4.78125,0 5.429688,-0.832031 5.429688,-2.171875 Z m -1.085938,0 c 0,0.675781 -0.304688,1.214844 -1.085938,1.214844 H 1.980469 v -4.601563 h 1.277343 c 0.78125,0 1.085938,0.535156 1.085938,1.214844 z m 0,0"
           id="path62" />
      </g>
    </g>
  </g>
  <g
     fill="#ffffff"
     fill-opacity="1"
     id="g68"
     transform="translate(-29.157661,-25.476562)">
    <g
       transform="translate(122.75816,131.62606)"
       id="g67">
      <g
         id="g66">
        <path
           d="M 6.519531,0 V -9.074219 H 5.429688 v 3.960938 H 1.980469 V -9.074219 H 0.894531 V 0 H 1.980469 V -4.089844 H 5.429688 V 0 Z m 0,0"
           id="path65" />
      </g>
    </g>
  </g>
  <g
     fill="#ffffff"
     fill-opacity="1"
     id="g71"
     transform="translate(-29.157661,-25.476562)">
    <g
       transform="translate(77.432968,58.64727)"
       id="g70">
      <g
         id="g69">
        <path
           d="M 7.234375,-4.3125 0.78125,-0.46875 C 0.4375,-1.039062 0.21875,-1.582031 0.125,-2.09375 0.0390625,-2.601562 0.046875,-3.109375 0.140625,-3.609375 0.234375,-4.109375 0.394531,-4.613281 0.625,-5.125 0.851562,-5.644531 1.117188,-6.179688 1.421875,-6.734375 1.546875,-6.972656 1.675781,-7.238281 1.8125,-7.53125 1.945312,-7.820312 2.050781,-8.125 2.125,-8.4375 2.207031,-8.75 2.234375,-9.070312 2.203125,-9.40625 c -0.03125,-0.34375 -0.15625,-0.695312 -0.375,-1.0625 -0.367187,-0.601562 -0.820313,-0.953125 -1.359375,-1.046875 -0.53125,-0.101563 -1.078125,0.01563 -1.640625,0.359375 -0.613281,0.367188 -1,0.828125 -1.15625,1.390625 -0.15625,0.554687 -0.0625,1.117187 0.28125,1.6875 l 0.21875,0.34375 L -3.0625,-7 -3.234375,-7.28125 c -0.132813,-0.207031 -0.269531,-0.5 -0.40625,-0.875 -0.144531,-0.382812 -0.195313,-0.8125 -0.15625,-1.28125 0.03125,-0.46875 0.195313,-0.945312 0.484375,-1.4375 0.292969,-0.5 0.796875,-0.96875 1.515625,-1.40625 0.492187,-0.289062 0.976563,-0.484375 1.453125,-0.578125 0.46875,-0.09375 0.910156,-0.09766 1.328125,-0.01563 0.425781,0.07422 0.820313,0.246094 1.1875,0.515625 0.363281,0.261719 0.679687,0.621094 0.953125,1.078125 0.269531,0.449219 0.441406,0.867188 0.515625,1.25 0.082031,0.386719 0.082031,0.789062 0,1.203125 C 3.554688,-8.410156 3.398438,-7.945312 3.171875,-7.4375 2.941406,-6.9375 2.65625,-6.347656 2.3125,-5.671875 1.914062,-4.867188 1.660156,-4.21875 1.546875,-3.71875 1.429688,-3.226562 1.4375,-2.785156 1.5625,-2.390625 l 5.03125,-3 z m 0,0"
           id="path68" />
      </g>
    </g>
  </g>
  <g
     fill="#ffffff"
     fill-opacity="1"
     id="g74"
     transform="translate(-29.157661,-25.476562)">
    <g
       transform="translate(84.817922,54.196219)"
       id="g73">
      <g
         id="g72">
        <path
           d="M 3.65625,-5.71875 1.546875,-10.625 0.15625,-4.21875 Z m -4.34375,3.203125 -0.484375,-1.140625 1.9375,-8.765625 1.375,-0.59375 2.875,6.703125 L 6.625,-7 7.109375,-5.859375 5.5,-5.171875 l 1.015625,2.375 -1.359375,0.59375 -1.015625,-2.375 z m 0,0"
           id="path71" />
      </g>
    </g>
  </g>
  <g
     fill="#ffffff"
     fill-opacity="1"
     id="g77"
     transform="translate(-29.157661,-25.476562)">
    <g
       transform="translate(92.893213,50.830702)"
       id="g76">
      <g
         id="g75">
        <path
           d="m 1.09375,-2.15625 1.5,-0.46875 0.515625,1.65625 -1.5,0.46875 z m 0,0"
           id="path74" />
      </g>
    </g>
  </g>
  <g
     fill="#ffffff"
     fill-opacity="1"
     id="g80"
     transform="translate(-29.157661,-25.476562)">
    <g
       transform="translate(97.138698,49.368662)"
       id="g79">
      <g
         id="g78">
        <path
           d="M 4.328125,-1.828125 C 4.753906,-1.910156 5.09375,-2.101562 5.34375,-2.40625 5.601562,-2.71875 5.785156,-3.09375 5.890625,-3.53125 5.992188,-3.976562 6.03125,-4.484375 6,-5.046875 5.96875,-5.617188 5.890625,-6.21875 5.765625,-6.84375 5.640625,-7.46875 5.476562,-8.046875 5.28125,-8.578125 5.09375,-9.109375 4.863281,-9.5625 4.59375,-9.9375 4.320312,-10.3125 4.007812,-10.585938 3.65625,-10.765625 3.3125,-10.941406 2.925781,-10.988281 2.5,-10.90625 c -0.4375,0.09375 -0.789062,0.292969 -1.046875,0.59375 -0.25,0.304688 -0.429687,0.679688 -0.53125,1.125 -0.105469,0.449219 -0.148437,0.953125 -0.125,1.515625 0.03125,0.5625 0.109375,1.15625 0.234375,1.78125 0.125,0.625 0.285156,1.210937 0.484375,1.75 0.195313,0.53125 0.429687,0.984375 0.703125,1.359375 0.269531,0.367188 0.578125,0.640625 0.921875,0.828125 0.351563,0.179687 0.75,0.21875 1.1875,0.125 z m 0.25,1.234375 C 4.429688,-0.5625 4.238281,-0.535156 4,-0.515625 c -0.242188,0.023437 -0.515625,0 -0.828125,-0.0625 -0.304687,-0.0625 -0.625,-0.179687 -0.96875,-0.359375 C 1.867188,-1.113281 1.539062,-1.390625 1.21875,-1.765625 0.894531,-2.140625 0.59375,-2.632812 0.3125,-3.25 0.03125,-3.875 -0.207031,-4.65625 -0.40625,-5.59375 -0.59375,-6.519531 -0.675781,-7.320312 -0.65625,-8 c 0.023438,-0.6875 0.109375,-1.265625 0.265625,-1.734375 0.15625,-0.46875 0.3515625,-0.851563 0.578125,-1.15625 0.238281,-0.300781 0.488281,-0.539063 0.75,-0.71875 0.269531,-0.175781 0.515625,-0.300781 0.734375,-0.375 0.226563,-0.07031 0.414063,-0.125 0.5625,-0.15625 0.132813,-0.01953 0.328125,-0.03906 0.578125,-0.0625 0.25,-0.01953 0.523438,0 0.828125,0.0625 0.300781,0.0625 0.625,0.183594 0.96875,0.359375 0.34375,0.179688 0.675781,0.453125 1,0.828125 0.320313,0.375 0.625,0.875 0.90625,1.5 0.28125,0.617187 0.515625,1.386719 0.703125,2.3125 0.195312,0.9375 0.285156,1.75 0.265625,2.4375 -0.023437,0.679687 -0.109375,1.25 -0.265625,1.71875 -0.15625,0.46875 -0.355469,0.855469 -0.59375,1.15625 -0.242188,0.304687 -0.492188,0.542969 -0.75,0.71875 -0.261719,0.179687 -0.511719,0.304687 -0.75,0.375 -0.230469,0.074219 -0.414062,0.121094 -0.546875,0.140625 z m 0,0"
           id="path77" />
      </g>
    </g>
  </g>
  <g
     fill="#ffffff"
     fill-opacity="1"
     id="g83"
     transform="translate(-29.157661,-25.476562)">
    <g
       transform="translate(105.58172,47.617958)"
       id="g82">
      <g
         id="g81">
        <path
           d="m 2.03125,-3.703125 c 0.019531,0.34375 0.09375,0.679687 0.21875,1 0.125,0.3125 0.289062,0.589844 0.5,0.828125 0.21875,0.230469 0.484375,0.414062 0.796875,0.546875 0.320313,0.125 0.695313,0.179687 1.125,0.15625 0.40625,-0.03125 0.75,-0.128906 1.03125,-0.296875 C 5.984375,-1.644531 6.207031,-1.867188 6.375,-2.140625 6.550781,-2.410156 6.671875,-2.710938 6.734375,-3.046875 6.804688,-3.378906 6.832031,-3.71875 6.8125,-4.0625 6.78125,-4.394531 6.707031,-4.710938 6.59375,-5.015625 6.488281,-5.316406 6.328125,-5.570312 6.109375,-5.78125 5.898438,-6 5.640625,-6.164062 5.328125,-6.28125 5.023438,-6.40625 4.679688,-6.453125 4.296875,-6.421875 3.515625,-6.367188 2.925781,-6.09375 2.53125,-5.59375 c -0.386719,0.5 -0.554688,1.132812 -0.5,1.890625 z M 6.40625,-9.125 C 6.289062,-9.5 6.128906,-9.789062 5.921875,-10 5.710938,-10.207031 5.5,-10.351562 5.28125,-10.4375 c -0.210938,-0.08203 -0.421875,-0.125 -0.640625,-0.125 -0.210937,0 -0.367187,0 -0.46875,0 -0.585937,0.04297 -1.042969,0.203125 -1.375,0.484375 -0.324219,0.28125 -0.570313,0.636719 -0.734375,1.0625 -0.167969,0.429687 -0.265625,0.886719 -0.296875,1.375 -0.03125,0.480469 -0.03125,0.9375 0,1.375 h 0.03125 c 0.300781,-0.46875 0.6875,-0.800781 1.15625,-1 0.46875,-0.207031 0.957031,-0.328125 1.46875,-0.359375 0.507813,-0.03125 0.984375,0.023438 1.421875,0.15625 0.445312,0.136719 0.84375,0.355469 1.1875,0.65625 0.34375,0.292969 0.617188,0.664062 0.828125,1.109375 0.21875,0.449219 0.347656,0.96875 0.390625,1.5625 0.03125,0.5625 -0.023438,1.09375 -0.15625,1.59375 C 7.957031,-2.054688 7.734375,-1.625 7.421875,-1.25 7.117188,-0.882812 6.738281,-0.59375 6.28125,-0.375 5.820312,-0.15625 5.289062,-0.0234375 4.6875,0.015625 4.070312,0.0546875 3.515625,0.00390625 3.015625,-0.140625 c -0.5,-0.144531 -0.9375,-0.425781 -1.3125,-0.84375 C 1.328125,-1.398438 1.023438,-1.96875 0.796875,-2.6875 0.566406,-3.414062 0.414062,-4.332031 0.34375,-5.4375 0.28125,-6.425781 0.304688,-7.269531 0.421875,-7.96875 c 0.113281,-0.695312 0.28125,-1.273438 0.5,-1.734375 0.226563,-0.457031 0.492187,-0.816406 0.796875,-1.078125 0.300781,-0.269531 0.597656,-0.472656 0.890625,-0.609375 0.300781,-0.132813 0.582031,-0.222656 0.84375,-0.265625 0.269531,-0.05078 0.488281,-0.08203 0.65625,-0.09375 0.15625,-0.0078 0.398437,-0.0039 0.734375,0.01563 0.34375,0.02344 0.695312,0.109375 1.0625,0.265625 0.375,0.148438 0.734375,0.390625 1.078125,0.734375 0.34375,0.34375 0.59375,0.855469 0.75,1.53125 z m 0,0"
           id="path80" />
      </g>
    </g>
  </g>
  <g
     fill="#ffffff"
     fill-opacity="1"
     id="g86"
     transform="translate(-29.157661,-25.476562)">
    <g
       transform="translate(114.31599,47.120907)"
       id="g85">
      <g
         id="g84">
        <path
           d="M 1.75,-1.671875 3.3125,-1.625 3.25,0.109375 1.6875,0.0625 Z m 0,0"
           id="path83" />
      </g>
    </g>
  </g>
  <g
     fill="#ffffff"
     fill-opacity="1"
     id="g89"
     transform="translate(-29.157661,-25.476562)">
    <g
       transform="translate(118.8062,47.148555)"
       id="g88">
      <g
         id="g87">
        <path
           d="M 8.34375,1.15625 0.890625,0.125 c 0.09375,-0.65625 0.265625,-1.210938 0.515625,-1.671875 0.25,-0.457031 0.566406,-0.851563 0.953125,-1.1875 0.382813,-0.332031 0.828125,-0.625 1.328125,-0.875 0.507812,-0.25 1.054688,-0.503906 1.640625,-0.765625 0.25,-0.113281 0.515625,-0.234375 0.796875,-0.359375 0.28125,-0.132813 0.550781,-0.300781 0.8125,-0.5 0.257812,-0.207031 0.484375,-0.453125 0.671875,-0.734375 0.1875,-0.28125 0.3125,-0.632812 0.375,-1.0625 C 8.078125,-7.71875 7.945312,-8.269531 7.59375,-8.6875 7.238281,-9.101562 6.726562,-9.359375 6.0625,-9.453125 c -0.699219,-0.09375 -1.28125,0.03125 -1.75,0.375 -0.46875,0.335937 -0.75,0.835937 -0.84375,1.5 L 3.421875,-7.171875 1.96875,-7.375 2.015625,-7.703125 c 0.03125,-0.25 0.113281,-0.566406 0.25,-0.953125 C 2.398438,-9.039062 2.625,-9.40625 2.9375,-9.75 c 0.320312,-0.34375 0.75,-0.613281 1.28125,-0.8125 0.539062,-0.195312 1.226562,-0.238281 2.0625,-0.125 0.570312,0.07422 1.070312,0.21875 1.5,0.4375 0.425781,0.21875 0.773438,0.496094 1.046875,0.828125 0.28125,0.324219 0.476563,0.703125 0.59375,1.140625 0.125,0.4375 0.148437,0.921875 0.078125,1.453125 C 9.425781,-6.316406 9.300781,-5.882812 9.125,-5.53125 8.945312,-5.1875 8.691406,-4.875 8.359375,-4.59375 8.035156,-4.320312 7.625,-4.0625 7.125,-3.8125 6.632812,-3.5625 6.039062,-3.285156 5.34375,-2.984375 4.539062,-2.609375 3.9375,-2.257812 3.53125,-1.9375 3.132812,-1.625 2.859375,-1.269531 2.703125,-0.875 l 5.8125,0.796875 z m 0,0"
           id="path86" />
      </g>
    </g>
  </g>
  <g
     fill="#ffffff"
     fill-opacity="1"
     id="g92"
     transform="translate(-29.157661,-25.476562)">
    <g
       transform="translate(127.35209,48.296296)"
       id="g91">
      <g
         id="g90">
        <path
           d="M 4.6875,0.34375 C 5.113281,0.457031 5.507812,0.4375 5.875,0.28125 6.238281,0.125 6.566406,-0.125 6.859375,-0.46875 7.148438,-0.820312 7.410156,-1.257812 7.640625,-1.78125 7.878906,-2.300781 8.082031,-2.867188 8.25,-3.484375 c 0.175781,-0.613281 0.296875,-1.195313 0.359375,-1.75 0.0625,-0.5625 0.054687,-1.070313 -0.015625,-1.53125 -0.0625,-0.457031 -0.210938,-0.84375 -0.4375,-1.15625 -0.230469,-0.320313 -0.558594,-0.539063 -0.984375,-0.65625 -0.429687,-0.113281 -0.824219,-0.09375 -1.1875,0.0625 -0.367187,0.148437 -0.699219,0.398437 -1,0.75 -0.304687,0.355469 -0.570313,0.792969 -0.796875,1.3125 -0.21875,0.511719 -0.417969,1.074219 -0.59375,1.6875 C 3.425781,-4.148438 3.304688,-3.5625 3.234375,-3 c -0.074219,0.5625 -0.074219,1.074219 0,1.53125 0.082031,0.449219 0.238281,0.835938 0.46875,1.15625 C 3.929688,0.0078125 4.257812,0.226562 4.6875,0.34375 Z M 4.34375,1.546875 C 4.207031,1.503906 4.023438,1.4375 3.796875,1.34375 3.578125,1.257812 3.34375,1.117188 3.09375,0.921875 c -0.25,-0.1875 -0.484375,-0.4375 -0.703125,-0.75 C 2.171875,-0.140625 2,-0.535156 1.875,-1.015625 1.757812,-1.503906 1.71875,-2.085938 1.75,-2.765625 1.78125,-3.441406 1.921875,-4.242188 2.171875,-5.171875 2.429688,-6.085938 2.722656,-6.84375 3.046875,-7.4375 3.367188,-8.03125 3.707031,-8.5 4.0625,-8.84375 c 0.351562,-0.351562 0.703125,-0.609375 1.046875,-0.765625 0.351563,-0.15625 0.6875,-0.25 1,-0.28125 C 6.421875,-9.929688 6.695312,-9.9375 6.9375,-9.90625 7.175781,-9.875 7.363281,-9.835938 7.5,-9.796875 7.632812,-9.753906 7.816406,-9.6875 8.046875,-9.59375 8.273438,-9.5 8.507812,-9.351562 8.75,-9.15625 c 0.25,0.1875 0.484375,0.4375 0.703125,0.75 0.21875,0.3125 0.382813,0.714844 0.5,1.203125 0.125,0.480469 0.171875,1.058594 0.140625,1.734375 -0.02344,0.679688 -0.164062,1.476562 -0.421875,2.390625 -0.25,0.929687 -0.542969,1.6875 -0.875,2.28125 -0.324219,0.59375 -0.664063,1.0625 -1.015625,1.40625 C 7.425781,0.960938 7.070312,1.21875 6.71875,1.375 6.375,1.53125 6.046875,1.625 5.734375,1.65625 5.429688,1.695312 5.15625,1.695312 4.90625,1.65625 4.664062,1.625 4.476562,1.585938 4.34375,1.546875 Z m 0,0"
           id="path89" />
      </g>
    </g>
  </g>
  <g
     fill="#ffffff"
     fill-opacity="1"
     id="g95"
     transform="translate(-29.157661,-25.476562)">
    <g
       transform="translate(135.66972,50.569268)"
       id="g94">
      <g
         id="g93">
        <path
           d="M 7.734375,3.3125 0.828125,0.359375 C 1.085938,-0.253906 1.394531,-0.742188 1.75,-1.109375 2.113281,-1.484375 2.523438,-1.78125 2.984375,-2 c 0.46875,-0.226562 0.976563,-0.394531 1.53125,-0.5 0.550781,-0.113281 1.144531,-0.21875 1.78125,-0.3125 0.257813,-0.050781 0.546875,-0.101562 0.859375,-0.15625 0.3125,-0.050781 0.617188,-0.132812 0.921875,-0.25 C 8.378906,-3.34375 8.65625,-3.519531 8.90625,-3.75 9.164062,-3.976562 9.378906,-4.285156 9.546875,-4.671875 9.816406,-5.316406 9.835938,-5.882812 9.609375,-6.375 9.378906,-6.863281 8.957031,-7.242188 8.34375,-7.515625 7.6875,-7.785156 7.085938,-7.820312 6.546875,-7.625 6.003906,-7.425781 5.601562,-7.019531 5.34375,-6.40625 l -0.15625,0.375 -1.34375,-0.5625 0.125,-0.296875 c 0.101562,-0.226563 0.269531,-0.507813 0.5,-0.84375 0.226562,-0.34375 0.539062,-0.632813 0.9375,-0.875 0.394531,-0.25 0.878906,-0.398437 1.453125,-0.453125 0.570313,-0.0625 1.242187,0.074219 2.015625,0.40625 0.53125,0.21875 0.972656,0.496094 1.328125,0.828125 0.351563,0.324219 0.617187,0.679687 0.796875,1.0625 0.1875,0.386719 0.28125,0.808594 0.28125,1.265625 0,0.449219 -0.105469,0.917969 -0.3125,1.40625 -0.210938,0.480469 -0.449219,0.867188 -0.71875,1.15625 -0.261719,0.292969 -0.585938,0.527344 -0.96875,0.703125 -0.386719,0.179687 -0.851562,0.324219 -1.390625,0.4375 -0.542969,0.105469 -1.1875,0.214844 -1.9375,0.328125 -0.875,0.148438 -1.546875,0.324219 -2.015625,0.53125 -0.46875,0.199219 -0.835938,0.464844 -1.09375,0.796875 l 5.375,2.296875 z m 0,0"
           id="path92" />
      </g>
    </g>
  </g>
  <g
     fill="#ffffff"
     fill-opacity="1"
     id="g98"
     transform="translate(-29.157661,-25.476562)">
    <g
       transform="translate(143.61164,53.92716)"
       id="g97">
      <g
         id="g96">
        <path
           d="M 7.234375,4.3125 0.78125,0.46875 C 1.125,-0.101562 1.492188,-0.550781 1.890625,-0.875 2.296875,-1.195312 2.742188,-1.4375 3.234375,-1.59375 3.722656,-1.75 4.25,-1.84375 4.8125,-1.875 5.375,-1.914062 5.972656,-1.941406 6.609375,-1.953125 c 0.269531,-0.00781 0.5625,-0.019531 0.875,-0.03125 0.3125,-0.00781 0.625,-0.054687 0.9375,-0.140625 0.320313,-0.082031 0.625,-0.21875 0.90625,-0.40625 0.28125,-0.195312 0.53125,-0.476562 0.75,-0.84375 0.363281,-0.601562 0.457031,-1.160156 0.28125,-1.671875 C 10.191406,-5.566406 9.828125,-6 9.265625,-6.34375 8.648438,-6.707031 8.0625,-6.820312 7.5,-6.6875 6.9375,-6.5625 6.484375,-6.210938 6.140625,-5.640625 L 5.921875,-5.296875 4.6875,-6.03125 4.859375,-6.3125 c 0.132813,-0.207031 0.332031,-0.460938 0.59375,-0.765625 0.269531,-0.3125 0.613281,-0.5625 1.03125,-0.75 0.425781,-0.1875 0.929687,-0.269531 1.515625,-0.25 0.582031,0.011719 1.234375,0.234375 1.953125,0.671875 0.488281,0.292969 0.882813,0.621094 1.1875,0.984375 0.3125,0.367187 0.53125,0.757813 0.65625,1.171875 0.132813,0.40625 0.171875,0.839844 0.109375,1.296875 -0.0625,0.449219 -0.230469,0.902344 -0.5,1.359375 -0.273438,0.449219 -0.558594,0.796875 -0.859375,1.046875 -0.292969,0.25 -0.640625,0.4375 -1.046875,0.5625 -0.40625,0.125 -0.886719,0.210937 -1.4375,0.25 -0.554688,0.03125 -1.210938,0.054687 -1.96875,0.0625 -0.898438,0.03125 -1.589844,0.121094 -2.078125,0.265625 -0.492187,0.136719 -0.882813,0.3515625 -1.171875,0.640625 l 5.03125,3 z m 0,0"
           id="path95" />
      </g>
    </g>
  </g>
  <g
     fill="#ffffff"
     fill-opacity="1"
     id="g101"
     transform="translate(-29.157661,-25.476562)">
    <g
       transform="translate(55.897071,151.90007)"
       id="g100">
      <g
         id="g99">
        <path
           d="M 13.28125,0.328125 14.390625,1.90625 8.265625,0.828125 5.90625,8.296875 4.796875,6.75 6.875,0.53125 4.546875,0.109375 1.578125,2.21875 0.75,1.0625 9.40625,-5.09375 10.234375,-3.9375 5.9375,-0.890625 Z m 0,0"
           id="path98" />
      </g>
    </g>
  </g>
  <g
     fill="#ffffff"
     fill-opacity="1"
     id="g104"
     transform="translate(-29.157661,-25.476562)">
    <g
       transform="translate(62.21495,160.6118)"
       id="g103">
      <g
         id="g102">
        <path
           d="m 7.78125,1.703125 c 0.1875,-0.1875 0.367188,-0.40625 0.546875,-0.65625 0.175781,-0.25 0.300781,-0.523437 0.375,-0.8125 C 8.773438,-0.0546875 8.78125,-0.359375 8.71875,-0.671875 8.65625,-0.992188 8.476562,-1.3125 8.1875,-1.625 7.851562,-1.976562 7.515625,-2.207031 7.171875,-2.3125 6.828125,-2.414062 6.5,-2.441406 6.1875,-2.390625 c -0.3125,0.054687 -0.601562,0.15625 -0.859375,0.3125 -0.25,0.15625 -0.464844,0.324219 -0.640625,0.5 z M 7.0625,4.21875 C 6.832031,4.375 6.5625,4.503906 6.25,4.609375 5.9375,4.710938 5.601562,4.753906 5.25,4.734375 4.894531,4.710938 4.519531,4.613281 4.125,4.4375 3.726562,4.257812 3.320312,3.945312 2.90625,3.5 2.46875,3.039062 2.160156,2.59375 1.984375,2.15625 1.804688,1.71875 1.710938,1.300781 1.703125,0.90625 c 0,-0.398438 0.0625,-0.761719 0.1875,-1.09375 0.125,-0.332031 0.269531,-0.628906 0.4375,-0.890625 0.164063,-0.257813 0.332031,-0.476563 0.5,-0.65625 0.175781,-0.1875 0.3125,-0.320313 0.40625,-0.40625 0.125,-0.113281 0.296875,-0.257813 0.515625,-0.4375 0.21875,-0.1875 0.460938,-0.359375 0.734375,-0.515625 0.28125,-0.15625 0.585937,-0.28125 0.921875,-0.375 0.332031,-0.09375 0.6875,-0.125 1.0625,-0.09375 0.382812,0.023438 0.773438,0.125 1.171875,0.3125 0.40625,0.1875 0.8125,0.507812 1.21875,0.953125 0.53125,0.554687 0.851563,1.089844 0.96875,1.609375 0.125,0.523438 0.125,1.003906 0,1.453125 -0.125,0.457031 -0.335937,0.882813 -0.625,1.28125 -0.292969,0.40625 -0.585937,0.757813 -0.875,1.0625 -0.03125,0.03125 -0.074219,0.070313 -0.125,0.125 C 8.160156,3.285156 8.117188,3.332031 8.078125,3.375 L 4,-0.9375 c -0.242188,0.230469 -0.453125,0.496094 -0.640625,0.796875 -0.1875,0.300781 -0.320313,0.613281 -0.390625,0.9375 -0.074219,0.332031 -0.070312,0.675781 0.015625,1.03125 0.082031,0.351563 0.273437,0.6875 0.578125,1 0.21875,0.226563 0.441406,0.40625 0.671875,0.53125 0.226563,0.132813 0.457031,0.210937 0.6875,0.234375 C 5.160156,3.625 5.382812,3.609375 5.59375,3.546875 5.800781,3.492188 6,3.410156 6.1875,3.296875 Z m 0,0"
           id="path101" />
      </g>
    </g>
  </g>
  <g
     fill="#ffffff"
     fill-opacity="1"
     id="g107"
     transform="translate(-29.157661,-25.476562)">
    <g
       transform="translate(68.535631,167.09859)"
       id="g106">
      <g
         id="g105">
        <path
           d="M 8.84375,-6.359375 1.8125,1.609375 0.8125,0.71875 7.84375,-7.25 Z m 0,0"
           id="path104" />
      </g>
    </g>
  </g>
  <g
     fill="#ffffff"
     fill-opacity="1"
     id="g110"
     transform="translate(-29.157661,-25.476562)">
    <g
       transform="translate(71.409181,169.71129)"
       id="g109">
      <g
         id="g108">
        <path
           d="M 9.21875,-2.703125 10.375,-1.84375 3.46875,2.609375 2.234375,1.6875 l 2.34375,-7.875 1.140625,0.859375 -2.078125,6.40625 z m 0,0"
           id="path107" />
      </g>
    </g>
  </g>
  <g
     fill="#ffffff"
     fill-opacity="1"
     id="g113"
     transform="translate(-29.157661,-25.476562)">
    <g
       transform="translate(77.447032,174.13943)"
       id="g112">
      <g
         id="g111">
        <path
           d="m 6.59375,-8.40625 1.125,0.71875 -0.765625,1.1875 -1.125,-0.71875 z m -0.453125,3.1875 -4.125,6.5 -1.125,-0.71875 4.125,-6.5 z m 0,0"
           id="path110" />
      </g>
    </g>
  </g>
  <g
     fill="#ffffff"
     fill-opacity="1"
     id="g116"
     transform="translate(-29.157661,-25.476562)">
    <g
       transform="translate(80.669319,176.30964)"
       id="g115">
      <g
         id="g114">
        <path
           d="m 3.59375,-2.515625 c -0.355469,0.6875 -0.546875,1.273437 -0.578125,1.75 -0.023437,0.480469 0.035156,0.867187 0.171875,1.171875 0.144531,0.3125 0.320312,0.546875 0.53125,0.703125 0.21875,0.164063 0.398438,0.285156 0.546875,0.359375 0.125,0.070312 0.3125,0.144531 0.5625,0.21875 0.257813,0.082031 0.550781,0.085938 0.875,0.015625 C 6.035156,1.640625 6.382812,1.457031 6.75,1.15625 7.125,0.851562 7.488281,0.359375 7.84375,-0.328125 c 0.351562,-0.675781 0.539062,-1.25 0.5625,-1.71875 C 8.4375,-2.523438 8.382812,-2.921875 8.25,-3.234375 8.113281,-3.546875 7.9375,-3.78125 7.71875,-3.9375 7.5,-4.09375 7.328125,-4.207031 7.203125,-4.28125 7.054688,-4.351562 6.859375,-4.429688 6.609375,-4.515625 c -0.25,-0.082031 -0.542969,-0.085937 -0.875,-0.015625 -0.335937,0.074219 -0.6875,0.261719 -1.0625,0.5625 -0.367187,0.292969 -0.726563,0.777344 -1.078125,1.453125 z m -1.25,-0.625 C 2.570312,-3.585938 2.859375,-4 3.203125,-4.375 c 0.351563,-0.382812 0.75,-0.679688 1.1875,-0.890625 0.4375,-0.21875 0.925781,-0.320313 1.46875,-0.3125 C 6.410156,-5.566406 7,-5.40625 7.625,-5.09375 c 0.601562,0.3125 1.066406,0.6875 1.390625,1.125 0.332031,0.4375 0.539063,0.902344 0.625,1.390625 0.09375,0.480469 0.082031,0.976563 -0.03125,1.484375 -0.117187,0.5 -0.289063,0.976562 -0.515625,1.421875 C 8.851562,0.796875 8.5625,1.21875 8.21875,1.59375 7.882812,1.96875 7.492188,2.257812 7.046875,2.46875 6.597656,2.6875 6.097656,2.789062 5.546875,2.78125 5.003906,2.769531 4.429688,2.609375 3.828125,2.296875 c -0.625,-0.3125 -1.105469,-0.6875 -1.4375,-1.125 C 2.066406,0.734375 1.863281,0.273438 1.78125,-0.203125 1.707031,-0.691406 1.722656,-1.1875 1.828125,-1.6875 c 0.101563,-0.5 0.273437,-0.984375 0.515625,-1.453125 z m 0,0"
           id="path113" />
      </g>
    </g>
  </g>
  <g
     fill="#ffffff"
     fill-opacity="1"
     id="g119"
     transform="translate(-29.157661,-25.476562)">
    <g
       transform="translate(89.134838,180.60476)"
       id="g118">
      <g
         id="g117">
        <path
           d="m 4.875,-6.4375 -0.359375,1.015625 c 0.382813,-0.269531 0.828125,-0.457031 1.328125,-0.5625 0.507812,-0.101563 1.050781,-0.054687 1.625,0.140625 0.476562,0.179688 0.84375,0.398438 1.09375,0.65625 0.257812,0.25 0.429688,0.53125 0.515625,0.84375 0.09375,0.3125 0.113281,0.648438 0.0625,1 -0.042969,0.355469 -0.125,0.714844 -0.25,1.078125 L 7.15625,2.5625 5.890625,2.109375 l 1.59375,-4.4375 C 7.546875,-2.515625 7.617188,-2.738281 7.703125,-3 7.785156,-3.269531 7.820312,-3.53125 7.8125,-3.78125 c 0,-0.257812 -0.085938,-0.503906 -0.25,-0.734375 C 7.40625,-4.742188 7.132812,-4.929688 6.75,-5.078125 6.582031,-5.140625 6.367188,-5.1875 6.109375,-5.21875 5.847656,-5.25 5.570312,-5.207031 5.28125,-5.09375 5,-4.988281 4.71875,-4.785156 4.4375,-4.484375 4.15625,-4.191406 3.910156,-3.742188 3.703125,-3.140625 L 2.28125,0.8125 1.03125,0.375 3.625,-6.875 Z m 0,0"
           id="path116" />
      </g>
    </g>
  </g>
  <g
     fill="#ffffff"
     fill-opacity="1"
     id="g122"
     transform="translate(-29.157661,-25.476562)">
    <g
       transform="translate(97.750507,183.54888)"
       id="g121">
      <g
         id="g120" />
    </g>
  </g>
  <g
     fill="#ffffff"
     fill-opacity="1"
     id="g125"
     transform="translate(-29.157661,-25.476562)">
    <g
       transform="translate(101.58217,184.6751)"
       id="g124">
      <g
         id="g123">
        <path
           d="m 3.53125,-4.953125 2.578125,0.40625 C 6.941406,-4.421875 7.570312,-4.5 8,-4.78125 8.4375,-5.070312 8.710938,-5.5625 8.828125,-6.25 8.929688,-6.894531 8.804688,-7.394531 8.453125,-7.75 8.097656,-8.113281 7.519531,-8.359375 6.71875,-8.484375 L 4.140625,-8.890625 Z M 7.1875,-9.625 c 0.539062,0.085938 1.019531,0.21875 1.4375,0.40625 0.414062,0.179688 0.757812,0.40625 1.03125,0.6875 0.269531,0.28125 0.457031,0.632812 0.5625,1.046875 0.113281,0.40625 0.128906,0.882813 0.04687,1.421875 -0.07422,0.492188 -0.210937,0.929688 -0.40625,1.3125 -0.199219,0.386719 -0.464844,0.703125 -0.796875,0.953125 -0.324219,0.25 -0.734375,0.417969 -1.234375,0.5 -0.492187,0.085937 -1.074219,0.070313 -1.75,-0.046875 l -2.73437,-0.421875 -0.65625,4.1875 -1.40625,-0.21875 1.640625,-10.5 z m 0,0"
           id="path122" />
      </g>
    </g>
  </g>
  <g
     fill="#ffffff"
     fill-opacity="1"
     id="g128"
     transform="translate(-29.157661,-25.476562)">
    <g
       transform="translate(111.8619,186.27536)"
       id="g127">
      <g
         id="g126">
        <path
           d="M 2.71875,0.015625 1.296875,0 1.34375,-10.625 2.765625,-10.60937 2.75,-6.17187 l 5.34375,0.015625 0.015625,-4.4375 H 9.53125 L 9.484375,0.03125 H 8.0625 L 8.078125,-4.953125 2.734375,-4.96875 Z m 0,0"
           id="path125" />
      </g>
    </g>
  </g>
  <g
     fill="#ffffff"
     fill-opacity="1"
     id="g131"
     transform="translate(-29.157661,-25.476562)">
    <g
       transform="translate(123.32122,186.21554)"
       id="g130">
      <g
         id="g129">
        <path
           d="m 7.3125,-7.203125 0.171875,1.171875 -5.5,0.796875 0.53125,3.65625 6.25,-0.90625 0.171875,1.1875 L 1.28125,-0.1875 -0.25,-10.703125 l 7.484375,-1.09375 0.171875,1.1875 -6.078125,0.890625 0.484375,3.3125 z m 0,0"
           id="path128" />
      </g>
    </g>
  </g>
  <g
     fill="#ffffff"
     fill-opacity="1"
     id="g134"
     transform="translate(-29.157661,-25.476562)">
    <g
       transform="translate(132.91234,184.66198)"
       id="g133">
      <g
         id="g132" />
    </g>
  </g>
  <g
     fill="#ffffff"
     fill-opacity="1"
     id="g137"
     transform="translate(-29.157661,-25.476562)">
    <g
       transform="translate(136.88904,183.87879)"
       id="g136">
      <g
         id="g135">
        <path
           d="M 7.828125,-8.734375 9.71875,-3.53125 8.671875,-3.15625 8.078125,-4.765625 8.0625,-4.75 c -0.074219,0.699219 -0.335938,1.320312 -0.78125,1.859375 -0.4375,0.542969 -1.054688,0.960937 -1.84375,1.25 C 4.84375,-1.421875 4.226562,-1.300781 3.59375,-1.28125 2.96875,-1.257812 2.359375,-1.378906 1.765625,-1.640625 1.171875,-1.910156 0.613281,-2.34375 0.09375,-2.9375 c -0.507812,-0.59375 -0.945312,-1.390625 -1.3125,-2.390625 -0.300781,-0.84375 -0.453125,-1.628906 -0.453125,-2.359375 -0.00781,-0.726562 0.121094,-1.390625 0.390625,-1.984375 0.273438,-0.59375 0.667969,-1.109375 1.1875,-1.546875 0.507812,-0.445312 1.132812,-0.800781 1.875,-1.0625 0.664062,-0.25 1.273438,-0.367188 1.828125,-0.359375 0.5625,0.01172 1.0625,0.109375 1.5,0.296875 0.4375,0.179688 0.816406,0.433594 1.140625,0.765625 0.320312,0.324219 0.582031,0.679687 0.78125,1.0625 l -1.359375,0.484375 c -0.105469,-0.21875 -0.25,-0.4375 -0.4375,-0.65625 -0.179687,-0.21875 -0.40625,-0.390625 -0.6875,-0.515625 -0.28125,-0.125 -0.625,-0.191406 -1.03125,-0.203125 -0.398437,-0.0078 -0.851563,0.07813 -1.359375,0.265625 -0.523438,0.199219 -0.945312,0.445313 -1.265625,0.734375 -0.3125,0.28125 -0.554687,0.589844 -0.71875,0.921875 -0.16796875,0.335937 -0.2695312,0.683594 -0.3125,1.046875 -0.039063,0.355469 -0.039063,0.699219 0,1.03125 0.03125,0.324219 0.0859375,0.632812 0.15625,0.921875 0.0820312,0.28125 0.15625,0.511719 0.21875,0.6875 0.050781,0.125 0.128906,0.3125 0.234375,0.5625 0.113281,0.242187 0.257812,0.5 0.4375,0.78125 0.1875,0.28125 0.414062,0.5625 0.6875,0.84375 0.269531,0.28125 0.582031,0.515625 0.9375,0.703125 0.351562,0.179688 0.75,0.289062 1.1875,0.328125 0.4375,0.03125 0.925781,-0.046875 1.46875,-0.234375 0.613281,-0.226562 1.070312,-0.523438 1.375,-0.890625 0.3125,-0.363281 0.515625,-0.75 0.609375,-1.15625 C 7.273438,-5.273438 7.300781,-5.6875 7.25,-6.09375 7.207031,-6.507812 7.128906,-6.867188 7.015625,-7.171875 l -2.84375,1.03125 -0.40625,-1.125 z m 0,0"
           id="path134" />
      </g>
    </g>
  </g>
  <g
     fill="#ffffff"
     fill-opacity="1"
     id="g140"
     transform="translate(-29.157661,-25.476562)">
    <g
       transform="translate(148.25322,179.76158)"
       id="g139">
      <g
         id="g138">
        <path
           d="m -1.796875,-7.859375 0.53125,0.890625 0.03125,0.09375 c -0.019531,-0.25 -0.00391,-0.492188 0.046875,-0.734375 0.054688,-0.25 0.140625,-0.476563 0.265625,-0.6875 0.117187,-0.207031 0.261719,-0.40625 0.4375,-0.59375 0.179687,-0.1875 0.371094,-0.335937 0.578125,-0.453125 0.289062,-0.164062 0.566406,-0.269531 0.828125,-0.3125 0.257813,-0.039062 0.503906,-0.035156 0.734375,0.015625 0.226562,0.042969 0.441406,0.121094 0.640625,0.234375 0.207031,0.105469 0.382813,0.234375 0.53125,0.390625 C 2.804688,-9.171875 2.8125,-9.367188 2.84375,-9.609375 2.875,-9.847656 2.929688,-10.09375 3.015625,-10.34375 c 0.09375,-0.257812 0.238281,-0.515625 0.4375,-0.765625 0.207031,-0.257813 0.488281,-0.492187 0.84375,-0.703125 0.5,-0.289062 0.953125,-0.414062 1.359375,-0.375 0.414062,0.04297 0.769531,0.164062 1.0625,0.359375 0.300781,0.199219 0.554688,0.433594 0.765625,0.703125 0.207031,0.273438 0.363281,0.507812 0.46875,0.703125 l 2.515625,4.28125 -1.15625,0.6875 -2.46875,-4.21875 c -0.105469,-0.164063 -0.234375,-0.351563 -0.390625,-0.5625 -0.148437,-0.21875 -0.320313,-0.394531 -0.515625,-0.53125 -0.1875,-0.132813 -0.40625,-0.21875 -0.65625,-0.25 -0.242188,-0.03125 -0.511719,0.04297 -0.8125,0.21875 -0.1875,0.105469 -0.371094,0.25 -0.546875,0.4375 -0.179687,0.179687 -0.308594,0.398437 -0.390625,0.65625 -0.074219,0.261719 -0.085938,0.5625 -0.03125,0.90625 0.050781,0.335937 0.203125,0.714844 0.453125,1.140625 L 6.28125,-3.6875 5.140625,-3.015625 2.671875,-7.21875 C 2.535156,-7.46875 2.378906,-7.691406 2.203125,-7.890625 2.035156,-8.097656 1.851562,-8.253906 1.65625,-8.359375 1.457031,-8.472656 1.242188,-8.535156 1.015625,-8.546875 0.796875,-8.566406 0.550781,-8.5 0.28125,-8.34375 c -0.2421875,0.136719 -0.429688,0.320312 -0.578125,0.546875 -0.15625,0.21875 -0.257813,0.46875 -0.3125,0.75 -0.0625,0.273437 -0.0625,0.570313 0,0.890625 0.0625,0.324219 0.1875,0.648438 0.375,0.96875 L 2.09375,-1.21875 0.9375,-0.546875 -2.953125,-7.1875 Z m 0,0"
           id="path137" />
      </g>
    </g>
  </g>
  <g
     fill="#ffffff"
     fill-opacity="1"
     id="g143"
     transform="translate(-29.157661,-25.476562)">
    <g
       transform="translate(160.20746,172.48983)"
       id="g142">
      <g
         id="g141">
        <path
           d="m -0.703125,-4.5 c 0.398437,0.46875 0.7695312,0.824219 1.125,1.0625 0.363281,0.230469 0.710937,0.375 1.046875,0.4375 0.34375,0.054688 0.65625,0.039062 0.9375,-0.046875 0.28125,-0.082031 0.53125,-0.21875 0.75,-0.40625 0.238281,-0.195313 0.4375,-0.4375 0.59375,-0.71875 C 3.90625,-4.453125 3.984375,-4.757812 3.984375,-5.09375 3.992188,-5.425781 3.914062,-5.796875 3.75,-6.203125 3.59375,-6.609375 3.320312,-7.039062 2.9375,-7.5 2.570312,-7.945312 2.207031,-8.285156 1.84375,-8.515625 1.488281,-8.742188 1.144531,-8.882812 0.8125,-8.9375 0.488281,-8.988281 0.179688,-8.96875 -0.109375,-8.875 c -0.289063,0.085938 -0.554687,0.230469 -0.796875,0.4375 -0.25,0.199219 -0.441406,0.4375 -0.578125,0.71875 -0.144531,0.28125 -0.21875,0.589844 -0.21875,0.921875 -0.00781,0.324219 0.070313,0.683594 0.234375,1.078125 0.15625,0.386719 0.414062,0.792969 0.765625,1.21875 z m -4.25,-5.203125 2.515625,3.015625 c -0.125,-0.5 -0.078125,-0.972656 0.140625,-1.421875 0.21875,-0.457031 0.542969,-0.867187 0.96875,-1.234375 0.429687,-0.351562 0.84375,-0.59375 1.25,-0.71875 0.394531,-0.125 0.773437,-0.164062 1.140625,-0.125 0.363281,0.03125 0.703125,0.121094 1.015625,0.265625 0.3125,0.136719 0.59375,0.296875 0.84375,0.484375 0.257813,0.1875 0.484375,0.382812 0.671875,0.578125 0.1875,0.1875 0.328125,0.34375 0.421875,0.46875 0.539063,0.648437 0.894531,1.257813 1.0625,1.828125 0.175781,0.5625 0.222656,1.074219 0.140625,1.53125 -0.085938,0.460938 -0.246094,0.871094 -0.484375,1.234375 -0.230469,0.355469 -0.480469,0.648437 -0.75,0.875 -0.25,0.199219 -0.5,0.355469 -0.75,0.46875 -0.25,0.105469 -0.496094,0.179687 -0.734375,0.21875 -0.230469,0.03125 -0.460938,0.042969 -0.6875,0.03125 -0.230469,-0.019531 -0.453125,-0.0625 -0.671875,-0.125 l -0.03125,0.015625 0.6875,0.8125 -0.953125,0.796875 -6.8125,-8.15625 z m 0,0"
           id="path140" />
      </g>
    </g>
  </g>
  <g
     fill="#ffffff"
     fill-opacity="1"
     id="g146"
     transform="translate(-29.157661,-25.476562)">
    <g
       transform="translate(167.74387,166.21263)"
       id="g145">
      <g
         id="g144">
        <path
           d="m 1.8125,-2.03125 -0.953125,1.0625 -7.9375,-7.078125 0.953125,-1.0625 3.3125,2.953125 3.546875,-3.984375 -3.3125,-2.953125 0.953125,-1.0625 7.9375,7.078125 -0.953125,1.0625 -3.71875,-3.3125 -3.546875,3.984375 z m 0,0"
           id="path143" />
      </g>
    </g>
  </g>
  <g
     fill="#ffffff"
     fill-opacity="1"
     id="g149"
     transform="translate(-29.157661,-25.476562)">
    <g
       transform="translate(175.06945,157.67323)"
       id="g148">
      <g
         id="g147" />
    </g>
  </g>
  <g
     fill="#ffffff"
     fill-opacity="1"
     id="g152"
     transform="translate(-29.157661,-25.476562)">
    <g
       transform="translate(177.26385,154.60317)"
       id="g151">
      <g
         id="g150" />
    </g>
  </g>
</svg>
