<?xml version="1.0" encoding="utf-8"?>
<!-- Generator: Adobe Illustrator 26.1.0, SVG Export Plug-In . SVG Version: 6.00 Build 0)  -->
<svg version="1.1" xmlns="http://www.w3.org/2000/svg" xmlns:xlink="http://www.w3.org/1999/xlink" x="0px" y="0px"
	 viewBox="0 0 850.4 907.1" enable-background="new 0 0 850.4 907.1" xml:space="preserve">
<g id="Ebene_1">
</g>
<g id="Layer_1">
	<g>
		<g>
			
				<path fill="none" stroke="#ffffff" stroke-width="25.5118" stroke-linecap="round" stroke-linejoin="round" stroke-miterlimit="10" d="
				M366.3,532.8l196.4,113.4C630.3,605,702.7,545.6,750.4,463c82.2-142.4,68-314.2,54.3-396.7c-4.4-26.7-32-42.6-57.4-33.1
				c-78.3,29.4-234.1,103-316.3,245.4C383.3,361.2,368,453.5,366.3,532.8z"/>
			
				<path fill="none" stroke="#ffffff" stroke-width="25.5118" stroke-linecap="round" stroke-linejoin="round" stroke-miterlimit="10" d="
				M418.9,301.1c-13.9,2.7-28,6.8-41.6,12.8c-91,40-132.1,146.9-132.1,146.9s57.7,22.7,124.3,18.8"/>
			
				<path fill="none" stroke="#ffffff" stroke-width="25.5118" stroke-linecap="round" stroke-linejoin="round" stroke-miterlimit="10" d="
				M606.9,616.7c30,59.7,78.5,98.2,78.5,98.2s72-89,61.1-187.8c-1.6-14.8-5.1-29-9.7-42.5"/>
			
				<line fill="none" stroke="#ffffff" stroke-width="25.5118" stroke-linecap="round" stroke-linejoin="round" stroke-miterlimit="10" x1="647.9" y1="78.8" x2="730.3" y2="126.3"/>
			<g>
				
					<line fill="none" stroke="#ffffff" stroke-width="25.5118" stroke-linecap="round" stroke-linejoin="round" stroke-miterlimit="10" x1="408.3" y1="686.5" x2="342.8" y2="800"/>
				
					<line fill="none" stroke="#ffffff" stroke-width="25.5118" stroke-linecap="round" stroke-linejoin="round" stroke-miterlimit="10" x1="258.6" y1="784.1" x2="221.2" y2="849"/>
				
					<line fill="none" stroke="#ffffff" stroke-width="25.5118" stroke-linecap="round" stroke-linejoin="round" stroke-miterlimit="10" x1="338.3" y1="646.1" x2="284" y2="740.2"/>
				
					<line fill="none" stroke="#ffffff" stroke-width="25.5118" stroke-linecap="round" stroke-linejoin="round" stroke-miterlimit="10" x1="478.2" y1="726.9" x2="448.1" y2="779"/>
			</g>
			
				<path fill="none" stroke="#ffffff" stroke-width="25.5118" stroke-linecap="round" stroke-linejoin="round" stroke-miterlimit="10" d="
				M201.7,617.5c-2.8-15.1-0.5-31.2,7.8-45.6c18.4-31.9,59.2-42.8,91.1-24.4"/>
			
				<path fill="none" stroke="#ffffff" stroke-width="25.5118" stroke-linecap="round" stroke-linejoin="round" stroke-miterlimit="10" d="
				M105.5,581.5c18.4-31.9,59.2-42.8,91.1-24.4c5.6,3.2,10.6,7.2,14.9,11.7"/>
			
				<path fill="none" stroke="#ffffff" stroke-width="25.5118" stroke-linecap="round" stroke-linejoin="round" stroke-miterlimit="10" d="
				M29,518.7c31.3-19.3,72.4-9.6,91.8,21.8c3.4,5.5,5.9,11.5,7.6,17.4"/>
			
				<path fill="none" stroke="#ffffff" stroke-width="25.5118" stroke-linecap="round" stroke-linejoin="round" stroke-miterlimit="10" d="
				M607,801.5c18.4-31.9,7.5-72.7-24.4-91.1"/>
			
				<line fill="none" stroke="#ffffff" stroke-width="25.5118" stroke-linecap="round" stroke-linejoin="round" stroke-miterlimit="10" x1="367.1" y1="598.4" x2="510.8" y2="681.3"/>
		</g>
		
			<circle fill="none" stroke="#ffffff" stroke-width="25.5118" stroke-linecap="round" stroke-linejoin="round" stroke-miterlimit="10" cx="611" cy="338.3" r="84.5"/>
	</g>
</g>
</svg>
