<?xml version="1.0" encoding="utf-8"?>
<!-- Generator: Adobe Illustrator 24.0.1, SVG Export Plug-In . SVG Version: 6.00 Build 0)  -->
<svg version="1.1" xmlns="http://www.w3.org/2000/svg" xmlns:xlink="http://www.w3.org/1999/xlink" x="0px" y="0px"
	 viewBox="0 0 113.39 113.39" style="enable-background:new 0 0 113.39 113.39;" xml:space="preserve">
<style type="text/css">
	.st0{fill:#88BE31;}
</style>
<g id="Ebene_1">
</g>
<g id="Piktogramm">
	<path class="st0" d="M70.35,28.37V85.4H41.69V28.37H70.35 M71.47,20.87h-30.9c-3.51,0-6.38,2.87-6.38,6.38v59.28
		c0,3.51,2.87,6.38,6.38,6.38h30.9c3.51,0,6.38-2.87,6.38-6.38V27.24C77.85,23.74,74.98,20.87,71.47,20.87L71.47,20.87z"/>
	<g>
		<rect x="43.93" y="55.74" class="st0" width="5.21" height="5.21"/>
		<rect x="50.25" y="55.74" class="st0" width="5.21" height="5.21"/>
		<rect x="56.58" y="55.74" class="st0" width="5.21" height="5.21"/>
		<rect x="62.9" y="55.74" class="st0" width="5.21" height="5.21"/>
	</g>
	<g>
		<rect x="43.93" y="62.25" class="st0" width="5.21" height="5.21"/>
		<rect x="50.25" y="62.25" class="st0" width="5.21" height="5.21"/>
		<rect x="56.58" y="62.25" class="st0" width="5.21" height="5.21"/>
		<rect x="62.9" y="62.25" class="st0" width="5.21" height="5.21"/>
	</g>
	<g>
		<rect x="43.93" y="68.75" class="st0" width="5.21" height="5.21"/>
		<rect x="50.25" y="68.75" class="st0" width="5.21" height="5.21"/>
		<rect x="56.58" y="68.75" class="st0" width="5.21" height="5.21"/>
		<rect x="62.9" y="68.75" class="st0" width="5.21" height="5.21"/>
	</g>
	<g>
		<rect x="43.93" y="75.26" class="st0" width="5.21" height="5.21"/>
		<rect x="50.25" y="75.26" class="st0" width="5.21" height="5.21"/>
		<rect x="56.58" y="75.26" class="st0" width="5.21" height="5.21"/>
		<rect x="62.9" y="75.26" class="st0" width="5.21" height="5.21"/>
	</g>
	<g>
		<path class="st0" d="M63.82,47.24h-0.18c-2.5,0-3.78-1.4-3.78-4.05v-2.88c0-2.65,1.28-4.05,3.78-4.05h0.18
			c2.5,0,3.78,1.4,3.78,4.05v2.88C67.6,45.84,66.32,47.24,63.82,47.24z M65.17,40.4c0-1.28-0.38-1.89-1.35-1.89h-0.18
			c-0.97,0-1.35,0.61-1.35,1.89v2.7c0,1.28,0.38,1.89,1.35,1.89h0.18c0.97,0,1.35-0.61,1.35-1.89V40.4z"/>
	</g>
</g>
<g id="_1">
</g>
</svg>
