<?xml version="1.0" encoding="utf-8"?>
<!-- Generator: Adobe Illustrator 24.0.1, SVG Export Plug-In . SVG Version: 6.00 Build 0)  -->
<svg version="1.1" xmlns="http://www.w3.org/2000/svg" xmlns:xlink="http://www.w3.org/1999/xlink" x="0px" y="0px"
	 viewBox="0 0 113.39 113.39" style="enable-background:new 0 0 113.39 113.39;" xml:space="preserve">
<style type="text/css">
	.st0{fill:#04BBEE;}
</style>
<g id="Ebene_1">
</g>
<g id="_1">
	<path class="st0" d="M96.34,35.17c-2.07,0-3.75,1.68-3.75,3.75v7.06H79.51c-1.64,0-3.1,1.07-3.58,2.64L67.52,75.8L45.25,24.52
		c-0.58-1.34-1.89-2.22-3.36-2.26c-1.48-0.04-2.81,0.79-3.45,2.11L27.9,45.98h-6.64v-7.06c0-2.07-1.68-3.75-3.75-3.75
		s-3.75,1.68-3.75,3.75v21.62c0,2.07,1.68,3.75,3.75,3.75s3.75-1.68,3.75-3.75v-7.06h8.99c1.43,0,2.74-0.82,3.37-2.11l8-16.4
		l23.06,53.09c0.6,1.38,1.95,2.26,3.44,2.26c0.07,0,0.14,0,0.21-0.01c1.57-0.09,2.91-1.14,3.38-2.64l10.58-34.2h10.31v7.06
		c0,2.07,1.68,3.75,3.75,3.75s3.75-1.68,3.75-3.75V38.92C100.09,36.85,98.41,35.17,96.34,35.17z"/>
</g>
</svg>
