<?xml version="1.0" encoding="UTF-8"?>
<!DOCTYPE svg PUBLIC "-//W3C//DTD SVG 1.1//EN" "http://www.w3.org/Graphics/SVG/1.1/DTD/svg11.dtd">
<svg version="1.1" id="Layer_1" xmlns="http://www.w3.org/2000/svg" xmlns:xlink="http://www.w3.org/1999/xlink" x="0px" y="0px" width="80px" height="80px" viewBox="0 0 32 32" enable-background="new 0 0 32 32" xml:space="preserve">
  <g id="icon">
    <g>
      <path d="M27,10H11.5V8h15.5c1.654,0,3,-1.346,3,-3s-1.346,-3,-3,-3H10.823c-0.357,-0.75,-0.844,-1.426,-1.431,-2L27,0c2.757,0,5,2.243,5,5S29.757,10,27,10z" fill="#00AEEF"/>
      <circle cx="26" cy="5" r="2" fill="#00AEEF"/>
      <circle cx="26" cy="17" r="2" fill="#00AEEF"/>
      <path d="M11.5,20h15.5c1.654,0,3,-1.346,3,-3s-1.346,-3,-3,-3H11.5v-2h15.5c2.757,0,5,2.243,5,5s-2.243,5,-5,5H11.5V20z" fill="#00AEEF"/>
    </g>
    <path d="M0,5l0,22c0,2.757,2.243,5,5,5s5,-2.243,5,-5V5c0,-2.757,-2.243,-5,-5,-5S0,2.243,0,5zM2,5c0,-1.654,1.346,-3,3,-3s3,1.346,3,3v22c0,1.654,-1.346,3,-3,3s-3,-1.346,-3,-3V5zM5,15c1.105,0,2,0.895,2,2c0,1.105,-0.895,2,-2,2s-2,-0.895,-2,-2C3,15.895,3.895,15,5,15zM5,4c1.105,0,2,0.895,2,2c0,1.105,-0.895,2,-2,2s-2,-0.895,-2,-2C3,4.895,3.895,4,5,4z" fill="#00AEEF"/>
  </g>
</svg>
