<?xml version="1.0" encoding="utf-8"?>
<!-- Generator: Adobe Illustrator 24.0.1, SVG Export Plug-In . SVG Version: 6.00 Build 0)  -->
<svg version="1.1" xmlns="http://www.w3.org/2000/svg" xmlns:xlink="http://www.w3.org/1999/xlink" x="0px" y="0px"
	 viewBox="0 0 113.39 113.39" style="enable-background:new 0 0 113.39 113.39;" xml:space="preserve">
<style type="text/css">
	.st0{fill:#FFFFFF;}
	.st1{fill:#04BBEE;}
</style>
<g id="Ebene_1">
</g>
<g id="Piktogramm">
</g>
<g id="_1">
	<g>
		
			<ellipse transform="matrix(0.9214 -0.3885 0.3885 0.9214 -17.6478 26.4886)" class="st0" cx="56.67" cy="56.88" rx="37.23" ry="37.23"/>
		<path class="st1" d="M56.67,97.86c-22.6,0-40.98-18.38-40.98-40.98S34.08,15.9,56.67,15.9c22.6,0,40.98,18.38,40.98,40.98
			S79.27,97.86,56.67,97.86z M56.67,23.4c-18.46,0-33.48,15.02-33.48,33.48s15.02,33.48,33.48,33.48s33.48-15.02,33.48-33.48
			S75.13,23.4,56.67,23.4z"/>
	</g>
	<path class="st1" d="M97.65,56.88c0-7.47-7.55-12.88-17.87-16.03C76.05,26.06,67.22,15.9,56.67,15.9
		c-10.55,0-19.37,10.16-23.12,24.95C23.24,44,15.69,49.41,15.69,56.88s7.55,12.88,17.86,16.03C37.3,87.7,46.13,97.86,56.67,97.86
		c10.55,0,19.37-10.16,23.12-24.95C90.1,69.76,97.65,64.35,97.65,56.88z M71.36,38.88c-3.55-0.61-7.24-1-10.94-1.16v-13.5
		C64.94,26.18,68.87,31.6,71.36,38.88z M74.21,56.88c0,3.46-0.29,6.83-0.83,10c-3.79,0.85-8.13,1.46-12.95,1.66V45.22
		c4.83,0.21,9.16,0.81,12.95,1.66C73.91,50.06,74.21,53.42,74.21,56.88z M39.13,56.88c0-3.46,0.29-6.83,0.83-10
		c3.79-0.85,8.13-1.46,12.95-1.66v23.32c-4.83-0.21-9.16-0.81-12.95-1.66C39.43,63.71,39.13,60.35,39.13,56.88z M52.92,24.22v13.5
		c-3.7,0.16-7.39,0.55-10.94,1.16C44.48,31.6,48.4,26.18,52.92,24.22z M23.19,56.88c0-2.36,3.2-5.24,8.86-7.56
		c-0.27,2.45-0.42,4.97-0.42,7.56s0.15,5.11,0.42,7.56C26.39,62.12,23.19,59.24,23.19,56.88z M41.99,74.89
		c3.55,0.61,7.24,1,10.94,1.16v13.5C48.4,87.58,44.48,82.16,41.99,74.89z M60.42,89.55v-13.5c3.7-0.16,7.39-0.55,10.94-1.16
		C68.87,82.16,64.94,87.58,60.42,89.55z M81.29,64.44c0.27-2.45,0.42-4.97,0.42-7.56s-0.15-5.12-0.42-7.56
		c5.66,2.32,8.86,5.2,8.86,7.56S86.96,62.12,81.29,64.44z"/>
</g>
</svg>
