<?xml version="1.0" encoding="utf-8"?>
<!-- Generator: Adobe Illustrator 26.1.0, SVG Export Plug-In . SVG Version: 6.00 Build 0)  -->
<svg version="1.1" xmlns="http://www.w3.org/2000/svg" xmlns:xlink="http://www.w3.org/1999/xlink" x="0px" y="0px"
	 viewBox="0 0 1012.4 907.1" enable-background="new 0 0 1012.4 907.1" xml:space="preserve">
<g id="Ebene_1">
</g>
<g id="Layer_1">
	<g>
		<g>
			
				<polyline fill="none" stroke="#ffffff" stroke-width="25.5118" stroke-linecap="round" stroke-linejoin="round" stroke-miterlimit="10" points="
				659.4,367.3 505.9,432.5 32.5,231.4 505.9,30.4 979.3,231.4 708.5,346.4 			"/>
			
				<path fill="none" stroke="#ffffff" stroke-width="25.5118" stroke-linecap="round" stroke-linejoin="round" stroke-miterlimit="10" d="
				M756.9,325.9v180c0,35.4-97.5,64.4-222.8,68.4c-19,0.6-37.8,0.6-56.3,0c-125.4-4.1-222.8-33-222.8-68.4v-180"/>
			
				<polyline fill="none" stroke="#ffffff" stroke-width="25.5118" stroke-linecap="round" stroke-linejoin="round" stroke-miterlimit="10" points="
				129.5,428.6 129.5,272.7 352.3,182.1 			"/>
			
				<path fill="none" stroke="#ffffff" stroke-width="25.5118" stroke-linecap="round" stroke-linejoin="round" stroke-miterlimit="10" d="
				M189.7,547.8H69.4c12.7-45.8,32.7-85.5,60.2-119.2C159.5,465.5,180.3,505,189.7,547.8z"/>
			
				<line fill="none" stroke="#ffffff" stroke-width="25.5118" stroke-linecap="round" stroke-linejoin="round" stroke-miterlimit="10" x1="303.4" y1="390.1" x2="303.4" y2="438"/>
			
				<line fill="none" stroke="#ffffff" stroke-width="25.5118" stroke-linecap="round" stroke-linejoin="round" stroke-miterlimit="10" x1="303.4" y1="484.7" x2="303.4" y2="484.7"/>
		</g>
		<g>
			<g>
				
					<polyline fill="none" stroke="#ffffff" stroke-width="25.5118" stroke-linecap="round" stroke-linejoin="round" stroke-miterlimit="10" points="
					702.6,548.6 702.6,605 751.5,640.8 689.8,747.6 634.3,723.2 574.2,757.9 567.7,818.1 444.3,818.1 437.7,757.9 377.6,723.2 
					322.2,747.7 260.5,640.8 309.3,605 309.3,585.7 				"/>
				
					<path fill="none" stroke="#ffffff" stroke-width="25.5118" stroke-linecap="round" stroke-linejoin="round" stroke-miterlimit="10" d="
					M616.4,570.3c0,61-49.4,110.4-110.4,110.4c-49.7,0-91.8-32.9-105.6-78.1"/>
			</g>
			
				<path fill="none" stroke="#ffffff" stroke-width="25.5118" stroke-linecap="round" stroke-linejoin="round" stroke-miterlimit="10" d="
				M822.5,692.7c-17.4,45.2-44.7,86.9-81.1,121.5"/>
			
				<path fill="none" stroke="#ffffff" stroke-width="25.5118" stroke-linecap="round" stroke-linejoin="round" stroke-miterlimit="10" d="
				M843.6,603.1c-0.5,5.5-1.2,11-2,16.5"/>
		</g>
	</g>
</g>
</svg>
