<?xml version="1.0" encoding="utf-8"?>
<!-- Generator: Adobe Illustrator 24.0.1, SVG Export Plug-In . SVG Version: 6.00 Build 0)  -->
<svg version="1.1" xmlns="http://www.w3.org/2000/svg" xmlns:xlink="http://www.w3.org/1999/xlink" x="0px" y="0px"
	 viewBox="0 0 113.39 113.39" style="enable-background:new 0 0 113.39 113.39;" xml:space="preserve">
<style type="text/css">
	.st0{fill:#04BBEE;}
</style>
<g id="Ebene_1">
</g>
<g id="Piktogramm">
</g>
<g id="_1">
	<path class="st0" d="M106.27,48.42c-0.28-0.43-0.75-0.7-1.27-0.7H93.37c0.86-4.58,0.67-8.47-1.17-11.35
		c-1.9-2.97-5.31-4.48-10.12-4.48c-10.05,0-19.62,6.74-28.12,15.83h-5.63c-0.83,0-1.5,0.67-1.5,1.5v6.92
		c-7.5,9.68-13.84,20.35-18.48,28.16l-0.22,0.37h-9.79v-61c0-2.07-1.68-3.75-3.75-3.75s-3.75,1.68-3.75,3.75v68.5h74.43
		c2.07,0,3.75-1.68,3.75-3.75s-1.68-3.75-3.75-3.75h-6.79c1.31-3.01,2.77-6.18,4.3-9.48c0.03-0.06,0.06-0.12,0.08-0.18h10.71
		c0.58,0,1.11-0.34,1.36-0.86l7.82-16.62l1.38,4.61c0.1,0.33,0.4,0.54,0.72,0.54c0.07,0,0.14-0.01,0.22-0.03
		c0.4-0.12,0.62-0.54,0.5-0.93l-1.86-6.22l2.66-5.64C106.58,49.4,106.54,48.85,106.27,48.42z M82.08,36.4c3.23,0,5.3,0.79,6.33,2.4
		c1.24,1.94,1.19,5.1,0.34,8.92H69.2l3.69-2.88c0.33-0.25,0.39-0.73,0.13-1.05c-0.25-0.33-0.73-0.38-1.05-0.13l-5.2,4.06h-6.58
		C67.09,41.02,74.54,36.4,82.08,36.4z M74.9,72.02l-5.2-4.06c-0.33-0.25-0.8-0.2-1.05,0.13c-0.26,0.33-0.2,0.8,0.13,1.05l3.69,2.88
		H49.83v-2.39l4.06-5.2c0.26-0.33,0.2-0.8-0.13-1.05c-0.32-0.25-0.8-0.2-1.05,0.13l-2.88,3.69v-7.61c2.37-3.11,4.85-6.11,7.41-8.86
		h9.51l5.2,4.06c0.14,0.11,0.3,0.16,0.46,0.16c0.22,0,0.44-0.1,0.59-0.29c0.26-0.33,0.2-0.8-0.13-1.05l-3.69-2.88h18.78
		c-1.9,6.48-5.45,14.28-8.69,21.3H74.9z M49.83,50.72h1.43c-0.48,0.56-0.96,1.12-1.43,1.69V50.72z M46.83,67.19l-1.31-1.68
		c0.43-0.62,0.87-1.24,1.31-1.86V67.19z M73.57,84.68h-40.2c3.12-5.25,6.94-11.56,11.26-17.87l2.21,2.82v3.89
		c0,0.83,0.67,1.5,1.5,1.5h24.13l-3.69,2.88c-0.33,0.25-0.39,0.73-0.13,1.05c0.15,0.19,0.37,0.29,0.59,0.29
		c0.16,0,0.33-0.05,0.46-0.16l5.2-4.06h2.99C76.34,78.38,74.87,81.61,73.57,84.68z M92.62,72.02h-8.38
		c3.52-7.65,6.77-14.99,8.44-21.3h9.96l-1.65,3.52l-5.78,3.42c-0.36,0.21-0.47,0.67-0.26,1.03c0.21,0.36,0.67,0.47,1.03,0.26
		l3.88-2.3L92.62,72.02z"/>
</g>
</svg>
