<?xml version="1.0" encoding="utf-8"?>
<!-- Generator: Adobe Illustrator 24.0.1, SVG Export Plug-In . SVG Version: 6.00 Build 0)  -->
<svg version="1.1" xmlns="http://www.w3.org/2000/svg" xmlns:xlink="http://www.w3.org/1999/xlink" x="0px" y="0px"
	 viewBox="0 0 113.39 113.39" style="enable-background:new 0 0 113.39 113.39;" xml:space="preserve">
<style type="text/css">
	.st0{fill:#88BE31;}
</style>
<g id="Ebene_1">
</g>
<g id="Piktogramm">
</g>
<g id="_1">
	<g>
		<path class="st0" d="M86.61,54.64c-6.81,2.55-15.62,5-15.62,5S70,55.93,71.09,47.8c0.56-4.18,3.56-8.19,6.59-11.82h8.59V20.39
			H70.68v15.59h1.11c-2.91,3.93-4.93,7.01-5.32,12.37c-0.5,6.85,0.1,11.29-0.63,16.17c-1.1,7.27-8.25,3.72-11.32,0.37
			c-2.65-2.88-3.04-8.39-6.86-13.48c-1.87-2.49-4.06-4.91-6.28-7.15V32.27H25.77v15.59h12.89c2.87,3.34,5.73,7.07,7.53,10.5
			c3.01,5.84,3.86,7.99,1.29,8.76c-1.7,0.51-11.06-0.26-18.61-1.08v-6.82H13.28v15.59h15.59v-4.04c8.48,1.22,19.16,2.92,21.7,4.11
			c4.37,2.04,6,6.35,6.12,9.91c0.12,3.56-2.59,23.82-2.59,23.82h17.43c0,0-2.57-19.4-2.59-23.82c-0.02-4.42,0.74-14.65,3.53-18.18
			c1.48-1.87,8.18-4.84,14.14-7.21v3.32h15.59V47.13H86.61V54.64z"/>
		<rect x="94.4" y="27.27" class="st0" width="11.25" height="11.25"/>
		<rect x="48.81" y="13.43" class="st0" width="11.25" height="11.25"/>
		<rect x="50.54" y="40.07" class="st0" width="11.25" height="11.25"/>
		<rect x="6.12" y="40.47" class="st0" width="11.25" height="11.25"/>
		<rect x="42.04" y="5.16" class="st0" width="5.92" height="5.92"/>
		<rect x="60.79" y="24.69" class="st0" width="5.92" height="5.92"/>
		<rect x="51.47" y="29.17" class="st0" width="5.92" height="5.92"/>
		<rect x="40.88" y="24.45" class="st0" width="5.92" height="5.92"/>
		<rect x="37.78" y="13.25" class="st0" width="5.92" height="5.92"/>
		<rect x="25.51" y="21.08" class="st0" width="5.92" height="5.92"/>
		<rect x="22.81" y="49.56" class="st0" width="5.92" height="5.92"/>
		<rect x="79.89" y="10.02" class="st0" width="5.92" height="5.92"/>
		<rect x="67.72" y="9.54" class="st0" width="7.32" height="7.32"/>
		<rect x="75.58" y="44.83" class="st0" width="7.32" height="7.32"/>
		<rect x="91.04" y="14.22" class="st0" width="7.32" height="7.32"/>
		<rect x="77.17" y="65.38" class="st0" width="7.32" height="7.32"/>
		<rect x="55.86" y="56.3" class="st0" width="7.32" height="7.32"/>
		<rect x="10.99" y="24.52" class="st0" width="7.32" height="7.32"/>
		<rect x="32.18" y="52.8" class="st0" width="7.32" height="7.32"/>
		<rect x="16.8" y="34.57" class="st0" width="2.98" height="2.98"/>
		<rect x="35.3" y="21.88" class="st0" width="2.98" height="2.98"/>
		<rect x="45.87" y="34.01" class="st0" width="2.98" height="2.98"/>
		<rect x="62.93" y="34.01" class="st0" width="2.98" height="2.98"/>
		<rect x="65.64" y="19.59" class="st0" width="2.98" height="2.98"/>
		<rect x="60.91" y="6.03" class="st0" width="2.98" height="2.98"/>
		<rect x="76.46" y="6.03" class="st0" width="2.98" height="2.98"/>
		<rect x="104.24" y="42.1" class="st0" width="2.98" height="2.98"/>
		<rect x="88.57" y="67.03" class="st0" width="2.98" height="2.98"/>
		<rect x="42.16" y="61.32" class="st0" width="2.98" height="2.98"/>
	</g>
</g>
</svg>
