<?xml version="1.0" encoding="utf-8"?>
<!-- Generator: Adobe Illustrator 24.0.1, SVG Export Plug-In . SVG Version: 6.00 Build 0)  -->
<svg version="1.1" xmlns="http://www.w3.org/2000/svg" xmlns:xlink="http://www.w3.org/1999/xlink" x="0px" y="0px"
	 viewBox="0 0 113.39 113.39" style="enable-background:new 0 0 113.39 113.39;" xml:space="preserve">
<style type="text/css">
	.st0{fill:#88BE31;}
</style>
<g id="Ebene_1">
</g>
<g id="_1">
	<g>
		<path class="st0" d="M70.27,51.05v-9.44c0-0.83-0.67-1.5-1.5-1.5s-1.5,0.67-1.5,1.5v3.22h-5.85c-0.66,0-1.24,0.43-1.43,1.06
			L56.21,58.1l-9.87-22.72c-0.23-0.54-0.76-0.89-1.34-0.9c-0.57,0.02-1.12,0.32-1.38,0.84l-4.64,9.51h-3.12v-3.22
			c0-0.83-0.67-1.5-1.5-1.5s-1.5,0.67-1.5,1.5v9.44c0,0.83,0.67,1.5,1.5,1.5s1.5-0.67,1.5-1.5v-3.22h4.06c0.57,0,1.1-0.33,1.35-0.84
			l3.62-7.42l10.19,23.45c0.24,0.55,0.78,0.9,1.37,0.9c0.03,0,0.06,0,0.08,0c0.63-0.03,1.17-0.46,1.35-1.05l4.65-15.03h4.74v3.22
			c0,0.83,0.67,1.5,1.5,1.5S70.27,51.87,70.27,51.05z"/>
		<path class="st0" d="M93.02,94.69L74.08,72.85c6.25-5.96,10.16-14.35,10.16-23.65c0-18.02-14.66-32.68-32.68-32.68
			c-18.02,0-32.68,14.66-32.68,32.68s14.66,32.68,32.68,32.68c6.02,0,11.67-1.64,16.52-4.5L87.36,99.6
			c0.74,0.86,1.79,1.29,2.83,1.29c0.87,0,1.75-0.3,2.46-0.92C94.21,98.62,94.38,96.25,93.02,94.69z M26.38,49.19
			c0-13.89,11.3-25.18,25.18-25.18c13.88,0,25.18,11.3,25.18,25.18c0,13.88-11.3,25.18-25.18,25.18
			C37.68,74.38,26.38,63.08,26.38,49.19z"/>
	</g>
</g>
</svg>
