<?xml version="1.0" encoding="utf-8"?>
<!-- Generator: Adobe Illustrator 24.0.1, SVG Export Plug-In . SVG Version: 6.00 Build 0)  -->
<svg version="1.1" xmlns="http://www.w3.org/2000/svg" xmlns:xlink="http://www.w3.org/1999/xlink" x="0px" y="0px"
	 viewBox="0 0 113.39 113.39" style="enable-background:new 0 0 113.39 113.39;" xml:space="preserve">
<style type="text/css">
	.st0{fill:#04BBEE;}
	.st1{fill:#FFFFFF;}
</style>
<g id="Ebene_1">
</g>
<g id="Piktogramm">
</g>
<g id="_1">
	<path class="st0" d="M35.88,78.35c-1.52,0-2.95-0.93-3.52-2.44c-0.72-1.94,0.27-4.1,2.21-4.82L84.85,52.4
		c1.94-0.72,4.1,0.27,4.82,2.21c0.72,1.94-0.27,4.1-2.21,4.82L37.19,78.11C36.76,78.27,36.32,78.35,35.88,78.35z"/>
	<path class="st0" d="M35.89,78.35c-0.21,0-0.42-0.02-0.63-0.05c-2.04-0.34-3.42-2.28-3.08-4.32l8.17-48.53
		c0.34-2.04,2.28-3.41,4.32-3.08c2.04,0.34,3.42,2.28,3.08,4.32l-8.17,48.53C39.27,77.05,37.69,78.35,35.89,78.35z"/>
	<g>
		<path class="st1" d="M16.2,74.6c0,10.57,8.57,19.13,19.13,19.13c10.57,0,19.13-8.57,19.13-19.13S45.9,55.46,35.33,55.46
			C24.76,55.46,16.2,64.03,16.2,74.6z"/>
		<path class="st0" d="M35.33,97.48c-12.62,0-22.88-10.27-22.88-22.88s10.27-22.88,22.88-22.88S58.21,61.98,58.21,74.6
			S47.95,97.48,35.33,97.48z M35.33,59.21c-8.48,0-15.38,6.9-15.38,15.38c0,8.48,6.9,15.38,15.38,15.38s15.38-6.9,15.38-15.38
			C50.71,66.11,43.81,59.21,35.33,59.21z"/>
	</g>
	<path class="st0" d="M85.45,59.96c-0.77,0-1.54-0.23-2.2-0.72L41.84,29.1c-1.67-1.22-2.04-3.56-0.82-5.24
		c1.22-1.68,3.56-2.04,5.24-0.83l41.41,30.14c1.67,1.22,2.04,3.56,0.82,5.24C87.76,59.42,86.61,59.96,85.45,59.96z"/>
	<g>
		<path class="st1" d="M80.97,45.41c-5.96,2.48-8.78,9.32-6.31,15.28s9.32,8.78,15.28,6.31c5.96-2.48,8.78-9.32,6.31-15.28
			C93.77,45.76,86.93,42.93,80.97,45.41z"/>
		<path class="st0" d="M85.48,71.65c-6.05,0-11.81-3.58-14.28-9.51c-1.58-3.81-1.59-8-0.02-11.82c1.57-3.81,4.54-6.78,8.34-8.37l0,0
			c7.87-3.27,16.92,0.47,20.19,8.33c3.27,7.86-0.47,16.92-8.33,20.19C89.45,71.27,87.45,71.65,85.48,71.65z M82.41,48.88
			c-1.96,0.81-3.48,2.34-4.29,4.3c-0.81,1.96-0.81,4.12,0.01,6.08c1.68,4.04,6.34,5.97,10.38,4.28c4.04-1.68,5.96-6.34,4.28-10.38
			C91.11,49.11,86.45,47.2,82.41,48.88L82.41,48.88z"/>
	</g>
	<g>
		<path class="st1" d="M37.78,16.2c-5.45,3.46-7.06,10.69-3.6,16.14c3.46,5.45,10.69,7.06,16.14,3.6c5.45-3.46,7.06-10.69,3.6-16.14
			C50.45,14.35,43.23,12.73,37.78,16.2z"/>
		<path class="st0" d="M44.08,41.51c-1.13,0-2.26-0.12-3.39-0.38c-4.03-0.9-7.46-3.31-9.67-6.79c-4.56-7.19-2.43-16.75,4.75-21.31
			l0,0c7.19-4.57,16.75-2.43,21.31,4.75c2.21,3.48,2.94,7.62,2.04,11.64c-0.9,4.03-3.31,7.46-6.79,9.67
			C49.82,40.69,46.98,41.51,44.08,41.51z M44.04,18.13c-1.46,0-2.93,0.4-4.25,1.24l0,0c-3.7,2.35-4.79,7.27-2.44,10.96
			c1.14,1.79,2.9,3.03,4.97,3.49c2.07,0.46,4.2,0.09,5.99-1.05c1.79-1.14,3.03-2.9,3.49-4.97c0.46-2.07,0.09-4.2-1.05-5.99
			C49.24,19.43,46.66,18.13,44.04,18.13z"/>
	</g>
</g>
</svg>
