<?xml version="1.0" encoding="utf-8"?>
<!-- Generator: Adobe Illustrator 26.1.0, SVG Export Plug-In . SVG Version: 6.00 Build 0)  -->
<svg version="1.1" xmlns="http://www.w3.org/2000/svg" xmlns:xlink="http://www.w3.org/1999/xlink" x="0px" y="0px"
	 viewBox="0 0 850.4 935.4" enable-background="new 0 0 850.4 935.4" xml:space="preserve">
<g id="Ebene_1">
</g>
<g id="Layer_1">
	<g>
		<g>
			
				<line fill="none" stroke="#ffffff" stroke-width="25.5118" stroke-linecap="round" stroke-linejoin="round" stroke-miterlimit="10" x1="425.1" y1="30.4" x2="425.1" y2="65.6"/>
			
				<line fill="none" stroke="#ffffff" stroke-width="25.5118" stroke-linecap="round" stroke-linejoin="round" stroke-miterlimit="10" x1="37.1" y1="399" x2="72.2" y2="399"/>
			
				<line fill="none" stroke="#ffffff" stroke-width="25.5118" stroke-linecap="round" stroke-linejoin="round" stroke-miterlimit="10" x1="148.5" y1="148.1" x2="173.3" y2="173"/>
			
				<line fill="none" stroke="#ffffff" stroke-width="25.5118" stroke-linecap="round" stroke-linejoin="round" stroke-miterlimit="10" x1="813.2" y1="399" x2="778" y2="399"/>
			
				<line fill="none" stroke="#ffffff" stroke-width="25.5118" stroke-linecap="round" stroke-linejoin="round" stroke-miterlimit="10" x1="701.8" y1="148.1" x2="676.9" y2="173"/>
			
				<line fill="none" stroke="#ffffff" stroke-width="25.5118" stroke-linecap="round" stroke-linejoin="round" stroke-miterlimit="10" x1="734" y1="656.1" x2="706.5" y2="634.1"/>
			
				<line fill="none" stroke="#ffffff" stroke-width="25.5118" stroke-linecap="round" stroke-linejoin="round" stroke-miterlimit="10" x1="116.2" y1="656.1" x2="143.7" y2="634.1"/>
		</g>
		<g>
			
				<path fill="none" stroke="#ffffff" stroke-width="25.5118" stroke-linecap="round" stroke-linejoin="round" stroke-miterlimit="10" d="
				M425.8,912.7h-20.4c-18,0-32.6-14.6-32.6-32.6v0c0-18,0-32.6,0-32.6"/>
			
				<path fill="none" stroke="#ffffff" stroke-width="25.5118" stroke-linecap="round" stroke-linejoin="round" stroke-miterlimit="10" d="
				M496.2,782.2H534c18,0,32.6-14.6,32.6-32.6l0,0c0-18-14.6-32.6-32.6-32.6H317.6c-18,0-32.6,14.6-32.6,32.6l0,0
				c0,18,14.6,32.6,32.6,32.6h108.2"/>
			
				<path fill="none" stroke="#ffffff" stroke-width="25.5118" stroke-linecap="round" stroke-linejoin="round" stroke-miterlimit="10" d="
				M342.1,782.2c-18,0-32.6,14.6-32.6,32.6l0,0c0,18,14.6,32.6,32.6,32.6h167.4c18,0,32.6-14.6,32.6-32.6l0,0
				c0-18-14.6-32.6-32.6-32.6"/>
			
				<path fill="none" stroke="#ffffff" stroke-width="25.5118" stroke-linecap="round" stroke-linejoin="round" stroke-miterlimit="10" d="
				M425.8,912.7h20.4c18,0,32.6-14.6,32.6-32.6v0c0-18,0-32.6,0-32.6"/>
		</g>
		<g>
			
				<path fill="none" stroke="#ffffff" stroke-width="25.5118" stroke-linecap="round" stroke-linejoin="round" stroke-miterlimit="10" d="
				M464.8,299.1c0,27.9,27.9,27.9,27.9,55.8c0,27.9-27.9,27.9-27.9,55.8c0,27.9,27.9,27.9,27.9,55.8"/>
			
				<path fill="none" stroke="#ffffff" stroke-width="25.5118" stroke-linecap="round" stroke-linejoin="round" stroke-miterlimit="10" d="
				M386.7,438.4c7,7,13.9,14,13.9,27.9c0,27.9-27.9,27.9-27.9,55.8c0,27.9,27.9,37.8,27.9,37.8"/>
			<g>
				<g>
					
						<path fill="none" stroke="#ffffff" stroke-width="25.5118" stroke-linecap="round" stroke-linejoin="round" stroke-miterlimit="10" d="
						M425.8,169.6c-13.9-20.5-35.7-32.7-61.3-32.7c-47.5,0-88.1,34-88.1,87.4c-0.2,0-0.4,0-0.6,0c-30.2,0-54.7,24.5-54.7,54.7
						c0,7.8,1.6,15.2,4.6,22c-37.2,18.4-62.7,56.8-62.7,101c0,38.1,18.9,71.8,47.8,92.2c-13.8,15.4-22.2,35.8-22.2,58.1
						c0,48.1,39,87.1,87.1,87.1c2.6,0,5.1-0.1,7.6-0.3c-0.5,3.4-0.9,7-0.9,10.6c0,35.9,35,67.3,35,67.3"/>
					
						<path fill="none" stroke="#ffffff" stroke-width="25.5118" stroke-linecap="round" stroke-linejoin="round" stroke-miterlimit="10" d="
						M276.4,224.3c0,11.7,5.4,32,15.5,41.7"/>
					
						<path fill="none" stroke="#ffffff" stroke-width="25.5118" stroke-linecap="round" stroke-linejoin="round" stroke-miterlimit="10" d="
						M211,494.2c22,14.6,44,14.6,44,14.6"/>
					
						<path fill="none" stroke="#ffffff" stroke-width="25.5118" stroke-linecap="round" stroke-linejoin="round" stroke-miterlimit="10" d="
						M283.5,639.1c3.7-24.2,15.4-36.1,15.4-36.1"/>
					
						<path fill="none" stroke="#ffffff" stroke-width="25.5118" stroke-linecap="round" stroke-linejoin="round" stroke-miterlimit="10" d="
						M225.8,300.9c3.5,10.7,11.1,18.3,11.1,18.3"/>
				</g>
				<g>
					
						<path fill="none" stroke="#ffffff" stroke-width="25.5118" stroke-linecap="round" stroke-linejoin="round" stroke-miterlimit="10" d="
						M409.3,227.5c0-22.8,6-42.6,16.5-57.9c0,0-0.1,0,0,0c13.9-20.5,35.7-32.7,61.3-32.7c47.5,0,88.1,34,88.1,87.4
						c0.2,0,0.4,0,0.6,0c30.2,0,54.7,24.5,54.7,54.7c0,7.8-1.6,15.2-4.6,22c37.2,18.4,62.7,56.8,62.7,101
						c0,38.1-18.9,71.8-47.8,92.2c13.8,15.4,22.2,35.8,22.2,58.1c0,48.1-39,87.1-87.1,87.1c-2.6,0-5.1-0.1-7.6-0.3
						c0.6,3.4,0.9,7,0.9,10.6c0,35.9-35,67.3-35,67.3"/>
					
						<path fill="none" stroke="#ffffff" stroke-width="25.5118" stroke-linecap="round" stroke-linejoin="round" stroke-miterlimit="10" d="
						M575.1,224.3c0,11.7-5.4,32-15.5,41.7"/>
					
						<path fill="none" stroke="#ffffff" stroke-width="25.5118" stroke-linecap="round" stroke-linejoin="round" stroke-miterlimit="10" d="
						M640.6,494.2c-22,14.6-44,14.6-44,14.6"/>
					
						<path fill="none" stroke="#ffffff" stroke-width="25.5118" stroke-linecap="round" stroke-linejoin="round" stroke-miterlimit="10" d="
						M568.1,639.1c-3.7-24.2-15.4-36.1-15.4-36.1"/>
					
						<path fill="none" stroke="#ffffff" stroke-width="25.5118" stroke-linecap="round" stroke-linejoin="round" stroke-miterlimit="10" d="
						M625.8,300.9c-3.5,10.7-11.1,18.3-11.1,18.3"/>
				</g>
			</g>
		</g>
	</g>
</g>
</svg>
