<?xml version="1.0" encoding="utf-8"?>
<!-- Generator: Adobe Illustrator 26.1.0, SVG Export Plug-In . SVG Version: 6.00 Build 0)  -->
<svg version="1.1" xmlns="http://www.w3.org/2000/svg" xmlns:xlink="http://www.w3.org/1999/xlink" x="0px" y="0px"
	 viewBox="0 0 963.8 935.4" enable-background="new 0 0 963.8 935.4" xml:space="preserve">
<g id="Ebene_1">
</g>
<g id="Layer_1">
	<g>
		<g>
			
				<polyline fill="none" stroke="#ffffff" stroke-width="25.5118" stroke-linecap="round" stroke-linejoin="round" stroke-miterlimit="10" points="
				345.1,439.1 334.1,431.1 371.5,366.3 405.1,381.1 441.6,360.1 445.5,323.6 520.3,323.6 524.3,360.1 560.7,381.1 594.3,366.3 
				631.7,431 602.1,452.7 602.1,494.8 631.7,516.5 594.3,581.3 560.7,566.4 524.3,587.5 520.3,624 445.5,624 441.6,587.5 
				405.1,566.4 371.5,581.3 334.1,516.5 363.7,494.8 363.7,485.5 			"/>
			
				<path fill="none" stroke="#ffffff" stroke-width="25.5118" stroke-linecap="round" stroke-linejoin="round" stroke-miterlimit="10" d="
				M544.7,473.8c0,34.1-27.6,61.7-61.7,61.7c-34.1,0-61.7-27.6-61.7-61.7s27.6-61.7,61.7-61.7c15.7,0,30,5.9,40.9,15.5"/>
		</g>
		<g>
			
				<polyline fill="none" stroke="#ffffff" stroke-width="25.5118" stroke-linecap="round" stroke-linejoin="round" stroke-miterlimit="10" points="
				882.5,473.4 926.3,486.9 815.2,610.6 704.1,486.9 747.9,473.4 			"/>
			
				<polyline fill="none" stroke="#ffffff" stroke-width="25.5118" stroke-linecap="round" stroke-linejoin="round" stroke-miterlimit="10" points="
				83.3,474.1 39.6,460.6 150.6,336.9 261.7,460.6 217.9,474.1 			"/>
			
				<polyline fill="none" stroke="#ffffff" stroke-width="25.5118" stroke-linecap="round" stroke-linejoin="round" stroke-miterlimit="10" points="
				483.4,873 469.8,917.1 346.1,806.1 469.8,695 483.2,738.4 			"/>
			
				<polyline fill="none" stroke="#ffffff" stroke-width="25.5118" stroke-linecap="round" stroke-linejoin="round" stroke-miterlimit="10" points="
				482.7,73.9 496,30.4 619.8,141.5 496,252.5 482.5,208.4 			"/>
			
				<path fill="none" stroke="#ffffff" stroke-width="25.5118" stroke-linecap="round" stroke-linejoin="round" stroke-miterlimit="10" d="
				M829.1,673.2c-69,119.3-198,199.6-345.7,199.8"/>
			
				<path fill="none" stroke="#ffffff" stroke-width="25.5118" stroke-linecap="round" stroke-linejoin="round" stroke-miterlimit="10" d="
				M83.3,474.1c0,149.7,82.4,279.9,204.3,348.1"/>
			
				<path fill="none" stroke="#ffffff" stroke-width="25.5118" stroke-linecap="round" stroke-linejoin="round" stroke-miterlimit="10" d="
				M133.7,279c68.2-122.3,198.9-205.1,349-205.2"/>
			
				<path fill="none" stroke="#ffffff" stroke-width="25.5118" stroke-linecap="round" stroke-linejoin="round" stroke-miterlimit="10" d="
				M672.5,121.6c125,67.5,210,199.7,210,351.8"/>
			
				<path fill="none" stroke="#ffffff" stroke-width="25.5118" stroke-linecap="round" stroke-linejoin="round" stroke-miterlimit="10" d="
				M742,529.1c-25.5,119.5-131.7,209.2-258.8,209.3"/>
			
				<path fill="none" stroke="#ffffff" stroke-width="25.5118" stroke-linecap="round" stroke-linejoin="round" stroke-miterlimit="10" d="
				M217.9,474.1c0,127.4,90,233.3,209.8,258.6"/>
			
				<path fill="none" stroke="#ffffff" stroke-width="25.5118" stroke-linecap="round" stroke-linejoin="round" stroke-miterlimit="10" d="
				M482.5,208.4c-115,0.2-212.8,73.7-249.3,176.2l-11.3,31.6"/>
			
				<path fill="none" stroke="#ffffff" stroke-width="25.5118" stroke-linecap="round" stroke-linejoin="round" stroke-miterlimit="10" d="
				M538.6,214.3c119.6,25.6,209.3,131.9,209.3,259.1"/>
			<g>
				
					<path fill="none" stroke="#ffffff" stroke-width="25.5118" stroke-linecap="round" stroke-linejoin="round" stroke-miterlimit="10" d="
					M373.7,140.8c17.8-5.8,36.3-10.3,55.2-13.2"/>
				
					<path fill="none" stroke="#ffffff" stroke-width="25.5118" stroke-linecap="round" stroke-linejoin="round" stroke-miterlimit="10" d="
					M329.3,158.9c0.7-0.4,1.4-0.7,2.1-1"/>
			</g>
		</g>
	</g>
</g>
</svg>
