<?xml version="1.0" encoding="utf-8"?>
<!-- Generator: Adobe Illustrator 20.1.0, SVG Export Plug-In . SVG Version: 6.00 Build 0)  -->
<svg version="1.1" id="Ebene_1" xmlns="http://www.w3.org/2000/svg" xmlns:xlink="http://www.w3.org/1999/xlink" x="0px" y="0px"
	 width="68.8px" height="20.2px" viewBox="0 0 68.8 20.2" style="enable-background:new 0 0 68.8 20.2;" xml:space="preserve">
<style type="text/css">
	.st0{fill:#009EE3;}
	.st1{fill:#004994;}
</style>
<g>
	<path class="st0" d="M2.6,16.8c0,0.2,0,0.4-0.1,0.5c-0.1,0.1-0.1,0.3-0.3,0.4c-0.1,0.1-0.2,0.2-0.4,0.2c-0.2,0-0.3,0.1-0.5,0.1h-1
		v-0.5h1c0.2,0,0.4-0.1,0.6-0.2C2,17.2,2.1,17,2.1,16.8v-0.1c0-0.1,0-0.2,0-0.3C2,16.4,2,16.3,2,16.3c0,0-0.1-0.1-0.2-0.1
		S1.6,16.1,1.5,16l-0.4-0.1c-0.1,0-0.2-0.1-0.3-0.1c-0.1,0-0.2-0.1-0.2-0.2c-0.1-0.1-0.1-0.2-0.2-0.3S0.4,15,0.4,14.9v-0.1
		c0-0.2,0-0.3,0.1-0.5c0.1-0.1,0.1-0.2,0.3-0.3c0.1-0.1,0.2-0.2,0.4-0.2c0.1,0,0.3-0.1,0.5-0.1h1v0.5h-1c-0.2,0-0.4,0-0.5,0.1
		c-0.1,0.1-0.2,0.3-0.2,0.5v0.1c0,0.1,0,0.3,0.1,0.3c0.1,0.1,0.2,0.1,0.3,0.2l0.4,0.1c0.1,0,0.2,0.1,0.3,0.1
		c0.1,0.1,0.2,0.1,0.3,0.2s0.1,0.2,0.2,0.3c0,0.1,0.1,0.3,0.1,0.5V16.8z"/>
	<path class="st0" d="M6,16.6c0,0.2,0,0.4-0.1,0.6c-0.1,0.2-0.1,0.3-0.2,0.4s-0.2,0.2-0.4,0.3C5.1,17.9,4.9,18,4.7,18H4.6
		c-0.2,0-0.4,0-0.6-0.1c-0.2-0.1-0.3-0.2-0.4-0.3s-0.2-0.3-0.2-0.4c-0.1-0.2-0.1-0.4-0.1-0.6v-1.5c0-0.2,0-0.4,0.1-0.6
		c0.1-0.2,0.1-0.3,0.2-0.4s0.2-0.2,0.4-0.3c0.2-0.1,0.3-0.1,0.6-0.1h0.1c0.2,0,0.4,0,0.6,0.1c0.2,0.1,0.3,0.2,0.4,0.3
		s0.2,0.3,0.2,0.4C5.9,14.7,6,14.9,6,15.1V16.6z M5.5,15.1c0-0.1,0-0.2,0-0.3c0-0.1-0.1-0.2-0.1-0.3s-0.1-0.2-0.2-0.2
		s-0.2-0.1-0.3-0.1H4.6c-0.1,0-0.3,0-0.3,0.1c-0.1,0-0.2,0.1-0.2,0.2s-0.1,0.2-0.1,0.3c0,0.1,0,0.2,0,0.3v1.5c0,0.1,0,0.2,0,0.3
		C3.9,17,4,17.1,4,17.2s0.1,0.2,0.2,0.2c0.1,0,0.2,0.1,0.3,0.1h0.1c0.1,0,0.3,0,0.3-0.1s0.2-0.1,0.2-0.2s0.1-0.2,0.1-0.3
		c0-0.1,0-0.2,0-0.3V15.1z"/>
	<path class="st0" d="M7.3,16V18H6.8v-4.3h2.1v0.5H7.3v1.4h1.6V16H7.3z"/>
	<path class="st0" d="M11.1,14.2V18h-0.5v-3.8H9.4v-0.5h2.9v0.5H11.1z"/>
	<path class="st0" d="M16.7,18h-0.6l-0.9-3.4L14.3,18h-0.6l-1.1-4.3h0.5l0.8,3.4l0.9-3.4h0.6l0.9,3.4l0.8-3.4h0.5L16.7,18z"/>
	<path class="st0" d="M20.5,18l-0.3-0.8h-1.6L18.4,18h-0.5l1.4-4.3h0.5l1.4,4.3H20.5z M19.5,14.5l-0.7,2.1h1.3L19.5,14.5z"/>
	<path class="st0" d="M23.7,18l-1.1-1.8h-0.5V18h-0.5v-4.3h1.2c0.4,0,0.8,0.1,1,0.3s0.3,0.5,0.3,0.9c0,0.7-0.3,1.1-0.9,1.2l1.1,1.8
		H23.7z M23.6,14.9c0-0.2-0.1-0.4-0.2-0.5c-0.1-0.1-0.3-0.2-0.6-0.2h-0.7v1.5h0.7c0.3,0,0.5-0.1,0.6-0.2
		C23.5,15.3,23.6,15.2,23.6,14.9z"/>
	<path class="st0" d="M24.9,18v-4.3H27v0.5h-1.6v1.4H27V16h-1.6v1.4H27V18H24.9z"/>
	<path class="st0" d="M31.9,16v2h-1.1c-0.2,0-0.3,0-0.5-0.1c-0.1,0-0.3-0.1-0.4-0.2c-0.1-0.1-0.2-0.2-0.3-0.3
		c-0.1-0.1-0.1-0.3-0.1-0.5v-0.2c0-0.2,0-0.4,0.1-0.5c0.1-0.1,0.2-0.2,0.3-0.3c-0.1-0.1-0.2-0.2-0.3-0.3c-0.1-0.1-0.1-0.3-0.1-0.5
		v-0.2c0-0.2,0-0.3,0.1-0.5s0.1-0.2,0.2-0.3c0.1-0.1,0.2-0.1,0.4-0.2c0.1,0,0.3-0.1,0.5-0.1h0.9v0.5h-0.9c-0.2,0-0.4,0-0.5,0.1
		c-0.1,0.1-0.2,0.2-0.2,0.4V15c0,0.2,0.1,0.3,0.2,0.4c0.1,0.1,0.3,0.2,0.5,0.2h0.6v-0.7h0.5v0.7h0.5V16H31.9z M31.4,16h-0.6
		c-0.2,0-0.4,0.1-0.5,0.2c-0.1,0.1-0.2,0.3-0.2,0.5v0.2c0,0.2,0.1,0.3,0.2,0.5c0.1,0.1,0.3,0.2,0.5,0.2h0.6V16z"/>
	<path class="st0" d="M34.9,18v-4.3H37v0.5h-1.6v1.4H37V16h-1.6v1.4H37V18H34.9z"/>
	<path class="st0" d="M39.9,18l-1.6-3.1V18h-0.5v-4.3h0.5l1.6,3.1v-3.1h0.5V18H39.9z"/>
	<path class="st0" d="M42.5,18c-0.2,0-0.4,0-0.6-0.1c-0.2-0.1-0.3-0.2-0.4-0.3c-0.1-0.1-0.2-0.3-0.2-0.4c-0.1-0.2-0.1-0.4-0.1-0.6
		v-1.4c0-0.2,0-0.4,0.1-0.6c0.1-0.2,0.1-0.3,0.3-0.5c0.1-0.1,0.3-0.2,0.4-0.3c0.2-0.1,0.4-0.1,0.6-0.1h1.1v0.5h-1.1
		c-0.2,0-0.3,0-0.4,0.1s-0.2,0.1-0.3,0.2c-0.1,0.1-0.1,0.2-0.2,0.3s-0.1,0.3-0.1,0.4v1.4c0,0.1,0,0.2,0,0.3c0,0.1,0.1,0.2,0.1,0.3
		c0.1,0.1,0.1,0.2,0.2,0.2c0.1,0,0.2,0.1,0.4,0.1h0.8v-1.4h-0.9v-0.5h1.4V18H42.5z"/>
	<path class="st0" d="M44.3,18v-0.4h0.9v-3.4h-0.9v-0.4h2.3v0.4h-0.9v3.4h0.9V18H44.3z"/>
	<path class="st0" d="M49.4,18l-1.6-3.1V18h-0.5v-4.3h0.5l1.6,3.1v-3.1h0.5V18H49.4z"/>
	<path class="st0" d="M50.7,18v-4.3h2.1v0.5h-1.6v1.4h1.6V16h-1.6v1.4h1.6V18H50.7z"/>
	<path class="st0" d="M53.6,18v-4.3h2.1v0.5h-1.6v1.4h1.6V16h-1.6v1.4h1.6V18H53.6z"/>
	<path class="st0" d="M58.5,18l-1.1-1.8h-0.5V18h-0.5v-4.3h1.2c0.4,0,0.8,0.1,1,0.3c0.2,0.2,0.3,0.5,0.3,0.9c0,0.7-0.3,1.1-0.9,1.2
		l1.1,1.8H58.5z M58.4,14.9c0-0.2-0.1-0.4-0.2-0.5c-0.1-0.1-0.3-0.2-0.6-0.2h-0.7v1.5h0.7c0.3,0,0.5-0.1,0.6-0.2
		C58.4,15.3,58.4,15.2,58.4,14.9z"/>
	<path class="st0" d="M59.4,18v-0.4h0.9v-3.4h-0.9v-0.4h2.3v0.4h-0.9v3.4h0.9V18H59.4z"/>
	<path class="st0" d="M64.4,18l-1.6-3.1V18h-0.5v-4.3h0.5l1.6,3.1v-3.1h0.5V18H64.4z"/>
	<path class="st0" d="M67,18c-0.2,0-0.4,0-0.6-0.1c-0.2-0.1-0.3-0.2-0.4-0.3c-0.1-0.1-0.2-0.3-0.2-0.4c-0.1-0.2-0.1-0.4-0.1-0.6
		v-1.4c0-0.2,0-0.4,0.1-0.6c0.1-0.2,0.1-0.3,0.3-0.5c0.1-0.1,0.3-0.2,0.4-0.3c0.2-0.1,0.4-0.1,0.6-0.1h1.1v0.5h-1.1
		c-0.2,0-0.3,0-0.4,0.1s-0.2,0.1-0.3,0.2c-0.1,0.1-0.1,0.2-0.2,0.3s-0.1,0.3-0.1,0.4v1.4c0,0.1,0,0.2,0,0.3c0,0.1,0.1,0.2,0.1,0.3
		c0.1,0.1,0.1,0.2,0.2,0.2c0.1,0,0.2,0.1,0.4,0.1h0.8v-1.4H67v-0.5h1.4V18H67z"/>
</g>
<g>
	<path class="st1" d="M6.4,12L6,10.3H2.8L2.3,12h-2L3.2,2h2.3L8.5,12H6.4z M4.4,4.5l-1.1,4h2.2L4.4,4.5z"/>
	<path class="st1" d="M16.5,8.3c0,1.2-0.3,2.1-0.9,2.7C15,11.7,14.1,12,13,12H9.6V2H13c1.1,0,2,0.3,2.6,0.9c0.6,0.6,0.9,1.5,0.9,2.7
		V8.3z M14.6,5.8c0-0.3,0-0.6-0.1-0.8c0-0.2-0.1-0.5-0.3-0.6C14.1,4.2,14,4,13.8,3.9c-0.2-0.1-0.4-0.2-0.7-0.2h-1.5v6.4H13
		c0.3,0,0.5-0.1,0.7-0.2c0.2-0.1,0.4-0.2,0.5-0.4c0.1-0.2,0.2-0.4,0.3-0.6c0-0.2,0.1-0.5,0.1-0.8V5.8z"/>
	<path class="st1" d="M23.4,12l-0.5-1.7h-3.2L19.2,12h-2L20.2,2h2.3l2.9,9.9H23.4z M21.3,4.5l-1.1,4h2.2L21.3,4.5z"/>
	<path class="st1" d="M26.5,12V2h1.9V12H26.5z M31.3,12l-2.9-5.2L31.1,2h2.1l-2.7,4.8l2.9,5.2H31.3z"/>
	<path class="st1" d="M40.7,8.3c0,1.2-0.3,2.1-0.8,2.7c-0.6,0.6-1.4,0.9-2.5,0.9h-0.3c-1.1,0-1.9-0.3-2.5-0.9
		c-0.6-0.6-0.8-1.5-0.8-2.7V5.7c0-1.2,0.3-2.1,0.8-2.7C35.2,2.3,36,2,37.1,2h0.3c1.1,0,1.9,0.3,2.5,0.9c0.6,0.6,0.8,1.5,0.8,2.7V8.3
		z M38.8,5.8c0-0.3,0-0.6-0.1-0.8c0-0.2-0.1-0.5-0.2-0.6C38.4,4.2,38.2,4,38,3.9c-0.2-0.1-0.4-0.2-0.7-0.2h-0.3
		c-0.3,0-0.5,0.1-0.7,0.2C36.3,4,36.1,4.2,36,4.4S35.8,4.8,35.8,5c0,0.2-0.1,0.5-0.1,0.8v2.4c0,0.3,0,0.6,0.1,0.8
		c0,0.2,0.1,0.5,0.2,0.6s0.3,0.3,0.4,0.4c0.2,0.1,0.4,0.2,0.7,0.2h0.3c0.3,0,0.5-0.1,0.7-0.2c0.2-0.1,0.3-0.2,0.4-0.4
		c0.1-0.2,0.2-0.4,0.2-0.6c0-0.2,0.1-0.5,0.1-0.8V5.8z"/>
	<path class="st1" d="M49.4,12V6l-1.7,3.8h-1.8L44.1,6v6h-1.9V2h2l2.5,5.6L49.2,2h2V12H49.4z"/>
</g>
</svg>
