<?xml version="1.0" encoding="utf-8"?>
<!-- Generator: Adobe Illustrator 20.1.0, SVG Export Plug-In . SVG Version: 6.00 Build 0)  -->
<svg version="1.1" id="Ebene_1" xmlns="http://www.w3.org/2000/svg" xmlns:xlink="http://www.w3.org/1999/xlink" x="0px" y="0px"
	 width="533.4px" height="18px" viewBox="0 0 533.4 18" style="enable-background:new 0 0 533.4 18;" xml:space="preserve">
<style type="text/css">
	.st0{fill:#004994;}
	.st1{fill:#009EE3;}
</style>
<g>
	<path class="st0" d="M10,16.4l-0.7-2.5H4.5l-0.7,2.5h-3L5.2,1.5h3.5l4.4,14.9H10z M7,5.2l-1.7,6h3.3L7,5.2z"/>
	<path class="st0" d="M25.1,11c0,1.8-0.4,3.1-1.3,4.1c-0.9,0.9-2.1,1.4-3.8,1.4h-5.1V1.5h5.1c1.7,0,3,0.5,3.8,1.4
		c0.9,0.9,1.3,2.3,1.3,4.1V11z M22.2,7.2c0-0.4,0-0.8-0.1-1.2c-0.1-0.4-0.2-0.7-0.4-1c-0.2-0.3-0.4-0.5-0.7-0.6
		c-0.3-0.2-0.7-0.2-1.1-0.2h-2.3v9.7h2.3c0.4,0,0.8-0.1,1.1-0.2c0.3-0.2,0.5-0.4,0.7-0.6c0.2-0.3,0.3-0.6,0.4-1
		c0.1-0.4,0.1-0.8,0.1-1.2V7.2z"/>
	<path class="st0" d="M35.4,16.4l-0.7-2.5h-4.8l-0.7,2.5h-3l4.4-14.9h3.5l4.4,14.9H35.4z M32.4,5.2l-1.7,6H34L32.4,5.2z"/>
	<path class="st0" d="M40.2,16.4V1.5H43v14.9H40.2z M47.3,16.4L43,8.7l4.1-7.1h3.1l-4.1,7.1l4.3,7.8H47.3z"/>
	<path class="st0" d="M61.4,11c0,1.8-0.4,3.1-1.3,4.1c-0.8,0.9-2.1,1.4-3.7,1.4H56c-1.6,0-2.8-0.5-3.7-1.4c-0.8-0.9-1.3-2.3-1.3-4.1
		V7c0-1.8,0.4-3.1,1.3-4.1s2.1-1.4,3.7-1.4h0.4c1.6,0,2.8,0.5,3.7,1.4s1.3,2.3,1.3,4.1V11z M58.5,7.2c0-0.4,0-0.8-0.1-1.2
		c-0.1-0.4-0.2-0.7-0.4-1s-0.4-0.5-0.7-0.6c-0.3-0.2-0.6-0.2-1-0.2H56c-0.4,0-0.7,0.1-1,0.2c-0.3,0.2-0.5,0.4-0.7,0.6S54.1,5.6,54,6
		c-0.1,0.4-0.1,0.8-0.1,1.2v3.6c0,0.4,0,0.8,0.1,1.2c0.1,0.4,0.2,0.7,0.4,1c0.2,0.3,0.4,0.5,0.7,0.6c0.3,0.2,0.6,0.2,1,0.2h0.4
		c0.4,0,0.7-0.1,1-0.2c0.3-0.2,0.5-0.4,0.7-0.6c0.2-0.3,0.3-0.6,0.4-1c0.1-0.4,0.1-0.8,0.1-1.2V7.2z"/>
	<path class="st0" d="M74.4,16.4V7.5l-2.6,5.6h-2.8l-2.6-5.6v8.9h-2.8V1.5h3l3.7,8.3l3.7-8.3h3v14.9H74.4z"/>
	<path class="st1" d="M93.5,12.4c0,0.7-0.1,1.4-0.3,1.9s-0.5,0.9-0.9,1.2c-0.4,0.3-0.8,0.6-1.4,0.7c-0.5,0.1-1.1,0.2-1.8,0.2h-3.6
		v-1.7H89c0.8,0,1.5-0.2,2-0.5c0.5-0.4,0.8-1,0.8-1.8V12c0-0.3,0-0.6-0.1-0.9c-0.1-0.2-0.2-0.5-0.4-0.6s-0.4-0.3-0.6-0.4
		S90,9.8,89.7,9.7l-1.4-0.5c-0.4-0.1-0.7-0.3-1-0.5c-0.3-0.2-0.6-0.4-0.9-0.7c-0.3-0.3-0.5-0.6-0.6-1c-0.2-0.4-0.2-0.9-0.2-1.4V5.4
		c0-0.6,0.1-1.2,0.3-1.7c0.2-0.5,0.5-0.9,0.9-1.2s0.8-0.6,1.3-0.7c0.5-0.2,1.1-0.2,1.7-0.2h3.4v1.7h-3.4c-0.8,0-1.4,0.2-1.9,0.5
		s-0.7,0.9-0.7,1.6v0.3c0,0.5,0.2,0.9,0.5,1.2c0.3,0.3,0.7,0.5,1.2,0.7L90.4,8c0.4,0.1,0.8,0.3,1.1,0.5c0.4,0.2,0.7,0.4,1,0.7
		c0.3,0.3,0.5,0.7,0.7,1.1c0.2,0.4,0.3,1,0.3,1.6V12.4z"/>
	<path class="st1" d="M105.3,11.6c0,0.7-0.1,1.3-0.3,1.9c-0.2,0.6-0.5,1.1-0.8,1.5c-0.4,0.4-0.8,0.8-1.4,1c-0.6,0.2-1.2,0.4-1.9,0.4
		h-0.4c-0.7,0-1.4-0.1-1.9-0.4c-0.6-0.2-1-0.6-1.4-1c-0.4-0.4-0.6-0.9-0.8-1.5c-0.2-0.6-0.3-1.2-0.3-1.9V6.3c0-0.7,0.1-1.3,0.3-1.9
		c0.2-0.6,0.5-1.1,0.8-1.5c0.4-0.4,0.8-0.8,1.4-1c0.6-0.2,1.2-0.4,1.9-0.4h0.4c0.7,0,1.4,0.1,1.9,0.4c0.6,0.2,1,0.6,1.4,1
		c0.4,0.4,0.6,0.9,0.8,1.5c0.2,0.6,0.3,1.2,0.3,1.9V11.6z M103.5,6.3c0-0.4,0-0.8-0.1-1.2s-0.3-0.7-0.5-1s-0.5-0.5-0.8-0.7
		c-0.3-0.2-0.7-0.3-1.2-0.3h-0.4c-0.5,0-0.9,0.1-1.2,0.3c-0.3,0.2-0.6,0.4-0.8,0.7s-0.4,0.6-0.5,1c-0.1,0.4-0.1,0.8-0.1,1.2v5.2
		c0,0.4,0,0.8,0.1,1.2c0.1,0.4,0.3,0.7,0.5,1c0.2,0.3,0.5,0.5,0.8,0.7s0.7,0.3,1.2,0.3h0.4c0.5,0,0.9-0.1,1.2-0.3s0.6-0.4,0.8-0.7
		c0.2-0.3,0.4-0.6,0.5-1s0.1-0.8,0.1-1.2V6.3z"/>
	<path class="st1" d="M109.8,9.7v6.7H108V1.5h7.5v1.7h-5.7V8h5.7v1.7H109.8z"/>
	<path class="st1" d="M123.3,3.2v13.2h-1.8V3.2h-4.2V1.5h10.1v1.7H123.3z"/>
	<path class="st1" d="M142.8,16.4h-2l-3.2-12l-3.2,12h-2l-3.7-14.9h1.9l2.9,12l3.1-12h2.1l3.1,12l2.9-12h1.9L142.8,16.4z"/>
	<path class="st1" d="M156.2,16.4l-0.9-2.9h-5.6l-0.9,2.9h-1.9l4.7-14.9h1.8l4.7,14.9H156.2z M152.5,4.4l-2.3,7.4h4.6L152.5,4.4z"/>
	<path class="st1" d="M167.3,16.4l-3.7-6.3h-1.8v6.3H160V1.5h4.2c1.5,0,2.7,0.4,3.5,1.1c0.8,0.7,1.2,1.8,1.2,3.2
		c0,2.4-1.1,3.8-3.2,4.2l3.8,6.4H167.3z M167,5.8c0-0.8-0.2-1.5-0.7-1.9c-0.5-0.5-1.2-0.7-2.1-0.7h-2.4v5.2h2.4
		c0.9,0,1.6-0.2,2.1-0.7C166.8,7.3,167,6.6,167,5.8z"/>
	<path class="st1" d="M171.5,16.4V1.5h7.5v1.7h-5.7V8h5.7v1.7h-5.7v5h5.7v1.7H171.5z"/>
	<path class="st1" d="M196,9.6v6.8h-3.8c-0.6,0-1.2-0.1-1.7-0.2c-0.5-0.2-1-0.4-1.3-0.7c-0.4-0.3-0.7-0.7-0.9-1.2
		c-0.2-0.5-0.3-1-0.3-1.7v-0.8c0-0.8,0.2-1.4,0.5-1.9c0.3-0.5,0.7-0.9,1.2-1.1c-0.4-0.3-0.8-0.6-1.1-1.1c-0.3-0.5-0.4-1.1-0.4-1.8
		V5.1c0-0.6,0.1-1.2,0.3-1.6c0.2-0.5,0.5-0.8,0.8-1.1c0.3-0.3,0.8-0.5,1.3-0.6c0.5-0.1,1-0.2,1.6-0.2h3.3v1.6h-3.3
		c-0.7,0-1.3,0.2-1.6,0.5c-0.4,0.3-0.6,0.8-0.6,1.5v0.8c0,0.7,0.2,1.2,0.5,1.6s0.9,0.5,1.7,0.5h2V5.7h1.8V8h1.9v1.6H196z M194.2,9.6
		h-2c-0.8,0-1.4,0.2-1.8,0.6c-0.4,0.4-0.6,0.9-0.6,1.6v0.8c0,0.7,0.2,1.2,0.6,1.6c0.4,0.4,1,0.6,1.8,0.6h2V9.6z"/>
	<path class="st1" d="M206.5,16.4V1.5h7.5v1.7h-5.7V8h5.7v1.7h-5.7v5h5.7v1.7H206.5z"/>
	<path class="st1" d="M223.9,16.4l-5.7-11v11h-1.8V1.5h1.8l5.7,11v-11h1.8v14.9H223.9z"/>
	<path class="st1" d="M233.1,16.4c-0.8,0-1.5-0.1-2.1-0.4c-0.6-0.2-1.1-0.6-1.4-1c-0.4-0.4-0.7-0.9-0.8-1.5
		c-0.2-0.6-0.3-1.2-0.3-1.9V6.8c0-0.8,0.1-1.5,0.3-2.2c0.2-0.6,0.5-1.2,0.9-1.7s0.9-0.8,1.6-1.1c0.6-0.2,1.4-0.4,2.2-0.4h3.8v1.7
		h-3.8c-0.6,0-1.1,0.1-1.5,0.3c-0.4,0.2-0.7,0.4-1,0.8c-0.3,0.3-0.5,0.7-0.6,1.1c-0.1,0.4-0.2,0.9-0.2,1.4v4.8c0,0.4,0,0.8,0.1,1.2
		c0.1,0.4,0.3,0.7,0.5,1c0.2,0.3,0.5,0.5,0.9,0.7s0.8,0.3,1.3,0.3h2.8V9.9h-3.1V8.2h4.9v8.2H233.1z"/>
	<path class="st1" d="M239.6,16.4V15h3.1V3h-3.1V1.5h8.1V3h-3.1v12h3.1v1.5H239.6z"/>
	<path class="st1" d="M257.2,16.4l-5.7-11v11h-1.8V1.5h1.8l5.7,11v-11h1.8v14.9H257.2z"/>
	<path class="st1" d="M261.9,16.4V1.5h7.5v1.7h-5.7V8h5.7v1.7h-5.7v5h5.7v1.7H261.9z"/>
	<path class="st1" d="M271.9,16.4V1.5h7.5v1.7h-5.7V8h5.7v1.7h-5.7v5h5.7v1.7H271.9z"/>
	<path class="st1" d="M289.2,16.4l-3.7-6.3h-1.8v6.3h-1.8V1.5h4.2c1.5,0,2.7,0.4,3.5,1.1c0.8,0.7,1.2,1.8,1.2,3.2
		c0,2.4-1.1,3.8-3.2,4.2l3.8,6.4H289.2z M288.9,5.8c0-0.8-0.2-1.5-0.7-1.9c-0.5-0.5-1.2-0.7-2.1-0.7h-2.4v5.2h2.4
		c0.9,0,1.6-0.2,2.1-0.7C288.7,7.3,288.9,6.6,288.9,5.8z"/>
	<path class="st1" d="M292.3,16.4V15h3.1V3h-3.1V1.5h8.1V3h-3.2v12h3.2v1.5H292.3z"/>
	<path class="st1" d="M309.9,16.4l-5.7-11v11h-1.8V1.5h1.8l5.7,11v-11h1.8v14.9H309.9z"/>
	<path class="st1" d="M319.1,16.4c-0.8,0-1.5-0.1-2.1-0.4c-0.6-0.2-1.1-0.6-1.4-1c-0.4-0.4-0.7-0.9-0.8-1.5
		c-0.2-0.6-0.3-1.2-0.3-1.9V6.8c0-0.8,0.1-1.5,0.3-2.2c0.2-0.6,0.5-1.2,0.9-1.7s0.9-0.8,1.6-1.1c0.6-0.2,1.4-0.4,2.2-0.4h3.8v1.7
		h-3.8c-0.6,0-1.1,0.1-1.5,0.3c-0.4,0.2-0.7,0.4-1,0.8c-0.3,0.3-0.5,0.7-0.6,1.1c-0.1,0.4-0.2,0.9-0.2,1.4v4.8c0,0.4,0,0.8,0.1,1.2
		c0.1,0.4,0.3,0.7,0.5,1c0.2,0.3,0.5,0.5,0.9,0.7c0.4,0.2,0.8,0.3,1.3,0.3h2.8V9.9h-3.1V8.2h4.9v8.2H319.1z"/>
	<path class="st1" d="M335.1,9.7v6.7h-1.8V1.5h7.5v1.7h-5.7V8h5.7v1.7H335.1z"/>
	<path class="st1" d="M352.2,11.6c0,0.7-0.1,1.3-0.3,1.9c-0.2,0.6-0.5,1.1-0.8,1.5c-0.4,0.4-0.8,0.8-1.4,1c-0.6,0.2-1.2,0.4-1.9,0.4
		h-0.4c-0.7,0-1.4-0.1-1.9-0.4c-0.6-0.2-1-0.6-1.4-1c-0.4-0.4-0.6-0.9-0.8-1.5c-0.2-0.6-0.3-1.2-0.3-1.9V6.3c0-0.7,0.1-1.3,0.3-1.9
		c0.2-0.6,0.5-1.1,0.8-1.5s0.8-0.8,1.4-1c0.6-0.2,1.2-0.4,1.9-0.4h0.4c0.7,0,1.4,0.1,1.9,0.4c0.6,0.2,1,0.6,1.4,1
		c0.4,0.4,0.6,0.9,0.8,1.5c0.2,0.6,0.3,1.2,0.3,1.9V11.6z M350.4,6.3c0-0.4,0-0.8-0.1-1.2c-0.1-0.4-0.3-0.7-0.5-1s-0.5-0.5-0.8-0.7
		c-0.3-0.2-0.7-0.3-1.2-0.3h-0.4c-0.5,0-0.9,0.1-1.2,0.3c-0.3,0.2-0.6,0.4-0.8,0.7s-0.4,0.6-0.5,1c-0.1,0.4-0.1,0.8-0.1,1.2v5.2
		c0,0.4,0,0.8,0.1,1.2c0.1,0.4,0.3,0.7,0.5,1c0.2,0.3,0.5,0.5,0.8,0.7c0.3,0.2,0.7,0.3,1.2,0.3h0.4c0.5,0,0.9-0.1,1.2-0.3
		c0.3-0.2,0.6-0.4,0.8-0.7c0.2-0.3,0.4-0.6,0.5-1c0.1-0.4,0.1-0.8,0.1-1.2V6.3z"/>
	<path class="st1" d="M362.3,16.4l-3.7-6.3h-1.8v6.3H355V1.5h4.2c1.5,0,2.7,0.4,3.5,1.1c0.8,0.7,1.2,1.8,1.2,3.2
		c0,2.4-1.1,3.8-3.2,4.2l3.8,6.4H362.3z M362,5.8c0-0.8-0.2-1.5-0.7-1.9c-0.5-0.5-1.2-0.7-2.1-0.7h-2.4v5.2h2.4
		c0.9,0,1.6-0.2,2.1-0.7C361.8,7.3,362,6.6,362,5.8z"/>
	<path class="st1" d="M380.7,16.4V9.7H375v6.7h-1.8V1.5h1.8V8h5.7V1.5h1.8v14.9H380.7z"/>
	<path class="st1" d="M385.4,16.4V1.5h7.5v1.7h-5.7V8h5.7v1.7h-5.7v5h5.7v1.7H385.4z"/>
	<path class="st1" d="M403.7,16.4l-0.9-2.9h-5.6l-0.9,2.9h-1.9l4.7-14.9h1.8l4.7,14.9H403.7z M400,4.4l-2.3,7.4h4.6L400,4.4z"/>
	<path class="st1" d="M410.9,3.2v13.2h-1.8V3.2h-4.2V1.5H415v1.7H410.9z"/>
	<path class="st1" d="M423.8,16.4V1.5h7.5v1.7h-5.7V8h5.7v1.7h-5.7v5h5.7v1.7H423.8z"/>
	<path class="st1" d="M441.8,16.4l-3.5-5.8l-3.5,5.8h-2.2l4.6-7.6l-4.4-7.3h2.2l3.3,5.5l3.3-5.5h2.2l-4.4,7.3l4.6,7.6H441.8z"/>
	<path class="st1" d="M449.6,16.4c-0.8,0-1.4-0.1-2-0.4c-0.6-0.2-1-0.6-1.4-1c-0.4-0.4-0.6-0.9-0.8-1.5c-0.2-0.6-0.3-1.2-0.3-1.9
		V6.3c0-0.7,0.1-1.3,0.3-1.9c0.2-0.6,0.4-1.1,0.8-1.5s0.8-0.8,1.4-1c0.6-0.2,1.2-0.4,2-0.4h3v1.7h-2.9c-0.5,0-0.9,0.1-1.3,0.3
		c-0.3,0.2-0.6,0.4-0.9,0.7c-0.2,0.3-0.4,0.6-0.5,1c-0.1,0.4-0.1,0.8-0.1,1.2v5.2c0,0.4,0,0.8,0.1,1.2c0.1,0.4,0.3,0.7,0.5,1
		c0.2,0.3,0.5,0.5,0.8,0.7c0.3,0.2,0.8,0.3,1.3,0.3h2.9v1.7H449.6z"/>
	<path class="st1" d="M462.4,16.4V9.7h-5.7v6.7h-1.8V1.5h1.8V8h5.7V1.5h1.8v14.9H462.4z"/>
	<path class="st1" d="M475.4,16.4l-0.9-2.9h-5.6l-0.9,2.9H466l4.7-14.9h1.8l4.7,14.9H475.4z M471.7,4.4l-2.3,7.4h4.6L471.7,4.4z"/>
	<path class="st1" d="M486.6,16.4l-5.7-11v11h-1.8V1.5h1.8l5.7,11v-11h1.8v14.9H486.6z"/>
	<path class="st1" d="M495.8,16.4c-0.8,0-1.5-0.1-2.1-0.4c-0.6-0.2-1.1-0.6-1.4-1c-0.4-0.4-0.7-0.9-0.8-1.5
		c-0.2-0.6-0.3-1.2-0.3-1.9V6.8c0-0.8,0.1-1.5,0.3-2.2c0.2-0.6,0.5-1.2,0.9-1.7s0.9-0.8,1.6-1.1c0.6-0.2,1.4-0.4,2.2-0.4h3.8v1.7
		h-3.8c-0.6,0-1.1,0.1-1.5,0.3c-0.4,0.2-0.7,0.4-1,0.8c-0.3,0.3-0.5,0.7-0.6,1.1c-0.1,0.4-0.2,0.9-0.2,1.4v4.8c0,0.4,0,0.8,0.1,1.2
		c0.1,0.4,0.3,0.7,0.5,1c0.2,0.3,0.5,0.5,0.9,0.7c0.4,0.2,0.8,0.3,1.3,0.3h2.8V9.9h-3.1V8.2h4.9v8.2H495.8z"/>
	<path class="st1" d="M503.3,16.4V1.5h7.5v1.7h-5.7V8h5.7v1.7h-5.7v5h5.7v1.7H503.3z"/>
	<path class="st1" d="M520.6,16.4l-3.7-6.3h-1.8v6.3h-1.8V1.5h4.2c1.5,0,2.7,0.4,3.5,1.1c0.8,0.7,1.2,1.8,1.2,3.2
		c0,2.4-1.1,3.8-3.2,4.2l3.8,6.4H520.6z M520.3,5.8c0-0.8-0.2-1.5-0.7-1.9c-0.5-0.5-1.2-0.7-2.1-0.7h-2.4v5.2h2.4
		c0.9,0,1.6-0.2,2.1-0.7C520.1,7.3,520.3,6.6,520.3,5.8z"/>
	<path class="st1" d="M532.3,12.4c0,0.7-0.1,1.4-0.3,1.9s-0.5,0.9-0.9,1.2c-0.4,0.3-0.8,0.6-1.4,0.7s-1.1,0.2-1.8,0.2h-3.6v-1.7h3.5
		c0.8,0,1.5-0.2,2-0.5c0.5-0.4,0.8-1,0.8-1.8V12c0-0.3,0-0.6-0.1-0.9c-0.1-0.2-0.2-0.5-0.4-0.6s-0.4-0.3-0.6-0.4s-0.5-0.2-0.8-0.3
		l-1.4-0.5c-0.4-0.1-0.7-0.3-1-0.5c-0.3-0.2-0.6-0.4-0.9-0.7c-0.3-0.3-0.5-0.6-0.6-1c-0.2-0.4-0.2-0.9-0.2-1.4V5.4
		c0-0.6,0.1-1.2,0.3-1.7c0.2-0.5,0.5-0.9,0.9-1.2s0.8-0.6,1.3-0.7c0.5-0.2,1.1-0.2,1.7-0.2h3.4v1.7h-3.4c-0.8,0-1.4,0.2-1.9,0.5
		c-0.4,0.3-0.7,0.9-0.7,1.6v0.3c0,0.5,0.2,0.9,0.5,1.2c0.3,0.3,0.7,0.5,1.2,0.7l1.3,0.5c0.4,0.1,0.8,0.3,1.1,0.5
		c0.4,0.2,0.7,0.4,1,0.7c0.3,0.3,0.5,0.7,0.7,1.1c0.2,0.4,0.3,1,0.3,1.6V12.4z"/>
</g>
</svg>
