<?xml version="1.0" encoding="UTF-8" standalone="no"?>
<!-- Created with Inkscape (http://www.inkscape.org/) -->
<svg
   xmlns:svg="http://www.w3.org/2000/svg"
   xmlns="http://www.w3.org/2000/svg"
   version="1.0"
   width="708.66144"
   height="243.07864"
   id="svg2941">
  <defs
     id="defs2943" />
  <g
     transform="translate(-485.01871,-522.4172)"
     id="layer1">
    <g
       transform="matrix(6.1409135,0,0,6.1852072,-2108.4303,-1413.4908)"
       id="g2929">
      <path
         d="M 437.723,331.08 L 437.723,331.24 L 437.623,331.5 L 437.523,331.84 L 437.323,332.26 L 437.223,332.76 L 437.023,333.32 L 436.823,333.92 L 436.523,334.56 L 436.323,335.24 L 436.123,335.94 L 435.823,336.66 L 435.623,337.38 L 435.323,338.1 L 435.123,338.79 L 434.923,339.47 L 434.623,340.13 L 434.423,340.74 L 434.323,341.28 L 434.123,341.79 L 433.923,342.21 L 433.823,342.55 L 433.723,342.82 L 433.723,342.99 L 433.723,343.04 L 433.423,343.66 L 433.323,344.26 L 433.123,344.81 L 432.923,345.34 L 432.823,345.84 L 432.723,346.35 L 432.523,346.86 L 432.423,347.4 L 432.423,347.4 L 432.223,346.74 L 432.023,346.11 L 431.823,345.5 L 431.723,344.92 L 431.523,344.34 L 431.323,343.8 L 431.123,343.28 L 431.123,343.23 L 431.123,343.06 L 431.023,342.8 L 430.823,342.44 L 430.723,342.01 L 430.523,341.5 L 430.323,340.93 L 430.123,340.32 L 429.923,339.65 L 429.723,338.96 L 429.523,338.25 L 429.223,337.51 L 429.023,336.78 L 428.723,336.04 L 428.523,335.32 L 428.323,334.63 L 428.023,333.99 L 427.823,333.36 L 427.723,332.79 L 427.523,332.29 L 427.423,331.85 L 427.223,331.5 L 427.123,331.24 L 427.123,331.08 L 426.923,330.56 L 422.323,330.56 L 429.823,351.99 L 434.723,351.99 L 442.323,330.56 L 437.923,330.56 L 437.723,331.08"
         style="fill:#231f20;fill-rule:nonzero;stroke:none"
         id="path2740" />
      <path
         d="M 461.123,336.64 L 461.023,336.93 L 460.923,337.38 L 460.723,337.94 L 460.523,338.6 L 460.223,339.32 L 459.923,340.08 L 459.723,340.83 L 459.423,341.56 L 459.223,342.22 L 459.023,342.8 L 458.823,343.23 L 458.723,343.51 L 458.723,343.62 L 458.523,344.17 L 458.423,344.71 L 458.223,345.27 L 458.023,345.83 L 457.923,346.39 L 457.823,346.92 L 457.723,346.92 L 457.623,346.36 L 457.423,345.79 L 457.223,345.22 L 457.123,344.63 L 456.923,344.06 L 456.723,343.5 L 456.723,343.39 L 456.623,343.12 L 456.423,342.67 L 456.223,342.11 L 456.023,341.47 L 455.723,340.75 L 455.523,340.02 L 455.223,339.28 L 455.023,338.56 L 454.723,337.92 L 454.523,337.36 L 454.423,336.92 L 454.323,336.64 L 454.223,336.54 L 449.923,336.54 L 455.623,351.99 L 459.623,351.99 L 465.423,336.54 L 461.223,336.54 L 461.123,336.64"
         style="fill:#231f20;fill-rule:nonzero;stroke:none"
         id="path2742" />
      <path
         d="M 492.623,336.29 L 492.123,336.22 L 491.523,336.19 L 490.923,336.22 L 490.323,336.3 L 489.723,336.43 L 489.423,336.54 L 493.523,336.54 L 493.223,336.41 L 492.623,336.29"
         style="fill:#231f20;fill-rule:nonzero;stroke:none"
         id="path2744" />
      <path
         d="M 496.023,340.63 L 496.023,340.15 L 495.923,339.68 L 495.823,339.23 L 495.723,338.79 L 495.523,338.38 L 495.323,338 L 495.023,337.65 L 494.823,337.34 L 494.423,337.05 L 494.023,336.79 L 493.623,336.59 L 493.523,336.54 L 493.223,336.41 L 492.623,336.29 L 492.123,336.22 L 491.523,336.19 L 490.923,336.22 L 490.323,336.3 L 489.723,336.43 L 489.423,336.54 L 489.223,336.59 L 488.723,336.81 L 488.323,337.06 L 487.823,337.35 L 487.423,337.68 L 487.123,338.04 L 486.823,338.44 L 486.523,338.86 L 486.223,339.3 L 486.223,339.3 L 486.223,339.28 L 486.223,339.27 L 486.323,338.6 L 486.423,337.87 L 486.423,337.13 L 486.423,336.54 L 482.723,336.54 L 482.723,351.99 L 486.623,351.99 L 486.623,344.52 L 486.723,343.95 L 486.723,343.39 L 486.823,342.86 L 487.023,342.35 L 487.223,341.87 L 487.423,341.42 L 487.723,341.01 L 488.023,340.64 L 488.323,340.32 L 488.623,340.04 L 489.023,339.81 L 489.423,339.65 L 489.823,339.56 L 490.223,339.51 L 490.823,339.58 L 491.223,339.75 L 491.623,340.03 L 491.823,340.41 L 492.023,340.89 L 492.123,341.45 L 492.123,342.1 L 492.123,351.99 L 496.023,351.99 L 496.023,341.13 L 496.023,340.63"
         style="fill:#231f20;fill-rule:nonzero;stroke:none"
         id="path2746" />
      <path
         d="M 474.823,345.24 L 474.823,345.51 L 474.823,346.03 L 474.723,346.52 L 474.523,347.01 L 474.323,347.46 L 474.023,347.88 L 473.723,348.26 L 473.423,348.61 L 473.023,348.88 L 472.523,349.08 L 472.023,349.2 L 471.523,349.26 L 470.923,349.18 L 470.423,348.96 L 470.023,348.62 L 469.823,348.16 L 469.723,347.6 L 469.723,347.31 L 469.823,347.04 L 469.923,346.77 L 470.023,346.5 L 470.323,346.25 L 470.523,346.02 L 470.923,345.8 L 471.323,345.63 L 471.823,345.46 L 472.423,345.32 L 473.123,345.23 L 473.923,345.18 L 474.823,345.15 L 474.823,345.24 z M 478.723,341.09 L 478.723,340.64 L 478.723,340.21 L 478.623,339.79 L 478.523,339.39 L 478.423,339.02 L 478.223,338.67 L 478.023,338.34 L 477.823,338.03 L 477.623,337.75 L 477.323,337.49 L 477.023,337.24 L 476.623,337.02 L 476.323,336.83 L 475.823,336.67 L 475.423,336.52 L 474.923,336.41 L 474.323,336.32 L 473.723,336.25 L 473.123,336.21 L 472.423,336.19 L 471.823,336.21 L 471.223,336.24 L 470.623,336.3 L 470.123,336.37 L 469.523,336.46 L 469.023,336.57 L 468.423,336.7 L 467.923,336.84 L 467.423,337 L 467.323,337.04 L 467.323,340.48 L 467.823,340.22 L 468.323,339.98 L 468.923,339.77 L 469.523,339.6 L 470.123,339.46 L 470.723,339.35 L 471.323,339.3 L 471.823,339.27 L 472.523,339.3 L 473.123,339.39 L 473.623,339.56 L 474.023,339.76 L 474.323,340.04 L 474.523,340.37 L 474.723,340.77 L 474.823,341.21 L 474.823,341.73 L 474.823,342.56 L 474.223,342.58 L 473.623,342.6 L 473.023,342.66 L 472.423,342.71 L 471.923,342.8 L 471.323,342.9 L 470.823,343.02 L 470.323,343.16 L 469.923,343.33 L 469.423,343.49 L 469.023,343.69 L 468.623,343.9 L 468.223,344.13 L 467.923,344.37 L 467.523,344.63 L 467.323,344.92 L 467.023,345.22 L 466.723,345.53 L 466.523,345.87 L 466.323,346.22 L 466.223,346.59 L 466.123,346.97 L 466.023,347.37 L 466.023,347.79 L 465.923,348.22 L 466.023,348.74 L 466.023,349.23 L 466.223,349.69 L 466.323,350.11 L 466.523,350.51 L 466.823,350.88 L 467.123,351.19 L 467.423,351.48 L 467.823,351.72 L 468.223,351.92 L 468.723,352.09 L 469.223,352.2 L 469.723,352.28 L 470.323,352.29 L 470.923,352.28 L 471.423,352.2 L 472.023,352.09 L 472.423,351.92 L 472.923,351.72 L 473.423,351.48 L 473.823,351.19 L 474.123,350.89 L 474.523,350.54 L 474.823,350.17 L 475.023,349.78 L 475.223,349.34 L 475.223,349.35 L 475.323,349.36 L 475.323,349.38 L 475.223,350.01 L 475.123,350.66 L 475.123,351.34 L 475.123,352.02 L 475.623,352.03 L 477.223,352.03 L 477.723,352.02 L 478.323,351.99 L 478.823,351.97 L 478.823,341.57 L 478.723,341.09"
         style="fill:#231f20;fill-rule:nonzero;stroke:none"
         id="path2748" />
      <path
         d="M 514.623,341.6 L 514.823,341.05 L 515.023,340.56 L 515.323,340.14 L 515.723,339.79 L 516.123,339.5 L 516.523,339.3 L 517.023,339.16 L 517.523,339.12 L 518.023,339.16 L 518.523,339.28 L 519.023,339.49 L 519.323,339.76 L 519.623,340.12 L 519.923,340.53 L 520.123,341.02 L 520.223,341.58 L 520.223,342.2 L 514.523,342.2 L 514.623,341.6 z M 522.723,348.44 L 522.123,348.64 L 521.623,348.81 L 521.023,348.95 L 520.423,349.06 L 519.823,349.12 L 519.323,349.18 L 518.723,349.19 L 518.123,349.16 L 517.623,349.11 L 517.123,349 L 516.623,348.85 L 516.223,348.64 L 515.823,348.42 L 515.523,348.13 L 515.223,347.8 L 515.023,347.44 L 514.823,347.01 L 514.623,346.55 L 514.523,346.05 L 514.523,345.5 L 514.423,344.9 L 524.023,344.9 L 524.023,344.26 L 524.123,343.65 L 524.123,343.09 L 524.123,342.6 L 524.123,342.11 L 524.023,341.64 L 523.923,341.18 L 523.823,340.73 L 523.723,340.3 L 523.523,339.88 L 523.423,339.47 L 523.223,339.09 L 522.923,338.73 L 522.723,338.37 L 522.423,338.04 L 522.123,337.75 L 521.823,337.47 L 521.423,337.21 L 521.023,336.98 L 520.623,336.78 L 520.223,336.6 L 519.823,336.46 L 519.323,336.34 L 518.723,336.26 L 518.223,336.21 L 517.623,336.19 L 517.123,336.21 L 516.723,336.25 L 516.223,336.32 L 515.723,336.41 L 515.323,336.54 L 514.923,336.68 L 514.523,336.86 L 514.123,337.05 L 513.723,337.27 L 513.423,337.51 L 513.023,337.77 L 512.723,338.06 L 512.423,338.37 L 512.223,338.68 L 511.923,339.04 L 511.723,339.39 L 511.523,339.77 L 511.323,340.17 L 511.123,340.59 L 511.023,341.01 L 510.823,341.46 L 510.723,341.93 L 510.623,342.39 L 510.523,342.88 L 510.523,343.38 L 510.423,343.88 L 510.423,344.4 L 510.423,345 L 510.523,345.56 L 510.523,346.1 L 510.623,346.63 L 510.723,347.12 L 510.823,347.6 L 511.023,348.05 L 511.123,348.47 L 511.323,348.86 L 511.523,349.24 L 511.823,349.6 L 512.023,349.94 L 512.323,350.24 L 512.623,350.54 L 512.923,350.79 L 513.223,351.04 L 513.523,351.26 L 513.923,351.46 L 514.323,351.64 L 514.723,351.79 L 515.123,351.92 L 515.623,352.05 L 516.023,352.13 L 516.523,352.21 L 517.023,352.25 L 517.523,352.29 L 518.623,352.29 L 519.223,352.25 L 519.823,352.21 L 520.323,352.14 L 520.923,352.05 L 521.423,351.94 L 522.023,351.8 L 522.523,351.65 L 523.023,351.49 L 523.223,351.44 L 523.223,348.22 L 522.723,348.44"
         style="fill:#231f20;fill-rule:nonzero;stroke:none"
         id="path2750" />
      <path
         d="M 500.823,331.8 L 500.823,336.54 L 498.223,336.54 L 498.223,339.61 L 500.923,339.61 L 500.923,347.45 L 500.923,348.1 L 500.923,348.69 L 501.023,349.23 L 501.123,349.73 L 501.223,350.17 L 501.423,350.56 L 501.623,350.92 L 501.823,351.23 L 502.123,351.49 L 502.423,351.72 L 502.823,351.9 L 503.223,352.05 L 503.623,352.16 L 504.123,352.24 L 504.723,352.28 L 505.323,352.29 L 506.023,352.28 L 506.623,352.23 L 507.323,352.14 L 507.923,352.03 L 508.523,351.9 L 508.523,348.69 L 507.923,348.82 L 507.323,348.92 L 506.623,348.95 L 506.123,348.9 L 505.723,348.78 L 505.323,348.57 L 505.123,348.22 L 504.923,347.76 L 504.823,347.16 L 504.823,346.39 L 504.823,339.61 L 508.523,339.61 L 508.523,336.54 L 504.823,336.54 L 504.823,331.8 L 500.823,331.8"
         style="fill:#231f20;fill-rule:nonzero;stroke:none"
         id="path2752" />
      <path
         d="M 530.723,340.82 C 530.723,339.51 532.023,339.12 533.123,339.12 C 534.523,339.12 535.423,339.47 536.723,339.88 L 536.723,336.91 C 535.523,336.51 534.323,336.19 532.623,336.19 C 529.423,336.19 526.523,337.65 526.523,340.97 C 526.523,346.53 533.523,344.47 533.523,347.48 C 533.523,348.98 531.923,349.19 530.923,349.19 C 529.523,349.19 528.223,348.86 526.923,348.23 L 526.923,351.49 C 528.323,351.84 529.823,352.29 531.223,352.29 C 534.523,352.29 537.723,350.85 537.723,347.27 C 537.723,341.72 530.723,343.27 530.723,340.82"
         style="fill:#231f20;fill-rule:nonzero;stroke:none"
         id="path2754" />
      <path
         d="M 443.823,339.58 L 443.823,351.99 L 447.723,351.99 L 447.723,336.54 L 443.823,336.54 L 443.823,339.58"
         style="fill:#231f20;fill-rule:nonzero;stroke:none"
         id="path2756" />
      <path
         d="M 443.823,330.56 L 443.823,334.53 C 455.723,334.53 465.323,324.87 465.323,312.99 L 461.423,312.99 C 461.423,322.67 453.523,330.56 443.823,330.56"
         style="fill:#d2103e;fill-rule:nonzero;stroke:none"
         id="path2758" />
    </g>
  </g>
</svg>
